<svg xmlns="http://www.w3.org/2000/svg" xmlns:svg="http://www.w3.org/2000/svg" style="enable-background:new 0 0 45 45" id="svg2" version="1.1" viewBox="0 0 45 45" xml:space="preserve"><metadata id="metadata8"/><defs id="defs6"><clipPath id="clipPath16" clipPathUnits="userSpaceOnUse"><path id="path18" d="M 0,36 36,36 36,0 0,0 0,36 Z"/></clipPath></defs><g id="g10" transform="matrix(1.25,0,0,-1.25,0,45)"><g id="g12"><g id="g14" clip-path="url(#clipPath16)"><g id="g20" transform="translate(32,31)"><path id="path22" d="m 0,0 -22.823,0 -0.665,-0.484 0.364,-1.123 -0.955,0.695 -0.956,-0.695 0.365,1.123 L -25.335,0 -28,0 c -2.209,0 -4,-1.791 -4,-4 l 0,-18 c 0,-2.209 1.791,-4 4,-4 l 19.725,0 0.105,0.324 -0.955,0.695 1.181,0 0.365,1.122 0.365,-1.122 1.181,0 -0.956,-0.695 L -6.883,-26 0,-26 c 2.209,0 4,1.791 4,4 L 4,-4 C 4,-1.791 2.209,0 0,0" style="fill:#2d3189;fill-opacity:1;fill-rule:nonzero;stroke:none"/></g><g id="g24" transform="translate(6.9654,29.3931)"><path id="path26" d="M 0,0 0.956,0.695 1.911,0 1.546,1.123 2.212,1.607 -0.301,1.607 0.365,1.123 0,0 Z" style="fill:#e1e8ed;fill-opacity:1;fill-rule:nonzero;stroke:none"/></g><g id="g28" transform="translate(25.9668,6.0186)"><path id="path30" d="M 0,0 -1.181,0 -1.546,1.123 -1.911,0 l -1.181,0 0.955,-0.695 -0.105,-0.324 1.392,0 -0.105,0.324 L 0,0 Z" style="fill:#e1e8ed;fill-opacity:1;fill-rule:nonzero;stroke:none"/></g><g id="g32" transform="translate(9.9986,29.1846)"><path id="path34" d="m 0,0 0.365,-1.123 1.181,0 L 0.591,-1.817 0.955,-2.94 0,-2.246 -0.956,-2.94 l 0.365,1.123 -0.955,0.694 1.181,0 L 0,0 Z" style="fill:#e1e8ed;fill-opacity:1;fill-rule:nonzero;stroke:none"/></g><g id="g36" transform="translate(12.0683,26.0352)"><path id="path38" d="m 0,0 0.365,-1.123 1.181,0 L 0.591,-1.817 0.955,-2.94 0,-2.246 -0.956,-2.94 l 0.365,1.123 -0.955,0.694 1.181,0 L 0,0 Z" style="fill:#e1e8ed;fill-opacity:1;fill-rule:nonzero;stroke:none"/></g><g id="g40" transform="translate(14.1216,22.8867)"><path id="path42" d="m 0,0 0.365,-1.123 1.181,0 L 0.591,-1.818 0.956,-2.941 0,-2.246 l -0.956,-0.695 0.365,1.123 -0.955,0.695 1.181,0 L 0,0 Z" style="fill:#e1e8ed;fill-opacity:1;fill-rule:nonzero;stroke:none"/></g><g id="g44" transform="translate(16.1831,19.7373)"><path id="path46" d="m 0,0 0.365,-1.123 1.181,0 L 0.591,-1.817 0.956,-2.94 0,-2.246 -0.956,-2.94 l 0.365,1.123 -0.955,0.694 1.181,0 L 0,0 Z" style="fill:#e1e8ed;fill-opacity:1;fill-rule:nonzero;stroke:none"/></g><g id="g48" transform="translate(18.2444,16.5884)"><path id="path50" d="m 0,0 0.365,-1.124 1.181,0 L 0.591,-1.817 0.956,-2.941 0,-2.246 l -0.955,-0.695 0.364,1.124 -0.955,0.693 1.181,0 L 0,0 Z" style="fill:#e1e8ed;fill-opacity:1;fill-rule:nonzero;stroke:none"/></g><g id="g52" transform="translate(20.3059,13.4395)"><path id="path54" d="m 0,0 0.365,-1.123 1.181,0 L 0.591,-1.818 0.956,-2.94 0,-2.246 -0.955,-2.94 l 0.364,1.122 -0.955,0.695 1.181,0 L 0,0 Z" style="fill:#e1e8ed;fill-opacity:1;fill-rule:nonzero;stroke:none"/></g><g id="g56" transform="translate(22.3594,10.2906)"><path id="path58" d="m 0,0 0.365,-1.124 1.181,0 L 0.591,-1.818 0.956,-2.941 0,-2.247 l -0.956,-0.694 0.365,1.123 -0.955,0.694 1.181,0 L 0,0 Z" style="fill:#e1e8ed;fill-opacity:1;fill-rule:nonzero;stroke:none"/></g><g id="g60" transform="translate(28,5)"><path id="path62" d="M 0,0 0,26 -17,26 0,0 Z" style="fill:#fbd116;fill-opacity:1;fill-rule:nonzero;stroke:none"/></g></g></g></g></svg>