<svg xmlns="http://www.w3.org/2000/svg" xmlns:svg="http://www.w3.org/2000/svg" style="enable-background:new 0 0 45 45" id="svg2" version="1.1" viewBox="0 0 45 45" xml:space="preserve"><metadata id="metadata8"/><defs id="defs6"><clipPath id="clipPath16" clipPathUnits="userSpaceOnUse"><path id="path18" d="M 4,31 C 1.791,31 0,29.209 0,27 L 0,27 0,9 C 0,6.791 1.791,5 4,5 l 0,0 28,0 c 2.209,0 4,1.791 4,4 l 0,0 0,18 c 0,2.209 -1.791,4 -4,4 l 0,0 -28,0 z"/></clipPath></defs><g id="g10" transform="matrix(1.25,0,0,-1.25,0,45)"><g id="g12"><g id="g14" clip-path="url(#clipPath16)"><path id="path20" d="m 21,24.5 15,0 0,6.5 -15,0 0,-6.5 z" style="fill:#003082;fill-opacity:1;fill-rule:nonzero;stroke:none"/><g id="g22" transform="translate(6.1976,26.2941)"><path id="path24" d="m 0,0 -1.781,-1.294 0.68,2.094 -1.781,1.294 2.202,0 L 0,4.188 0.68,2.094 2.882,2.094 1.101,0.8 1.781,-1.294 0,0 Z m 8.802,4.706 -15,0 0,-6.5 15,0 0,6.5 z" style="fill:#003082;fill-opacity:1;fill-rule:nonzero;stroke:none"/></g><path id="path26" d="m 21,18 15,0 0,6.5 -15,0 0,-6.5 z" style="fill:#eee;fill-opacity:1;fill-rule:nonzero;stroke:none"/><path id="path28" d="m 15,24.5 -15,0 0,-6.5 15,0 0,6.5 z" style="fill:#eee;fill-opacity:1;fill-rule:nonzero;stroke:none"/><path id="path30" d="m 15,18 -15,0 0,-6.5 15,0 0,6.5 z" style="fill:#289728;fill-opacity:1;fill-rule:nonzero;stroke:none"/><path id="path32" d="m 21,11.5 15,0 0,6.5 -15,0 0,-6.5 z" style="fill:#289728;fill-opacity:1;fill-rule:nonzero;stroke:none"/><path id="path34" d="m 21,5 15,0 0,6.5 -15,0 0,-6.5 z" style="fill:#ffce00;fill-opacity:1;fill-rule:nonzero;stroke:none"/><path id="path36" d="m 0,5 15,0 0,6.5 -15,0 L 0,5 Z" style="fill:#ffce00;fill-opacity:1;fill-rule:nonzero;stroke:none"/><g id="g38" transform="translate(21,18)"><path id="path40" d="M 0,0 0,6.5 0,13 -6,13 -6,6.5 -6,0 -6,-6.5 -6,-13 0,-13 0,-6.5 0,0 Z" style="fill:#d21034;fill-opacity:1;fill-rule:nonzero;stroke:none"/></g><g id="g42" transform="translate(9.0796,28.3879)"><path id="path44" d="M 0,0 -2.202,0 -2.882,2.094 -3.562,0 l -2.202,0 1.781,-1.294 -0.68,-2.094 1.781,1.294 1.781,-1.294 -0.68,2.094 L 0,0 Z" style="fill:#ffce00;fill-opacity:1;fill-rule:nonzero;stroke:none"/></g></g></g></g></svg>