<svg xmlns="http://www.w3.org/2000/svg" xmlns:svg="http://www.w3.org/2000/svg" style="enable-background:new 0 0 45 45" id="svg2" version="1.1" viewBox="0 0 45 45" xml:space="preserve"><metadata id="metadata8"/><defs id="defs6"><clipPath id="clipPath16" clipPathUnits="userSpaceOnUse"><path id="path18" d="M 4,31 C 1.791,31 0,29.209 0,27 L 0,27 0,9 C 0,6.791 1.791,5 4,5 l 0,0 28,0 c 2.209,0 4,1.791 4,4 l 0,0 0,18 c 0,2.209 -1.791,4 -4,4 l 0,0 -28,0 z"/></clipPath></defs><g id="g10" transform="matrix(1.25,0,0,-1.25,0,45)"><g id="g12"><g id="g14" clip-path="url(#clipPath16)"><path id="path20" d="m 0,5 36,0 0,8.5 -36,0 L 0,5 Z" style="fill:#007a3d;fill-opacity:1;fill-rule:nonzero;stroke:none"/><path id="path22" d="m 0,13.5 36,0 0,9 -36,0 0,-9 z" style="fill:#eee;fill-opacity:1;fill-rule:nonzero;stroke:none"/><path id="path24" d="m 0,22.5 36,0 0,8.5 -36,0 0,-8.5 z" style="fill:#141414;fill-opacity:1;fill-rule:nonzero;stroke:none"/><g id="g26" transform="translate(0,31)"><path id="path28" d="M 0,0 0,-13 0,-26 12,-13 0,0 Z" style="fill:#c4111b;fill-opacity:1;fill-rule:nonzero;stroke:none"/></g><g id="g30" transform="translate(17.8938,17.9667)"><path id="path32" d="M 0,0 C 0,1.692 1.213,3.101 2.817,3.405 2.606,3.445 2.389,3.467 2.167,3.467 0.252,3.467 -1.3,1.915 -1.3,0 c 0,-1.915 1.552,-3.467 3.467,-3.467 0.222,0 0.439,0.022 0.65,0.062 C 1.213,-3.101 0,-1.692 0,0" style="fill:#c4111b;fill-opacity:1;fill-rule:nonzero;stroke:none"/></g><g id="g34" transform="translate(19.1299,15.8676)"><path id="path36" d="M 0,0 1.478,1.057 2.945,-0.016 2.397,1.716 3.87,2.78 2.053,2.794 1.497,4.524 0.922,2.8 -0.895,2.806 0.567,1.726 0,0 Z" style="fill:#c4111b;fill-opacity:1;fill-rule:nonzero;stroke:none"/></g></g></g></g></svg>