<svg xmlns="http://www.w3.org/2000/svg" xmlns:svg="http://www.w3.org/2000/svg" style="enable-background:new 0 0 45 45" id="svg2" version="1.1" viewBox="0 0 45 45" xml:space="preserve"><metadata id="metadata8"/><defs id="defs6"><clipPath id="clipPath16" clipPathUnits="userSpaceOnUse"><path id="path18" d="M 4,31 C 1.791,31 0,29.209 0,27 L 0,27 0,9 C 0,6.791 1.791,5 4,5 l 0,0 28,0 c 2.209,0 4,1.791 4,4 l 0,0 0,18 c 0,2.209 -1.791,4 -4,4 l 0,0 -28,0 z"/></clipPath></defs><g id="g10" transform="matrix(1.25,0,0,-1.25,0,45)"><g id="g12"><g id="g14" clip-path="url(#clipPath16)"><path id="path20" d="M 0,31 36,31 36,5 0,5 0,31 Z" style="fill:#ce1126;fill-opacity:1;fill-rule:nonzero;stroke:none"/><g id="g22" transform="translate(3.5,27.5)"><path id="path24" d="M 0,0 29,0 29,-19 0,-19 0,0 Z" style="fill:#007a5e;fill-opacity:1;fill-rule:nonzero;stroke:none"/></g><g id="g26" transform="translate(3.5,27.5)"><path id="path28" d="M 0,0 29,0 0,-19 29,-19 0,0 Z" style="fill:#fcd116;fill-opacity:1;fill-rule:nonzero;stroke:none"/></g><g id="g30" transform="translate(21.5,18)"><path id="path32" d="M 0,0 C 0,-1.933 -1.567,-3.5 -3.5,-3.5 -5.433,-3.5 -7,-1.933 -7,0 -7,1.933 -5.433,3.5 -3.5,3.5 -1.567,3.5 0,1.933 0,0" style="fill:#ce1126;fill-opacity:1;fill-rule:nonzero;stroke:none"/></g><g id="g34" transform="translate(18,21.2016)"><path id="path36" d="m 0,0 0.719,-2.212 2.326,0 L 1.163,-3.579 1.882,-5.792 0,-4.424 l -1.882,-1.368 0.719,2.213 -1.882,1.367 2.326,0 L 0,0 Z" style="fill:#fcd116;fill-opacity:1;fill-rule:nonzero;stroke:none"/></g><g id="g38" transform="translate(18,30.818)"><path id="path40" d="m 0,0 0.386,-1.188 1.249,0 L 0.625,-1.922 1.011,-3.11 0,-2.376 -1.011,-3.11 l 0.386,1.188 -1.01,0.734 1.249,0 L 0,0 Z" style="fill:#fcd116;fill-opacity:1;fill-rule:nonzero;stroke:none"/></g><g id="g42" transform="translate(26.0201,30.818)"><path id="path44" d="m 0,0 0.386,-1.188 1.249,0 L 0.625,-1.922 1.011,-3.11 0,-2.376 -1.011,-3.11 l 0.386,1.188 -1.01,0.734 1.249,0 L 0,0 Z" style="fill:#fcd116;fill-opacity:1;fill-rule:nonzero;stroke:none"/></g><g id="g46" transform="translate(9.9799,30.818)"><path id="path48" d="m 0,0 0.386,-1.188 1.249,0 L 0.625,-1.922 1.011,-3.11 0,-2.376 -1.011,-3.11 l 0.386,1.188 -1.01,0.734 1.249,0 L 0,0 Z" style="fill:#fcd116;fill-opacity:1;fill-rule:nonzero;stroke:none"/></g><g id="g50" transform="translate(18,8.3179)"><path id="path52" d="m 0,0 0.386,-1.188 1.249,0 L 0.625,-1.922 1.011,-3.11 0,-2.376 -1.011,-3.11 l 0.386,1.188 -1.01,0.734 1.249,0 L 0,0 Z" style="fill:#fcd116;fill-opacity:1;fill-rule:nonzero;stroke:none"/></g><g id="g54" transform="translate(26.0201,8.3179)"><path id="path56" d="m 0,0 0.386,-1.188 1.249,0 L 0.625,-1.922 1.011,-3.11 0,-2.376 -1.011,-3.11 l 0.386,1.188 -1.01,0.734 1.249,0 L 0,0 Z" style="fill:#fcd116;fill-opacity:1;fill-rule:nonzero;stroke:none"/></g><g id="g58" transform="translate(9.9799,8.3179)"><path id="path60" d="m 0,0 0.386,-1.188 1.249,0 L 0.625,-1.922 1.011,-3.11 0,-2.376 -1.011,-3.11 l 0.386,1.188 -1.01,0.734 1.249,0 L 0,0 Z" style="fill:#fcd116;fill-opacity:1;fill-rule:nonzero;stroke:none"/></g><g id="g62" transform="translate(6.1179,16.9331)"><path id="path64" d="M 0,0 C 0.304,-0.315 0.645,-0.579 0.962,-0.712 0.967,-0.363 0.905,0.036 0.798,0.436 0.53,0.687 0.227,0.9 -0.07,1.013 -0.113,0.695 -0.082,0.34 0,0" style="fill:#ce1126;fill-opacity:1;fill-rule:nonzero;stroke:none"/></g><g id="g66" transform="translate(7.6426,16.4369)"><path id="path68" d="m 0,0 c 0.803,2.916 -2.06,2.738 -2.803,3.67 0.512,-1.068 -1.329,-3.617 1.739,-4.214 -0.203,0.276 -0.366,0.649 -0.461,1.04 -0.082,0.341 -0.113,0.695 -0.07,1.013 0.297,-0.113 0.6,-0.326 0.869,-0.577 C -0.413,0.639 -0.148,0.295 0,0" style="fill:#fcd116;fill-opacity:1;fill-rule:nonzero;stroke:none"/></g></g></g></g></svg>