<svg xmlns="http://www.w3.org/2000/svg" xmlns:svg="http://www.w3.org/2000/svg" style="enable-background:new 0 0 45 45" id="svg2" version="1.1" viewBox="0 0 45 45" xml:space="preserve"><metadata id="metadata8"/><defs id="defs6"><clipPath id="clipPath16" clipPathUnits="userSpaceOnUse"><path id="path18" d="M 0,36 36,36 36,0 0,0 0,36 Z"/></clipPath></defs><g id="g10" transform="matrix(1.25,0,0,-1.25,0,45)"><g id="g12"><g id="g14" clip-path="url(#clipPath16)"><g id="g20" transform="translate(32,31)"><path id="path22" d="m 0,0 -28,0 c -2.209,0 -4,-1.791 -4,-4 l 0,-10 36,0 0,10 C 4,-1.791 2.209,0 0,0" style="fill:#003893;fill-opacity:1;fill-rule:nonzero;stroke:none"/></g><path id="path24" d="m 0,15 36,0 0,2 -36,0 0,-2 z" style="fill:#eee;fill-opacity:1;fill-rule:nonzero;stroke:none"/><path id="path26" d="m 0,10 36,0 0,2 -36,0 0,-2 z" style="fill:#eee;fill-opacity:1;fill-rule:nonzero;stroke:none"/><g id="g28" transform="translate(0,15)"><path id="path30" d="m 0,0 0,-3 0,0 36,0 0,0 0,3 0,0 -36,0 z" style="fill:#cf2027;fill-opacity:1;fill-rule:nonzero;stroke:none"/></g><g id="g32" transform="translate(4,5)"><path id="path34" d="m 0,0 28,0 c 2.209,0 4,1.791 4,4 L 32,5 -4,5 -4,4 C -4,1.791 -2.209,0 0,0" style="fill:#003893;fill-opacity:1;fill-rule:nonzero;stroke:none"/></g><g id="g36" transform="translate(14.3473,20.0966)"><path id="path38" d="m 0,0 0.764,0.555 -0.944,0 -0.292,0.898 -0.292,-0.898 -0.945,0 L -0.945,0 -1.236,-0.898 -0.472,-0.343 0.292,-0.898 0,0 Z" style="fill:#f7d116;fill-opacity:1;fill-rule:nonzero;stroke:none"/></g><g id="g40" transform="translate(20.5291,15.6052)"><path id="path42" d="m 0,0 0.764,0.555 -0.944,0 -0.292,0.898 -0.292,-0.898 -0.945,0 L -0.945,0 -1.236,-0.898 -0.472,-0.343 0.292,-0.898 0,0 Z" style="fill:#f7d116;fill-opacity:1;fill-rule:nonzero;stroke:none"/></g><g id="g44" transform="translate(8.1654,15.6052)"><path id="path46" d="m 0,0 0.764,0.555 -0.944,0 -0.292,0.898 -0.292,-0.898 -0.945,0 L -0.945,0 -1.236,-0.898 -0.472,-0.343 0.292,-0.898 0,0 Z" style="fill:#f7d116;fill-opacity:1;fill-rule:nonzero;stroke:none"/></g><g id="g48" transform="translate(8.1654,11.588)"><path id="path50" d="m 0,0 0.764,0.555 -0.944,0 -0.292,0.898 -0.292,-0.898 -0.945,0 L -0.945,0 -1.236,-0.898 -0.472,-0.343 0.292,-0.898 0,0 Z" style="fill:#f7d116;fill-opacity:1;fill-rule:nonzero;stroke:none"/></g><g id="g52" transform="translate(20.5291,11.588)"><path id="path54" d="m 0,0 0.764,0.555 -0.944,0 -0.292,0.898 -0.292,-0.898 -0.945,0 L -0.945,0 -1.236,-0.898 -0.472,-0.343 0.292,-0.898 0,0 Z" style="fill:#f7d116;fill-opacity:1;fill-rule:nonzero;stroke:none"/></g><g id="g56" transform="translate(14.1669,7.6517)"><path id="path58" d="M 0,0 -0.292,0.898 -0.584,0 -1.528,0 -0.764,-0.555 -1.056,-1.453 -0.292,-0.898 0.472,-1.453 0.18,-0.555 0.945,0 0,0 Z" style="fill:#f7d116;fill-opacity:1;fill-rule:nonzero;stroke:none"/></g><g id="g60" transform="translate(18.1679,8.338)"><path id="path62" d="m 0,0 0.764,0.555 -0.944,0 -0.292,0.898 -0.292,-0.898 -0.945,0 L -0.945,0 -1.236,-0.898 -0.472,-0.343 0.292,-0.898 0,0 Z" style="fill:#f7d116;fill-opacity:1;fill-rule:nonzero;stroke:none"/></g><g id="g64" transform="translate(18.1679,18.8419)"><path id="path66" d="m 0,0 0.764,0.555 -0.944,0 -0.292,0.898 -0.292,-0.898 -0.945,0 L -0.945,0 -1.236,-0.898 -0.472,-0.343 0.292,-0.898 0,0 Z" style="fill:#f7d116;fill-opacity:1;fill-rule:nonzero;stroke:none"/></g><g id="g68" transform="translate(9.5821,8.338)"><path id="path70" d="m 0,0 -0.764,0.555 0.944,0 0.292,0.898 0.292,-0.898 0.945,0 L 0.945,0 1.236,-0.898 0.472,-0.343 -0.292,-0.898 0,0 Z" style="fill:#f7d116;fill-opacity:1;fill-rule:nonzero;stroke:none"/></g><g id="g72" transform="translate(9.5821,18.8419)"><path id="path74" d="m 0,0 -0.764,0.555 0.944,0 0.292,0.898 0.292,-0.898 0.945,0 L 0.945,0 1.236,-0.898 0.472,-0.343 -0.292,-0.898 0,0 Z" style="fill:#f7d116;fill-opacity:1;fill-rule:nonzero;stroke:none"/></g></g></g></g></svg>