<svg xmlns="http://www.w3.org/2000/svg" xmlns:svg="http://www.w3.org/2000/svg" style="enable-background:new 0 0 45 45" id="svg2" version="1.1" viewBox="0 0 45 45" xml:space="preserve"><metadata id="metadata8"/><defs id="defs6"><clipPath id="clipPath16" clipPathUnits="userSpaceOnUse"><path id="path18" d="M 0,36 36,36 36,0 0,0 0,36 Z"/></clipPath></defs><g id="g10" transform="matrix(1.25,0,0,-1.25,0,45)"><g id="g12"><g id="g14" clip-path="url(#clipPath16)"><g id="g20" transform="translate(1.3638,6.0131)"><path id="path22" d="m 0,0 c 0.705,-0.623 1.621,-1.013 2.636,-1.013 l 28,0 c 2.209,0 4,1.791 4,4 l 0,4.5 -24.557,0 L 0,0 Z" style="fill:#00abc9;fill-opacity:1;fill-rule:nonzero;stroke:none"/></g><g id="g24" transform="translate(17.5,18)"><path id="path26" d="m 0,0 -6.058,-4.5 24.558,0 0,9 -24.558,0 L 0,0 Z" style="fill:#fae042;fill-opacity:1;fill-rule:nonzero;stroke:none"/></g><g id="g28" transform="translate(32,31)"><path id="path30" d="m 0,0 -28,0 c -1.015,0 -1.931,-0.39 -2.636,-1.013 L -20.558,-8.5 4,-8.5 4,-4 C 4,-1.791 2.209,0 0,0" style="fill:#00abc9;fill-opacity:1;fill-rule:nonzero;stroke:none"/></g><g id="g32" transform="translate(17.5,18)"><path id="path34" d="m 0,0 -6.058,4.5 -10.078,7.487 C -16.966,11.254 -17.5,10.194 -17.5,9 l 0,-4.5 0,-4.5 0,-4.5 0,-4.5 c 0,-1.194 0.534,-2.254 1.364,-2.987 L -6.058,-4.5 0,0 Z" style="fill:#141414;fill-opacity:1;fill-rule:nonzero;stroke:none"/></g></g></g></g></svg>