<svg xmlns="http://www.w3.org/2000/svg" xmlns:svg="http://www.w3.org/2000/svg" style="enable-background:new 0 0 45 45" id="svg2" version="1.1" viewBox="0 0 45 45" xml:space="preserve"><metadata id="metadata8"/><defs id="defs6"><clipPath id="clipPath16" clipPathUnits="userSpaceOnUse"><path id="path18" d="M 0,36 36,36 36,0 0,0 0,36 Z"/></clipPath></defs><g id="g10" transform="matrix(1.25,0,0,-1.25,0,45)"><g id="g12"><g id="g14" clip-path="url(#clipPath16)"><g id="g20" transform="translate(4,5)"><path id="path22" d="m 0,0 28,0 c 0.702,0 1.361,0.182 1.935,0.5 l -31.87,0 C -1.361,0.182 -0.702,0 0,0" style="fill:#0d5eb0;fill-opacity:1;fill-rule:nonzero;stroke:none"/></g><g id="g24" transform="translate(8.5,16.5)"><path id="path26" d="m 0,0 -3,0 -5.5,0 0,-2.5 36,0 0,2.5 L 5.5,0 0,0 Z" style="fill:#eee;fill-opacity:1;fill-rule:nonzero;stroke:none"/></g><g id="g28" transform="translate(0,9)"><path id="path30" d="m 0,0 c 0,-0.17 0.014,-0.336 0.035,-0.5 l 35.93,0 C 35.986,-0.336 36,-0.17 36,0 L 36,2 0,2 0,0 Z" style="fill:#eee;fill-opacity:1;fill-rule:nonzero;stroke:none"/></g><path id="path32" d="m 14,19.5 22,0 0,2.5 -22,0 0,-2.5 z" style="fill:#eee;fill-opacity:1;fill-rule:nonzero;stroke:none"/><g id="g34" transform="translate(14,27.5)"><path id="path36" d="m 0,0 0,-2.5 22,0 0,2 c 0,0.17 -0.014,0.336 -0.035,0.5 L 0,0 Z" style="fill:#eee;fill-opacity:1;fill-rule:nonzero;stroke:none"/></g><path id="path38" d="m 14,22 22,0 0,3 -22,0 0,-3 z" style="fill:#0d5eb0;fill-opacity:1;fill-rule:nonzero;stroke:none"/><path id="path40" d="m 0,11 36,0 0,3 -36,0 0,-3 z" style="fill:#0d5eb0;fill-opacity:1;fill-rule:nonzero;stroke:none"/><g id="g42" transform="translate(2.0651,5.5)"><path id="path44" d="m 0,0 31.87,0 c 1.092,0.605 1.869,1.707 2.03,3 L -2.031,3 C -1.869,1.707 -1.092,0.605 0,0" style="fill:#0d5eb0;fill-opacity:1;fill-rule:nonzero;stroke:none"/></g><path id="path46" d="m 0,16.5 5.5,0 0,5.5 -5.5,0 0,-5.5 z" style="fill:#0d5eb0;fill-opacity:1;fill-rule:nonzero;stroke:none"/><g id="g48" transform="translate(14,19.5)"><path id="path50" d="m 0,0 0,2.5 -5.5,0 0,-5.5 5.5,0 22,0 0,3 -22,0 z" style="fill:#0d5eb0;fill-opacity:1;fill-rule:nonzero;stroke:none"/></g><g id="g52" transform="translate(33.9349,30.5)"><path id="path54" d="m 0,0 c -0.574,0.318 -1.233,0.5 -1.935,0.5 l -28,0 c -0.702,0 -1.361,-0.182 -1.935,-0.5 -1.092,-0.605 -1.869,-1.707 -2.03,-3 -0.021,-0.164 -0.035,-0.33 -0.035,-0.5 l 0,-2 5.5,0 0,5.5 3,0 0,-5.5 5.5,0 0,2.5 21.966,0 C 1.869,-1.707 1.092,-0.605 0,0" style="fill:#0d5eb0;fill-opacity:1;fill-rule:nonzero;stroke:none"/></g><g id="g56" transform="translate(8.5,25)"><path id="path58" d="m 0,0 0,6 -3,0 0,-6 -5.5,0 0,-3 5.5,0 0,-5.5 3,0 0,5.5 5.5,0 0,3 L 0,0 Z" style="fill:#eee;fill-opacity:1;fill-rule:nonzero;stroke:none"/></g></g></g></g></svg>