<svg xmlns="http://www.w3.org/2000/svg" xmlns:svg="http://www.w3.org/2000/svg" style="enable-background:new 0 0 45 45" id="svg2" version="1.1" viewBox="0 0 45 45" xml:space="preserve"><metadata id="metadata8"/><defs id="defs6"><clipPath id="clipPath16" clipPathUnits="userSpaceOnUse"><path id="path18" d="M 0,36 36,36 36,0 0,0 0,36 Z"/></clipPath></defs><g id="g10" transform="matrix(1.25,0,0,-1.25,0,45)"><g id="g12"><g id="g14" clip-path="url(#clipPath16)"><g id="g20" transform="translate(6.2761,24.7239)"><path id="path22" d="M 0,0 -0.943,-3.057 -1.886,0 -4.943,0.943 -1.886,1.886 -0.943,4.943 0,1.886 3.057,0.943 0,0 Z m 25.724,6.276 -28,0 c -2.209,0 -4,-1.791 -4,-4 l 0,-13.055 36,0 0,13.055 c 0,2.209 -1.791,4 -4,4" style="fill:#4189dd;fill-opacity:1;fill-rule:nonzero;stroke:none"/></g><g id="g24" transform="translate(4,5)"><path id="path26" d="m 0,0 28,0 c 1.872,0 3.431,1.291 3.867,3.028 l -35.734,0 C -3.431,1.291 -1.872,0 0,0" style="fill:#4189dd;fill-opacity:1;fill-rule:nonzero;stroke:none"/></g><path id="path28" d="m 0,10 36,0 0,1.972 -36,0 L 0,10 Z" style="fill:#4189dd;fill-opacity:1;fill-rule:nonzero;stroke:none"/><g id="g30" transform="translate(6.0596,24.9404)"><path id="path32" d="M 0,0 -0.726,-2.355 -1.453,0 -3.808,0.726 -1.453,1.453 -0.726,3.808 0,1.453 2.355,0.726 0,0 Z m -0.726,4.726 -0.943,-3.057 -3.057,-0.943 3.057,-0.942 0.943,-3.058 0.942,3.058 3.058,0.942 -3.058,0.943 -0.942,3.057 z" style="fill:#fff;fill-opacity:1;fill-rule:nonzero;stroke:none"/></g><g id="g34" transform="translate(5.3333,28.7482)"><path id="path36" d="M 0,0 -0.726,-2.355 -3.081,-3.081 -0.726,-3.808 0,-6.163 0.726,-3.808 3.082,-3.081 0.726,-2.355 0,0 Z" style="fill:#d21034;fill-opacity:1;fill-rule:nonzero;stroke:none"/></g><path id="path38" d="m 0,11.972 36,0 0,1.972 -36,0 0,-1.972 z" style="fill:#f9d616;fill-opacity:1;fill-rule:nonzero;stroke:none"/><g id="g40" transform="translate(0,9)"><path id="path42" d="m 0,0 c 0,-0.337 0.054,-0.659 0.133,-0.972 l 35.734,0 C 35.946,-0.659 36,-0.337 36,0 L 36,1 0,1 0,0 Z" style="fill:#f9d616;fill-opacity:1;fill-rule:nonzero;stroke:none"/></g></g></g></g></svg>