<svg xmlns="http://www.w3.org/2000/svg" xmlns:svg="http://www.w3.org/2000/svg" style="enable-background:new 0 0 45 45" id="svg2" version="1.1" viewBox="0 0 45 45" xml:space="preserve"><metadata id="metadata8"/><defs id="defs6"><clipPath id="clipPath16" clipPathUnits="userSpaceOnUse"><path id="path18" d="M 0,36 36,36 36,0 0,0 0,36 Z"/></clipPath><clipPath id="clipPath56" clipPathUnits="userSpaceOnUse"><path id="path58" d="M 4,31 C 1.791,31 0,29.209 0,27 l 0,0 0,-9 19,0 0,13 -15,0 z"/></clipPath><clipPath id="clipPath72" clipPathUnits="userSpaceOnUse"><path id="path74" d="M 0,36 36,36 36,0 0,0 0,36 Z"/></clipPath></defs><g id="g10" transform="matrix(1.25,0,0,-1.25,0,45)"><g id="g12"><g id="g14" clip-path="url(#clipPath16)"><g id="g20" transform="translate(36,9)"><path id="path22" d="m 0,0 c 0,-2.209 -1.791,-4 -4,-4 l -28,0 c -2.209,0 -4,1.791 -4,4 l 0,18 c 0,2.209 1.791,4 4,4 l 28,0 c 2.209,0 4,-1.791 4,-4 L 0,0 Z" style="fill:#00247d;fill-opacity:1;fill-rule:nonzero;stroke:none"/></g><g id="g24" transform="translate(19,31)"><path id="path26" d="m 0,0 -15,0 c -2.209,0 -4,-1.791 -4,-4 l 0,-9 19,0 0,13 z" style="fill:#00247d;fill-opacity:1;fill-rule:nonzero;stroke:none"/></g><g id="g28" transform="translate(19,18)"><path id="path30" d="M 0,0 0,2.029 -7.1,7 -12.329,7 -2.332,0 0,0 Z" style="fill:#eee;fill-opacity:1;fill-rule:nonzero;stroke:none"/></g><g id="g32" transform="translate(19,19.418)"><path id="path34" d="m 0,0 -7.971,5.582 -1.743,0 L 0,-1.22 0,0 Z" style="fill:#cf1b2b;fill-opacity:1;fill-rule:nonzero;stroke:none"/></g><g id="g36" transform="translate(8.0996,25)"><path id="path38" d="M 0,0 -8.1,-5.766 -8.1,-7 -4.768,-7 5.23,0 0,0 Z" style="fill:#eee;fill-opacity:1;fill-rule:nonzero;stroke:none"/></g><g id="g40" transform="translate(10.7139,25)"><path id="path42" d="m 0,0 -9.98,-7 0.266,0 1.461,0 L 1.744,0 0,0 Z" style="fill:#cf1b2b;fill-opacity:1;fill-rule:nonzero;stroke:none"/></g><g id="g44" transform="translate(16.6689,31)"><path id="path46" d="m 0,0 -9.997,-7 5.229,0 7.099,4.971 L 2.331,0 0,0 Z" style="fill:#eee;fill-opacity:1;fill-rule:nonzero;stroke:none"/></g><g id="g48" transform="translate(17.5391,31)"><path id="path50" d="m 0,0 -9.996,-7 1.743,0 9.714,6.802 L 1.461,0 0,0 Z" style="fill:#cf1b2b;fill-opacity:1;fill-rule:nonzero;stroke:none"/></g></g></g><g id="g52"><g id="g54" clip-path="url(#clipPath56)"><g id="g60" transform="translate(10,24)"><path id="path62" d="M 0,0 3.328,0 -6.668,7 -9,7 -9.625,5.406 0,-1.331 0,0 Z" style="fill:#eee;fill-opacity:1;fill-rule:nonzero;stroke:none"/></g><g id="g64" transform="translate(10,24)"><path id="path66" d="M 0,0 0.714,0 -9,6.802 -9.5,5.937 0,-0.722 0,0 Z" style="fill:#cf1b2b;fill-opacity:1;fill-rule:nonzero;stroke:none"/></g></g></g><g id="g68"><g id="g70" clip-path="url(#clipPath72)"><g id="g76" transform="translate(19,27)"><path id="path78" d="m 0,0 -7,0 0,4 -5,0 0,-4 -7,0 0,-5 7,0 0,-4 5,0 0,4 7,0 0,5 z" style="fill:#eee;fill-opacity:1;fill-rule:nonzero;stroke:none"/></g><path id="path80" d="m 11,18 -3,0 0,13 3,0 0,-13 z" style="fill:#cf1b2b;fill-opacity:1;fill-rule:nonzero;stroke:none"/><path id="path82" d="m 19,23 -19,0 0,3 19,0 0,-3 z" style="fill:#cf1b2b;fill-opacity:1;fill-rule:nonzero;stroke:none"/><g id="g84" transform="translate(27.8031,24.2171)"><path id="path86" d="m 0,0 0.812,0.59 -1.004,0 -0.31,0.954 -0.31,-0.954 -1.004,0 0.812,-0.59 -0.31,-0.955 0.812,0.59 L 0.31,-0.955 0,0 Z" style="fill:#fff;fill-opacity:1;fill-rule:nonzero;stroke:none"/></g><g id="g88" transform="translate(30.365,23.476)"><path id="path90" d="M 0,0 0.982,0.208 0.065,0.617 0.17,1.615 -0.502,0.869 -1.418,1.278 -0.917,0.408 -1.589,-0.337 -0.607,-0.129 -0.105,-0.998 0,0 Z" style="fill:#fff;fill-opacity:1;fill-rule:nonzero;stroke:none"/></g><g id="g92" transform="translate(32.4155,21.7142)"><path id="path94" d="M 0,0 0.982,-0.207 0.309,0.538 0.809,1.408 -0.107,0.998 -0.78,1.742 -0.673,0.744 -1.589,0.334 -0.607,0.128 -0.5,-0.87 0,0 Z" style="fill:#fff;fill-opacity:1;fill-rule:nonzero;stroke:none"/></g><g id="g96" transform="translate(33.5595,19.3143)"><path id="path98" d="M 0,0 0.815,-0.586 0.5,0.367 1.309,0.962 0.305,0.956 -0.01,1.909 -0.315,0.953 -1.319,0.948 -0.504,0.362 -0.809,-0.594 0,0 Z" style="fill:#fff;fill-opacity:1;fill-rule:nonzero;stroke:none"/></g><g id="g100" transform="translate(33.6397,16.6244)"><path id="path102" d="M 0,0 0.503,-0.868 0.607,0.13 1.588,0.34 0.67,0.747 0.774,1.745 0.103,0.998 -0.814,1.405 -0.311,0.537 -0.981,-0.21 0,0 Z" style="fill:#fff;fill-opacity:1;fill-rule:nonzero;stroke:none"/></g><g id="g104" transform="translate(32.6023,14.1784)"><path id="path106" d="M 0,0 0.104,-0.998 0.607,-0.129 1.588,-0.338 0.917,0.408 1.419,1.277 0.502,0.869 -0.169,1.615 -0.065,0.617 -0.982,0.209 0,0 Z" style="fill:#fff;fill-opacity:1;fill-rule:nonzero;stroke:none"/></g><g id="g108" transform="translate(30.6641,12.2978)"><path id="path110" d="M 0,0 -0.306,-0.956 0.503,-0.363 1.318,-0.949 1.004,0.004 1.813,0.597 0.81,0.593 0.496,1.546 0.189,0.591 -0.814,0.587 0,0 Z" style="fill:#fff;fill-opacity:1;fill-rule:nonzero;stroke:none"/></g><g id="g112" transform="translate(28.1435,11.4192)"><path id="path114" d="m 0,0 -0.669,-0.748 0.981,0.212 0.505,-0.867 0.101,0.998 0.981,0.213 L 0.981,0.212 1.082,1.211 0.413,0.463 -0.505,0.867 0,0 Z" style="fill:#fff;fill-opacity:1;fill-rule:nonzero;stroke:none"/></g><g id="g116" transform="translate(24.2377,23.476)"><path id="path118" d="M 0,0 -0.982,0.208 -0.065,0.617 -0.17,1.615 0.502,0.869 1.418,1.278 0.917,0.408 1.589,-0.337 0.607,-0.129 0.105,-0.998 0,0 Z" style="fill:#fff;fill-opacity:1;fill-rule:nonzero;stroke:none"/></g><g id="g120" transform="translate(22.1872,21.7142)"><path id="path122" d="m 0,0 -0.982,-0.207 0.673,0.745 -0.5,0.87 L 0.107,0.998 0.78,1.742 0.673,0.744 1.589,0.334 0.607,0.128 0.5,-0.87 0,0 Z" style="fill:#fff;fill-opacity:1;fill-rule:nonzero;stroke:none"/></g><g id="g124" transform="translate(21.0431,19.3143)"><path id="path126" d="M 0,0 -0.815,-0.586 -0.5,0.367 -1.309,0.962 -0.305,0.956 0.01,1.909 0.315,0.953 1.319,0.948 0.504,0.362 0.809,-0.594 0,0 Z" style="fill:#fff;fill-opacity:1;fill-rule:nonzero;stroke:none"/></g><g id="g128" transform="translate(20.9629,16.6244)"><path id="path130" d="M 0,0 -0.503,-0.868 -0.607,0.13 -1.588,0.34 -0.67,0.747 -0.774,1.745 -0.103,0.998 0.814,1.405 0.311,0.537 0.981,-0.21 0,0 Z" style="fill:#fff;fill-opacity:1;fill-rule:nonzero;stroke:none"/></g><g id="g132" transform="translate(22.0004,14.1784)"><path id="path134" d="M 0,0 -0.104,-0.998 -0.607,-0.129 -1.588,-0.338 -0.917,0.408 -1.419,1.277 -0.502,0.869 0.169,1.615 0.065,0.617 0.982,0.209 0,0 Z" style="fill:#fff;fill-opacity:1;fill-rule:nonzero;stroke:none"/></g><g id="g136" transform="translate(23.9385,12.2978)"><path id="path138" d="M 0,0 0.306,-0.956 -0.503,-0.363 -1.318,-0.949 -1.004,0.004 -1.813,0.597 -0.81,0.593 -0.496,1.546 -0.189,0.591 0.814,0.587 0,0 Z" style="fill:#fff;fill-opacity:1;fill-rule:nonzero;stroke:none"/></g><g id="g140" transform="translate(26.4591,11.4192)"><path id="path142" d="m 0,0 0.669,-0.748 -0.981,0.212 -0.505,-0.867 -0.101,0.998 -0.981,0.213 0.918,0.404 L -1.082,1.211 -0.413,0.463 0.505,0.867 0,0 Z" style="fill:#fff;fill-opacity:1;fill-rule:nonzero;stroke:none"/></g></g></g></g></svg>