<svg xmlns="http://www.w3.org/2000/svg" xmlns:svg="http://www.w3.org/2000/svg" style="enable-background:new 0 0 45 45" id="svg2" version="1.1" viewBox="0 0 45 45" xml:space="preserve"><metadata id="metadata8"/><defs id="defs6"><clipPath id="clipPath18" clipPathUnits="userSpaceOnUse"><path id="path20" d="M 0,36 36,36 36,0 0,0 0,36 Z"/></clipPath></defs><g id="g10" transform="matrix(1.25,0,0,-1.25,0,45)"><path id="path12" d="m 0,13 36,0 0,10.001 -36,0 L 0,13 Z" style="fill:#eee;fill-opacity:1;fill-rule:nonzero;stroke:none"/><g id="g14"><g id="g16" clip-path="url(#clipPath18)"><g id="g22" transform="translate(32,31)"><path id="path24" d="m 0,0 -28,0 c -2.209,0 -4,-1.791 -4,-4 l 0,-5 36,0 0,5 C 4,-1.791 2.209,0 0,0" style="fill:#75aadb;fill-opacity:1;fill-rule:nonzero;stroke:none"/></g><g id="g26" transform="translate(0,9)"><path id="path28" d="m 0,0 c 0,-2.209 1.791,-4 4,-4 l 28,0 c 2.209,0 4,1.791 4,4 L 36,5 0,5 0,0 Z" style="fill:#75aadb;fill-opacity:1;fill-rule:nonzero;stroke:none"/></g><path id="path30" d="m 0,16 36,0 0,4 -36,0 0,-4 z" style="fill:#141414;fill-opacity:1;fill-rule:nonzero;stroke:none"/></g></g></g></svg>