<svg xmlns="http://www.w3.org/2000/svg" xmlns:svg="http://www.w3.org/2000/svg" style="enable-background:new 0 0 45 45" id="svg2" version="1.1" viewBox="0 0 45 45" xml:space="preserve"><metadata id="metadata8"/><defs id="defs6"><clipPath id="clipPath16" clipPathUnits="userSpaceOnUse"><path id="path18" d="M 0,36 36,36 36,0 0,0 0,36 Z"/></clipPath><clipPath id="clipPath42" clipPathUnits="userSpaceOnUse"><path id="path44" d="m 15,21 6,0 0,-6 -6,0 0,6 z"/></clipPath></defs><g id="g10" transform="matrix(1.25,0,0,-1.25,0,45)"><g id="g12"><g id="g14" clip-path="url(#clipPath16)"><g id="g20" transform="translate(0,9)"><path id="path22" d="m 0,0 c 0,-2.209 1.791,-4 4,-4 l 28,0 c 2.209,0 4,1.791 4,4 L 36,4 0,4 0,0 Z" style="fill:#138808;fill-opacity:1;fill-rule:nonzero;stroke:none"/></g><path id="path24" d="M 0,13 36,13 36,23 0,23 0,13 Z" style="fill:#eee;fill-opacity:1;fill-rule:nonzero;stroke:none"/><g id="g26" transform="translate(36,23)"><path id="path28" d="m 0,0 0,4 c 0,2.209 -1.791,4 -4,4 l -28,0 c -2.209,0 -4,-1.791 -4,-4 l 0,-4 36,0 z" style="fill:#f93;fill-opacity:1;fill-rule:nonzero;stroke:none"/></g><g id="g30" transform="translate(22,18)"><path id="path32" d="m 0,0 c 0,2.21 -1.791,4.001 -4.001,4.001 -2.209,0 -4,-1.791 -4,-4.001 0,-2.209 1.791,-4 4,-4 C -1.791,-4 0,-2.209 0,0" style="fill:navy;fill-opacity:1;fill-rule:nonzero;stroke:none"/></g><g id="g34" transform="translate(21,18)"><path id="path36" d="m 0,0 c 0,1.657 -1.344,3.001 -3.001,3.001 -1.657,0 -3,-1.344 -3,-3.001 0,-1.657 1.343,-3 3,-3 C -1.344,-3 0,-1.657 0,0" style="fill:#eee;fill-opacity:1;fill-rule:nonzero;stroke:none"/></g><g id="g38"><g id="g46"><g style="opacity:.60000598" id="g48" clip-path="url(#clipPath42)"><g id="g50" transform="translate(18,21)"><path id="path52" d="M 0,0 0.146,-2.264 1.148,-0.229 0.417,-2.376 2.121,-0.878 0.624,-2.583 2.771,-1.852 0.736,-2.854 3,-3 0.736,-3.146 2.771,-4.147 0.624,-3.417 2.121,-5.121 0.417,-3.624 1.148,-5.771 0.146,-3.736 0,-6 l -0.146,2.264 -1.002,-2.035 0.731,2.147 -1.705,-1.497 1.498,1.704 -2.147,-0.73 2.035,1.001 L -3,-3 l 2.264,0.146 -2.035,1.002 2.147,-0.731 -1.498,1.705 1.705,-1.498 -0.731,2.147 1.002,-2.035 L 0,0 Z" style="fill:navy;fill-opacity:1;fill-rule:nonzero;stroke:none"/></g></g></g></g><g id="g54" transform="translate(17,18)"><path id="path56" d="M 0,0 C 0,0.552 0.448,1 1,1 1.552,1 2,0.552 2,0 2,-0.552 1.552,-1 1,-1 0.448,-1 0,-0.552 0,0" style="fill:navy;fill-opacity:1;fill-rule:nonzero;stroke:none"/></g></g></g></g></svg>