<svg xmlns="http://www.w3.org/2000/svg" xmlns:svg="http://www.w3.org/2000/svg" style="enable-background:new 0 0 45 45" id="svg2" version="1.1" viewBox="0 0 45 45" xml:space="preserve"><metadata id="metadata8"/><defs id="defs6"><clipPath id="clipPath16" clipPathUnits="userSpaceOnUse"><path id="path18" d="M 0,36 36,36 36,0 0,0 0,36 Z"/></clipPath></defs><g id="g10" transform="matrix(1.25,0,0,-1.25,0,45)"><g id="g12"><g id="g14" clip-path="url(#clipPath16)"><g id="g20" transform="translate(36,9)"><path id="path22" d="m 0,0 c 0,-2.209 -1.791,-4 -4,-4 l -28,0 c -2.209,0 -4,1.791 -4,4 l 0,18 c 0,2.209 1.791,4 4,4 l 28,0 c 2.209,0 4,-1.791 4,-4 L 0,0 Z" style="fill:#ed1c23;fill-opacity:1;fill-rule:nonzero;stroke:none"/></g><path id="path24" d="m 36,12 -36,0 0,7 36,0 0,-7 z" style="fill:#034ea2;fill-opacity:1;fill-rule:nonzero;stroke:none"/><g id="g26" transform="translate(36,19)"><path id="path28" d="m 0,0 0,8 c 0,2.209 -1.791,4 -4,4 l -28,0 c -2.209,0 -4,-1.791 -4,-4 l 0,-8 36,0 z" style="fill:#fd0;fill-opacity:1;fill-rule:nonzero;stroke:none"/></g><g id="g30" transform="translate(23,17)"><path id="path32" d="m 0,0 c 0,-1.104 -0.895,-2 -2,-2 l -6,0 c -1.104,0 -2,0.896 -2,2 l 0,3 c 0,1.105 0.896,2 2,2 l 6,0 C -0.895,5 0,4.105 0,3 L 0,0 Z" style="fill:#fd0;fill-opacity:1;fill-rule:nonzero;stroke:none"/></g><g id="g34" transform="translate(22,18)"><path id="path36" d="m 0,0 c 0,-1.104 -0.895,-3 -2,-3 l -4,0 c -1.104,0 -2,1.896 -2,3 l 0,1 c 0,1.105 0.896,2 2,2 l 4,0 C -0.895,3 0,2.105 0,1 L 0,0 Z" style="fill:#034ea2;fill-opacity:1;fill-rule:nonzero;stroke:none"/></g><g id="g38" transform="translate(21,18)"><path id="path40" d="m 0,0 c 0,-1.104 -0.895,-3 -2,-3 l -2,0 c -1.104,0 -2,1.896 -2,3 l 0,1 c 0,1.105 0.896,2 2,2 l 2,0 C -0.895,3 0,2.105 0,1 L 0,0 Z" style="fill:#ed1c23;fill-opacity:1;fill-rule:nonzero;stroke:none"/></g><g id="g42" transform="translate(19.9727,21.8652)"><path id="path44" d="m 0,0 c -0.133,-0.488 -0.961,-0.865 -1.973,-0.865 -1.012,0 -1.84,0.377 -1.972,0.865 -1.206,-0.172 -1.028,-0.493 -1.028,-0.865 0,-0.552 0.791,-1 3,-1 2.209,0 3,0.448 3,1 C 1.027,-0.493 1.205,-0.172 0,0" style="fill:#6dbe46;fill-opacity:1;fill-rule:nonzero;stroke:none"/></g><g id="g46" transform="translate(19,17)"><path id="path48" d="m 0,0 c 0,-0.553 -0.448,-1 -1,-1 -0.552,0 -1,0.447 -1,1 l 0,3 c 0,0.552 0.448,1 1,1 0.552,0 1,-0.448 1,-1 L 0,0 Z" style="fill:#a6d388;fill-opacity:1;fill-rule:nonzero;stroke:none"/></g><g id="g50" transform="translate(21.5,24)"><path id="path52" d="M 0,0 C 0.44,0 0.858,-0.052 1.246,-0.137 0.623,0.939 -1.5,2 -3.5,0 -5.5,2 -7.623,0.939 -8.246,-0.137 -7.858,-0.052 -7.44,0 -7,0 c 1.933,0 3.5,-0.895 3.5,-2 0,1.105 1.566,2 3.5,2" style="fill:#662113;fill-opacity:1;fill-rule:nonzero;stroke:none"/></g><g id="g54" transform="translate(20,18.5)"><path id="path56" d="m 0,0 c 0,-1.933 -0.895,-3.5 -2,-3.5 -1.104,0 -2,1.567 -2,3.5 0,1.933 0.896,3.5 2,3.5 1.105,0 2,-1.567 2,-3.5" style="fill:#8ed2e7;fill-opacity:1;fill-rule:nonzero;stroke:none"/></g><g id="g58" transform="translate(17.5,19)"><path id="path60" d="M 0,0 C -0.536,0 -1.037,-0.13 -1.491,-0.345 -1.492,-0.397 -1.5,-0.447 -1.5,-0.5 c 0,-1.933 0.896,-3.5 2,-3.5 1.003,0 1.825,1.295 1.97,2.979 C 1.837,-0.391 0.964,0 0,0" style="fill:#6dbe46;fill-opacity:1;fill-rule:nonzero;stroke:none"/></g><g id="g62" transform="translate(21,14)"><path id="path64" d="m 0,0 c 0,-0.553 -1.343,-1 -3,-1 -1.657,0 -3,0.447 -3,1 0,0.553 1.343,1 3,1 1.657,0 3,-0.447 3,-1" style="fill:#ffcc4d;fill-opacity:1;fill-rule:nonzero;stroke:none"/></g><g id="g66" transform="translate(20,13)"><path id="path68" d="m 0,0 c 0,-0.828 -0.895,-1 -2,-1 -1.104,0 -2,0.172 -2,1 0,0.828 0.896,2 2,2 1.105,0 2,-1.172 2,-2" style="fill:#034ea2;fill-opacity:1;fill-rule:nonzero;stroke:none"/></g><g id="g70" transform="translate(17,13)"><path id="path72" d="M 0,0 C 0,0.828 0.448,2 1,2 1.552,2 2,0.828 2,0 2,-0.828 1.552,-1 1,-1 0.448,-1 0,-0.828 0,0" style="fill:#ed1c23;fill-opacity:1;fill-rule:nonzero;stroke:none"/></g><g id="g74" transform="translate(17,25)"><path id="path76" d="M 0,0 C 0,0.552 0.448,0 1,0 1.552,0 2,0.552 2,0 2,-0.552 1.552,-1 1,-1 0.448,-1 0,-0.552 0,0" style="fill:#ccd6dd;fill-opacity:1;fill-rule:nonzero;stroke:none"/></g><g id="g78" transform="translate(19,18.5)"><path id="path80" d="m 0,0 c 0,-0.276 -0.448,-0.5 -1,-0.5 -0.552,0 -1,0.224 -1,0.5 0,0.276 0.448,0.5 1,0.5 0.552,0 1,-0.224 1,-0.5" style="fill:#fff;fill-opacity:1;fill-rule:nonzero;stroke:none"/></g><g id="g82" transform="translate(14,20.5)"><path id="path84" d="m 0,0 c 0,-0.276 -0.448,-0.5 -1,-0.5 -0.552,0 -1,0.224 -1,0.5 0,0.276 0.448,0.5 1,0.5 0.552,0 1,-0.224 1,-0.5" style="fill:#c1694f;fill-opacity:1;fill-rule:nonzero;stroke:none"/></g><g id="g86" transform="translate(15,22.5)"><path id="path88" d="m 0,0 c 0,-0.276 -0.448,-0.5 -1,-0.5 -0.552,0 -1,0.224 -1,0.5 0,0.276 0.448,0.5 1,0.5 0.552,0 1,-0.224 1,-0.5" style="fill:#c1694f;fill-opacity:1;fill-rule:nonzero;stroke:none"/></g><g id="g90" transform="translate(24,20.5)"><path id="path92" d="m 0,0 c 0,-0.276 -0.447,-0.5 -1,-0.5 -0.553,0 -1,0.224 -1,0.5 0,0.276 0.447,0.5 1,0.5 0.553,0 1,-0.224 1,-0.5" style="fill:#c1694f;fill-opacity:1;fill-rule:nonzero;stroke:none"/></g><g id="g94" transform="translate(23,22.5)"><path id="path96" d="m 0,0 c 0,-0.276 -0.447,-0.5 -1,-0.5 -0.553,0 -1,0.224 -1,0.5 0,0.276 0.447,0.5 1,0.5 0.553,0 1,-0.224 1,-0.5" style="fill:#c1694f;fill-opacity:1;fill-rule:nonzero;stroke:none"/></g></g></g></g></svg>