<svg xmlns="http://www.w3.org/2000/svg" xmlns:svg="http://www.w3.org/2000/svg" style="enable-background:new 0 0 45 45" id="svg2" version="1.1" viewBox="0 0 45 45" xml:space="preserve"><metadata id="metadata8"/><defs id="defs6"><clipPath id="clipPath16" clipPathUnits="userSpaceOnUse"><path id="path18" d="M 4,31 C 1.791,31 0,29.21 0,27 L 0,27 0,9 C 0,6.79 1.791,5 4,5 l 0,0 28,0 c 2.209,0 4,1.79 4,4 l 0,0 0,18 c 0,2.21 -1.791,4 -4,4 l 0,0 -28,0 z"/></clipPath></defs><g id="g10" transform="matrix(1.25,0,0,-1.25,0,45)"><g id="g12"><g id="g14" clip-path="url(#clipPath16)"><path id="path20" d="M 0,31 36,31 36,5 0,5 0,31 Z" style="fill:#039;fill-opacity:1;fill-rule:nonzero;stroke:none"/><g id="g22" transform="translate(18.5392,26.2955)"><path id="path24" d="m 0,0 0.849,0.617 -1.049,0 -0.325,0.998 -0.324,-0.998 -1.049,0 L -1.049,0 -1.374,-0.998 -0.525,-0.381 0.324,-0.998 0,0 Z" style="fill:#fc0;fill-opacity:1;fill-rule:nonzero;stroke:none"/></g><g id="g26" transform="translate(18.5392,8.9622)"><path id="path28" d="m 0,0 0.849,0.617 -1.049,0 -0.325,0.998 -0.324,-0.998 -1.049,0 L -1.049,0 -1.374,-0.998 -0.525,-0.381 0.324,-0.998 0,0 Z" style="fill:#fc0;fill-opacity:1;fill-rule:nonzero;stroke:none"/></g><g id="g30" transform="translate(9.8725,17.6288)"><path id="path32" d="m 0,0 0.849,0.617 -1.049,0 -0.325,0.998 -0.324,-0.998 -1.049,0 L -1.049,0 -1.374,-0.998 -0.525,-0.381 0.324,-0.998 0,0 Z" style="fill:#fc0;fill-opacity:1;fill-rule:nonzero;stroke:none"/></g><g id="g34" transform="translate(10.9799,21.914)"><path id="path36" d="m 0,0 0.849,0.617 -1.049,0 -0.325,0.998 -0.324,-0.998 -1.049,0 L -1.049,0 -1.374,-0.998 -0.525,-0.381 0.324,-0.998 0,0 Z" style="fill:#fc0;fill-opacity:1;fill-rule:nonzero;stroke:none"/></g><g id="g38" transform="translate(10.9799,13.2955)"><path id="path40" d="m 0,0 0.849,0.617 -1.049,0 -0.325,0.998 -0.324,-0.998 -1.049,0 L -1.049,0 -1.374,-0.998 -0.525,-0.381 0.324,-0.998 0,0 Z" style="fill:#fc0;fill-opacity:1;fill-rule:nonzero;stroke:none"/></g><g id="g42" transform="translate(14.2058,25.1344)"><path id="path44" d="m 0,0 0.849,0.617 -1.049,0 -0.325,0.998 -0.324,-0.998 -1.049,0 L -1.049,0 -1.374,-0.998 -0.525,-0.381 0.324,-0.998 0,0 Z" style="fill:#fc0;fill-opacity:1;fill-rule:nonzero;stroke:none"/></g><g id="g46" transform="translate(14.2058,10.0667)"><path id="path48" d="m 0,0 0.849,0.617 -1.049,0 -0.325,0.998 -0.324,-0.998 -1.049,0 L -1.049,0 -1.374,-0.998 -0.525,-0.381 0.324,-0.998 0,0 Z" style="fill:#fc0;fill-opacity:1;fill-rule:nonzero;stroke:none"/></g><g id="g50" transform="translate(26.1275,17.6288)"><path id="path52" d="m 0,0 -0.849,0.617 1.049,0 0.325,0.998 0.324,-0.998 1.049,0 L 1.049,0 1.374,-0.998 0.525,-0.381 -0.324,-0.998 0,0 Z" style="fill:#fc0;fill-opacity:1;fill-rule:nonzero;stroke:none"/></g><g id="g54" transform="translate(25.0201,21.914)"><path id="path56" d="m 0,0 -0.849,0.617 1.049,0 0.325,0.998 0.324,-0.998 1.049,0 L 1.049,0 1.374,-0.998 0.525,-0.381 -0.324,-0.998 0,0 Z" style="fill:#fc0;fill-opacity:1;fill-rule:nonzero;stroke:none"/></g><g id="g58" transform="translate(25.0201,13.2955)"><path id="path60" d="m 0,0 -0.849,0.617 1.049,0 0.325,0.998 0.324,-0.998 1.049,0 L 1.049,0 1.374,-0.998 0.525,-0.381 -0.324,-0.998 0,0 Z" style="fill:#fc0;fill-opacity:1;fill-rule:nonzero;stroke:none"/></g><g id="g62" transform="translate(21.7942,25.1344)"><path id="path64" d="m 0,0 -0.849,0.617 1.049,0 0.325,0.998 0.324,-0.998 1.049,0 L 1.049,0 1.374,-0.998 0.525,-0.381 -0.324,-0.998 0,0 Z" style="fill:#fc0;fill-opacity:1;fill-rule:nonzero;stroke:none"/></g><g id="g66" transform="translate(21.7942,10.0667)"><path id="path68" d="m 0,0 -0.849,0.617 1.049,0 0.325,0.998 0.324,-0.998 1.049,0 L 1.049,0 1.374,-0.998 0.525,-0.381 -0.324,-0.998 0,0 Z" style="fill:#fc0;fill-opacity:1;fill-rule:nonzero;stroke:none"/></g></g></g></g></svg>