<svg xmlns="http://www.w3.org/2000/svg" xmlns:svg="http://www.w3.org/2000/svg" style="enable-background:new 0 0 45 45" id="svg2" version="1.1" viewBox="0 0 45 45" xml:space="preserve"><metadata id="metadata8"/><defs id="defs6"><clipPath id="clipPath16" clipPathUnits="userSpaceOnUse"><path id="path18" d="M 0,36 36,36 36,0 0,0 0,36 Z"/></clipPath></defs><g id="g10" transform="matrix(1.25,0,0,-1.25,0,45)"><g id="g12"><g id="g14" clip-path="url(#clipPath16)"><g id="g20" transform="translate(36,9)"><path id="path22" d="m 0,0 c 0,-2.209 -1.791,-4 -4,-4 l -28,0 c -2.209,0 -4,1.791 -4,4 l 0,5 36,0 0,-5 z" style="fill:#da1c0b;fill-opacity:1;fill-rule:nonzero;stroke:none"/></g><g id="g24" transform="translate(32,31)"><path id="path26" d="m 0,0 -28,0 c -2.209,0 -4,-1.791 -4,-4 l 0,-14 36,0 0,14 C 4,-1.791 2.209,0 0,0" style="fill:#eee;fill-opacity:1;fill-rule:nonzero;stroke:none"/></g><g id="g28" transform="translate(14.4512,25.6367)"><path id="path30" d="m 0,0 0,-0.778 -0.778,0 0,0.778 -1.557,0 0,-0.778 -0.779,0 0,0.778 -0.778,0 0,-0.778 0,-0.779 0,0 0.778,0 0,-3.892 3.114,0 0,3.892 0.001,0 0.778,0 L 0.779,0 0,0 Z" style="fill:#da1c0b;fill-opacity:1;fill-rule:nonzero;stroke:none"/></g><g id="g32" transform="translate(15.2409,21.7446)"><path id="path34" d="m 0,0 0,-0.778 -0.779,0 0,0.778 -0.778,0 0,-0.778 -1.557,0 0,0.778 -0.779,0 0,-0.778 -0.778,0 0,0.778 -0.778,0 0,-0.778 0,-0.779 0,10e-4 0,-10e-4 0.778,0 0,-4.254 -0.778,-0.416 0,0 0,-0.778 0.778,0 4.671,0 0.778,0 0,0.778 -0.778,0.416 0,4.254 0.778,0 0,0.779 L 0.778,0 0,0 Z" style="fill:#da1c0b;fill-opacity:1;fill-rule:nonzero;stroke:none"/></g><path id="path36" d="m 13.673,20.967 -1.557,0 0,1.557 1.557,0 0,-1.557 z" style="fill:#000;fill-opacity:1;fill-rule:nonzero;stroke:none"/><g id="g38" transform="translate(13.6729,22.5234)"><path id="path40" d="m 0,0 c 0,-0.43 -0.348,-0.778 -0.778,-0.778 -0.43,0 -0.779,0.348 -0.779,0.778 0,0.43 0.349,0.778 0.779,0.778 C -0.348,0.778 0,0.43 0,0" style="fill:#000;fill-opacity:1;fill-rule:nonzero;stroke:none"/></g><g id="g42" transform="translate(13.6729,17.6201)"><path id="path44" d="M 0,0 C 0,0.621 -0.157,1.125 -0.778,1.125 -1.399,1.125 -1.557,0.621 -1.557,0 l 0,-1.325 1.557,0 L 0,0 Z" style="fill:#000;fill-opacity:1;fill-rule:nonzero;stroke:none"/></g><g id="g46" transform="translate(24.9102,25.6367)"><path id="path48" d="m 0,0 0,-0.778 -0.778,0 0,0.778 -1.557,0 0,-0.778 -0.778,0 0,0.778 -0.78,0 0,-0.778 0,-0.779 10e-4,0 0.779,0 0,-3.892 3.113,0 0,3.892 0.779,0 L 0.779,0 0,0 Z" style="fill:#da1c0b;fill-opacity:1;fill-rule:nonzero;stroke:none"/></g><g id="g50" transform="translate(25.6895,21.7446)"><path id="path52" d="m 0,0 0,-0.778 -0.779,0 0,0.778 -0.779,0 0,-0.778 -1.556,0 0,0.778 -0.779,0 0,-0.778 -0.779,0 0,0.778 -0.777,0 0,-0.778 0,-0.779 0,10e-4 0,-10e-4 0.777,0 0,-4.254 -0.777,-0.416 0,-0.778 0.777,0 4.672,0 0.777,0 0,0.778 -0.777,0.416 0,4.254 0.777,0 0,0.779 L 0.777,0 0,0 Z" style="fill:#da1c0b;fill-opacity:1;fill-rule:nonzero;stroke:none"/></g><path id="path54" d="m 24.132,20.967 -1.557,0 0,1.557 1.557,0 0,-1.557 z" style="fill:#000;fill-opacity:1;fill-rule:nonzero;stroke:none"/><g id="g56" transform="translate(24.1318,22.5234)"><path id="path58" d="m 0,0 c 0,-0.43 -0.349,-0.778 -0.778,-0.778 -0.43,0 -0.779,0.348 -0.779,0.778 0,0.43 0.349,0.778 0.779,0.778 C -0.349,0.778 0,0.43 0,0" style="fill:#000;fill-opacity:1;fill-rule:nonzero;stroke:none"/></g><g id="g60" transform="translate(24.1318,17.6201)"><path id="path62" d="M 0,0 C 0,0.621 -0.157,1.125 -0.778,1.125 -1.399,1.125 -1.557,0.621 -1.557,0 l 0,-1.325 1.557,0 L 0,0 Z" style="fill:#000;fill-opacity:1;fill-rule:nonzero;stroke:none"/></g><g id="g64" transform="translate(20,28)"><path id="path66" d="m 0,0 0,-1 -1,0 0,1 -2,0 0,-1 -1,0 0,1 -1,0 0,-1 0,-1 0.001,0 0.999,0 0,-5 4,0 0,5 0.001,0 L 1,-2 1,0 0,0 Z" style="fill:#da1c0b;fill-opacity:1;fill-rule:nonzero;stroke:none"/></g><g id="g68" transform="translate(21,23)"><path id="path70" d="m 0,0 0,-1 -1,0 0,1 -1,0 0,-1 -2,0 0,1 -1,0 0,-1 -1,0 0,1 -1,0 0,-9 8,0 0,9 -1,0 z" style="fill:#da1c0b;fill-opacity:1;fill-rule:nonzero;stroke:none"/></g><path id="path72" d="m 19,22.001 -2,0 0,2 2,0 0,-2 z" style="fill:#000;fill-opacity:1;fill-rule:nonzero;stroke:none"/><g id="g74" transform="translate(19,24.0005)"><path id="path76" d="m 0,0 c 0,-0.552 -0.448,-1 -1,-1 -0.552,0 -1,0.448 -1,1 0,0.552 0.448,1 1,1 0.552,0 1,-0.448 1,-1" style="fill:#000;fill-opacity:1;fill-rule:nonzero;stroke:none"/></g><g id="g78" transform="translate(19.4443,17.7017)"><path id="path80" d="M 0,0 C 0,0.798 -0.646,1.445 -1.444,1.445 -2.242,1.445 -2.889,0.798 -2.889,0 l 0,-2.167 2.889,0 L 0,0 Z" style="fill:#000;fill-opacity:1;fill-rule:nonzero;stroke:none"/></g><g id="g82" transform="translate(18.1621,12.6514)"><path id="path84" d="M 0,0 0,-0.134 1.079,-1.211 0,-2.289 l 0,-4.718 -0.348,0 0,0.528 -1.191,0 0,0.707 0.348,0 0,-0.362 0.843,0 0,1.05 -0.843,0 0,-0.355 -0.348,0 0,0.702 1.191,0 0,2.45 -1.08,1.076 1.08,1.073 0,0.138 L 0,0 Z" style="fill:#fff100;fill-opacity:1;fill-rule:nonzero;stroke:none"/></g><g id="g86" transform="translate(17.9878,10.6924)"><path id="path88" d="M 0,0 0.748,0.748 0,1.497 -0.748,0.748 0,0 Z" style="fill:#da1c0b;fill-opacity:1;fill-rule:nonzero;stroke:none"/></g><g id="g90" transform="translate(18.2568,12.6514)"><path id="path92" d="m 0,0 c 0,-0.209 -0.111,-0.377 -0.247,-0.377 -0.137,0 -0.249,0.168 -0.249,0.377 l 0,1.349 c 0,0.207 0.112,0.375 0.249,0.375 C -0.111,1.724 0,1.556 0,1.349 L 0,0 Z m -0.11,2.028 -0.294,0 c -0.243,0 -0.44,-0.299 -0.44,-0.669 l 0,-1.338 c 0,-0.369 0.197,-0.668 0.44,-0.668 l 0.294,0 c 0.243,0 0.441,0.299 0.441,0.668 l 0,1.338 c 0,0.37 -0.198,0.669 -0.441,0.669" style="fill:#fff100;fill-opacity:1;fill-rule:nonzero;stroke:none"/></g><g id="g94" transform="translate(19.3262,15.7354)"><path id="path96" d="m 0,0 c -0.107,0.06 -0.25,0.058 -0.318,-0.003 l -1.008,-0.909 -1.008,0.909 C -2.402,0.058 -2.544,0.06 -2.652,0 -2.76,-0.059 -2.792,-0.156 -2.724,-0.218 l 1.232,-1.108 c 0.039,-0.034 0.1,-0.045 0.166,-0.041 0.066,-0.004 0.127,0.007 0.166,0.041 l 1.232,1.108 C 0.141,-0.156 0.108,-0.059 0,0" style="fill:#fff100;fill-opacity:1;fill-rule:nonzero;stroke:none"/></g></g></g></g></svg>