<svg xmlns="http://www.w3.org/2000/svg" xmlns:svg="http://www.w3.org/2000/svg" style="enable-background:new 0 0 45 45" id="svg2" version="1.1" viewBox="0 0 45 45" xml:space="preserve"><metadata id="metadata8"/><defs id="defs6"><clipPath id="clipPath36" clipPathUnits="userSpaceOnUse"><path id="path38" d="M 0,36 36,36 36,0 0,0 0,36 Z"/></clipPath></defs><g id="g10" transform="matrix(1.25,0,0,-1.25,0,45)"><g id="g12" transform="translate(16.0002,30.9996)"><path id="path14" d="m 0,0 0,-9 0,-2 20,0 0,2 -18,0 0,9 -2,0 z" style="fill:#ffce00;fill-opacity:1;fill-rule:nonzero;stroke:none"/></g><g id="g16" transform="translate(16.0002,16.0002)"><path id="path18" d="m 0,0 0,-2 0,-9 2,0 0,9 0.5,0 17.5,0 0,2 -20,0 z" style="fill:#ffce00;fill-opacity:1;fill-rule:nonzero;stroke:none"/></g><g id="g20" transform="translate(0,16.0002)"><path id="path22" d="m 0,0 0,-2 11,0 0,-9 2,0 0,9 0,2 -13,0 z" style="fill:#ffce00;fill-opacity:1;fill-rule:nonzero;stroke:none"/></g><g id="g24" transform="translate(10.9998,30.9996)"><path id="path26" d="m 0,0 0,-9 -11,0 0,-2 13,0 0,2 0,9 -2,0 z" style="fill:#ffce00;fill-opacity:1;fill-rule:nonzero;stroke:none"/></g><g id="g28" transform="translate(12.9996,30.9996)"><path id="path30" d="m 0,0 0,-11 -13,0 0,-3.999 13,0 0,-11 3.001,0 0,11 19.999,0 0,3.999 -19.999,0 0,11 L 0,0 Z" style="fill:#d21034;fill-opacity:1;fill-rule:nonzero;stroke:none"/></g><g id="g32"><g id="g34" clip-path="url(#clipPath36)"><g id="g40" transform="translate(18,14)"><path id="path42" d="m 0,0 0,-9 14,0 c 2.209,0 4,1.791 4,4 L 18,0 0,0 Z" style="fill:#0053a5;fill-opacity:1;fill-rule:nonzero;stroke:none"/></g><g id="g44" transform="translate(0,14)"><path id="path46" d="m 0,0 0,-5 c 0,-2.209 1.791,-4 4,-4 l 7,0 0,9 -11,0 z" style="fill:#0053a5;fill-opacity:1;fill-rule:nonzero;stroke:none"/></g><g id="g48" transform="translate(11,31)"><path id="path50" d="m 0,0 -7,0 c -2.209,0 -4,-1.791 -4,-4 l 0,-5 11,0 0,9 z" style="fill:#0053a5;fill-opacity:1;fill-rule:nonzero;stroke:none"/></g><g id="g52" transform="translate(32,31)"><path id="path54" d="m 0,0 -14,0 0,-9 18,0 0,5 C 4,-1.791 2.209,0 0,0" style="fill:#0053a5;fill-opacity:1;fill-rule:nonzero;stroke:none"/></g></g></g></g></svg>