<svg xmlns="http://www.w3.org/2000/svg" xmlns:svg="http://www.w3.org/2000/svg" style="enable-background:new 0 0 45 45" id="svg2" version="1.1" viewBox="0 0 45 45" xml:space="preserve"><metadata id="metadata8"/><defs id="defs6"><clipPath id="clipPath18" clipPathUnits="userSpaceOnUse"><path id="path20" d="M 0,36 36,36 36,0 0,0 0,36 Z"/></clipPath></defs><g id="g10" transform="matrix(1.25,0,0,-1.25,0,45)"><path id="path12" d="m 0,13 36,0 0,10.001 -36,0 L 0,13 Z" style="fill:#e00034;fill-opacity:1;fill-rule:nonzero;stroke:none"/><g id="g14"><g id="g16" clip-path="url(#clipPath18)"><g id="g22" transform="translate(32,31)"><path id="path24" d="m 0,0 -28,0 c -2.209,0 -4,-1.791 -4,-4 l 0,-4 36,0 0,4 C 4,-1.791 2.209,0 0,0" style="fill:#0098c3;fill-opacity:1;fill-rule:nonzero;stroke:none"/></g><g id="g26" transform="translate(17.8445,14.6667)"><path id="path28" d="m 0,0 c -1.841,0 -3.333,1.492 -3.333,3.333 0,1.841 1.492,3.334 3.333,3.334 0.982,0 1.865,-0.425 2.475,-1.101 -0.718,1.066 -1.937,1.767 -3.319,1.767 -2.21,0 -4,-1.791 -4,-4 0,-2.209 1.79,-4 4,-4 1.382,0 2.601,0.702 3.319,1.768 C 1.865,0.425 0.982,0 0,0" style="fill:#fff;fill-opacity:1;fill-rule:nonzero;stroke:none"/></g><g id="g30" transform="translate(23.6667,18.0016)"><path id="path32" d="m 0,0 -1.196,0.424 0.544,1.147 -1.146,-0.546 -0.426,1.196 -0.424,-1.196 -0.003,0.001 -1.144,0.543 0.546,-1.146 -1.195,-0.426 1.196,-0.424 -0.544,-1.147 1.14,0.543 0.005,0.003 0.426,-1.196 0.425,1.196 1.146,-0.544 -0.545,1.146 L 0,0 Z" style="fill:#fff;fill-opacity:1;fill-rule:nonzero;stroke:none"/></g><g id="g34" transform="translate(4,5)"><path id="path36" d="m 0,0 28,0 c 2.209,0 4,1.791 4,4 L 32,8 -4,8 -4,4 C -4,1.791 -2.209,0 0,0" style="fill:#00ae65;fill-opacity:1;fill-rule:nonzero;stroke:none"/></g></g></g></g></svg>