<svg xmlns="http://www.w3.org/2000/svg" xmlns:svg="http://www.w3.org/2000/svg" style="enable-background:new 0 0 45 45" id="svg2" version="1.1" viewBox="0 0 45 45" xml:space="preserve"><metadata id="metadata8"/><defs id="defs6"><clipPath id="clipPath16" clipPathUnits="userSpaceOnUse"><path id="path18" d="M 0,36 36,36 36,0 0,0 0,36 Z"/></clipPath><clipPath id="clipPath34" clipPathUnits="userSpaceOnUse"><path id="path36" d="m 0,13 36,0 0,-1 -36,0 0,1 z"/></clipPath><clipPath id="clipPath72" clipPathUnits="userSpaceOnUse"><path id="path74" d="m 0,24 36,0 0,-1 -36,0 0,1 z"/></clipPath></defs><g id="g10" transform="matrix(1.25,0,0,-1.25,0,45)"><g id="g12"><g id="g14" clip-path="url(#clipPath16)"><g id="g20" transform="translate(0,9)"><path id="path22" d="m 0,0 c 0,-2.209 1.791,-4 4,-4 l 28,0 c 2.209,0 4,1.791 4,4 L 36,4 0,4 0,0 Z" style="fill:#da0001;fill-opacity:1;fill-rule:nonzero;stroke:none"/></g><path id="path24" d="M 0,13 36,13 36,23 0,23 0,13 Z" style="fill:#eee;fill-opacity:1;fill-rule:nonzero;stroke:none"/><g id="g26" transform="translate(36,23)"><path id="path28" d="m 0,0 0,4 c 0,2.209 -1.791,4 -4,4 l -28,0 c -2.209,0 -4,-1.791 -4,-4 l 0,-4 36,0 z" style="fill:#239f40;fill-opacity:1;fill-rule:nonzero;stroke:none"/></g><g id="g30"><g id="g38"><g style="opacity:.39999402" id="g40" clip-path="url(#clipPath34)"><path id="path42" d="m 36,12 -36,0 0,1 36,0 0,-1 z" style="fill:#fff;fill-opacity:1;fill-rule:nonzero;stroke:none"/></g></g></g><g id="g44" transform="translate(19.4648,21.0312)"><path id="path46" d="M 0,0 C 0.957,-0.49 3.038,-2.953 0.798,-5.731 2.189,-5.423 3.96,-1.323 0,0" style="fill:#be1931;fill-opacity:1;fill-rule:nonzero;stroke:none"/></g><g id="g48" transform="translate(16.5278,21.0312)"><path id="path50" d="M 0,0 C -0.956,-0.49 -3.038,-2.953 -0.798,-5.731 -2.189,-5.423 -3.959,-1.323 0,0" style="fill:#be1931;fill-opacity:1;fill-rule:nonzero;stroke:none"/></g><g id="g52" transform="translate(20.4531,14.6904)"><path id="path54" d="M 0,0 C -0.758,-0.012 -1.714,0.105 -2.423,0.473 -2.306,0.246 -2.209,0.103 -2.092,-0.124 -1.415,-0.186 -0.483,-0.264 0,0" style="fill:#be1931;fill-opacity:1;fill-rule:nonzero;stroke:none"/></g><g id="g56" transform="translate(15.6084,14.6904)"><path id="path58" d="M 0,0 C 0.758,-0.012 1.713,0.105 2.422,0.473 2.306,0.246 2.208,0.103 2.092,-0.124 1.416,-0.186 0.483,-0.264 0,0" style="fill:#be1931;fill-opacity:1;fill-rule:nonzero;stroke:none"/></g><g id="g60" transform="translate(16.999,21.7666)"><path id="path62" d="M 0,0 C 0.154,-0.408 0.557,-0.468 0.988,-0.227 1.302,-0.416 1.788,-0.428 1.956,-0.02 2.083,-1.028 1.022,-0.79 0.982,-0.593 0.587,-0.975 -0.148,-0.754 0,0" style="fill:#be1931;fill-opacity:1;fill-rule:nonzero;stroke:none"/></g><g id="g64" transform="translate(20.5381,18.0957)"><path id="path66" d="m 0,0 c -0.015,1.248 -0.677,2.352 -1.329,2.799 0.43,-0.527 1.752,-3.436 -0.785,-5.351 l 0.047,5.097 -0.475,0.418 -0.475,-0.399 0.08,-5.145 c -0.007,0.006 -0.011,0.01 -0.018,0.015 C -5.518,-0.652 -4.189,2.27 -3.757,2.799 -4.41,2.352 -5.072,1.248 -5.086,0 -5.1,-1.156 -4.542,-2.433 -2.924,-3.433 l 0.003,-0.172 0.398,-0.436 0.399,0.455 10e-4,0.179 C -0.535,-2.411 0.014,-1.146 0,0" style="fill:#be1931;fill-opacity:1;fill-rule:nonzero;stroke:none"/></g><g id="g68"><g id="g76"><g style="opacity:.39999402" id="g78" clip-path="url(#clipPath72)"><path id="path80" d="m 36,23 -36,0 0,1 36,0 0,-1 z" style="fill:#fff;fill-opacity:1;fill-rule:nonzero;stroke:none"/></g></g></g></g></g></g></svg>