<svg xmlns="http://www.w3.org/2000/svg" xmlns:svg="http://www.w3.org/2000/svg" style="enable-background:new 0 0 45 45" id="svg2" version="1.1" viewBox="0 0 45 45" xml:space="preserve"><metadata id="metadata8"/><defs id="defs6"><clipPath id="clipPath16" clipPathUnits="userSpaceOnUse"><path id="path18" d="M 0,36 36,36 36,0 0,0 0,36 Z"/></clipPath><clipPath id="clipPath80" clipPathUnits="userSpaceOnUse"><path id="path82" d="M 4,31 C 1.791,31 0,29.209 0,27 l 0,0 0,-9 19,0 0,13 -15,0 z"/></clipPath><clipPath id="clipPath96" clipPathUnits="userSpaceOnUse"><path id="path98" d="M 0,36 36,36 36,0 0,0 0,36 Z"/></clipPath></defs><g id="g10" transform="matrix(1.25,0,0,-1.25,0,45)"><g id="g12"><g id="g14" clip-path="url(#clipPath16)"><g id="g20" transform="translate(36,9)"><path id="path22" d="m 0,0 c 0,-2.209 -1.791,-4 -4,-4 l -28,0 c -2.209,0 -4,1.791 -4,4 l 0,18 c 0,2.209 1.791,4 4,4 l 28,0 c 2.209,0 4,-1.791 4,-4 L 0,0 Z" style="fill:#00247d;fill-opacity:1;fill-rule:nonzero;stroke:none"/></g><g id="g24" transform="translate(9.0005,9.9766)"><path id="path26" d="m 0,0 -1.222,-1.129 0.121,1.66 -1.646,0.251 1.373,0.941 L -2.202,3.165 -0.611,2.678 0,4.227 0.611,2.678 2.203,3.165 1.373,1.723 2.747,0.782 1.101,0.531 1.223,-1.129 0,0 Z" style="fill:#fff;fill-opacity:1;fill-rule:nonzero;stroke:none"/></g><g id="g28" transform="translate(27.9502,26.438)"><path id="path30" d="M 0,0 -0.799,-0.738 -0.72,0.348 -1.797,0.512 -0.898,1.127 -1.44,2.071 -0.4,1.752 0,2.765 0.4,1.752 1.441,2.071 0.898,1.127 1.797,0.512 0.721,0.348 0.8,-0.738 0,0 Z" style="fill:#fff;fill-opacity:1;fill-rule:nonzero;stroke:none"/></g><g id="g32" transform="translate(23.9502,20.4375)"><path id="path34" d="M 0,0 -0.799,-0.738 -0.72,0.348 -1.797,0.512 -0.898,1.127 -1.44,2.071 -0.4,1.752 0,2.766 0.4,1.752 1.441,2.071 0.898,1.127 1.797,0.512 0.721,0.348 0.8,-0.738 0,0 Z" style="fill:#fff;fill-opacity:1;fill-rule:nonzero;stroke:none"/></g><g id="g36" transform="translate(32.9502,22.4375)"><path id="path38" d="M 0,0 -0.799,-0.738 -0.72,0.348 -1.797,0.512 -0.898,1.127 -1.44,2.071 -0.4,1.752 0,2.766 0.4,1.752 1.441,2.071 0.898,1.127 1.797,0.512 0.721,0.348 0.8,-0.738 0,0 Z" style="fill:#fff;fill-opacity:1;fill-rule:nonzero;stroke:none"/></g><g id="g40" transform="translate(27.9502,8.4375)"><path id="path42" d="M 0,0 -0.799,-0.738 -0.72,0.348 -1.797,0.512 -0.898,1.127 -1.44,2.071 -0.4,1.752 0,2.766 0.4,1.752 1.441,2.071 0.898,1.127 1.797,0.512 0.721,0.348 0.8,-0.738 0,0 Z" style="fill:#fff;fill-opacity:1;fill-rule:nonzero;stroke:none"/></g><g id="g44" transform="translate(31,20)"><path id="path46" d="M 0,0 0.294,-0.596 0.951,-0.691 0.476,-1.154 0.588,-1.809 0,-1.5 l -0.588,-0.309 0.112,0.655 -0.475,0.463 0.657,0.095 L 0,0 Z" style="fill:#fff;fill-opacity:1;fill-rule:nonzero;stroke:none"/></g><g id="g48" transform="translate(19,31)"><path id="path50" d="m 0,0 -15,0 c -2.209,0 -4,-1.791 -4,-4 l 0,-9 19,0 0,13 z" style="fill:#00247d;fill-opacity:1;fill-rule:nonzero;stroke:none"/></g><g id="g52" transform="translate(19,18)"><path id="path54" d="M 0,0 0,2.029 -7.1,7 -12.329,7 -2.332,0 0,0 Z" style="fill:#eee;fill-opacity:1;fill-rule:nonzero;stroke:none"/></g><g id="g56" transform="translate(19,19.418)"><path id="path58" d="m 0,0 -7.971,5.582 -1.743,0 L 0,-1.22 0,0 Z" style="fill:#cf1b2b;fill-opacity:1;fill-rule:nonzero;stroke:none"/></g><g id="g60" transform="translate(8.0996,25)"><path id="path62" d="M 0,0 -8.1,-5.766 -8.1,-7 -4.768,-7 5.23,0 0,0 Z" style="fill:#eee;fill-opacity:1;fill-rule:nonzero;stroke:none"/></g><g id="g64" transform="translate(10.7139,25)"><path id="path66" d="m 0,0 -9.98,-7 0.266,0 1.461,0 L 1.744,0 0,0 Z" style="fill:#cf1b2b;fill-opacity:1;fill-rule:nonzero;stroke:none"/></g><g id="g68" transform="translate(16.6689,31)"><path id="path70" d="m 0,0 -9.997,-7 5.229,0 7.099,4.971 L 2.331,0 0,0 Z" style="fill:#eee;fill-opacity:1;fill-rule:nonzero;stroke:none"/></g><g id="g72" transform="translate(17.5391,31)"><path id="path74" d="m 0,0 -9.996,-7 1.743,0 9.714,6.802 L 1.461,0 0,0 Z" style="fill:#cf1b2b;fill-opacity:1;fill-rule:nonzero;stroke:none"/></g></g></g><g id="g76"><g id="g78" clip-path="url(#clipPath80)"><g id="g84" transform="translate(10,24)"><path id="path86" d="M 0,0 3.328,0 -6.668,7 -9,7 -9.625,5.406 0,-1.331 0,0 Z" style="fill:#eee;fill-opacity:1;fill-rule:nonzero;stroke:none"/></g><g id="g88" transform="translate(10,24)"><path id="path90" d="M 0,0 0.714,0 -9,6.802 -9.5,5.937 0,-0.722 0,0 Z" style="fill:#cf1b2b;fill-opacity:1;fill-rule:nonzero;stroke:none"/></g></g></g><g id="g92"><g id="g94" clip-path="url(#clipPath96)"><g id="g100" transform="translate(19,27)"><path id="path102" d="m 0,0 -7,0 0,4 -5,0 0,-4 -7,0 0,-5 7,0 0,-4 5,0 0,4 7,0 0,5 z" style="fill:#eee;fill-opacity:1;fill-rule:nonzero;stroke:none"/></g><path id="path104" d="m 11,18 -3,0 0,13 3,0 0,-13 z" style="fill:#cf1b2b;fill-opacity:1;fill-rule:nonzero;stroke:none"/><path id="path106" d="m 19,23 -19,0 0,3 19,0 0,-3 z" style="fill:#cf1b2b;fill-opacity:1;fill-rule:nonzero;stroke:none"/></g></g></g></svg>