<svg xmlns="http://www.w3.org/2000/svg" xmlns:svg="http://www.w3.org/2000/svg" style="enable-background:new 0 0 45 45" id="svg2" version="1.1" viewBox="0 0 45 45" xml:space="preserve"><metadata id="metadata8"/><defs id="defs6"><clipPath id="clipPath16" clipPathUnits="userSpaceOnUse"><path id="path18" d="M 0,36 36,36 36,0 0,0 0,36 Z"/></clipPath></defs><g id="g10" transform="matrix(1.25,0,0,-1.25,0,45)"><g id="g12"><g id="g14" clip-path="url(#clipPath16)"><g id="g20" transform="translate(36,9)"><path id="path22" d="m 0,0 c 0,-2.209 -1.791,-4 -4,-4 l -28,0 c -2.209,0 -4,1.791 -4,4 l 0,18 c 0,2.209 1.791,4 4,4 l 28,0 c 2.209,0 4,-1.791 4,-4 L 0,0 Z" style="fill:#002b7f;fill-opacity:1;fill-rule:nonzero;stroke:none"/></g><path id="path24" d="M 36,9 0,9 0,27 36,27 36,9 Z" style="fill:#eee;fill-opacity:1;fill-rule:nonzero;stroke:none"/><path id="path26" d="M 36,13 0,13 0,23 36,23 36,13 Z" style="fill:#ce1225;fill-opacity:1;fill-rule:nonzero;stroke:none"/><g id="g28" transform="translate(12,18)"><path id="path30" d="M 0,0 C 0,-2.209 -1.567,-4 -3.5,-4 -5.433,-4 -7,-2.209 -7,0 -7,2.209 -5.433,4 -3.5,4 -1.567,4 0,2.209 0,0" style="fill:#eee;fill-opacity:1;fill-rule:nonzero;stroke:none"/></g><g id="g32" transform="translate(10.2686,16.5)"><path id="path34" d="m 0,0 c 0,-0.828 -0.792,-2.079 -1.769,-2.079 -0.977,0 -1.768,1.251 -1.768,2.079 0,0.829 0.791,1.5 1.768,1.5 C -0.792,1.5 0,0.829 0,0" style="fill:#f4cb58;fill-opacity:1;fill-rule:nonzero;stroke:none"/></g><g id="g36" transform="translate(11,16.5)"><path id="path38" d="M 0,0 C 0,-0.828 -1.119,-1.5 -2.5,-1.5 -3.881,-1.5 -5,-0.828 -5,0 -5,0.829 -3.881,1.5 -2.5,1.5 -1.119,1.5 0,0.829 0,0" style="fill:#dca841;fill-opacity:1;fill-rule:nonzero;stroke:none"/></g><g id="g40" transform="translate(10,20)"><path id="path42" d="M 0,0 C 0,-0.552 -0.671,-1 -1.5,-1 -2.329,-1 -3,-0.552 -3,0 -3,0.552 -2.329,1 -1.5,1 -0.671,1 0,0.552 0,0" style="fill:#89c5e4;fill-opacity:1;fill-rule:nonzero;stroke:none"/></g><g id="g44" transform="translate(10,17.5)"><path id="path46" d="M 0,0 C 0,-1.381 -0.671,-2.5 -1.5,-2.5 -2.329,-2.5 -3,-1.381 -3,0 -3,1.381 -2.329,2.5 -1.5,2.5 -0.671,2.5 0,1.381 0,0" style="fill:#088930;fill-opacity:1;fill-rule:nonzero;stroke:none"/></g><g id="g48" transform="translate(10,19.5)"><path id="path50" d="M 0,0 C 0,-0.276 -0.671,-0.5 -1.5,-0.5 -2.329,-0.5 -3,-0.276 -3,0 -3,0.276 -2.329,0.5 -1.5,0.5 -0.671,0.5 0,0.276 0,0" style="fill:#dca841;fill-opacity:1;fill-rule:nonzero;stroke:none"/></g><g id="g52" transform="translate(10,18)"><path id="path54" d="M 0,0 C 0,-1.104 -0.671,-2 -1.5,-2 -2.329,-2 -3,-1.104 -3,0 -3,1.105 -2.329,1.498 -1.5,1.498 -0.671,1.498 0,1.105 0,0" style="fill:#89c5e4;fill-opacity:1;fill-rule:nonzero;stroke:none"/></g><g id="g56" transform="translate(10,17.5)"><path id="path58" d="M 0,0 C 0,-0.276 -0.671,-0.5 -1.5,-0.5 -2.329,-0.5 -3,-0.276 -3,0 -3,0.276 -2.329,0.5 -1.5,0.5 -0.671,0.5 0,0.276 0,0" style="fill:#dca841;fill-opacity:1;fill-rule:nonzero;stroke:none"/></g></g></g></g></svg>