<svg xmlns="http://www.w3.org/2000/svg" xmlns:svg="http://www.w3.org/2000/svg" style="enable-background:new 0 0 45 45" id="svg2" version="1.1" viewBox="0 0 45 45" xml:space="preserve"><metadata id="metadata8"/><defs id="defs6"><clipPath id="clipPath16" clipPathUnits="userSpaceOnUse"><path id="path18" d="M 4,31 C 1.791,31 0,29.209 0,27 L 0,27 0,9 C 0,6.791 1.791,5 4,5 l 0,0 28,0 c 2.209,0 4,1.791 4,4 l 0,0 0,18 c 0,2.209 -1.791,4 -4,4 l 0,0 -28,0 z"/></clipPath></defs><g id="g10" transform="matrix(1.25,0,0,-1.25,0,45)"><g id="g12"><g id="g14" clip-path="url(#clipPath16)"><g id="g20" transform="translate(8,10.2001)"><path id="path22" d="M 0,0 6.081,2.6 0,5.2 6.081,7.8 0,10.4 6.081,13 0,15.6 6.081,18.2 0,20.8 l -8,0 0,-26 8,0 6.081,2.6 L 0,0 Z" style="fill:#eee;fill-opacity:1;fill-rule:nonzero;stroke:none"/></g><g id="g24" transform="translate(8,31)"><path id="path26" d="M 0,0 6.081,-2.6 0,-5.2 6.081,-7.8 0,-10.4 6.081,-13 0,-15.6 6.081,-18.2 0,-20.8 6.081,-23.4 0,-26 28,-26 28,0 0,0 Z" style="fill:#ce1126;fill-opacity:1;fill-rule:nonzero;stroke:none"/></g></g></g></g></svg>