<svg xmlns="http://www.w3.org/2000/svg" xmlns:svg="http://www.w3.org/2000/svg" style="enable-background:new 0 0 45 45" id="svg2" version="1.1" viewBox="0 0 45 45" xml:space="preserve"><metadata id="metadata8"/><defs id="defs6"><clipPath id="clipPath16" clipPathUnits="userSpaceOnUse"><path id="path18" d="M 0,36 36,36 36,0 0,0 0,36 Z"/></clipPath></defs><g id="g10" transform="matrix(1.25,0,0,-1.25,0,45)"><g id="g12"><g id="g14" clip-path="url(#clipPath16)"><g id="g20" transform="translate(36,9)"><path id="path22" d="m 0,0 c 0,-2.209 -1.791,-4 -4,-4 l -28,0 c -2.209,0 -4,1.791 -4,4 l 0,18 c 0,2.209 1.791,4 4,4 l 28,0 c 2.209,0 4,-1.791 4,-4 L 0,0 Z" style="fill:#009b3a;fill-opacity:1;fill-rule:nonzero;stroke:none"/></g><g id="g24" transform="translate(32.7275,18)"><path id="path26" d="M 0,0 -14.728,-11.124 -29.456,0 -14.728,11.125 0,0 Z" style="fill:#fedf01;fill-opacity:1;fill-rule:nonzero;stroke:none"/></g><g id="g28" transform="translate(24.4336,18.0762)"><path id="path30" d="m 0,0 c 0,3.567 -2.892,6.458 -6.458,6.458 -3.567,0 -6.458,-2.891 -6.458,-6.458 0,-3.566 2.891,-6.458 6.458,-6.458 C -2.892,-6.458 0,-3.566 0,0" style="fill:#002776;fill-opacity:1;fill-rule:nonzero;stroke:none"/></g><g id="g32" transform="translate(12.2769,21.1128)"><path id="path34" d="m 0,0 c -0.332,-0.621 -0.558,-1.303 -0.672,-2.023 3.994,0.29 9.417,-1.892 11.744,-4.596 0.402,0.604 0.7,1.281 0.882,2.004 C 9.083,-1.806 4.038,0.016 0,0" style="fill:#cbe9d4;fill-opacity:1;fill-rule:nonzero;stroke:none"/></g><path id="path36" d="m 13,16.767 -1,0 0,1 1,0 0,-1 z" style="fill:#88c9f9;fill-opacity:1;fill-rule:nonzero;stroke:none"/><path id="path38" d="m 14,14.767 -1,0 0,1 1,0 0,-1 z" style="fill:#88c9f9;fill-opacity:1;fill-rule:nonzero;stroke:none"/><path id="path40" d="m 16,16.767 -1,0 0,1 1,0 0,-1 z" style="fill:#55acee;fill-opacity:1;fill-rule:nonzero;stroke:none"/><path id="path42" d="m 18,15.767 -1,0 0,1 1,0 0,-1 z" style="fill:#55acee;fill-opacity:1;fill-rule:nonzero;stroke:none"/><path id="path44" d="m 22,13.767 -1,0 0,1 1,0 0,-1 z" style="fill:#55acee;fill-opacity:1;fill-rule:nonzero;stroke:none"/><path id="path46" d="m 19,12.767 -1,0 0,1 1,0 0,-1 z" style="fill:#55acee;fill-opacity:1;fill-rule:nonzero;stroke:none"/><path id="path48" d="m 22,18.767 -1,0 0,1 1,0 0,-1 z" style="fill:#55acee;fill-opacity:1;fill-rule:nonzero;stroke:none"/><path id="path50" d="m 20,14.767 -1,0 0,1 1,0 0,-1 z" style="fill:#3b88c3;fill-opacity:1;fill-rule:nonzero;stroke:none"/></g></g></g></svg>