<svg xmlns="http://www.w3.org/2000/svg" xmlns:svg="http://www.w3.org/2000/svg" style="enable-background:new 0 0 45 45" id="svg2" version="1.1" viewBox="0 0 45 45" xml:space="preserve"><metadata id="metadata8"/><defs id="defs6"><clipPath id="clipPath16" clipPathUnits="userSpaceOnUse"><path id="path18" d="M 0,36 36,36 36,0 0,0 0,36 Z"/></clipPath></defs><g id="g10" transform="matrix(1.25,0,0,-1.25,0,45)"><g id="g12"><g id="g14" clip-path="url(#clipPath16)"><g id="g20" transform="translate(4,31)"><path id="path22" d="m 0,0 c -2.209,0 -4,-1.791 -4,-4 l 0,-18 c 0,-2.209 1.791,-4 4,-4 l 14,0 0,26 -14,0 z" style="fill:#006233;fill-opacity:1;fill-rule:nonzero;stroke:none"/></g><g id="g24" transform="translate(32,31)"><path id="path26" d="m 0,0 -14,0 0,-26 14,0 c 2.209,0 4,1.791 4,4 L 4,-4 C 4,-1.791 2.209,0 0,0" style="fill:#eee;fill-opacity:1;fill-rule:nonzero;stroke:none"/></g><g id="g28" transform="translate(20,12)"><path id="path30" d="m 0,0 c -3.314,0 -6,2.686 -6,6 0,3.314 2.686,6 6,6 1.311,0 2.52,-0.425 3.507,-1.138 -1.348,1.524 -3.312,2.491 -5.507,2.491 -4.061,0 -7.353,-3.292 -7.353,-7.353 0,-4.061 3.292,-7.354 7.353,-7.354 2.195,0 4.16,0.967 5.507,2.493 C 2.521,0.425 1.312,0 0,0" style="fill:#d20f34;fill-opacity:1;fill-rule:nonzero;stroke:none"/></g><g id="g32" transform="translate(25.3018,17.77)"><path id="path34" d="m 0,0 -2.439,-0.562 -0.221,-2.493 -1.288,2.146 -2.44,-0.561 1.644,1.889 -1.287,2.146 2.303,-0.98 1.644,1.889 L -2.304,0.98 0,0 Z" style="fill:#d20f34;fill-opacity:1;fill-rule:nonzero;stroke:none"/></g></g></g></g></svg>