<svg xmlns="http://www.w3.org/2000/svg" xmlns:svg="http://www.w3.org/2000/svg" style="enable-background:new 0 0 45 45" id="svg2" version="1.1" viewBox="0 0 45 45" xml:space="preserve"><metadata id="metadata8"/><defs id="defs6"><clipPath id="clipPath16" clipPathUnits="userSpaceOnUse"><path id="path18" d="M 0,36 36,36 36,0 0,0 0,36 Z"/></clipPath></defs><g id="g10" transform="matrix(1.25,0,0,-1.25,0,45)"><g id="g12"><g id="g14" clip-path="url(#clipPath16)"><g id="g20" transform="translate(1.3826,6.0271)"><path id="path22" d="m 0,0 c 0.702,-0.655 1.615,-1.027 2.617,-1.027 l 28,0 c 2.209,0 4,1.791 4,4.5 l 0,8.5 -18.5,0 L 0,0 Z" style="fill:#d7141a;fill-opacity:1;fill-rule:nonzero;stroke:none"/></g><g id="g24" transform="translate(32,31)"><path id="path26" d="m 0,0 -28,0 c -1.016,0 -1.94,-0.382 -2.646,-1.006 L -14.5,-13 4,-13 4,-4 C 4,-1.791 2.209,0 0,0" style="fill:#eee;fill-opacity:1;fill-rule:nonzero;stroke:none"/></g><g id="g28" transform="translate(1.3826,6.0271)"><path id="path30" d="M 0,0 16.117,11.973 -0.029,23.967 c -0.828,-0.733 -1.354,-1.801 -1.354,-2.994 l 0,-9 0,-8.5 C -1.383,1.993 -0.845,0.79 0,0" style="fill:#11457e;fill-opacity:1;fill-rule:nonzero;stroke:none"/></g></g></g></g></svg>