<svg xmlns="http://www.w3.org/2000/svg" xmlns:svg="http://www.w3.org/2000/svg" style="enable-background:new 0 0 45 45" id="svg2" version="1.1" viewBox="0 0 45 45" xml:space="preserve"><metadata id="metadata8"/><defs id="defs6"><clipPath id="clipPath16" clipPathUnits="userSpaceOnUse"><path id="path18" d="M 0,36 36,36 36,0 0,0 0,36 Z"/></clipPath></defs><g id="g10" transform="matrix(1.25,0,0,-1.25,0,45)"><g id="g12"><g id="g14" clip-path="url(#clipPath16)"><g id="g20" transform="translate(0,18)"><path id="path22" d="m 0,0 0,-9 c 0,-2.209 1.791,-4 4,-4 l 28,0 c 2.209,0 4,1.791 4,4 L 36,0 0,0 Z" style="fill:#141414;fill-opacity:1;fill-rule:nonzero;stroke:none"/></g><g id="g24" transform="translate(36,18)"><path id="path26" d="m 0,0 0,9 c 0,2.209 -1.791,4 -4,4 l -28,0 c -2.209,0 -4,-1.791 -4,-4 l 0,-9 36,0 z" style="fill:#ce1b26;fill-opacity:1;fill-rule:nonzero;stroke:none"/></g><g id="g28" transform="translate(17.4517,22.3545)"><path id="path30" d="M 0,0 0.602,-1.222 1.951,-1.418 0.975,-2.368 1.206,-3.711 0,-3.077 l -1.206,-0.634 0.23,1.343 -0.975,0.95 1.348,0.196 L 0,0 Z" style="fill:#f9d616;fill-opacity:1;fill-rule:nonzero;stroke:none"/></g><g id="g32" transform="translate(15.1563,18.8125)"><path id="path34" d="m 0,0 c 0.344,-0.562 3.172,-3.516 5.922,-5.234 0.359,-0.235 1.344,-0.985 1.719,-1.25 -0.157,-0.203 -0.375,-0.5 -0.61,-0.75 -0.39,0.312 -3.968,2.515 -5.14,3.109 C 0.719,-3.531 -0.344,-2.5 -0.344,-1.516 -0.344,-0.531 0,0 0,0" style="fill:#f9d616;fill-opacity:1;fill-rule:nonzero;stroke:none"/></g><g id="g36" transform="translate(22.9844,12.2031)"><path id="path38" d="M 0,0 C -0.172,-0.25 -0.437,-0.594 -0.594,-0.781 -0.281,-0.828 0.516,-1.219 0.922,-2.063 1.328,-2.906 2.063,-2.469 2,-2.016 1.937,-1.562 1.047,-0.578 0,0" style="fill:#f9d616;fill-opacity:1;fill-rule:nonzero;stroke:none"/></g><g id="g40" transform="translate(23.4375,11.5078)"><path id="path42" d="m 0,0 c 0,-0.1 -0.08,-0.18 -0.18,-0.18 -0.099,0 -0.179,0.08 -0.179,0.18 0,0.1 0.08,0.18 0.179,0.18 C -0.08,0.18 0,0.1 0,0" style="fill:#292f33;fill-opacity:1;fill-rule:nonzero;stroke:none"/></g><g id="g44" transform="translate(24.4375,10.5078)"><path id="path46" d="m 0,0 c 0,-0.1 -0.08,-0.18 -0.18,-0.18 -0.099,0 -0.179,0.08 -0.179,0.18 0,0.1 0.08,0.18 0.179,0.18 C -0.08,0.18 0,0.1 0,0" style="fill:#292f33;fill-opacity:1;fill-rule:nonzero;stroke:none"/></g><g id="g48" transform="translate(17.8906,15.2812)"><path id="path50" d="M 0,0 4.656,-3.172" style="fill:none;stroke:#292f33;stroke-width:.30000001;stroke-linecap:round;stroke-linejoin:miter;stroke-miterlimit:10;stroke-dasharray:none;stroke-opacity:1"/></g><g id="g52" transform="translate(24.8262,17.3521)"><path id="path54" d="M 0,0 0.008,1.295 -1.077,1.288 c -0.041,0.417 -0.126,0.82 -0.244,1.209 L -0.35,2.886 -0.787,4.105 -1.833,3.69 c -0.178,0.322 -0.384,0.625 -0.614,0.909 l 0.699,0.798 -0.994,0.832 -0.625,-0.71 c -0.31,0.25 -0.641,0.472 -0.994,0.66 L -3.907,7.146 -5.12,7.603 -5.562,6.668 C -5.919,6.771 -6.288,6.844 -6.667,6.882 L -6.805,5.535 c 2.495,-0.257 4.448,-2.341 4.448,-4.903 0,-1.508 -0.688,-2.842 -1.751,-3.751 l 0.552,-0.382 1.365,-1.015 0.532,0.578 -0.833,0.618 c 0.252,0.303 0.476,0.627 0.668,0.974 l 1.006,-0.408 0.5,1.195 -1.001,0.406 c 0.112,0.369 0.196,0.751 0.238,1.146 L 0,0 Z" style="fill:#f9d616;fill-opacity:1;fill-rule:nonzero;stroke:none"/></g><g id="g56" transform="translate(19.8965,12.2324)"><path id="path58" d="m 0,0 -0.412,0.799 -0.51,0.243 C -1.386,0.898 -1.87,0.799 -2.381,0.799 c -1.198,0 -2.282,0.442 -3.139,1.15 L -6.352,0.971 c 0.308,-0.255 0.645,-0.473 0.999,-0.665 l -0.446,-0.959 1.195,-0.503 0.45,0.971 c 0.345,-0.103 0.701,-0.175 1.069,-0.218 l -0.008,-1.01 1.296,0.014 0.007,0.96 c 0.404,0.039 0.797,0.115 1.175,0.226 l 0.344,-0.994 0.687,0.203 -0.431,0.999 C -0.01,-0.003 -0.005,-0.002 0,0" style="fill:#f9d616;fill-opacity:1;fill-rule:nonzero;stroke:none"/></g></g></g></g></svg>