<svg xmlns="http://www.w3.org/2000/svg" xmlns:svg="http://www.w3.org/2000/svg" style="enable-background:new 0 0 45 45" id="svg2" version="1.1" viewBox="0 0 45 45" xml:space="preserve"><metadata id="metadata8"/><defs id="defs6"><clipPath id="clipPath16" clipPathUnits="userSpaceOnUse"><path id="path18" d="M 4,31 C 1.791,31 0,29.209 0,27 L 0,27 0,9 C 0,6.791 1.791,5 4,5 l 0,0 28,0 c 2.209,0 4,1.791 4,4 l 0,0 0,18 c 0,2.209 -1.791,4 -4,4 l 0,0 -28,0 z"/></clipPath></defs><g id="g10" transform="matrix(1.25,0,0,-1.25,0,45)"><g id="g12"><g id="g14" clip-path="url(#clipPath16)"><path id="path20" d="M 0,5 36,5 36,31 0,31 0,5 Z" style="fill:#eeeded;fill-opacity:1;fill-rule:nonzero;stroke:none"/><g id="g22" transform="translate(36,5)"><path id="path24" d="M 0,0 -36,0 0,26 0,0 Z" style="fill:#012a87;fill-opacity:1;fill-rule:nonzero;stroke:none"/></g><g id="g26" transform="translate(0,31)"><path id="path28" d="M 0,0 0,-10.833 13.25,0 0,0 Z" style="fill:#f9d90f;fill-opacity:1;fill-rule:nonzero;stroke:none"/></g><g id="g30" transform="translate(11,15.9517)"><path id="path32" d="m 0,0 c -2.67,0 -4.842,2.172 -4.842,4.842 0,2.671 2.172,4.843 4.842,4.843 2.67,0 4.842,-2.172 4.842,-4.843 C 4.842,2.172 2.67,0 0,0 M 5.513,4.154 6.706,4.842 5.513,5.531 C 5.201,8.046 3.203,10.044 0.688,10.356 L 0,11.548 -0.688,10.356 C -3.203,10.044 -5.201,8.046 -5.513,5.531 L -6.706,4.842 -5.513,4.154 c 0.312,-2.515 2.31,-4.513 4.825,-4.825 L 0,-1.863 0.688,-0.671 c 2.515,0.312 4.513,2.31 4.825,4.825" style="fill:#000;fill-opacity:1;fill-rule:nonzero;stroke:none"/></g><g id="g34" transform="translate(12.9139,20.7942)"><path id="path36" d="m 0,0 0.957,1.658 -1.914,0 -0.957,1.657 -0.957,-1.657 -1.914,0 0.957,-1.658 -0.957,-1.657 1.914,0 0.957,-1.658 0.957,1.658 1.914,0 L 0,0 Z" style="fill:#dc171d;fill-opacity:1;fill-rule:nonzero;stroke:none"/></g></g></g></g></svg>