<svg xmlns="http://www.w3.org/2000/svg" xmlns:svg="http://www.w3.org/2000/svg" style="enable-background:new 0 0 45 45" id="svg2" version="1.1" viewBox="0 0 45 45" xml:space="preserve"><metadata id="metadata8"/><defs id="defs6"><clipPath id="clipPath16" clipPathUnits="userSpaceOnUse"><path id="path18" d="M 0,36 36,36 36,0 0,0 0,36 Z"/></clipPath></defs><g id="g10" transform="matrix(1.25,0,0,-1.25,0,45)"><g id="g12"><g id="g14" clip-path="url(#clipPath16)"><g id="g20" transform="translate(36,9)"><path id="path22" d="m 0,0 c 0,-2.209 -1.791,-4 -4,-4 l -28,0 c -2.209,0 -4,1.791 -4,4 l 0,18 c 0,2.209 1.791,4 4,4 l 28,0 c 2.209,0 4,-1.791 4,-4 L 0,0 Z" style="fill:#00267f;fill-opacity:1;fill-rule:nonzero;stroke:none"/></g><g id="g24" transform="translate(4,31)"><path id="path26" d="m 0,0 c -2.209,0 -4,-1.791 -4,-4 l 0,-18 c 0,-2.209 1.791,-4 4,-4 l 8,0 0,26 -8,0 z" style="fill:#00267f;fill-opacity:1;fill-rule:nonzero;stroke:none"/></g><path id="path28" d="M 24,5 12,5 12,31 24,31 24,5 Z" style="fill:#ffc726;fill-opacity:1;fill-rule:nonzero;stroke:none"/><g id="g30" transform="translate(22.8301,22.4844)"><path id="path32" d="m 0,0 c -1.406,0 -2.5,-1.031 -2.859,-1.437 0.421,0.093 0.515,-0.235 0.453,-0.438 -0.444,-1.477 -0.819,-3.215 -0.931,-4.15 l -0.903,0 0,5.185 1.09,0.226 -1.366,0.274 -0.283,1.377 -0.283,-1.377 -1.368,-0.274 1.1,-0.228 0,-5.183 -0.946,0 c -0.112,0.935 -0.487,2.673 -0.932,4.15 -0.062,0.203 0.032,0.531 0.454,0.438 C -7.134,-1.031 -8.228,0 -9.634,0 c 0.614,-0.906 2.245,-3.432 2.458,-6.403 l 0,-0.622 1.826,0 0,-2.414 1.11,0 0,2.414 1.756,0 0,0.231 C -2.399,-3.653 -0.64,-0.945 0,0" style="fill:#000;fill-opacity:1;fill-rule:nonzero;stroke:none"/></g></g></g></g></svg>