<svg xmlns="http://www.w3.org/2000/svg" xmlns:svg="http://www.w3.org/2000/svg" style="enable-background:new 0 0 45 45" id="svg2" version="1.1" viewBox="0 0 45 45" xml:space="preserve"><metadata id="metadata8"/><defs id="defs6"><clipPath id="clipPath16" clipPathUnits="userSpaceOnUse"><path id="path18" d="M 0,36 36,36 36,0 0,0 0,36 Z"/></clipPath></defs><g id="g10" transform="matrix(1.25,0,0,-1.25,0,45)"><g id="g12"><g id="g14" clip-path="url(#clipPath16)"><g id="g20" transform="translate(8.3369,21.708)"><path id="path22" d="M 0,0 -1.882,1.367 -3.764,0 l 0.719,2.212 -1.882,1.368 2.326,0 0.719,2.212 0.719,-2.212 2.326,0 L -0.719,2.212 0,0 Z m 4.663,9.292 -9,0 c -2.209,0 -4,-1.791 -4,-4 l 0,-9 13,0 0,13 z" style="fill:#1f429b;fill-opacity:1;fill-rule:nonzero;stroke:none"/></g><g id="g24" transform="translate(32,31)"><path id="path26" d="m 0,0 -19,0 0,-13 23,0 0,9 C 4,-1.791 2.209,0 0,0" style="fill:#eee;fill-opacity:1;fill-rule:nonzero;stroke:none"/></g><g id="g28" transform="translate(0,18)"><path id="path30" d="m 0,0 0,-9 c 0,-2.209 1.791,-4 4,-4 l 28,0 c 2.209,0 4,1.791 4,4 L 36,0 13,0 0,0 Z" style="fill:#d42d27;fill-opacity:1;fill-rule:nonzero;stroke:none"/></g><g id="g32" transform="translate(7.1739,25.2876)"><path id="path34" d="M 0,0 -0.719,2.212 -1.437,0 -3.764,0 -1.882,-1.367 -2.601,-3.58 -0.719,-2.212 1.163,-3.58 0.444,-1.367 2.326,0 0,0 Z" style="fill:#fff;fill-opacity:1;fill-rule:nonzero;stroke:none"/></g></g></g></g></svg>