<svg xmlns="http://www.w3.org/2000/svg" xmlns:svg="http://www.w3.org/2000/svg" style="enable-background:new 0 0 45 45" id="svg2" version="1.1" viewBox="0 0 45 45" xml:space="preserve"><metadata id="metadata8"/><defs id="defs6"><clipPath id="clipPath16" clipPathUnits="userSpaceOnUse"><path id="path18" d="M 0,36 36,36 36,0 0,0 0,36 Z"/></clipPath></defs><g id="g10" transform="matrix(1.25,0,0,-1.25,0,45)"><g id="g12"><g id="g14" clip-path="url(#clipPath16)"><g id="g20" transform="translate(36,9)"><path id="path22" d="m 0,0 c 0,-2.209 -1.791,-4 -4,-4 l -28,0 c -2.209,0 -4,1.791 -4,4 l 0,18 c 0,2.209 1.791,4 4,4 l 28,0 c 2.209,0 4,-1.791 4,-4 L 0,0 Z" style="fill:#002395;fill-opacity:1;fill-rule:nonzero;stroke:none"/></g><g id="g24" transform="translate(6,31)"><path id="path26" d="m 0,0 0,-12 -6,0 0,-1 19,0 0,13 -13,0 z" style="fill:#eee;fill-opacity:1;fill-rule:nonzero;stroke:none"/></g><path id="path28" d="m 18,19 -6,0 0,12 6,0 0,-12 z" style="fill:#ed2939;fill-opacity:1;fill-rule:nonzero;stroke:none"/><path id="path30" d="m 12,19 -6,0 0,12 6,0 0,-12 z" style="fill:#eee;fill-opacity:1;fill-rule:nonzero;stroke:none"/><g id="g32" transform="translate(29.9639,15.9062)"><path id="path34" d="m 0,0 -1.701,-2.631 0,4.763 2.268,0 0.838,0.961 -3.88,0 -3.879,0 0.837,-0.961 2.269,0 0,-4.763 -1.701,2.631 -2.475,-3.867 1.237,0 1.238,2.035 2.474,-4.356 2.475,4.356 1.238,-2.035 1.238,0 L 0,0 Z" style="fill:#fff;fill-opacity:1;fill-rule:nonzero;stroke:none"/></g><g id="g36" transform="translate(27.0127,16.9951)"><path id="path38" d="m 0,0 3.119,0 -0.687,-0.941 -2.269,0 L 0,0 Z" style="fill:#fff;fill-opacity:1;fill-rule:nonzero;stroke:none"/></g><path id="path40" d="m 26.252,12.359 -2.476,0 0,0.617 2.476,0 0,-0.617 z" style="fill:#fff;fill-opacity:1;fill-rule:nonzero;stroke:none"/><path id="path42" d="m 31.202,12.359 -2.475,0 0,0.617 2.475,0 0,-0.617 z" style="fill:#fff;fill-opacity:1;fill-rule:nonzero;stroke:none"/><g id="g44" transform="translate(27.4893,8.7939)"><path id="path46" d="m 0,0 0.299,-1.027 1.034,0 -0.816,-0.66 0.298,-1.015 -0.815,0.62 -0.816,-0.604 0.299,1 -0.816,0.659 1.007,0 L 0,0 Z" style="fill:#fff;fill-opacity:1;fill-rule:nonzero;stroke:none"/></g><g id="g48" transform="translate(22.1523,18)"><path id="path50" d="m 0,0 0.299,-1.026 1.034,0 -0.815,-0.632 0.298,-1 -0.816,0.627 -0.815,-0.6 0.298,0.973 -0.815,0.632 1.006,0 L 0,0 Z" style="fill:#fff;fill-opacity:1;fill-rule:nonzero;stroke:none"/></g><g id="g52" transform="translate(32.8252,18)"><path id="path54" d="m 0,0 0.3,-1.026 1.033,0 -0.815,-0.632 0.298,-1 -0.816,0.627 -0.814,-0.6 0.297,0.973 -0.815,0.632 1.007,0 L 0,0 Z" style="fill:#fff;fill-opacity:1;fill-rule:nonzero;stroke:none"/></g><g id="g56" transform="translate(24.5605,10.8496)"><path id="path58" d="m 0,0 0.298,-1.026 1.034,0 L 0.517,-1.668 0.814,-2.673 0,-2.048 l -0.816,-0.6 0.299,0.981 -0.816,0.641 1.006,0 L 0,0 Z" style="fill:#fff;fill-opacity:1;fill-rule:nonzero;stroke:none"/></g><g id="g60" transform="translate(30.418,10.8496)"><path id="path62" d="m 0,0 0.3,-1.026 1.033,0 L 0.517,-1.668 0.816,-2.673 0,-2.048 l -0.814,-0.6 0.297,0.981 -0.815,0.641 1.007,0 L 0,0 Z" style="fill:#fff;fill-opacity:1;fill-rule:nonzero;stroke:none"/></g></g></g></g></svg>