<svg xmlns="http://www.w3.org/2000/svg" xmlns:svg="http://www.w3.org/2000/svg" style="enable-background:new 0 0 45 45" id="svg2" version="1.1" viewBox="0 0 45 45" xml:space="preserve"><metadata id="metadata8"/><defs id="defs6"><clipPath id="clipPath16" clipPathUnits="userSpaceOnUse"><path id="path18" d="M 0,36 36,36 36,0 0,0 0,36 Z"/></clipPath></defs><g id="g10" transform="matrix(1.25,0,0,-1.25,0,45)"><g id="g12"><g id="g14" clip-path="url(#clipPath16)"><g id="g20" transform="translate(36,9)"><path id="path22" d="m 0,0 c 0,-2.209 -1.791,-4 -4,-4 l -28,0 c -2.209,0 -4,1.791 -4,4 l 0,18 c 0,2.209 1.791,4 4,4 l 28,0 c 2.209,0 4,-1.791 4,-4 L 0,0 Z" style="fill:#dd2e44;fill-opacity:1;fill-rule:nonzero;stroke:none"/></g><g id="g24" transform="translate(0.5547,7)"><path id="path26" d="m 0,0 34.891,0 c 0.343,0.591 0.554,1.268 0.554,2 l -36,0 C -0.555,1.268 -0.343,0.591 0,0" style="fill:#eee;fill-opacity:1;fill-rule:nonzero;stroke:none"/></g><path id="path28" d="m 36,11 -36,0 0,2 36,0 0,-2 z" style="fill:#eee;fill-opacity:1;fill-rule:nonzero;stroke:none"/><path id="path30" d="m 36,15 -36,0 0,2 36,0 0,-2 z" style="fill:#eee;fill-opacity:1;fill-rule:nonzero;stroke:none"/><path id="path32" d="m 36,19 -36,0 0,2 36,0 0,-2 z" style="fill:#eee;fill-opacity:1;fill-rule:nonzero;stroke:none"/><path id="path34" d="m 36,23 -36,0 0,2 36,0 0,-2 z" style="fill:#eee;fill-opacity:1;fill-rule:nonzero;stroke:none"/><g id="g36" transform="translate(0.5547,29)"><path id="path38" d="m 0,0 c -0.343,-0.59 -0.555,-1.268 -0.555,-2 l 36,0 c 0,0.732 -0.211,1.41 -0.554,2 L 0,0 Z" style="fill:#eee;fill-opacity:1;fill-rule:nonzero;stroke:none"/></g><g id="g40" transform="translate(18,31)"><path id="path42" d="m 0,0 -14,0 c -2.209,0 -4,-1.791 -4,-4 l 0,-10 18,0 0,14 z" style="fill:#010066;fill-opacity:1;fill-rule:nonzero;stroke:none"/></g><g id="g44" transform="translate(9.5337,18.7666)"><path id="path46" d="m 0,0 c -2.89,0 -5.233,2.343 -5.233,5.233 0,2.891 2.343,5.234 5.233,5.234 0.715,0 1.397,-0.146 2.018,-0.405 -0.995,0.733 -2.221,1.171 -3.552,1.171 -3.313,0 -6,-2.686 -6,-6 0,-3.313 2.687,-6 6,-6 1.331,0 2.557,0.439 3.552,1.172 C 1.397,0.145 0.715,0 0,0" style="fill:#ffcc4d;fill-opacity:1;fill-rule:nonzero;stroke:none"/></g><g id="g48" transform="translate(12.9219,27.1714)"><path id="path50" d="M 0,0 0.334,-1.62 1.337,-0.305 0.935,-1.91 2.41,-1.161 1.352,-2.432 3.005,-2.396 1.5,-3.082 3.005,-3.769 1.352,-3.733 2.41,-5.004 0.935,-4.255 1.337,-5.86 0.334,-4.545 0,-6.165 l -0.334,1.62 -1.003,-1.315 0.402,1.605 -1.475,-0.749 1.058,1.271 -1.653,-0.036 1.505,0.687 -1.505,0.686 1.653,-0.036 -1.058,1.271 1.475,-0.749 -0.402,1.605 L -0.334,-1.62 0,0 Z" style="fill:#ffcc4d;fill-opacity:1;fill-rule:nonzero;stroke:none"/></g></g></g></g></svg>