<svg xmlns="http://www.w3.org/2000/svg" xmlns:svg="http://www.w3.org/2000/svg" style="enable-background:new 0 0 45 45" id="svg2" version="1.1" viewBox="0 0 45 45" xml:space="preserve"><metadata id="metadata8"/><defs id="defs6"><clipPath id="clipPath16" clipPathUnits="userSpaceOnUse"><path id="path18" d="M 0,36 36,36 36,0 0,0 0,36 Z"/></clipPath></defs><g id="g10" transform="matrix(1.25,0,0,-1.25,0,45)"><g id="g12"><g id="g14" clip-path="url(#clipPath16)"><g id="g20" transform="translate(32,31)"><path id="path22" d="m 0,0 -28,0 c -2.209,0 -4,-1.791 -4,-4 L 4,-4 C 4,-1.791 2.209,0 0,0" style="fill:#ed1c24;fill-opacity:1;fill-rule:nonzero;stroke:none"/></g><path id="path24" d="m 0,23 36,0 0,4 -36,0 0,-4 z" style="fill:#eee;fill-opacity:1;fill-rule:nonzero;stroke:none"/><g id="g26" transform="translate(32,5)"><path id="path28" d="m 0,0 -28,0 c -2.209,0 -4,1.791 -4,4 L 4,4 C 4,1.791 2.209,0 0,0" style="fill:#ed1c24;fill-opacity:1;fill-rule:nonzero;stroke:none"/></g><path id="path30" d="M 0,13 36,13 36,9 0,9 0,13 Z" style="fill:#eee;fill-opacity:1;fill-rule:nonzero;stroke:none"/><path id="path32" d="M 0,13 36,13 36,23 0,23 0,13 Z" style="fill:#241d4f;fill-opacity:1;fill-rule:nonzero;stroke:none"/></g></g></g></svg>