<svg xmlns="http://www.w3.org/2000/svg" xmlns:svg="http://www.w3.org/2000/svg" style="enable-background:new 0 0 45 45" id="svg2" version="1.1" viewBox="0 0 45 45" xml:space="preserve"><metadata id="metadata8"/><defs id="defs6"><clipPath id="clipPath16" clipPathUnits="userSpaceOnUse"><path id="path18" d="M 4,31 C 1.791,31 0,29.209 0,27 L 0,27 0,9 C 0,6.791 1.791,5 4,5 l 0,0 28,0 c 2.209,0 4,1.791 4,4 l 0,0 0,18 c 0,2.209 -1.791,4 -4,4 l 0,0 -28,0 z"/></clipPath></defs><g id="g10" transform="matrix(1.25,0,0,-1.25,0,45)"><g id="g12"><g id="g14" clip-path="url(#clipPath16)"><path id="path20" d="M 0,31 36,31 36,5 0,5 0,31 Z" style="fill:#006233;fill-opacity:1;fill-rule:nonzero;stroke:none"/><g id="g22" transform="translate(25.4995,21.9609)"><path id="path24" d="m 0,0 c -0.021,-4.124 -3.37,-7.461 -7.5,-7.461 -4.129,0 -7.478,3.337 -7.499,7.461 -0.163,-0.626 -0.251,-1.283 -0.251,-1.961 0,-4.28 3.47,-7.75 7.75,-7.75 4.281,0 7.75,3.47 7.75,7.75 C 0.25,-1.283 0.163,-0.626 0,0" style="fill:#ffc400;fill-opacity:1;fill-rule:nonzero;stroke:none"/></g><g id="g26" transform="translate(19.0898,21.6459)"><path id="path28" d="m 0,0 1.763,1.281 -2.179,0 -0.674,2.073 -0.673,-2.073 -2.18,0 L -2.18,0 -2.853,-2.073 -1.09,-0.792 0.674,-2.073 0,0 Z" style="fill:#ffc400;fill-opacity:1;fill-rule:nonzero;stroke:none"/></g></g></g></g></svg>