<svg xmlns="http://www.w3.org/2000/svg" xmlns:svg="http://www.w3.org/2000/svg" style="enable-background:new 0 0 45 45" id="svg2" version="1.1" viewBox="0 0 45 45" xml:space="preserve"><metadata id="metadata8"/><defs id="defs6"><clipPath id="clipPath16" clipPathUnits="userSpaceOnUse"><path id="path18" d="M 0,36 36,36 36,0 0,0 0,36 Z"/></clipPath></defs><g id="g10" transform="matrix(1.25,0,0,-1.25,0,45)"><g id="g12"><g id="g14" clip-path="url(#clipPath16)"><g id="g20" transform="translate(36,9)"><path id="path22" d="m 0,0 c 0,-2.209 -1.791,-4 -4,-4 l -28,0 c -2.209,0 -4,1.791 -4,4 l 0,18 c 0,2.209 1.791,4 4,4 l 28,0 c 2.209,0 4,-1.791 4,-4 L 0,0 Z" style="fill:#265fb5;fill-opacity:1;fill-rule:nonzero;stroke:none"/></g><path id="path24" d="M 36,13 0,13 0,23 36,23 36,13 Z" style="fill:#eee;fill-opacity:1;fill-rule:nonzero;stroke:none"/><g id="g26" transform="translate(22.5566,18)"><path id="path28" d="m 0,0 c 0,-2.517 -2.04,-4.557 -4.557,-4.557 -2.516,0 -4.557,2.04 -4.557,4.557 0,2.517 2.041,4.557 4.557,4.557 C -2.04,4.557 0,2.517 0,0" style="fill:#a9bf4c;fill-opacity:1;fill-rule:nonzero;stroke:none"/></g><g id="g30" transform="translate(22,18)"><path id="path32" d="m 0,0 c 0,-2.209 -1.791,-4 -4,-4 -2.209,0 -4,1.791 -4,4 0,2.209 1.791,4 4,4 2.209,0 4,-1.791 4,-4" style="fill:#eee;fill-opacity:1;fill-rule:nonzero;stroke:none"/></g><g id="g34" transform="translate(14.7578,15.8447)"><path id="path36" d="M 0,0 3.228,5.591 6.456,0 0,0 Z" style="fill:#265fb5;fill-opacity:1;fill-rule:nonzero;stroke:none"/></g><g id="g38" transform="translate(15.1162,16.0615)"><path id="path40" d="M 0,0 2.87,4.97 5.739,0 0,0 Z" style="fill:#55acee;fill-opacity:1;fill-rule:nonzero;stroke:none"/></g><g id="g42" transform="translate(15.1162,16.0615)"><path id="path44" d="M 0,0 0.692,1.199 5.015,1.254 5.739,0 0,0 Z" style="fill:#bbddf5;fill-opacity:1;fill-rule:nonzero;stroke:none"/></g><g id="g46" transform="translate(15.6719,16.8437)"><path id="path48" d="M 0,0 1.078,0.875 1.547,0.344 1.953,0.781 2.297,0.437 2.625,0.797 3.016,0.437 3.375,0.812 3.703,0.437 4.016,0.781 4.531,0.141 4.625,-0.047 c 0,0 -0.547,-0.109 -1.297,-0.047 -0.75,0.063 -1.187,-0.109 -1.781,-0.187 -0.594,-0.078 -1.656,0.078 -1.656,0.078 L 0,0 Z" style="fill:#5c913b;fill-opacity:1;fill-rule:nonzero;stroke:none"/></g><g id="g50" transform="translate(16.7344,17.5312)"><path id="path52" d="M 0,0 0.719,-0.781 0.359,-0.812 -0.047,-0.219 0,0 Z" style="fill:#e2f09f;fill-opacity:1;fill-rule:nonzero;stroke:none"/></g><g id="g54" transform="translate(17.5938,17.4687)"><path id="path56" d="M 0,0 0.578,-0.516 0.312,-0.562 0.031,-0.172 0,0 Z" style="fill:#e2f09f;fill-opacity:1;fill-rule:nonzero;stroke:none"/></g><g id="g58" transform="translate(18.3281,17.5)"><path id="path60" d="M 0,0 0.5,-0.469 0.375,-0.547 -0.031,-0.109 0,0 Z" style="fill:#e2f09f;fill-opacity:1;fill-rule:nonzero;stroke:none"/></g><g id="g62" transform="translate(18.9844,17.5)"><path id="path64" d="M 0,0 -0.203,-0.187 -0.109,-0.297 0,0 Z" style="fill:#e2f09f;fill-opacity:1;fill-rule:nonzero;stroke:none"/></g><g id="g66" transform="translate(19.6094,17.4844)"><path id="path68" d="m 0,0 -0.234,-0.297 0.078,-0.14 0.172,0.328 L 0,0 Z" style="fill:#e2f09f;fill-opacity:1;fill-rule:nonzero;stroke:none"/></g><g id="g70" transform="translate(18.0313,19.5703)"><path id="path72" d="m 0,0 0.066,-0.93 0.532,0.764 -0.399,-0.83 0.83,0.398 -0.763,-0.531 0.929,-0.066 -0.929,-0.067 0.763,-0.531 -0.83,0.398 0.399,-0.83 -0.532,0.764 -0.066,-0.93 -0.066,0.93 -0.532,-0.764 0.399,0.83 -0.83,-0.398 0.763,0.531 -0.929,0.067 0.929,0.066 -0.763,0.531 0.83,-0.398 -0.399,0.83 L -0.066,-0.93 0,0 Z" style="fill:#bbddf5;fill-opacity:1;fill-rule:nonzero;stroke:none"/></g><g id="g74" transform="translate(18,18.7969)"><path id="path76" d="m 0,0 -0.187,-0.187 c 0,0 0.046,-0.282 0.031,-0.329 C -0.172,-0.562 0,-0.797 0,-0.797 L 0.234,-0.516 0.172,-0.141 0,0 Z" style="fill:#dd2e44;fill-opacity:1;fill-rule:nonzero;stroke:none"/></g><g id="g78" transform="translate(18.0938,19.125)"><path id="path80" d="m 0,0 c 0.766,0 1.203,-0.375 1.203,-0.375 l -0.281,0.5 c 0,0 -0.453,0.344 -0.984,0.344 -0.532,0 -1.125,-0.422 -1.125,-0.422 L -1.453,-0.484 C -1.453,-0.484 -0.766,0 0,0" style="fill:#269;fill-opacity:1;fill-rule:nonzero;stroke:none"/></g><g id="g82" transform="translate(18.0938,19.125)"><path id="path84" d="M 0,0 C 0.766,0 1.203,-0.375 1.203,-0.375 L 1,-0.016 c 0,0 -0.547,0.328 -1.078,0.328 -0.531,0 -1.188,-0.421 -1.188,-0.421 L -1.453,-0.484 C -1.453,-0.484 -0.766,0 0,0" style="fill:#ffcc4d;fill-opacity:1;fill-rule:nonzero;stroke:none"/></g><g id="g86" transform="translate(18.0938,19.125)"><path id="path88" d="m 0,0 c 0.766,0 1.203,-0.375 1.203,-0.375 l -0.141,0.234 c 0,0 -0.421,0.297 -1.14,0.266 -0.531,0 -1.266,-0.391 -1.266,-0.391 L -1.453,-0.484 C -1.453,-0.484 -0.766,0 0,0" style="fill:#dd2e44;fill-opacity:1;fill-rule:nonzero;stroke:none"/></g><path id="path90" d="m 18.583,13.298 -0.996,0 0,0.955 0.996,0 0,-0.955 z" style="fill:#eee;fill-opacity:1;fill-rule:nonzero;stroke:none"/><g id="g92" transform="translate(17.4282,21.6577)"><path id="path94" d="M 0,0 -0.716,0 -1.075,0.876 -0.358,0.956 0,0 Z" style="fill:#eee;fill-opacity:1;fill-rule:nonzero;stroke:none"/></g><g id="g96" transform="translate(19.0605,21.2598)"><path id="path98" d="M 0,0 -0.477,0.159 -0.239,1.314 0.677,1.234 0,0 Z" style="fill:#eee;fill-opacity:1;fill-rule:nonzero;stroke:none"/></g><g id="g100" transform="translate(14.7612,16.3633)"><path id="path102" d="M 0,0 -1.393,-0.318 -1.433,0.637 -0.04,0.836 0,0 Z" style="fill:#eee;fill-opacity:1;fill-rule:nonzero;stroke:none"/></g><g id="g104" transform="translate(15.1196,15.3682)"><path id="path106" d="M 0,0 -1.155,-0.479 -1.433,0.278 -0.358,0.637 0,0 Z" style="fill:#eee;fill-opacity:1;fill-rule:nonzero;stroke:none"/></g><g id="g108" transform="translate(22.8027,16.2432)"><path id="path110" d="m 0,0 -1.273,0.358 0,0.677 L 0.159,1.234 0,0 Z" style="fill:#eee;fill-opacity:1;fill-rule:nonzero;stroke:none"/></g><g id="g112" transform="translate(22.166,14.9297)"><path id="path114" d="M 0,0 -1.194,0.558 -0.797,1.274 0.518,0.876 0,0 Z" style="fill:#eee;fill-opacity:1;fill-rule:nonzero;stroke:none"/></g></g></g></g></svg>