<svg xmlns="http://www.w3.org/2000/svg" xmlns:svg="http://www.w3.org/2000/svg" style="enable-background:new 0 0 45 45" id="svg2" version="1.1" viewBox="0 0 45 45" xml:space="preserve"><metadata id="metadata8"/><defs id="defs6"><clipPath id="clipPath16" clipPathUnits="userSpaceOnUse"><path id="path18" d="M 4,31 C 1.791,31 0,29.209 0,27 L 0,27 0,9 C 0,6.791 1.791,5 4,5 l 0,0 28,0 c 2.209,0 4,1.791 4,4 l 0,0 0,18 c 0,2.209 -1.791,4 -4,4 l 0,0 -28,0 z"/></clipPath><clipPath id="clipPath44" clipPathUnits="userSpaceOnUse"><path id="path46" d="M 0,36 36,36 36,0 0,0 0,36 Z"/></clipPath></defs><g id="g10" transform="matrix(1.25,0,0,-1.25,0,45)"><g id="g12"><g id="g14" clip-path="url(#clipPath16)"><g id="g20" transform="translate(16,31)"><path id="path22" d="m 0,0 0,-11 -16,0 0,-15 36,0 0,26 -20,0 z" style="fill:#ed2939;fill-opacity:1;fill-rule:nonzero;stroke:none"/></g><g id="g24" transform="translate(24.3799,13.6799)"><path id="path26" d="M 0,0 6.24,0 3.12,3.12 0,0 Z" style="fill:#fff;fill-opacity:1;fill-rule:nonzero;stroke:none"/></g><g id="g28" transform="translate(30.6201,22)"><path id="path30" d="M 0,0 -6.24,0 -3.12,-3.12 0,0 Z" style="fill:#fff;fill-opacity:1;fill-rule:nonzero;stroke:none"/></g><g id="g32" transform="translate(31.66,14.72)"><path id="path34" d="M 0,0 0,6.24 -3.12,3.12 0,0 Z" style="fill:#fff;fill-opacity:1;fill-rule:nonzero;stroke:none"/></g><g id="g36" transform="translate(23.34,20.96)"><path id="path38" d="M 0,0 0,-6.24 3.12,-3.12 0,0 Z" style="fill:#fff;fill-opacity:1;fill-rule:nonzero;stroke:none"/></g></g></g><g id="g40"><g id="g42" clip-path="url(#clipPath44)"><g id="g48" transform="translate(6,19)"><path id="path50" d="m 0,0 -6,0 0,8 c 0,2.209 1.791,4 4,4 L 0,12 0,0 Z" style="fill:#002395;fill-opacity:1;fill-rule:nonzero;stroke:none"/></g><g id="g52" transform="translate(6,31)"><path id="path54" d="m 0,0 0,-12 -6,0 0,-1 19,0 0,13 -13,0 z" style="fill:#eee;fill-opacity:1;fill-rule:nonzero;stroke:none"/></g><path id="path56" d="m 18,19 -6,0 0,12 6,0 0,-12 z" style="fill:#ed2939;fill-opacity:1;fill-rule:nonzero;stroke:none"/><path id="path58" d="m 12,19 -6,0 0,12 6,0 0,-12 z" style="fill:#eee;fill-opacity:1;fill-rule:nonzero;stroke:none"/></g></g></g></svg>