<svg xmlns="http://www.w3.org/2000/svg" xmlns:svg="http://www.w3.org/2000/svg" style="enable-background:new 0 0 45 45" id="svg2" version="1.1" viewBox="0 0 45 45" xml:space="preserve"><metadata id="metadata8"/><defs id="defs6"><clipPath id="clipPath16" clipPathUnits="userSpaceOnUse"><path id="path18" d="M 0,36 36,36 36,0 0,0 0,36 Z"/></clipPath><clipPath id="clipPath32" clipPathUnits="userSpaceOnUse"><path id="path34" d="M 4,31 C 1.791,31 0,29.209 0,27 L 0,27 0,9 C 0,6.791 1.791,5 4,5 l 0,0 28,0 c 2.209,0 4,1.791 4,4 l 0,0 0,18 c 0,2.209 -1.791,4 -4,4 l 0,0 -28,0 z"/></clipPath><clipPath id="clipPath48" clipPathUnits="userSpaceOnUse"><path id="path50" d="M 0,36 36,36 36,0 0,0 0,36 Z"/></clipPath></defs><g id="g10" transform="matrix(1.25,0,0,-1.25,0,45)"><g id="g12"><g id="g14" clip-path="url(#clipPath16)"><g id="g20" transform="translate(36,9)"><path id="path22" d="m 0,0 c 0,-2.209 -1.791,-4 -4,-4 l -28,0 c -2.209,0 -4,1.791 -4,4 l 0,18 c 0,2.209 1.791,4 4,4 l 28,0 c 2.209,0 4,-1.791 4,-4 L 0,0 Z" style="fill:#003580;fill-opacity:1;fill-rule:nonzero;stroke:none"/></g><g id="g24" transform="translate(1.0669,6.2988)"><path id="path26" d="m 0,0 c 0.731,-0.794 1.769,-1.299 2.933,-1.299 l 28,0 c 2.209,0 4,1.791 4,4 l 0,18 c 0,1.018 -0.392,1.937 -1.018,2.643 L 0,0 Z" style="fill:#009543;fill-opacity:1;fill-rule:nonzero;stroke:none"/></g></g></g><g id="g28"><g id="g30" clip-path="url(#clipPath32)"><g id="g36" transform="translate(44.2959,32.75)"><path id="path38" d="M 0,0 -49.149,-34.414 -52.591,-29.5 -3.441,4.915 0,0 Z" style="fill:#eee;fill-opacity:1;fill-rule:nonzero;stroke:none"/></g><g id="g40" transform="translate(43.7217,33.5684)"><path id="path42" d="m 0,0 -49.148,-34.415 -2.263,3.231 L -2.261,3.231 0,0 Z" style="fill:#d20f34;fill-opacity:1;fill-rule:nonzero;stroke:none"/></g></g></g><g id="g44"><g id="g46" clip-path="url(#clipPath48)"><g id="g52" transform="translate(8,28)"><path id="path54" d="M 0,0 0.809,-1.981 2.5,-0.67 2.21,-2.79 4.33,-2.5 3.019,-4.191 5,-5 3.019,-5.809 4.33,-7.5 2.21,-7.21 2.5,-9.33 0.809,-8.019 0,-10 -0.809,-8.019 -2.5,-9.33 -2.21,-7.21 -4.33,-7.5 -3.019,-5.809 -5,-5 -3.019,-4.191 -4.33,-2.5 -2.21,-2.79 -2.5,-0.67 -0.809,-1.981 0,0 Z" style="fill:#ffce00;fill-opacity:1;fill-rule:nonzero;stroke:none"/></g><g id="g56" transform="translate(11.1748,23)"><path id="path58" d="m 0,0 c 0,-1.753 -1.421,-3.175 -3.175,-3.175 -1.753,0 -3.175,1.422 -3.175,3.175 0,1.753 1.422,3.175 3.175,3.175 C -1.421,3.175 0,1.753 0,0" style="fill:#004a77;fill-opacity:1;fill-rule:nonzero;stroke:none"/></g><g id="g60" transform="translate(10.4668,23)"><path id="path62" d="m 0,0 c 0,-1.362 -1.104,-2.467 -2.467,-2.467 -1.362,0 -2.467,1.105 -2.467,2.467 0,1.362 1.105,2.467 2.467,2.467 C -1.104,2.467 0,1.362 0,0" style="fill:#ffce00;fill-opacity:1;fill-rule:nonzero;stroke:none"/></g></g></g></g></svg>