<svg xmlns="http://www.w3.org/2000/svg" xmlns:svg="http://www.w3.org/2000/svg" style="enable-background:new 0 0 45 45" id="svg2" version="1.1" viewBox="0 0 45 45" xml:space="preserve"><metadata id="metadata8"/><defs id="defs6"><clipPath id="clipPath16" clipPathUnits="userSpaceOnUse"><path id="path18" d="M 0,36 36,36 36,0 0,0 0,36 Z"/></clipPath></defs><g id="g10" transform="matrix(1.25,0,0,-1.25,0,45)"><g id="g12"><g id="g14" clip-path="url(#clipPath16)"><g id="g20" transform="translate(0,9)"><path id="path22" d="m 0,0 c 0,-2.209 1.791,-4 4,-4 l 28,0 c 2.209,0 4,1.791 4,4 L 36,1 0,1 0,0 Z" style="fill:#377e3f;fill-opacity:1;fill-rule:nonzero;stroke:none"/></g><path id="path24" d="m 0,10 36,0 0,3 -36,0 0,-3 z" style="fill:#eee;fill-opacity:1;fill-rule:nonzero;stroke:none"/><g id="g26" transform="translate(32,31)"><path id="path28" d="m 0,0 -28,0 c -2.209,0 -4,-1.791 -4,-4 l 0,-1 36,0 0,1 C 4,-1.791 2.209,0 0,0" style="fill:#377e3f;fill-opacity:1;fill-rule:nonzero;stroke:none"/></g><path id="path30" d="m 0,23 36,0 0,3 -36,0 0,-3 z" style="fill:#eee;fill-opacity:1;fill-rule:nonzero;stroke:none"/><g id="g32" transform="translate(16.8325,19.1104)"><path id="path34" d="M 0,0 1.167,3.593 2.335,0 6.113,0 3.056,-2.221 4.224,-5.814 1.167,-3.593 -1.889,-5.814 -0.721,-2.221 -3.778,0 0,0 Z m -16.833,-6.11 36,0 0,10 -36,0 0,-10 z" style="fill:#b40a2d;fill-opacity:1;fill-rule:nonzero;stroke:none"/></g><g id="g36" transform="translate(14.9435,13.2966)"><path id="path38" d="M 0,0 3.056,2.221 6.113,0 4.945,3.593 8.002,5.814 4.224,5.814 3.056,9.407 1.889,5.814 -1.889,5.814 1.167,3.593 0,0 Z" style="fill:#ecc81d;fill-opacity:1;fill-rule:nonzero;stroke:none"/></g></g></g></g></svg>