<svg xmlns="http://www.w3.org/2000/svg" xmlns:svg="http://www.w3.org/2000/svg" style="enable-background:new 0 0 45 45" id="svg2" version="1.1" viewBox="0 0 45 45" xml:space="preserve"><metadata id="metadata8"/><defs id="defs6"><clipPath id="clipPath16" clipPathUnits="userSpaceOnUse"><path id="path18" d="M 4,31 C 1.791,31 0,29.209 0,27 L 0,27 0,9 C 0,6.791 1.791,5 4,5 l 0,0 28,0 c 2.209,0 4,1.791 4,4 l 0,0 0,18 c 0,2.209 -1.791,4 -4,4 l 0,0 -28,0 z"/></clipPath></defs><g id="g10" transform="matrix(1.25,0,0,-1.25,0,45)"><g id="g12"><g id="g14" clip-path="url(#clipPath16)"><g id="g20" transform="translate(0,5)"><path id="path22" d="M 0,0 24.99,0 0,26 0,0 Z" style="fill:#ce1126;fill-opacity:1;fill-rule:nonzero;stroke:none"/></g><g id="g24" transform="translate(11.0103,31)"><path id="path26" d="m 0,0 24.99,-26 0,26 L 0,0 Z" style="fill:#ce1126;fill-opacity:1;fill-rule:nonzero;stroke:none"/></g><g id="g28" transform="translate(0,31)"><path id="path30" d="m 0,0 24.99,-26 1.835,0 L 1.835,0 0,0 Z" style="fill:#eee;fill-opacity:1;fill-rule:nonzero;stroke:none"/></g><g id="g32" transform="translate(9.1753,31)"><path id="path34" d="m 0,0 24.99,-26 1.835,0 L 1.835,0 0,0 Z" style="fill:#eee;fill-opacity:1;fill-rule:nonzero;stroke:none"/></g><g id="g36" transform="translate(1.8351,31)"><path id="path38" d="m 0,0 24.99,-26 7.34,0 L 7.34,0 0,0 Z" style="fill:#141414;fill-opacity:1;fill-rule:nonzero;stroke:none"/></g></g></g></g></svg>