<svg xmlns="http://www.w3.org/2000/svg" xmlns:svg="http://www.w3.org/2000/svg" style="enable-background:new 0 0 45 45" id="svg2" version="1.1" viewBox="0 0 45 45" xml:space="preserve"><metadata id="metadata8"/><defs id="defs6"><clipPath id="clipPath16" clipPathUnits="userSpaceOnUse"><path id="path18" d="M 0,36 36,36 36,0 0,0 0,36 Z"/></clipPath><clipPath id="clipPath144" clipPathUnits="userSpaceOnUse"><path id="path146" d="M 4,31 C 1.791,31 0,29.209 0,27 l 0,0 0,-9 19,0 0,13 -15,0 z"/></clipPath><clipPath id="clipPath160" clipPathUnits="userSpaceOnUse"><path id="path162" d="M 0,36 36,36 36,0 0,0 0,36 Z"/></clipPath></defs><g id="g10" transform="matrix(1.25,0,0,-1.25,0,45)"><g id="g12"><g id="g14" clip-path="url(#clipPath16)"><g id="g20" transform="translate(36,9)"><path id="path22" d="m 0,0 c 0,-2.209 -1.791,-4 -4,-4 l -28,0 c -2.209,0 -4,1.791 -4,4 l 0,18 c 0,2.209 1.791,4 4,4 l 28,0 c 2.209,0 4,-1.791 4,-4 L 0,0 Z" style="fill:#00247d;fill-opacity:1;fill-rule:nonzero;stroke:none"/></g><g id="g24" transform="translate(28.1563,24)"><path id="path26" d="m 0,0 -5.156,0 0,-3.726 c 0,-5.18 2.886,-7.072 5.156,-8.305 2.27,1.233 4.802,3.125 4.802,8.305 L 4.802,0 0,0 Z" style="fill:#fff;fill-opacity:1;fill-rule:nonzero;stroke:none"/></g><g id="g28" transform="translate(28.1563,12.5703)"><path id="path30" d="m 0,0 c -2.202,1.23 -4.739,3.008 -4.739,7.704 l 0,3.059 9.196,0 0,-3.059 C 4.457,3.008 2.202,1.23 0,0" style="fill:#fec400;fill-opacity:1;fill-rule:nonzero;stroke:none"/></g><g id="g32" transform="translate(29.9531,15.0156)"><path id="path34" d="m 0,0 c -0.062,0.547 -0.516,2.266 -1.047,2.781 -0.531,0.516 -0.75,0.118 -0.75,0.118 0,0 -0.219,0.398 -0.75,-0.118 C -3.078,2.266 -3.531,0.547 -3.594,0 c -0.062,-0.547 0.063,-0.672 0.344,-0.672 0.125,-0.265 0.609,-0.312 0.609,-0.312 0,0 0.547,-0.36 0.844,0 0.297,-0.36 0.844,0 0.844,0 0,0 0.484,0.047 0.609,0.312 0.282,0 0.406,0.125 0.344,0.672" style="fill:#00a728;fill-opacity:1;fill-rule:nonzero;stroke:none"/></g><g id="g36" transform="translate(28.9531,18.4238)"><path id="path38" d="m 0,0 c 0,-0.476 0.126,-0.861 -0.781,-0.861 -0.907,0 -0.781,0.385 -0.781,0.861 0,0.476 0.349,0.862 0.781,0.862 C -0.35,0.862 0,0.476 0,0" style="fill:#f0082d;fill-opacity:1;fill-rule:nonzero;stroke:none"/></g><g id="g40" transform="translate(26.4844,19.0469)"><path id="path42" d="m 0,0 c -0.25,-0.422 -0.641,-0.125 -0.812,0.375 -0.172,0.5 -0.86,0.641 -1.11,0.781 -0.25,0.141 -0.312,0.375 0,0.547 0.313,0.172 0.125,0.391 0.344,0.453 -0.281,0.063 -0.533,-0.093 -0.556,0 -0.022,0.094 0.197,0.355 0.556,0.396 -0.297,0.37 -0.125,1.151 0,1.167 C -1.453,3.734 -1.197,3.5 -1.067,3.266 -0.937,3.031 -0.562,3.078 -0.594,2.75 -0.516,2.672 -0.25,2.719 0,2.313 0.25,1.906 0,0 0,0" style="fill:#ff9f3e;fill-opacity:1;fill-rule:nonzero;stroke:none"/></g><g id="g44" transform="translate(26.5957,19.1094)"><path id="path46" d="m 0,0 c -0.355,-0.027 -0.486,0.281 -0.549,0.734 -0.062,0.453 -0.703,0.284 -0.406,0.963 0.297,0.678 0.408,0.267 0.438,0.793 0.031,0.526 0.203,0.963 0.359,0.963 0.156,0 0.359,-0.484 0.437,-0.687 C 0.357,2.563 0.658,2.609 0.789,1.906 0.92,1.203 0.764,0.687 0.592,0.531 0.42,0.375 0.342,0.352 0.311,0.176 0.279,0 0.232,0.018 0,0" style="fill:#ff927f;fill-opacity:1;fill-rule:nonzero;stroke:none"/></g><g id="g48" transform="translate(26.5957,22.0937)"><path id="path50" d="M 0,0 C 0.107,-0.078 0.111,-0.187 0,-0.375 -0.111,-0.562 0.072,-0.75 0.082,-1.062 0.092,-1.375 -0.07,-1.484 -0.036,-1.641 -0.002,-1.797 0.248,-2.094 0.217,-2.453 0.186,-2.813 0.111,-2.922 0,-2.984 c -0.111,-0.063 -0.064,0.187 -0.041,0.421 0.023,0.235 -0.133,0.5 -0.211,0.735 -0.078,0.234 0.106,0.406 0.154,0.641 0.049,0.234 -0.076,0.448 -0.091,0.692 C -0.205,-0.25 0,0 0,0" style="fill:#fe9de0;fill-opacity:1;fill-rule:nonzero;stroke:none"/></g><g id="g52" transform="translate(30.2188,21.5)"><path id="path54" d="M 0,0 C 0.047,0.344 0.031,0.875 -0.078,1.062 -0.187,1.25 -0.359,1.359 -0.25,1.391 -0.141,1.422 0.375,0.875 0.094,-0.234 -0.187,-1.344 0,0 0,0" style="fill:#ba5b1f;fill-opacity:1;fill-rule:nonzero;stroke:none"/></g><g id="g56" transform="translate(30.1641,21.5957)"><path id="path58" d="m 0,0 c -0.211,0.123 -0.484,0.436 -0.457,0.607 0.027,0.172 0.23,0.485 0.262,0.422 0.031,-0.062 -0.094,-0.256 0,-0.51 0.093,-0.255 0.139,-0.27 0.266,-0.44 C 0.198,-0.091 0,0 0,0" style="fill:#ba5b1f;fill-opacity:1;fill-rule:nonzero;stroke:none"/></g><g id="g60" transform="translate(30.0488,21.3594)"><path id="path62" d="M 0,0 C -0.126,0.152 -1.518,1.047 -1.377,1.109 -1.236,1.172 -0.039,0.422 0.151,0 0.342,-0.422 0,0 0,0" style="fill:#ba5b1f;fill-opacity:1;fill-rule:nonzero;stroke:none"/></g><g id="g64" transform="translate(29.9688,21.0937)"><path id="path66" d="M 0,0 C -0.509,0.505 -1.766,0.594 -1.703,0.672 -1.641,0.75 -0.029,0.602 0.196,0.137 0.422,-0.328 0,0 0,0" style="fill:#ba5b1f;fill-opacity:1;fill-rule:nonzero;stroke:none"/></g><g id="g68" transform="translate(29.9336,20.8267)"><path id="path70" d="M 0,0 C -0.574,0.298 -1.578,0.361 -1.67,0.345 -1.762,0.329 -0.701,0.643 0.058,0.174 0.816,-0.296 0,0 0,0" style="fill:#ba5b1f;fill-opacity:1;fill-rule:nonzero;stroke:none"/></g><g id="g72" transform="translate(29.9688,20.4062)"><path id="path74" d="M 0,0 C -0.594,0.266 -1.469,0.187 -1.625,0.094 -1.781,0 -1.172,0.447 -0.75,0.403 -0.328,0.359 0.08,0.271 0.196,0.19 0.312,0.109 0.207,-0.093 0,0" style="fill:#ba5b1f;fill-opacity:1;fill-rule:nonzero;stroke:none"/></g><g id="g76" transform="translate(30.3145,21.5991)"><path id="path78" d="m 0,0 c -0.072,0.384 -0.073,0.708 -0.588,0.669 -0.515,-0.039 -0.607,-1.003 -0.479,-2.346 0.128,-1.344 -0.029,-1.784 -0.052,-1.861 -0.024,-0.077 0.287,0.267 0.265,0.861 -0.023,0.593 -0.154,1.899 -0.112,2.379 0.042,0.48 0.276,0.84 0.585,0.746 0.31,-0.095 0.24,-0.336 0.232,-0.629 C -0.158,-0.474 0,0 0,0" style="fill:#ba5b1f;fill-opacity:1;fill-rule:nonzero;stroke:none"/></g><g id="g80" transform="translate(30.6563,19.0996)"><path id="path82" d="M 0,0 C 0,0 0.156,0.088 0.359,1.15 0.562,2.213 0.125,2.666 -0.266,2.666 -0.656,2.666 -1.094,2.213 -0.891,1.15 -0.687,0.088 -0.531,0 -0.531,0 c 0,0 -0.479,-0.455 -0.411,-0.676 0.067,-0.22 0.676,-0.225 0.676,-0.225 0,0 0.61,0.005 0.677,0.225 C 0.479,-0.455 0,0 0,0" style="fill:#ba5b1f;fill-opacity:1;fill-rule:nonzero;stroke:none"/></g><g id="g84" transform="translate(30.5674,21.5)"><path id="path86" d="M 0,0 C -0.047,0.344 -0.031,0.875 0.078,1.062 0.187,1.25 0.359,1.359 0.25,1.391 0.141,1.422 -0.375,0.875 -0.094,-0.234 0.187,-1.344 0,0 0,0" style="fill:#ba5b1f;fill-opacity:1;fill-rule:nonzero;stroke:none"/></g><g id="g88" transform="translate(30.6221,21.5957)"><path id="path90" d="M 0,0 C 0.211,0.123 0.484,0.436 0.457,0.607 0.43,0.779 0.227,1.092 0.195,1.029 0.164,0.967 0.289,0.773 0.195,0.519 0.102,0.264 0.056,0.249 -0.071,0.079 -0.198,-0.091 0,0 0,0" style="fill:#ba5b1f;fill-opacity:1;fill-rule:nonzero;stroke:none"/></g><g id="g92" transform="translate(30.7373,21.3594)"><path id="path94" d="M 0,0 C 0.126,0.152 1.518,1.047 1.377,1.109 1.236,1.172 0.039,0.422 -0.151,0 -0.342,-0.422 0,0 0,0" style="fill:#ba5b1f;fill-opacity:1;fill-rule:nonzero;stroke:none"/></g><g id="g96" transform="translate(30.8174,21.0937)"><path id="path98" d="M 0,0 C 0.509,0.505 1.766,0.594 1.703,0.672 1.641,0.75 0.029,0.602 -0.196,0.137 -0.422,-0.328 0,0 0,0" style="fill:#ba5b1f;fill-opacity:1;fill-rule:nonzero;stroke:none"/></g><g id="g100" transform="translate(30.8525,20.8267)"><path id="path102" d="M 0,0 C 0.574,0.298 1.578,0.361 1.67,0.345 1.762,0.329 0.701,0.643 -0.058,0.174 -0.816,-0.296 0,0 0,0" style="fill:#ba5b1f;fill-opacity:1;fill-rule:nonzero;stroke:none"/></g><g id="g104" transform="translate(30.8174,20.4062)"><path id="path106" d="M 0,0 C 0.594,0.266 1.469,0.187 1.625,0.094 1.781,0 1.172,0.447 0.75,0.403 0.328,0.359 -0.08,0.271 -0.196,0.19 -0.312,0.109 -0.207,-0.093 0,0" style="fill:#ba5b1f;fill-opacity:1;fill-rule:nonzero;stroke:none"/></g><g id="g108" transform="translate(30.4717,21.5991)"><path id="path110" d="M 0,0 C 0.072,0.384 0.073,0.708 0.588,0.669 1.103,0.63 1.195,-0.334 1.067,-1.677 0.939,-3.021 1.096,-3.461 1.119,-3.538 1.143,-3.615 0.832,-3.271 0.855,-2.677 0.877,-2.084 1.008,-0.778 0.966,-0.298 0.924,0.182 0.69,0.542 0.381,0.448 0.071,0.353 0.141,0.112 0.149,-0.181 0.158,-0.474 0,0 0,0" style="fill:#ba5b1f;fill-opacity:1;fill-rule:nonzero;stroke:none"/></g><g id="g112" transform="translate(19,31)"><path id="path114" d="m 0,0 -15,0 c -2.209,0 -4,-1.791 -4,-4 l 0,-9 19,0 0,13 z" style="fill:#00247d;fill-opacity:1;fill-rule:nonzero;stroke:none"/></g><g id="g116" transform="translate(19,18)"><path id="path118" d="M 0,0 0,2.029 -7.1,7 -12.329,7 -2.332,0 0,0 Z" style="fill:#eee;fill-opacity:1;fill-rule:nonzero;stroke:none"/></g><g id="g120" transform="translate(19,19.418)"><path id="path122" d="m 0,0 -7.971,5.582 -1.743,0 L 0,-1.22 0,0 Z" style="fill:#cf1b2b;fill-opacity:1;fill-rule:nonzero;stroke:none"/></g><g id="g124" transform="translate(8.0996,25)"><path id="path126" d="M 0,0 -8.1,-5.766 -8.1,-7 -4.768,-7 5.23,0 0,0 Z" style="fill:#eee;fill-opacity:1;fill-rule:nonzero;stroke:none"/></g><g id="g128" transform="translate(10.7139,25)"><path id="path130" d="m 0,0 -9.98,-7 0.266,0 1.461,0 L 1.744,0 0,0 Z" style="fill:#cf1b2b;fill-opacity:1;fill-rule:nonzero;stroke:none"/></g><g id="g132" transform="translate(16.6689,31)"><path id="path134" d="m 0,0 -9.997,-7 5.229,0 7.099,4.97 0,2.03 L 0,0 Z" style="fill:#eee;fill-opacity:1;fill-rule:nonzero;stroke:none"/></g><g id="g136" transform="translate(17.5391,31)"><path id="path138" d="m 0,0 -9.997,-7 1.744,0 9.714,6.802 L 1.461,0 0,0 Z" style="fill:#cf1b2b;fill-opacity:1;fill-rule:nonzero;stroke:none"/></g></g></g><g id="g140"><g id="g142" clip-path="url(#clipPath144)"><g id="g148" transform="translate(10,24)"><path id="path150" d="M 0,0 3.329,0 -6.668,7 -9,7 -9.625,5.406 0,-1.331 0,0 Z" style="fill:#eee;fill-opacity:1;fill-rule:nonzero;stroke:none"/></g><g id="g152" transform="translate(10,24)"><path id="path154" d="M 0,0 0.714,0 -9,6.802 -9.5,5.937 0,-0.722 0,0 Z" style="fill:#cf1b2b;fill-opacity:1;fill-rule:nonzero;stroke:none"/></g></g></g><g id="g156"><g id="g158" clip-path="url(#clipPath160)"><g id="g164" transform="translate(19,27)"><path id="path166" d="m 0,0 -7,0 0,4 -5,0 0,-4 -7,0 0,-5 7,0 0,-4 5,0 0,4 7,0 0,5 z" style="fill:#eee;fill-opacity:1;fill-rule:nonzero;stroke:none"/></g><path id="path168" d="m 11,18 -3,0 0,13 3,0 0,-13 z" style="fill:#cf1b2b;fill-opacity:1;fill-rule:nonzero;stroke:none"/><path id="path170" d="m 19,23 -19,0 0,3 19,0 0,-3 z" style="fill:#cf1b2b;fill-opacity:1;fill-rule:nonzero;stroke:none"/></g></g></g></svg>