<svg xmlns="http://www.w3.org/2000/svg" xmlns:svg="http://www.w3.org/2000/svg" style="enable-background:new 0 0 45 45" id="svg2" version="1.1" viewBox="0 0 45 45" xml:space="preserve"><metadata id="metadata8"/><defs id="defs6"><clipPath id="clipPath16" clipPathUnits="userSpaceOnUse"><path id="path18" d="M 4,31 C 1.791,31 0,29.209 0,27 L 0,27 0,9 C 0,6.791 1.791,5 4,5 l 0,0 28,0 c 2.209,0 4,1.791 4,4 l 0,0 0,18 c 0,2.209 -1.791,4 -4,4 l 0,0 -28,0 z"/></clipPath></defs><g id="g10" transform="matrix(1.25,0,0,-1.25,0,45)"><g id="g12"><g id="g14" clip-path="url(#clipPath16)"><path id="path20" d="M 0,5 36,5 36,31 0,31 0,5 Z" style="fill:#da251d;fill-opacity:1;fill-rule:nonzero;stroke:none"/></g></g><g id="g22" transform="translate(19.7527,19.9635)"><path id="path24" d="M 0,0 -1.753,5.394 -3.505,0 -9.177,0 -4.589,-3.334 -6.341,-8.728 -1.753,-5.394 2.836,-8.728 1.083,-3.334 5.672,0 0,0 Z" style="fill:#ff0;fill-opacity:1;fill-rule:nonzero;stroke:none"/></g></g></svg>