<svg xmlns="http://www.w3.org/2000/svg" xmlns:svg="http://www.w3.org/2000/svg" style="enable-background:new 0 0 45 45" id="svg2" version="1.1" viewBox="0 0 45 45" xml:space="preserve"><metadata id="metadata8"/><defs id="defs6"><clipPath id="clipPath16" clipPathUnits="userSpaceOnUse"><path id="path18" d="M 4,31 C 1.791,31 0,29.209 0,27 L 0,27 0,9 C 0,6.791 1.791,5 4,5 l 0,0 28,0 c 2.209,0 4,1.791 4,4 l 0,0 0,18 c 0,2.209 -1.791,4 -4,4 l 0,0 -28,0 z"/></clipPath></defs><g id="g10" transform="matrix(1.25,0,0,-1.25,0,45)"><g id="g12"><g id="g14" clip-path="url(#clipPath16)"><path id="path20" d="m 0,27 36,0 0,4 -36,0 0,-4 z" style="fill:#024fa2;fill-opacity:1;fill-rule:nonzero;stroke:none"/><path id="path22" d="m 0,26 36,0 0,1 -36,0 0,-1 z" style="fill:#eee;fill-opacity:1;fill-rule:nonzero;stroke:none"/><path id="path24" d="M 0,9 36,9 36,5 0,5 0,9 Z" style="fill:#024fa2;fill-opacity:1;fill-rule:nonzero;stroke:none"/><path id="path26" d="M 0,10 36,10 36,9 0,9 0,10 Z" style="fill:#eee;fill-opacity:1;fill-rule:nonzero;stroke:none"/><g id="g28" transform="translate(13.2778,23.7778)"><path id="path30" d="m 0,0 c 3.191,0 5.778,-2.587 5.778,-5.778 0,-3.191 -2.587,-5.778 -5.778,-5.778 -3.191,0 -5.778,2.587 -5.778,5.778 C -5.778,-2.587 -3.191,0 0,0 m -13.278,-13.778 36,0 0,16 -36,0 0,-16 z" style="fill:#ed1c27;fill-opacity:1;fill-rule:nonzero;stroke:none"/></g><g id="g32" transform="translate(12.0211,19.7296)"><path id="path34" d="M 0,0 1.257,3.868 2.513,0 6.58,0 3.29,-2.39 l 1.257,-3.868 -3.29,2.39 -3.29,-2.39 1.256,3.868 L -4.067,0 0,0 Z m 1.257,-7.507 c 3.191,0 5.777,2.586 5.777,5.777 0,3.191 -2.586,5.778 -5.777,5.778 -3.191,0 -5.778,-2.587 -5.778,-5.778 0,-3.191 2.587,-5.777 5.778,-5.777" style="fill:#fff;fill-opacity:1;fill-rule:nonzero;stroke:none"/></g><g id="g36" transform="translate(9.9878,13.4718)"><path id="path38" d="M 0,0 3.29,2.39 6.58,0 5.323,3.868 l 3.29,2.39 -4.066,0 -1.257,3.867 -1.257,-3.867 -4.066,0 3.29,-2.39 L 0,0 Z" style="fill:#ed1c27;fill-opacity:1;fill-rule:nonzero;stroke:none"/></g></g></g></g></svg>