<svg xmlns="http://www.w3.org/2000/svg" xmlns:svg="http://www.w3.org/2000/svg" style="enable-background:new 0 0 45 45" id="svg2" version="1.1" viewBox="0 0 45 45" xml:space="preserve"><metadata id="metadata8"/><defs id="defs6"><clipPath id="clipPath16" clipPathUnits="userSpaceOnUse"><path id="path18" d="M 4,31 C 1.791,31 0,29.209 0,27 L 0,27 0,9 C 0,6.791 1.791,5 4,5 l 0,0 28,0 c 2.209,0 4,1.791 4,4 l 0,0 0,18 c 0,2.209 -1.791,4 -4,4 l 0,0 -28,0 z"/></clipPath></defs><g id="g10" transform="matrix(1.25,0,0,-1.25,0,45)"><g id="g12"><g id="g14" clip-path="url(#clipPath16)"><g id="g20" transform="translate(6,23.312)"><path id="path22" d="m 0,0 -2.078,-1.51 0.794,2.443 -2.078,1.51 2.568,0 L 0,4.886 0.794,2.443 3.362,2.443 1.284,0.933 2.078,-1.51 0,0 Z m 6,-1.668 0,2.167 0,2.56 0,2.167 0,2.462 -12,0 0,-11.917 12,0 0,2.561 z" style="fill:#002868;fill-opacity:1;fill-rule:nonzero;stroke:none"/></g><path id="path24" d="m 0,5 36,0 0,2.462 -36,0 L 0,5 Z" style="fill:#bf0a30;fill-opacity:1;fill-rule:nonzero;stroke:none"/><path id="path26" d="m 0,9.629 36,0 0,2.561 -36,0 0,-2.561 z" style="fill:#bf0a30;fill-opacity:1;fill-rule:nonzero;stroke:none"/><path id="path28" d="m 12,23.811 24,0 0,2.561 -24,0 0,-2.561 z" style="fill:#bf0a30;fill-opacity:1;fill-rule:nonzero;stroke:none"/><path id="path30" d="m 12,28.538 24,0 0,2.462 -24,0 0,-2.462 z" style="fill:#bf0a30;fill-opacity:1;fill-rule:nonzero;stroke:none"/><path id="path32" d="m 12,19.083 24,0 0,2.561 -24,0 0,-2.561 z" style="fill:#bf0a30;fill-opacity:1;fill-rule:nonzero;stroke:none"/><path id="path34" d="m 0,14.356 36,0 0,2.561 -36,0 0,-2.561 z" style="fill:#bf0a30;fill-opacity:1;fill-rule:nonzero;stroke:none"/><path id="path36" d="m 12,21.644 24,0 0,2.167 -24,0 0,-2.167 z" style="fill:#eee;fill-opacity:1;fill-rule:nonzero;stroke:none"/><g id="g38" transform="translate(0,19.0834)"><path id="path40" d="m 0,0 0,-0.083 0,-2.084 36,0 L 36,0 12,0 0,0 Z" style="fill:#eee;fill-opacity:1;fill-rule:nonzero;stroke:none"/></g><path id="path42" d="m 12,26.371 24,0 0,2.167 -24,0 0,-2.167 z" style="fill:#eee;fill-opacity:1;fill-rule:nonzero;stroke:none"/><path id="path44" d="m 0,12.189 36,0 0,2.167 -36,0 0,-2.167 z" style="fill:#eee;fill-opacity:1;fill-rule:nonzero;stroke:none"/><path id="path46" d="m 0,7.462 36,0 0,2.167 -36,0 0,-2.167 z" style="fill:#eee;fill-opacity:1;fill-rule:nonzero;stroke:none"/><g id="g48" transform="translate(9.3625,25.7549)"><path id="path50" d="M 0,0 -2.569,0 -3.362,2.443 -4.156,0 l -2.569,0 2.078,-1.51 -0.794,-2.443 2.079,1.51 2.078,-1.51 L -2.078,-1.51 0,0 Z" style="fill:#fff;fill-opacity:1;fill-rule:nonzero;stroke:none"/></g></g></g></g></svg>