<svg xmlns="http://www.w3.org/2000/svg" xmlns:svg="http://www.w3.org/2000/svg" style="enable-background:new 0 0 45 45" id="svg2" version="1.1" viewBox="0 0 45 45" xml:space="preserve"><metadata id="metadata8"/><defs id="defs6"><clipPath id="clipPath16" clipPathUnits="userSpaceOnUse"><path id="path18" d="M 4,31 C 1.791,31 0,29.209 0,27 L 0,27 0,9 C 0,6.791 1.791,5 4,5 l 0,0 28,0 c 2.209,0 4,1.791 4,4 l 0,0 0,18 c 0,2.209 -1.791,4 -4,4 l 0,0 -28,0 z"/></clipPath></defs><g id="g10" transform="matrix(1.25,0,0,-1.25,0,45)"><g id="g12"><g id="g14" clip-path="url(#clipPath16)"><path id="path20" d="M 0,31 36,31 36,5 0,5 0,31 Z" style="fill:#009e60;fill-opacity:1;fill-rule:nonzero;stroke:none"/><path id="path22" d="M 0,31 27,31 27,5 0,5 0,31 Z" style="fill:#fcd116;fill-opacity:1;fill-rule:nonzero;stroke:none"/><path id="path24" d="M 0,31 9,31 9,5 0,5 0,31 Z" style="fill:#0072c6;fill-opacity:1;fill-rule:nonzero;stroke:none"/><g id="g26" transform="translate(15.8333,12.5833)"><path id="path28" d="M 0,0 2.167,-4.333 4.333,0 2.167,4.333 0,0 Z" style="fill:#009e60;fill-opacity:1;fill-rule:nonzero;stroke:none"/></g><g id="g30" transform="translate(13.125,18)"><path id="path32" d="M 0,0 2.167,-4.333 4.333,0 2.167,4.333 0,0 Z" style="fill:#009e60;fill-opacity:1;fill-rule:nonzero;stroke:none"/></g><g id="g34" transform="translate(18.5417,18)"><path id="path36" d="M 0,0 2.167,-4.333 4.333,0 2.167,4.333 0,0 Z" style="fill:#009e60;fill-opacity:1;fill-rule:nonzero;stroke:none"/></g></g></g></g></svg>