<svg xmlns="http://www.w3.org/2000/svg" xmlns:svg="http://www.w3.org/2000/svg" style="enable-background:new 0 0 45 45" id="svg2" version="1.1" viewBox="0 0 45 45" xml:space="preserve"><metadata id="metadata8"/><defs id="defs6"><clipPath id="clipPath16" clipPathUnits="userSpaceOnUse"><path id="path18" d="M 0,36 36,36 36,0 0,0 0,36 Z"/></clipPath></defs><g id="g10" transform="matrix(1.25,0,0,-1.25,0,45)"><g id="g12"><g id="g14" clip-path="url(#clipPath16)"><g id="g20" transform="translate(36,9)"><path id="path22" d="m 0,0 c 0,-2.209 -1.791,-4 -4,-4 l -28,0 c -2.209,0 -4,1.791 -4,4 l 0,18 c 0,2.209 1.791,4 4,4 l 28,0 c 2.209,0 4,-1.791 4,-4 L 0,0 Z" style="fill:#eee;fill-opacity:1;fill-rule:nonzero;stroke:none"/></g><g id="g24" transform="translate(36,18)"><path id="path26" d="m 0,0 0,9 c 0,2.209 -1.791,4 -4,4 l -28,0 c -2.209,0 -4,-1.791 -4,-4 l 0,-9 36,0 z" style="fill:#ed2939;fill-opacity:1;fill-rule:nonzero;stroke:none"/></g><g id="g28" transform="translate(6,24.5)"><path id="path30" d="M 0,0 C 0,2.585 1.624,4.748 3.81,5.336 3.389,5.439 2.952,5.5 2.5,5.5 -0.538,5.5 -3,3.038 -3,0 c 0,-3.038 2.462,-5.5 5.5,-5.5 0.452,0 0.889,0.061 1.31,0.164 C 1.624,-4.748 0,-2.585 0,0" style="fill:#fff;fill-opacity:1;fill-rule:nonzero;stroke:none"/></g><g id="g32" transform="translate(12,29)"><path id="path34" d="m 0,0 0.225,-0.691 0.726,0 L 0.363,-1.118 0.588,-1.809 0,-1.382 l -0.588,-0.427 0.225,0.691 -0.588,0.427 0.726,0 L 0,0 Z" style="fill:#eee;fill-opacity:1;fill-rule:nonzero;stroke:none"/></g><g id="g36" transform="translate(10,22)"><path id="path38" d="m 0,0 0.225,-0.691 0.726,0 L 0.363,-1.118 0.588,-1.809 0,-1.382 l -0.588,-0.427 0.225,0.691 -0.588,0.427 0.726,0 L 0,0 Z" style="fill:#eee;fill-opacity:1;fill-rule:nonzero;stroke:none"/></g><g id="g40" transform="translate(14,22)"><path id="path42" d="m 0,0 0.225,-0.691 0.726,0 L 0.363,-1.118 0.588,-1.809 0,-1.382 l -0.588,-0.427 0.225,0.691 -0.588,0.427 0.726,0 L 0,0 Z" style="fill:#eee;fill-opacity:1;fill-rule:nonzero;stroke:none"/></g><g id="g44" transform="translate(9,26)"><path id="path46" d="m 0,0 0.225,-0.691 0.726,0 L 0.363,-1.118 0.588,-1.809 0,-1.382 l -0.588,-0.427 0.225,0.691 -0.588,0.427 0.726,0 L 0,0 Z" style="fill:#eee;fill-opacity:1;fill-rule:nonzero;stroke:none"/></g><g id="g48" transform="translate(15,26)"><path id="path50" d="m 0,0 0.225,-0.691 0.726,0 L 0.363,-1.118 0.588,-1.809 0,-1.382 l -0.588,-0.427 0.225,0.691 -0.588,0.427 0.726,0 L 0,0 Z" style="fill:#eee;fill-opacity:1;fill-rule:nonzero;stroke:none"/></g></g></g></g></svg>