<svg xmlns="http://www.w3.org/2000/svg" xmlns:svg="http://www.w3.org/2000/svg" style="enable-background:new 0 0 45 45" id="svg2" version="1.1" viewBox="0 0 45 45" xml:space="preserve"><metadata id="metadata8"/><defs id="defs6"><clipPath id="clipPath16" clipPathUnits="userSpaceOnUse"><path id="path18" d="M 4,31 C 1.791,31 0,29.209 0,27 L 0,27 0,9 C 0,6.791 1.791,5 4,5 l 0,0 28,0 c 2.209,0 4,1.791 4,4 l 0,0 0,18 c 0,2.209 -1.791,4 -4,4 l 0,0 -28,0 z"/></clipPath></defs><g id="g10" transform="matrix(1.25,0,0,-1.25,0,45)"><g id="g12"><g id="g14" clip-path="url(#clipPath16)"><path id="path20" d="M 18,31 0,31 0,18 18,18 18,31 Z" style="fill:#eee;fill-opacity:1;fill-rule:nonzero;stroke:none"/><path id="path22" d="M 18,5 36,5 36,18 18,18 18,5 Z" style="fill:#eee;fill-opacity:1;fill-rule:nonzero;stroke:none"/><g id="g24" transform="translate(9.6735,25.427)"><path id="path26" d="M 0,0 -0.674,2.073 -1.347,0 -3.527,0 -1.763,-1.281 -2.437,-3.354 -0.674,-2.073 1.09,-3.354 0.416,-1.281 2.18,0 0,0 Z" style="fill:#005293;fill-opacity:1;fill-rule:nonzero;stroke:none"/></g><path id="path28" d="M 0,5 18,5 18,18 0,18 0,5 Z" style="fill:#005293;fill-opacity:1;fill-rule:nonzero;stroke:none"/><path id="path30" d="m 18,18 18,0 0,13 -18,0 0,-13 z" style="fill:#d21034;fill-opacity:1;fill-rule:nonzero;stroke:none"/><g id="g32" transform="translate(25.9102,11.1459)"><path id="path34" d="M 0,0 -0.674,-2.073 1.09,-0.792 2.853,-2.073 2.18,0 3.943,1.281 1.763,1.281 1.09,3.354 0.416,1.281 -1.763,1.281 0,0 Z" style="fill:#d21034;fill-opacity:1;fill-rule:nonzero;stroke:none"/></g></g></g></g></svg>