<svg xmlns="http://www.w3.org/2000/svg" xmlns:svg="http://www.w3.org/2000/svg" style="enable-background:new 0 0 45 45" id="svg2" version="1.1" viewBox="0 0 45 45" xml:space="preserve"><metadata id="metadata8"/><defs id="defs6"><clipPath id="clipPath16" clipPathUnits="userSpaceOnUse"><path id="path18" d="M 0,36 36,36 36,0 0,0 0,36 Z"/></clipPath></defs><g id="g10" transform="matrix(1.25,0,0,-1.25,0,45)"><g id="g12"><g id="g14" clip-path="url(#clipPath16)"><g id="g20" transform="translate(36,9)"><path id="path22" d="m 0,0 c 0,-2.209 -1.791,-4 -4,-4 l -28,0 c -2.209,0 -4,1.791 -4,4 l 0,18 c 0,2.209 1.791,4 4,4 l 28,0 c 2.209,0 4,-1.791 4,-4 L 0,0 Z" style="fill:#003893;fill-opacity:1;fill-rule:nonzero;stroke:none"/></g><g id="g24" transform="translate(34.5928,30.0229)"><path id="path26" d="m 0,0 -33.758,-23.443 c 0.026,-0.033 0.053,-0.064 0.08,-0.098 l 35.085,18.518 0,2 C 1.407,-1.809 0.854,-0.734 0,0" style="fill:#f4900c;fill-opacity:1;fill-rule:nonzero;stroke:none"/></g><g id="g28" transform="translate(1.0117,6.3652)"><path id="path30" d="m 0,0 34.988,12.635 0,6 L -0.097,0.117 C -0.064,0.078 -0.034,0.038 0,0" style="fill:#eee;fill-opacity:1;fill-rule:nonzero;stroke:none"/></g><g id="g32" transform="translate(9,29.0825)"><path id="path34" d="M 0,0 0.306,-5.156 1.328,-2.997 0.886,-5.344 2.525,-3.607 1.379,-5.704 3.475,-4.558 1.738,-6.197 4.085,-5.755 1.927,-6.777 7.083,-7.083 1.927,-7.388 4.085,-8.41 1.738,-7.969 3.475,-9.608 1.379,-8.462 2.525,-10.558 0.886,-8.821 1.328,-11.168 0.306,-9.01 0,-14.165 l -0.306,5.155 -1.022,-2.158 0.442,2.347 -1.639,-1.737 1.146,2.096 -2.096,-1.146 1.737,1.639 -2.347,-0.441 2.158,1.022 -5.156,0.305 5.156,0.306 -2.158,1.022 2.347,-0.442 -1.737,1.639 2.096,-1.146 -1.146,2.097 1.639,-1.737 -0.442,2.347 1.022,-2.159 L 0,0 Z" style="fill:#fff;fill-opacity:1;fill-rule:nonzero;stroke:none"/></g></g></g></g></svg>