<svg xmlns="http://www.w3.org/2000/svg" xmlns:svg="http://www.w3.org/2000/svg" style="enable-background:new 0 0 45 45" id="svg2" version="1.1" viewBox="0 0 45 45" xml:space="preserve"><metadata id="metadata8"/><defs id="defs6"><clipPath id="clipPath16" clipPathUnits="userSpaceOnUse"><path id="path18" d="M 0,36 36,36 36,0 0,0 0,36 Z"/></clipPath></defs><g id="g10" transform="matrix(1.25,0,0,-1.25,0,45)"><g id="g12"><g id="g14" clip-path="url(#clipPath16)"><g id="g20" transform="translate(36,9)"><path id="path22" d="m 0,0 c 0,-2.209 -1.791,-4 -4,-4 l -28,0 c -2.209,0 -4,1.791 -4,4 l 0,18 c 0,2.209 1.791,4 4,4 l 28,0 c 2.209,0 4,-1.791 4,-4 L 0,0 Z" style="fill:#009543;fill-opacity:1;fill-rule:nonzero;stroke:none"/></g><path id="path24" d="M 36,13 0,13 0,23 36,23 36,13 Z" style="fill:#ed4135;fill-opacity:1;fill-rule:nonzero;stroke:none"/><g id="g26" transform="translate(32,31)"><path id="path28" d="m 0,0 -28,0 c -2.209,0 -4,-1.791 -4,-4 l 0,-4 36,0 0,4 C 4,-1.791 2.209,0 0,0" style="fill:#0035ad;fill-opacity:1;fill-rule:nonzero;stroke:none"/></g><g id="g30" transform="translate(22.4023,18)"><path id="path32" d="m 0,0 c 0,-5.192 -4.209,-9.402 -9.402,-9.402 -5.193,0 -9.403,4.21 -9.403,9.402 0,5.193 4.21,9.402 9.403,9.402 C -4.209,9.402 0,5.193 0,0" style="fill:#141414;fill-opacity:1;fill-rule:nonzero;stroke:none"/></g><g id="g34" transform="translate(22,18)"><path id="path36" d="m 0,0 c 0,-4.971 -4.029,-9 -9,-9 -4.971,0 -9,4.029 -9,9 0,4.971 4.029,9 9,9 4.971,0 9,-4.029 9,-9" style="fill:#fae600;fill-opacity:1;fill-rule:nonzero;stroke:none"/></g><path id="path38" d="m 13.192,9.008 -0.322,0 0,17.984 0.322,0 0,-17.984 z" style="fill:#141414;fill-opacity:1;fill-rule:nonzero;stroke:none"/><g id="g40" transform="translate(14.25,21.2812)"><path id="path42" d="m 0,0 c 0,-0.673 -0.546,-1.219 -1.219,-1.219 -0.673,0 -1.219,0.546 -1.219,1.219 0,0.673 0.546,1.219 1.219,1.219 C -0.546,1.219 0,0.673 0,0" style="fill:#141414;fill-opacity:1;fill-rule:nonzero;stroke:none"/></g><g id="g44" transform="translate(14.0313,13.7344)"><path id="path46" d="m 0,0 c 0,-0.786 -0.448,-1.422 -1,-1.422 -0.552,0 -1,0.636 -1,1.422 0,0.786 0.448,1.422 1,1.422 0.552,0 1,-0.636 1,-1.422" style="fill:#141414;fill-opacity:1;fill-rule:nonzero;stroke:none"/></g><g id="g48" transform="translate(14.25,17.7187)"><path id="path50" d="m 0,0 c 0,-0.406 -0.546,-0.734 -1.219,-0.734 -0.673,0 -1.219,0.328 -1.219,0.734 0,0.406 0.546,0.734 1.219,0.734 C -0.546,0.734 0,0.406 0,0" style="fill:#141414;fill-opacity:1;fill-rule:nonzero;stroke:none"/></g><g id="g52" transform="translate(11.6875,23)"><path id="path54" d="M 0,0 C 0,0 -0.125,0.875 0.125,1.25 0.375,1.625 1.031,1.969 1.562,2.094 2.094,2.219 2.813,3 2.813,3 2.813,3 2.719,1.844 1.844,1.125 0.969,0.406 0,0 0,0" style="fill:#141414;fill-opacity:1;fill-rule:nonzero;stroke:none"/></g><g id="g56" transform="translate(10.9219,21.2236)"><path id="path58" d="M 0,0 C 0,0 0.484,-0.312 0.609,-0.781 0.734,-1.25 1.078,-1.75 2.078,-1.75 l 0,-0.563 c 0,0 -0.844,-0.062 -1.312,0.125 C 0.297,-2 0.172,-1.125 0.172,-0.812 0.172,-0.5 0,0 0,0" style="fill:#141414;fill-opacity:1;fill-rule:nonzero;stroke:none"/></g><g id="g60" transform="translate(15.1094,21.2236)"><path id="path62" d="M 0,0 C 0,0 -0.484,-0.312 -0.609,-0.781 -0.734,-1.25 -1.078,-1.75 -2.078,-1.75 l 0,-0.563 c 0,0 0.844,-0.062 1.312,0.125 0.469,0.188 0.594,1.063 0.594,1.376 C -0.172,-0.5 0,0 0,0" style="fill:#141414;fill-opacity:1;fill-rule:nonzero;stroke:none"/></g><g id="g64" transform="translate(14.9375,14.8125)"><path id="path66" d="m 0,0 c 0,0.312 -0.141,1.187 -0.609,1.375 -0.469,0.187 -1.328,0.26 -1.328,0.26 0,0 -0.844,-0.073 -1.313,-0.26 C -3.719,1.187 -3.844,0.312 -3.844,0 c 0,-0.312 -0.172,-1.812 -0.172,-1.812 0,0 0.657,1.097 0.782,1.566 0.125,0.469 0.64,1.053 1.297,1.053 0.671,0 1.203,-0.563 1.328,-1.032 0.125,-0.468 0.773,-1.587 0.773,-1.587 0,0 -0.164,1.5 -0.164,1.812" style="fill:#141414;fill-opacity:1;fill-rule:nonzero;stroke:none"/></g><g id="g68" transform="translate(13,12)"><path id="path70" d="m 0,0 0,-3 c 0,0 -0.875,-0.094 -2.125,0.234 -1.25,0.328 -1.484,0.453 -1.484,0.453 0,0 1.272,1.274 1.828,1.751 C -1.125,0 0,0 0,0" style="fill:#141414;fill-opacity:1;fill-rule:nonzero;stroke:none"/></g><g id="g72" transform="translate(13,12)"><path id="path74" d="m 0,0 0,-3 c 0,0 0.875,-0.094 2.125,0.234 1.25,0.328 1.484,0.453 1.484,0.453 0,0 -1.272,1.274 -1.828,1.751 C 1.125,0 0,0 0,0" style="fill:#141414;fill-opacity:1;fill-rule:nonzero;stroke:none"/></g></g></g></g></svg>