<svg xmlns="http://www.w3.org/2000/svg" xmlns:svg="http://www.w3.org/2000/svg" style="enable-background:new 0 0 45 45" id="svg2" version="1.1" viewBox="0 0 45 45" xml:space="preserve"><metadata id="metadata8"/><defs id="defs6"><clipPath id="clipPath16" clipPathUnits="userSpaceOnUse"><path id="path18" d="M 0,36 36,36 36,0 0,0 0,36 Z"/></clipPath></defs><g id="g10" transform="matrix(1.25,0,0,-1.25,0,45)"><g id="g12"><g id="g14" clip-path="url(#clipPath16)"><g id="g20" transform="translate(36,9)"><path id="path22" d="m 0,0 c 0,-2.209 -1.791,-4 -4,-4 l -28,0 c -2.209,0 -4,1.791 -4,4 l 0,18 c 0,2.209 1.791,4 4,4 l 28,0 c 2.209,0 4,-1.791 4,-4 L 0,0 Z" style="fill:#29ae66;fill-opacity:1;fill-rule:nonzero;stroke:none"/></g><path id="path24" d="M 11,5 4,5 4,31 11,31 11,5 Z" style="fill:#ca3745;fill-opacity:1;fill-rule:nonzero;stroke:none"/><g id="g26" transform="translate(4,27.6875)"><path id="path28" d="M 0,0 0.805,-0.805 0.586,-1.023 0.906,-1.344 1.117,-1.133 1.781,-1.797 1.125,-2.453 0.852,-2.18 0.562,-2.469 0.805,-2.711 0,-3.422 0,-3.047 0.441,-2.629 0.203,-2.438 0.811,-1.83 1.162,-2.135 1.49,-1.807 1.139,-1.455 0.893,-1.701 0.252,-1.061 0.492,-0.82 0,-0.375 0,0 Z" style="fill:#faae29;fill-opacity:1;fill-rule:nonzero;stroke:none"/></g><g id="g30" transform="translate(4,23.0625)"><path id="path32" d="M 0,0 0.805,-0.805 0.586,-1.023 0.906,-1.344 1.117,-1.133 1.781,-1.797 1.125,-2.453 0.852,-2.18 0.562,-2.469 0.805,-2.711 0,-3.422 0,-3.047 0.441,-2.629 0.203,-2.438 0.811,-1.83 1.162,-2.135 1.49,-1.807 1.139,-1.455 0.893,-1.701 0.252,-1.061 0.492,-0.82 0,-0.375 0,0 Z" style="fill:#faae29;fill-opacity:1;fill-rule:nonzero;stroke:none"/></g><g id="g34" transform="translate(4,18.3437)"><path id="path36" d="M 0,0 0.805,-0.805 0.586,-1.023 0.906,-1.344 1.117,-1.133 1.781,-1.797 1.125,-2.453 0.852,-2.18 0.562,-2.469 0.805,-2.711 0,-3.422 0,-3.047 0.441,-2.629 0.203,-2.438 0.811,-1.83 1.162,-2.135 1.49,-1.807 1.139,-1.455 0.893,-1.701 0.252,-1.061 0.492,-0.82 0,-0.375 0,0 Z" style="fill:#faae29;fill-opacity:1;fill-rule:nonzero;stroke:none"/></g><g id="g38" transform="translate(4,13.6875)"><path id="path40" d="M 0,0 0.805,-0.805 0.586,-1.023 0.906,-1.344 1.117,-1.133 1.781,-1.797 1.125,-2.453 0.852,-2.18 0.562,-2.469 0.805,-2.711 0,-3.422 0,-3.047 0.441,-2.629 0.203,-2.438 0.811,-1.83 1.162,-2.135 1.49,-1.807 1.139,-1.455 0.893,-1.701 0.252,-1.061 0.492,-0.82 0,-0.375 0,0 Z" style="fill:#faae29;fill-opacity:1;fill-rule:nonzero;stroke:none"/></g><g id="g42" transform="translate(11,27.6875)"><path id="path44" d="m 0,0 -0.805,-0.805 0.219,-0.218 -0.32,-0.321 -0.211,0.211 -0.664,-0.664 0.656,-0.656 0.273,0.273 0.29,-0.289 -0.243,-0.242 0.805,-0.711 0,0.375 -0.441,0.418 0.238,0.191 -0.608,0.608 -0.351,-0.305 -0.328,0.328 0.351,0.352 0.246,-0.246 0.641,0.64 -0.24,0.241 L 0,-0.375 0,0 Z" style="fill:#faae29;fill-opacity:1;fill-rule:nonzero;stroke:none"/></g><g id="g46" transform="translate(4.5625,30.3125)"><path id="path48" d="M 0,0 0.289,0.289 0.562,0.016 1.219,0.672 1.203,0.687 0.902,0.687 0.928,0.662 0.6,0.334 0.248,0.639 -0.359,0.031 l 0.238,-0.191 -0.441,-0.418 0,-0.375 0.804,0.711 L 0,0 Z" style="fill:#faae29;fill-opacity:1;fill-rule:nonzero;stroke:none"/></g><g id="g50" transform="translate(10.7969,30.3438)"><path id="path52" d="m 0,0 -0.607,0.607 -0.352,-0.304 -0.328,0.328 0.025,0.025 -0.301,0 -0.015,-0.015 0.656,-0.657 0.274,0.274 0.289,-0.289 -0.243,-0.242 0.805,-0.711 0,0.375 -0.441,0.418 L 0,0 Z" style="fill:#faae29;fill-opacity:1;fill-rule:nonzero;stroke:none"/></g><g id="g54" transform="translate(11,23.0625)"><path id="path56" d="m 0,0 -0.805,-0.805 0.219,-0.218 -0.32,-0.321 -0.211,0.211 -0.664,-0.664 0.656,-0.656 0.273,0.273 0.29,-0.289 -0.243,-0.242 0.805,-0.711 0,0.375 -0.441,0.418 0.238,0.191 -0.608,0.608 -0.351,-0.305 -0.328,0.328 0.351,0.352 0.246,-0.246 0.641,0.64 -0.24,0.241 L 0,-0.375 0,0 Z" style="fill:#faae29;fill-opacity:1;fill-rule:nonzero;stroke:none"/></g><g id="g58" transform="translate(11,18.3437)"><path id="path60" d="m 0,0 -0.805,-0.805 0.219,-0.218 -0.32,-0.321 -0.211,0.211 -0.664,-0.664 0.656,-0.656 0.273,0.273 0.29,-0.289 -0.243,-0.242 0.805,-0.711 0,0.375 -0.441,0.418 0.238,0.191 -0.608,0.608 -0.351,-0.305 -0.328,0.328 0.351,0.352 0.246,-0.246 0.641,0.64 -0.24,0.241 L 0,-0.375 0,0 Z" style="fill:#faae29;fill-opacity:1;fill-rule:nonzero;stroke:none"/></g><g id="g62" transform="translate(11,13.6875)"><path id="path64" d="m 0,0 -0.805,-0.805 0.219,-0.218 -0.32,-0.321 -0.211,0.211 -0.664,-0.664 0.656,-0.656 0.273,0.273 0.29,-0.289 -0.243,-0.242 0.805,-0.711 0,0.375 -0.441,0.418 0.238,0.191 -0.608,0.608 -0.351,-0.305 -0.328,0.328 0.351,0.352 0.246,-0.246 0.641,0.64 -0.24,0.241 L 0,-0.375 0,0 Z" style="fill:#faae29;fill-opacity:1;fill-rule:nonzero;stroke:none"/></g><g id="g66" transform="translate(10.021,29.0625)"><path id="path68" d="m 0,0 0,0.396 -0.583,0.354 -0.438,0 -0.708,0.367 -0.792,0 -0.792,0 -0.708,-0.367 -0.437,0 -0.584,-0.354 0,-0.396 -0.541,-0.333 0,-0.459 0,-0.458 0.541,-0.334 0,-0.395 0.584,-0.355 0.437,0 0.708,-0.367 0.792,0 0.792,0 0.708,0.367 0.438,0 0.583,0.355 0,0.395 0.542,0.334 0,0.458 0,0.459 L 0,0 Z" style="fill:#29ae66;fill-opacity:1;fill-rule:nonzero;stroke:none"/></g><g id="g70" transform="translate(4.9282,28.272)"><path id="path72" d="m 0,0 0,0.391 0.462,0.285 0,0.337 0.498,0.303 0.373,0 0.605,0.313 0.675,0 L 2.613,0 0,0 Z" style="fill:#faae29;fill-opacity:1;fill-rule:nonzero;stroke:none"/></g><g id="g74" transform="translate(4.8867,28.2705)"><path id="path76" d="m 0,0 0,-0.391 0.462,-0.285 0,-0.337 0.498,-0.303 0.373,0 0.605,-0.313 0.675,0 L 2.613,0 0,0 Z" style="fill:#fff;fill-opacity:1;fill-rule:nonzero;stroke:none"/></g><g id="g78" transform="translate(10.1133,28.2705)"><path id="path80" d="m 0,0 0,0.391 -0.462,0.285 0,0.337 -0.498,0.303 -0.374,0 -0.604,0.313 -0.675,0 L -2.613,0 0,0 Z" style="fill:#fff;fill-opacity:1;fill-rule:nonzero;stroke:none"/></g><g id="g82" transform="translate(10.1133,28.2705)"><path id="path84" d="m 0,0 0,-0.391 -0.462,-0.285 0,-0.337 -0.498,-0.303 -0.374,0 -0.604,-0.313 -0.675,0 0,1.629 L 0,0 Z" style="fill:#faae29;fill-opacity:1;fill-rule:nonzero;stroke:none"/></g><path id="path86" d="m 5.604,23.708 -0.676,0 0,0.73 0.676,0 0,-0.73 z" style="fill:#faae29;fill-opacity:1;fill-rule:nonzero;stroke:none"/><path id="path88" d="m 6.281,23.812 -0.676,0 0,0.73 0.676,0 0,-0.73 z" style="fill:#faae29;fill-opacity:1;fill-rule:nonzero;stroke:none"/><path id="path90" d="m 6.958,24.073 -0.676,0 0,0.729 0.676,0 0,-0.729 z" style="fill:#faae29;fill-opacity:1;fill-rule:nonzero;stroke:none"/><path id="path92" d="m 9.416,23.708 0.676,0 0,0.73 -0.676,0 0,-0.73 z" style="fill:#faae29;fill-opacity:1;fill-rule:nonzero;stroke:none"/><path id="path94" d="m 8.739,23.812 0.676,0 0,0.73 -0.676,0 0,-0.73 z" style="fill:#faae29;fill-opacity:1;fill-rule:nonzero;stroke:none"/><path id="path96" d="m 8.063,24.073 0.676,0 0,0.729 -0.676,0 0,-0.729 z" style="fill:#faae29;fill-opacity:1;fill-rule:nonzero;stroke:none"/><path id="path98" d="m 8.063,24.266 -1.105,0 0,0.901 1.105,0 0,-0.901 z" style="fill:#faae29;fill-opacity:1;fill-rule:nonzero;stroke:none"/><path id="path100" d="m 5.604,23.516 -0.676,0 0,-0.729 0.676,0 0,0.729 z" style="fill:#faae29;fill-opacity:1;fill-rule:nonzero;stroke:none"/><path id="path102" d="m 6.281,23.412 -0.676,0 0,-0.729 0.676,0 0,0.729 z" style="fill:#faae29;fill-opacity:1;fill-rule:nonzero;stroke:none"/><path id="path104" d="m 6.958,23.151 -0.676,0 0,-0.729 0.676,0 0,0.729 z" style="fill:#faae29;fill-opacity:1;fill-rule:nonzero;stroke:none"/><path id="path106" d="m 9.416,23.516 0.676,0 0,-0.729 -0.676,0 0,0.729 z" style="fill:#faae29;fill-opacity:1;fill-rule:nonzero;stroke:none"/><path id="path108" d="m 8.739,23.412 0.676,0 0,-0.729 -0.676,0 0,0.729 z" style="fill:#faae29;fill-opacity:1;fill-rule:nonzero;stroke:none"/><path id="path110" d="m 8.063,23.151 0.676,0 0,-0.729 -0.676,0 0,0.729 z" style="fill:#faae29;fill-opacity:1;fill-rule:nonzero;stroke:none"/><path id="path112" d="m 8.063,22.958 -1.105,0 0,-0.901 1.105,0 0,0.901 z" style="fill:#faae29;fill-opacity:1;fill-rule:nonzero;stroke:none"/><g id="g114" transform="translate(8.5493,11.3916)"><path id="path116" d="m 0,0 -2.059,0 -1.455,-0.932 0,-1.316 1.455,-0.931 2.059,0 1.456,0.931 0,1.316 L 0,0 Z" style="fill:#fff;fill-opacity:1;fill-rule:nonzero;stroke:none"/></g><g id="g118" transform="translate(9.1191,18.418)"><path id="path120" d="m 0,0 -0.937,-0.66 -1.324,0 -0.937,0.66 0,0.934 0.937,0.66 1.324,0 L 0,0.934 0,0 Z m -0.736,1.936 -1.726,0 -1.221,-0.86 0,-1.218 1.221,-0.86 1.726,0 1.221,0.86 0,1.218 -1.221,0.86 z" style="fill:#29ae66;fill-opacity:1;fill-rule:nonzero;stroke:none"/></g><g id="g122" transform="translate(9.6523,9.2373)"><path id="path124" d="m 0,0 -1.25,-0.799 -1.765,0 -1.25,0.799 0,1.13 1.25,0.799 1.765,0 L 0,1.13 0,0 Z m -1.06,2.221 -2.145,0 -1.517,-0.971 0,-1.371 1.517,-0.97 2.145,0 1.517,0.97 0,1.371 -1.517,0.971 z" style="fill:#29ae66;fill-opacity:1;fill-rule:nonzero;stroke:none"/></g><path id="path126" d="m 9.077,13.188 -3.118,0 0,2.084 3.118,0 0,-2.084 z m 0.677,1.375 0,0.443 -0.441,0 0,0.493 -3.594,0 0,-0.493 -0.494,0 0,-0.443 -0.433,0 0,-0.647 0.433,0 0,-0.478 0.494,0 0,-0.522 3.594,0 0,0.522 0.441,0 0,0.478 0.517,0 0,0.647 -0.517,0 z" style="fill:#29ae66;fill-opacity:1;fill-rule:nonzero;stroke:none"/><g id="g128" transform="translate(7.5,15.75)"><path id="path130" d="m 0,0 -1.896,-1.125 0,-0.729 1.896,-1.23 1.916,1.188 0,0.771 L 0,0 Z" style="fill:#29ae66;fill-opacity:1;fill-rule:nonzero;stroke:none"/></g><g id="g132" transform="translate(6.6514,10.2344)"><path id="path134" d="M 0,0 0.849,0.49 1.697,0 1.697,-0.98 0.849,-1.469 0,-0.98 0,0 Z" style="fill:#ca3745;fill-opacity:1;fill-rule:nonzero;stroke:none"/></g><g id="g136" transform="translate(8.3481,5.916)"><path id="path138" d="m 0,0 -0.244,-0.166 c 0,0 -0.208,0.396 -0.771,0.437 C -1.577,0.312 -1.89,0.084 -2.369,0.053 -2.848,0.021 -4.324,1.139 -3.557,2.85 -2.869,2.355 -3.226,1.751 -2.912,1.459 -2.598,1.167 -2.268,0.969 -2.14,0.625 -2.012,0.281 -1.414,0.566 -1.015,0.5 -0.39,0.396 0,0 0,0" style="fill:#faae29;fill-opacity:1;fill-rule:nonzero;stroke:none"/></g><g id="g140" transform="translate(6.6514,5.916)"><path id="path142" d="m 0,0 0.244,-0.166 c 0,0 0.208,0.396 0.771,0.437 C 1.577,0.312 1.89,0.084 2.369,0.053 2.848,0.021 4.324,1.139 3.557,2.85 2.869,2.355 3.226,1.751 2.912,1.459 2.598,1.167 2.268,0.969 2.14,0.625 2.012,0.281 1.414,0.566 1.015,0.5 0.39,0.396 0,0 0,0" style="fill:#faae29;fill-opacity:1;fill-rule:nonzero;stroke:none"/></g><g id="g144" transform="translate(18.1797,27.7114)"><path id="path146" d="m 0,0 c 0.65,-0.564 1.07,-1.387 1.07,-2.316 0,-1.7 -1.378,-3.078 -3.078,-3.078 -0.585,0 -1.125,0.172 -1.591,0.455 0.571,-0.622 1.384,-1.018 2.294,-1.018 1.726,0 3.125,1.399 3.125,3.125 C 1.82,-1.573 1.072,-0.495 0,0" style="fill:#fff;fill-opacity:1;fill-rule:nonzero;stroke:none"/></g><g id="g148" transform="translate(15.8462,28.1328)"><path id="path150" d="m 0,0 -0.246,-0.483 0.383,-0.384 -0.535,0.085 -0.247,-0.483 -0.085,0.536 -0.536,0.084 0.484,0.247 -0.085,0.536 0.384,-0.384 L 0,0 Z" style="fill:#fff;fill-opacity:1;fill-rule:nonzero;stroke:none"/></g><g id="g152" transform="translate(17.3774,27.2051)"><path id="path154" d="m 0,0 -0.246,-0.483 0.383,-0.384 -0.535,0.085 -0.247,-0.483 -0.084,0.536 -0.537,0.084 0.484,0.247 -0.085,0.536 0.384,-0.384 L 0,0 Z" style="fill:#fff;fill-opacity:1;fill-rule:nonzero;stroke:none"/></g><g id="g156" transform="translate(15.8462,26.54)"><path id="path158" d="m 0,0 -0.246,-0.483 0.383,-0.384 -0.535,0.085 -0.247,-0.483 -0.085,0.535 -0.536,0.085 0.484,0.247 -0.085,0.536 0.384,-0.384 L 0,0 Z" style="fill:#fff;fill-opacity:1;fill-rule:nonzero;stroke:none"/></g><g id="g160" transform="translate(14.2524,25.7305)"><path id="path162" d="m 0,0 -0.246,-0.483 0.383,-0.384 -0.535,0.085 -0.247,-0.483 -0.084,0.536 -0.537,0.084 0.484,0.247 -0.085,0.536 0.384,-0.384 L 0,0 Z" style="fill:#fff;fill-opacity:1;fill-rule:nonzero;stroke:none"/></g><g id="g164" transform="translate(15.8462,24.8291)"><path id="path166" d="m 0,0 -0.246,-0.483 0.383,-0.384 -0.535,0.085 -0.247,-0.483 -0.085,0.535 -0.536,0.085 0.484,0.247 -0.085,0.536 0.384,-0.384 L 0,0 Z" style="fill:#fff;fill-opacity:1;fill-rule:nonzero;stroke:none"/></g><path id="path168" d="m 7.062,15.23 0.915,0 0,-0.615 -0.915,0 0,0.615 z" style="fill:#ca3745;fill-opacity:1;fill-rule:nonzero;stroke:none"/><path id="path170" d="m 7.062,13.828 0.915,0 0,-0.615 -0.915,0 0,0.615 z" style="fill:#ca3745;fill-opacity:1;fill-rule:nonzero;stroke:none"/><path id="path172" d="m 5.604,14.516 1.253,0 0,-0.615 -1.253,0 0,0.615 z" style="fill:#faae29;fill-opacity:1;fill-rule:nonzero;stroke:none"/><path id="path174" d="m 8.188,14.516 1.228,0 0,-0.615 -1.228,0 0,0.615 z" style="fill:#faae29;fill-opacity:1;fill-rule:nonzero;stroke:none"/></g></g></g></svg>