<svg xmlns="http://www.w3.org/2000/svg" xmlns:svg="http://www.w3.org/2000/svg" style="enable-background:new 0 0 45 45" id="svg2" version="1.1" viewBox="0 0 45 45" xml:space="preserve"><metadata id="metadata8"/><defs id="defs6"><clipPath id="clipPath16" clipPathUnits="userSpaceOnUse"><path id="path18" d="M 0,36 36,36 36,0 0,0 0,36 Z"/></clipPath></defs><g id="g10" transform="matrix(1.25,0,0,-1.25,0,45)"><g id="g12"><g id="g14" clip-path="url(#clipPath16)"><g id="g20" transform="translate(32,31)"><path id="path22" d="m 0,0 -15,0 0,-13 -17,0 0,-9 c 0,-2.209 1.791,-4 4,-4 l 28,0 c 2.209,0 4,1.791 4,4 L 4,-4 C 4,-1.791 2.209,0 0,0" style="fill:#fe0000;fill-opacity:1;fill-rule:nonzero;stroke:none"/></g><g id="g24" transform="translate(11.5908,23.9575)"><path id="path26" d="M 0,0 C 0.034,0.176 0.052,0.357 0.052,0.542 0.052,0.728 0.034,0.909 0,1.085 L 2.034,0.542 0,0 Z m -0.654,-1.347 c 0.237,0.273 0.423,0.591 0.545,0.939 l 1.49,-1.487 -2.035,0.548 z M -1.89,-2.189 c 0.348,0.122 0.666,0.308 0.939,0.544 l 0.548,-2.034 -1.487,1.49 z m -0.951,-2.144 -0.542,2.035 c 0.176,-0.034 0.357,-0.052 0.542,-0.052 0.186,0 0.367,0.018 0.543,0.052 l -0.543,-2.035 z m -2.437,0.654 0.548,2.034 c 0.273,-0.236 0.591,-0.422 0.939,-0.544 l -1.487,-1.49 z m -0.294,3.271 c 0.121,-0.348 0.308,-0.666 0.544,-0.939 l -2.035,-0.548 1.491,1.487 z m -0.11,1.493 C -5.715,0.909 -5.733,0.728 -5.733,0.542 -5.733,0.357 -5.715,0.176 -5.682,0 l -2.034,0.542 2.034,0.543 z m 0.654,1.347 C -5.264,2.159 -5.451,1.841 -5.572,1.493 L -7.063,2.98 -5.028,2.432 Z m 1.237,0.842 C -4.139,3.152 -4.457,2.966 -4.73,2.73 l -0.548,2.034 1.487,-1.49 z m 0.95,2.143 0.543,-2.034 c -0.176,0.034 -0.357,0.052 -0.543,0.052 -0.185,0 -0.366,-0.018 -0.542,-0.052 l 0.542,2.034 z M -0.403,4.764 -0.951,2.73 C -1.224,2.966 -1.542,3.152 -1.89,3.274 l 1.487,1.49 z m 0,-4.222 c 0,-1.346 -1.092,-2.437 -2.438,-2.437 -1.346,0 -2.437,1.091 -2.437,2.437 0,1.347 1.091,2.438 2.437,2.438 1.346,0 2.438,-1.091 2.438,-2.438 m -0.251,1.89 2.035,0.548 -1.49,-1.487 c -0.122,0.348 -0.308,0.666 -0.545,0.939 m 6.063,4.61 -13,0 c -2.209,0 -4,-1.791 -4,-4 l 0,-9 17,0 0,13 z" style="fill:#000095;fill-opacity:1;fill-rule:nonzero;stroke:none"/></g><g id="g28" transform="translate(9.2925,27.3408)"><path id="path30" d="M 0,0 -0.542,2.034 -1.085,0 c 0.176,0.034 0.357,0.052 0.543,0.052 C -0.357,0.052 -0.176,0.034 0,0" style="fill:#fff;fill-opacity:1;fill-rule:nonzero;stroke:none"/></g><g id="g32" transform="translate(5.8575,24.5)"><path id="path34" d="M 0,0 C 0,0.185 0.018,0.367 0.052,0.542 L -1.982,0 0.052,-0.542 C 0.018,-0.367 0,-0.185 0,0" style="fill:#fff;fill-opacity:1;fill-rule:nonzero;stroke:none"/></g><g id="g36" transform="translate(8.2075,21.6592)"><path id="path38" d="M 0,0 0.542,-2.034 1.085,0 C 0.909,-0.034 0.728,-0.052 0.542,-0.052 0.357,-0.052 0.176,-0.034 0,0" style="fill:#fff;fill-opacity:1;fill-rule:nonzero;stroke:none"/></g><g id="g40" transform="translate(11.6425,24.5)"><path id="path42" d="M 0,0 C 0,-0.185 -0.018,-0.367 -0.052,-0.542 L 1.982,0 -0.052,0.542 C -0.018,0.367 0,0.185 0,0" style="fill:#fff;fill-opacity:1;fill-rule:nonzero;stroke:none"/></g><g id="g44" transform="translate(11.1875,28.7219)"><path id="path46" d="m 0,0 -1.487,-1.491 c 0.348,-0.121 0.666,-0.307 0.939,-0.544 L 0,0 Z" style="fill:#fff;fill-opacity:1;fill-rule:nonzero;stroke:none"/></g><g id="g48" transform="translate(10.9371,22.6104)"><path id="path50" d="M 0,0 2.035,-0.548 0.544,0.939 C 0.423,0.591 0.237,0.273 0,0" style="fill:#fff;fill-opacity:1;fill-rule:nonzero;stroke:none"/></g><g id="g52" transform="translate(6.3125,20.2781)"><path id="path54" d="M 0,0 1.487,1.491 C 1.139,1.612 0.821,1.798 0.548,2.035 L 0,0 Z" style="fill:#fff;fill-opacity:1;fill-rule:nonzero;stroke:none"/></g><g id="g56" transform="translate(6.5629,26.3897)"><path id="path58" d="m 0,0 -2.035,0.548 1.491,-1.487 C -0.423,-0.591 -0.237,-0.273 0,0" style="fill:#fff;fill-opacity:1;fill-rule:nonzero;stroke:none"/></g><g id="g60" transform="translate(9.7005,21.7687)"><path id="path62" d="M 0,0 1.487,-1.491 0.939,0.544 C 0.666,0.308 0.348,0.121 0,0" style="fill:#fff;fill-opacity:1;fill-rule:nonzero;stroke:none"/></g><g id="g64" transform="translate(6.0187,23.5496)"><path id="path66" d="m 0,0 -1.491,-1.487 2.035,0.548 C 0.308,-0.666 0.121,-0.348 0,0" style="fill:#fff;fill-opacity:1;fill-rule:nonzero;stroke:none"/></g><g id="g68" transform="translate(7.7995,27.2313)"><path id="path70" d="m 0,0 -1.487,1.491 0.548,-2.035 C -0.666,-0.308 -0.348,-0.122 0,0" style="fill:#fff;fill-opacity:1;fill-rule:nonzero;stroke:none"/></g><g id="g72" transform="translate(12.9719,26.9375)"><path id="path74" d="m 0,0 -2.035,-0.548 c 0.237,-0.273 0.423,-0.591 0.544,-0.939 L 0,0 Z" style="fill:#fff;fill-opacity:1;fill-rule:nonzero;stroke:none"/></g><g id="g76" transform="translate(8.75,26.9375)"><path id="path78" d="m 0,0 c -1.346,0 -2.438,-1.091 -2.438,-2.438 0,-1.346 1.092,-2.437 2.438,-2.437 1.346,0 2.438,1.091 2.438,2.437 C 2.438,-1.091 1.346,0 0,0" style="fill:#fff;fill-opacity:1;fill-rule:nonzero;stroke:none"/></g></g></g></g></svg>