<svg xmlns="http://www.w3.org/2000/svg" xmlns:svg="http://www.w3.org/2000/svg" style="enable-background:new 0 0 45 45" id="svg2" version="1.1" viewBox="0 0 45 45" xml:space="preserve"><metadata id="metadata8"/><defs id="defs6"><clipPath id="clipPath16" clipPathUnits="userSpaceOnUse"><path id="path18" d="M 0,36 36,36 36,0 0,0 0,36 Z"/></clipPath><clipPath id="clipPath28" clipPathUnits="userSpaceOnUse"><path id="path30" d="M 4,31 C 1.791,31 0,29.209 0,27 L 0,27 0,9 C 0,6.791 1.791,5 4,5 l 0,0 28,0 c 2.209,0 4,1.791 4,4 l 0,0 0,18 c 0,2.209 -1.791,4 -4,4 l 0,0 -28,0 z"/></clipPath><clipPath id="clipPath46" clipPathUnits="userSpaceOnUse"><path id="path48" d="M 0,36 36,36 36,0 0,0 0,36 Z"/></clipPath></defs><g id="g10" transform="matrix(1.25,0,0,-1.25,0,45)"><g id="g12"><g id="g14" clip-path="url(#clipPath16)"><g id="g20" transform="translate(36,9)"><path id="path22" d="m 0,0 c 0,-2.209 -1.791,-4 -4,-4 l -28,0 c -2.209,0 -4,1.791 -4,4 l 0,18 c 0,2.209 1.791,4 4,4 l 28,0 c 2.209,0 4,-1.791 4,-4 L 0,0 Z" style="fill:#d21034;fill-opacity:1;fill-rule:nonzero;stroke:none"/></g></g></g><g id="g24"><g id="g26" clip-path="url(#clipPath28)"><path id="path32" d="M 36,18 0,18 0,5 36,5 36,18 Z" style="fill:#009543;fill-opacity:1;fill-rule:nonzero;stroke:none"/><g id="g34" transform="translate(-1,31.9585)"><path id="path36" d="m 0,0 18,-10.958 19,0 0,-6 -19,0 -18,-11 L 0,0 Z" style="fill:#141414;fill-opacity:1;fill-rule:nonzero;stroke:none"/></g><g id="g38" transform="translate(36,19)"><path id="path40" d="m 0,0 0,-2 -19,0 -18,-11 0,24 18,-11 19,0 z" style="fill:#fdce12;fill-opacity:1;fill-rule:nonzero;stroke:none"/></g></g></g><g id="g42"><g id="g44" clip-path="url(#clipPath46)"><g id="g50" transform="translate(0,27)"><path id="path52" d="M 0,0 15,-9 0,-18 0,0 Z" style="fill:#141414;fill-opacity:1;fill-rule:nonzero;stroke:none"/></g><g id="g54" transform="translate(4.375,14.3945)"><path id="path56" d="m 0,0 c 0,0 3.25,0.5 3.25,3.71 0,1.973 -1.708,3.062 -3.042,3.062 -1.333,0 -2.75,-0.999 -2.75,-2.75 0,-1.751 1.625,-2.292 2.417,-2.292 0.792,0 2,0.625 1.833,2 C 1.244,1.817 -0.704,1.872 -1.458,3.022 -2.292,4.293 -1,6.105 0.667,5.605 2.246,5.132 2.328,3.525 1.792,2.521 1.125,1.271 0.021,1.334 0.021,1.334 L 0,0 Z" style="fill:#fdce12;fill-opacity:1;fill-rule:nonzero;stroke:none"/></g><g id="g58" transform="translate(3.417,17.2705)"><path id="path60" d="M 0,0 C 0,0 -0.032,0.446 0.167,0.708 0.812,1.562 1.958,2.167 2.104,2.083 2.25,2 1.708,1.834 1.146,1.167 0.876,0.848 0.713,0.54 0.5,0.333 0.269,0.108 0,0 0,0" style="fill:#fdce12;fill-opacity:1;fill-rule:nonzero;stroke:none"/></g><g id="g62" transform="translate(5.543,17.2705)"><path id="path64" d="M 0,0 C 0,0 0.032,0.446 -0.167,0.708 -0.812,1.562 -1.958,2.167 -2.104,2.083 -2.25,2 -1.708,1.834 -1.146,1.167 -0.876,0.848 -0.713,0.54 -0.5,0.333 -0.269,0.108 0,0 0,0" style="fill:#fdce12;fill-opacity:1;fill-rule:nonzero;stroke:none"/></g></g></g></g></svg>