<svg xmlns="http://www.w3.org/2000/svg" xmlns:svg="http://www.w3.org/2000/svg" style="enable-background:new 0 0 45 45" id="svg2" version="1.1" viewBox="0 0 45 45" xml:space="preserve"><metadata id="metadata8"/><defs id="defs6"><clipPath id="clipPath16" clipPathUnits="userSpaceOnUse"><path id="path18" d="M 4,31 C 1.791,31 0,29.209 0,27 L 0,27 0,9 C 0,6.791 1.791,5 4,5 l 0,0 28,0 c 2.209,0 4,1.791 4,4 l 0,0 0,18 c 0,2.209 -1.791,4 -4,4 l 0,0 -28,0 z"/></clipPath></defs><g id="g10" transform="matrix(1.25,0,0,-1.25,0,45)"><g id="g12"><g id="g14" clip-path="url(#clipPath16)"><g id="g20" transform="translate(11,31)"><path id="path22" d="M 0,0 5.295,-1.444 0,-2.889 5.295,-4.333 0,-5.778 5.295,-7.222 0,-8.667 5.295,-10.111 0,-11.556 5.295,-13 0,-14.444 5.295,-15.889 0,-17.333 5.295,-18.778 0,-20.222 5.295,-21.667 0,-23.111 5.295,-24.556 0,-26 25,-26 25,0 0,0 Z" style="fill:#8d1b3d;fill-opacity:1;fill-rule:nonzero;stroke:none"/></g><g id="g24" transform="translate(11,7.8889)"><path id="path26" d="M 0,0 5.295,1.444 0,2.889 5.295,4.333 0,5.778 5.295,7.222 0,8.667 5.295,10.111 0,11.556 5.295,13 0,14.444 5.295,15.889 0,17.333 5.295,18.778 0,20.222 5.295,21.667 0,23.111 l -11,0 0,-26 11,0 5.295,1.445 L 0,0 Z" style="fill:#eee;fill-opacity:1;fill-rule:nonzero;stroke:none"/></g></g></g></g></svg>