<svg xmlns="http://www.w3.org/2000/svg" xmlns:svg="http://www.w3.org/2000/svg" style="enable-background:new 0 0 45 45" id="svg2" version="1.1" viewBox="0 0 45 45" xml:space="preserve"><metadata id="metadata8"/><defs id="defs6"><clipPath id="clipPath16" clipPathUnits="userSpaceOnUse"><path id="path18" d="M 0,36 36,36 36,0 0,0 0,36 Z"/></clipPath></defs><g id="g10" transform="matrix(1.25,0,0,-1.25,0,45)"><g id="g12"><g id="g14" clip-path="url(#clipPath16)"><g id="g20" transform="translate(32,31)"><path id="path22" d="m 0,0 -8,0 0,-26 8,0 c 2.209,0 4,1.791 4,4 L 4,-4 C 4,-1.791 2.209,0 0,0" style="fill:#dd2e44;fill-opacity:1;fill-rule:nonzero;stroke:none"/></g><g id="g24" transform="translate(4,31)"><path id="path26" d="m 0,0 c -2.209,0 -4,-1.791 -4,-4 l 0,-18 c 0,-2.209 1.791,-4 4,-4 l 8,0 0,26 -8,0 z" style="fill:#265fb5;fill-opacity:1;fill-rule:nonzero;stroke:none"/></g><path id="path28" d="M 12,5 24,5 24,31 12,31 12,5 Z" style="fill:#ffcc4d;fill-opacity:1;fill-rule:nonzero;stroke:none"/><path id="path30" d="m 20,18 -4,0 0,3 4,0 0,-3 z" style="fill:#dd2e44;fill-opacity:1;fill-rule:nonzero;stroke:none"/><g id="g32" transform="translate(16,18)"><path id="path34" d="M 0,0 0,-2 2,-3 4,-2 4,0 0,0 Z" style="fill:#269;fill-opacity:1;fill-rule:nonzero;stroke:none"/></g><g id="g36" transform="translate(16,25)"><path id="path38" d="m 0,0 0,-1 1,0 0,-2 2,0 0,2 0,1 -3,0 z" style="fill:#a0724a;fill-opacity:1;fill-rule:nonzero;stroke:none"/></g><g id="g40" transform="translate(19,15)"><path id="path42" d="M 0,0 -1,-0.625 -2,0 -3,-3 -1,-4 1,-3 0,0 Z" style="fill:#a0724a;fill-opacity:1;fill-rule:nonzero;stroke:none"/></g><g id="g44" transform="translate(15,23)"><path id="path46" d="m 0,0 -1,1 -1,-1 0,-8 0,-2 2,2 0,7 1,0 -1,1 z" style="fill:#a0724a;fill-opacity:1;fill-rule:nonzero;stroke:none"/></g><g id="g48" transform="translate(22,24)"><path id="path50" d="m 0,0 -1,-1 -1,-1 1,0 0,-7 2,-2 0,2 0,8 -1,1 z" style="fill:#a0724a;fill-opacity:1;fill-rule:nonzero;stroke:none"/></g><path id="path52" d="m 16.766,18 -0.531,0 0,0.406 0.531,0 0,-0.406 z" style="fill:#ffcc4d;fill-opacity:1;fill-rule:nonzero;stroke:none"/><path id="path54" d="m 19.766,18 -0.531,0 0,0.406 0.531,0 0,-0.406 z" style="fill:#ffcc4d;fill-opacity:1;fill-rule:nonzero;stroke:none"/><g id="g56" transform="translate(15.6372,13.2568)"><path id="path58" d="m 0,0 c -0.106,-0.062 -0.263,0.01 -0.35,0.159 l -2.232,3.866 c -0.086,0.151 -0.07,0.322 0.037,0.383 l 0.135,0.078 c 0.107,0.062 0.264,-0.009 0.349,-0.159 L 0.172,0.46 C 0.259,0.311 0.242,0.14 0.136,0.078 L 0,0 Z" style="fill:#77b255;fill-opacity:1;fill-rule:nonzero;stroke:none"/></g><g id="g60" transform="translate(22.8174,17.6074)"><path id="path62" d="M 0,0 C 0.107,-0.061 0.125,-0.23 0.039,-0.377 L -2.152,-4.175 C -2.238,-4.322 -2.393,-4.391 -2.5,-4.33 l -0.135,0.078 c -0.106,0.063 -0.124,0.231 -0.039,0.378 l 2.193,3.798 c 0.085,0.146 0.24,0.217 0.346,0.154 L 0,0 Z" style="fill:#ffcc4d;fill-opacity:1;fill-rule:nonzero;stroke:none"/></g><g id="g64" transform="translate(16,15)"><path id="path66" d="m 0,0 -1,-1 0,-1 1,1 0,1 z" style="fill:#dd2e44;fill-opacity:1;fill-rule:nonzero;stroke:none"/></g><g id="g68" transform="translate(20,15)"><path id="path70" d="M 0,0 0,-1 1,-2 1,-1 0,0 Z" style="fill:#dd2e44;fill-opacity:1;fill-rule:nonzero;stroke:none"/></g><g id="g72" transform="translate(18,19)"><path id="path74" d="M 0,0 -1,1 -1,0 -1,-1.958 0,-3 1,-1.958 1,0 1,1 0,0 Z" style="fill:#ffcc4d;fill-opacity:1;fill-rule:nonzero;stroke:none"/></g></g></g></g></svg>