<svg xmlns="http://www.w3.org/2000/svg" xmlns:svg="http://www.w3.org/2000/svg" style="enable-background:new 0 0 45 45" id="svg2" version="1.1" viewBox="0 0 45 45" xml:space="preserve"><metadata id="metadata8"/><defs id="defs6"><clipPath id="clipPath16" clipPathUnits="userSpaceOnUse"><path id="path18" d="M 4,31 C 1.791,31 0,29.209 0,27 L 0,27 0,9 C 0,6.791 1.791,5 4,5 l 0,0 28,0 c 2.209,0 4,1.791 4,4 l 0,0 0,18 c 0,2.209 -1.791,4 -4,4 l 0,0 -28,0 z"/></clipPath></defs><g id="g10" transform="matrix(1.25,0,0,-1.25,0,45)"><g id="g12"><g id="g14" clip-path="url(#clipPath16)"><g id="g20" transform="translate(36,31)"><path id="path22" d="m 0,0 -14.473,-10.453 c -0.202,0.279 -0.434,0.534 -0.695,0.757 L -5.5,0 -16,0 -17.555,-8.666 c -0.147,0.015 -0.295,0.023 -0.445,0.023 -0.15,0 -0.298,-0.008 -0.445,-0.023 L -20,0 l -10.5,0 9.668,-9.696 c -0.261,-0.223 -0.493,-0.478 -0.695,-0.757 L -36,0 l 0,-10.5 13.689,-1.901 c -0.027,-0.197 -0.046,-0.395 -0.046,-0.599 0,-0.204 0.019,-0.402 0.046,-0.599 L -36,-15.5 l 0,-10.5 14.473,10.453 c 0.202,-0.279 0.434,-0.534 0.695,-0.757 L -30.5,-26 l 10.5,0 1.555,8.666 c 0.147,-0.015 0.295,-0.023 0.445,-0.023 0.15,0 0.298,0.008 0.445,0.023 L -16,-26 l 10.5,0 -9.668,9.696 c 0.261,0.223 0.493,0.478 0.695,0.757 L 0,-26 l 0,10.5 -13.689,1.901 c 0.027,0.197 0.046,0.395 0.046,0.599 0,0.204 -0.019,0.402 -0.046,0.599 L 0,-10.5 0,0 Z" style="fill:#d20000;fill-opacity:1;fill-rule:nonzero;stroke:none"/></g><g id="g24" transform="translate(13.6431,18)"><path id="path26" d="m 0,0 c 0,0.204 0.019,0.402 0.046,0.599 l -13.689,1.901 0,-5 13.689,1.901 C 0.019,-0.402 0,-0.204 0,0" style="fill:#ffe600;fill-opacity:1;fill-rule:nonzero;stroke:none"/></g><g id="g28" transform="translate(18,22.3569)"><path id="path30" d="M 0,0 C 0.15,0 0.298,-0.008 0.445,-0.023 L 2,8.643 l -4,0 1.555,-8.666 C -0.298,-0.008 -0.15,0 0,0" style="fill:#ffe600;fill-opacity:1;fill-rule:nonzero;stroke:none"/></g><g id="g32" transform="translate(21.5272,20.5474)"><path id="path34" d="m 0,0 14.473,10.453 -5.5,0 -9.668,-9.696 C -0.435,0.533 -0.202,0.279 0,0" style="fill:#ffe600;fill-opacity:1;fill-rule:nonzero;stroke:none"/></g><g id="g36" transform="translate(18,13.6431)"><path id="path38" d="M 0,0 C -0.15,0 -0.298,0.008 -0.445,0.023 L -2,-8.643 l 4,0 -1.555,8.666 C 0.298,0.008 0.15,0 0,0" style="fill:#ffe600;fill-opacity:1;fill-rule:nonzero;stroke:none"/></g><g id="g40" transform="translate(15.1681,21.3043)"><path id="path42" d="m 0,0 -9.668,9.696 -5.5,0 14.473,-10.453 C -0.493,-0.478 -0.261,-0.224 0,0" style="fill:#ffe600;fill-opacity:1;fill-rule:nonzero;stroke:none"/></g><g id="g44" transform="translate(14.4728,15.4526)"><path id="path46" d="m 0,0 -14.473,-10.453 5.5,0 9.668,9.696 C 0.435,-0.533 0.202,-0.279 0,0" style="fill:#ffe600;fill-opacity:1;fill-rule:nonzero;stroke:none"/></g><g id="g48" transform="translate(20.8319,14.6957)"><path id="path50" d="m 0,0 9.668,-9.696 5.5,0 L 0.695,0.757 C 0.493,0.478 0.261,0.224 0,0" style="fill:#ffe600;fill-opacity:1;fill-rule:nonzero;stroke:none"/></g><g id="g52" transform="translate(22.3569,18)"><path id="path54" d="m 0,0 c 0,-0.204 -0.019,-0.402 -0.046,-0.599 l 13.689,-1.901 0,5 L -0.046,0.599 C -0.019,0.402 0,0.204 0,0" style="fill:#ffe600;fill-opacity:1;fill-rule:nonzero;stroke:none"/></g><g id="g56" transform="translate(18,21.3569)"><path id="path58" d="m 0,0 c -1.851,0 -3.357,-1.506 -3.357,-3.357 0,-1.851 1.506,-3.357 3.357,-3.357 1.851,0 3.357,1.506 3.357,3.357 C 3.357,-1.506 1.851,0 0,0" style="fill:#ffe600;fill-opacity:1;fill-rule:nonzero;stroke:none"/></g></g></g></g></svg>