<svg xmlns="http://www.w3.org/2000/svg" xmlns:svg="http://www.w3.org/2000/svg" style="enable-background:new 0 0 45 45" id="svg2" version="1.1" viewBox="0 0 45 45" xml:space="preserve"><metadata id="metadata8"/><defs id="defs6"><clipPath id="clipPath16" clipPathUnits="userSpaceOnUse"><path id="path18" d="M 4,31 C 1.791,31 0,29.209 0,27 L 0,27 0,9 C 0,6.791 1.791,5 4,5 l 0,0 28,0 c 2.209,0 4,1.791 4,4 l 0,0 0,18 c 0,2.209 -1.791,4 -4,4 l 0,0 -28,0 z"/></clipPath></defs><g id="g10" transform="matrix(1.25,0,0,-1.25,0,45)"><g id="g12"><g id="g14" clip-path="url(#clipPath16)"><g id="g20" transform="translate(18,11.5)"><path id="path22" d="M 0,0 C -3.59,0 -6.5,2.91 -6.5,6.5 -6.5,10.09 -3.59,13 0,13 3.59,13 6.5,10.09 6.5,6.5 6.5,2.91 3.59,0 0,0 m -18,-6.5 36,0 0,26 -36,0 0,-26 z" style="fill:#e70013;fill-opacity:1;fill-rule:nonzero;stroke:none"/></g><g id="g24" transform="translate(18,24.5)"><path id="path26" d="m 0,0 c -3.59,0 -6.5,-2.91 -6.5,-6.5 0,-3.59 2.91,-6.5 6.5,-6.5 3.59,0 6.5,2.91 6.5,6.5 C 6.5,-2.91 3.59,0 0,0" style="fill:#fff;fill-opacity:1;fill-rule:nonzero;stroke:none"/></g><g id="g28" transform="translate(15.4,18)"><path id="path30" d="M 0,0 C 0,2.154 1.746,3.9 3.9,3.9 4.919,3.9 5.846,3.509 6.541,2.869 5.655,4.085 4.22,4.875 2.6,4.875 -0.092,4.875 -2.275,2.692 -2.275,0 c 0,-2.692 2.183,-4.875 4.875,-4.875 1.62,0 3.055,0.79 3.941,2.006 C 5.846,-3.509 4.919,-3.9 3.9,-3.9 1.746,-3.9 0,-2.154 0,0" style="fill:#e70013;fill-opacity:1;fill-rule:nonzero;stroke:none"/></g><g id="g32" transform="translate(19.6452,19.0626)"><path id="path34" d="m 0,0 -1.249,1.719 0,-2.125 -2.021,-0.657 2.021,-0.656 0,-2.125 L 0,-2.125 2.021,-2.782 0.772,-1.063 2.021,0.657 0,0 Z" style="fill:#e70013;fill-opacity:1;fill-rule:nonzero;stroke:none"/></g></g></g></g></svg>