<svg xmlns="http://www.w3.org/2000/svg" xmlns:svg="http://www.w3.org/2000/svg" style="enable-background:new 0 0 45 45" id="svg2" version="1.1" viewBox="0 0 45 45" xml:space="preserve"><metadata id="metadata8"/><defs id="defs6"><clipPath id="clipPath16" clipPathUnits="userSpaceOnUse"><path id="path18" d="M 0,36 36,36 36,0 0,0 0,36 Z"/></clipPath></defs><g id="g10" transform="matrix(1.25,0,0,-1.25,0,45)"><g id="g12"><g id="g14" clip-path="url(#clipPath16)"><g id="g20" transform="translate(36,9)"><path id="path22" d="m 0,0 c 0,-2.209 -1.791,-4 -4,-4 l -28,0 c -2.209,0 -4,1.791 -4,4 l 0,18 c 0,2.209 1.791,4 4,4 l 28,0 c 2.209,0 4,-1.791 4,-4 L 0,0 Z" style="fill:#002b7f;fill-opacity:1;fill-rule:nonzero;stroke:none"/></g><path id="path24" d="m 36,17 -36,0 0,2 36,0 0,-2 z" style="fill:#ffc61e;fill-opacity:1;fill-rule:nonzero;stroke:none"/><g id="g26" transform="translate(9.979,16.5215)"><path id="path28" d="M 0,0 0.492,-1.966 1.901,-0.51 1.345,-2.458 3.294,-1.901 1.837,-3.311 3.803,-3.803 1.837,-4.295 3.294,-5.704 1.345,-5.148 1.901,-7.097 0.492,-5.64 0,-7.605 l -0.492,1.965 -1.409,-1.457 0.556,1.949 -1.948,-0.556 1.456,1.409 -1.966,0.492 1.966,0.492 -1.456,1.41 1.948,-0.557 -0.556,1.948 1.409,-1.456 L 0,0 Z" style="fill:#fff;fill-opacity:1;fill-rule:nonzero;stroke:none"/></g></g></g></g></svg>