<svg xmlns="http://www.w3.org/2000/svg" xmlns:svg="http://www.w3.org/2000/svg" style="enable-background:new 0 0 45 45" id="svg2" version="1.1" viewBox="0 0 45 45" xml:space="preserve"><metadata id="metadata8"/><defs id="defs6"><clipPath id="clipPath16" clipPathUnits="userSpaceOnUse"><path id="path18" d="M 0,36 36,36 36,0 0,0 0,36 Z"/></clipPath></defs><g id="g10" transform="matrix(1.25,0,0,-1.25,0,45)"><g id="g12"><g id="g14" clip-path="url(#clipPath16)"><g id="g20" transform="translate(36,9)"><path id="path22" d="m 0,0 c 0,-2.209 -1.791,-4 -4,-4 l -28,0 c -2.209,0 -4,1.791 -4,4 l 0,18 c 0,2.209 1.791,4 4,4 l 28,0 c 2.209,0 4,-1.791 4,-4 L 0,0 Z" style="fill:#060;fill-opacity:1;fill-rule:nonzero;stroke:none"/></g><path id="path24" d="M 36,13 0,13 0,23 36,23 36,13 Z" style="fill:#bb1600;fill-opacity:1;fill-rule:nonzero;stroke:none"/><g id="g26" transform="translate(32,31)"><path id="path28" d="m 0,0 -28,0 c -2.209,0 -4,-1.791 -4,-4 l 0,-4 36,0 0,4 C 4,-1.791 2.209,0 0,0" style="fill:#141414;fill-opacity:1;fill-rule:nonzero;stroke:none"/></g><path id="path30" d="m 36,22 -36,0 0,1 36,0 0,-1 z" style="fill:#eee;fill-opacity:1;fill-rule:nonzero;stroke:none"/><path id="path32" d="m 36,13 -36,0 0,1 36,0 0,-1 z" style="fill:#eee;fill-opacity:1;fill-rule:nonzero;stroke:none"/><g id="g34" transform="translate(13.7798,10.6172)"><path id="path36" d="m 0,0 7.28,12.234 c 0.542,-0.151 0.935,0.532 1.29,1.592 0.418,1.242 0.759,2.085 0.688,2.127 C 9.186,15.996 8.609,15.293 7.715,14.335 6.944,13.505 6.531,12.826 6.951,12.425 L -0.327,0.193 C -0.381,0.104 -0.054,-0.094 0,0" style="fill:#fff;fill-opacity:1;fill-rule:nonzero;stroke:none"/></g><g id="g38" transform="translate(13.7798,10.6172)"><path id="path40" d="m 0,0 7.28,12.234 c 0.542,-0.151 0.935,0.532 1.29,1.592 0.418,1.242 0.759,2.085 0.688,2.127 C 9.186,15.996 8.609,15.293 7.715,14.335 6.944,13.505 6.531,12.826 6.951,12.425 L -0.327,0.193 C -0.381,0.104 -0.054,-0.094 0,0 Z" style="fill:none;stroke:#141414;stroke-width:.06;stroke-linecap:butt;stroke-linejoin:miter;stroke-miterlimit:4;stroke-dasharray:none;stroke-opacity:1"/></g><g id="g42" transform="translate(22.2188,10.6172)"><path id="path44" d="m 0,0 -7.279,12.234 c -0.542,-0.151 -0.935,0.532 -1.291,1.592 -0.417,1.242 -0.758,2.085 -0.687,2.127 0.07,0.043 0.649,-0.66 1.541,-1.618 0.773,-0.83 1.187,-1.509 0.767,-1.91 L 0.328,0.193 C 0.383,0.104 0.056,-0.094 0,0" style="fill:#fff;fill-opacity:1;fill-rule:nonzero;stroke:none"/></g><g id="g46" transform="translate(22.2188,10.6172)"><path id="path48" d="m 0,0 -7.279,12.234 c -0.542,-0.151 -0.935,0.532 -1.291,1.592 -0.417,1.242 -0.758,2.085 -0.687,2.127 0.07,0.043 0.649,-0.66 1.541,-1.618 0.773,-0.83 1.187,-1.509 0.767,-1.91 L 0.328,0.193 C 0.383,0.104 0.056,-0.094 0,0 Z" style="fill:none;stroke:#141414;stroke-width:.06;stroke-linecap:butt;stroke-linejoin:miter;stroke-miterlimit:4;stroke-dasharray:none;stroke-opacity:1"/></g><g id="g50" transform="translate(17.9995,10.5195)"><path id="path52" d="M 0,0 C 2.493,1.87 3.692,4.362 3.692,7.5 3.692,10.638 2.493,13.13 0,14.999 -2.492,13.13 -3.692,10.638 -3.692,7.5 -3.692,4.362 -2.492,1.87 0,0" style="fill:#bb1600;fill-opacity:1;fill-rule:nonzero;stroke:none"/></g><g id="g54" transform="translate(17.9995,10.5195)"><path id="path56" d="M 0,0 C 2.493,1.87 3.692,4.362 3.692,7.5 3.692,10.638 2.493,13.13 0,14.999 -2.492,13.13 -3.692,10.638 -3.692,7.5 -3.692,4.362 -2.492,1.87 0,0 Z" style="fill:none;stroke:#141414;stroke-width:.06;stroke-linecap:butt;stroke-linejoin:miter;stroke-miterlimit:4;stroke-dasharray:none;stroke-opacity:1"/></g><g id="g58" transform="translate(15.1016,14.0459)"><path id="path60" d="M 0,0 C 0.533,1.184 0.793,2.499 0.793,3.965 0.793,5.43 0.533,6.746 0,7.931 -0.532,6.746 -0.794,5.43 -0.794,3.965 -0.794,2.499 -0.532,1.184 0,0" style="fill:#141414;fill-opacity:1;fill-rule:nonzero;stroke:none"/></g><g id="g62" transform="translate(15.1016,14.0459)"><path id="path64" d="M 0,0 C 0.533,1.184 0.793,2.499 0.793,3.965 0.793,5.43 0.533,6.746 0,7.931 -0.532,6.746 -0.794,5.43 -0.794,3.965 -0.794,2.499 -0.532,1.184 0,0 Z" style="fill:none;stroke:#141414;stroke-width:.02;stroke-linecap:butt;stroke-linejoin:miter;stroke-miterlimit:4;stroke-dasharray:none;stroke-opacity:1"/></g><g id="g66" transform="translate(20.9033,14.0459)"><path id="path68" d="M 0,0 C -0.531,1.184 -0.794,2.499 -0.794,3.965 -0.794,5.43 -0.531,6.746 0,7.931 0.532,6.746 0.793,5.43 0.793,3.965 0.793,2.499 0.532,1.184 0,0" style="fill:#141414;fill-opacity:1;fill-rule:nonzero;stroke:none"/></g><g id="g70" transform="translate(20.9033,14.0459)"><path id="path72" d="M 0,0 C -0.531,1.184 -0.794,2.499 -0.794,3.965 -0.794,5.43 -0.531,6.746 0,7.931 0.532,6.746 0.793,5.43 0.793,3.965 0.793,2.499 0.532,1.184 0,0 Z" style="fill:none;stroke:#141414;stroke-width:.02;stroke-linecap:butt;stroke-linejoin:miter;stroke-miterlimit:4;stroke-dasharray:none;stroke-opacity:1"/></g><g id="g74" transform="translate(17.9995,17.0732)"><path id="path76" d="M 0,0 C 0.306,0 0.555,0.424 0.555,0.946 0.555,1.469 0.306,1.893 0,1.893 -0.306,1.893 -0.554,1.469 -0.554,0.946 -0.554,0.424 -0.306,0 0,0" style="fill:#fff;fill-opacity:1;fill-rule:nonzero;stroke:none"/></g><g id="g78" transform="translate(17.7686,19.5703)"><path id="path80" d="m 0,0 c -0.502,0.739 -0.746,1.677 -0.746,2.821 0,1.145 0.244,2.084 0.746,2.823 L 0,0 Z" style="fill:#fff;fill-opacity:1;fill-rule:nonzero;stroke:none"/></g><g id="g82" transform="translate(18.231,19.5703)"><path id="path84" d="M 0,0 C 0.501,0.739 0.744,1.677 0.744,2.821 0.744,3.966 0.501,4.905 0,5.644 L 0,0 Z" style="fill:#fff;fill-opacity:1;fill-rule:nonzero;stroke:none"/></g><g id="g86" transform="translate(17.7686,16.4697)"><path id="path88" d="m 0,0 c -0.502,-0.738 -0.746,-1.677 -0.746,-2.821 0,-1.146 0.244,-2.082 0.746,-2.822 L 0,0 Z" style="fill:#fff;fill-opacity:1;fill-rule:nonzero;stroke:none"/></g><g id="g90" transform="translate(18.231,16.4697)"><path id="path92" d="M 0,0 C 0.501,-0.738 0.744,-1.677 0.744,-2.821 0.744,-3.967 0.501,-4.903 0,-5.643 L 0,0 Z" style="fill:#fff;fill-opacity:1;fill-rule:nonzero;stroke:none"/></g></g></g></g></svg>