<svg xmlns="http://www.w3.org/2000/svg" xmlns:svg="http://www.w3.org/2000/svg" style="enable-background:new 0 0 45 45" id="svg2" version="1.1" viewBox="0 0 45 45" xml:space="preserve"><metadata id="metadata8"/><defs id="defs6"><clipPath id="clipPath16" clipPathUnits="userSpaceOnUse"><path id="path18" d="M 0,36 36,36 36,0 0,0 0,36 Z"/></clipPath><clipPath id="clipPath56" clipPathUnits="userSpaceOnUse"><path id="path58" d="M 4,31 C 1.791,31 0,29.209 0,27 l 0,0 0,-9 19,0 0,13 -15,0 z"/></clipPath><clipPath id="clipPath72" clipPathUnits="userSpaceOnUse"><path id="path74" d="M 0,36 36,36 36,0 0,0 0,36 Z"/></clipPath></defs><g id="g10" transform="matrix(1.25,0,0,-1.25,0,45)"><g id="g12"><g id="g14" clip-path="url(#clipPath16)"><g id="g20" transform="translate(36,9)"><path id="path22" d="m 0,0 c 0,-2.209 -1.791,-4 -4,-4 l -28,0 c -2.209,0 -4,1.791 -4,4 l 0,18 c 0,2.209 1.791,4 4,4 l 28,0 c 2.209,0 4,-1.791 4,-4 L 0,0 Z" style="fill:#ffe150;fill-opacity:1;fill-rule:nonzero;stroke:none"/></g><g id="g24" transform="translate(19,31)"><path id="path26" d="m 0,0 -15,0 c -2.209,0 -4,-1.791 -4,-4 l 0,-9 19,0 0,13 z" style="fill:#00247d;fill-opacity:1;fill-rule:nonzero;stroke:none"/></g><g id="g28" transform="translate(19,18)"><path id="path30" d="M 0,0 0,2.029 -7.1,7 -12.329,7 -2.332,0 0,0 Z" style="fill:#eee;fill-opacity:1;fill-rule:nonzero;stroke:none"/></g><g id="g32" transform="translate(19,19.4185)"><path id="path34" d="m 0,0 -7.971,5.581 -1.743,0 L 0,-1.22 0,0 Z" style="fill:#cf1b2b;fill-opacity:1;fill-rule:nonzero;stroke:none"/></g><g id="g36" transform="translate(8.0996,25)"><path id="path38" d="M 0,0 -8.1,-5.766 -8.1,-7 -4.768,-7 5.23,0 0,0 Z" style="fill:#eee;fill-opacity:1;fill-rule:nonzero;stroke:none"/></g><g id="g40" transform="translate(10.7139,25)"><path id="path42" d="m 0,0 -9.98,-7 0.266,0 1.461,0 L 1.744,0 0,0 Z" style="fill:#cf1b2b;fill-opacity:1;fill-rule:nonzero;stroke:none"/></g><g id="g44" transform="translate(16.6689,31)"><path id="path46" d="m 0,0 -9.997,-7 5.229,0 7.099,4.97 0,2.03 L 0,0 Z" style="fill:#eee;fill-opacity:1;fill-rule:nonzero;stroke:none"/></g><g id="g48" transform="translate(17.5396,31)"><path id="path50" d="M 0,0 -9.997,-7 -8.253,-7 1.46,-0.198 1.46,0 0,0 Z" style="fill:#cf1b2b;fill-opacity:1;fill-rule:nonzero;stroke:none"/></g></g></g><g id="g52"><g id="g54" clip-path="url(#clipPath56)"><g id="g60" transform="translate(10,24)"><path id="path62" d="M 0,0 3.329,0 -6.668,7 -9,7 -9.625,5.406 0,-1.331 0,0 Z" style="fill:#eee;fill-opacity:1;fill-rule:nonzero;stroke:none"/></g><g id="g64" transform="translate(10,24)"><path id="path66" d="M 0,0 0.714,0 -9,6.802 -9.5,5.937 0,-0.722 0,0 Z" style="fill:#cf1b2b;fill-opacity:1;fill-rule:nonzero;stroke:none"/></g></g></g><g id="g68"><g id="g70" clip-path="url(#clipPath72)"><g id="g76" transform="translate(19,27)"><path id="path78" d="m 0,0 -7,0 0,4 -5,0 0,-4 -7,0 0,-5 7,0 0,-4 5,0 0,4 7,0 0,5 z" style="fill:#eee;fill-opacity:1;fill-rule:nonzero;stroke:none"/></g><path id="path80" d="m 11,18 -3,0 0,13 3,0 0,-13 z" style="fill:#cf1b2b;fill-opacity:1;fill-rule:nonzero;stroke:none"/><path id="path82" d="m 19,23 -19,0 0,3 19,0 0,-3 z" style="fill:#cf1b2b;fill-opacity:1;fill-rule:nonzero;stroke:none"/><g id="g84" transform="translate(12,24.5)"><path id="path86" d="M 0,0 C 0,-1.381 -1.119,-2.5 -2.5,-2.5 -3.881,-2.5 -5,-1.381 -5,0 -5,1.381 -3.881,2.5 -2.5,2.5 -1.119,2.5 0,1.381 0,0" style="fill:#004a77;fill-opacity:1;fill-rule:nonzero;stroke:none"/></g><g id="g88" transform="translate(9.5,27.0342)"><path id="path90" d="M 0,0 0.599,-1.601 2.423,-1.638 0.969,-2.863 1.498,-4.609 0,-3.567 l -1.498,-1.042 0.529,1.746 -1.454,1.225 1.824,0.037 L 0,0 Z" style="fill:#ffe150;fill-opacity:1;fill-rule:nonzero;stroke:none"/></g><g id="g92" transform="translate(3.8242,25.5146)"><path id="path94" d="M 0,0 0.246,-0.707 0.994,-0.723 0.397,-1.175 0.614,-1.891 0,-1.463 l -0.614,-0.428 0.217,0.716 -0.597,0.452 0.748,0.016 L 0,0 Z" style="fill:#ffe150;fill-opacity:1;fill-rule:nonzero;stroke:none"/></g><g id="g96" transform="translate(15.1758,25.5146)"><path id="path98" d="M 0,0 0.246,-0.707 0.994,-0.723 0.398,-1.175 0.614,-1.891 0,-1.463 l -0.614,-0.428 0.217,0.716 -0.597,0.452 0.748,0.016 L 0,0 Z" style="fill:#ffe150;fill-opacity:1;fill-rule:nonzero;stroke:none"/></g><g id="g100" transform="translate(9.5,30.1787)"><path id="path102" d="M 0,0 0.246,-0.707 0.994,-0.723 0.398,-1.175 0.614,-1.891 0,-1.463 l -0.614,-0.428 0.217,0.716 -0.597,0.452 0.748,0.016 L 0,0 Z" style="fill:#ffe150;fill-opacity:1;fill-rule:nonzero;stroke:none"/></g><g id="g104" transform="translate(9.5,20.7119)"><path id="path106" d="M 0,0 0.246,-0.707 0.994,-0.722 0.398,-1.174 0.614,-1.891 0,-1.463 l -0.614,-0.428 0.217,0.717 -0.597,0.452 0.748,0.015 L 0,0 Z" style="fill:#ffe150;fill-opacity:1;fill-rule:nonzero;stroke:none"/></g></g></g></g></svg>