<svg xmlns="http://www.w3.org/2000/svg" xmlns:svg="http://www.w3.org/2000/svg" style="enable-background:new 0 0 45 45" id="svg2" version="1.1" viewBox="0 0 45 45" xml:space="preserve"><metadata id="metadata8"/><defs id="defs6"><clipPath id="clipPath16" clipPathUnits="userSpaceOnUse"><path id="path18" d="M 4,31 C 1.791,31 0,29.209 0,27 L 0,27 0,9 C 0,6.791 1.791,5 4,5 l 0,0 28,0 c 2.209,0 4,1.791 4,4 l 0,0 0,18 c 0,2.209 -1.791,4 -4,4 l 0,0 -28,0 z"/></clipPath></defs><g id="g10" transform="matrix(1.25,0,0,-1.25,0,45)"><g id="g12"><g id="g14" clip-path="url(#clipPath16)"><path id="path20" d="M 0,5 36,5 36,13 0,13 0,5 Z" style="fill:#1eb53a;fill-opacity:1;fill-rule:nonzero;stroke:none"/><path id="path22" d="m 0,23 36,0 0,8 -36,0 0,-8 z" style="fill:#0099b5;fill-opacity:1;fill-rule:nonzero;stroke:none"/><path id="path24" d="m 0,21.5 36,0 0,1.5 -36,0 0,-1.5 z" style="fill:#ce1126;fill-opacity:1;fill-rule:nonzero;stroke:none"/><path id="path26" d="m 0,13 36,0 0,1.5 -36,0 0,-1.5 z" style="fill:#ce1126;fill-opacity:1;fill-rule:nonzero;stroke:none"/><g id="g28" transform="translate(0,18)"><path id="path30" d="m 0,0 0,-3.5 36,0 L 36,0 36,3.5 0,3.5 0,0 Z" style="fill:#eee;fill-opacity:1;fill-rule:nonzero;stroke:none"/></g><g id="g32" transform="translate(4.2,26.84)"><path id="path34" d="M 0,0 C 0,1.546 1.125,2.828 2.6,3.076 2.431,3.104 2.257,3.12 2.08,3.12 0.357,3.12 -1.04,1.723 -1.04,0 c 0,-1.723 1.397,-3.12 3.12,-3.12 0.177,0 0.351,0.016 0.52,0.044 C 1.125,-2.828 0,-1.546 0,0" style="fill:#fff;fill-opacity:1;fill-rule:nonzero;stroke:none"/></g><g id="g36" transform="translate(8.8828,24.5368)"><path id="path38" d="M 0,0 -0.14,0.431 -0.28,0 -0.734,0 -0.367,-0.266 -0.507,-0.698 -0.14,-0.431 0.227,-0.698 0.087,-0.266 0.453,0 0,0 Z" style="fill:#fff;fill-opacity:1;fill-rule:nonzero;stroke:none"/></g><g id="g40" transform="translate(11.5854,24.5368)"><path id="path42" d="M 0,0 -0.14,0.431 -0.28,0 -0.734,0 -0.367,-0.266 -0.507,-0.698 -0.14,-0.431 0.227,-0.698 0.087,-0.266 0.453,0 0,0 Z" style="fill:#fff;fill-opacity:1;fill-rule:nonzero;stroke:none"/></g><g id="g44" transform="translate(11.4453,27.464)"><path id="path46" d="m 0,0 -0.14,-0.431 -0.453,0 0.366,-0.267 -0.14,-0.431 0.367,0.267 0.367,-0.267 -0.14,0.431 0.366,0.267 -0.453,0 L 0,0 Z" style="fill:#fff;fill-opacity:1;fill-rule:nonzero;stroke:none"/></g><g id="g48" transform="translate(14.2881,24.5368)"><path id="path50" d="M 0,0 -0.14,0.431 -0.28,0 -0.734,0 -0.367,-0.266 -0.507,-0.698 -0.14,-0.431 0.227,-0.698 0.087,-0.266 0.453,0 0,0 Z" style="fill:#fff;fill-opacity:1;fill-rule:nonzero;stroke:none"/></g><g id="g52" transform="translate(14.148,27.464)"><path id="path54" d="m 0,0 -0.14,-0.431 -0.453,0 0.366,-0.267 -0.14,-0.431 0.367,0.267 0.367,-0.267 -0.14,0.431 0.366,0.267 -0.453,0 L 0,0 Z" style="fill:#fff;fill-opacity:1;fill-rule:nonzero;stroke:none"/></g><g id="g56" transform="translate(14.148,29.96)"><path id="path58" d="m 0,0 -0.14,-0.431 -0.453,0 0.366,-0.267 -0.14,-0.431 0.367,0.267 0.367,-0.267 -0.14,0.431 0.366,0.267 -0.453,0 L 0,0 Z" style="fill:#fff;fill-opacity:1;fill-rule:nonzero;stroke:none"/></g><g id="g60" transform="translate(16.9907,24.5368)"><path id="path62" d="M 0,0 -0.14,0.431 -0.28,0 -0.734,0 -0.367,-0.266 -0.507,-0.698 -0.14,-0.431 0.227,-0.698 0.087,-0.266 0.453,0 0,0 Z" style="fill:#fff;fill-opacity:1;fill-rule:nonzero;stroke:none"/></g><g id="g64" transform="translate(16.8506,27.464)"><path id="path66" d="m 0,0 -0.14,-0.431 -0.453,0 0.366,-0.267 -0.14,-0.431 0.367,0.267 0.367,-0.267 -0.14,0.431 0.366,0.267 -0.453,0 L 0,0 Z" style="fill:#fff;fill-opacity:1;fill-rule:nonzero;stroke:none"/></g><g id="g68" transform="translate(16.8506,29.96)"><path id="path70" d="m 0,0 -0.14,-0.431 -0.453,0 0.366,-0.267 -0.14,-0.431 0.367,0.267 0.367,-0.267 -0.14,0.431 0.366,0.267 -0.453,0 L 0,0 Z" style="fill:#fff;fill-opacity:1;fill-rule:nonzero;stroke:none"/></g><g id="g72" transform="translate(19.6934,24.5368)"><path id="path74" d="M 0,0 -0.14,0.431 -0.28,0 -0.734,0 -0.367,-0.266 -0.507,-0.698 -0.14,-0.431 0.227,-0.698 0.087,-0.266 0.453,0 0,0 Z" style="fill:#fff;fill-opacity:1;fill-rule:nonzero;stroke:none"/></g><g id="g76" transform="translate(19.5533,27.464)"><path id="path78" d="m 0,0 -0.14,-0.431 -0.453,0 0.366,-0.267 -0.14,-0.431 0.367,0.267 0.367,-0.267 -0.14,0.431 0.366,0.267 -0.453,0 L 0,0 Z" style="fill:#fff;fill-opacity:1;fill-rule:nonzero;stroke:none"/></g><g id="g80" transform="translate(19.5533,29.96)"><path id="path82" d="m 0,0 -0.14,-0.431 -0.453,0 0.366,-0.267 -0.14,-0.431 0.367,0.267 0.367,-0.267 -0.14,0.431 0.366,0.267 -0.453,0 L 0,0 Z" style="fill:#fff;fill-opacity:1;fill-rule:nonzero;stroke:none"/></g></g></g></g></svg>