<svg xmlns="http://www.w3.org/2000/svg" xmlns:svg="http://www.w3.org/2000/svg" style="enable-background:new 0 0 45 45" id="svg2" version="1.1" viewBox="0 0 45 45" xml:space="preserve"><metadata id="metadata8"/><defs id="defs6"><clipPath id="clipPath16" clipPathUnits="userSpaceOnUse"><path id="path18" d="M 4,31 C 1.791,31 0,29.209 0,27 L 0,27 0,9 C 0,6.791 1.791,5 4,5 l 0,0 28,0 c 2.209,0 4,1.791 4,4 l 0,0 0,18 c 0,2.209 -1.791,4 -4,4 l 0,0 -28,0 z"/></clipPath><clipPath id="clipPath72" clipPathUnits="userSpaceOnUse"><path id="path74" d="M 0,36 36,36 36,0 0,0 0,36 Z"/></clipPath><clipPath id="clipPath108" clipPathUnits="userSpaceOnUse"><path id="path110" d="M 4,31 C 1.791,31 0,29.209 0,27 l 0,0 0,-9 19,0 0,13 -15,0 z"/></clipPath><clipPath id="clipPath124" clipPathUnits="userSpaceOnUse"><path id="path126" d="M 0,36 36,36 36,0 0,0 0,36 Z"/></clipPath></defs><g id="g10" transform="matrix(1.25,0,0,-1.25,0,45)"><g id="g12"><g id="g14" clip-path="url(#clipPath16)"><g id="g20" transform="translate(22,20.5)"><path id="path22" d="M 0,0 0,0 0,0 Z" style="fill:#00247d;fill-opacity:1;fill-rule:nonzero;stroke:none"/></g><g id="g24" transform="translate(22,31)"><path id="path26" d="M 0,0 0,0 0,0 Z" style="fill:#00247d;fill-opacity:1;fill-rule:nonzero;stroke:none"/></g><g id="g28" transform="translate(21.0621,31)"><path id="path30" d="m 0,0 -0.062,0 -20.969,0 0,-10.5 -0.031,0 0.031,-15.5 35.969,0 0,26 L 0,0 Z" style="fill:#5b97b1;fill-opacity:1;fill-rule:nonzero;stroke:none"/></g><g id="g32" transform="translate(13.5984,8.2276)"><path id="path34" d="M 0,0 -0.487,1.5 -0.974,0 -2.551,0 -1.276,-0.927 -1.763,-2.426 -0.487,-1.5 0.788,-2.426 0.301,-0.927 1.577,0 0,0 Z" style="fill:#ffce00;fill-opacity:1;fill-rule:nonzero;stroke:none"/></g><g id="g36" transform="translate(20.0826,9.3938)"><path id="path38" d="M 0,0 0.487,1.5 -0.788,0.573 -2.064,1.5 -1.577,0 l -1.275,-0.927 1.576,0 0.488,-1.499 0.487,1.499 1.577,0 L 0,0 Z" style="fill:#ffce00;fill-opacity:1;fill-rule:nonzero;stroke:none"/></g><g id="g40" transform="translate(20.5699,16.1793)"><path id="path42" d="M 0,0 -1.276,-0.927 -2.551,0 l 0.487,-1.5 -1.276,-0.926 1.577,0 0.487,-1.5 0.488,1.5 1.576,0 L -0.487,-1.5 0,0 Z" style="fill:#ffce00;fill-opacity:1;fill-rule:nonzero;stroke:none"/></g><g id="g44" transform="translate(25.0428,10.7298)"><path id="path46" d="M 0,0 0.487,1.5 -0.788,0.573 -2.064,1.5 -1.577,0 l -1.275,-0.927 1.576,0 0.488,-1.499 0.487,1.499 1.577,0 L 0,0 Z" style="fill:#ffce00;fill-opacity:1;fill-rule:nonzero;stroke:none"/></g><g id="g48" transform="translate(23.7672,21.3043)"><path id="path50" d="M 0,0 0.487,-1.5 0.974,0 2.551,0 1.276,0.927 1.763,2.426 0.487,1.5 -0.788,2.426 -0.301,0.927 -1.577,0 0,0 Z" style="fill:#ffce00;fill-opacity:1;fill-rule:nonzero;stroke:none"/></g><g id="g52" transform="translate(28.3129,14.7686)"><path id="path54" d="M 0,0 -0.487,1.5 -0.974,0 -2.551,0 -1.276,-0.927 -1.763,-2.426 -0.487,-1.5 0.788,-2.426 0.301,-0.927 1.577,0 0,0 Z" style="fill:#ffce00;fill-opacity:1;fill-rule:nonzero;stroke:none"/></g><g id="g56" transform="translate(28.3561,22.8727)"><path id="path58" d="M 0,0 0.487,-1.5 0.974,0 2.551,0 1.276,0.927 1.763,2.426 0.487,1.5 -0.788,2.426 -0.301,0.927 -1.577,0 0,0 Z" style="fill:#ffce00;fill-opacity:1;fill-rule:nonzero;stroke:none"/></g><g id="g60" transform="translate(32.9233,17.7366)"><path id="path62" d="M 0,0 -0.487,1.5 -0.974,0 -2.551,0 -1.276,-0.927 -1.763,-2.426 -0.487,-1.5 0.788,-2.426 0.301,-0.927 1.577,0 0,0 Z" style="fill:#ffce00;fill-opacity:1;fill-rule:nonzero;stroke:none"/></g><g id="g64" transform="translate(31.6477,26.9528)"><path id="path66" d="M 0,0 -0.487,-1.5 0.788,-0.573 2.064,-1.5 1.577,0 2.852,0.927 1.276,0.927 0.788,2.426 0.301,0.927 -1.276,0.927 0,0 Z" style="fill:#ffce00;fill-opacity:1;fill-rule:nonzero;stroke:none"/></g></g></g><g id="g68"><g id="g70" clip-path="url(#clipPath72)"><g id="g76" transform="translate(19,31)"><path id="path78" d="m 0,0 -15,0 c -2.209,0 -4,-1.791 -4,-4 l 0,-9 19,0 0,13 z" style="fill:#00247d;fill-opacity:1;fill-rule:nonzero;stroke:none"/></g><g id="g80" transform="translate(19,18)"><path id="path82" d="M 0,0 0,2.029 -7.1,7 -12.329,7 -2.332,0 0,0 Z" style="fill:#eee;fill-opacity:1;fill-rule:nonzero;stroke:none"/></g><g id="g84" transform="translate(19,19.418)"><path id="path86" d="m 0,0 -7.971,5.582 -1.743,0 L 0,-1.22 0,0 Z" style="fill:#cf1b2b;fill-opacity:1;fill-rule:nonzero;stroke:none"/></g><g id="g88" transform="translate(8.0996,25)"><path id="path90" d="M 0,0 -8.1,-5.766 -8.1,-7 -4.768,-7 5.23,0 0,0 Z" style="fill:#eee;fill-opacity:1;fill-rule:nonzero;stroke:none"/></g><g id="g92" transform="translate(10.7139,25)"><path id="path94" d="m 0,0 -9.98,-7 0.266,0 1.461,0 L 1.744,0 0,0 Z" style="fill:#cf1b2b;fill-opacity:1;fill-rule:nonzero;stroke:none"/></g><g id="g96" transform="translate(16.6689,31)"><path id="path98" d="m 0,0 -9.997,-7 5.229,0 7.099,4.97 0,2.03 L 0,0 Z" style="fill:#eee;fill-opacity:1;fill-rule:nonzero;stroke:none"/></g><g id="g100" transform="translate(17.5391,31)"><path id="path102" d="m 0,0 -9.997,-7 1.744,0 9.714,6.802 L 1.461,0 0,0 Z" style="fill:#cf1b2b;fill-opacity:1;fill-rule:nonzero;stroke:none"/></g></g></g><g id="g104"><g id="g106" clip-path="url(#clipPath108)"><g id="g112" transform="translate(10,24)"><path id="path114" d="M 0,0 3.329,0 -6.668,7 -9,7 -9.625,5.406 0,-1.331 0,0 Z" style="fill:#eee;fill-opacity:1;fill-rule:nonzero;stroke:none"/></g><g id="g116" transform="translate(10,24)"><path id="path118" d="M 0,0 0.714,0 -9,6.802 -9.5,5.937 0,-0.722 0,0 Z" style="fill:#cf1b2b;fill-opacity:1;fill-rule:nonzero;stroke:none"/></g></g></g><g id="g120"><g id="g122" clip-path="url(#clipPath124)"><g id="g128" transform="translate(19,27)"><path id="path130" d="m 0,0 -7,0 0,4 -5,0 0,-4 -7,0 0,-5 7,0 0,-4 5,0 0,4 7,0 0,5 z" style="fill:#eee;fill-opacity:1;fill-rule:nonzero;stroke:none"/></g><path id="path132" d="m 11,18 -3,0 0,13 3,0 0,-13 z" style="fill:#cf1b2b;fill-opacity:1;fill-rule:nonzero;stroke:none"/><path id="path134" d="m 19,23 -19,0 0,3 19,0 0,-3 z" style="fill:#cf1b2b;fill-opacity:1;fill-rule:nonzero;stroke:none"/></g></g></g></svg>