<svg xmlns="http://www.w3.org/2000/svg" xmlns:svg="http://www.w3.org/2000/svg" style="enable-background:new 0 0 45 45" id="svg2" version="1.1" viewBox="0 0 45 45" xml:space="preserve"><metadata id="metadata8"/><defs id="defs6"><clipPath id="clipPath16" clipPathUnits="userSpaceOnUse"><path id="path18" d="M 4,36 C 1.791,36 0,34.209 0,32 L 0,32 0,4 C 0,1.791 1.791,0 4,0 l 0,0 28,0 c 2.209,0 4,1.791 4,4 l 0,0 0,28 c 0,2.209 -1.791,4 -4,4 l 0,0 -28,0 z"/></clipPath></defs><g id="g10" transform="matrix(1.25,0,0,-1.25,0,45)"><g id="g12"><g id="g14" clip-path="url(#clipPath16)"><path id="path20" d="m 37,-1 -38,0 0,38 38,0 0,-38 z" style="fill:#f4900c;fill-opacity:1;fill-rule:nonzero;stroke:none"/><g id="g22" transform="translate(10,0)"><path id="path24" d="m 0,0 0,29 4,4 2,0 4,-4 L 10,0 0,0 Z" style="fill:#485359;fill-opacity:1;fill-rule:nonzero;stroke:none"/></g><g id="g26" transform="translate(33,25)"><path id="path28" d="m 0,0 c 0,1 -1,1 -1,1 l -7,0 c 0,0 -1,0 -1,-1 l 0,-25 9,0 0,25 z" style="fill:#485359;fill-opacity:1;fill-rule:nonzero;stroke:none"/></g><g id="g30" transform="translate(28,19)"><path id="path32" d="m 0,0 c 0,1 -1,1 -1,1 l -8,0 c -1,0 -1,-1 -1,-1 l 0,-19 10,0 0,19 z" style="fill:#292f33;fill-opacity:1;fill-rule:nonzero;stroke:none"/></g><g id="g34" transform="translate(6,22)"><path id="path36" d="m 0,0 c 0,0 0,1 -1,1 l -5,0 0,-23 6,0 0,22 z" style="fill:#292f33;fill-opacity:1;fill-rule:nonzero;stroke:none"/></g><g id="g38" transform="translate(12,16)"><path id="path40" d="m 0,0 c 0,0 0,1 -1,1 l -6,0 c 0,0 -1,10e-4 -1,-1 l 0,-16 8,0 0,16 z" style="fill:#292f33;fill-opacity:1;fill-rule:nonzero;stroke:none"/></g><g id="g42" transform="translate(31,10)"><path id="path44" d="M 0,0 C 0,0 0,1 1,1 L 5,1 5,-10 0,-10 0,0 Z" style="fill:#292f33;fill-opacity:1;fill-rule:nonzero;stroke:none"/></g><path id="path46" d="M 10,5 8,5 8,7 10,7 10,5 Z" style="fill:#ffcc4d;fill-opacity:1;fill-rule:nonzero;stroke:none"/><path id="path48" d="m 10,13 -2,0 0,2 2,0 0,-2 z" style="fill:#ffcc4d;fill-opacity:1;fill-rule:nonzero;stroke:none"/><path id="path50" d="M 8,9 6,9 6,11 8,11 8,9 Z" style="fill:#ffcc4d;fill-opacity:1;fill-rule:nonzero;stroke:none"/><path id="path52" d="m 18,25 -2,0 0,2 2,0 0,-2 z" style="fill:#ffcc4d;fill-opacity:1;fill-rule:nonzero;stroke:none"/><path id="path54" d="m 18,21 -2,0 0,2 2,0 0,-2 z" style="fill:#ffcc4d;fill-opacity:1;fill-rule:nonzero;stroke:none"/><path id="path56" d="m 16,17 -2,0 0,2 2,0 0,-2 z" style="fill:#ffcc4d;fill-opacity:1;fill-rule:nonzero;stroke:none"/><path id="path58" d="m 26,16 -2,0 0,2 2,0 0,-2 z" style="fill:#ffcc4d;fill-opacity:1;fill-rule:nonzero;stroke:none"/><path id="path60" d="m 24,12 -2,0 0,2 2,0 0,-2 z" style="fill:#ffcc4d;fill-opacity:1;fill-rule:nonzero;stroke:none"/><path id="path62" d="m 22,6 -2,0 0,2 2,0 0,-2 z" style="fill:#ffcc4d;fill-opacity:1;fill-rule:nonzero;stroke:none"/><path id="path64" d="m 31,22 -2,0 0,2 2,0 0,-2 z" style="fill:#ffcc4d;fill-opacity:1;fill-rule:nonzero;stroke:none"/><path id="path66" d="m 31,18 -2,0 0,2 2,0 0,-2 z" style="fill:#ffcc4d;fill-opacity:1;fill-rule:nonzero;stroke:none"/></g></g></g></svg>