<svg xmlns="http://www.w3.org/2000/svg" xmlns:svg="http://www.w3.org/2000/svg" style="enable-background:new 0 0 45 45" id="svg2" version="1.1" viewBox="0 0 45 45" xml:space="preserve"><metadata id="metadata8"/><defs id="defs6"><clipPath id="clipPath16" clipPathUnits="userSpaceOnUse"><path id="path18" d="M 4,36 C 1.791,36 0,34.209 0,32 L 0,32 0,4 C 0,1.791 1.791,0 4,0 l 0,0 28,0 c 2.209,0 4,1.791 4,4 l 0,0 0,28 c 0,2.209 -1.791,4 -4,4 l 0,0 -28,0 z"/></clipPath><clipPath id="clipPath72" clipPathUnits="userSpaceOnUse"><path id="path74" d="M 0,36 36,36 36,0 0,0 0,36 Z"/></clipPath></defs><g id="g10" transform="matrix(1.25,0,0,-1.25,0,45)"><g id="g12"><g id="g14" clip-path="url(#clipPath16)"><path id="path20" d="m 37,-1 -38,0 0,38 38,0 0,-38 z" style="fill:#269;fill-opacity:1;fill-rule:nonzero;stroke:none"/><g id="g22" transform="translate(10,0)"><path id="path24" d="m 0,0 0,29 4,4 2,0 4,-4 L 10,0 0,0 Z" style="fill:#3f484c;fill-opacity:1;fill-rule:nonzero;stroke:none"/></g><g id="g26" transform="translate(33,25)"><path id="path28" d="M 0,0 C 0,1 -1.286,1 -1.286,1 L -7.714,1 C -7.714,1 -9,1.001 -9,0.001 L -9,-25 0,-25 0,0 Z" style="fill:#3f484c;fill-opacity:1;fill-rule:nonzero;stroke:none"/></g><g id="g30" transform="translate(28,17)"><path id="path32" d="m 0,0 c 0,1 -1,1 -1,1 l -8,0 c -1,0 -1,-1 -1,-1 l 0,-17 10,0 0,17 z" style="fill:#292f33;fill-opacity:1;fill-rule:nonzero;stroke:none"/></g><g id="g34" transform="translate(6,22)"><path id="path36" d="m 0,0 c 0,0 0,1 -1,1 l -5,0 0,-23 6,0 0,22 z" style="fill:#292f33;fill-opacity:1;fill-rule:nonzero;stroke:none"/></g><g id="g38" transform="translate(12,14)"><path id="path40" d="m 0,0 c 0,0 0,1 -1,1 l -6,0 c 0,0 -1,10e-4 -1,-1 l 0,-14 8,0 0,14 z" style="fill:#292f33;fill-opacity:1;fill-rule:nonzero;stroke:none"/></g><g id="g42" transform="translate(31,10)"><path id="path44" d="M 0,0 C 0,0 0,1 1,1 L 5,1 5,-10 0,-10 0,0 Z" style="fill:#292f33;fill-opacity:1;fill-rule:nonzero;stroke:none"/></g></g></g><path id="path46" d="M 10,3 8,3 8,5 10,5 10,3 Z" style="fill:#ffcc4d;fill-opacity:1;fill-rule:nonzero;stroke:none"/><path id="path48" d="m 10,11 -2,0 0,2 2,0 0,-2 z" style="fill:#ffcc4d;fill-opacity:1;fill-rule:nonzero;stroke:none"/><path id="path50" d="M 8,7 6,7 6,9 8,9 8,7 Z" style="fill:#ffcc4d;fill-opacity:1;fill-rule:nonzero;stroke:none"/><path id="path52" d="m 18,25 -2,0 0,2 2,0 0,-2 z" style="fill:#ffcc4d;fill-opacity:1;fill-rule:nonzero;stroke:none"/><path id="path54" d="m 18,21 -2,0 0,2 2,0 0,-2 z" style="fill:#ffcc4d;fill-opacity:1;fill-rule:nonzero;stroke:none"/><path id="path56" d="m 16,17 -2,0 0,2 2,0 0,-2 z" style="fill:#ffcc4d;fill-opacity:1;fill-rule:nonzero;stroke:none"/><path id="path58" d="m 26,14 -2,0 0,2 2,0 0,-2 z" style="fill:#ffcc4d;fill-opacity:1;fill-rule:nonzero;stroke:none"/><path id="path60" d="m 24,10 -2,0 0,2 2,0 0,-2 z" style="fill:#ffcc4d;fill-opacity:1;fill-rule:nonzero;stroke:none"/><path id="path62" d="m 22,4 -2,0 0,2 2,0 0,-2 z" style="fill:#ffcc4d;fill-opacity:1;fill-rule:nonzero;stroke:none"/><path id="path64" d="m 31,22 -2,0 0,2 2,0 0,-2 z" style="fill:#ffcc4d;fill-opacity:1;fill-rule:nonzero;stroke:none"/><path id="path66" d="m 31,18 -2,0 0,2 2,0 0,-2 z" style="fill:#ffcc4d;fill-opacity:1;fill-rule:nonzero;stroke:none"/><g id="g68"><g id="g70" clip-path="url(#clipPath72)"><g id="g76" transform="translate(6.5,29)"><path id="path78" d="m 0,0 c -1.381,0 -2.5,1.119 -2.5,2.5 0,1.13 0.755,2.074 1.784,2.383 C -0.967,4.952 -1.227,5 -1.5,5 c -1.657,0 -3,-1.343 -3,-3 0,-1.657 1.343,-3 3,-3 0.959,0 1.803,0.458 2.353,1.159 C 0.585,0.062 0.301,0 0,0" style="fill:#fff;fill-opacity:1;fill-rule:nonzero;stroke:none"/></g><g id="g80" transform="translate(11,33.5)"><path id="path82" d="M 0,0 C 0,-0.276 -0.224,-0.5 -0.5,-0.5 -0.776,-0.5 -1,-0.276 -1,0 -1,0.276 -0.776,0.5 -0.5,0.5 -0.224,0.5 0,0.276 0,0" style="fill:#fff;fill-opacity:1;fill-rule:nonzero;stroke:none"/></g><g id="g84" transform="translate(8,24.5)"><path id="path86" d="M 0,0 C 0,-0.276 -0.224,-0.5 -0.5,-0.5 -0.776,-0.5 -1,-0.276 -1,0 -1,0.276 -0.776,0.5 -0.5,0.5 -0.224,0.5 0,0.276 0,0" style="fill:#fff;fill-opacity:1;fill-rule:nonzero;stroke:none"/></g><g id="g88" transform="translate(23,31)"><path id="path90" d="m 0,0 c 0,-0.552 -0.447,-1 -1,-1 -0.553,0 -1,0.448 -1,1 0,0.552 0.447,1 1,1 0.553,0 1,-0.448 1,-1" style="fill:#fff;fill-opacity:1;fill-rule:nonzero;stroke:none"/></g><g id="g92" transform="translate(27,30.5)"><path id="path94" d="M 0,0 C 0,-0.276 -0.224,-0.5 -0.5,-0.5 -0.776,-0.5 -1,-0.276 -1,0 -1,0.276 -0.776,0.5 -0.5,0.5 -0.224,0.5 0,0.276 0,0" style="fill:#fff;fill-opacity:1;fill-rule:nonzero;stroke:none"/></g><g id="g96" transform="translate(32,33)"><path id="path98" d="m 0,0 c 0,-0.552 -0.447,-1 -1,-1 -0.553,0 -1,0.448 -1,1 0,0.552 0.447,1 1,1 0.553,0 1,-0.448 1,-1" style="fill:#fff;fill-opacity:1;fill-rule:nonzero;stroke:none"/></g><g id="g100" transform="translate(32,28.5)"><path id="path102" d="M 0,0 C 0,-0.276 -0.224,-0.5 -0.5,-0.5 -0.776,-0.5 -1,-0.276 -1,0 -1,0.276 -0.776,0.5 -0.5,0.5 -0.224,0.5 0,0.276 0,0" style="fill:#fff;fill-opacity:1;fill-rule:nonzero;stroke:none"/></g></g></g></g></svg>