<svg xmlns="http://www.w3.org/2000/svg" xmlns:svg="http://www.w3.org/2000/svg" style="enable-background:new 0 0 45 45" id="svg2" version="1.1" viewBox="0 0 45 45" xml:space="preserve"><metadata id="metadata8"/><defs id="defs6"><clipPath id="clipPath16" clipPathUnits="userSpaceOnUse"><path id="path18" d="M 0,36 36,36 36,0 0,0 0,36 Z"/></clipPath></defs><g id="g10" transform="matrix(1.25,0,0,-1.25,0,45)"><g id="g12"><g id="g14" clip-path="url(#clipPath16)"><g id="g20" transform="translate(9.999,24)"><path id="path22" d="m 0,0 c -0.15,0 -0.303,0.034 -0.446,0.105 -4.381,2.191 -7.484,7.527 -8.502,10.579 -0.175,0.524 0.109,1.09 0.633,1.265 0.525,0.176 1.09,-0.11 1.265,-0.633 C -6.173,8.685 -3.362,3.799 0.448,1.895 0.942,1.648 1.143,1.047 0.895,0.553 0.72,0.202 0.367,0 0,0" style="fill:#77b255;fill-opacity:1;fill-rule:nonzero;stroke:none"/></g><g id="g24" transform="translate(26,7)"><path id="path26" d="m 0,0 c 0,-3.865 -3.135,-7 -7,-7 -3.865,0 -7,3.135 -7,7 0,3.865 3.135,7 7,7 3.865,0 7,-3.135 7,-7" style="fill:#553788;fill-opacity:1;fill-rule:nonzero;stroke:none"/></g><g id="g28" transform="translate(17,21)"><path id="path30" d="m 0,0 c 0,-3.865 -3.135,-7 -7,-7 -3.865,0 -7,3.135 -7,7 0,3.865 3.135,7 7,7 3.865,0 7,-3.135 7,-7" style="fill:#9266cc;fill-opacity:1;fill-rule:nonzero;stroke:none"/></g><g id="g32" transform="translate(26,24)"><path id="path34" d="m 0,0 c 0,-3.865 -3.135,-7 -7,-7 -3.865,0 -7,3.135 -7,7 0,3.865 3.135,7 7,7 3.865,0 7,-3.135 7,-7" style="fill:#aa8dd8;fill-opacity:1;fill-rule:nonzero;stroke:none"/></g><g id="g36" transform="translate(34,18)"><path id="path38" d="m 0,0 c 0,-3.865 -3.135,-7 -7,-7 -3.865,0 -7,3.135 -7,7 0,3.865 3.135,7 7,7 3.865,0 7,-3.135 7,-7" style="fill:#744eaa;fill-opacity:1;fill-rule:nonzero;stroke:none"/></g><g id="g40" transform="translate(16,10)"><path id="path42" d="m 0,0 c 0,-3.865 -3.135,-7 -7,-7 -3.865,0 -7,3.135 -7,7 0,3.865 3.135,7 7,7 3.865,0 7,-3.135 7,-7" style="fill:#744eaa;fill-opacity:1;fill-rule:nonzero;stroke:none"/></g><g id="g44" transform="translate(25,15)"><path id="path46" d="m 0,0 c 0,-3.865 -3.135,-7 -7,-7 -3.865,0 -7,3.135 -7,7 0,3.865 3.135,7 7,7 3.865,0 7,-3.135 7,-7" style="fill:#9266cc;fill-opacity:1;fill-rule:nonzero;stroke:none"/></g><g id="g48" transform="translate(36,7)"><path id="path50" d="m 0,0 c 0,-3.865 -3.135,-7 -7,-7 -3.865,0 -7,3.135 -7,7 0,3.865 3.135,7 7,7 3.865,0 7,-3.135 7,-7" style="fill:#9266cc;fill-opacity:1;fill-rule:nonzero;stroke:none"/></g></g></g></g></svg>