<svg xmlns="http://www.w3.org/2000/svg" xmlns:svg="http://www.w3.org/2000/svg" style="enable-background:new 0 0 45 45" id="svg2" version="1.1" viewBox="0 0 45 45" xml:space="preserve"><metadata id="metadata8"/><defs id="defs6"><clipPath id="clipPath16" clipPathUnits="userSpaceOnUse"><path id="path18" d="M 0,36 36,36 36,0 0,0 0,36 Z"/></clipPath></defs><g id="g10" transform="matrix(1.25,0,0,-1.25,0,45)"><g id="g12"><g id="g14" clip-path="url(#clipPath16)"><g id="g20" transform="translate(24,29.0005)"><path id="path22" d="m 0,0 c -3,0 -3,-1 -6,-1 -3.001,0 -3,1 -6,1 -4,0 -9,-2 -9,-9 0,-11 6,-20 10,-20 2.999,0 3,1 5,1 2,0 2,-1 5,-1 4,0 10,9 10,20 0,7 -5,9 -9,9" style="fill:#dd2e44;fill-opacity:1;fill-rule:nonzero;stroke:none"/></g><g id="g24" transform="translate(18.9995,29)"><path id="path26" d="m 0,0 c 0,0 3.001,4 8.001,4 4,0 6,-2 6,-2 0,0 -4,-3 -7,-3 C 4.001,-1 0,0 0,0" style="fill:#77b255;fill-opacity:1;fill-rule:nonzero;stroke:none"/></g><g id="g28" transform="translate(17.9995,26.0005)"><path id="path30" d="m 0,0 c -0.552,0 -1,0.448 -1,1 0,3.441 1.2,6.615 3.294,8.707 0.39,0.391 1.023,0.391 1.414,0 0.39,-0.391 0.39,-1.024 0,-1.414 C 1.987,6.573 1,3.915 1,1 1,0.448 0.552,0 0,0" style="fill:#662113;fill-opacity:1;fill-rule:nonzero;stroke:none"/></g></g></g></g></svg>