<svg xmlns="http://www.w3.org/2000/svg" xmlns:svg="http://www.w3.org/2000/svg" style="enable-background:new 0 0 45 45" id="svg2" version="1.1" viewBox="0 0 45 45" xml:space="preserve"><metadata id="metadata8"/><defs id="defs6"><clipPath id="clipPath16" clipPathUnits="userSpaceOnUse"><path id="path18" d="M 0,36 36,36 36,0 0,0 0,36 Z"/></clipPath><clipPath id="clipPath32" clipPathUnits="userSpaceOnUse"><path id="path34" d="M 5.727,30.382 C 5.25,30.149 5.188,29.542 5.313,29.104 l 0,0 C 5.438,28.667 16,2 16,2 l 0,0 c 0,0 1,-2 2,-2 l 0,0 c 1.104,0 2,2 2,2 l 0,0 10.704,27.22 c 0,0 0.213,0.843 -0.569,1.229 l 0,0 C 28.391,31.311 24.047,33 18,33 l 0,0 C 11.787,33 7.385,31.19 5.727,30.382"/></clipPath></defs><g id="g10" transform="matrix(1.25,0,0,-1.25,0,45)"><g id="g12"><g id="g14" clip-path="url(#clipPath16)"><g id="g20" transform="translate(18,32)"><path id="path22" d="M 0,0 C 7.257,0 13,-4 14.699,-2 14.896,-1.677 15,-1.343 15,-1 15,1 8.284,4 0,4 -8.284,4 -15,1 -15,-1 c 0,-0.343 0.104,-0.677 0.301,-1 C -13,-4 -7.257,0 0,0" style="fill:#f4900c;fill-opacity:1;fill-rule:nonzero;stroke:none"/></g><g id="g24" transform="translate(18,33)"><path id="path26" d="m 0,0 c -6.213,0 -10.616,-1.81 -12.273,-2.618 -0.477,-0.233 -0.54,-0.84 -0.415,-1.278 C -12.563,-4.333 -2,-31 -2,-31 c 0,0 0.896,-2 2,-2 1.105,0 2,2 2,2 l 10.704,27.221 c 0,0 0.213,0.841 -0.569,1.228 C 10.392,-1.689 6.047,0 0,0" style="fill:#ffcc4d;fill-opacity:1;fill-rule:nonzero;stroke:none"/></g></g></g><g id="g28"><g id="g30" clip-path="url(#clipPath32)"><g id="g36" transform="translate(18,5)"><path id="path38" d="m 0,0 c 0,-2.208 -1.791,-4 -4,-4 -2.209,0 -4,1.792 -4,4 0,2.208 1.791,4 4,4 2.209,0 4,-1.792 4,-4" style="fill:#be1931;fill-opacity:1;fill-rule:nonzero;stroke:none"/></g><g id="g40" transform="translate(17,16)"><path id="path42" d="m 0,0 c 0,-2.208 -1.792,-4 -4,-4 -2.209,0 -4,1.792 -4,4 0,2.209 1.791,4 4,4 2.208,0 4,-1.791 4,-4" style="fill:#be1931;fill-opacity:1;fill-rule:nonzero;stroke:none"/></g><g id="g44" transform="translate(20,28)"><path id="path46" d="m 0,0 c 0,-2.209 -1.792,-4 -4,-4 -2.209,0 -4,1.791 -4,4 0,2.209 1.791,4 4,4 2.208,0 4,-1.791 4,-4" style="fill:#be1931;fill-opacity:1;fill-rule:nonzero;stroke:none"/></g><g id="g48" transform="translate(29,23)"><path id="path50" d="m 0,0 c 0,-2.209 -1.792,-4 -4,-4 -2.208,0 -4,1.791 -4,4 0,2.209 1.792,4 4,4 2.208,0 4,-1.791 4,-4" style="fill:#be1931;fill-opacity:1;fill-rule:nonzero;stroke:none"/></g><g id="g52" transform="translate(27,11)"><path id="path54" d="m 0,0 c 0,-2.208 -1.792,-4 -4,-4 -2.208,0 -4,1.792 -4,4 0,2.208 1.792,4 4,4 2.208,0 4,-1.792 4,-4" style="fill:#be1931;fill-opacity:1;fill-rule:nonzero;stroke:none"/></g><g id="g56" transform="translate(10,24)"><path id="path58" d="m 0,0 c 0,-2.209 -1.791,-4 -4,-4 -2.209,0 -4,1.791 -4,4 0,2.209 1.791,4 4,4 2.209,0 4,-1.791 4,-4" style="fill:#be1931;fill-opacity:1;fill-rule:nonzero;stroke:none"/></g></g></g></g></svg>