<svg xmlns="http://www.w3.org/2000/svg" xmlns:svg="http://www.w3.org/2000/svg" style="enable-background:new 0 0 45 45" id="svg2" version="1.1" viewBox="0 0 45 45" xml:space="preserve"><metadata id="metadata8"/><defs id="defs6"><clipPath id="clipPath16" clipPathUnits="userSpaceOnUse"><path id="path18" d="M 0,36 36,36 36,0 0,0 0,36 Z"/></clipPath></defs><g id="g10" transform="matrix(1.25,0,0,-1.25,0,45)"><g id="g12"><g id="g14" clip-path="url(#clipPath16)"><g id="g20" transform="translate(18,15.5889)"><path id="path22" d="m 0,0 c -9.371,0 -16.967,0.225 -16.967,-6.427 0,-6.649 7.596,-8.162 16.967,-8.162 9.371,0 16.967,1.513 16.967,8.162 C 16.967,0.225 9.371,0 0,0" style="fill:#d99e82;fill-opacity:1;fill-rule:nonzero;stroke:none"/></g><g id="g24" transform="translate(34.4702,15.0837)"><path id="path26" d="M 0,0 C 0,0 -8.219,0.984 -16.47,1.026 -24.721,0.984 -32.94,0 -32.94,0 -33.753,-6.474 -27.003,-9.141 -16.47,-9.141 -5.937,-9.141 0.812,-6.474 0,0" style="fill:#662113;fill-opacity:1;fill-rule:nonzero;stroke:none"/></g><g id="g28" transform="translate(33.8857,17.6724)"><path id="path30" d="m 0,0 -31.855,-0.646 c -1.1,0 -2.021,-2.229 -0.854,-2.812 8.708,-2.709 15.708,-5.449 15.708,-5.449 0.963,-0.532 1.287,-0.534 2.251,-0.003 0,0 9.666,3.868 15.875,5.493 C 2.005,-3.186 1.1,0 0,0" style="fill:#ffcc4d;fill-opacity:1;fill-rule:nonzero;stroke:none"/></g><g id="g32" transform="translate(34.7251,17.5878)"><path id="path34" d="m 0,0 c -1.9,1.751 -1.79,0.819 -3.246,1.23 -0.553,0.156 -4.509,5.272 -13.528,5.272 -0.004,0 -0.007,-10e-4 -0.01,-10e-4 -0.004,0 -0.007,10e-4 -0.01,10e-4 -9.02,0 -12.976,-5.116 -13.529,-5.272 -1.456,-0.411 -1.346,0.521 -3.246,-1.23 -0.872,-0.804 -1.108,-1.222 -0.188,-1.43 1.386,-0.314 1.26,-1.152 2.253,-1.444 1.202,-0.353 1.696,0.292 3.635,0.028 1.653,-0.224 1.76,-2.369 3.428,-2.369 1.668,0 1.668,0.8 3.336,0.8 1.667,0 2.653,-2.146 4.321,-2.146 1.667,0 2.653,2.146 4.32,2.146 1.668,0 1.668,-0.8 3.336,-0.8 1.668,0 1.776,2.145 3.429,2.369 1.938,0.264 2.433,-0.381 3.634,-0.028 0.993,0.292 0.867,1.13 2.253,1.444 C 1.108,-1.222 0.872,-0.804 0,0" style="fill:#77b255;fill-opacity:1;fill-rule:nonzero;stroke:none"/></g><g id="g36" transform="translate(34.077,19.4796)"><path id="path38" d="m 0,0 c 0,-2.984 -7.198,-4.393 -16.077,-4.393 -8.879,0 -16.077,1.409 -16.077,4.393 0,5.403 0.966,5.403 16.077,5.403 C -0.966,5.403 0,5.403 0,0" style="fill:#dd2e44;fill-opacity:1;fill-rule:nonzero;stroke:none"/></g><g id="g40" transform="translate(18,35.4764)"><path id="path42" d="m 0,0 c -9.371,0 -16.967,-4.391 -16.967,-11.042 0,-6.125 7.596,-6.375 16.967,-6.375 9.371,0 16.967,0.25 16.967,6.375 C 16.967,-4.391 9.371,0 0,0" style="fill:#d99e82;fill-opacity:1;fill-rule:nonzero;stroke:none"/></g><g id="g44" transform="translate(10.7842,32.3053)"><path id="path46" d="M 0,0 C -0.498,0.318 -1.159,0.172 -1.478,-0.326 -1.795,-0.823 -1.65,-1.485 -1.152,-1.802 -0.654,-2.121 0.608,-2.359 0.927,-1.861 1.245,-1.363 0.498,-0.318 0,0" style="fill:#ffe8b6;fill-opacity:1;fill-rule:nonzero;stroke:none"/></g><g id="g48" transform="translate(20.5176,33.34)"><path id="path50" d="M 0,0 C -0.562,-0.182 -1.549,-1.006 -1.366,-1.568 -1.184,-2.13 0.098,-2.217 0.66,-2.034 1.223,-1.852 1.529,-1.248 1.347,-0.686 1.164,-0.125 0.56,0.183 0,0" style="fill:#ffe8b6;fill-opacity:1;fill-rule:nonzero;stroke:none"/></g><g id="g52" transform="translate(31.4267,26.3053)"><path id="path54" d="m 0,0 c -0.452,0.38 -1.585,-0.225 -1.966,-0.677 -0.38,-0.453 -0.321,-1.127 0.131,-1.508 0.452,-0.38 1.127,-0.321 1.507,0.132 C 0.053,-1.601 0.453,-0.38 0,0" style="fill:#ffe8b6;fill-opacity:1;fill-rule:nonzero;stroke:none"/></g><g id="g56" transform="translate(27.7842,31.3053)"><path id="path58" d="M 0,0 C -0.498,0.318 -1.159,0.172 -1.478,-0.326 -1.796,-0.823 -1.65,-1.485 -1.151,-1.802 -0.653,-2.121 0.608,-2.359 0.927,-1.861 1.245,-1.363 0.498,-0.318 0,0" style="fill:#ffe8b6;fill-opacity:1;fill-rule:nonzero;stroke:none"/></g><g id="g60" transform="translate(12.7842,24.3053)"><path id="path62" d="M 0,0 C -0.498,0.318 -1.159,0.172 -1.478,-0.326 -1.796,-0.823 -1.65,-1.485 -1.151,-1.802 -0.653,-2.121 0.608,-2.359 0.927,-1.86 1.245,-1.363 0.498,-0.318 0,0" style="fill:#ffe8b6;fill-opacity:1;fill-rule:nonzero;stroke:none"/></g><g id="g64" transform="translate(15.8301,29.1129)"><path id="path66" d="m 0,0 c -0.336,-0.486 -0.62,-1.739 -0.133,-2.075 0.486,-0.336 1.557,0.374 1.893,0.86 0.336,0.486 0.214,1.152 -0.273,1.488 C 1.001,0.609 0.335,0.486 0,0" style="fill:#ffe8b6;fill-opacity:1;fill-rule:nonzero;stroke:none"/></g><g id="g68" transform="translate(23.7842,24.3053)"><path id="path70" d="M 0,0 C -0.498,0.318 -1.159,0.172 -1.478,-0.326 -1.796,-0.823 -1.65,-1.485 -1.151,-1.802 -0.653,-2.121 0.608,-2.359 0.927,-1.86 1.245,-1.363 0.498,-0.318 0,0" style="fill:#ffe8b6;fill-opacity:1;fill-rule:nonzero;stroke:none"/></g><g id="g72" transform="translate(4.9482,28.1916)"><path id="path74" d="M 0,0 C -0.395,-0.44 -0.833,-1.648 -0.392,-2.042 0.047,-2.436 1.199,-1.867 1.593,-1.427 1.988,-0.986 1.95,-0.311 1.51,0.084 1.07,0.478 0.394,0.44 0,0" style="fill:#ffe8b6;fill-opacity:1;fill-rule:nonzero;stroke:none"/></g></g></g></g></svg>