<svg xmlns="http://www.w3.org/2000/svg" xmlns:svg="http://www.w3.org/2000/svg" style="enable-background:new 0 0 45 45" id="svg2" version="1.1" viewBox="0 0 45 45" xml:space="preserve"><metadata id="metadata8"/><defs id="defs6"><clipPath id="clipPath16" clipPathUnits="userSpaceOnUse"><path id="path18" d="M 0,36 36,36 36,0 0,0 0,36 Z"/></clipPath><clipPath id="clipPath28" clipPathUnits="userSpaceOnUse"><path id="path30" d="M 10.076,34.324 1.59,25.839 c -1.562,-1.562 -1.562,-2.681 0,-4.243 l 0,0 19.092,-19.092 c 1.562,-1.562 4.094,-1.562 5.657,0 l 0,0 7.071,7.071 c 1.561,1.562 1.561,4.095 0,5.657 l 0,0 -19.092,19.092 c -0.781,0.781 -1.451,1.172 -2.122,1.172 l 0,0 c -0.67,0 -1.34,-0.391 -2.12,-1.172"/></clipPath><clipPath id="clipPath40" clipPathUnits="userSpaceOnUse"><path id="path42" d="M 0,36 36,36 36,0 0,0 0,36 Z"/></clipPath><clipPath id="clipPath52" clipPathUnits="userSpaceOnUse"><path id="path54" d="m 19.267,25.132 -8.484,-8.486 c -1.562,-1.562 -1.562,-4.095 0,-5.657 l 0,0 9.899,-9.899 C 21.258,0.515 21.965,0.151 22.706,0 l 0,0 1.608,0 c 0.742,0.151 1.449,0.515 2.025,1.09 l 0,0 8.486,8.485 c 1.561,1.562 1.561,4.095 0,5.657 l 0,0 -9.9,9.9 c -0.782,0.781 -1.805,1.171 -2.829,1.171 l 0,0 c -1.023,0 -2.047,-0.39 -2.829,-1.171"/></clipPath><clipPath id="clipPath64" clipPathUnits="userSpaceOnUse"><path id="path66" d="M 0,36 36,36 36,0 0,0 0,36 Z"/></clipPath></defs><g id="g10" transform="matrix(1.25,0,0,-1.25,0,45)"><g id="g12"><g id="g14" clip-path="url(#clipPath16)"><g id="g20" transform="translate(26.3389,2.5039)"><path id="path22" d="m 0,0 c -1.562,-1.562 -4.095,-1.562 -5.657,0 l -19.092,19.092 c -1.562,1.562 -1.562,2.681 0,4.243 l 8.485,8.485 c 1.562,1.562 2.681,1.562 4.243,0 L 7.071,12.729 c 1.562,-1.563 1.562,-4.095 0,-5.658 L 0,0 Z" style="fill:#c1694f;fill-opacity:1;fill-rule:nonzero;stroke:none"/></g></g></g><g id="g24"><g id="g26" clip-path="url(#clipPath28)"><g id="g32" transform="translate(31.9961,5.333)"><path id="path34" d="m 0,0 -20.299,20.299 5.863,5.864 -1.414,1.414 -5.863,-5.864 -4.451,4.45 -1.414,-1.414 4.451,-4.45 -7.572,-7.572 1.414,-1.414 7.572,7.572 L -1.414,-1.414 0,0 Z" style="fill:#8a4b38;fill-opacity:1;fill-rule:nonzero;stroke:none"/></g></g></g><g id="g36"><g id="g38" clip-path="url(#clipPath40)"><g id="g44" transform="translate(26.3389,1.0898)"><path id="path46" d="m 0,0 c -1.562,-1.561 -4.095,-1.561 -5.657,0 l -9.899,9.9 c -1.562,1.562 -1.562,4.094 0,5.657 l 8.485,8.485 c 1.562,1.562 4.094,1.562 5.657,0 l 9.899,-9.899 c 1.562,-1.563 1.562,-4.095 0,-5.658 L 0,0 Z" style="fill:#dd2e44;fill-opacity:1;fill-rule:nonzero;stroke:none"/></g></g></g><g id="g48"><g id="g50" clip-path="url(#clipPath52)"><g id="g56" transform="translate(26,26)"><path id="path58" d="m 0,0 -9,-23 -6,3 13,21 2,-1 z" style="fill:#be1931;fill-opacity:1;fill-rule:nonzero;stroke:none"/></g></g></g><g id="g60"><g id="g62" clip-path="url(#clipPath64)"><g id="g68" transform="translate(22.8037,27.2529)"><path id="path70" d="m 0,0 c 0.707,-0.707 1.414,-1.414 2.121,-2.121 -0.707,-2.122 -8.485,-15.557 -9.9,-18.385 0,0 -0.707,-2.121 -2.474,-0.353 -1.242,1.241 -3.703,3.702 -5.304,5.303 -0.679,0.679 -0.685,2.143 0,2.828 C -11.982,-9.154 -3.422,-0.593 -2.829,0 -1.415,1.415 0,0 0,0" style="fill:#ccd6dd;fill-opacity:1;fill-rule:nonzero;stroke:none"/></g></g></g></g></svg>