<svg xmlns="http://www.w3.org/2000/svg" xmlns:svg="http://www.w3.org/2000/svg" style="enable-background:new 0 0 45 45" id="svg2" version="1.1" viewBox="0 0 45 45" xml:space="preserve"><metadata id="metadata8"/><defs id="defs6"><clipPath id="clipPath16" clipPathUnits="userSpaceOnUse"><path id="path18" d="M 0,36 36,36 36,0 0,0 0,36 Z"/></clipPath><clipPath id="clipPath28" clipPathUnits="userSpaceOnUse"><path id="path30" d="M 16.769,14 3.806,14 c 0,0 2.247,-7.146 5.783,-10.584 l 0,0 c 2.409,-2.34 6.459,-2.521 7.9,-2.521 l 0,0 c 2.88,0 6.55,0.193 8.958,2.535 l 0,0 C 30.644,7.507 32.612,14 32.612,14 l 0,0 -15.843,0 z"/></clipPath><clipPath id="clipPath40" clipPathUnits="userSpaceOnUse"><path id="path42" d="M 0,36 36,36 36,0 0,0 0,36 Z"/></clipPath><clipPath id="clipPath56" clipPathUnits="userSpaceOnUse"><path id="path58" d="m 3.856,16.716 c 0.901,-0.331 6.69,-2.382 13.993,-2.382 l 0,0 c 8.222,0 14.249,1.787 15.627,2.778 l 0,0 c 1.38,0.992 1.329,9.591 -4.952,12.905 l 0,0 C 23.161,32.846 23.01,35.625 17.9,35.625 l 0,0 c -7.661,0 -21.194,-16.279 -14.044,-18.909"/></clipPath><clipPath id="clipPath68" clipPathUnits="userSpaceOnUse"><path id="path70" d="M 0,36 36,36 36,0 0,0 0,36 Z"/></clipPath></defs><g id="g10" transform="matrix(1.25,0,0,-1.25,0,45)"><g id="g12"><g id="g14" clip-path="url(#clipPath16)"><g id="g20" transform="translate(16.7686,14)"><path id="path22" d="m 0,0 -12.963,0 c 0,0 2.248,-7.146 5.784,-10.584 2.408,-2.34 6.459,-2.521 7.899,-2.521 2.88,0 6.551,0.193 8.959,2.535 C 13.876,-6.493 15.844,0 15.844,0 L 0,0 Z" style="fill:#55acee;fill-opacity:1;fill-rule:nonzero;stroke:none"/></g></g></g><g id="g24"><g id="g26" clip-path="url(#clipPath28)"><g id="g32" transform="translate(32.6123,12.4492)"><path id="path34" d="m 0,0 c 0,-2.32 -4.858,-4.899 -14.403,-4.899 -9.546,0 -14.404,2.579 -14.404,4.899 0,2.319 4.858,4.198 14.404,4.198 C -4.858,4.198 0,2.319 0,0" style="fill:#3b88c3;fill-opacity:1;fill-rule:nonzero;stroke:none"/></g></g></g><g id="g36"><g id="g38" clip-path="url(#clipPath40)"><g id="g44" transform="translate(2,19)"><path id="path46" d="m 0,0 0,-4.453 c 0,-2.318 7.251,-4.198 16,-4.198 8.751,0 16,1.88 16,4.198 L 32,0 0,0 Z" style="fill:#55acee;fill-opacity:1;fill-rule:nonzero;stroke:none"/></g><g id="g48" transform="translate(3.8569,16.7168)"><path id="path50" d="m 0,0 c 0.901,-0.331 6.693,-2.383 13.999,-2.383 8.225,0 14.253,1.788 15.633,2.779 1.38,0.993 1.328,9.595 -4.955,12.91 -5.365,2.83 -5.514,5.611 -10.627,5.611 C 6.386,18.917 -7.153,2.631 0,0" style="fill:#f9d2dc;fill-opacity:1;fill-rule:nonzero;stroke:none"/></g></g></g><g id="g52"><g id="g54" clip-path="url(#clipPath56)"><g id="g60" transform="translate(3.4697,25.8892)"><path id="path62" d="m 0,0 c 1.555,0.731 5.467,2.243 8.378,-1.658 2.91,-3.9 9.483,-1.756 12.293,0.975 2.808,2.73 6.52,1.22 10.735,0.196 C 35.621,-1.512 28.598,13.652 19.917,12.677 11.237,11.701 5.569,15.357 2.107,9.556 -1.354,3.754 0,0 0,0" style="fill:#f98097;fill-opacity:1;fill-rule:nonzero;stroke:none"/></g></g></g><g id="g64"><g id="g66" clip-path="url(#clipPath68)"><g id="g72" transform="translate(13,29)"><path id="path74" d="m 0,0 c 0,-0.552 -0.448,-1 -1,-1 -0.552,0 -1,0.448 -1,1 0,0.552 0.448,1 1,1 0.552,0 1,-0.448 1,-1" style="fill:#ea596e;fill-opacity:1;fill-rule:nonzero;stroke:none"/></g><g id="g76" transform="translate(19,26)"><path id="path78" d="m 0,0 c 0,-0.552 -0.447,-1 -1,-1 -0.553,0 -1,0.448 -1,1 0,0.552 0.447,1 1,1 0.553,0 1,-0.448 1,-1" style="fill:#ea596e;fill-opacity:1;fill-rule:nonzero;stroke:none"/></g><g id="g80" transform="translate(23,31)"><path id="path82" d="m 0,0 c 0,-0.552 -0.447,-1 -1,-1 -0.553,0 -1,0.448 -1,1 0,0.552 0.447,1 1,1 0.553,0 1,-0.448 1,-1" style="fill:#ea596e;fill-opacity:1;fill-rule:nonzero;stroke:none"/></g></g></g></g></svg>