<svg xmlns="http://www.w3.org/2000/svg" xmlns:svg="http://www.w3.org/2000/svg" style="enable-background:new 0 0 45 45" id="svg2" version="1.1" viewBox="0 0 45 45" xml:space="preserve"><metadata id="metadata8"/><defs id="defs6"><clipPath id="clipPath16" clipPathUnits="userSpaceOnUse"><path id="path18" d="M 0,36 36,36 36,0 0,0 0,36 Z"/></clipPath></defs><g id="g10" transform="matrix(1.25,0,0,-1.25,0,45)"><g id="g12"><g id="g14" clip-path="url(#clipPath16)"><g id="g20" transform="translate(36,18)"><path id="path22" d="m 0,0 c 0,-9.941 -8.059,-18 -18,-18 -9.941,0 -18,8.059 -18,18 0,9.941 8.059,18 18,18 C -8.059,18 0,9.941 0,0" style="fill:#e1e8ed;fill-opacity:1;fill-rule:nonzero;stroke:none"/></g><g id="g24" transform="translate(30,18)"><path id="path26" d="m 0,0 c 0,-6.628 -5.372,-12 -12,-12 -6.628,0 -12,5.372 -12,12 0,6.628 5.372,12 12,12 C -5.372,12 0,6.628 0,0" style="fill:#ccd6dd;fill-opacity:1;fill-rule:nonzero;stroke:none"/></g><g id="g28" transform="translate(29,18)"><path id="path30" d="m 0,0 c 0,-6.075 -4.925,-11 -11,-11 -6.076,0 -11,4.925 -11,11 0,6.076 4.924,11 11,11 C -4.925,11 0,6.076 0,0" style="fill:#e1e8ed;fill-opacity:1;fill-rule:nonzero;stroke:none"/></g><g id="g32" transform="translate(2,35)"><path id="path34" d="m 0,0 c 0,-0.552 -0.448,-1 -1,-1 -0.552,0 -1,0.448 -1,1 0,0.552 0.448,1 1,1 0.552,0 1,-0.448 1,-1" style="fill:#99aab5;fill-opacity:1;fill-rule:nonzero;stroke:none"/></g><path id="path36" d="m 2,28 -2,0 0,7 2,0 0,-7 z" style="fill:#99aab5;fill-opacity:1;fill-rule:nonzero;stroke:none"/><g id="g38" transform="translate(6,35)"><path id="path40" d="m 0,0 c 0,-0.552 -0.448,-1 -1,-1 -0.552,0 -1,0.448 -1,1 0,0.552 0.448,1 1,1 0.552,0 1,-0.448 1,-1" style="fill:#99aab5;fill-opacity:1;fill-rule:nonzero;stroke:none"/></g><path id="path42" d="m 6,28 -2,0 0,7 2,0 0,-7 z" style="fill:#99aab5;fill-opacity:1;fill-rule:nonzero;stroke:none"/><g id="g44" transform="translate(10,35)"><path id="path46" d="m 0,0 c 0,-0.552 -0.448,-1 -1,-1 -0.552,0 -1,0.448 -1,1 0,0.552 0.448,1 1,1 0.552,0 1,-0.448 1,-1" style="fill:#99aab5;fill-opacity:1;fill-rule:nonzero;stroke:none"/></g><path id="path48" d="m 10,28 -2,0 0,7 2,0 0,-7 z" style="fill:#99aab5;fill-opacity:1;fill-rule:nonzero;stroke:none"/><path id="path50" d="M 7,2 3,2 3,22 7,22 7,2 Z" style="fill:#99aab5;fill-opacity:1;fill-rule:nonzero;stroke:none"/><g id="g52" transform="translate(7,2)"><path id="path54" d="m 0,0 c 0,1.105 -0.896,2 -2,2 -1.104,0 -2,-0.895 -2,-2 0,-1.105 0.896,-2 2,-2 1.104,0 2,0.895 2,2" style="fill:#99aab5;fill-opacity:1;fill-rule:nonzero;stroke:none"/></g><g id="g56" transform="translate(8,28)"><path id="path58" d="m 0,0 c 0,-0.552 -0.448,-1 -1,-1 -0.552,0 -1,0.448 -1,1 l -2,0 c 0,-0.552 -0.448,-1 -1,-1 -0.552,0 -1,0.448 -1,1 l -2,0 c 0,-3.866 1,-7 5,-7 4,0 5,3.134 5,7 L 0,0 Z" style="fill:#99aab5;fill-opacity:1;fill-rule:nonzero;stroke:none"/></g><g id="g60" transform="translate(1.9995,28.0005)"><path id="path62" d="m 0,0 c 0,-0.552 -0.448,-1 -1,-1 -0.552,0 -1,0.448 -1,1 0,0.552 0.448,1 1,1 0.552,0 1,-0.448 1,-1" style="fill:#99aab5;fill-opacity:1;fill-rule:nonzero;stroke:none"/></g><g id="g64" transform="translate(5.9995,28.0005)"><path id="path66" d="m 0,0 c 0,-0.552 -0.448,-1 -1,-1 -0.552,0 -1,0.448 -1,1 0,0.552 0.448,1 1,1 0.552,0 1,-0.448 1,-1" style="fill:#99aab5;fill-opacity:1;fill-rule:nonzero;stroke:none"/></g><g id="g68" transform="translate(9.9995,28.0005)"><path id="path70" d="m 0,0 c 0,-0.552 -0.448,-1 -1,-1 -0.552,0 -1,0.448 -1,1 0,0.552 0.448,1 1,1 0.552,0 1,-0.448 1,-1" style="fill:#99aab5;fill-opacity:1;fill-rule:nonzero;stroke:none"/></g><path id="path72" d="m 34,2 -4,0 0,20 4,0 0,-20 z" style="fill:#99aab5;fill-opacity:1;fill-rule:nonzero;stroke:none"/><g id="g74" transform="translate(34,2)"><path id="path76" d="m 0,0 c 0,1.105 -0.895,2 -2,2 -1.104,0 -2,-0.895 -2,-2 0,-1.105 0.896,-2 2,-2 1.105,0 2,0.895 2,2" style="fill:#99aab5;fill-opacity:1;fill-rule:nonzero;stroke:none"/></g><g id="g78" transform="translate(32,36)"><path id="path80" d="m 0,0 c 1,0 2,-1 2,-3 l 0,-16 c 0,0 -7,-2 -7,8.001 C -5,-5 -2,0 0,0" style="fill:#99aab5;fill-opacity:1;fill-rule:nonzero;stroke:none"/></g></g></g></g></svg>