<svg xmlns="http://www.w3.org/2000/svg" xmlns:svg="http://www.w3.org/2000/svg" style="enable-background:new 0 0 45 45" id="svg2" version="1.1" viewBox="0 0 45 45" xml:space="preserve"><metadata id="metadata8"/><defs id="defs6"><clipPath id="clipPath16" clipPathUnits="userSpaceOnUse"><path id="path18" d="M 0,36 36,36 36,0 0,0 0,36 Z"/></clipPath><clipPath id="clipPath40" clipPathUnits="userSpaceOnUse"><path id="path42" d="M 11,25 C 6,26 3.458,22.17 4,20 l 0,0 c 1,-4 6,-2 7,-1 l 0,0 c 5,-2 9,1 10,3 l 0,0 c 1.613,3.225 -2,5 -4,5 l 0,0 c -3.163,0 -5,-1 -6,-2"/></clipPath><clipPath id="clipPath52" clipPathUnits="userSpaceOnUse"><path id="path54" d="M 0,36 36,36 36,0 0,0 0,36 Z"/></clipPath><clipPath id="clipPath64" clipPathUnits="userSpaceOnUse"><path id="path66" d="m 5,20 c -2,-5 8,-8 12,-8 l 0,0 c 4,0 5,1 4,2 l 0,0 c -1.414,1.414 -5,2 -6,3 l 0,0 c -2.737,3.284 -5.316,4.265 -7.176,4.265 l 0,0 C 6.285,21.265 5.238,20.594 5,20"/></clipPath><clipPath id="clipPath76" clipPathUnits="userSpaceOnUse"><path id="path78" d="M 0,36 36,36 36,0 0,0 0,36 Z"/></clipPath></defs><g id="g10" transform="matrix(1.25,0,0,-1.25,0,45)"><g id="g12"><g id="g14" clip-path="url(#clipPath16)"><g id="g20" transform="translate(13.0371,1.1836)"><path id="path22" d="m 0,0 c -12.243,1.804 -12.037,14.098 -12.037,17.816 l 34,0 C 21.963,15.903 22.05,2.047 8.838,-0.102 6.796,-0.434 2.379,-0.351 0,0" style="fill:#292f33;fill-opacity:1;fill-rule:nonzero;stroke:none"/></g><g id="g24" transform="translate(33.3877,22.7534)"><path id="path26" d="m 0,0 c 2.467,5.574 -8.331,5.254 -11.035,4.382 -1.392,0.161 -2.846,0.253 -4.353,0.253 -9.389,0 -17,-3.228 -17,-8.444 0,-1.009 0.291,-1.979 0.819,-2.891 -4.327,-5.712 4.245,-6.786 9.183,-5.71 2.137,-0.537 4.501,-0.843 6.998,-0.843 9.389,0 17,4.228 17,9.444 C 1.612,-2.379 1.023,-1.105 0,0" style="fill:#66757f;fill-opacity:1;fill-rule:nonzero;stroke:none"/></g><g id="g28" transform="translate(33,18)"><path id="path30" d="m 0,0 c 0,-3.866 -6.716,-7 -15,-7 -8.284,0 -15,3.134 -15,7 0,3.866 6.716,7 15,7 C -6.716,7 0,3.866 0,0" style="fill:#ffcc4d;fill-opacity:1;fill-rule:nonzero;stroke:none"/></g><g id="g32" transform="translate(4,20)"><path id="path34" d="M 0,0 C -0.542,2.169 2,6 7,5 8,6 9.838,7 13,7 15,7 18.612,5.225 17,2 16,0 12,-3 7,-1 6,-2 1,-4 0,0" style="fill:#77b255;fill-opacity:1;fill-rule:nonzero;stroke:none"/></g></g></g><g id="g36"><g id="g38" clip-path="url(#clipPath40)"><g id="g44" transform="translate(19,27)"><path id="path46" d="m 0,0 c 1,-1 0,-7 -7,-8 -7,-1 3,-3 6,-2 3,1 9,5 7,7 -2,2 -6,3 -6,3" style="fill:#5c913b;fill-opacity:1;fill-rule:nonzero;stroke:none"/></g></g></g><g id="g48"><g id="g50" clip-path="url(#clipPath52)"><g id="g56" transform="translate(5,20)"><path id="path58" d="m 0,0 c 0.525,1.313 5,3 10,-3 1,-1 4.586,-1.586 6,-3 1,-1 0,-2 -4,-2 -4,0 -14,3 -12,8" style="fill:#d99e82;fill-opacity:1;fill-rule:nonzero;stroke:none"/></g></g></g><g id="g60"><g id="g62" clip-path="url(#clipPath64)"><g id="g68" transform="translate(6,16)"><path id="path70" d="m 0,0 c 2,-1 11,-3 14,-1 3,2 3,-1 3,-2 0,-1 -3,-5 -8,-3 -5,2 -9,3 -9,4 l 0,2 z" style="fill:#b27962;fill-opacity:1;fill-rule:nonzero;stroke:none"/></g></g></g><g id="g72"><g id="g74" clip-path="url(#clipPath76)"><g id="g80" transform="translate(27,16.999)"><path id="path82" d="m 0,0 c -0.209,0 -0.423,0.034 -0.633,0.104 l -3,1 c -1.048,0.349 -1.614,1.481 -1.264,2.529 0.348,1.048 1.478,1.615 2.53,1.265 l 3,-1 C 1.681,3.549 2.247,2.416 1.898,1.369 1.618,0.53 0.838,0 0,0" style="fill:#ffe8b6;fill-opacity:1;fill-rule:nonzero;stroke:none"/></g><g id="g84" transform="translate(26,14)"><path id="path86" d="m 0,0 -2,0 c -0.553,0 -1,0.447 -1,1 0,0.553 0.447,1 1,1 L 0,2 C 0.553,2 1,1.553 1,1 1,0.447 0.553,0 0,0" style="fill:#ffe8b6;fill-opacity:1;fill-rule:nonzero;stroke:none"/></g></g></g></g></svg>