<svg xmlns="http://www.w3.org/2000/svg" xmlns:svg="http://www.w3.org/2000/svg" style="enable-background:new 0 0 45 45" id="svg2" version="1.1" viewBox="0 0 45 45" xml:space="preserve"><metadata id="metadata8"/><defs id="defs6"><clipPath id="clipPath16" clipPathUnits="userSpaceOnUse"><path id="path18" d="M 0,36 36,36 36,0 0,0 0,36 Z"/></clipPath><clipPath id="clipPath28" clipPathUnits="userSpaceOnUse"><path id="path30" d="m 27,17 -4,0 c -1.65,0 -4,-3.584 -4,-7 l 0,0 0,-6 c 0,-1.65 1.35,-3 3,-3 l 0,0 5,0 5,0 c 1.65,0 3,1.35 3,3 l 0,0 0,6 c 0,3.416 -2.35,7 -4,7 l 0,0 -4,0 z"/></clipPath><clipPath id="clipPath40" clipPathUnits="userSpaceOnUse"><path id="path42" d="M 0,36 36,36 36,0 0,0 0,36 Z"/></clipPath><clipPath id="clipPath52" clipPathUnits="userSpaceOnUse"><path id="path54" d="M 9,17 5,17 C 3.35,17 1,13.416 1,10 L 1,10 1,4 C 1,2.35 2.35,1 4,1 l 0,0 5,0 5,0 c 1.65,0 3,1.35 3,3 l 0,0 0,6 c 0,3.416 -2.35,7 -4,7 l 0,0 -4,0 z"/></clipPath><clipPath id="clipPath64" clipPathUnits="userSpaceOnUse"><path id="path66" d="M 0,36 36,36 36,0 0,0 0,36 Z"/></clipPath></defs><g id="g10" transform="matrix(1.25,0,0,-1.25,0,45)"><g id="g12"><g id="g14" clip-path="url(#clipPath16)"><g id="g20" transform="translate(31,17)"><path id="path22" d="m 0,0 -4,0 -4,0 c -1.65,0 -4,-3.583 -4,-7 l 0,-6 c 0,-1.65 1.35,-3 3,-3 l 5,0 5,0 c 1.65,0 3,1.35 3,3 l 0,6 C 4,-3.583 1.65,0 0,0" style="fill:#f26522;fill-opacity:1;fill-rule:nonzero;stroke:none"/></g></g></g><g id="g24"><g id="g26" clip-path="url(#clipPath28)"><g id="g32" transform="translate(23,16)"><path id="path34" d="m 0,0 c 0,-2 -0.2,-4 3,-5 l 0,-4 c 0,-2.219 -2.267,-4 -7,-4 l 0,-2 16,0 0,2 c -4.733,0 -7,1.781 -7,4 l 0,4 c 3.2,1 3,3 3,5 L 0,0 Z" style="fill:#d14a15;fill-opacity:1;fill-rule:nonzero;stroke:none"/></g></g></g><g id="g36"><g id="g38" clip-path="url(#clipPath40)"><g id="g44" transform="translate(13,17)"><path id="path46" d="m 0,0 -4,0 -4,0 c -1.65,0 -4,-3.583 -4,-7 l 0,-6 c 0,-1.65 1.35,-3 3,-3 l 5,0 5,0 c 1.65,0 3,1.35 3,3 l 0,6 C 4,-3.583 1.65,0 0,0" style="fill:#27aae1;fill-opacity:1;fill-rule:nonzero;stroke:none"/></g></g></g><g id="g48"><g id="g50" clip-path="url(#clipPath52)"><g id="g56" transform="translate(5,16)"><path id="path58" d="m 0,0 c 0,-2 -0.2,-4 3,-5 l 0,-4 c 0,-2.219 -2.267,-4 -7,-4 l 0,-2 16,0 0,2 c -4.733,0 -7,1.781 -7,4 l 0,4 c 3.2,1 3,3 3,5 L 0,0 Z" style="fill:#005792;fill-opacity:1;fill-rule:nonzero;stroke:none"/></g></g></g><g id="g60"><g id="g62" clip-path="url(#clipPath64)"><g id="g68" transform="translate(27,14)"><path id="path70" d="m 0,0 c -4.527,0 -6,-3 -6,-3 l 6,-4 6,4 C 6,-3 4.527,0 0,0" style="fill:#ffcc4d;fill-opacity:1;fill-rule:nonzero;stroke:none"/></g><g id="g72" transform="translate(35,24)"><path id="path74" d="m 0,0 0,-6 c 0,-3 -5.707,0 -7.5,0 -1.976,0 -8.5,-3 -8.5,0 l 0,6 c 0,4.418 3.582,8 8,8 4.418,0 8,-3.582 8,-8" style="fill:#292f33;fill-opacity:1;fill-rule:nonzero;stroke:none"/></g><g id="g76" transform="translate(33,22)"><path id="path78" d="m 0,0 c 0,-3 -0.406,-7 -6,-7 -5.594,0 -6,3 -6,7 3.031,0 6,2 6,2 0,0 3.031,-2 6,-2" style="fill:#f5f8fa;fill-opacity:1;fill-rule:nonzero;stroke:none"/></g><g id="g80" transform="translate(31.6034,19.6387)"><path id="path82" d="m 0,0 c -0.906,0.146 -2.457,0.47 -3.318,-0.318 -0.358,-0.261 -0.098,-1.003 0.572,-0.685 0.669,0.319 2.184,0.404 2.789,0.438 C 0.649,-0.531 0.659,-0.106 0,0" style="fill:#292f33;fill-opacity:1;fill-rule:nonzero;stroke:none"/></g><g id="g84" transform="translate(22.4361,19.6387)"><path id="path86" d="M 0,0 C 0.906,0.146 2.457,0.47 3.318,-0.318 3.676,-0.579 3.416,-1.321 2.746,-1.003 2.077,-0.684 0.562,-0.599 -0.043,-0.565 -0.649,-0.531 -0.659,-0.106 0,0" style="fill:#292f33;fill-opacity:1;fill-rule:nonzero;stroke:none"/></g><g id="g88" transform="translate(32.0198,29.7414)"><path id="path90" d="m 0,0 c 0,1.247 -2.239,2.259 -5,2.259 -2.761,0 -5,-1.012 -5,-2.259 0,-0.61 2.88,-1.164 5,-1.57 2.12,0.406 5,0.96 5,1.57" style="fill:#f26522;fill-opacity:1;fill-rule:nonzero;stroke:none"/></g><g id="g92" transform="translate(27,30)"><path id="path94" d="m 0,0 c -0.553,0 -1,0.448 -1,1 l 0,3 C -1,4.552 -0.553,5 0,5 0.553,5 1,4.552 1,4 L 1,1 C 1,0.448 0.553,0 0,0" style="fill:#d14a15;fill-opacity:1;fill-rule:nonzero;stroke:none"/></g><g id="g96" transform="translate(24,30)"><path id="path98" d="m 0,0 c -0.256,0 -0.512,0.098 -0.707,0.293 l -2,2 c -0.391,0.391 -0.391,1.023 0,1.414 0.391,0.391 1.023,0.391 1.414,0 l 2,-2 C 1.098,1.316 1.098,0.684 0.707,0.293 0.512,0.098 0.256,0 0,0" style="fill:#d14a15;fill-opacity:1;fill-rule:nonzero;stroke:none"/></g><g id="g100" transform="translate(30,30)"><path id="path102" d="m 0,0 c -0.256,0 -0.512,0.098 -0.707,0.293 -0.391,0.391 -0.391,1.023 0,1.414 l 2,2 c 0.391,0.391 1.023,0.391 1.414,0 0.391,-0.391 0.391,-1.023 0,-1.414 l -2,-2 C 0.512,0.098 0.256,0 0,0" style="fill:#d14a15;fill-opacity:1;fill-rule:nonzero;stroke:none"/></g><g id="g104" transform="translate(25.5198,16.7031)"><path id="path106" d="M 0,0 C 0,-0.293 0.672,-0.531 1.5,-0.531 2.328,-0.531 3,-0.293 3,0 3,0.293 2.328,0.531 1.5,0.531 0.672,0.531 0,0.293 0,0" style="fill:#a0041e;fill-opacity:1;fill-rule:nonzero;stroke:none"/></g><g id="g108" transform="translate(17,23)"><path id="path110" d="m 0,0 0,-3 c 0,-3 -6.207,-3 -8,-3 -1.976,0 -8,0 -8,3 l 0,3 c 0,4.418 3.582,6 8,6 4.418,0 8,-1.582 8,-6" style="fill:#292f33;fill-opacity:1;fill-rule:nonzero;stroke:none"/></g><g id="g112" transform="translate(3,23)"><path id="path114" d="m 0,0 0,-1 c 0,-4 0.406,-7 6,-7 5.594,0 6,4 6,7 L 12,0 0,0 Z" style="fill:#f5f8fa;fill-opacity:1;fill-rule:nonzero;stroke:none"/></g><g id="g116" transform="translate(13.6034,19.6387)"><path id="path118" d="m 0,0 c -0.906,0.146 -2.457,0.47 -3.318,-0.318 -0.358,-0.261 -0.098,-1.003 0.572,-0.685 0.669,0.319 2.184,0.404 2.789,0.438 C 0.649,-0.531 0.659,-0.106 0,0" style="fill:#292f33;fill-opacity:1;fill-rule:nonzero;stroke:none"/></g><g id="g120" transform="translate(4.4361,19.6387)"><path id="path122" d="M 0,0 C 0.906,0.146 2.457,0.47 3.318,-0.318 3.676,-0.579 3.416,-1.321 2.746,-1.003 2.077,-0.684 0.562,-0.599 -0.043,-0.565 -0.649,-0.531 -0.659,-0.106 0,0" style="fill:#292f33;fill-opacity:1;fill-rule:nonzero;stroke:none"/></g><g id="g124" transform="translate(7.5198,16.7031)"><path id="path126" d="M 0,0 C 0,-0.293 0.672,-0.531 1.5,-0.531 2.328,-0.531 3,-0.293 3,0 3,0.293 2.328,0.531 1.5,0.531 0.672,0.531 0,0.293 0,0" style="fill:#a0041e;fill-opacity:1;fill-rule:nonzero;stroke:none"/></g><g id="g128" transform="translate(28.5625,34)"><path id="path130" d="m 0,0 c 0,-0.863 -0.7,-1.562 -1.562,-1.562 -0.863,0 -1.563,0.699 -1.563,1.562 0,0.863 0.7,1.562 1.563,1.562 C -0.7,1.562 0,0.863 0,0" style="fill:#d14a15;fill-opacity:1;fill-rule:nonzero;stroke:none"/></g><g id="g132" transform="translate(23.5625,33)"><path id="path134" d="m 0,0 c 0,-0.863 -0.7,-1.562 -1.562,-1.562 -0.863,0 -1.563,0.699 -1.563,1.562 0,0.863 0.7,1.562 1.563,1.562 C -0.7,1.562 0,0.863 0,0" style="fill:#d14a15;fill-opacity:1;fill-rule:nonzero;stroke:none"/></g><g id="g136" transform="translate(33.5625,33)"><path id="path138" d="m 0,0 c 0,-0.863 -0.7,-1.562 -1.562,-1.562 -0.863,0 -1.563,0.699 -1.563,1.562 0,0.863 0.7,1.562 1.563,1.562 C -0.7,1.562 0,0.863 0,0" style="fill:#d14a15;fill-opacity:1;fill-rule:nonzero;stroke:none"/></g><g id="g140" transform="translate(5,9)"><path id="path142" d="m 0,0 c 0,-0.553 -0.448,-1 -1,-1 -0.552,0 -1,0.447 -1,1 0,0.553 0.448,1 1,1 0.552,0 1,-0.447 1,-1" style="fill:#bbddf5;fill-opacity:1;fill-rule:nonzero;stroke:none"/></g><g id="g144" transform="translate(15,6)"><path id="path146" d="m 0,0 c 0,-0.553 -0.448,-1 -1,-1 -0.552,0 -1,0.447 -1,1 0,0.553 0.448,1 1,1 0.552,0 1,-0.447 1,-1" style="fill:#bbddf5;fill-opacity:1;fill-rule:nonzero;stroke:none"/></g><g id="g148" transform="translate(23,6)"><path id="path150" d="m 0,0 c 0,-0.553 -0.448,-1 -1,-1 -0.552,0 -1,0.447 -1,1 0,0.553 0.448,1 1,1 0.552,0 1,-0.447 1,-1" style="fill:#ffb699;fill-opacity:1;fill-rule:nonzero;stroke:none"/></g><g id="g152" transform="translate(33,6)"><path id="path154" d="m 0,0 c 0,-0.553 -0.448,-1 -1,-1 -0.552,0 -1,0.447 -1,1 0,0.553 0.448,1 1,1 0.552,0 1,-0.447 1,-1" style="fill:#ffb699;fill-opacity:1;fill-rule:nonzero;stroke:none"/></g><g id="g156" transform="translate(10.1815,14.1208)"><path id="path158" d="M 0,0 -1.181,0.003 -2.361,0 c -0.484,-0.001 -0.928,-0.324 -0.85,-0.98 l 1.152,-10.143 c 0.098,-0.513 0.394,-0.812 0.878,-0.81 0.484,-0.002 0.781,0.297 0.879,0.81 L 0.85,-0.98 C 0.928,-0.324 0.484,-0.001 0,0" style="fill:#ffcc4d;fill-opacity:1;fill-rule:nonzero;stroke:none"/></g><g id="g160" transform="translate(16,23.8473)"><path id="path162" d="m 0,0 c 0,-1.011 -3.134,-1.83 -7,-1.83 -3.866,0 -7,0.819 -7,1.83 0,1.011 3.134,1.83 7,1.83 3.866,0 7,-0.819 7,-1.83" style="fill:#292f33;fill-opacity:1;fill-rule:nonzero;stroke:none"/></g><g id="g164" transform="translate(12.125,28.1262)"><path id="path166" d="m 0,0 c 0,-3.46 -6.25,-3.46 -6.25,0 0,3.46 1.399,6.874 3.125,6.874 C -1.399,6.874 0,3.46 0,0" style="fill:#26aae1;fill-opacity:1;fill-rule:nonzero;stroke:none"/></g></g></g></g></svg>