<svg xmlns="http://www.w3.org/2000/svg" xmlns:svg="http://www.w3.org/2000/svg" style="enable-background:new 0 0 45 45" id="svg2" version="1.1" viewBox="0 0 45 45" xml:space="preserve"><metadata id="metadata8"/><defs id="defs6"><clipPath id="clipPath16" clipPathUnits="userSpaceOnUse"><path id="path18" d="M 0,36 36,36 36,0 0,0 0,36 Z"/></clipPath></defs><g id="g10" transform="matrix(1.25,0,0,-1.25,0,45)"><g id="g12"><g id="g14" clip-path="url(#clipPath16)"><g id="g20" transform="translate(33,4)"><path id="path22" d="m 0,0 c 0,-2.209 -1.791,-4 -4,-4 l -22,0 c -2.209,0 -4,1.791 -4,4 l 0,28 c 0,2.209 1.791,4 4,4 l 22,0 c 2.209,0 4,-1.791 4,-4 L 0,0 Z" style="fill:#ccd6dd;fill-opacity:1;fill-rule:nonzero;stroke:none"/></g><g id="g24" transform="translate(19,5)"><path id="path26" d="m 0,0 c 0,-0.553 -0.448,-1 -1,-1 -0.552,0 -1,0.447 -1,1 l 0,26 c 0,0.552 0.448,1 1,1 0.552,0 1,-0.448 1,-1 L 0,0 Z" style="fill:#292f33;fill-opacity:1;fill-rule:nonzero;stroke:none"/></g><g id="g28" transform="translate(15,30)"><path id="path30" d="m 0,0 c 0,-0.552 -0.448,-1 -1,-1 l -4,0 c -0.552,0 -1,0.448 -1,1 0,0.552 0.448,1 1,1 l 4,0 C -0.448,1 0,0.552 0,0" style="fill:#99aab5;fill-opacity:1;fill-rule:nonzero;stroke:none"/></g><g id="g32" transform="translate(15,18)"><path id="path34" d="m 0,0 c 0,-0.553 -0.448,-1 -1,-1 l -4,0 c -0.552,0 -1,0.447 -1,1 0,0.552 0.448,1 1,1 l 4,0 C -0.448,1 0,0.552 0,0" style="fill:#99aab5;fill-opacity:1;fill-rule:nonzero;stroke:none"/></g><g id="g36" transform="translate(15,6)"><path id="path38" d="m 0,0 c 0,-0.553 -0.448,-1 -1,-1 l -4,0 c -0.552,0 -1,0.447 -1,1 0,0.553 0.448,1 1,1 l 4,0 C -0.448,1 0,0.553 0,0" style="fill:#99aab5;fill-opacity:1;fill-rule:nonzero;stroke:none"/></g><g id="g40" transform="translate(27,30)"><path id="path42" d="m 0,0 c 0,-0.552 -0.447,-1 -1,-1 l -4,0 c -0.553,0 -1,0.448 -1,1 0,0.552 0.447,1 1,1 l 4,0 C -0.447,1 0,0.552 0,0" style="fill:#99aab5;fill-opacity:1;fill-rule:nonzero;stroke:none"/></g><g id="g44" transform="translate(27,18)"><path id="path46" d="m 0,0 c 0,-0.553 -0.447,-1 -1,-1 l -4,0 c -0.553,0 -1,0.447 -1,1 0,0.552 0.447,1 1,1 l 4,0 C -0.447,1 0,0.552 0,0" style="fill:#99aab5;fill-opacity:1;fill-rule:nonzero;stroke:none"/></g><g id="g48" transform="translate(27,6)"><path id="path50" d="m 0,0 c 0,-0.553 -0.447,-1 -1,-1 l -4,0 c -0.553,0 -1,0.447 -1,1 0,0.553 0.447,1 1,1 l 4,0 C -0.447,1 0,0.553 0,0" style="fill:#99aab5;fill-opacity:1;fill-rule:nonzero;stroke:none"/></g><g id="g52" transform="translate(15,11.8936)"><path id="path54" d="m 0,0 c 0,-0.493 -0.4,-0.894 -0.893,-0.894 l -2.214,0 C -3.6,-0.894 -4,-0.493 -4,0 l 0,0.213 c 0,0.493 0.4,0.893 0.893,0.893 l 2.214,0 C -0.4,1.106 0,0.706 0,0.213 L 0,0 Z" style="fill:#99aab5;fill-opacity:1;fill-rule:nonzero;stroke:none"/></g><g id="g56" transform="translate(25,11.8936)"><path id="path58" d="m 0,0 c 0,-0.493 -0.4,-0.894 -0.893,-0.894 l -2.214,0 C -3.6,-0.894 -4,-0.493 -4,0 l 0,0.213 c 0,0.493 0.4,0.893 0.893,0.893 l 2.214,0 C -0.4,1.106 0,0.706 0,0.213 L 0,0 Z" style="fill:#99aab5;fill-opacity:1;fill-rule:nonzero;stroke:none"/></g><g id="g60" transform="translate(25,23)"><path id="path62" d="m 0,0 c 0,-1.104 -0.895,-2 -2,-2 l -10,0 c -1.104,0 -2,0.896 -2,2 l 0,2 c 0,1.104 0.896,2 2,2 L -2,4 C -0.895,4 0,3.104 0,2 L 0,0 Z" style="fill:#269;fill-opacity:1;fill-rule:nonzero;stroke:none"/></g></g></g></g></svg>