<svg xmlns="http://www.w3.org/2000/svg" xmlns:svg="http://www.w3.org/2000/svg" style="enable-background:new 0 0 45 45" id="svg2" version="1.1" viewBox="0 0 45 45" xml:space="preserve"><metadata id="metadata8"/><defs id="defs6"><clipPath id="clipPath16" clipPathUnits="userSpaceOnUse"><path id="path18" d="M 0,36 36,36 36,0 0,0 0,36 Z"/></clipPath></defs><g id="g10" transform="matrix(1.25,0,0,-1.25,0,45)"><g id="g12"><g id="g14" clip-path="url(#clipPath16)"><g id="g20" transform="translate(32,15)"><path id="path22" d="m 0,0 0,-1 -2,0 0,1 c 0,0.446 -0.09,0.867 -0.225,1.268 2.447,0.757 4.224,3.037 4.224,5.733 0,3.313 -2.686,5.999 -6,5.999 -1.603,0 -3.055,-0.632 -4.131,-1.656 C -8.759,14.567 -11.595,17 -15.001,17 -18.867,17 -22,13.867 -22,10.001 -22,7.449 -20.631,5.223 -18.592,4 L -19,4 c -2.209,0 -4,-1.791 -4,-4 l -1,0 0,0 -6,4 -1,0 0,-14 1,0 6,4 0,0 1,0 0,-2 c 0,-2.209 1.791,-4 4,-4 l 13,0 c 2.209,0 4,1.791 4,4 l 0,3 2,0 0,-1 3,0 0,6 -3,0 z" style="fill:#292f33;fill-opacity:1;fill-rule:nonzero;stroke:none"/></g><g id="g24" transform="translate(22,25.0005)"><path id="path26" d="m 0,0 c 0,-2.761 -2.239,-5 -5.001,-5 -2.761,0 -5,2.239 -5,5 0,2.761 2.239,5 5,5 C -2.239,5 0,2.761 0,0" style="fill:#66757f;fill-opacity:1;fill-rule:nonzero;stroke:none"/></g><g id="g28" transform="translate(19,25.0005)"><path id="path30" d="m 0,0 c 0,-1.105 -1,-2 -2,-2 -1,0 -2,0.895 -2,2 0,1.104 0.896,2 2,2 1.105,0 2,-0.896 2,-2" style="fill:#ccd6dd;fill-opacity:1;fill-rule:nonzero;stroke:none"/></g><g id="g32" transform="translate(31.999,22.0005)"><path id="path34" d="m 0,0 c 0,-2.209 -1.791,-4 -4,-4 -2.209,0 -4,1.791 -4,4 0,2.209 1.791,4 4,4 2.209,0 4,-1.791 4,-4" style="fill:#66757f;fill-opacity:1;fill-rule:nonzero;stroke:none"/></g><g id="g36" transform="translate(29.999,22.0005)"><path id="path38" d="m 0,0 c 0,-1.105 -0.896,-2 -2,-2 -1.105,0 -2,0.895 -2,2 0,1.104 0.895,2 2,2 1.104,0 2,-0.896 2,-2" style="fill:#ccd6dd;fill-opacity:1;fill-rule:nonzero;stroke:none"/></g><path id="path40" d="M 27,6 17,6 17,16 27,16 27,6 Z" style="fill:#8899a6;fill-opacity:1;fill-rule:nonzero;stroke:none"/><path id="path42" d="m 25,8 -6,0 0,6 6,0 0,-6 z" style="fill:#292f33;fill-opacity:1;fill-rule:nonzero;stroke:none"/><g id="g44" transform="translate(14.999,8)"><path id="path46" d="m 0,0 c 0,-1.104 -0.895,-2 -2,-2 -1.104,0 -2,0.896 -2,2 0,1.105 0.896,2 2,2 1.105,0 2,-0.895 2,-2" style="fill:#8899a6;fill-opacity:1;fill-rule:nonzero;stroke:none"/></g></g></g></g></svg>