<svg xmlns="http://www.w3.org/2000/svg" xmlns:svg="http://www.w3.org/2000/svg" style="enable-background:new 0 0 45 45" id="svg2" version="1.1" viewBox="0 0 45 45" xml:space="preserve"><metadata id="metadata8"/><defs id="defs6"><clipPath id="clipPath16" clipPathUnits="userSpaceOnUse"><path id="path18" d="M 0,36 36,36 36,0 0,0 0,36 Z"/></clipPath><clipPath id="clipPath28" clipPathUnits="userSpaceOnUse"><path id="path30" d="m 20,36 c 0,0 -1,0 -2,-1 l 0,0 c -1,-1 -1,-2 -1,-4 l 0,0 c 0,-2 1,-4 1,-5 l 0,0 c 0,-3 -4,-5 -4,-9.084 l 0,0 C 14,13.583 16,7 17,5 l 0,0 3,0 3,0 c 1,2 3,8.583 3,11.916 l 0,0 C 26,21 22,23 22,26 l 0,0 c 0,1 1,3 1,5 l 0,0 c 0,2 0,3 -1,4 l 0,0 c -1,1 -2,1 -2,1 z"/></clipPath><clipPath id="clipPath40" clipPathUnits="userSpaceOnUse"><path id="path42" d="M 0,36 36,36 36,0 0,0 0,36 Z"/></clipPath><clipPath id="clipPath52" clipPathUnits="userSpaceOnUse"><path id="path54" d="m 28,32 c -1,-1 -1,-2 -1,-4 l 0,0 c 0,-2 1,-4 1,-5 l 0,0 c 0,-3 -4,-5 -4,-9.084 l 0,0 C 24,10.583 26,4 27,2 l 0,0 3,0 3,0 c 1,2 3,8.583 3,11.916 l 0,0 C 36,18 32,20 32,23 l 0,0 c 0,1 1,3 1,5 l 0,0 c 0,2 0,3 -1,4 l 0,0 c -1,1 -2,1 -2,1 l 0,0 c 0,0 -1,0 -2,-1"/></clipPath><clipPath id="clipPath64" clipPathUnits="userSpaceOnUse"><path id="path66" d="M 0,36 36,36 36,0 0,0 0,36 Z"/></clipPath></defs><g id="g10" transform="matrix(1.25,0,0,-1.25,0,45)"><g id="g12"><g id="g14" clip-path="url(#clipPath16)"><g id="g20" transform="translate(22,26)"><path id="path22" d="m 0,0 c 0,1 1,3 1,5 0,2 0,3 -1,4 -1,1 -2,1 -2,1 0,0 -1,0 -2,-1 C -5,8 -5,7 -5,5 -5,3 -4,1 -4,0 -4,-3 -8,-5 -8,-9.084 -8,-12.417 -6,-19 -5,-21 l 3,0 3,0 c 1,2 3,8.583 3,11.916 C 4,-5 0,-3 0,0" style="fill:#ccd6dd;fill-opacity:1;fill-rule:nonzero;stroke:none"/></g></g></g><g id="g24"><g id="g26" clip-path="url(#clipPath28)"><path id="path32" d="m 23,26 -6,0 0,2 6,0 0,-2 z" style="fill:#be1931;fill-opacity:1;fill-rule:nonzero;stroke:none"/><path id="path34" d="m 24,22 -8,0 0,2 8,0 0,-2 z" style="fill:#be1931;fill-opacity:1;fill-rule:nonzero;stroke:none"/></g></g><g id="g36"><g id="g38" clip-path="url(#clipPath40)"><g id="g44" transform="translate(32,23)"><path id="path46" d="m 0,0 c 0,1 1,3 1,5 0,2 0,3 -1,4 -1,1 -2,1 -2,1 0,0 -1,0 -2,-1 C -5,8 -5,7 -5,5 -5,3 -4,1 -4,0 -4,-3 -8,-5 -8,-9.084 -8,-12.417 -6,-19 -5,-21 l 3,0 3,0 c 1,2 3,8.583 3,11.916 C 4,-5 0,-3 0,0" style="fill:#ccd6dd;fill-opacity:1;fill-rule:nonzero;stroke:none"/></g></g></g><g id="g48"><g id="g50" clip-path="url(#clipPath52)"><path id="path56" d="m 33,23 -6,0 0,2 6,0 0,-2 z" style="fill:#be1931;fill-opacity:1;fill-rule:nonzero;stroke:none"/><path id="path58" d="m 34,19 -8,0 0,2 8,0 0,-2 z" style="fill:#be1931;fill-opacity:1;fill-rule:nonzero;stroke:none"/></g></g><g id="g60"><g id="g62" clip-path="url(#clipPath64)"><g id="g68" transform="translate(12.562,0)"><path id="path70" d="m 0,0 c -6.938,0 -12.562,5.624 -12.562,12.563 0,6.938 5.624,12.562 12.562,12.562 6.938,0 12.563,-5.624 12.563,-12.562 C 12.563,5.624 6.938,0 0,0" style="fill:#3a4449;fill-opacity:1;fill-rule:nonzero;stroke:none"/></g><g id="g72" transform="translate(15.2305,17.21)"><path id="path74" d="m 0,0 c 0,-1.279 -1.037,-2.316 -2.316,-2.316 -1.279,0 -2.315,1.037 -2.315,2.316 0,1.279 1.036,2.315 2.315,2.315 C -1.037,2.315 0,1.279 0,0" style="fill:#000;fill-opacity:1;fill-rule:nonzero;stroke:none"/></g><g id="g76" transform="translate(8.8203,15.0625)"><path id="path78" d="m 0,0 c 0,-1.279 -1.037,-2.316 -2.316,-2.316 -1.279,0 -2.315,1.037 -2.315,2.316 0,1.279 1.036,2.315 2.315,2.315 C -1.037,2.315 0,1.279 0,0" style="fill:#000;fill-opacity:1;fill-rule:nonzero;stroke:none"/></g><g id="g80" transform="translate(13.7466,7.9473)"><path id="path82" d="m 0,0 c 0,-1.279 -1.037,-2.316 -2.316,-2.316 -1.279,0 -2.315,1.037 -2.315,2.316 0,1.278 1.036,2.315 2.315,2.315 C -1.037,2.315 0,1.278 0,0" style="fill:#000;fill-opacity:1;fill-rule:nonzero;stroke:none"/></g></g></g></g></svg>