<svg xmlns="http://www.w3.org/2000/svg" xmlns:svg="http://www.w3.org/2000/svg" style="enable-background:new 0 0 45 45" id="svg2" version="1.1" viewBox="0 0 45 45" xml:space="preserve"><metadata id="metadata8"/><defs id="defs6"><clipPath id="clipPath16" clipPathUnits="userSpaceOnUse"><path id="path18" d="M 0,36 36,36 36,0 0,0 0,36 Z"/></clipPath></defs><g id="g10" transform="matrix(1.25,0,0,-1.25,0,45)"><g id="g12"><g id="g14" clip-path="url(#clipPath16)"><g id="g20" transform="translate(7.7539,28.2461)"><path id="path22" d="M 0,0 C -3.686,-3.686 -6.114,-8.616 -6.911,-13.581 L 6.911,-27.403 c 4.965,0.797 9.895,3.225 13.581,6.911 3.686,3.686 6.114,8.616 6.911,13.581 L 13.581,6.911 C 8.616,6.114 3.686,3.686 0,0" style="fill:#662113;fill-opacity:1;fill-rule:nonzero;stroke:none"/></g><g id="g24" transform="translate(33.3691,33.3691)"><path id="path26" d="M 0,0 C -2.662,1.479 -5.735,2.121 -8.897,2.067 L 2.067,-8.898 C 2.121,-5.736 1.479,-2.662 0,0" style="fill:#662113;fill-opacity:1;fill-rule:nonzero;stroke:none"/></g><g id="g28" transform="translate(2.6309,2.6309)"><path id="path30" d="M 0,0 C 2.662,-1.479 5.736,-2.121 8.898,-2.067 L -2.067,8.897 C -2.121,5.736 -1.479,2.662 0,0" style="fill:#662113;fill-opacity:1;fill-rule:nonzero;stroke:none"/></g><g id="g32" transform="translate(22.8282,24.2427)"><path id="path34" d="m 0,0 -2.414,-2.414 -0.707,0.707 c -0.391,0.391 -1.024,0.391 -1.414,0 -0.391,-0.391 -0.391,-1.024 0,-1.415 l 0.707,-0.706 -3.415,-3.415 -0.706,0.707 c -0.391,0.391 -1.024,0.391 -1.415,0 -0.391,-0.39 -0.391,-1.023 0,-1.414 l 0.707,-0.707 -2.414,-2.414 -0.707,0.707 c -0.391,0.391 -1.023,0.391 -1.414,0 -0.391,-0.39 -0.391,-1.024 0,-1.414 l 0.707,-0.707 -1,-1 c -0.391,-0.392 -0.391,-1.024 0,-1.415 0.391,-0.391 1.023,-0.391 1.414,0 l 1,1 0.707,-0.707 c 0.391,-0.391 1.024,-0.391 1.415,0 0.39,0.392 0.39,1.023 0,1.414 l -0.707,0.707 2.414,2.415 0.707,-0.707 c 0.39,-0.392 1.023,-0.392 1.414,0 0.391,0.391 0.391,1.024 0,1.414 l -0.707,0.707 3.414,3.414 0.707,-0.707 c 0.391,-0.39 1.024,-0.39 1.414,0 0.391,0.391 0.392,1.024 0,1.414 L -1,-3.829 1.415,-1.414 2.122,-2.122 c 0.391,-0.39 1.023,-0.39 1.414,0 0.391,0.391 0.391,1.024 0,1.415 L 2.829,0 l 1,1 c 0.39,0.391 0.39,1.023 0,1.414 -0.391,0.391 -1.024,0.391 -1.415,0 l -1,-1 -0.707,0.707 c -0.39,0.391 -1.023,0.391 -1.414,0 -0.391,-0.39 -0.391,-1.023 0,-1.414 L 0,0 Z" style="fill:#e1e8ed;fill-opacity:1;fill-rule:nonzero;stroke:none"/></g><g id="g36" transform="translate(0.5639,11.5284)"><path id="path38" d="m 0,0 10.965,-10.965 c 1.04,0.018 2.087,0.111 3.136,0.279 L 0.279,3.137 C 0.111,2.088 0.018,1.04 0,0" style="fill:#e1e8ed;fill-opacity:1;fill-rule:nonzero;stroke:none"/></g><g id="g40" transform="translate(24.4716,35.4361)"><path id="path42" d="m 0,0 c -1.04,-0.018 -2.088,-0.111 -3.137,-0.279 l 13.823,-13.822 c 0.168,1.049 0.261,2.096 0.279,3.137 L 0,0 Z" style="fill:#e1e8ed;fill-opacity:1;fill-rule:nonzero;stroke:none"/></g></g></g></g></svg>