<svg xmlns="http://www.w3.org/2000/svg" xmlns:svg="http://www.w3.org/2000/svg" style="enable-background:new 0 0 45 45" id="svg2" version="1.1" viewBox="0 0 45 45" xml:space="preserve"><metadata id="metadata8"/><defs id="defs6"><clipPath id="clipPath20" clipPathUnits="userSpaceOnUse"><path id="path22" d="M 0,36 36,36 36,0 0,0 0,36 Z"/></clipPath></defs><g id="g10" transform="matrix(1.25,0,0,-1.25,0,45)"><g id="g12" transform="translate(30,13)"><path id="path14" d="M 0,0 3,0 5,6 2,6 0,0 Z" style="fill:#414042;fill-opacity:1;fill-rule:nonzero;stroke:none"/></g><g id="g16"><g id="g18" clip-path="url(#clipPath20)"><g id="g24" transform="translate(29,17)"><path id="path26" d="m 0,0 c 0,0 -3,4 -4,4 l -9,0 -6,-5 -6.081,-1.77 c -0.62,-0.217 -1.45,-0.636 -1.56,-1.23 L -29,-14 c -0.125,-0.646 0.448,-1 1,-1 l 34,0 c 0.553,0 1,0.447 1,1 l 0,7 0,1 0,4 C 7,0 0,0 0,0" style="fill:#f4900c;fill-opacity:1;fill-rule:nonzero;stroke:none"/></g><g id="g28" transform="translate(16.0938,16)"><path id="path30" d="m 0,0 -5.094,-14 12,0 5,14 L 0,0 Z" style="fill:#3b88c3;fill-opacity:1;fill-rule:nonzero;stroke:none"/></g><g id="g32" transform="translate(12,5)"><path id="path34" d="m 0,0 c 0,-2.209 -1.791,-4 -4,-4 -2.209,0 -4,1.791 -4,4 0,2.209 1.791,4 4,4 2.209,0 4,-1.791 4,-4" style="fill:#292f33;fill-opacity:1;fill-rule:nonzero;stroke:none"/></g><g id="g36" transform="translate(10,5)"><path id="path38" d="m 0,0 c 0,-1.105 -0.895,-2 -2,-2 -1.104,0 -2,0.895 -2,2 0,1.105 0.896,2 2,2 1.105,0 2,-0.895 2,-2" style="fill:#58595b;fill-opacity:1;fill-rule:nonzero;stroke:none"/></g><g id="g40" transform="translate(33,5)"><path id="path42" d="m 0,0 c 0,-2.209 -1.791,-4 -4,-4 -2.209,0 -4,1.791 -4,4 0,2.209 1.791,4 4,4 2.209,0 4,-1.791 4,-4" style="fill:#292f33;fill-opacity:1;fill-rule:nonzero;stroke:none"/></g><g id="g44" transform="translate(31,5)"><path id="path46" d="m 0,0 c 0,-1.105 -0.895,-2 -2,-2 -1.104,0 -2,0.895 -2,2 0,1.105 0.896,2 2,2 1.105,0 2,-0.895 2,-2" style="fill:#58595b;fill-opacity:1;fill-rule:nonzero;stroke:none"/></g><g id="g48" transform="translate(16,9.5)"><path id="path50" d="M 0,0 C 0,1.934 1.567,3.5 3.5,3.5 5.433,3.5 7,1.934 7,0 7,-1.934 5.433,-3.5 3.5,-3.5 1.567,-3.5 0,-1.934 0,0" style="fill:#fff;fill-opacity:1;fill-rule:nonzero;stroke:none"/></g><g id="g52" transform="translate(21.0547,10.7578)"><path id="path54" d="m 0,0 c 0,-0.441 -0.189,-0.826 -0.574,-1.072 0.504,-0.231 0.853,-0.699 0.853,-1.254 0,-0.84 -0.769,-1.547 -1.763,-1.547 -1.037,0 -1.682,0.764 -1.682,1.316 0,0.274 0.287,0.469 0.539,0.469 0.477,0 0.364,-0.818 1.156,-0.818 0.364,0 0.659,0.279 0.659,0.65 0,0.981 -1.192,0.26 -1.192,1.086 0,0.734 0.995,0.238 0.995,1.016 0,0.265 -0.188,0.468 -0.505,0.468 -0.665,0 -0.573,-0.685 -1.05,-0.685 -0.287,0 -0.455,0.258 -0.455,0.517 0,0.547 0.749,1.135 1.527,1.135 C -0.483,1.281 0,0.545 0,0" style="fill:#231f20;fill-opacity:1;fill-rule:nonzero;stroke:none"/></g><g id="g56" transform="translate(30,18)"><path id="path58" d="M 0,0 1,1 6,2 6,0 0,0 Z" style="fill:#f4900c;fill-opacity:1;fill-rule:nonzero;stroke:none"/></g><g id="g60" transform="translate(17,20)"><path id="path62" d="M 0,0 8,0 8,-4 -5,-4 0,0 Z" style="fill:#88c9f9;fill-opacity:1;fill-rule:nonzero;stroke:none"/></g><g id="g64" transform="translate(6,12)"><path id="path66" d="m 0,0 c 0,-0.553 -0.448,-1 -1,-1 l -2,0 c -0.552,0 -1,0.447 -1,1 0,0.553 0.448,1 1,1 l 2,0 C -0.448,1 0,0.553 0,0" style="fill:#ffcc4d;fill-opacity:1;fill-rule:nonzero;stroke:none"/></g><g id="g68" transform="translate(36,14)"><path id="path70" d="m 0,0 -1,0 c -0.553,0 -1,-0.447 -1,-1 l 0,-1 c 0,-0.553 0.447,-1 1,-1 l 1,0 0,3 z" style="fill:#dd2e44;fill-opacity:1;fill-rule:nonzero;stroke:none"/></g></g></g></g></svg>