<svg xmlns="http://www.w3.org/2000/svg" xmlns:svg="http://www.w3.org/2000/svg" style="enable-background:new 0 0 45 45" id="svg2" version="1.1" viewBox="0 0 45 45" xml:space="preserve"><metadata id="metadata8"/><defs id="defs6"><clipPath id="clipPath16" clipPathUnits="userSpaceOnUse"><path id="path18" d="M 0,36 36,36 36,0 0,0 0,36 Z"/></clipPath><clipPath id="clipPath28" clipPathUnits="userSpaceOnUse"><path id="path30" d="M 8.254,27.746 C 1.09,20.582 -1.927,8.561 2.93,2.93 l 0,0 C 8.561,-1.927 20.582,1.09 27.746,8.254 l 0,0 c 7.164,7.164 11.229,17.088 5.324,24.816 l 0,0 c -1.886,1.627 -4.488,2.371 -7.386,2.371 l 0,0 C 19.931,35.44 13.018,32.51 8.254,27.746"/></clipPath></defs><g id="g10" transform="matrix(1.25,0,0,-1.25,0,45)"><g id="g12"><g id="g14" clip-path="url(#clipPath16)"><g id="g20" transform="translate(27.7461,8.2539)"><path id="path22" d="m 0,0 c -7.164,-7.164 -19.186,-10.181 -24.816,-5.324 -4.857,5.631 -1.84,17.652 5.324,24.816 7.164,7.164 19.185,10.181 24.816,5.324 C 11.23,17.088 7.164,7.164 0,0" style="fill:#3b88c3;fill-opacity:1;fill-rule:nonzero;stroke:none"/></g></g></g><g id="g24"><g id="g26" clip-path="url(#clipPath28)"><g id="g32" transform="translate(35.834,28.6665)"><path id="path34" d="m 0,0 c -0.334,-4.417 -9.334,-19.167 -24.417,-24.751 -1.167,-0.5 -1.084,-1.998 0.833,-2.166 1.917,-0.167 13.5,0.166 17.5,2.416 4,2.25 10.75,18.918 9,20.251 -1.75,1.333 4.416,7.75 3,6.417 C 4.5,0.833 0,0 0,0" style="fill:#ccd6dd;fill-opacity:1;fill-rule:nonzero;stroke:none"/></g><g id="g36" transform="translate(8.0835,8.166)"><path id="path38" d="M 0,0 C 7.834,1.917 26.667,10.417 25.251,24.584 24.835,25.751 17.099,30.7 3.917,19.834 -3.667,13.584 -4.862,5.643 -4.333,0.917 -4.131,-0.896 -1.918,-0.47 0,0" style="fill:#e1e8ed;fill-opacity:1;fill-rule:nonzero;stroke:none"/></g></g></g></g></svg>