<svg xmlns="http://www.w3.org/2000/svg" xmlns:svg="http://www.w3.org/2000/svg" style="enable-background:new 0 0 45 45" id="svg2" version="1.1" viewBox="0 0 45 45" xml:space="preserve"><metadata id="metadata8"/><defs id="defs6"><clipPath id="clipPath16" clipPathUnits="userSpaceOnUse"><path id="path18" d="M 0,36 36,36 36,0 0,0 0,36 Z"/></clipPath></defs><g id="g10" transform="matrix(1.25,0,0,-1.25,0,45)"><g id="g12"><g id="g14" clip-path="url(#clipPath16)"><g id="g20" transform="translate(36,15.6367)"><path id="path22" d="m 0,0 c -1.352,0.427 -3.842,2.363 -6,2.363 -3,0 -3,8 -4,10 -1,2 -3,4 -3,5 0,1 -3,2 -8,0 -5,-2 -8,-2 -10,-2 -2,0 -3,-2 -4,-4 -1,-2 0,-2 0,-2 1,-1 2,2 4,3 2,1 3,-1 5,0 1.493,0.747 4.658,-0.178 7,0.137 0.794,0.106 1.493,0.356 2,0.863 0,0 0,-8 2,-11 0,0 -1,-1 -2,-4 -1,-3 -2,0 -2,2 0,2 -1,5 -5,7 -1.789,0.895 -5.658,0.683 -7,-2 -2,-4 0,-8 2,-9 2,-1 3,-2 7,-2 1.943,0 17.813,-0.48 22,-0.364 L 0,0 Z" style="fill:#ffdc5d;fill-opacity:1;fill-rule:nonzero;stroke:none"/></g><g id="g24" transform="translate(8.1816,19.5947)"><path id="path26" d="M 0,0 C 2.186,1.941 5.633,1.687 8.025,-0.472 7.309,0.901 6.02,2.305 3.818,3.405 c -1.789,0.895 -5.658,0.683 -7,-2 -2,-4 0,-8 2,-9 0.24,-0.119 0.463,-0.239 0.681,-0.356 C -2.314,-5.33 -2.166,-1.926 0,0" style="fill:#dd2e44;fill-opacity:1;fill-rule:nonzero;stroke:none"/></g><g id="g28" transform="translate(12,17.5)"><path id="path30" d="m 0,0 c -0.128,0 -0.256,0.049 -0.354,0.146 -0.195,0.196 -0.195,0.512 0,0.708 C 0.78,1.987 1.951,2 2,2 2.276,2 2.5,1.776 2.5,1.5 2.5,1.224 2.276,1 2,1 1.972,0.999 1.179,0.972 0.354,0.146 0.256,0.049 0.128,0 0,0" style="fill:#ef9645;fill-opacity:1;fill-rule:nonzero;stroke:none"/></g><g id="g32" transform="translate(8,14.5)"><path id="path34" d="m 0,0 c -0.128,0 -0.256,0.049 -0.354,0.146 -0.195,0.196 -0.195,0.512 0,0.708 C 0.78,1.987 1.951,2 2,2 2.276,2 2.5,1.776 2.5,1.5 2.5,1.224 2.276,1 2,1 1.972,0.999 1.179,0.972 0.354,0.146 0.256,0.049 0.128,0 0,0" style="fill:#ef9645;fill-opacity:1;fill-rule:nonzero;stroke:none"/></g><g id="g36" transform="translate(22.0175,10.5625)"><path id="path38" d="m 0,0 13.983,0 0,5.074 c 0,0 -1.959,1.197 -3.542,1.718 -1.25,-2.125 -8,-3.104 -12.333,-0.651 0,0 -0.875,-1.829 -1.084,-2.578 0,0 1.377,-0.514 1.834,-0.959 C -0.599,2.074 0,1.369 0,0" style="fill:#dd2e44;fill-opacity:1;fill-rule:nonzero;stroke:none"/></g><path id="path40" d="M 36,12 0,12 0,0 36,0 36,12 Z" style="fill:#55acee;fill-opacity:1;fill-rule:nonzero;stroke:none"/><g id="g42" transform="translate(6,12)"><path id="path44" d="M 0,0 C 3,2 7,5 6,3 5,1 4.999,0 7,1 c 2,1 5,2 4,0 -1,-2 2,-1 3,0 1,1 4,0 3,-1 C 16,-1 8,-2 5,-2 2,-2 0,0 0,0" style="fill:#55acee;fill-opacity:1;fill-rule:nonzero;stroke:none"/></g></g></g></g></svg>