<svg xmlns="http://www.w3.org/2000/svg" xmlns:svg="http://www.w3.org/2000/svg" style="enable-background:new 0 0 45 45" id="svg2" version="1.1" viewBox="0 0 45 45" xml:space="preserve"><metadata id="metadata8"/><defs id="defs6"><clipPath id="clipPath24" clipPathUnits="userSpaceOnUse"><path id="path26" d="M 0,36 36,36 36,0 0,0 0,36 Z"/></clipPath></defs><g id="g10" transform="matrix(1.25,0,0,-1.25,0,45)"><g id="g12" transform="translate(25.0352,23.9648)"><path id="path14" d="m 0,0 -2.41,-1.506 0.167,3.749 -4.792,4.792 -13,-13 0,-16 26,0 0,16 L 0,0 Z" style="fill:#d99e82;fill-opacity:1;fill-rule:nonzero;stroke:none"/></g><path id="path16" d="M 5,2 6,2 6,18 5,18 5,2 Z" style="fill:#c1694f;fill-opacity:1;fill-rule:nonzero;stroke:none"/><path id="path18" d="m 30,2 1,0 0,16 -1,0 0,-16 z" style="fill:#c1694f;fill-opacity:1;fill-rule:nonzero;stroke:none"/><g id="g20"><g id="g22" clip-path="url(#clipPath24)"><g id="g28" transform="translate(31.707,18.707)"><path id="path30" d="m 0,0 -5.802,5.802 -1.74,-1.088 6.128,-6.128 c 0.195,-0.195 0.451,-0.293 0.707,-0.293 0.256,0 0.512,0.098 0.707,0.293 0.391,0.391 0.391,1.023 0,1.414" style="fill:#292f33;fill-opacity:1;fill-rule:nonzero;stroke:none"/></g><g id="g32" transform="translate(22.8525,27.5615)"><path id="path34" d="m 0,0 -4.146,4.146 c -0.39,0.39 -1.023,0.39 -1.414,0 l -13,-13.001 c -0.39,-0.39 -0.39,-1.023 0,-1.414 0.391,-0.39 1.024,-0.39 1.415,0 L -4.853,2.024 -0.12,-2.708 0,0 Z" style="fill:#292f33;fill-opacity:1;fill-rule:nonzero;stroke:none"/></g><path id="path36" d="m 20,2 -4,0 0,8 4,0 0,-8 z" style="fill:#c1694f;fill-opacity:1;fill-rule:nonzero;stroke:none"/><path id="path38" d="m 13,14 -4,0 0,4 4,0 0,-4 z" style="fill:#662113;fill-opacity:1;fill-rule:nonzero;stroke:none"/><path id="path40" d="m 20,14 -4,0 0,4 4,0 0,-4 z" style="fill:#c1694f;fill-opacity:1;fill-rule:nonzero;stroke:none"/><path id="path42" d="m 13,6 -4,0 0,4 4,0 0,-4 z" style="fill:#c1694f;fill-opacity:1;fill-rule:nonzero;stroke:none"/><path id="path44" d="m 27,6 -4,0 0,4 4,0 0,-4 z" style="fill:#662113;fill-opacity:1;fill-rule:nonzero;stroke:none"/><g id="g46" transform="translate(33,1)"><path id="path48" d="m 0,0 c 0,-0.553 -0.447,-1 -1,-1 l -28,0 c -0.552,0 -1,0.447 -1,1 0,0.553 0.448,1 1,1 L -1,1 C -0.447,1 0,0.553 0,0" style="fill:#bcbec0;fill-opacity:1;fill-rule:nonzero;stroke:none"/></g><g id="g50" transform="translate(24.4199,23.5801)"><path id="path52" d="m 0,0 -1.795,-1.122 0.125,2.792 -1.75,1.75 -1,-6 3,-2 -2,-9 6,7 -1,5 L 0,0 Z" style="fill:#662113;fill-opacity:1;fill-rule:nonzero;stroke:none"/></g></g></g></g></svg>