<svg xmlns="http://www.w3.org/2000/svg" xmlns:svg="http://www.w3.org/2000/svg" style="enable-background:new 0 0 45 45" id="svg2" version="1.1" viewBox="0 0 45 45" xml:space="preserve"><metadata id="metadata8"/><defs id="defs6"><clipPath id="clipPath16" clipPathUnits="userSpaceOnUse"><path id="path18" d="M 0,36 36,36 36,0 0,0 0,36 Z"/></clipPath></defs><g id="g10" transform="matrix(1.25,0,0,-1.25,0,45)"><g id="g12"><g id="g14" clip-path="url(#clipPath16)"><g id="g20" transform="translate(24,26)"><path id="path22" d="m 0,0 c 0,-1.104 -0.895,-2 -2,-2 l -8,0 c -1.104,0 -2,0.896 -2,2 l 0,8 c 0,1.104 0.896,2 2,2 l 8,0 C -0.895,10 0,9.104 0,8 L 0,0 Z" style="fill:#ccd6dd;fill-opacity:1;fill-rule:nonzero;stroke:none"/></g><g id="g24" transform="translate(0,22)"><path id="path26" d="m 0,0 0,-20 c 0,-1.105 0.896,-2 2,-2 l 32,0 c 1.105,0 2,0.895 2,2 L 36,0 0,0 Z" style="fill:#ccd6dd;fill-opacity:1;fill-rule:nonzero;stroke:none"/></g><g id="g28" transform="translate(18,24)"><path id="path30" d="m 0,0 -16,0 c -1.104,0 -2,-0.895 -2,-2 L 2,-2 C 2,-0.895 1.105,0 0,0" style="fill:#99aab5;fill-opacity:1;fill-rule:nonzero;stroke:none"/></g><g id="g32" transform="translate(34,24)"><path id="path34" d="m 0,0 -16,0 c -1.104,0 -2,-0.895 -2,-2 L 2,-2 C 2,-0.895 1.105,0 0,0" style="fill:#99aab5;fill-opacity:1;fill-rule:nonzero;stroke:none"/></g><path id="path36" d="m 34,10 -32,0 0,4 32,0 0,-4 z" style="fill:#55acee;fill-opacity:1;fill-rule:nonzero;stroke:none"/><path id="path38" d="m 34,16 -32,0 0,4 32,0 0,-4 z" style="fill:#55acee;fill-opacity:1;fill-rule:nonzero;stroke:none"/><path id="path40" d="M 34,4 2,4 2,8 34,8 34,4 Z" style="fill:#55acee;fill-opacity:1;fill-rule:nonzero;stroke:none"/><path id="path42" d="M 28,0 8,0 8,24 28,24 28,0 Z" style="fill:#e1e8ed;fill-opacity:1;fill-rule:nonzero;stroke:none"/><path id="path44" d="m 26,12 -16,0 0,4 16,0 0,-4 z" style="fill:#55acee;fill-opacity:1;fill-rule:nonzero;stroke:none"/><path id="path46" d="m 26,18 -16,0 0,4 16,0 0,-4 z" style="fill:#55acee;fill-opacity:1;fill-rule:nonzero;stroke:none"/><path id="path48" d="m 26,6 -16,0 0,4 16,0 0,-4 z" style="fill:#55acee;fill-opacity:1;fill-rule:nonzero;stroke:none"/><path id="path50" d="M 23,0 13,0 13,4 23,4 23,0 Z" style="fill:#3b88c3;fill-opacity:1;fill-rule:nonzero;stroke:none"/><g id="g52" transform="translate(22,32)"><path id="path54" d="m 0,0 -3,0 0,3 -2,0 0,-3 -3,0 0,-2 3,0 0,-3 2,0 0,3 3,0 0,2 z" style="fill:#dd2e44;fill-opacity:1;fill-rule:nonzero;stroke:none"/></g><g id="g56" transform="translate(26,26)"><path id="path58" d="m 0,0 -16,0 c -1.104,0 -2,-0.895 -2,-2 L 2,-2 C 2,-0.895 1.105,0 0,0" style="fill:#99aab5;fill-opacity:1;fill-rule:nonzero;stroke:none"/></g></g></g></g></svg>