<svg xmlns="http://www.w3.org/2000/svg" xmlns:svg="http://www.w3.org/2000/svg" style="enable-background:new 0 0 45 45" id="svg2" version="1.1" viewBox="0 0 45 45" xml:space="preserve"><metadata id="metadata8"/><defs id="defs6"><clipPath id="clipPath16" clipPathUnits="userSpaceOnUse"><path id="path18" d="M 0,36 36,36 36,0 0,0 0,36 Z"/></clipPath></defs><g id="g10" transform="matrix(1.25,0,0,-1.25,0,45)"><g id="g12"><g id="g14" clip-path="url(#clipPath16)"><g id="g20" transform="translate(34,23)"><path id="path22" d="m 0,0 c 0,-1.104 -0.895,-2 -2,-2 l -6,0 c -1.104,0 -2,0.896 -2,2 l 0,2 c 0,1.105 0.896,2 2,2 l 6,0 C -0.895,4 0,3.105 0,2 L 0,0 Z" style="fill:#dac8b1;fill-opacity:1;fill-rule:nonzero;stroke:none"/></g><g id="g24" transform="translate(12,23)"><path id="path26" d="m 0,0 c 0,-1.104 -0.895,-2 -2,-2 l -6,0 c -1.104,0 -2,0.896 -2,2 l 0,2 c 0,1.105 0.896,2 2,2 l 6,0 C -0.895,4 0,3.105 0,2 L 0,0 Z" style="fill:#dac8b1;fill-opacity:1;fill-rule:nonzero;stroke:none"/></g><g id="g28" transform="translate(36,2)"><path id="path30" d="m 0,0 c 0,-1.105 -0.895,-2 -2,-2 l -32,0 c -1.104,0 -2,0.895 -2,2 l 0,21 c 0,1.105 0.896,2 2,2 l 32,0 c 1.105,0 2,-0.895 2,-2 L 0,0 Z" style="fill:#f1dcc1;fill-opacity:1;fill-rule:nonzero;stroke:none"/></g><g id="g32" transform="translate(22,27)"><path id="path34" d="M 0,0 0,2 C 0,2.738 -0.404,3.376 -1,3.723 L -1,4 c 0,1.104 -0.895,2 -2,2 L -5,6 C -6.104,6 -7,5.104 -7,4 L -7,3.723 C -7.595,3.376 -8,2.738 -8,2 l 0,-2 -1,0 0,-2 0,-25 10,0 0,25 0,2 -1,0 z" style="fill:#dac8b1;fill-opacity:1;fill-rule:nonzero;stroke:none"/></g><path id="path36" d="m 16,27 -2,0 0,2 2,0 0,-2 z" style="fill:#55acee;fill-opacity:1;fill-rule:nonzero;stroke:none"/><path id="path38" d="m 20,27 2,0 0,2 -2,0 0,-2 z" style="fill:#55acee;fill-opacity:1;fill-rule:nonzero;stroke:none"/><path id="path40" d="m 19,27 -2,0 0,2 2,0 0,-2 z" style="fill:#55acee;fill-opacity:1;fill-rule:nonzero;stroke:none"/><path id="path42" d="m 17,7 -2,0 0,14 2,0 0,-14 z" style="fill:#3b88c3;fill-opacity:1;fill-rule:nonzero;stroke:none"/><path id="path44" d="m 21,7 -2,0 0,14 2,0 0,-14 z" style="fill:#3b88c3;fill-opacity:1;fill-rule:nonzero;stroke:none"/><path id="path46" d="m 26,7 -2,0 0,12 2,0 0,-12 z" style="fill:#55acee;fill-opacity:1;fill-rule:nonzero;stroke:none"/><path id="path48" d="m 30,7 -2,0 0,12 2,0 0,-12 z" style="fill:#55acee;fill-opacity:1;fill-rule:nonzero;stroke:none"/><path id="path50" d="m 34,7 -2,0 0,12 2,0 0,-12 z" style="fill:#55acee;fill-opacity:1;fill-rule:nonzero;stroke:none"/><path id="path52" d="M 4,7 2,7 2,19 4,19 4,7 Z" style="fill:#55acee;fill-opacity:1;fill-rule:nonzero;stroke:none"/><path id="path54" d="M 8,7 6,7 6,19 8,19 8,7 Z" style="fill:#55acee;fill-opacity:1;fill-rule:nonzero;stroke:none"/><path id="path56" d="m 12,7 -2,0 0,12 2,0 0,-12 z" style="fill:#55acee;fill-opacity:1;fill-rule:nonzero;stroke:none"/><path id="path58" d="M 4,4 2,4 2,6 4,6 4,4 Z" style="fill:#55acee;fill-opacity:1;fill-rule:nonzero;stroke:none"/><path id="path60" d="M 8,4 6,4 6,6 8,6 8,4 Z" style="fill:#55acee;fill-opacity:1;fill-rule:nonzero;stroke:none"/><path id="path62" d="m 12,4 -2,0 0,2 2,0 0,-2 z" style="fill:#55acee;fill-opacity:1;fill-rule:nonzero;stroke:none"/><path id="path64" d="m 17,4 -2,0 0,2 2,0 0,-2 z" style="fill:#3b88c3;fill-opacity:1;fill-rule:nonzero;stroke:none"/><path id="path66" d="m 21,4 -2,0 0,2 2,0 0,-2 z" style="fill:#3b88c3;fill-opacity:1;fill-rule:nonzero;stroke:none"/><path id="path68" d="m 26,4 -2,0 0,2 2,0 0,-2 z" style="fill:#55acee;fill-opacity:1;fill-rule:nonzero;stroke:none"/><path id="path70" d="m 30,4 -2,0 0,2 2,0 0,-2 z" style="fill:#55acee;fill-opacity:1;fill-rule:nonzero;stroke:none"/><path id="path72" d="m 34,4 -2,0 0,2 2,0 0,-2 z" style="fill:#55acee;fill-opacity:1;fill-rule:nonzero;stroke:none"/><path id="path74" d="M 4,0 2,0 2,3 4,3 4,0 Z" style="fill:#66757f;fill-opacity:1;fill-rule:nonzero;stroke:none"/><path id="path76" d="M 8,0 6,0 6,3 8,3 8,0 Z" style="fill:#66757f;fill-opacity:1;fill-rule:nonzero;stroke:none"/><path id="path78" d="m 12,0 -2,0 0,3 2,0 0,-3 z" style="fill:#66757f;fill-opacity:1;fill-rule:nonzero;stroke:none"/><path id="path80" d="m 17,0 -2,0 0,3 2,0 0,-3 z" style="fill:#66757f;fill-opacity:1;fill-rule:nonzero;stroke:none"/><path id="path82" d="m 21,0 -2,0 0,3 2,0 0,-3 z" style="fill:#66757f;fill-opacity:1;fill-rule:nonzero;stroke:none"/><path id="path84" d="m 26,0 -2,0 0,3 2,0 0,-3 z" style="fill:#66757f;fill-opacity:1;fill-rule:nonzero;stroke:none"/><path id="path86" d="m 28,0 2,0 0,3 -2,0 0,-3 z" style="fill:#66757f;fill-opacity:1;fill-rule:nonzero;stroke:none"/><path id="path88" d="m 34,0 -2,0 0,3 2,0 0,-3 z" style="fill:#66757f;fill-opacity:1;fill-rule:nonzero;stroke:none"/></g></g></g></svg>