<svg xmlns="http://www.w3.org/2000/svg" xmlns:svg="http://www.w3.org/2000/svg" style="enable-background:new 0 0 45 45" id="svg2" version="1.1" viewBox="0 0 45 45" xml:space="preserve"><metadata id="metadata8"/><defs id="defs6"><clipPath id="clipPath16" clipPathUnits="userSpaceOnUse"><path id="path18" d="M 0,36 36,36 36,0 0,0 0,36 Z"/></clipPath></defs><g id="g10" transform="matrix(1.25,0,0,-1.25,0,45)"><g id="g12"><g id="g14" clip-path="url(#clipPath16)"><g id="g20" transform="translate(17,2)"><path id="path22" d="m 0,0 c 0,-1.105 0.896,-2 2,-2 l 14,0 c 1.105,0 2,0.895 2,2 l 0,16 c 0,1.105 -0.895,2 -2,2 L 2,18 C 0.896,18 0,17.105 0,16 L 0,0 Z" style="fill:#aab8c2;fill-opacity:1;fill-rule:nonzero;stroke:none"/></g><g id="g24" transform="translate(33,20)"><path id="path26" d="m 0,0 -10,0 0,-2 12,0 C 2,-0.895 1.105,0 0,0" style="fill:#292f33;fill-opacity:1;fill-rule:nonzero;stroke:none"/></g><path id="path28" d="M 33,2 3,2 3,6 33,6 33,2 Z" style="fill:#3b88c3;fill-opacity:1;fill-rule:nonzero;stroke:none"/><g id="g30" transform="translate(3,20)"><path id="path32" d="m 0,0 c -1.104,0 -2,-0.895 -2,-2 l 0,-16 c 0,-1.105 0.896,-2 2,-2 l 20,0 0,20 -20,0 z" style="fill:#ccd6dd;fill-opacity:1;fill-rule:nonzero;stroke:none"/></g><g id="g34" transform="translate(3,20)"><path id="path36" d="M 0,0 C -1.104,0 -2,-0.895 -2,-2 L 20,-2 20,0 0,0 Z" style="fill:#66757f;fill-opacity:1;fill-rule:nonzero;stroke:none"/></g><path id="path38" d="m 3,12 4,0 0,4 -4,0 0,-4 z" style="fill:#55acee;fill-opacity:1;fill-rule:nonzero;stroke:none"/><path id="path40" d="m 17,12 4,0 0,4 -4,0 0,-4 z" style="fill:#55acee;fill-opacity:1;fill-rule:nonzero;stroke:none"/><path id="path42" d="m 10,12 4,0 0,4 -4,0 0,-4 z" style="fill:#55acee;fill-opacity:1;fill-rule:nonzero;stroke:none"/><path id="path44" d="m 33,12 -4,0 0,4 4,0 0,-4 z" style="fill:#3b88c3;fill-opacity:1;fill-rule:nonzero;stroke:none"/><path id="path46" d="m 27,12 -4,0 0,4 4,0 0,-4 z" style="fill:#3b88c3;fill-opacity:1;fill-rule:nonzero;stroke:none"/><path id="path48" d="M 21,0 3,0 3,6 21,6 21,0 Z" style="fill:#55acee;fill-opacity:1;fill-rule:nonzero;stroke:none"/><path id="path50" d="M 17,0 7,0 7,6 17,6 17,0 Z" style="fill:#3b88c3;fill-opacity:1;fill-rule:nonzero;stroke:none"/><path id="path52" d="M 23,10 1,10 1,6 23,6 23,10 Z" style="fill:#dd2e44;fill-opacity:1;fill-rule:nonzero;stroke:none"/><path id="path54" d="M 17,7 7,7 7,9 17,9 17,7 Z" style="fill:#f4abba;fill-opacity:1;fill-rule:nonzero;stroke:none"/><path id="path56" d="M 15,7 9,7 9,9 15,9 15,7 Z" style="fill:#fff;fill-opacity:1;fill-rule:nonzero;stroke:none"/><path id="path58" d="m 35,6 -12,0 0,4 12,0 0,-4 z" style="fill:#a0041e;fill-opacity:1;fill-rule:nonzero;stroke:none"/><path id="path60" d="m 7,20 -2,0 0,2 2,0 0,-2 z" style="fill:#292f33;fill-opacity:1;fill-rule:nonzero;stroke:none"/><path id="path62" d="m 17,20 2,0 0,2 -2,0 0,-2 z" style="fill:#292f33;fill-opacity:1;fill-rule:nonzero;stroke:none"/><g id="g64" transform="translate(21,24)"><path id="path66" d="m 0,0 c 0,-1.104 -0.895,-2 -2,-2 l -14,0 c -1.104,0 -2,0.896 -2,2 l 0,10 c 0,1.104 0.896,2 2,2 l 14,0 c 1.105,0 2,-0.896 2,-2 L 0,0 Z" style="fill:#dd2e44;fill-opacity:1;fill-rule:nonzero;stroke:none"/></g><g id="g68" transform="translate(10.5615,25.8491)"><path id="path70" d="m 0,0 c 0.616,0 1.093,-0.28 1.093,-0.925 0,-0.644 -0.477,-0.924 -1.009,-0.924 l -4.678,0 c -0.617,0 -1.093,0.28 -1.093,0.924 0,0.295 0.182,0.547 0.322,0.715 1.163,1.386 2.424,2.647 3.488,4.188 0.252,0.364 0.49,0.798 0.49,1.303 0,0.574 -0.434,1.078 -1.008,1.078 -1.611,0 -0.841,-2.269 -2.186,-2.269 -0.672,0 -1.022,0.476 -1.022,1.023 0,1.764 1.569,3.179 3.292,3.179 1.723,0 3.109,-1.134 3.109,-2.913 C 0.798,3.432 -1.373,1.499 -2.563,0 L 0,0 Z" style="fill:#fff;fill-opacity:1;fill-rule:nonzero;stroke:none"/></g><g id="g72" transform="translate(16.3003,31.9561)"><path id="path74" d="M 0,0 -0.028,0 -1.919,-3.908 0,-3.908 0,0 Z m -3.376,-5.757 c -0.687,0 -0.981,0.463 -0.981,0.826 0,0.309 0.112,0.477 0.197,0.617 l 3.137,5.687 c 0.309,0.56 0.701,0.813 1.429,0.813 0.813,0 1.611,-0.519 1.611,-1.793 l 0,-4.301 0.238,0 c 0.546,0 0.981,-0.364 0.981,-0.925 0,-0.56 -0.435,-0.924 -0.981,-0.924 l -0.238,0 0,-1.19 C 2.017,-7.69 1.723,-8.04 1.008,-8.04 0.294,-8.04 0,-7.69 0,-6.947 l 0,1.19 -3.376,0 z" style="fill:#fff;fill-opacity:1;fill-rule:nonzero;stroke:none"/></g></g></g></g></svg>