<svg xmlns="http://www.w3.org/2000/svg" xmlns:svg="http://www.w3.org/2000/svg" style="enable-background:new 0 0 45 45" id="svg2" version="1.1" viewBox="0 0 45 45" xml:space="preserve"><metadata id="metadata8"/><defs id="defs6"><clipPath id="clipPath18" clipPathUnits="userSpaceOnUse"><path id="path20" d="M 0,36 36,36 36,0 0,0 0,36 Z"/></clipPath></defs><g id="g10" transform="matrix(1.25,0,0,-1.25,0,45)"><path id="path12" d="m 25,11 -14,0 0,15 14,0 0,-15 z" style="fill:#edbb9f;fill-opacity:1;fill-rule:nonzero;stroke:none"/><g id="g14"><g id="g16" clip-path="url(#clipPath18)"><g id="g22" transform="translate(1,18)"><path id="path24" d="m 0,0 0,-16 c 0,-1.105 0.896,-2 2,-2 l 30,0 c 1.105,0 2,0.895 2,2 L 34,0 0,0 Z" style="fill:#be1931;fill-opacity:1;fill-rule:nonzero;stroke:none"/></g><path id="path26" d="m 35,19 -34,0 0,3 34,0 0,-3 z" style="fill:#ffe8b6;fill-opacity:1;fill-rule:nonzero;stroke:none"/><path id="path28" d="m 35,18 -34,0 0,2 34,0 0,-2 z" style="fill:#c1694f;fill-opacity:1;fill-rule:nonzero;stroke:none"/><g id="g30" transform="translate(18,9)"><path id="path32" d="m 0,0 c -1.657,0 -3,-1.343 -3,-3 l 0,-6 6,0 0,6 C 3,-1.343 1.657,0 0,0" style="fill:#ccd6dd;fill-opacity:1;fill-rule:nonzero;stroke:none"/></g><g id="g34" transform="translate(28,9)"><path id="path36" d="m 0,0 c -1.656,0 -3,-1.343 -3,-3 l 0,-4 6,0 0,4 C 3,-1.343 1.657,0 0,0" style="fill:#aab8c2;fill-opacity:1;fill-rule:nonzero;stroke:none"/></g><g id="g38" transform="translate(8,9)"><path id="path40" d="m 0,0 c -1.657,0 -3,-1.343 -3,-3 l 0,-4 6,0 0,4 C 3,-1.343 1.657,0 0,0" style="fill:#aab8c2;fill-opacity:1;fill-rule:nonzero;stroke:none"/></g><g id="g42" transform="translate(22,32)"><path id="path44" d="m 0,0 c 0,-2.209 -1.792,-4 -4,-4 -2.209,0 -4,1.791 -4,4 0,2.209 1.791,4 4,4 2.208,0 4,-1.791 4,-4" style="fill:#d99e82;fill-opacity:1;fill-rule:nonzero;stroke:none"/></g><path id="path46" d="m 22,28 -8,0 0,4 8,0 0,-4 z" style="fill:#edbb9f;fill-opacity:1;fill-rule:nonzero;stroke:none"/><g id="g48" transform="translate(33,24)"><path id="path50" d="m 0,0 -30,0 c -1.104,0 -2,-0.895 -2,-2 L 2,-2 C 2,-0.895 1.105,0 0,0" style="fill:#d99e82;fill-opacity:1;fill-rule:nonzero;stroke:none"/></g><g id="g52" transform="translate(23,28)"><path id="path54" d="m 0,0 -10,0 c -1.104,0 -2,-0.896 -2,-2 L 2,-2 C 2,-0.896 1.105,0 0,0" style="fill:#d99e82;fill-opacity:1;fill-rule:nonzero;stroke:none"/></g><g id="g56" transform="translate(21.667,14.7559)"><path id="path58" d="m 0,0 c -0.204,-0.201 -0.007,-0.403 -0.007,-0.403 l -0.887,-0.888 -1.495,-1.495 -0.004,0.003 c -0.024,-0.027 -0.051,-0.057 -0.078,-0.085 -0.865,-0.864 -2.264,-0.864 -3.127,0 -0.863,0.864 -0.863,2.263 0,3.127 0.863,0.864 2.262,0.864 3.127,0 0.502,-0.505 0.707,-1.19 0.622,-1.846 l 0.895,0.894 c -0.116,0.589 -0.403,1.153 -0.86,1.609 -1.225,1.227 -3.216,1.227 -4.441,0 -1.227,-1.227 -1.227,-3.214 0,-4.442 1.225,-1.226 3.216,-1.226 4.441,0 0.029,0.027 0.052,0.059 0.079,0.085 l 0.003,-0.003 2.385,2.385 c 0,0 0.184,-0.187 0.392,0.016 0.204,0.199 -0.004,0.404 -0.004,0.404 L 0.415,-0.006 C 0.415,-0.006 0.206,0.203 0,0" style="fill:#ffac33;fill-opacity:1;fill-rule:nonzero;stroke:none"/></g><g id="g60" transform="translate(14.2202,12.4209)"><path id="path62" d="m 0,0 c -0.135,0.469 -0.175,0.957 -0.122,1.439 l -0.085,0.084 c -0.824,0.823 -0.33,1.978 -0.495,2.141 -0.164,0.164 -0.329,0 -0.329,0 0,0 -1.77,-1.771 -1.974,-1.977 -0.164,-0.164 0,-0.328 0,-0.328 0.164,-0.164 1.372,0.276 2.088,-0.441 C -0.686,0.686 -0.34,0.34 0,0" style="fill:#ffac33;fill-opacity:1;fill-rule:nonzero;stroke:none"/></g></g></g></g></svg>