<svg xmlns="http://www.w3.org/2000/svg" xmlns:svg="http://www.w3.org/2000/svg" style="enable-background:new 0 0 45 45" id="svg2" version="1.1" viewBox="0 0 45 45" xml:space="preserve"><metadata id="metadata8"/><defs id="defs6"><clipPath id="clipPath16" clipPathUnits="userSpaceOnUse"><path id="path18" d="M 0,36 36,36 36,0 0,0 0,36 Z"/></clipPath></defs><g id="g10" transform="matrix(1.25,0,0,-1.25,0,45)"><g id="g12"><g id="g14" clip-path="url(#clipPath16)"><g id="g20" transform="translate(21,21)"><path id="path22" d="m 0,0 c 0,-2.209 -1.791,-4 -4,-4 l -13,0 c -2.209,0 -4,1.791 -4,4 l 0,3 c 0,2.209 1.791,4 4,4 L -4,7 C -1.791,7 0,5.209 0,3 L 0,0 Z" style="fill:#be1931;fill-opacity:1;fill-rule:nonzero;stroke:none"/></g><g id="g24" transform="translate(36,30)"><path id="path26" d="m 0,0 c 0,-2.209 -1.791,-4 -4,-4 l -12,0 c -2.209,0 -4,1.791 -4,4 l 0,1 c 0,2.209 1.791,4 4,4 L -4,5 C -1.791,5 0,3.209 0,1 L 0,0 Z" style="fill:#be1931;fill-opacity:1;fill-rule:nonzero;stroke:none"/></g><g id="g28" transform="translate(0,24)"><path id="path30" d="m 0,0 0,-22 c 0,-1.105 0.896,-2 2,-2 l 31,0 0,24 -33,0 z" style="fill:#f4abba;fill-opacity:1;fill-rule:nonzero;stroke:none"/></g><path id="path32" d="M 14,0 2,0 2,4 14,4 14,0 Z" style="fill:#3b88c3;fill-opacity:1;fill-rule:nonzero;stroke:none"/><path id="path34" d="M 18,6 2,6 2,10 18,10 18,6 Z" style="fill:#3b88c3;fill-opacity:1;fill-rule:nonzero;stroke:none"/><g id="g36" transform="translate(16,31)"><path id="path38" d="m 0,0 0,-31 18,0 c 1.105,0 2,0.895 2,2 L 20,0 0,0 Z" style="fill:#ffd4de;fill-opacity:1;fill-rule:nonzero;stroke:none"/></g><path id="path40" d="m 34,12 -16,0 0,4 16,0 0,-4 z" style="fill:#55acee;fill-opacity:1;fill-rule:nonzero;stroke:none"/><path id="path42" d="m 34,18 -16,0 0,4 16,0 0,-4 z" style="fill:#55acee;fill-opacity:1;fill-rule:nonzero;stroke:none"/><path id="path44" d="m 34,24 -16,0 0,4 16,0 0,-4 z" style="fill:#55acee;fill-opacity:1;fill-rule:nonzero;stroke:none"/><path id="path46" d="m 34,6 -16,0 0,4 16,0 0,-4 z" style="fill:#55acee;fill-opacity:1;fill-rule:nonzero;stroke:none"/><path id="path48" d="m 24,5 -2,0 0,24 2,0 0,-24 z" style="fill:#ffd4de;fill-opacity:1;fill-rule:nonzero;stroke:none"/><path id="path50" d="m 30,5 -2,0 0,24 2,0 0,-24 z" style="fill:#ffd4de;fill-opacity:1;fill-rule:nonzero;stroke:none"/><path id="path52" d="m 30,0 -8,0 0,4 8,0 0,-4 z" style="fill:#3b88c3;fill-opacity:1;fill-rule:nonzero;stroke:none"/><g id="g54" transform="translate(10,22)"><path id="path56" d="m 0,0 0,-4 -4,0 0,4 -2,0 0,-10 2,0 0,4 4,0 0,-4 2,0 0,10 -2,0 z" style="fill:#dd2e44;fill-opacity:1;fill-rule:nonzero;stroke:none"/></g><path id="path58" d="M 9,5 7,5 7,11 9,11 9,5 Z" style="fill:#f4abba;fill-opacity:1;fill-rule:nonzero;stroke:none"/><path id="path60" d="m 16,5 -2,0 0,6 2,0 0,-6 z" style="fill:#f4abba;fill-opacity:1;fill-rule:nonzero;stroke:none"/><g id="g62" transform="translate(3,33)"><path id="path64" d="m 0,0 c 0,2.761 3.963,4 5,0 1.122,4 5,2.761 5,0 0,-3 -5,-6 -5,-6 0,0 -5,3 -5,6" style="fill:#ea596e;fill-opacity:1;fill-rule:nonzero;stroke:none"/></g></g></g></g></svg>