<svg xmlns="http://www.w3.org/2000/svg" xmlns:svg="http://www.w3.org/2000/svg" style="enable-background:new 0 0 45 45" id="svg2" version="1.1" viewBox="0 0 45 45" xml:space="preserve"><metadata id="metadata8"/><defs id="defs6"><clipPath id="clipPath16" clipPathUnits="userSpaceOnUse"><path id="path18" d="M 0,36 36,36 36,0 0,0 0,36 Z"/></clipPath></defs><g id="g10" transform="matrix(1.25,0,0,-1.25,0,45)"><g id="g12"><g id="g14" clip-path="url(#clipPath16)"><g id="g20" transform="translate(14,2)"><path id="path22" d="m 0,0 c 0,-1.105 0.896,-2 2,-2 l 18,0 c 1.105,0 2,0.895 2,2 l 0,20 c 0,1.105 -0.895,2 -2,2 L 2,22 C 0.896,22 0,21.105 0,20 L 0,0 Z" style="fill:#ffcc4d;fill-opacity:1;fill-rule:nonzero;stroke:none"/></g><g id="g24" transform="translate(34,24)"><path id="path26" d="m 0,0 -14,0 0,-2 16,0 C 2,-0.895 1.105,0 0,0" style="fill:#bcbec0;fill-opacity:1;fill-rule:nonzero;stroke:none"/></g><path id="path28" d="M 20,0 34,0 34,20 20,20 20,0 Z" style="fill:#55acee;fill-opacity:1;fill-rule:nonzero;stroke:none"/><g id="g30" transform="translate(18,36)"><path id="path32" d="m 0,0 -16,0 c -1.104,0 -2,-0.896 -2,-2 l 0,-32 c 0,-1.105 0.896,-2 2,-2 l 18,0 0,34 C 2,-0.896 1.105,0 0,0" style="fill:#ffe8b6;fill-opacity:1;fill-rule:nonzero;stroke:none"/></g><g id="g34" transform="translate(18,36)"><path id="path36" d="m 0,0 -16,0 c -1.104,0 -2,-0.896 -2,-2 L 2,-2 C 2,-0.896 1.105,0 0,0" style="fill:#bcbec0;fill-opacity:1;fill-rule:nonzero;stroke:none"/></g><path id="path38" d="m 2,10 16,0 0,4 -16,0 0,-4 z" style="fill:#55acee;fill-opacity:1;fill-rule:nonzero;stroke:none"/><path id="path40" d="m 2,16 16,0 0,4 -16,0 0,-4 z" style="fill:#55acee;fill-opacity:1;fill-rule:nonzero;stroke:none"/><path id="path42" d="m 2,22 16,0 0,4 -16,0 0,-4 z" style="fill:#55acee;fill-opacity:1;fill-rule:nonzero;stroke:none"/><path id="path44" d="m 2,28 16,0 0,4 -16,0 0,-4 z" style="fill:#55acee;fill-opacity:1;fill-rule:nonzero;stroke:none"/><path id="path46" d="M 2,0 18,0 18,8 2,8 2,0 Z" style="fill:#55acee;fill-opacity:1;fill-rule:nonzero;stroke:none"/><path id="path48" d="M 6,0 14,0 14,4 6,4 6,0 Z" style="fill:#3b88c3;fill-opacity:1;fill-rule:nonzero;stroke:none"/><path id="path50" d="m 23,0 8,0 0,4 -8,0 0,-4 z" style="fill:#3b88c3;fill-opacity:1;fill-rule:nonzero;stroke:none"/><path id="path52" d="m 35,8 -15,0 0,2 15,0 0,-2 z" style="fill:#ffcc4d;fill-opacity:1;fill-rule:nonzero;stroke:none"/><path id="path54" d="m 35,14 -15,0 0,2 15,0 0,-2 z" style="fill:#ffcc4d;fill-opacity:1;fill-rule:nonzero;stroke:none"/><g id="g56" transform="translate(36,29)"><path id="path58" d="m 0,0 c 0,-1.104 -0.895,-2 -2,-2 l -10,0 c -1.104,0 -2,0.896 -2,2 l 0,2 c 0,1.104 0.896,2 2,2 L -2,4 C -0.895,4 0,3.104 0,2 L 0,0 Z" style="fill:#dd2e44;fill-opacity:1;fill-rule:nonzero;stroke:none"/></g><path id="path60" d="m 28,24 -2,0 0,3 2,0 0,-3 z" style="fill:#58595b;fill-opacity:1;fill-rule:nonzero;stroke:none"/><path id="path62" d="m 32,24 -2,0 0,3 2,0 0,-3 z" style="fill:#58595b;fill-opacity:1;fill-rule:nonzero;stroke:none"/><path id="path64" d="m 26,29 -2,0 0,2 2,0 0,-2 z" style="fill:#f4abba;fill-opacity:1;fill-rule:nonzero;stroke:none"/><path id="path66" d="m 28,29 -2,0 0,2 2,0 0,-2 z" style="fill:#fff;fill-opacity:1;fill-rule:nonzero;stroke:none"/><path id="path68" d="m 30,29 -2,0 0,2 2,0 0,-2 z" style="fill:#f4abba;fill-opacity:1;fill-rule:nonzero;stroke:none"/><path id="path70" d="m 32,29 -2,0 0,2 2,0 0,-2 z" style="fill:#fff;fill-opacity:1;fill-rule:nonzero;stroke:none"/><path id="path72" d="m 34,29 -2,0 0,2 2,0 0,-2 z" style="fill:#f4abba;fill-opacity:1;fill-rule:nonzero;stroke:none"/></g></g></g></svg>