<svg xmlns="http://www.w3.org/2000/svg" xmlns:svg="http://www.w3.org/2000/svg" style="enable-background:new 0 0 45 45" id="svg2" version="1.1" viewBox="0 0 45 45" xml:space="preserve"><metadata id="metadata8"/><defs id="defs6"><clipPath id="clipPath18" clipPathUnits="userSpaceOnUse"><path id="path20" d="M 0,36 36,36 36,0 0,0 0,36 Z"/></clipPath></defs><g id="g10" transform="matrix(1.25,0,0,-1.25,0,45)"><path id="path12" d="M 33,20 3,20 3,2 33,2 33,20 Z" style="fill:#66757f;fill-opacity:1;fill-rule:nonzero;stroke:none"/><g id="g14"><g id="g16" clip-path="url(#clipPath18)"><g id="g22" transform="translate(2,2)"><path id="path24" d="m 0,0 32,0 c 1.105,0 2,-0.895 2,-2 l -36,0 c 0,1.105 0.896,2 2,2" style="fill:#ccd6dd;fill-opacity:1;fill-rule:nonzero;stroke:none"/></g><g id="g26" transform="translate(18,13)"><path id="path28" d="m 0,0 c -1.657,0 -3,-1.343 -3,-3 l 0,-6 6,0 0,6 C 3,-1.343 1.657,0 0,0" style="fill:#292f33;fill-opacity:1;fill-rule:nonzero;stroke:none"/></g><path id="path30" d="M 7,15 3,15 3,4 7,4 7,15 Z" style="fill:#ccd6dd;fill-opacity:1;fill-rule:nonzero;stroke:none"/><path id="path32" d="M 13,15 9,15 9,4 13,4 13,15 Z" style="fill:#ccd6dd;fill-opacity:1;fill-rule:nonzero;stroke:none"/><path id="path34" d="m 33,15 -4,0 0,-11 4,0 0,11 z" style="fill:#ccd6dd;fill-opacity:1;fill-rule:nonzero;stroke:none"/><path id="path36" d="m 27,15 -4,0 0,-11 4,0 0,11 z" style="fill:#ccd6dd;fill-opacity:1;fill-rule:nonzero;stroke:none"/><path id="path38" d="M 34,2 2,2 2,4 34,4 34,2 Z" style="fill:#aab8c2;fill-opacity:1;fill-rule:nonzero;stroke:none"/><g id="g40" transform="translate(36,25)"><path id="path42" d="M 0,0 -18,11 -36,0 0,0 Z" style="fill:#66757f;fill-opacity:1;fill-rule:nonzero;stroke:none"/></g><g id="g44" transform="translate(18,33.5996)"><path id="path46" d="m 0,0 -16,-9.6 0,-4 32,0 0,4 L 0,0 Z" style="fill:#ccd6dd;fill-opacity:1;fill-rule:nonzero;stroke:none"/></g><path id="path48" d="m 7,15 -4,0 0,2 4,0 0,-2 z" style="fill:#8899a6;fill-opacity:1;fill-rule:nonzero;stroke:none"/><path id="path50" d="m 13,15 -4,0 0,2 4,0 0,-2 z" style="fill:#8899a6;fill-opacity:1;fill-rule:nonzero;stroke:none"/><path id="path52" d="m 27,15 -4,0 0,2 4,0 0,-2 z" style="fill:#8899a6;fill-opacity:1;fill-rule:nonzero;stroke:none"/><path id="path54" d="m 33,15 -4,0 0,2 4,0 0,-2 z" style="fill:#8899a6;fill-opacity:1;fill-rule:nonzero;stroke:none"/><path id="path56" d="m 35,19 -34,0 0,5 34,0 0,-5 z" style="fill:#ccd6dd;fill-opacity:1;fill-rule:nonzero;stroke:none"/><g id="g58" transform="translate(36,24)"><path id="path60" d="m 0,0 c 0,-0.552 -0.447,-1 -1,-1 l -34,0 c -0.552,0 -1,0.448 -1,1 l 0,1 c 0,0.552 0.448,1 1,1 L -1,2 C -0.447,2 0,1.552 0,1 L 0,0 Z" style="fill:#aab8c2;fill-opacity:1;fill-rule:nonzero;stroke:none"/></g><g id="g62" transform="translate(36,18)"><path id="path64" d="m 0,0 c 0,-0.552 -0.447,-1 -1,-1 l -34,0 c -0.552,0 -1,0.448 -1,1 l 0,1 c 0,0.552 0.448,1 1,1 L -1,2 C -0.447,2 0,1.552 0,1 L 0,0 Z" style="fill:#aab8c2;fill-opacity:1;fill-rule:nonzero;stroke:none"/></g><path id="path66" d="M 23,2 13,2 13,4 23,4 23,2 Z" style="fill:#e1e8ed;fill-opacity:1;fill-rule:nonzero;stroke:none"/><path id="path68" d="M 25,0 11,0 11,2 25,2 25,0 Z" style="fill:#f5f8fa;fill-opacity:1;fill-rule:nonzero;stroke:none"/></g></g></g></svg>