<svg xmlns="http://www.w3.org/2000/svg" xmlns:svg="http://www.w3.org/2000/svg" style="enable-background:new 0 0 45 45" id="svg2" version="1.1" viewBox="0 0 45 45" xml:space="preserve"><metadata id="metadata8"/><g id="g10" transform="matrix(1.25,0,0,-1.25,0,45)"><path id="path12" d="M 31,13 5,13 5,6 31,6 31,13 Z" style="fill:#d1d3d4;fill-opacity:1;fill-rule:nonzero;stroke:none"/><g id="g14" transform="translate(3.9996,7.0002)"><path id="path16" d="M 0,0 -4,-7 32,-7 28.001,0 0,0 Z" style="fill:#d99e82;fill-opacity:1;fill-rule:nonzero;stroke:none"/></g><g id="g18" transform="translate(30,16)"><path id="path20" d="M 0,0 -24,0 -29,-4 5,-4 0,0 Z" style="fill:#66757f;fill-opacity:1;fill-rule:nonzero;stroke:none"/></g><g id="g22" transform="translate(18,26.1182)"><path id="path24" d="m 0,0 -8.236,-4.118 16.472,0 L 0,0 Z" style="fill:#d1d3d4;fill-opacity:1;fill-rule:nonzero;stroke:none"/></g><g id="g26" transform="translate(18,26.1182)"><path id="path28" d="m 0,0 8.236,-4.118 -16.472,0 L 0,0 Z m 12,-4.118 -1,5 -22,0 -1,-5 -4,-3 32,0 -4,3 z" style="fill:#66757f;fill-opacity:1;fill-rule:nonzero;stroke:none"/></g><path id="path30" d="m 30,19 -24,0 0,-3 24,0 0,3 z" style="fill:#d1d3d4;fill-opacity:1;fill-rule:nonzero;stroke:none"/><g id="g32" transform="translate(24,27)"><path id="path34" d="m 0,0 0,4 -12,0 0,-4 -2,0 0,-2 16,0 0,2 -2,0 z" style="fill:#d1d3d4;fill-opacity:1;fill-rule:nonzero;stroke:none"/></g><g id="g36" transform="translate(12,34)"><path id="path38" d="m 0,0 12,0 0,-2 2,-2 -16,0 2,2 0,2 z" style="fill:#66757f;fill-opacity:1;fill-rule:nonzero;stroke:none"/></g><g id="g40" transform="translate(23.0004,36)"><path id="path42" d="m 0,0 0,-1 -10.001,0 0,1 -1,0 0,-1 0,-1 1,0 L 0,-2 1,-2 1,-1 1,0 0,0 Z" style="fill:#99aab5;fill-opacity:1;fill-rule:nonzero;stroke:none"/></g><g id="g44" transform="translate(12,22)"><path id="path46" d="M 0,0 6,3 12,0 0,0 Z m 18,-0.764 -5.105,2.553 -6,3 L 6,5.236 5.105,4.789 l -6,-3 L -6,-0.764 -6,-2 l 6,0 12,0 6,0 0,1.236 z" style="fill:#66757f;fill-opacity:1;fill-rule:nonzero;stroke:none"/></g><path id="path48" d="M 31,7 5,7 5,9 31,9 31,7 Z" style="fill:#6d6e71;fill-opacity:1;fill-rule:nonzero;stroke:none"/></g></svg>