<svg xmlns="http://www.w3.org/2000/svg" xmlns:svg="http://www.w3.org/2000/svg" style="enable-background:new 0 0 45 45" id="svg2" version="1.1" viewBox="0 0 45 45" xml:space="preserve"><metadata id="metadata8"/><defs id="defs6"><clipPath id="clipPath16" clipPathUnits="userSpaceOnUse"><path id="path18" d="M 4,31 C 1.791,31 0,29.209 0,27 L 0,27 0,9 C 0,6.791 1.791,5 4,5 l 0,0 28,0 c 2.209,0 4,1.791 4,4 l 0,0 0,18 c 0,2.209 -1.791,4 -4,4 l 0,0 -28,0 z"/></clipPath></defs><g id="g10" transform="matrix(1.25,0,0,-1.25,0,45)"><g id="g12"><g id="g14" clip-path="url(#clipPath16)"><path id="path20" d="M 36,9.5 0,9.5 0,5 36,5 36,9.5 Z" style="fill:#880082;fill-opacity:1;fill-rule:nonzero;stroke:none"/><path id="path22" d="m 36,13.93 -36,0 0,-4.6 36,0 0,4.6 z" style="fill:#3558a0;fill-opacity:1;fill-rule:nonzero;stroke:none"/><path id="path24" d="m 36,18.17 -36,0 0,-4.5 36,0 0,4.5 z" style="fill:#138f3e;fill-opacity:1;fill-rule:nonzero;stroke:none"/><path id="path26" d="m 36,22.5 -36,0 0,-4.5 36,0 0,4.5 z" style="fill:#fad220;fill-opacity:1;fill-rule:nonzero;stroke:none"/><path id="path28" d="m 36,26.83 -36,0 0,-4.5 36,0 0,4.5 z" style="fill:#ff5000;fill-opacity:1;fill-rule:nonzero;stroke:none"/><path id="path30" d="m 36,31 -36,0 0,-4.33 36,0 0,4.33 z" style="fill:#ff000e;fill-opacity:1;fill-rule:nonzero;stroke:none"/></g></g></g></svg>