<svg xmlns="http://www.w3.org/2000/svg" xmlns:svg="http://www.w3.org/2000/svg" style="enable-background:new 0 0 45 45" id="svg2" version="1.1" viewBox="0 0 45 45" xml:space="preserve"><metadata id="metadata8"/><defs id="defs6"><clipPath id="clipPath20" clipPathUnits="userSpaceOnUse"><path id="path22" d="M 0,36 36,36 36,0 0,0 0,36 Z"/></clipPath></defs><g id="g10" transform="matrix(1.25,0,0,-1.25,0,45)"><path id="path12" d="m 4,0 28.001,0 0,19 L 4,19 4,0 Z" style="fill:#ccd6dd;fill-opacity:1;fill-rule:nonzero;stroke:none"/><path id="path14" d="m 29,18 -23,0 0,5 23,0 0,-5 z" style="fill:#269;fill-opacity:1;fill-rule:nonzero;stroke:none"/><g id="g16"><g id="g18" clip-path="url(#clipPath20)"><g id="g24" transform="translate(1,24)"><path id="path26" d="m 0,0 0,-22 c 0,-1.105 0.896,-2 2,-2 l 4,0 0,24 -6,0 z" style="fill:#aab8c2;fill-opacity:1;fill-rule:nonzero;stroke:none"/></g><g id="g28" transform="translate(29,24)"><path id="path30" d="m 0,0 0,-24 4,0 c 1.105,0 2,0.895 2,2 L 6,0 0,0 Z" style="fill:#aab8c2;fill-opacity:1;fill-rule:nonzero;stroke:none"/></g><path id="path32" d="m 22,3 -8,0 0,11 8,0 0,-11 z" style="fill:#f2f9ff;fill-opacity:1;fill-rule:nonzero;stroke:none"/><g id="g34" transform="translate(22,17)"><path id="path36" d="m 0,0 c -0.295,0 -0.558,-0.391 -0.74,-1 l -6.52,0 c -0.182,0.609 -0.445,1 -0.74,1 -0.552,0 -1,-1.344 -1,-3 0,-1.657 0.448,-3 1,-3 0.552,0 1,1.343 1,3 l 6,0 c 0,-1.657 0.447,-3 1,-3 0.553,0 1,1.343 1,3 0,1.656 -0.447,3 -1,3" style="fill:#269;fill-opacity:1;fill-rule:nonzero;stroke:none"/></g><path id="path38" d="m 5,17 -2,0 0,2 2,0 0,-2 z" style="fill:#66757f;fill-opacity:1;fill-rule:nonzero;stroke:none"/><path id="path40" d="m 11,14 -2,0 0,2 2,0 0,-2 z" style="fill:#66757f;fill-opacity:1;fill-rule:nonzero;stroke:none"/><path id="path42" d="m 27,14 -2,0 0,2 2,0 0,-2 z" style="fill:#66757f;fill-opacity:1;fill-rule:nonzero;stroke:none"/><path id="path44" d="m 11,10 -2,0 0,2 2,0 0,-2 z" style="fill:#66757f;fill-opacity:1;fill-rule:nonzero;stroke:none"/><path id="path46" d="m 27,10 -2,0 0,2 2,0 0,-2 z" style="fill:#66757f;fill-opacity:1;fill-rule:nonzero;stroke:none"/><path id="path48" d="m 5,13 -2,0 0,2 2,0 0,-2 z" style="fill:#66757f;fill-opacity:1;fill-rule:nonzero;stroke:none"/><path id="path50" d="m 33,17 -2,0 0,2 2,0 0,-2 z" style="fill:#66757f;fill-opacity:1;fill-rule:nonzero;stroke:none"/><path id="path52" d="m 33,13 -2,0 0,2 2,0 0,-2 z" style="fill:#66757f;fill-opacity:1;fill-rule:nonzero;stroke:none"/><path id="path54" d="m 23,10 -10,0 0,4 10,0 0,-4 z" style="fill:#f2f9ff;fill-opacity:1;fill-rule:nonzero;stroke:none"/><g id="g56" transform="translate(18,10)"><path id="path58" d="m 0,0 c -1.104,0 -2,-0.895 -2,-2 l 0,-5 4,0 0,5 C 2,-0.895 1.105,0 0,0" style="fill:#66757f;fill-opacity:1;fill-rule:nonzero;stroke:none"/></g><path id="path60" d="M 24,0 12,0 12,3 24,3 24,0 Z" style="fill:#8899a6;fill-opacity:1;fill-rule:nonzero;stroke:none"/><g id="g62" transform="translate(1,24)"><path id="path64" d="M 0,0 6,0 C 6,0 4,8 3,8 2,8 0,0 0,0" style="fill:#269;fill-opacity:1;fill-rule:nonzero;stroke:none"/></g><g id="g66" transform="translate(29,24)"><path id="path68" d="M 0,0 6,0 C 6,0 4,8 3,8 2,8 0,0 0,0" style="fill:#269;fill-opacity:1;fill-rule:nonzero;stroke:none"/></g><g id="g70" transform="translate(8,22)"><path id="path72" d="m 0,0 c 0,-0.552 -0.448,-1 -1,-1 l -6,0 c -0.552,0 -1,0.448 -1,1 0,0.552 0.448,1 1,1 l 6,0 C -0.448,1 0,0.552 0,0" style="fill:#ccd6dd;fill-opacity:1;fill-rule:nonzero;stroke:none"/></g><g id="g74" transform="translate(36,22)"><path id="path76" d="m 0,0 c 0,-0.552 -0.447,-1 -1,-1 l -6,0 c -0.553,0 -1,0.448 -1,1 0,0.552 0.447,1 1,1 l 6,0 C -0.447,1 0,0.552 0,0" style="fill:#ccd6dd;fill-opacity:1;fill-rule:nonzero;stroke:none"/></g></g></g></g></svg>