<svg xmlns="http://www.w3.org/2000/svg" xmlns:svg="http://www.w3.org/2000/svg" style="enable-background:new 0 0 45 45" id="svg2" version="1.1" viewBox="0 0 45 45" xml:space="preserve"><metadata id="metadata8"/><defs id="defs6"><clipPath id="clipPath16" clipPathUnits="userSpaceOnUse"><path id="path18" d="M 0,36 36,36 36,0 0,0 0,36 Z"/></clipPath></defs><g id="g10" transform="matrix(1.25,0,0,-1.25,0,45)"><g id="g12"><g id="g14" clip-path="url(#clipPath16)"><g id="g20" transform="translate(32,31)"><path id="path22" d="M 0,0 -0.023,0 -27.978,0 -28,0 c -2.209,0 -4,-1.791 -4,-4 l 0,-0.396 0,-17.207 0,-0.397 c 0,-2.209 1.791,-4 4,-4 l 0.022,0 27.955,0 0.023,0 c 2.209,0 4,1.791 4,4 L 4,-21.604 4,-4.396 4,-4 C 4,-1.791 2.209,0 0,0" style="fill:#eee;fill-opacity:1;fill-rule:nonzero;stroke:none"/></g><g id="g24" transform="translate(13,18)"><path id="path26" d="m 0,0 c 0,0 -13,9.414 -13,9.105 l 0,-0.401 0,-17.408 0,-0.401 C -13,-9.414 0,0 0,0" style="fill:#0065bd;fill-opacity:1;fill-rule:nonzero;stroke:none"/></g><g id="g28" transform="translate(17.9998,15)"><path id="path30" d="m 0,0 c 0,0 -14.303,-10 -13.929,-10 l 0.022,0 27.814,0 0.023,0 C 14.303,-10 0,0 0,0" style="fill:#0065bd;fill-opacity:1;fill-rule:nonzero;stroke:none"/></g><g id="g32" transform="translate(23,18)"><path id="path34" d="m 0,0 c 0,0 13,-9.414 13,-9.105 l 0,0.401 0,17.408 0,0.401 C 13,9.414 0,0 0,0" style="fill:#0065bd;fill-opacity:1;fill-rule:nonzero;stroke:none"/></g><g id="g36" transform="translate(17.9998,21)"><path id="path38" d="m 0,0 c 0,0 -14.303,10 -13.929,10 l 0.022,0 27.814,0 0.023,0 C 14.303,10 0,0 0,0" style="fill:#0065bd;fill-opacity:1;fill-rule:nonzero;stroke:none"/></g></g></g></g></svg>