<svg xmlns="http://www.w3.org/2000/svg" xmlns:svg="http://www.w3.org/2000/svg" style="enable-background:new 0 0 45 45" id="svg2" version="1.1" viewBox="0 0 45 45" xml:space="preserve"><metadata id="metadata8"/><defs id="defs6"><clipPath id="clipPath16" clipPathUnits="userSpaceOnUse"><path id="path18" d="M 0,36 36,36 36,0 0,0 0,36 Z"/></clipPath></defs><g id="g10" transform="matrix(1.25,0,0,-1.25,0,45)"><g id="g12"><g id="g14" clip-path="url(#clipPath16)"><g id="g20" transform="translate(13,30)"><path id="path22" d="m 0,0 c 0,-3.313 -2.686,-6 -6,-6 -3.313,0 -6,2.687 -6,6 0,3.313 2.687,6 6,6 3.314,0 6,-2.687 6,-6" style="fill:#ffcc4d;fill-opacity:1;fill-rule:nonzero;stroke:none"/></g><g id="g24" transform="translate(24,6)"><path id="path26" d="m 0,0 c 0,-3.314 -2.686,-6 -6,-6 -3.314,0 -6,2.686 -6,6 0,3.314 2.686,6 6,6 3.314,0 6,-2.686 6,-6" style="fill:#ffcc4d;fill-opacity:1;fill-rule:nonzero;stroke:none"/></g><g id="g28" transform="translate(22,6)"><path id="path30" d="m 0,0 c 0,-2.209 -1.791,-4 -4,-4 -2.209,0 -4,1.791 -4,4 0,2.209 1.791,4 4,4 2.209,0 4,-1.791 4,-4" style="fill:#dd2e44;fill-opacity:1;fill-rule:nonzero;stroke:none"/></g><g id="g32" transform="translate(35,30)"><path id="path34" d="m 0,0 c 0,-3.313 -2.686,-6 -6,-6 -3.313,0 -6,2.687 -6,6 0,3.313 2.687,6 6,6 3.314,0 6,-2.687 6,-6" style="fill:#ffcc4d;fill-opacity:1;fill-rule:nonzero;stroke:none"/></g><g id="g36" transform="translate(11,30)"><path id="path38" d="m 0,0 c 0,-2.209 -1.791,-4 -4,-4 -2.209,0 -4,1.791 -4,4 0,2.209 1.791,4 4,4 2.209,0 4,-1.791 4,-4" style="fill:#e6aaaa;fill-opacity:1;fill-rule:nonzero;stroke:none"/></g><g id="g40" transform="translate(33,30)"><path id="path42" d="m 0,0 c 0,-2.209 -1.791,-4 -4,-4 -2.209,0 -4,1.791 -4,4 0,2.209 1.791,4 4,4 2.209,0 4,-1.791 4,-4" style="fill:#e6aaaa;fill-opacity:1;fill-rule:nonzero;stroke:none"/></g><g id="g44" transform="translate(34,14)"><path id="path46" d="m 0,0 c 0,-7 -4.923,-7 -4.923,-7 l -22.154,0 c 0,0 -4.923,0 -4.923,7 0,0 1.231,22 16,22 C -1.23,22 0,0 0,0" style="fill:#ffcc4d;fill-opacity:1;fill-rule:nonzero;stroke:none"/></g><g id="g48" transform="translate(11,19)"><path id="path50" d="M 0,0 C 0,0 0,2 2,2 4,2 4,0 4,0 l 0,-2 c 0,0 0,-2 -2,-2 -2,0 -2,2 -2,2 l 0,2 z" style="fill:#272b2b;fill-opacity:1;fill-rule:nonzero;stroke:none"/></g><g id="g52" transform="translate(21,19)"><path id="path54" d="M 0,0 C 0,0 0,2 2,2 4,2 4,0 4,0 l 0,-2 c 0,0 0,-2 -2,-2 -2,0 -2,2 -2,2 l 0,2 z" style="fill:#272b2b;fill-opacity:1;fill-rule:nonzero;stroke:none"/></g><g id="g56" transform="translate(23.6777,13)"><path id="path58" d="M 0,0 C -2.402,0 -4.501,-0.953 -5.678,-2.378 -6.855,-0.953 -8.955,0 -11.356,0 c -10.322,0 -10.279,-0.421 -10.322,-3.182 -0.087,-5.61 6.631,-6.9 10.322,-6.818 2.401,0.053 4.501,0.989 5.678,2.398 C -4.501,-9.011 -2.401,-9.947 0,-10 3.691,-10.082 10.409,-8.792 10.321,-3.182 10.278,-0.421 10.321,0 0,0" style="fill:#fff;fill-opacity:1;fill-rule:nonzero;stroke:none"/></g><g id="g60" transform="translate(33.6602,10.7578)"><path id="path62" d="m 0,0 c 0.204,-0.279 0.333,-0.588 0.339,-0.939 0.03,-1.906 -0.745,-3.303 -1.915,-4.328 L -6.661,-5.758 0,0 Z" style="fill:#272b2b;fill-opacity:1;fill-rule:nonzero;stroke:none"/></g><g id="g64" transform="translate(15,11)"><path id="path66" d="M 0,0 C -1,-1 2,-4 3,-4 4,-4 7,-1 6,0 5,1 1,1 0,0" style="fill:#272b2b;fill-opacity:1;fill-rule:nonzero;stroke:none"/></g><g id="g68" transform="translate(10,33)"><path id="path70" d="m 0,0 c 2.667,-2 8,-4 8,-4 0,0 5.333,2 8,4 L 8,-1 0,0 Z" style="fill:#272b2b;fill-opacity:1;fill-rule:nonzero;stroke:none"/></g><g id="g72" transform="translate(18,34)"><path id="path74" d="M 0,0 C 0,0 1.652,0.62 3.576,1.514 2.48,1.822 1.295,2 0,2 -1.295,2 -2.48,1.822 -3.576,1.514 -1.652,0.62 0,0 0,0" style="fill:#272b2b;fill-opacity:1;fill-rule:nonzero;stroke:none"/></g><g id="g76" transform="translate(11,27)"><path id="path78" d="m 0,0 c 3,-2 7,-4 7,-4 0,0 4,2 7,4 L 7,-1 0,0 Z" style="fill:#272b2b;fill-opacity:1;fill-rule:nonzero;stroke:none"/></g><g id="g80" transform="translate(31.6445,24.7153)"><path id="path82" d="M 0,0 -4.645,-3.715 1.361,-4.466 C 1.027,-3.064 0.584,-1.537 0,0" style="fill:#272b2b;fill-opacity:1;fill-rule:nonzero;stroke:none"/></g><g id="g84" transform="translate(33.5557,17.5557)"><path id="path86" d="m 0,0 -5.556,-5.556 5.835,0 c 0.102,0.595 0.165,1.251 0.165,2 0,0 -0.081,1.43 -0.444,3.556" style="fill:#272b2b;fill-opacity:1;fill-rule:nonzero;stroke:none"/></g><g id="g88" transform="translate(2.4443,17.5557)"><path id="path90" d="m 0,0 c -0.363,-2.126 -0.444,-3.556 -0.444,-3.556 0,-0.748 0.063,-1.405 0.165,-2 l 5.835,0 L 0,0 Z" style="fill:#272b2b;fill-opacity:1;fill-rule:nonzero;stroke:none"/></g><g id="g92" transform="translate(2.3389,10.7578)"><path id="path94" d="m 0,0 c -0.204,-0.279 -0.333,-0.588 -0.339,-0.939 -0.03,-1.906 0.745,-3.303 1.916,-4.328 L 6.661,-5.758 0,0 Z" style="fill:#272b2b;fill-opacity:1;fill-rule:nonzero;stroke:none"/></g><g id="g96" transform="translate(9,21)"><path id="path98" d="M 0,0 -4.644,3.715 C -5.229,2.178 -5.672,0.651 -6.005,-0.751 L 0,0 Z" style="fill:#272b2b;fill-opacity:1;fill-rule:nonzero;stroke:none"/></g></g></g></g></svg>