<svg xmlns="http://www.w3.org/2000/svg" xmlns:svg="http://www.w3.org/2000/svg" style="enable-background:new 0 0 45 45" id="svg2" version="1.1" viewBox="0 0 45 45" xml:space="preserve"><metadata id="metadata8"/><defs id="defs6"><clipPath id="clipPath16" clipPathUnits="userSpaceOnUse"><path id="path18" d="M 0,36 36,36 36,0 0,0 0,36 Z"/></clipPath></defs><g id="g10" transform="matrix(1.25,0,0,-1.25,0,45)"><g id="g12"><g id="g14" clip-path="url(#clipPath16)"><g id="g20" transform="translate(35,18)"><path id="path22" d="m 0,0 c 0,-6.075 -4.925,-11 -11,-11 l -12,0 c -6.075,0 -11,4.925 -11,11 0,6.075 4.925,11 11,11 l 12,0 C -4.925,11 0,6.075 0,0" style="fill:#e6aaaa;fill-opacity:1;fill-rule:nonzero;stroke:none"/></g><g id="g24" transform="translate(14,18)"><path id="path26" d="m 0,0 c 0,-3.314 -1.791,-6 -4,-6 -2.209,0 -4,2.686 -4,6 0,3.314 1.791,6 4,6 2.209,0 4,-2.686 4,-6" style="fill:#662113;fill-opacity:1;fill-rule:nonzero;stroke:none"/></g><g id="g28" transform="translate(30,18)"><path id="path30" d="m 0,0 c 0,-3.314 -1.791,-6 -4,-6 -2.209,0 -4,2.686 -4,6 0,3.314 1.791,6 4,6 2.209,0 4,-2.686 4,-6" style="fill:#662113;fill-opacity:1;fill-rule:nonzero;stroke:none"/></g></g></g></g></svg>