<svg xmlns="http://www.w3.org/2000/svg" xmlns:svg="http://www.w3.org/2000/svg" style="enable-background:new 0 0 45 45" id="svg2" version="1.1" viewBox="0 0 45 45" xml:space="preserve"><metadata id="metadata8"/><defs id="defs6"><clipPath id="clipPath16" clipPathUnits="userSpaceOnUse"><path id="path18" d="M 0,36 36,36 36,0 0,0 0,36 Z"/></clipPath></defs><g id="g10" transform="matrix(1.25,0,0,-1.25,0,45)"><g id="g12"><g id="g14" clip-path="url(#clipPath16)"><g id="g20" transform="translate(32.7686,2.6406)"><path id="path22" d="m 0,0 c -2.739,3.286 -3.903,6.569 -4.397,8.746 -0.065,0.283 -0.249,0.525 -0.506,0.661 -0.257,0.137 -0.56,0.155 -0.83,0.05 l -7.113,-2.749 c -0.302,-0.117 -0.53,-0.374 -0.609,-0.688 -0.079,-0.316 -0.019,-0.666 0.211,-0.896 5.968,-5.98 12.421,-6.765 12.475,-6.765 0.355,0 0.688,0.189 0.868,0.503 C 0.307,-0.775 0.268,-0.321 0,0" style="fill:#292f33;fill-opacity:1;fill-rule:nonzero;stroke:none"/></g><g id="g24" transform="translate(18,34)"><path id="path26" d="m 0,0 c -9.941,0 -18,-10 -18,-14 0,-4 8.059,-14 18,-14 9.941,0 18,10 18,14 0,4 -8.059,14 -18,14" style="fill:#292f33;fill-opacity:1;fill-rule:nonzero;stroke:none"/></g><g id="g28" transform="translate(18,25)"><path id="path30" d="m 0,0 c -2.761,0 -5,-2.239 -5,-5 0,-2.761 2.239,-5 5,-5 2.761,0 5,2.239 5,5 0,2.761 -2.239,5 -5,5" style="fill:#292f33;fill-opacity:1;fill-rule:nonzero;stroke:none"/></g><g id="g32" transform="translate(18,15)"><path id="path34" d="m 0,0 c -2.761,0 -5,2.239 -5,5 0,2.761 2.239,5 5,5 C 2.761,10 5,7.761 5,5 5,2.239 2.761,0 0,0 m 0,14 c -4.963,0 -9,-4.037 -9,-9 0,-4.963 4.037,-9 9,-9 4.963,0 9,4.037 9,9 0,4.963 -4.037,9 -9,9" style="fill:#fff;fill-opacity:1;fill-rule:nonzero;stroke:none"/></g></g></g></g></svg>