<svg xmlns="http://www.w3.org/2000/svg" xmlns:svg="http://www.w3.org/2000/svg" style="enable-background:new 0 0 45 45" id="svg2" version="1.1" viewBox="0 0 45 45" xml:space="preserve"><metadata id="metadata8"/><defs id="defs6"><clipPath id="clipPath16" clipPathUnits="userSpaceOnUse"><path id="path18" d="M 0,36 36,36 36,0 0,0 0,36 Z"/></clipPath><clipPath id="clipPath28" clipPathUnits="userSpaceOnUse"><path id="path30" d="m 2.166,18.001 c 0,-3.813 7.086,-9.876 15.826,-9.876 l 0,0 c 8.739,0 15.826,6.91 15.826,9.876 l 0,0 c 0,2.974 -7.087,9.874 -15.826,9.874 l 0,0 c -8.74,0 -15.826,-6.9 -15.826,-9.874"/></clipPath><clipPath id="clipPath44" clipPathUnits="userSpaceOnUse"><path id="path46" d="M 0,36 36,36 36,0 0,0 0,36 Z"/></clipPath></defs><g id="g10" transform="matrix(1.25,0,0,-1.25,0,45)"><g id="g12"><g id="g14" clip-path="url(#clipPath16)"><g id="g20" transform="translate(35.0586,18.0005)"><path id="path22" d="m 0,0 c 0,-3.304 -7.642,-11.001 -17.067,-11.001 -9.425,0 -17.067,6.752 -17.067,11.001 0,3.313 7.642,10.999 17.067,10.999 C -7.642,10.999 0,3.313 0,0" style="fill:#99aab5;fill-opacity:1;fill-rule:nonzero;stroke:none"/></g></g></g><g id="g24"><g id="g26" clip-path="url(#clipPath28)"><g id="g32" transform="translate(33.8174,18.0005)"><path id="path34" d="m 0,0 c 0,-2.904 -7.087,-9.667 -15.826,-9.667 -8.739,0 -15.825,5.935 -15.825,9.667 0,2.912 7.086,9.666 15.825,9.666 C -7.087,9.666 0,2.912 0,0" style="fill:#f5f8fa;fill-opacity:1;fill-rule:nonzero;stroke:none"/></g><g id="g36" transform="translate(26.458,18)"><path id="path38" d="m 0,0 c 0,-4.671 -3.787,-8.458 -8.458,-8.458 -4.671,0 -8.458,3.787 -8.458,8.458 0,4.671 3.787,8.458 8.458,8.458 C -3.787,8.458 0,4.671 0,0" style="fill:#55acee;fill-opacity:1;fill-rule:nonzero;stroke:none"/></g></g></g><g id="g40"><g id="g42" clip-path="url(#clipPath44)"><g id="g48" transform="translate(22.708,18)"><path id="path50" d="m 0,0 c 0,-2.601 -2.107,-4.708 -4.708,-4.708 -2.6,0 -4.708,2.107 -4.708,4.708 0,2.6 2.108,4.708 4.708,4.708 C -2.107,4.708 0,2.6 0,0" style="fill:#292f33;fill-opacity:1;fill-rule:nonzero;stroke:none"/></g><g id="g52" transform="translate(23,21)"><path id="path54" d="m 0,0 c 0,-1.104 -0.895,-2 -2,-2 -1.104,0 -2,0.896 -2,2 0,1.105 0.896,2 2,2 1.105,0 2,-0.895 2,-2" style="fill:#f5f8fa;fill-opacity:1;fill-rule:nonzero;stroke:none"/></g></g></g></g></svg>