<svg xmlns="http://www.w3.org/2000/svg" xmlns:svg="http://www.w3.org/2000/svg" style="enable-background:new 0 0 45 45" id="svg2" version="1.1" viewBox="0 0 45 45" xml:space="preserve"><metadata id="metadata8"/><g id="g10" transform="matrix(1.25,0,0,-1.25,0,45)"><g id="g12" transform="translate(9.9999,36)"><path id="path14" d="M 0,0 0,-4.568 -6.181,-33.682 1.545,-36 7.955,-12.819 10.182,0 0,0 Z" style="fill:#3b88c3;fill-opacity:1;fill-rule:nonzero;stroke:none"/></g><g id="g16" transform="translate(15.8184,36)"><path id="path18" d="M 0,0 2.227,-12.819 8.635,-36 16.363,-33.682 10.182,-4.568 10.182,0 0,0 Z" style="fill:#3b88c3;fill-opacity:1;fill-rule:nonzero;stroke:none"/></g><path id="path20" d="m 26,32 -16,0 0,2 16,0 0,-2 z" style="fill:#269;fill-opacity:1;fill-rule:nonzero;stroke:none"/><g id="g22" transform="translate(19,24)"><path id="path24" d="M 0,0 -2,0 -6,2 4,2 0,0 Z" style="fill:#269;fill-opacity:1;fill-rule:nonzero;stroke:none"/></g><path id="path26" d="m 12,33 2.001,0 0,3 -2.001,0 0,-3 z" style="fill:#269;fill-opacity:1;fill-rule:nonzero;stroke:none"/><path id="path28" d="m 22,33 2.001,0 0,3 -2.001,0 0,-3 z" style="fill:#269;fill-opacity:1;fill-rule:nonzero;stroke:none"/><path id="path30" d="m 16,25 2,0 0,7 -2,0 0,-7 z" style="fill:#269;fill-opacity:1;fill-rule:nonzero;stroke:none"/></g></svg>