<svg xmlns="http://www.w3.org/2000/svg" xmlns:svg="http://www.w3.org/2000/svg" style="enable-background:new 0 0 45 45" id="svg2" version="1.1" viewBox="0 0 45 45" xml:space="preserve"><metadata id="metadata8"/><defs id="defs6"><clipPath id="clipPath16" clipPathUnits="userSpaceOnUse"><path id="path18" d="M 0,36 36,36 36,0 0,0 0,36 Z"/></clipPath><clipPath id="clipPath104" clipPathUnits="userSpaceOnUse"><path id="path106" d="m 15,25 14,0 0,-5 -14,0 0,5 z"/></clipPath></defs><g id="g10" transform="matrix(1.25,0,0,-1.25,0,45)"><g id="g12"><g id="g14" clip-path="url(#clipPath16)"><g id="g20" transform="translate(36,0)"><path id="path22" d="m 0,0 0,4 c 0,3.314 -2.686,6 -6,6 l -16,0 c -3.313,0 -6,-2.686 -6,-6 l 0,-4 28,0 z" style="fill:#ccd6dd;fill-opacity:1;fill-rule:nonzero;stroke:none"/></g><g id="g24" transform="translate(18,9)"><path id="path26" d="M 0,0 4,-4 8,0 8,5 0,5 0,0 Z" style="fill:#d5ab88;fill-opacity:1;fill-rule:nonzero;stroke:none"/></g><g id="g28" transform="translate(18,12)"><path id="path30" d="M 0,0 C 1.216,-1.374 2.355,-1.719 3.996,-1.719 5.635,-1.719 6.783,-1.373 8,0 L 8,4 0,4 0,0 Z" style="fill:#cc9b7a;fill-opacity:1;fill-rule:nonzero;stroke:none"/></g><g id="g32" transform="translate(15.4443,22.0645)"><path id="path34" d="m 0,0 c 0,-1.448 -0.734,-2.622 -1.639,-2.622 -0.905,0 -1.639,1.174 -1.639,2.622 0,1.448 0.734,2.623 1.639,2.623 C -0.734,2.623 0,1.448 0,0" style="fill:#d5ab88;fill-opacity:1;fill-rule:nonzero;stroke:none"/></g><g id="g36" transform="translate(31.833,22.0645)"><path id="path38" d="m 0,0 c 0,-1.448 -0.733,-2.622 -1.639,-2.622 -0.905,0 -1.638,1.174 -1.638,2.622 0,1.448 0.733,2.623 1.638,2.623 C -0.733,2.623 0,1.448 0,0" style="fill:#d5ab88;fill-opacity:1;fill-rule:nonzero;stroke:none"/></g><g id="g40" transform="translate(13.4775,21.0405)"><path id="path42" d="m 0,0 c 0,5.589 3.816,10.121 8.523,10.121 4.707,0 8.522,-4.532 8.522,-10.121 0,-5.589 -3.815,-10.121 -8.522,-10.121 C 3.816,-10.121 0,-5.589 0,0" style="fill:#d5ab88;fill-opacity:1;fill-rule:nonzero;stroke:none"/></g><g id="g44" transform="translate(22,14.1982)"><path id="path46" d="m 0,0 c -2.754,0 -3.6,0.705 -3.741,0.848 -0.256,0.256 -0.256,0.671 0,0.927 0.248,0.248 0.645,0.254 0.902,0.023 C -2.787,1.761 -2.118,1.311 0,1.311 c 2.2,0 2.836,0.485 2.842,0.49 C 3.098,2.056 3.499,2.044 3.755,1.786 4.011,1.53 3.997,1.104 3.741,0.848 3.6,0.705 2.754,0 0,0" style="fill:#c1694f;fill-opacity:1;fill-rule:nonzero;stroke:none"/></g><g id="g48" transform="translate(22,34.5205)"><path id="path50" d="m 0,0 c 5.648,0 9.178,-4.168 9.178,-7.641 0,-3.473 -0.706,-4.863 -1.412,-3.473 -0.706,1.389 -1.412,2.778 -1.412,2.778 0,0 -4.236,0 -5.648,1.39 0,0 2.118,-4.168 -2.118,0 0,0 0.706,-2.779 -3.53,0.694 0,0 -2.118,-1.389 -2.824,-4.862 -0.196,-0.964 -1.412,0 -1.412,3.473 C -9.178,-4.168 -6.354,0 0,0" style="fill:#963b22;fill-opacity:1;fill-rule:nonzero;stroke:none"/></g><g id="g52" transform="translate(18,21)"><path id="path54" d="m 0,0 0,0 c -0.55,0 -1,0.45 -1,1 l 0,1 C -1,2.55 -0.55,3 0,3 0.55,3 1,2.55 1,2 L 1,1 C 1,0.45 0.55,0 0,0" style="fill:#662113;fill-opacity:1;fill-rule:nonzero;stroke:none"/></g><g id="g56" transform="translate(26,21)"><path id="path58" d="m 0,0 0,0 c -0.55,0 -1,0.45 -1,1 l 0,1 C -1,2.55 -0.55,3 0,3 0.55,3 1,2.55 1,2 L 1,1 C 1,0.45 0.55,0 0,0" style="fill:#662113;fill-opacity:1;fill-rule:nonzero;stroke:none"/></g><g id="g60" transform="translate(22.75,18.25)"><path id="path62" d="m 0,0 -1.5,0 c -0.413,0 -0.75,0.337 -0.75,0.75 0,0.413 0.337,0.75 0.75,0.75 L 0,1.5 C 0.413,1.5 0.75,1.163 0.75,0.75 0.75,0.337 0.413,0 0,0" style="fill:#c1694f;fill-opacity:1;fill-rule:nonzero;stroke:none"/></g><g id="g64" transform="translate(2,0)"><path id="path66" d="m 0,0 c 0,0 -2,0 -2,2 0,0.179 0.117,0.896 1,2 l 4,5 0,5 c 0,0 -2,0 -2,2 0,2 2,2 2,2 l 5,0 c 0,0 2,0 2,-2 0,-2 -2,-2 -2,-2 L 8,9 12,4 C 13.153,2.559 13,2.134 13,2 13,0 11,0 11,0 L 0,0 Z" style="fill:#e1e8ed;fill-opacity:1;fill-rule:nonzero;stroke:none"/></g><g id="g68" transform="translate(0.5312,1.7813)"><path id="path70" d="M 0,0 0.969,-1.312 13,-1.312 14,0.469 10.906,4.5 2.5,4.5 0,0.156" style="fill:#9266cc;fill-opacity:1;fill-rule:nonzero;stroke:none"/></g><g id="g72" transform="translate(8,25)"><path id="path74" d="m 0,0 c 0,-0.552 -0.447,-1 -1,-1 -0.552,0 -1,0.448 -1,1 0,0.552 0.448,1 1,1 0.553,0 1,-0.448 1,-1" style="fill:#9266cc;fill-opacity:1;fill-rule:nonzero;stroke:none"/></g><g id="g76" transform="translate(10,20)"><path id="path78" d="m 0,0 c 0,-0.552 -0.447,-1 -1,-1 -0.553,0 -1,0.448 -1,1 0,0.552 0.447,1 1,1 0.553,0 1,-0.448 1,-1" style="fill:#9266cc;fill-opacity:1;fill-rule:nonzero;stroke:none"/></g><g id="g80" transform="translate(7,21.5)"><path id="path82" d="M 0,0 C 0,-0.829 -0.671,-1.5 -1.5,-1.5 -2.329,-1.5 -3,-0.829 -3,0 -3,0.829 -2.329,1.5 -1.5,1.5 -0.671,1.5 0,0.829 0,0" style="fill:#9266cc;fill-opacity:1;fill-rule:nonzero;stroke:none"/></g><g id="g84" transform="translate(10,18)"><path id="path86" d="m 0,0 -5,0 c 0,0 -2,0 -2,-2 0,-2 2,-2 2,-2 l 0,-5 -4,-5 c -0.883,-1.104 -1,-1.821 -1,-2 0,-2 2,-2 2,-2 l 11,0 c 0,0 2,0 2,2 0,0.134 0.153,0.559 -1,2 l -4,5 0,5 c 0,0 2,0 2,2 C 2,0 0,0 0,0 M -0.008,-1 C 0.453,-1.013 1,-1.197 1,-2 1,-2.806 0.449,-2.988 0,-3 l -1,0 0,-1 0,-5 0,-0.351 0.219,-0.274 4,-5 c 0.732,-0.915 0.787,-1.249 0.787,-1.252 L 4,-15.959 4,-16 c 0,-0.806 -0.551,-0.988 -1,-1 l -10.988,0 c -0.462,0.012 -1.012,0.194 -1.013,0.966 0,0.005 0.063,0.51 0.782,1.409 l 4,5 L -4,-9.351 -4,-9 -4,-4 -4.014,-3.024 -4.988,-3 C -5.45,-2.988 -6,-2.806 -6,-2 c 0,0.806 0.55,0.988 1,1 l 4.992,0" style="fill:#a8bccc;fill-opacity:1;fill-rule:nonzero;stroke:none"/></g><g id="g88" transform="translate(19.0586,0)"><path id="path90" d="m 0,0 -1.059,9.219 c 0,0 1.411,-1.645 4,-1.645 2.59,0 4.219,1.645 4.219,1.645 L 5.937,0 3.021,0 0,0 Z" style="fill:#66757f;fill-opacity:1;fill-rule:nonzero;stroke:none"/></g><g id="g92" transform="translate(18.0811,10.75)"><path id="path94" d="m 0,0 c 0.566,-0.566 2.919,-10.75 2.919,-10.75 l -3.156,0 -1.704,2.562 1.704,2.835 -2.017,0.634 0.254,3.957 c 0,0 1.729,1.033 2,0.762" style="fill:#f5f8fa;fill-opacity:1;fill-rule:nonzero;stroke:none"/></g><g id="g96" transform="translate(25.9189,10.75)"><path id="path98" d="m 0,0 c -0.566,-0.566 -2.919,-10.75 -2.919,-10.75 l 3.156,0 1.704,2.562 -1.704,2.835 2.017,0.634 L 2,-0.762 C 2,-0.762 0.271,0.271 0,0" style="fill:#f5f8fa;fill-opacity:1;fill-rule:nonzero;stroke:none"/></g><g id="g100"><g id="g108"><g style="opacity:.39999402" id="g110" clip-path="url(#clipPath104)"><g id="g112" transform="translate(15,22)"><path id="path114" d="m 0,0 0,3 14,0 0,-5 -7,0 -7,0 0,2 z" style="fill:#fff;fill-opacity:1;fill-rule:nonzero;stroke:none"/></g></g></g></g><g id="g116" transform="translate(29,22)"><path id="path118" d="m 0,0 c 0,-1.325 -0.852,-2 -3,-2 -1.539,0 -2.804,1 -4,1 -1.196,0 -2.461,-1 -4,-1 -2.148,0 -3,0.675 -3,2 l 0,3 14,0 0,-3 z m 0,3.999 -14.001,0 C -15.001,3.999 -15,3 -15,3 l 0,-4 c 0,-1.461 2.333,-2 4,-2 1.667,0 2.599,1 4,1 1.401,0 2.333,-1 4,-1 1.667,0 4,0.539 4,2 L 1,3 C 1,4.001 0,3.999 0,3.999" style="fill:#f5f8fa;fill-opacity:1;fill-rule:nonzero;stroke:none"/></g></g></g></g></svg>