<svg xmlns="http://www.w3.org/2000/svg" xmlns:svg="http://www.w3.org/2000/svg" style="enable-background:new 0 0 45 45" id="svg2" version="1.1" viewBox="0 0 45 45" xml:space="preserve"><metadata id="metadata8"/><defs id="defs6"><clipPath id="clipPath20" clipPathUnits="userSpaceOnUse"><path id="path22" d="M 0,36 36,36 36,0 0,0 0,36 Z"/></clipPath></defs><g id="g10" transform="matrix(1.25,0,0,-1.25,0,45)"><g id="g12" transform="translate(7.9999,1)"><path id="path14" d="m 0,0 -3,0 1,9.712 3,0 L 0,0 Z" style="fill:#ffdc5d;fill-opacity:1;fill-rule:nonzero;stroke:none"/></g><g id="g16"><g id="g18" clip-path="url(#clipPath20)"><g id="g24" transform="translate(13.8754,2.208)"><path id="path26" d="m 0,0 -1.834,1.333 c 0,0 3.167,3.012 2.532,3.994 -0.637,0.982 -3.782,1.688 -3.782,1.688 l 1.918,2.306 c 0,0 3.957,-1.904 4.77,-3.333 C 4.43,4.537 0,0 0,0" style="fill:#ffdc5d;fill-opacity:1;fill-rule:nonzero;stroke:none"/></g><g id="g28" transform="translate(3.9999,0)"><path id="path30" d="M 0,0 0,1 C 0,1 0,2 2,2 4,2 4,1 4,1 L 4,0 0,0 Z" style="fill:#292f33;fill-opacity:1;fill-rule:nonzero;stroke:none"/></g><g id="g32" transform="translate(14.5531,0.5166)"><path id="path34" d="m 0,0 0.421,0.908 c 0,0 0.419,0.907 -1.396,1.747 C -2.788,3.496 -3.208,2.589 -3.208,2.589 L -3.628,1.682 0,0 Z" style="fill:#292f33;fill-opacity:1;fill-rule:nonzero;stroke:none"/></g><g id="g36" transform="translate(4.9999,9.7119)"><path id="path38" d="m 0,0 c -0.256,0 -0.512,0.098 -0.707,0.293 l -3,3 c -0.36,0.36 -0.392,0.934 -0.074,1.332 l 4,3.288 C 0.564,8.345 1.194,8.414 1.625,8.069 2.056,7.724 2.126,7.095 1.781,6.663 L -1.66,4.074 0.707,1.707 C 1.098,1.316 1.098,0.684 0.707,0.293 0.512,0.098 0.256,0 0,0" style="fill:#ffdc5d;fill-opacity:1;fill-rule:nonzero;stroke:none"/></g><g id="g40" transform="translate(14.9999,9.7119)"><path id="path42" d="m 0,0 c -0.256,0 -0.512,0.098 -0.707,0.293 -0.391,0.391 -0.391,1.023 0,1.414 L 1.66,4.074 -1.781,6.663 c -0.345,0.432 -0.275,1.061 0.157,1.406 0.43,0.345 1.06,0.276 1.405,-0.156 l 4,-3.288 C 4.1,4.227 4.067,3.653 3.707,3.293 l -3,-3 C 0.512,0.098 0.256,0 0,0" style="fill:#ffdc5d;fill-opacity:1;fill-rule:nonzero;stroke:none"/></g><g id="g44" transform="translate(15.9999,17)"><path id="path46" d="m 0,0 c 0,1.105 -0.896,2 -2,2 l -2,0 -4,0 -2,0 c -1.104,0 -2,-0.895 -2,-2 l 0,-1 2,0 0,-1.288 0,-1 0,-3 3,-2 2,0 3,2 0,3 0,1 0,1.288 2,0 0,1 z" style="fill:#292f33;fill-opacity:1;fill-rule:nonzero;stroke:none"/></g><g id="g48" transform="translate(11.9999,19)"><path id="path50" d="m 0,0 0,3 -4,0 0,-3 -1,0 0,-1 c 0,0 0,-3 3,-3 3,0 3,3 3,3 L 1,0 0,0 Z" style="fill:#ffdc5d;fill-opacity:1;fill-rule:nonzero;stroke:none"/></g><g id="g52" transform="translate(11.9999,22)"><path id="path54" d="M 0,0 -4,-0.019 -4,-4 c 0,0 2,-1 4,0 l 0,4 z" style="fill:#f9ca55;fill-opacity:1;fill-rule:nonzero;stroke:none"/></g><g id="g56" transform="translate(16.9999,26.999)"><path id="path58" d="m 0,0 c 0,3.314 -2.687,6.001 -6,6.001 -1.264,0 -2.435,-0.393 -3.402,-1.061 -0.197,0.03 -0.393,0.061 -0.598,0.061 -2.209,0 -4,-1.791 -4,-4 l 0,-6 2.422,0 C -11.846,-4.386 -12,-3.712 -12,-3 l 0,10e-4 0,2.106 c 2.989,0.609 3,3.894 3,3.894 0,0 0.019,-3.644 7,-3.968 L -2,-2.999 -2,-3 c 0,-0.712 -0.154,-1.386 -0.422,-1.999 L 0,-4.999 0,0 Z" style="fill:#ffac33;fill-opacity:1;fill-rule:nonzero;stroke:none"/></g><g id="g60" transform="translate(14.9999,24)"><path id="path62" d="M 0,0 0,2.032 C -6.981,2.356 -7,6 -7,6 -7,6 -7.011,2.715 -10,2.106 L -10,0 l 0,0 c 0,-0.713 0.154,-1.387 0.422,-2 0.772,-1.765 2.528,-3 4.578,-3 2.049,0 3.806,1.235 4.578,3 C -0.154,-1.387 0,-0.713 0,0 Z" style="fill:#ffdc5d;fill-opacity:1;fill-rule:nonzero;stroke:none"/></g><g id="g64" transform="translate(11.9999,21)"><path id="path66" d="m 0,0 -2,0 -2,0 c 0,0 0,-1 2,-1 2,0 2,1 2,1" style="fill:#df1f32;fill-opacity:1;fill-rule:nonzero;stroke:none"/></g><g id="g68" transform="translate(7.9999,24.5)"><path id="path70" d="M 0,0 C 0,-0.276 -0.224,-0.5 -0.5,-0.5 -0.776,-0.5 -1,-0.276 -1,0 -1,0.276 -0.776,0.5 -0.5,0.5 -0.224,0.5 0,0.276 0,0" style="fill:#662113;fill-opacity:1;fill-rule:nonzero;stroke:none"/></g><g id="g72" transform="translate(12.9999,24.5)"><path id="path74" d="M 0,0 C 0,-0.276 -0.224,-0.5 -0.5,-0.5 -0.776,-0.5 -1,-0.276 -1,0 -1,0.276 -0.776,0.5 -0.5,0.5 -0.224,0.5 0,0.276 0,0" style="fill:#662113;fill-opacity:1;fill-rule:nonzero;stroke:none"/></g><g id="g76" transform="translate(8.9999,23)"><path id="path78" d="M 0,0 1,0 2,0 C 2,0 1.999,-1 1,-1 0,-1 0,0 0,0" style="fill:#c1694f;fill-opacity:1;fill-rule:nonzero;stroke:none"/></g><g id="g80" transform="translate(4.6874,34.875)"><path id="path82" d="M 0,0 C 2.625,0.219 3.75,-2.875 3,-4.25 1.031,-4.25 -0.937,-2.438 0,0" style="fill:#292f33;fill-opacity:1;fill-rule:nonzero;stroke:none"/></g><g id="g84" transform="translate(14.6747,34.8125)"><path id="path86" d="m 0,0 c -2.625,0.219 -3.75,-2.875 -3,-4.25 1.969,0 3.937,1.812 3,4.25" style="fill:#292f33;fill-opacity:1;fill-rule:nonzero;stroke:none"/></g><g id="g88" transform="translate(7.3124,31.75)"><path id="path90" d="M 0,0 C 1.812,1.437 4.344,1.062 5.156,-0.156 5.187,-0.469 4.786,-1.334 4.469,-1.187 3.656,-0.812 2.281,-0.25 0.406,-1.125 0.312,-1.062 -0.035,-0.027 0,0" style="fill:#292f33;fill-opacity:1;fill-rule:nonzero;stroke:none"/></g><g id="g92" transform="translate(23.9999,1)"><path id="path94" d="m 0,0 -3,0 1,9.712 3,0 L 0,0 Z" style="fill:#ffdc5d;fill-opacity:1;fill-rule:nonzero;stroke:none"/></g><g id="g96" transform="translate(29.8749,2.208)"><path id="path98" d="m 0,0 -1.833,1.333 c 0,0 3.167,3.012 2.531,3.994 -0.636,0.982 -3.782,1.688 -3.782,1.688 l 1.918,2.306 c 0,0 3.958,-1.904 4.77,-3.333 C 4.43,4.537 0,0 0,0" style="fill:#ffdc5d;fill-opacity:1;fill-rule:nonzero;stroke:none"/></g><g id="g100" transform="translate(30.5526,0.5166)"><path id="path102" d="m 0,0 0.422,0.908 c 0,0 0.418,0.907 -1.397,1.747 C -2.787,3.496 -3.207,2.589 -3.207,2.589 L -3.627,1.682 0,0 Z" style="fill:#292f33;fill-opacity:1;fill-rule:nonzero;stroke:none"/></g><g id="g104" transform="translate(19.9999,0)"><path id="path106" d="M 0,0 0,1 C 0,1 0,2 2,2 4,2 4,1 4,1 L 4,0 0,0 Z" style="fill:#292f33;fill-opacity:1;fill-rule:nonzero;stroke:none"/></g><g id="g108" transform="translate(20.9999,9.7119)"><path id="path110" d="m 0,0 c -0.256,0 -0.512,0.098 -0.707,0.293 l -3,3 c -0.36,0.36 -0.392,0.934 -0.074,1.332 l 4,3.288 C 0.564,8.345 1.194,8.414 1.625,8.069 2.057,7.724 2.126,7.095 1.781,6.663 L -1.66,4.074 0.707,1.707 C 1.098,1.316 1.098,0.684 0.707,0.293 0.512,0.098 0.256,0 0,0" style="fill:#ffdc5d;fill-opacity:1;fill-rule:nonzero;stroke:none"/></g><g id="g112" transform="translate(30.9999,9.7119)"><path id="path114" d="m 0,0 c -0.256,0 -0.512,0.098 -0.707,0.293 -0.391,0.391 -0.391,1.023 0,1.414 L 1.66,4.074 -1.781,6.663 c -0.345,0.432 -0.276,1.061 0.156,1.406 0.431,0.345 1.061,0.276 1.406,-0.156 l 4,-3.288 C 4.1,4.227 4.067,3.653 3.707,3.293 l -3,-3 C 0.512,0.098 0.256,0 0,0" style="fill:#ffdc5d;fill-opacity:1;fill-rule:nonzero;stroke:none"/></g><g id="g116" transform="translate(31.9999,17)"><path id="path118" d="m 0,0 c 0,1.105 -0.896,2 -2,2 l -2,0 -4,0 -2,0 c -1.105,0 -2,-0.895 -2,-2 l 0,-1 2,0 0,-1.288 0,-1 0,-3 3,-2 2,0 3,2 0,3 0,1 0,1.288 2,0 0,1 z" style="fill:#292f33;fill-opacity:1;fill-rule:nonzero;stroke:none"/></g><g id="g120" transform="translate(27.9999,19)"><path id="path122" d="m 0,0 0,3 -4,0 0,-3 -1,0 0,-1 c 0,0 0,-3 3,-3 3,0 3,3 3,3 L 1,0 0,0 Z" style="fill:#ffdc5d;fill-opacity:1;fill-rule:nonzero;stroke:none"/></g><g id="g124" transform="translate(27.9999,22)"><path id="path126" d="M 0,0 -4,-0.019 -4,-4 c 0,0 2,-1 4,0 l 0,4 z" style="fill:#f9ca55;fill-opacity:1;fill-rule:nonzero;stroke:none"/></g><g id="g128" transform="translate(32.9999,26.999)"><path id="path130" d="m 0,0 c 0,3.314 -2.687,6.001 -6,6.001 -1.264,0 -2.435,-0.393 -3.402,-1.061 -0.197,0.03 -0.393,0.061 -0.598,0.061 -2.209,0 -4,-1.791 -4,-4 l 0,-6 2.422,0 C -11.846,-4.386 -12,-3.712 -12,-3 l 0,10e-4 0,2.106 c 2.989,0.609 3,3.894 3,3.894 0,0 0.019,-3.644 7,-3.968 L -2,-2.999 -2,-3 c 0,-0.712 -0.154,-1.386 -0.422,-1.999 L 0,-4.999 0,0 Z" style="fill:#ffac33;fill-opacity:1;fill-rule:nonzero;stroke:none"/></g><g id="g132" transform="translate(30.9999,24)"><path id="path134" d="M 0,0 0,2.032 C -6.981,2.356 -7,6 -7,6 -7,6 -7.011,2.715 -10,2.106 L -10,0 l 0,0 c 0,-0.713 0.154,-1.387 0.422,-2 0.772,-1.765 2.528,-3 4.578,-3 2.05,0 3.806,1.235 4.578,3 C -0.154,-1.387 0,-0.713 0,0 Z" style="fill:#ffdc5d;fill-opacity:1;fill-rule:nonzero;stroke:none"/></g><g id="g136" transform="translate(27.9999,21)"><path id="path138" d="m 0,0 -2,0 -2,0 c 0,0 0,-1 2,-1 2,0 2,1 2,1" style="fill:#df1f32;fill-opacity:1;fill-rule:nonzero;stroke:none"/></g><g id="g140" transform="translate(23.9999,24.5)"><path id="path142" d="M 0,0 C 0,-0.276 -0.224,-0.5 -0.5,-0.5 -0.776,-0.5 -1,-0.276 -1,0 -1,0.276 -0.776,0.5 -0.5,0.5 -0.224,0.5 0,0.276 0,0" style="fill:#662113;fill-opacity:1;fill-rule:nonzero;stroke:none"/></g><g id="g144" transform="translate(28.9999,24.5)"><path id="path146" d="M 0,0 C 0,-0.276 -0.224,-0.5 -0.5,-0.5 -0.776,-0.5 -1,-0.276 -1,0 -1,0.276 -0.776,0.5 -0.5,0.5 -0.224,0.5 0,0.276 0,0" style="fill:#662113;fill-opacity:1;fill-rule:nonzero;stroke:none"/></g><g id="g148" transform="translate(24.9999,23)"><path id="path150" d="M 0,0 1,0 2,0 C 2,0 2,-1 1,-1 0,-1 0,0 0,0" style="fill:#c1694f;fill-opacity:1;fill-rule:nonzero;stroke:none"/></g><g id="g152" transform="translate(20.7812,34.875)"><path id="path154" d="M 0,0 C 2.625,0.219 3.75,-2.875 3,-4.25 1.031,-4.25 -0.937,-2.438 0,0" style="fill:#292f33;fill-opacity:1;fill-rule:nonzero;stroke:none"/></g><g id="g156" transform="translate(30.7685,34.8125)"><path id="path158" d="m 0,0 c -2.625,0.219 -3.75,-2.875 -3,-4.25 1.969,0 3.937,1.812 3,4.25" style="fill:#292f33;fill-opacity:1;fill-rule:nonzero;stroke:none"/></g><g id="g160" transform="translate(23.4062,31.75)"><path id="path162" d="M 0,0 C 1.812,1.437 4.344,1.062 5.156,-0.156 5.187,-0.469 4.786,-1.334 4.469,-1.187 3.656,-0.812 2.281,-0.25 0.406,-1.125 0.312,-1.062 -0.035,-0.027 0,0" style="fill:#292f33;fill-opacity:1;fill-rule:nonzero;stroke:none"/></g></g></g></g></svg>