<svg xmlns="http://www.w3.org/2000/svg" xmlns:svg="http://www.w3.org/2000/svg" style="enable-background:new 0 0 45 45" id="svg2" version="1.1" viewBox="0 0 45 45" xml:space="preserve"><metadata id="metadata8"/><defs id="defs6"><clipPath id="clipPath16" clipPathUnits="userSpaceOnUse"><path id="path18" d="M 0,36 36,36 36,0 0,0 0,36 Z"/></clipPath></defs><g id="g10" transform="matrix(1.25,0,0,-1.25,0,45)"><g id="g12"><g id="g14" clip-path="url(#clipPath16)"><g id="g20" transform="translate(10.4999,33)"><path id="path22" d="M 0,0 C -1.187,0 -2.282,-0.379 -3.181,-1.018 -5.027,-1.114 -6.5,-2.629 -6.5,-4.5 c 0,-1.542 0.007,-3.484 2.038,-4.208 C -3.464,-10.094 -1.84,-11 0,-11 3.037,-11 5.5,-8.538 5.5,-5.501 5.5,-2.463 3.037,0 0,0" style="fill:#ffac33;fill-opacity:1;fill-rule:nonzero;stroke:none"/></g><g id="g24" transform="translate(7.9999,1)"><path id="path26" d="m 0,0 -3,0 1,9.712 3,0 L 0,0 Z" style="fill:#ffdc5d;fill-opacity:1;fill-rule:nonzero;stroke:none"/></g><g id="g28" transform="translate(13.8754,2.208)"><path id="path30" d="m 0,0 -1.834,1.333 c 0,0 3.167,3.012 2.532,3.994 -0.637,0.982 -3.782,1.688 -3.782,1.688 l 1.918,2.306 c 0,0 3.957,-1.904 4.77,-3.333 C 4.43,4.537 0,0 0,0" style="fill:#ffdc5d;fill-opacity:1;fill-rule:nonzero;stroke:none"/></g><g id="g32" transform="translate(3.9999,0)"><path id="path34" d="M 0,0 0,1 C 0,1 0,2 2,2 4,2 4,1 4,1 L 4,0 0,0 Z" style="fill:#292f33;fill-opacity:1;fill-rule:nonzero;stroke:none"/></g><g id="g36" transform="translate(14.5531,0.5166)"><path id="path38" d="m 0,0 0.421,0.908 c 0,0 0.419,0.907 -1.396,1.747 C -2.788,3.496 -3.208,2.589 -3.208,2.589 L -3.628,1.682 0,0 Z" style="fill:#292f33;fill-opacity:1;fill-rule:nonzero;stroke:none"/></g><g id="g40" transform="translate(4.9999,9.7119)"><path id="path42" d="m 0,0 c -0.256,0 -0.512,0.098 -0.707,0.293 l -3,3 c -0.36,0.36 -0.392,0.934 -0.074,1.332 l 4,3.288 C 0.564,8.345 1.194,8.414 1.625,8.069 2.056,7.724 2.126,7.095 1.781,6.663 L -1.66,4.074 0.707,1.707 C 1.098,1.316 1.098,0.684 0.707,0.293 0.512,0.098 0.256,0 0,0" style="fill:#ffdc5d;fill-opacity:1;fill-rule:nonzero;stroke:none"/></g><g id="g44" transform="translate(14.9999,9.7119)"><path id="path46" d="m 0,0 c -0.256,0 -0.512,0.098 -0.707,0.293 -0.391,0.391 -0.391,1.023 0,1.414 L 1.66,4.074 -1.781,6.663 c -0.345,0.432 -0.275,1.061 0.157,1.406 0.43,0.345 1.06,0.276 1.405,-0.156 l 4,-3.288 C 4.1,4.227 4.067,3.653 3.707,3.293 l -3,-3 C 0.512,0.098 0.256,0 0,0" style="fill:#ffdc5d;fill-opacity:1;fill-rule:nonzero;stroke:none"/></g><g id="g48" transform="translate(15.9999,17)"><path id="path50" d="m 0,0 c 0,1.105 -0.896,2 -2,2 l -2,0 -4,0 -2,0 c -1.104,0 -2,-0.895 -2,-2 l 0,-1 2,0 0,-5.288 3,-2 2,0 3,2 0,5.288 2,0 0,1 z" style="fill:#292f33;fill-opacity:1;fill-rule:nonzero;stroke:none"/></g><g id="g52" transform="translate(23.9999,1)"><path id="path54" d="m 0,0 -3,0 1,9.712 3,0 L 0,0 Z" style="fill:#ffdc5d;fill-opacity:1;fill-rule:nonzero;stroke:none"/></g><g id="g56" transform="translate(29.8749,2.208)"><path id="path58" d="m 0,0 -1.833,1.333 c 0,0 3.167,3.012 2.531,3.994 -0.636,0.982 -3.782,1.688 -3.782,1.688 l 1.918,2.306 c 0,0 3.958,-1.904 4.77,-3.333 C 4.43,4.537 0,0 0,0" style="fill:#ffdc5d;fill-opacity:1;fill-rule:nonzero;stroke:none"/></g><g id="g60" transform="translate(30.5526,0.5166)"><path id="path62" d="m 0,0 0.422,0.908 c 0,0 0.418,0.907 -1.397,1.747 C -2.787,3.496 -3.207,2.589 -3.207,2.589 L -3.627,1.682 0,0 Z" style="fill:#292f33;fill-opacity:1;fill-rule:nonzero;stroke:none"/></g><g id="g64" transform="translate(19.9999,0)"><path id="path66" d="M 0,0 0,1 C 0,1 0,2 2,2 4,2 4,1 4,1 L 4,0 0,0 Z" style="fill:#292f33;fill-opacity:1;fill-rule:nonzero;stroke:none"/></g><g id="g68" transform="translate(20.9999,9.7119)"><path id="path70" d="m 0,0 c -0.256,0 -0.512,0.098 -0.707,0.293 l -3,3 c -0.36,0.36 -0.392,0.934 -0.074,1.332 l 4,3.288 C 0.564,8.345 1.194,8.414 1.625,8.069 2.057,7.724 2.126,7.095 1.781,6.663 L -1.66,4.074 0.707,1.707 C 1.098,1.316 1.098,0.684 0.707,0.293 0.512,0.098 0.256,0 0,0" style="fill:#ffdc5d;fill-opacity:1;fill-rule:nonzero;stroke:none"/></g><g id="g72" transform="translate(30.9999,9.7119)"><path id="path74" d="m 0,0 c -0.256,0 -0.512,0.098 -0.707,0.293 -0.391,0.391 -0.391,1.023 0,1.414 L 1.66,4.074 -1.781,6.663 c -0.345,0.432 -0.276,1.061 0.156,1.406 0.431,0.345 1.061,0.276 1.406,-0.156 l 4,-3.288 C 4.1,4.227 4.067,3.653 3.707,3.293 l -3,-3 C 0.512,0.098 0.256,0 0,0" style="fill:#ffdc5d;fill-opacity:1;fill-rule:nonzero;stroke:none"/></g><g id="g76" transform="translate(27.9999,19)"><path id="path78" d="m 0,0 0,3 -4,0 0,-3 -1,0 0,-1 c 0,0 0,-3 3,-3 3,0 3,3 3,3 L 1,0 0,0 Z" style="fill:#ffdc5d;fill-opacity:1;fill-rule:nonzero;stroke:none"/></g><g id="g80" transform="translate(29.9999,19)"><path id="path82" d="m 0,0 -2,0 -4,0 -2,0 c -1.104,0 -2,-0.896 -2,-2 l 0,-1 2,0 0,-5.288 3,-2 2,0 3,2 0,5.288 2,0 0,1 C 2,-0.896 1.104,0 0,0" style="fill:#292f33;fill-opacity:1;fill-rule:nonzero;stroke:none"/></g><g id="g84" transform="translate(14.8749,34.8125)"><path id="path86" d="m 0,0 c -1.763,0.147 -2.846,-1.201 -3.142,-2.519 -0.982,0.51 -2.456,0.544 -3.736,-0.164 -0.216,1.385 -1.319,2.901 -3.185,2.745 -0.937,-2.437 1.032,-4.249 3.001,-4.249 1.875,0.874 3.249,0.312 4.062,-0.063 1.969,0 3.937,1.812 3,4.25" style="fill:#292f33;fill-opacity:1;fill-rule:nonzero;stroke:none"/></g><g id="g88" transform="translate(7.9999,21)"><path id="path90" d="m 0,0 0,-3 c 0,-1.105 0.895,-2 2,-2 1.104,0 2,0.895 2,2 L 4,0 0,0 Z" style="fill:#ffdc5d;fill-opacity:1;fill-rule:nonzero;stroke:none"/></g><g id="g92" transform="translate(25,9)"><path id="path94" d="M 0,0 -0.344,-3.219 -3.656,-2.875 -3,1.712 0,0 Z" style="fill:#292f33;fill-opacity:1;fill-rule:nonzero;stroke:none"/></g><g id="g96" transform="translate(9,9)"><path id="path98" d="M 0,0 -0.344,-3.219 -3.656,-2.875 -3,1.712 0,0 Z" style="fill:#292f33;fill-opacity:1;fill-rule:nonzero;stroke:none"/></g><g id="g100" transform="translate(13.134,11.3814)"><path id="path102" d="M 0,0 2.631,-1.326 1.275,-4.036 -2.134,-2.669 0,0 Z" style="fill:#292f33;fill-opacity:1;fill-rule:nonzero;stroke:none"/></g><g id="g104" transform="translate(29.134,11.3814)"><path id="path106" d="M 0,0 2.631,-1.326 1.275,-4.036 -2.134,-2.669 0,0 Z" style="fill:#292f33;fill-opacity:1;fill-rule:nonzero;stroke:none"/></g><g id="g108" transform="translate(11.9999,22)"><path id="path110" d="M 0,0 -4,-0.019 -4,-4 c 0,0 2,-1 4,0 l 0,4 z" style="fill:#f9ca55;fill-opacity:1;fill-rule:nonzero;stroke:none"/></g><g id="g112" transform="translate(14.9999,30)"><path id="path114" d="m 0,0 -10,0 0,-6 0,-0.001 c 0,-2.762 2.238,-4.999 5,-4.999 2.762,0 5,2.237 5,4.999 L 0,-6 0,0 Z" style="fill:#ffdc5d;fill-opacity:1;fill-rule:nonzero;stroke:none"/></g><g id="g116" transform="translate(7.9999,30)"><path id="path118" d="m 0,0 -3,0 0,-4 c 2.333,0 2.85,2.412 2.965,3.488 C 0.004,-1.588 0.779,-4 7,-4 L 7,0 0,0 Z" style="fill:#ffac33;fill-opacity:1;fill-rule:nonzero;stroke:none"/></g><g id="g120" transform="translate(7.9999,24.5)"><path id="path122" d="M 0,0 C 0,-0.276 -0.224,-0.5 -0.5,-0.5 -0.776,-0.5 -1,-0.276 -1,0 -1,0.276 -0.776,0.5 -0.5,0.5 -0.224,0.5 0,0.276 0,0" style="fill:#662113;fill-opacity:1;fill-rule:nonzero;stroke:none"/></g><g id="g124" transform="translate(12.9999,24.5)"><path id="path126" d="M 0,0 C 0,-0.276 -0.224,-0.5 -0.5,-0.5 -0.776,-0.5 -1,-0.276 -1,0 -1,0.276 -0.776,0.5 -0.5,0.5 -0.224,0.5 0,0.276 0,0" style="fill:#662113;fill-opacity:1;fill-rule:nonzero;stroke:none"/></g><g id="g128" transform="translate(8.9999,23)"><path id="path130" d="M 0,0 1,0 2,0 C 2,0 1.999,-1 1,-1 0,-1 0,0 0,0" style="fill:#c1694f;fill-opacity:1;fill-rule:nonzero;stroke:none"/></g><g id="g132" transform="translate(11.9999,21)"><path id="path134" d="m 0,0 -2,0 -2,0 c 0,0 0,-1 2,-1 2,0 2,1 2,1" style="fill:#c1694f;fill-opacity:1;fill-rule:nonzero;stroke:none"/></g><g id="g136" transform="translate(24,21)"><path id="path138" d="m 0,0 0,-3 c 0,-1.105 0.896,-2 2,-2 1.105,0 2,0.895 2,2 L 4,0 0,0 Z" style="fill:#ffdc5d;fill-opacity:1;fill-rule:nonzero;stroke:none"/></g><g id="g140" transform="translate(28,22)"><path id="path142" d="M 0,0 -4,-0.019 -4,-4 c 0,0 2,-1 4,0 l 0,4 z" style="fill:#f9ca55;fill-opacity:1;fill-rule:nonzero;stroke:none"/></g><g id="g144" transform="translate(26.4999,33)"><path id="path146" d="M 0,0 C -1.187,0 -2.282,-0.379 -3.181,-1.018 -5.027,-1.114 -6.5,-2.629 -6.5,-4.5 c 0,-1.542 0.007,-3.484 2.038,-4.208 C -3.464,-10.094 -1.84,-11 0,-11 3.037,-11 5.5,-8.538 5.5,-5.501 5.5,-2.463 3.037,0 0,0" style="fill:#ffac33;fill-opacity:1;fill-rule:nonzero;stroke:none"/></g><g id="g148" transform="translate(30.9999,30)"><path id="path150" d="m 0,0 -10,0 0,-6 0,-0.001 c 0,-2.762 2.238,-4.999 5,-4.999 2.762,0 5,2.237 5,4.999 L 0,-6 0,0 Z" style="fill:#ffdc5d;fill-opacity:1;fill-rule:nonzero;stroke:none"/></g><g id="g152" transform="translate(30.8749,34.8125)"><path id="path154" d="m 0,0 c -1.763,0.147 -2.846,-1.201 -3.142,-2.519 -0.982,0.51 -2.456,0.544 -3.736,-0.164 -0.216,1.385 -1.319,2.901 -3.185,2.745 -0.937,-2.437 1.032,-4.249 3.001,-4.249 1.875,0.874 3.249,0.312 4.062,-0.063 1.969,0 3.937,1.812 3,4.25" style="fill:#292f33;fill-opacity:1;fill-rule:nonzero;stroke:none"/></g><g id="g156" transform="translate(23.9999,30)"><path id="path158" d="m 0,0 -3,0 0,-4 c 2.333,0 2.85,2.412 2.965,3.488 C 0.004,-1.588 0.779,-4 7,-4 L 7,0 0,0 Z" style="fill:#ffac33;fill-opacity:1;fill-rule:nonzero;stroke:none"/></g><g id="g160" transform="translate(23.9999,24.5)"><path id="path162" d="M 0,0 C 0,-0.276 -0.224,-0.5 -0.5,-0.5 -0.776,-0.5 -1,-0.276 -1,0 -1,0.276 -0.776,0.5 -0.5,0.5 -0.224,0.5 0,0.276 0,0" style="fill:#662113;fill-opacity:1;fill-rule:nonzero;stroke:none"/></g><g id="g164" transform="translate(28.9999,24.5)"><path id="path166" d="M 0,0 C 0,-0.276 -0.224,-0.5 -0.5,-0.5 -0.776,-0.5 -1,-0.276 -1,0 -1,0.276 -0.776,0.5 -0.5,0.5 -0.224,0.5 0,0.276 0,0" style="fill:#662113;fill-opacity:1;fill-rule:nonzero;stroke:none"/></g><g id="g168" transform="translate(24.9999,23)"><path id="path170" d="M 0,0 1,0 2,0 C 2,0 2,-1 1,-1 0,-1 0,0 0,0" style="fill:#c1694f;fill-opacity:1;fill-rule:nonzero;stroke:none"/></g><g id="g172" transform="translate(27.9999,21)"><path id="path174" d="m 0,0 -2,0 -2,0 c 0,0 0,-1 2,-1 2,0 2,1 2,1" style="fill:#c1694f;fill-opacity:1;fill-rule:nonzero;stroke:none"/></g></g></g></g></svg>