<svg xmlns="http://www.w3.org/2000/svg" xmlns:svg="http://www.w3.org/2000/svg" style="enable-background:new 0 0 45 45" id="svg2" version="1.1" viewBox="0 0 45 45" xml:space="preserve"><metadata id="metadata8"/><defs id="defs6"><clipPath id="clipPath16" clipPathUnits="userSpaceOnUse"><path id="path18" d="M 0,0 36,0 36,36 0,36 0,0 Z"/></clipPath></defs><g id="g10" transform="matrix(1.25,0,0,-1.25,0,45)"><g id="g12"><g id="g14" clip-path="url(#clipPath16)"><g id="g20" transform="translate(35,0)"><path id="path22" d="M 0,0 0,3.5 C 0,6.814 -3.686,9 -7,9 l -12,0 c -3.313,0 -7,-2.186 -7,-5.5 L -26,0 0,0 Z" style="fill:#292f33;fill-opacity:1;fill-rule:nonzero;stroke:none"/></g><g id="g24" transform="translate(18.3281,8.9805)"><path id="path26" d="m 0,0 c 1.466,-1.065 2.964,-1.98 3.672,-1.98 0.708,0 2.194,0.915 3.66,1.98 l 0,3.205 L 0,3.205 0,0 Z" style="fill:#d5ab88;fill-opacity:1;fill-rule:nonzero;stroke:none"/></g><g id="g28" transform="translate(18.3213,10.8213)"><path id="path30" d="m 0,0 c 1.023,-1.155 2.291,-1.468 3.669,-1.468 1.379,0 2.647,0.313 3.67,1.468 l 0,2.936 L 0,2.936 0,0 Z" style="fill:#cc9b7a;fill-opacity:1;fill-rule:nonzero;stroke:none"/></g><g id="g32" transform="translate(18.8691,30.6631)"><path id="path34" d="M 0,0 C 0,1.433 1.434,2.594 3.202,2.594 4.971,2.594 6.404,1.433 6.404,0 6.404,-1.433 4.971,-2.594 3.202,-2.594 1.434,-2.594 0,-1.433 0,0" style="fill:#6d6e71;fill-opacity:1;fill-rule:nonzero;stroke:none"/></g><g id="g36" transform="translate(31.7988,19.6382)"><path id="path38" d="m 0,0 c 0,1.388 -0.683,2.511 -1.539,2.581 -0.89,4.841 -4.213,8.444 -8.188,8.444 -3.976,0 -7.3,-3.603 -8.188,-8.444 -0.858,-0.07 -1.54,-1.193 -1.54,-2.581 0,-1.396 0.691,-2.527 1.555,-2.583 0.913,-4.516 4.22,-7.145 8.173,-7.145 3.952,0 7.258,2.629 8.172,7.145 C -0.691,-2.527 0,-1.396 0,0" style="fill:#d5ab88;fill-opacity:1;fill-rule:nonzero;stroke:none"/></g><g id="g40" transform="translate(22.0713,12.7305)"><path id="path42" d="M 0,0 C -1.634,0 -2.266,0.488 -2.376,0.586 -2.644,0.824 -2.668,1.234 -2.43,1.502 -2.2,1.763 -1.806,1.793 -1.538,1.575 -1.499,1.55 -1.084,1.297 0,1.297 1.136,1.297 1.537,1.574 1.541,1.578 1.81,1.816 2.206,1.779 2.443,1.512 2.682,1.244 2.645,0.824 2.376,0.586 2.267,0.488 1.633,0 0,0" style="fill:#df1f32;fill-opacity:1;fill-rule:nonzero;stroke:none"/></g><g id="g44" transform="translate(22.7197,15)"><path id="path46" d="m 0,0 -1.297,0 c -0.357,0 -0.648,0.142 -0.648,0.5 0,0.358 0.291,0.5 0.648,0.5 L 0,1 C 0.358,1 0.649,0.858 0.649,0.5 0.649,0.142 0.358,0 0,0" style="fill:#c1694f;fill-opacity:1;fill-rule:nonzero;stroke:none"/></g><g id="g48" transform="translate(31.7988,25.4751)"><path id="path50" d="m 0,0 c -1.297,4.54 -5.187,5.837 -7.255,5.837 -1.176,0 -2.472,-0.649 -2.472,-0.649 0,0 -1.297,0.649 -2.594,0.649 -1.946,0 -5.837,-1.297 -7.134,-5.837 -1.069,-3.741 1.297,-7.134 1.297,-7.134 0,1.946 1.297,5.837 4.539,5.837 3.243,0 3.892,2.594 3.892,2.594 0,0 0.509,-2.594 3.752,-2.594 3.243,0 4.678,-3.891 4.678,-5.837 0,0 2.366,3.393 1.297,7.134" style="fill:#808285;fill-opacity:1;fill-rule:nonzero;stroke:none"/></g><g id="g52" transform="translate(31.7988,17.6924)"><path id="path54" d="m 0,0 c 0,-0.357 -0.29,-0.648 -0.648,-0.648 -0.359,0 -0.649,0.291 -0.649,0.648 0,0.358 0.29,0.649 0.649,0.649 C -0.29,0.649 0,0.358 0,0" style="fill:#aa8dd8;fill-opacity:1;fill-rule:nonzero;stroke:none"/></g><g id="g56" transform="translate(13.6406,17.6924)"><path id="path58" d="m 0,0 c 0,0.358 -0.29,0.649 -0.649,0.649 -0.358,0 -0.648,-0.291 -0.648,-0.649 0,-0.357 0.29,-0.648 0.648,-0.648 C -0.29,-0.648 0,-0.357 0,0" style="fill:#aa8dd8;fill-opacity:1;fill-rule:nonzero;stroke:none"/></g><g id="g60" transform="translate(19.5,21)"><path id="path62" d="M 0,0 -2,0 C -2.275,0 -2.5,0.225 -2.5,0.5 -2.5,0.775 -2.275,1 -2,1 L 0,1 C 0.275,1 0.5,0.775 0.5,0.5 0.5,0.225 0.275,0 0,0" style="fill:#808285;fill-opacity:1;fill-rule:nonzero;stroke:none"/></g><g id="g64" transform="translate(26.5,21)"><path id="path66" d="M 0,0 -2,0 C -2.275,0 -2.5,0.225 -2.5,0.5 -2.5,0.775 -2.275,1 -2,1 L 0,1 C 0.275,1 0.5,0.775 0.5,0.5 0.5,0.225 0.275,0 0,0" style="fill:#808285;fill-opacity:1;fill-rule:nonzero;stroke:none"/></g><g id="g68" transform="translate(18.5,17.75)"><path id="path70" d="m 0,0 0,0 c -0.413,0 -0.75,0.337 -0.75,0.75 l 0,1 c 0,0.413 0.337,0.75 0.75,0.75 0.413,0 0.75,-0.337 0.75,-0.75 l 0,-1 C 0.75,0.337 0.413,0 0,0" style="fill:#662113;fill-opacity:1;fill-rule:nonzero;stroke:none"/></g><g id="g72" transform="translate(25.5,17.75)"><path id="path74" d="m 0,0 0,0 c -0.413,0 -0.75,0.337 -0.75,0.75 l 0,1 c 0,0.413 0.337,0.75 0.75,0.75 0.413,0 0.75,-0.337 0.75,-0.75 l 0,-1 C 0.75,0.337 0.413,0 0,0" style="fill:#662113;fill-opacity:1;fill-rule:nonzero;stroke:none"/></g><g id="g76" transform="translate(18,10)"><path id="path78" d="m 0,0 c 0.548,-0.379 4,-3 4,-3 0,0 -3.333,-3.333 -4,-3 -0.667,0.333 -1.083,4.333 -1,5 0.083,0.667 0.458,1.375 1,1" style="fill:#f5f8fa;fill-opacity:1;fill-rule:nonzero;stroke:none"/></g><g id="g80" transform="translate(25.9893,10)"><path id="path82" d="m 0,0 c -0.548,-0.379 -4,-3 -4,-3 0,0 3.333,-3.333 4,-3 0.667,0.333 1.083,4.333 1,5 -0.083,0.667 -0.458,1.375 -1,1" style="fill:#f5f8fa;fill-opacity:1;fill-rule:nonzero;stroke:none"/></g><g id="g84" transform="translate(12.083,2.6592)"><path id="path86" d="m 0,0 c 0.251,0 0.401,-2.659 0.401,-2.659 l -0.956,0 C -0.555,-2.659 -0.362,0 0,0" style="fill:#66757f;fill-opacity:1;fill-rule:nonzero;stroke:none"/></g><g id="g88" transform="translate(15.083,2.6592)"><path id="path90" d="m 0,0 c 0.251,0 0.401,-2.659 0.401,-2.659 l -0.956,0 C -0.555,-2.659 -0.362,0 0,0" style="fill:#66757f;fill-opacity:1;fill-rule:nonzero;stroke:none"/></g><g id="g92" transform="translate(31.9287,2.6592)"><path id="path94" d="m 0,0 c -0.251,0 -0.401,-2.659 -0.401,-2.659 l 0.956,0 C 0.555,-2.659 0.361,0 0,0" style="fill:#66757f;fill-opacity:1;fill-rule:nonzero;stroke:none"/></g><g id="g96" transform="translate(28.9287,2.6592)"><path id="path98" d="m 0,0 c -0.251,0 -0.401,-2.659 -0.401,-2.659 l 0.956,0 C 0.555,-2.659 0.361,0 0,0" style="fill:#66757f;fill-opacity:1;fill-rule:nonzero;stroke:none"/></g><g id="g100" transform="translate(7.3818,0)"><path id="path102" d="m 0,0 1.71,0 -3.667,9.707 c -0.155,0.412 -0.619,0.621 -1.031,0.466 -0.411,-0.156 -0.621,-0.62 -0.465,-1.031 L 0,0 Z" style="fill:#662113;fill-opacity:1;fill-rule:nonzero;stroke:none"/></g><g id="g104" transform="translate(7.8535,12.335)"><path id="path106" d="M 0,0 C 0.468,-1.24 0.178,-2.498 -0.649,-2.812 -1.475,-3.123 -2.525,-2.371 -2.994,-1.131 -3.462,0.108 -3.172,1.367 -2.345,1.68 -1.518,1.992 -0.468,1.24 0,0" style="fill:#c1694f;fill-opacity:1;fill-rule:nonzero;stroke:none"/></g><g id="g108" transform="translate(5.8633,9.3027)"><path id="path110" d="m 0,0 -1.996,-0.754 c -1.097,-0.415 -2.335,0.144 -2.749,1.241 -0.415,1.099 0.144,2.336 1.242,2.749 l 1.995,0.755 C -0.41,4.406 0.827,3.847 1.242,2.75 1.656,1.651 1.098,0.415 0,0" style="fill:#662113;fill-opacity:1;fill-rule:nonzero;stroke:none"/></g><g id="g112" transform="translate(3.3633,10.6387)"><path id="path114" d="M 0,0 C 0.468,-1.24 0.178,-2.498 -0.649,-2.812 -1.475,-3.123 -2.525,-2.371 -2.994,-1.131 -3.462,0.108 -3.172,1.367 -2.345,1.68 -1.518,1.992 -0.468,1.24 0,0" style="fill:#c1694f;fill-opacity:1;fill-rule:nonzero;stroke:none"/></g><g id="g116" transform="translate(11.3179,0)"><path id="path118" d="M 0,0 -0.466,1.588 C -0.829,2.827 -2.139,3.543 -3.377,3.18 L -4.632,2.812 C -5.837,2.458 -6.539,1.208 -6.242,0 L 0,0 Z" style="fill:#d5ab88;fill-opacity:1;fill-rule:nonzero;stroke:none"/></g></g></g></g></svg>