<svg xmlns="http://www.w3.org/2000/svg" xmlns:svg="http://www.w3.org/2000/svg" style="enable-background:new 0 0 45 45" id="svg2" version="1.1" viewBox="0 0 45 45" xml:space="preserve"><metadata id="metadata8"/><defs id="defs6"><clipPath id="clipPath16" clipPathUnits="userSpaceOnUse"><path id="path18" d="M 0,0 36,0 36,36 0,36 0,0 Z"/></clipPath><clipPath id="clipPath72" clipPathUnits="userSpaceOnUse"><path id="path74" d="M 0,36 36,36 36,0 0,0 0,36 Z"/></clipPath></defs><g id="g10" transform="matrix(1.25,0,0,-1.25,0,45)"><g id="g12"><g id="g14" clip-path="url(#clipPath16)"><g id="g20" transform="translate(35,0)"><path id="path22" d="m 0,0 0,7 c 0,3.314 -3.686,5.5 -7,5.5 l -12,0 c -3.313,0 -7,-2.186 -7,-5.5 l 0,-7 26,0 z" style="fill:#9266cc;fill-opacity:1;fill-rule:nonzero;stroke:none"/></g><g id="g24" transform="translate(21.9443,34.4312)"><path id="path26" d="m 0,0 c 4.105,0 10.948,-2.053 10.948,-10.948 0,-8.895 0,-10.948 -2.053,-10.948 -2.053,0 -4.79,2.053 -8.895,2.053 -4.105,0 -6.784,-2.053 -8.895,-2.053 -2.287,0 -2.053,8.211 -2.053,10.948 C -10.948,-2.053 -4.105,0 0,0" style="fill:#ffe51e;fill-opacity:1;fill-rule:nonzero;stroke:none"/></g><g id="g28" transform="translate(18.3281,12.4805)"><path id="path30" d="m 0,0 c 0,-1.48 2.172,-1.98 3.672,-1.98 1.5,0 3.66,0.5 3.66,1.98 l 0,3.205 L 0,3.205 0,0 Z" style="fill:#f3d2a2;fill-opacity:1;fill-rule:nonzero;stroke:none"/></g><g id="g32" transform="translate(18.3213,14.3213)"><path id="path34" d="m 0,0 c 1.023,-1.155 2.291,-1.468 3.669,-1.468 1.379,0 2.647,0.313 3.67,1.468 l 0,2.936 L 0,2.936 0,0 Z" style="fill:#e2c196;fill-opacity:1;fill-rule:nonzero;stroke:none"/></g><g id="g36" transform="translate(13.7339,23.7827)"><path id="path38" d="m 0,0 c 0,5.834 3.676,10.563 8.21,10.563 4.535,0 8.211,-4.729 8.211,-10.563 0,-5.833 -3.676,-10.286 -8.211,-10.286 C 3.676,-10.286 0,-5.833 0,0" style="fill:#f3d2a2;fill-opacity:1;fill-rule:nonzero;stroke:none"/></g><g id="g40" transform="translate(21.9443,15.957)"><path id="path42" d="m 0,0 c -1.605,0 -2.446,0.794 -2.536,0.885 -0.268,0.266 -0.268,0.7 0,0.967 0.265,0.264 0.692,0.266 0.96,0.006 C -1.541,1.826 -1.023,1.367 0,1.367 1.039,1.367 1.557,1.84 1.577,1.859 1.851,2.115 2.28,2.107 2.54,1.84 2.8,1.571 2.8,1.148 2.536,0.885 2.446,0.794 1.606,0 0,0" style="fill:#df1f32;fill-opacity:1;fill-rule:nonzero;stroke:none"/></g><g id="g44" transform="translate(11.7251,20.5)"><path id="path46" d="m 0,0 c -0.021,1 -0.044,0.224 -0.044,0.465 0,3.422 2.053,-0.494 2.053,1.943 0,2.439 1.368,2.683 2.736,4.051 0.685,0.685 2.053,2.026 2.053,2.026 0,0 3.421,-2.067 6.158,-2.067 2.737,0 5.474,-1.375 5.474,-4.112 0,-2.737 2.053,1.584 2.053,-1.837 C 20.483,0.225 20.46,1 20.443,0 l 0.718,0 c 0.007,2 0.007,1.924 0.007,3.202 0,8.895 -6.843,12.207 -10.949,12.207 C 6.114,15.409 -0.728,12.152 -0.728,3.257 -0.728,2.464 -0.748,2 -0.72,0 L 0,0 Z" style="fill:#ffe51e;fill-opacity:1;fill-rule:nonzero;stroke:none"/></g><g id="g48" transform="translate(18.6084,21.6138)"><path id="path50" d="m 0,0 0,0 c -0.465,0 -0.846,0.381 -0.846,0.846 l 0,0.845 c 0,0.465 0.381,0.846 0.846,0.846 0.465,0 0.847,-0.381 0.847,-0.846 l 0,-0.845 C 0.847,0.381 0.465,0 0,0" style="fill:#662113;fill-opacity:1;fill-rule:nonzero;stroke:none"/></g><g id="g52" transform="translate(25.373,21.6138)"><path id="path54" d="m 0,0 0,0 c -0.465,0 -0.846,0.381 -0.846,0.846 l 0,0.845 c 0,0.465 0.381,0.846 0.846,0.846 0.465,0 0.846,-0.381 0.846,-0.846 l 0,-0.845 C 0.846,0.381 0.465,0 0,0" style="fill:#662113;fill-opacity:1;fill-rule:nonzero;stroke:none"/></g><g id="g56" transform="translate(22.8369,19)"><path id="path58" d="m 0,0 -1.691,0 c -0.234,0 -0.423,0.189 -0.423,0.423 l 0,0.153 C -2.114,0.81 -1.925,1 -1.691,1 L 0,1 C 0.232,1 0.423,0.81 0.423,0.576 l 0,-0.153 C 0.423,0.189 0.232,0 0,0" style="fill:#c1694f;fill-opacity:1;fill-rule:nonzero;stroke:none"/></g><g id="g60" transform="translate(15.4443,22.5645)"><path id="path62" d="m 0,0 c 0,-1.448 -0.734,-2.622 -1.639,-2.622 -0.905,0 -1.639,1.174 -1.639,2.622 0,1.448 0.734,2.623 1.639,2.623 C -0.734,2.623 0,1.448 0,0" style="fill:#f3d2a2;fill-opacity:1;fill-rule:nonzero;stroke:none"/></g><g id="g64" transform="translate(31.833,22.5645)"><path id="path66" d="m 0,0 c 0,-1.448 -0.733,-2.622 -1.639,-2.622 -0.905,0 -1.638,1.174 -1.638,2.622 0,1.448 0.733,2.623 1.638,2.623 C -0.733,2.623 0,1.448 0,0" style="fill:#f3d2a2;fill-opacity:1;fill-rule:nonzero;stroke:none"/></g></g></g><g id="g68"><g id="g70" clip-path="url(#clipPath72)"><g id="g76" transform="translate(33,1)"><path id="path78" d="m 0,0 c 0,-0.553 -0.447,-1 -1,-1 l -10,0 c -0.553,0 -1,0.447 -1,1 0,0.553 0.447,1 1,1 L -1,1 C -0.447,1 0,0.553 0,0" style="fill:#e1e8ed;fill-opacity:1;fill-rule:nonzero;stroke:none"/></g><g id="g80" transform="translate(20.2402,14)"><path id="path82" d="m 0,0 -16.481,0 c -1.524,0 -3.478,-0.771 -2.478,-3.531 l 3.072,-8.475 c 0,0 0.397,-1.994 2.647,-1.994 l 20,0 -4,11.24 C 2.322,-1.437 1.524,0 0,0" style="fill:#e1e8ed;fill-opacity:1;fill-rule:nonzero;stroke:none"/></g><g id="g84" transform="translate(19.2402,14)"><path id="path86" d="m 0,0 -16.481,0 c -1.524,0 -3.478,-0.771 -2.478,-3.531 l 3.072,-8.475 c 0,0 0.397,-1.994 2.647,-1.994 l 20,0 -4,11.24 C 2.322,-1.437 1.524,0 0,0" style="fill:#99aab5;fill-opacity:1;fill-rule:nonzero;stroke:none"/></g><g id="g88" transform="translate(14.0195,6.7168)"><path id="path90" d="m 0,0 c 0.523,-1.572 0.1,-3.13 -0.949,-3.479 -1.047,-0.349 -2.322,0.641 -2.846,2.213 -0.524,1.573 -0.099,3.13 0.949,3.479 C -1.799,2.563 -0.523,1.572 0,0" style="fill:#e1e8ed;fill-opacity:1;fill-rule:nonzero;stroke:none"/></g><g id="g92" transform="translate(19,11.25)"><path id="path94" d="m 0,0 -16,0 c -0.414,0 -0.75,0.336 -0.75,0.75 0,0.414 0.336,0.75 0.75,0.75 l 16,0 C 0.414,1.5 0.75,1.164 0.75,0.75 0.75,0.336 0.414,0 0,0" style="fill:#e1e8ed;fill-opacity:1;fill-rule:nonzero;stroke:none"/></g></g></g></g></svg>