<svg xmlns="http://www.w3.org/2000/svg" xmlns:svg="http://www.w3.org/2000/svg" style="enable-background:new 0 0 45 45" id="svg2" version="1.1" viewBox="0 0 45 45" xml:space="preserve"><metadata id="metadata8"/><defs id="defs6"><clipPath id="clipPath16" clipPathUnits="userSpaceOnUse"><path id="path18" d="M 0,0 36,0 36,36 0,36 0,0 Z"/></clipPath></defs><g id="g10" transform="matrix(1.25,0,0,-1.25,0,45)"><g id="g12"><g id="g14" clip-path="url(#clipPath16)"><g id="g20" transform="translate(30.2119,8.9297)"><path id="path22" d="m 0,0 c 0,-1.505 -3.676,-2.726 -8.212,-2.726 -4.535,0 -8.212,1.221 -8.212,2.726 0,1.505 3.677,2.727 8.212,2.727 C -3.676,2.727 0,1.505 0,0" style="fill:#292f33;fill-opacity:1;fill-rule:nonzero;stroke:none"/></g><g id="g24" transform="translate(35,0)"><path id="path26" d="M 0,0 0,3.5 C 0,6.814 -3.686,9 -7,9 l -12,0 c -3.313,0 -7,-2.186 -7,-5.5 L -26,0 0,0 Z" style="fill:#e1e8ed;fill-opacity:1;fill-rule:nonzero;stroke:none"/></g><g id="g28" transform="translate(30.9336,9)"><path id="path30" d="m 0,0 -0.306,0 -0.858,0 c 0.014,0 0.029,-0.065 0.029,-0.127 0,-1.36 -3.491,-2.434 -7.799,-2.434 -4.307,0 -7.798,1.06 -7.798,2.42 0,0.062 0.015,0.141 0.029,0.141 l -0.734,0 -0.705,-0.099 0.005,-1.018 c 0.114,-2.405 4.186,-3.392 9.203,-3.392 4.998,0 9.054,1.009 9.2,3.413 L 0.28,-0.122 0,0 Z" style="fill:#ea596e;fill-opacity:1;fill-rule:nonzero;stroke:none"/></g><g id="g32" transform="translate(22,6.4668)"><path id="path34" d="m 0,0 c -4.307,0 -7.799,1.104 -7.799,2.464 0,1.359 3.492,2.463 7.799,2.463 4.307,0 7.799,-1.104 7.799,-2.463 C 7.799,1.104 4.307,0 0,0 m 0,5.901 c -5.089,0 -9.214,-1.539 -9.214,-3.437 0,-1.9 4.125,-3.44 9.214,-3.44 5.089,0 9.214,1.54 9.214,3.44 0,1.898 -4.125,3.437 -9.214,3.437" style="fill:#be1931;fill-opacity:1;fill-rule:nonzero;stroke:none"/></g><g id="g36" transform="translate(29.7773,8.7959)"><path id="path38" d="m 0,0 c -0.589,0.132 -1.189,0.204 -1.777,0.204 l -12,0 c -0.589,0 -1.188,-0.072 -1.778,-0.204 0.222,-1.297 3.614,-2.329 7.778,-2.329 4.164,0 7.555,1.032 7.777,2.329" style="fill:#99aab5;fill-opacity:1;fill-rule:nonzero;stroke:none"/></g><g id="g40" transform="translate(21.9443,30.9312)"><path id="path42" d="m 0,0 c 4.105,0 10.948,-2.053 10.948,-10.948 0,-8.895 0,-10.948 -2.053,-10.948 -2.053,0 -4.152,2.053 -8.895,2.053 -4.105,0 -6.784,-2.053 -8.895,-2.053 -2.287,0 -2.053,8.211 -2.053,10.948 C -10.948,-2.053 -4.105,0 0,0" style="fill:#963b22;fill-opacity:1;fill-rule:nonzero;stroke:none"/></g><g id="g44" transform="translate(18.3281,8.9805)"><path id="path46" d="m 0,0 c 1.466,-1.065 2.964,-1.207 3.672,-1.207 0.708,0 2.194,0.142 3.66,1.207 l 0,3.205 L 0,3.205 0,0 Z" style="fill:#d5ab88;fill-opacity:1;fill-rule:nonzero;stroke:none"/></g><g id="g48" transform="translate(18.3213,10.8213)"><path id="path50" d="m 0,0 c 1.023,-1.155 2.291,-1.468 3.669,-1.468 1.379,0 2.647,0.313 3.67,1.468 l 0,2.936 L 0,2.936 0,0 Z" style="fill:#cc9b7a;fill-opacity:1;fill-rule:nonzero;stroke:none"/></g><g id="g52" transform="translate(13.7339,20.2827)"><path id="path54" d="m 0,0 c 0,5.834 3.676,10.563 8.21,10.563 4.535,0 8.211,-4.729 8.211,-10.563 0,-5.833 -3.676,-10.286 -8.211,-10.286 C 3.676,-10.286 0,-5.833 0,0" style="fill:#d5ab88;fill-opacity:1;fill-rule:nonzero;stroke:none"/></g><g id="g56" transform="translate(21.9443,12.457)"><path id="path58" d="m 0,0 c -1.605,0 -2.446,0.794 -2.536,0.885 -0.268,0.266 -0.268,0.7 0,0.967 0.265,0.264 0.692,0.266 0.96,0.006 C -1.541,1.826 -1.023,1.367 0,1.367 1.039,1.367 1.557,1.84 1.577,1.859 1.851,2.115 2.28,2.107 2.54,1.84 2.8,1.571 2.8,1.148 2.536,0.885 2.446,0.794 1.606,0 0,0" style="fill:#df1f32;fill-opacity:1;fill-rule:nonzero;stroke:none"/></g><g id="g60" transform="translate(11.7251,17)"><path id="path62" d="m 0,0 c -0.021,1 -0.044,0.224 -0.044,0.465 0,3.422 2.053,-0.494 2.053,1.943 0,2.439 1.368,2.683 2.736,4.051 0.685,0.685 2.053,2.026 2.053,2.026 0,0 3.421,-2.067 6.158,-2.067 2.737,0 5.474,-1.375 5.474,-4.112 0,-2.737 2.053,1.584 2.053,-1.837 C 20.483,0.225 20.46,1 20.443,0 l 0.718,0 c 0.007,2 0.007,1.924 0.007,3.202 0,8.895 -6.843,12.207 -10.949,12.207 C 6.114,15.409 -0.728,12.152 -0.728,3.257 -0.728,2.464 -0.748,2 -0.72,0 L 0,0 Z" style="fill:#963b22;fill-opacity:1;fill-rule:nonzero;stroke:none"/></g><g id="g64" transform="translate(18.6084,18.1138)"><path id="path66" d="m 0,0 0,0 c -0.465,0 -0.846,0.381 -0.846,0.846 l 0,0.845 c 0,0.465 0.381,0.846 0.846,0.846 0.465,0 0.847,-0.381 0.847,-0.846 l 0,-0.845 C 0.847,0.381 0.465,0 0,0" style="fill:#662113;fill-opacity:1;fill-rule:nonzero;stroke:none"/></g><g id="g68" transform="translate(25.373,18.1138)"><path id="path70" d="m 0,0 0,0 c -0.465,0 -0.846,0.381 -0.846,0.846 l 0,0.845 c 0,0.465 0.381,0.846 0.846,0.846 0.465,0 0.846,-0.381 0.846,-0.846 l 0,-0.845 C 0.846,0.381 0.465,0 0,0" style="fill:#662113;fill-opacity:1;fill-rule:nonzero;stroke:none"/></g><g id="g72" transform="translate(22.8369,15.5)"><path id="path74" d="m 0,0 -1.691,0 c -0.234,0 -0.423,0.189 -0.423,0.423 l 0,0.153 C -2.114,0.81 -1.925,1 -1.691,1 L 0,1 C 0.232,1 0.423,0.81 0.423,0.576 l 0,-0.153 C 0.423,0.189 0.232,0 0,0" style="fill:#c1694f;fill-opacity:1;fill-rule:nonzero;stroke:none"/></g><path id="path76" d="m 32,3 3,0 0,-3 -3,0 0,3 z" style="fill:#55acee;fill-opacity:1;fill-rule:nonzero;stroke:none"/><path id="path78" d="m 35,0 -2,0 0,2 2,0 0,-2 z" style="fill:#ffcc4d;fill-opacity:1;fill-rule:nonzero;stroke:none"/><g id="g80" transform="translate(24.0039,0)"><path id="path82" d="M 0,0 C -1.198,5.146 -6.048,9 -11.857,9 -17.666,9 -22.515,5.146 -23.713,0 L 0,0 Z" style="fill:#e1e8ed;fill-opacity:1;fill-rule:nonzero;stroke:none"/></g><g id="g84" transform="translate(22.6689,0)"><path id="path86" d="M 0,0 C -1.173,4.464 -5.432,7.778 -10.522,7.778 -15.611,7.778 -19.871,4.464 -21.044,0 L 0,0 Z" style="fill:#292f33;fill-opacity:1;fill-rule:nonzero;stroke:none"/></g><g id="g88" transform="translate(21.6377,0)"><path id="path90" d="m 0,0 c -1.148,3.937 -4.956,6.833 -9.49,6.833 -4.534,0 -8.343,-2.896 -9.491,-6.833 L 0,0 Z" style="fill:#ffac33;fill-opacity:1;fill-rule:nonzero;stroke:none"/></g><g id="g92" transform="translate(18.1953,0.9512)"><path id="path94" d="M 0,0 0.103,0.063 C 0.87,0.53 1.03,1.602 0.402,2.245 -0.064,2.726 -0.59,3.154 -1.164,3.513 -1.724,3.862 -2.321,4.134 -2.947,4.34 -3.775,4.612 -4.658,4.107 -4.813,3.248 -4.933,2.588 -4.588,1.902 -3.958,1.671 -3.093,1.353 -2.331,0.844 -1.727,0.197 -1.284,-0.275 -0.553,-0.336 0,0" style="fill:#ffdc5d;fill-opacity:1;fill-rule:nonzero;stroke:none"/></g><g id="g96" transform="translate(6.3442,21.7378)"><path id="path98" d="m 0,0 -1.542,0.571 -0.6,2.2 c -0.079,0.29 -0.343,0.491 -0.644,0.491 -0.3,0 -0.564,-0.201 -0.643,-0.491 l -0.6,-2.2 L -5.571,0 c -0.262,-0.096 -0.435,-0.346 -0.435,-0.625 0,-0.279 0.173,-0.529 0.435,-0.625 l 1.534,-0.568 0.605,-2.415 c 0.074,-0.296 0.341,-0.505 0.646,-0.505 0.306,0 0.573,0.209 0.647,0.505 L -1.534,-1.818 0,-1.25 c 0.262,0.096 0.435,0.346 0.435,0.625 C 0.435,-0.346 0.262,-0.096 0,0" style="fill:#9266cc;fill-opacity:1;fill-rule:nonzero;stroke:none"/></g><g id="g100" transform="translate(11.2798,31.3662)"><path id="path102" d="m 0,0 -2.61,0.966 -0.966,2.61 c -0.16,0.433 -0.573,0.72 -1.035,0.72 -0.461,0 -0.874,-0.287 -1.035,-0.72 L -6.612,0.966 -9.221,0 c -0.434,-0.161 -0.721,-0.573 -0.721,-1.035 0,-0.462 0.287,-0.874 0.721,-1.035 l 2.609,-0.966 0.966,-2.61 c 0.161,-0.433 0.574,-0.72 1.035,-0.72 0.462,0 0.875,0.287 1.035,0.72 L -2.61,-3.036 0,-2.07 c 0.433,0.161 0.72,0.573 0.72,1.035 C 0.72,-0.573 0.433,-0.161 0,0" style="fill:#5dadec;fill-opacity:1;fill-rule:nonzero;stroke:none"/></g></g></g></g></svg>