<svg xmlns="http://www.w3.org/2000/svg" xmlns:svg="http://www.w3.org/2000/svg" style="enable-background:new 0 0 45 45" id="svg2" version="1.1" viewBox="0 0 45 45" xml:space="preserve"><metadata id="metadata8"/><defs id="defs6"><clipPath id="clipPath16" clipPathUnits="userSpaceOnUse"><path id="path18" d="M 0,36 36,36 36,0 0,0 0,36 Z"/></clipPath><clipPath id="clipPath28" clipPathUnits="userSpaceOnUse"><path id="path30" d="M 4,34 C 2.895,34 2,33.105 2,32 L 2,32 2,10 C 2,8.896 2.895,8 4,8 l 0,0 22,0 c 1.104,0 2,0.896 2,2 l 0,0 0,22 c 0,1.105 -0.896,2 -2,2 l 0,0 -22,0 z"/></clipPath><clipPath id="clipPath40" clipPathUnits="userSpaceOnUse"><path id="path42" d="M 0,36 36,36 36,0 0,0 0,36 Z"/></clipPath><clipPath id="clipPath64" clipPathUnits="userSpaceOnUse"><path id="path66" d="M 0,0 36,0 36,36 0,36 0,0 Z"/></clipPath><clipPath id="clipPath116" clipPathUnits="userSpaceOnUse"><path id="path118" d="M 0,36 36,36 36,0 0,0 0,36 Z"/></clipPath><clipPath id="clipPath132" clipPathUnits="userSpaceOnUse"><path id="path134" d="M 0,0 36,0 36,36 0,36 0,0 Z"/></clipPath></defs><g id="g10" transform="matrix(1.25,0,0,-1.25,0,45)"><g id="g12"><g id="g14" clip-path="url(#clipPath16)"><g id="g20" transform="translate(30,10)"><path id="path22" d="m 0,0 c 0,-2.209 -1.791,-4 -4,-4 l -22,0 c -2.209,0 -4,1.791 -4,4 l 0,22 c 0,2.209 1.791,4 4,4 l 22,0 c 2.209,0 4,-1.791 4,-4 L 0,0 Z" style="fill:#d99e82;fill-opacity:1;fill-rule:nonzero;stroke:none"/></g></g></g><g id="g24"><g id="g26" clip-path="url(#clipPath28)"><g id="g32" transform="translate(28,10)"><path id="path34" d="m 0,0 c 0,-1.104 -0.895,-2 -2,-2 l -22,0 c -1.104,0 -2,0.896 -2,2 l 0,22 c 0,1.105 0.896,2 2,2 l 22,0 c 1.105,0 2,-0.895 2,-2 L 0,0 Z" style="fill:#5c913b;fill-opacity:1;fill-rule:nonzero;stroke:none"/></g></g></g><g id="g36"><g id="g38" clip-path="url(#clipPath40)"><g id="g44" transform="translate(10.5771,27.2217)"><path id="path46" d="m 0,0 c 0.352,0 0.624,-0.16 0.624,-0.528 0,-0.367 -0.272,-0.528 -0.576,-0.528 l -2.671,0 c -0.351,0 -0.623,0.161 -0.623,0.528 0,0.168 0.104,0.312 0.184,0.408 0.664,0.791 1.383,1.511 1.991,2.391 0.144,0.208 0.279,0.455 0.279,0.743 0,0.328 -0.248,0.616 -0.575,0.616 -0.92,0 -0.48,-1.295 -1.247,-1.295 -0.384,0 -0.584,0.271 -0.584,0.583 0,1.008 0.895,1.815 1.879,1.815 0.983,0 1.775,-0.648 1.775,-1.663 0,-1.111 -1.24,-2.215 -1.919,-3.07 L 0,0 Z" style="fill:#fff;fill-opacity:1;fill-rule:nonzero;stroke:none"/></g><g id="g48" transform="translate(4.0898,22.8281)"><path id="path50" d="m 0,0 c 0,0.288 0.184,0.48 0.479,0.48 0.296,0 0.48,-0.192 0.48,-0.48 l 0,-1.16 1.16,0 c 0.296,0 0.48,-0.191 0.48,-0.479 0,-0.288 -0.184,-0.48 -0.48,-0.48 l -1.16,0 0,-1.159 c 0,-0.288 -0.184,-0.48 -0.48,-0.48 C 0.184,-3.758 0,-3.566 0,-3.278 l 0,1.159 -1.159,0 c -0.296,0 -0.48,0.192 -0.48,0.48 0,0.288 0.184,0.479 0.48,0.479 L 0,-1.16 0,0 Z" style="fill:#fff;fill-opacity:1;fill-rule:nonzero;stroke:none"/></g><g id="g52" transform="translate(10.5767,20.2217)"><path id="path54" d="m 0,0 c 0.352,0 0.623,-0.16 0.623,-0.528 0,-0.367 -0.271,-0.528 -0.575,-0.528 l -2.671,0 c -0.351,0 -0.623,0.161 -0.623,0.528 0,0.168 0.104,0.312 0.184,0.408 0.664,0.791 1.383,1.511 1.991,2.391 0.144,0.208 0.279,0.455 0.279,0.743 0,0.328 -0.248,0.616 -0.575,0.616 -0.92,0 -0.48,-1.295 -1.248,-1.295 -0.384,0 -0.583,0.271 -0.583,0.583 0,1.008 0.895,1.815 1.879,1.815 0.983,0 1.774,-0.648 1.774,-1.663 C 0.455,1.959 -0.784,0.855 -1.463,0 L 0,0 Z" style="fill:#fff;fill-opacity:1;fill-rule:nonzero;stroke:none"/></g><g id="g56" transform="translate(11.4165,17.0303)"><path id="path58" d="m 0,0 -8.333,0 c -0.277,0 -0.5,0.224 -0.5,0.5 0,0.276 0.223,0.5 0.5,0.5 L 0,1 C 0.276,1 0.5,0.776 0.5,0.5 0.5,0.224 0.276,0 0,0" style="fill:#fff;fill-opacity:1;fill-rule:nonzero;stroke:none"/></g></g></g><g id="g60"><g id="g62" clip-path="url(#clipPath64)"><g id="g68" transform="translate(35,0)"><path id="path70" d="M 0,0 0,3.5 C 0,6.814 -3.686,9 -7,9 l -12,0 c -3.313,0 -7,-2.186 -7,-5.5 L -26,0 0,0 Z" style="fill:#9266cc;fill-opacity:1;fill-rule:nonzero;stroke:none"/></g><g id="g72" transform="translate(21.9443,30.9312)"><path id="path74" d="m 0,0 c 4.105,0 10.948,-2.053 10.948,-10.948 0,-8.895 0,-10.948 -2.053,-10.948 -2.053,0 -4.79,2.053 -8.895,2.053 -4.105,0 -6.784,-2.053 -8.895,-2.053 -2.287,0 -2.053,8.211 -2.053,10.948 C -10.948,-2.053 -4.105,0 0,0" style="fill:#ffac33;fill-opacity:1;fill-rule:nonzero;stroke:none"/></g><g id="g76" transform="translate(17,9)"><path id="path78" d="M 0,0 9.875,0 C 9.875,0 8.619,-3.5 4.937,-3.5 1.256,-3.5 0,0 0,0" style="fill:#292f33;fill-opacity:1;fill-rule:nonzero;stroke:none"/></g><g id="g80" transform="translate(18.3281,8.9805)"><path id="path82" d="m 0,0 c 0,-1.48 2.172,-2.48 3.672,-2.48 1.5,0 3.66,1 3.66,2.48 l 0,3.205 L 0,3.205 0,0 Z" style="fill:#ffdc5d;fill-opacity:1;fill-rule:nonzero;stroke:none"/></g><g id="g84" transform="translate(18.3213,10.8213)"><path id="path86" d="m 0,0 c 1.023,-1.155 2.291,-1.468 3.669,-1.468 1.379,0 2.647,0.313 3.67,1.468 l 0,2.936 L 0,2.936 0,0 Z" style="fill:#f9ca55;fill-opacity:1;fill-rule:nonzero;stroke:none"/></g><g id="g88" transform="translate(13.7339,20.2827)"><path id="path90" d="m 0,0 c 0,5.834 3.676,10.563 8.21,10.563 4.535,0 8.211,-4.729 8.211,-10.563 0,-5.833 -3.676,-10.286 -8.211,-10.286 C 3.676,-10.286 0,-5.833 0,0" style="fill:#ffdc5d;fill-opacity:1;fill-rule:nonzero;stroke:none"/></g><g id="g92" transform="translate(21.9443,12.457)"><path id="path94" d="m 0,0 c -1.605,0 -2.446,0.794 -2.536,0.885 -0.268,0.266 -0.268,0.7 0,0.967 0.265,0.264 0.692,0.266 0.96,0.006 C -1.541,1.826 -1.023,1.367 0,1.367 1.039,1.367 1.557,1.84 1.577,1.859 1.851,2.115 2.28,2.107 2.54,1.84 2.8,1.571 2.8,1.148 2.536,0.885 2.446,0.794 1.606,0 0,0" style="fill:#df1f32;fill-opacity:1;fill-rule:nonzero;stroke:none"/></g><g id="g96" transform="translate(11.7251,17)"><path id="path98" d="m 0,0 c -0.021,1 -0.044,0.224 -0.044,0.465 0,3.422 2.053,-0.494 2.053,1.943 0,2.439 1.368,2.683 2.736,4.051 0.685,0.685 2.053,2.026 2.053,2.026 0,0 3.421,-2.067 6.158,-2.067 2.737,0 5.474,-1.375 5.474,-4.112 0,-2.737 2.053,1.584 2.053,-1.837 C 20.483,0.225 20.46,1 20.443,0 l 0.718,0 c 0.007,2 0.007,1.924 0.007,3.202 0,8.895 -6.843,12.207 -10.949,12.207 C 6.114,15.409 -0.728,12.152 -0.728,3.257 -0.728,2.464 -0.748,2 -0.72,0 L 0,0 Z" style="fill:#ffac33;fill-opacity:1;fill-rule:nonzero;stroke:none"/></g><g id="g100" transform="translate(18.6084,18.1138)"><path id="path102" d="m 0,0 0,0 c -0.465,0 -0.846,0.381 -0.846,0.846 l 0,0.845 c 0,0.465 0.381,0.846 0.846,0.846 0.465,0 0.847,-0.381 0.847,-0.846 l 0,-0.845 C 0.847,0.381 0.465,0 0,0" style="fill:#662113;fill-opacity:1;fill-rule:nonzero;stroke:none"/></g><g id="g104" transform="translate(25.373,18.1138)"><path id="path106" d="m 0,0 0,0 c -0.465,0 -0.846,0.381 -0.846,0.846 l 0,0.845 c 0,0.465 0.381,0.846 0.846,0.846 0.465,0 0.846,-0.381 0.846,-0.846 l 0,-0.845 C 0.846,0.381 0.465,0 0,0" style="fill:#662113;fill-opacity:1;fill-rule:nonzero;stroke:none"/></g><g id="g108" transform="translate(22.8369,15.5)"><path id="path110" d="m 0,0 -1.691,0 c -0.234,0 -0.423,0.189 -0.423,0.423 l 0,0.153 C -2.114,0.81 -1.925,1 -1.691,1 L 0,1 C 0.232,1 0.423,0.81 0.423,0.576 l 0,-0.153 C 0.423,0.189 0.232,0 0,0" style="fill:#c1694f;fill-opacity:1;fill-rule:nonzero;stroke:none"/></g></g></g><g id="g112"><g id="g114" clip-path="url(#clipPath116)"><g id="g120" transform="translate(15.4443,20.0645)"><path id="path122" d="m 0,0 c 0,-1.448 -0.734,-2.622 -1.639,-2.622 -0.905,0 -1.639,1.174 -1.639,2.622 0,1.448 0.734,2.623 1.639,2.623 C -0.734,2.623 0,1.448 0,0" style="fill:#ffdc5d;fill-opacity:1;fill-rule:nonzero;stroke:none"/></g><g id="g124" transform="translate(31.833,20.0645)"><path id="path126" d="m 0,0 c 0,-1.448 -0.733,-2.622 -1.639,-2.622 -0.905,0 -1.638,1.174 -1.638,2.622 0,1.448 0.733,2.623 1.638,2.623 C -0.733,2.623 0,1.448 0,0" style="fill:#ffdc5d;fill-opacity:1;fill-rule:nonzero;stroke:none"/></g></g></g><g id="g128"><g id="g130" clip-path="url(#clipPath132)"><g id="g136" transform="translate(22,5.7783)"><path id="path138" d="M 0,0 C 0,0 3.381,-2.494 4.094,-2.777 4.25,-2.84 3.727,0.879 3.727,0.879 l -7.454,0 c 0,0 -0.523,-3.781 -0.234,-3.625 C -3.32,-2.404 0,0 0,0" style="fill:#744eaa;fill-opacity:1;fill-rule:nonzero;stroke:none"/></g><g id="g140" transform="translate(17.291,10.083)"><path id="path142" d="m 0,0 c 0.564,-0.566 4.709,-3.383 4.709,-3.383 0,0 -2.125,-1.242 -4.086,-3.535 -0.195,-0.23 -1.543,4.625 -1.584,5.709 C -0.973,-0.906 -0.271,0.271 0,0" style="fill:#cbb7ea;fill-opacity:1;fill-rule:nonzero;stroke:none"/></g><g id="g144" transform="translate(26.7305,10.083)"><path id="path146" d="m 0,0 c -0.566,-0.566 -4.709,-3.383 -4.709,-3.383 0,0 2.125,-1.242 4.084,-3.535 0.195,-0.23 1.541,4.625 1.582,5.709 C 0.969,-0.906 0.27,0.271 0,0" style="fill:#cbb7ea;fill-opacity:1;fill-rule:nonzero;stroke:none"/></g><path id="path148" d="m 23,0 -2,0 0,6 2,0 0,-6 z" style="fill:#744eaa;fill-opacity:1;fill-rule:nonzero;stroke:none"/><g id="g150" transform="translate(23,1.5)"><path id="path152" d="m 0,0 c 0,-0.552 -0.448,-1 -1,-1 -0.552,0 -1,0.448 -1,1 0,0.552 0.448,1 1,1 0.552,0 1,-0.448 1,-1" style="fill:#cbb7ea;fill-opacity:1;fill-rule:nonzero;stroke:none"/></g><g id="g154" transform="translate(23,4.5)"><path id="path156" d="m 0,0 c 0,-0.552 -0.448,-1 -1,-1 -0.552,0 -1,0.448 -1,1 0,0.552 0.448,1 1,1 0.552,0 1,-0.448 1,-1" style="fill:#cbb7ea;fill-opacity:1;fill-rule:nonzero;stroke:none"/></g></g></g></g></svg>