<svg xmlns="http://www.w3.org/2000/svg" xmlns:svg="http://www.w3.org/2000/svg" style="enable-background:new 0 0 45 45" id="svg2" version="1.1" viewBox="0 0 45 45" xml:space="preserve"><metadata id="metadata8"/><defs id="defs6"><clipPath id="clipPath16" clipPathUnits="userSpaceOnUse"><path id="path18" d="M 0,0 36,0 36,36 0,36 0,0 Z"/></clipPath></defs><g id="g10" transform="matrix(1.25,0,0,-1.25,0,45)"><g id="g12"><g id="g14" clip-path="url(#clipPath16)"><g id="g20" transform="translate(21.5381,35.1924)"><path id="path22" d="m 0,0 c -0.333,0 -0.657,-0.034 -0.974,-0.09 -1.172,0.57 -2.175,0.898 -3.564,0.898 -4.907,0 -9,-4.093 -9,-9 l 0,-7 c 0.148,-5.224 4.241,-9.569 9.5,-9.569 5.259,0 9.352,4.345 9.5,9.569 l 0,10 C 5.462,-2.07 3.123,0 0,0" style="fill:#ffac33;fill-opacity:1;fill-rule:nonzero;stroke:none"/></g><g id="g24" transform="translate(10,32)"><path id="path26" d="m 0,0 0,-10 c 0.253,-3.89 3.521,-6.969 7.5,-6.969 3.979,0 7.247,3.079 7.5,6.969 L 15,0 0,0 Z" style="fill:#ffdc5d;fill-opacity:1;fill-rule:nonzero;stroke:none"/></g><g id="g28" transform="translate(21.6348,32.3271)"><path id="path30" d="m 0,0 c 0.25,0.412 0.365,0.673 0.365,0.673 l -12,-1 -0.577,-5.693 c 5.692,0 9.024,2.305 10.815,4.21 0.415,-1.474 1.563,-3.517 4.762,-3.517 l 0,6 L 0,0 Z" style="fill:#ffac33;fill-opacity:1;fill-rule:nonzero;stroke:none"/></g><g id="g32" transform="translate(18,20.5)"><path id="path34" d="M 0,0 -1,0 C -1.276,0 -1.5,0.224 -1.5,0.5 -1.5,0.776 -1.276,1 -1,1 L 0,1 C 0.276,1 0.5,0.776 0.5,0.5 0.5,0.224 0.276,0 0,0" style="fill:#bf6952;fill-opacity:1;fill-rule:nonzero;stroke:none"/></g><g id="g36" transform="translate(14,23)"><path id="path38" d="m 0,0 c -0.553,0 -1,0.448 -1,1 l 0,1 C -1,2.552 -0.553,3 0,3 0.553,3 1,2.552 1,2 L 1,1 C 1,0.448 0.553,0 0,0" style="fill:#662113;fill-opacity:1;fill-rule:nonzero;stroke:none"/></g><g id="g40" transform="translate(21,23)"><path id="path42" d="m 0,0 c -0.553,0 -1,0.448 -1,1 l 0,1 C -1,2.552 -0.553,3 0,3 0.553,3 1,2.552 1,2 L 1,1 C 1,0.448 0.553,0 0,0" style="fill:#662113;fill-opacity:1;fill-rule:nonzero;stroke:none"/></g><g id="g44" transform="translate(25,14)"><path id="path46" d="m 0,0 -16,0 c -1.779,0 -1.945,-1.193 -1.945,-2.973 l 0,-11.027 4.028,0 12.889,0 L 3,-14 3,-2.973 C 3,-1 2,0 0,0" style="fill:#9268ca;fill-opacity:1;fill-rule:nonzero;stroke:none"/></g><path id="path48" d="M 24.028,0 23,0 l 0,10 1.028,0 0,-10 z" style="fill:#7450a8;fill-opacity:1;fill-rule:nonzero;stroke:none"/><path id="path50" d="M 12.028,0 11,0 l 0,10 1.028,0 0,-10 z" style="fill:#7450a8;fill-opacity:1;fill-rule:nonzero;stroke:none"/><g id="g52" transform="translate(15,17)"><path id="path54" d="M 0,0 0,-3 C 0,-4.381 1.119,-5.5 2.5,-5.5 3.881,-5.5 5,-4.381 5,-3 L 5,0 0,0 Z" style="fill:#ffdc5d;fill-opacity:1;fill-rule:nonzero;stroke:none"/></g><g id="g56" transform="translate(14.2695,18.231)"><path id="path58" d="M 0,0 3.23,0 6.461,0 C 6.461,0 5.653,-1.616 3.23,-1.616 0.808,-1.616 0,0 0,0" style="fill:#da2f47;fill-opacity:1;fill-rule:nonzero;stroke:none"/></g><g id="g60" transform="translate(26.875,17)"><path id="path62" d="M 0,0 C -0.298,0 -0.588,-0.029 -0.875,-0.07 -1.162,-0.029 -1.452,0 -1.75,0 c -3.383,0 -6.125,-2.742 -6.125,-6.125 0,-3.383 2.742,-6.125 6.125,-6.125 0.298,0 0.588,0.029 0.875,0.07 0.287,-0.041 0.577,-0.07 0.875,-0.07 3.383,0 6.125,2.742 6.125,6.125 C 6.125,-2.742 3.383,0 0,0" style="fill:#f4900c;fill-opacity:1;fill-rule:nonzero;stroke:none"/></g><g id="g64" transform="translate(28,2)"><path id="path66" d="m 0,0 0,3 -4,0 0,-3 -1,0 0,-2 6,0 0,2 -1,0 z" style="fill:#ffdc5d;fill-opacity:1;fill-rule:nonzero;stroke:none"/></g><g id="g68" transform="translate(31,3)"><path id="path70" d="m 0,0 -3,0 -2,-2 -2,2 -2,0 c -3,0 -5,-2 -5,-4 l 9,0 9,0 C 4,-2.027 2,0 0,0" style="fill:#88c9f9;fill-opacity:1;fill-rule:nonzero;stroke:none"/></g><g id="g72" transform="translate(32,13.2857)"><path id="path74" d="M 0,0 -4.286,0.857 -12,0 l 0,-4.286 0.002,0 c 0,-0.013 -0.002,-0.026 -0.002,-0.04 0,-3.291 2.685,-5.96 5.998,-5.96 3.312,0 5.997,2.669 5.997,5.96 0,0.014 -0.002,0.027 -0.002,0.04 L 0,-4.286 0,0 Z" style="fill:#ffdc5d;fill-opacity:1;fill-rule:nonzero;stroke:none"/></g><g id="g76" transform="translate(33,10.875)"><path id="path78" d="M 0,0 -0.875,2.625 -4.137,4.044 -13.125,2.625 -13.878,0 c 4.734,0 7.372,1.536 8.807,2.946 C -3.99,1.67 -2.163,0 0,0" style="fill:#f4900c;fill-opacity:1;fill-rule:nonzero;stroke:none"/></g><g id="g80" transform="translate(28,6)"><path id="path82" d="m 0,0 -2,0 -2,0 c 0,0 0.389,-1.333 2,-1.333 1.611,0 2,1.333 2,1.333" style="fill:#bf6952;fill-opacity:1;fill-rule:nonzero;stroke:none"/></g><g id="g84" transform="translate(26,6.5)"><path id="path86" d="m 0,0 c -0.13,0 -0.26,0.05 -0.35,0.15 -0.1,0.09 -0.15,0.22 -0.15,0.35 0,0.13 0.05,0.26 0.15,0.36 C -0.18,1.03 0.17,1.04 0.36,0.851 0.45,0.76 0.5,0.63 0.5,0.5 0.5,0.37 0.45,0.24 0.35,0.15 0.26,0.05 0.13,0 0,0" style="fill:#bf6952;fill-opacity:1;fill-rule:nonzero;stroke:none"/></g><g id="g88" transform="translate(28,8)"><path id="path90" d="m 0,0 c -0.461,0 -0.833,0.373 -0.833,0.833 l 0,0.834 C -0.833,2.127 -0.461,2.5 0,2.5 0.461,2.5 0.833,2.127 0.833,1.667 l 0,-0.834 C 0.833,0.373 0.461,0 0,0" style="fill:#662113;fill-opacity:1;fill-rule:nonzero;stroke:none"/></g><g id="g92" transform="translate(24,8)"><path id="path94" d="m 0,0 c -0.461,0 -0.833,0.373 -0.833,0.833 l 0,0.834 C -0.833,2.127 -0.461,2.5 0,2.5 0.461,2.5 0.833,2.127 0.833,1.667 l 0,-0.834 C 0.833,0.373 0.461,0 0,0" style="fill:#662113;fill-opacity:1;fill-rule:nonzero;stroke:none"/></g><g id="g96" transform="translate(9.875,17)"><path id="path98" d="M 0,0 C -0.298,0 -0.588,-0.029 -0.875,-0.07 -1.162,-0.029 -1.452,0 -1.75,0 c -3.383,0 -6.125,-2.742 -6.125,-6.125 0,-3.383 2.742,-6.125 6.125,-6.125 0.298,0 0.588,0.029 0.875,0.07 0.287,-0.041 0.577,-0.07 0.875,-0.07 3.383,0 6.125,2.742 6.125,6.125 C 6.125,-2.742 3.383,0 0,0" style="fill:#f4900c;fill-opacity:1;fill-rule:nonzero;stroke:none"/></g><g id="g100" transform="translate(11,2)"><path id="path102" d="m 0,0 0,3 -4,0 0,-3 -1,0 0,-2 6,0 0,2 -1,0 z" style="fill:#ffdc5d;fill-opacity:1;fill-rule:nonzero;stroke:none"/></g><g id="g104" transform="translate(14,3)"><path id="path106" d="m 0,0 -3,0 -2,-2 -2,2 -2,0 c -3,0 -5,-2 -5,-4 l 9,0 9,0 C 4,-2.027 2,0 0,0" style="fill:#88c9f9;fill-opacity:1;fill-rule:nonzero;stroke:none"/></g><g id="g108" transform="translate(15,13.2857)"><path id="path110" d="M 0,0 -4.286,0.857 -12,0 l 0,-4.286 0.002,0 c 0,-0.013 -0.002,-0.026 -0.002,-0.04 0,-3.291 2.685,-5.96 5.998,-5.96 3.312,0 5.997,2.669 5.997,5.96 0,0.014 -0.002,0.027 -0.002,0.04 L 0,-4.286 0,0 Z" style="fill:#ffdc5d;fill-opacity:1;fill-rule:nonzero;stroke:none"/></g><g id="g112" transform="translate(16,10.875)"><path id="path114" d="M 0,0 -0.875,2.625 -4.137,4.044 -13.125,2.625 -13.878,0 c 4.734,0 7.372,1.536 8.807,2.946 C -3.99,1.67 -2.163,0 0,0" style="fill:#f4900c;fill-opacity:1;fill-rule:nonzero;stroke:none"/></g><g id="g116" transform="translate(11,6)"><path id="path118" d="m 0,0 -2,0 -2,0 c 0,0 0.389,-1.333 2,-1.333 1.611,0 2,1.333 2,1.333" style="fill:#bf6952;fill-opacity:1;fill-rule:nonzero;stroke:none"/></g><g id="g120" transform="translate(9,6.5)"><path id="path122" d="m 0,0 c -0.13,0 -0.26,0.05 -0.35,0.15 -0.1,0.09 -0.15,0.22 -0.15,0.35 0,0.13 0.05,0.26 0.15,0.36 C -0.18,1.03 0.17,1.04 0.36,0.851 0.45,0.76 0.5,0.63 0.5,0.5 0.5,0.37 0.45,0.24 0.35,0.15 0.26,0.05 0.13,0 0,0" style="fill:#bf6952;fill-opacity:1;fill-rule:nonzero;stroke:none"/></g><g id="g124" transform="translate(11,8)"><path id="path126" d="m 0,0 c -0.461,0 -0.833,0.373 -0.833,0.833 l 0,0.834 C -0.833,2.127 -0.461,2.5 0,2.5 0.461,2.5 0.833,2.127 0.833,1.667 l 0,-0.834 C 0.833,0.373 0.461,0 0,0" style="fill:#662113;fill-opacity:1;fill-rule:nonzero;stroke:none"/></g><g id="g128" transform="translate(7,8)"><path id="path130" d="m 0,0 c -0.461,0 -0.833,0.373 -0.833,0.833 l 0,0.834 C -0.833,2.127 -0.461,2.5 0,2.5 0.461,2.5 0.833,2.127 0.833,1.667 l 0,-0.834 C 0.833,0.373 0.461,0 0,0" style="fill:#662113;fill-opacity:1;fill-rule:nonzero;stroke:none"/></g></g></g></g></svg>