<svg xmlns="http://www.w3.org/2000/svg" xmlns:svg="http://www.w3.org/2000/svg" style="enable-background:new 0 0 45 45" id="svg2" version="1.1" viewBox="0 0 45 45" xml:space="preserve"><metadata id="metadata8"/><defs id="defs6"><clipPath id="clipPath16" clipPathUnits="userSpaceOnUse"><path id="path18" d="M 0,36 36,36 36,0 0,0 0,36 Z"/></clipPath></defs><g id="g10" transform="matrix(1.25,0,0,-1.25,0,45)"><g id="g12"><g id="g14" clip-path="url(#clipPath16)"><g id="g20" transform="translate(29.96,12.9131)"><path id="path22" d="m 0,0 c 4.04,-3.913 4.083,-10.935 3.061,-10.935 -1.021,0 -4.115,1.852 -6.068,3.937 -1.953,2.085 -1.75,6.779 -1.75,6.779 l 1.586,4.32 C -3.171,4.101 -4.04,3.913 0,0" style="fill:#963b22;fill-opacity:1;fill-rule:nonzero;stroke:none"/></g><g id="g24" transform="translate(26.96,12.9131)"><path id="path26" d="m 0,0 c 4.04,-3.913 4.083,-10.935 3.061,-10.935 -1.021,0 -4.115,1.852 -6.068,3.937 -1.953,2.085 -1.75,6.779 -1.75,6.779 l 1.586,4.32 C -3.171,4.101 -4.04,3.913 0,0" style="fill:#963b22;fill-opacity:1;fill-rule:nonzero;stroke:none"/></g><g id="g28" transform="translate(3,2)"><path id="path30" d="m 0,0 c -1,0 -1,7 3,11 4,4.001 3,4.001 3,4.001 L 8,11 C 8,11 8,6 6,4 4,2 1,0 0,0" style="fill:#963b22;fill-opacity:1;fill-rule:nonzero;stroke:none"/></g><g id="g32" transform="translate(6,2)"><path id="path34" d="m 0,0 c -1,0 -1,7 3,11 4,4.001 3,4.001 3,4.001 L 8,11 C 8,11 8,6 6,4 4,2 1,0 0,0" style="fill:#963b22;fill-opacity:1;fill-rule:nonzero;stroke:none"/></g><g id="g36" transform="translate(6.9141,17.647)"><path id="path38" d="M 0,0 C -0.571,2.134 -2.116,3.575 -3.45,3.217 -4.784,2.86 -5.4,0.84 -4.829,-1.294 -4.258,-3.428 -2.713,-4.868 -1.379,-4.51 -0.045,-4.153 0.572,-2.133 0,0" style="fill:#d5ab88;fill-opacity:1;fill-rule:nonzero;stroke:none"/></g><g id="g40" transform="translate(33.915,16.3525)"><path id="path42" d="M 0,0 C 0.571,2.134 -0.046,4.154 -1.38,4.512 -2.713,4.868 -4.258,3.429 -4.829,1.294 -5.401,-0.84 -4.784,-2.859 -3.45,-3.217 -2.116,-3.574 -0.571,-2.134 0,0" style="fill:#d5ab88;fill-opacity:1;fill-rule:nonzero;stroke:none"/></g><g id="g44" transform="translate(31,17)"><path id="path46" d="m 0,0 c 0,9.389 -5.82,16 -13,16 -7.18,0 -13,-6.611 -13,-16 0,-9.389 5.82,-15 13,-15 7.18,0 13,5.611 13,15" style="fill:#d5ab88;fill-opacity:1;fill-rule:nonzero;stroke:none"/></g><g id="g48" transform="translate(18,8.3486)"><path id="path50" d="M 0,0 C -2.42,0 -4.274,0.687 -4.352,0.715 -4.869,0.909 -5.13,1.486 -4.936,2.003 -4.742,2.52 -4.167,2.782 -3.65,2.588 -3.634,2.582 -2.04,2 0,2 2.041,2 3.635,2.582 3.65,2.588 4.166,2.782 4.744,2.517 4.936,2.001 5.129,1.484 4.868,0.909 4.352,0.715 4.274,0.687 2.421,0 0,0" style="fill:#df1f32;fill-opacity:1;fill-rule:nonzero;stroke:none"/></g><g id="g52" transform="translate(19,13)"><path id="path54" d="m 0,0 -2,0 c -0.552,0 -1,0.447 -1,1 0,0.553 0.448,1 1,1 L 0,2 C 0.553,2 1,1.553 1,1 1,0.447 0.553,0 0,0" style="fill:#c1694f;fill-opacity:1;fill-rule:nonzero;stroke:none"/></g><g id="g56" transform="translate(12,16)"><path id="path58" d="m 0,0 c -0.552,0 -1,0.447 -1,1 l 0,2 C -1,3.552 -0.552,4 0,4 0.552,4 1,3.552 1,3 L 1,1 C 1,0.447 0.552,0 0,0" style="fill:#662113;fill-opacity:1;fill-rule:nonzero;stroke:none"/></g><g id="g60" transform="translate(24,16)"><path id="path62" d="m 0,0 c -0.553,0 -1,0.447 -1,1 l 0,2 C -1,3.552 -0.553,4 0,4 0.553,4 1,3.552 1,3 L 1,1 C 1,0.447 0.553,0 0,0" style="fill:#662113;fill-opacity:1;fill-rule:nonzero;stroke:none"/></g><g id="g64" transform="translate(32,26.0005)"><path id="path66" d="m 0,0 c -2,7 -7,9 -10,9 -2,0 -4,-2 -4,-2 0,0 -2.001,2 -4,2 -3,0 -8,-2 -10,-9 -1.648,-5.769 1,-11 1,-11 0,3.001 2,9 7,9 5,0 6,4 6,4 0,0 0.786,-4 5.786,-4 5,0 7.214,-5.999 7.214,-9 0,0 2.648,5.231 1,11" style="fill:#963b22;fill-opacity:1;fill-rule:nonzero;stroke:none"/></g></g></g></g></svg>