<svg xmlns="http://www.w3.org/2000/svg" xmlns:svg="http://www.w3.org/2000/svg" style="enable-background:new 0 0 45 45" id="svg2" version="1.1" viewBox="0 0 45 45" xml:space="preserve"><metadata id="metadata8"/><defs id="defs6"><clipPath id="clipPath16" clipPathUnits="userSpaceOnUse"><path id="path18" d="M 0,0 33,0 33,36 0,36 0,0 Z"/></clipPath><clipPath id="clipPath28" clipPathUnits="userSpaceOnUse"><path id="path30" d="M 12,9 C 8.687,9 5,6.815 5,3.5 L 5,3.5 5,0 31,0 31,3.5 C 31,6.815 27.314,9 24,9 l 0,0 -12,0 z"/></clipPath><clipPath id="clipPath44" clipPathUnits="userSpaceOnUse"><path id="path46" d="M 0,0 33,0 33,36 0,36 0,0 Z"/></clipPath><clipPath id="clipPath80" clipPathUnits="userSpaceOnUse"><path id="path82" d="M 0,36 36,36 36,0 0,0 0,36 Z"/></clipPath></defs><g id="g10" transform="matrix(1.25,0,0,-1.25,0,45)"><g id="g12"><g id="g14" clip-path="url(#clipPath16)"><g id="g20" transform="translate(31,0)"><path id="path22" d="M 0,0 0,3.5 C 0,6.814 -3.686,9 -7,9 l -12,0 c -3.313,0 -7,-2.186 -7,-5.5 L -26,0 0,0 Z" style="fill:#9266cc;fill-opacity:1;fill-rule:nonzero;stroke:none"/></g></g></g><g id="g24"><g id="g26" clip-path="url(#clipPath28)"><g id="g32" transform="translate(23.5,8.75)"><path id="path34" d="m 0,0 c 0,0.084 -0.011,0.167 -0.021,0.25 l -10.958,0 C -10.989,0.167 -11,0.084 -11,0 c 0,-1.27 1.235,-2.366 3.031,-2.901 0.154,-1.604 1.195,-2.849 2.469,-2.849 1.274,0 2.315,1.245 2.469,2.849 C -1.235,-2.366 0,-1.27 0,0" style="fill:#f3d2a2;fill-opacity:1;fill-rule:nonzero;stroke:none"/></g><g id="g36" transform="translate(24.796,10.5)"><path id="path38" d="m 0,0 -1.317,0 -10.957,0 -1.318,0 -0.17,-1.306 c -0.019,-0.148 -0.034,-0.295 -0.034,-0.444 0,-1.688 1.212,-3.175 3.221,-4.024 C -10.04,-7.668 -8.538,-9 -6.796,-9 c 1.742,0 3.244,1.332 3.779,3.226 2.009,0.849 3.221,2.336 3.221,4.024 0,0.149 -0.015,0.296 -0.034,0.444 L 0,0 Z m -1.317,-1.5 c 0.01,-0.083 0.021,-0.166 0.021,-0.25 0,-1.27 -1.235,-2.366 -3.031,-2.901 -0.154,-1.604 -1.195,-2.849 -2.469,-2.849 -1.274,0 -2.315,1.245 -2.469,2.849 -1.796,0.535 -3.031,1.631 -3.031,2.901 0,0.084 0.011,0.167 0.022,0.25 l 10.957,0" style="fill:#744eaa;fill-opacity:1;fill-rule:nonzero;stroke:none"/></g></g></g><g id="g40"><g id="g42" clip-path="url(#clipPath44)"><g id="g48" transform="translate(14.3281,8.9805)"><path id="path50" d="m 0,0 c 1.466,-1.065 2.964,-1.98 3.672,-1.98 0.708,0 2.194,0.915 3.66,1.98 l 0,3.205 L 0,3.205 0,0 Z" style="fill:#f3d2a2;fill-opacity:1;fill-rule:nonzero;stroke:none"/></g><g id="g52" transform="translate(14.3213,10.8213)"><path id="path54" d="m 0,0 c 1.023,-1.155 2.291,-1.468 3.669,-1.468 1.379,0 2.647,0.313 3.67,1.468 l 0,2.936 L 0,2.936 0,0 Z" style="fill:#e2c196;fill-opacity:1;fill-rule:nonzero;stroke:none"/></g><g id="g56" transform="translate(9.7339,20.2827)"><path id="path58" d="m 0,0 c 0,5.834 3.676,10.563 8.21,10.563 4.535,0 8.211,-4.729 8.211,-10.563 0,-5.833 -3.676,-10.286 -8.211,-10.286 C 3.676,-10.286 0,-5.833 0,0" style="fill:#f3d2a2;fill-opacity:1;fill-rule:nonzero;stroke:none"/></g><g id="g60" transform="translate(17.9443,12.457)"><path id="path62" d="m 0,0 c -1.605,0 -2.446,0.794 -2.536,0.885 -0.268,0.266 -0.268,0.7 0,0.967 0.265,0.264 0.692,0.266 0.96,0.006 C -1.541,1.826 -1.023,1.367 0,1.367 1.039,1.367 1.557,1.84 1.577,1.859 1.851,2.115 2.28,2.107 2.54,1.84 2.8,1.571 2.8,1.148 2.536,0.885 2.446,0.794 1.606,0 0,0" style="fill:#df1f32;fill-opacity:1;fill-rule:nonzero;stroke:none"/></g><g id="g64" transform="translate(14.6084,18.1138)"><path id="path66" d="m 0,0 0,0 c -0.465,0 -0.846,0.381 -0.846,0.846 l 0,0.845 c 0,0.465 0.381,0.846 0.846,0.846 0.465,0 0.847,-0.381 0.847,-0.846 l 0,-0.845 C 0.847,0.381 0.465,0 0,0" style="fill:#662113;fill-opacity:1;fill-rule:nonzero;stroke:none"/></g><g id="g68" transform="translate(21.373,18.1138)"><path id="path70" d="m 0,0 0,0 c -0.465,0 -0.846,0.381 -0.846,0.846 l 0,0.845 c 0,0.465 0.381,0.846 0.846,0.846 0.465,0 0.846,-0.381 0.846,-0.846 l 0,-0.845 C 0.846,0.381 0.465,0 0,0" style="fill:#662113;fill-opacity:1;fill-rule:nonzero;stroke:none"/></g><g id="g72" transform="translate(18.8369,15.5)"><path id="path74" d="m 0,0 -1.691,0 c -0.234,0 -0.423,0.189 -0.423,0.423 l 0,0.153 C -2.114,0.81 -1.925,1 -1.691,1 L 0,1 C 0.232,1 0.423,0.81 0.423,0.576 l 0,-0.153 C 0.423,0.189 0.232,0 0,0" style="fill:#c1694f;fill-opacity:1;fill-rule:nonzero;stroke:none"/></g></g></g><g id="g76"><g id="g78" clip-path="url(#clipPath80)"><g id="g84" transform="translate(11.5,20.1221)"><path id="path86" d="m 0,0 c 0,-1.448 -0.734,-2.622 -1.639,-2.622 -0.905,0 -1.639,1.174 -1.639,2.622 0,1.448 0.734,2.623 1.639,2.623 C -0.734,2.623 0,1.448 0,0" style="fill:#f3d2a2;fill-opacity:1;fill-rule:nonzero;stroke:none"/></g><g id="g88" transform="translate(27.833,20.0645)"><path id="path90" d="m 0,0 c 0,-1.448 -0.733,-2.622 -1.639,-2.622 -0.905,0 -1.638,1.174 -1.638,2.622 0,1.448 0.733,2.623 1.638,2.623 C -0.733,2.623 0,1.448 0,0" style="fill:#f3d2a2;fill-opacity:1;fill-rule:nonzero;stroke:none"/></g><g id="g92" transform="translate(18,26.2715)"><path id="path94" d="m 0,0 c 0,0 6.752,-1.756 7.787,-4.916 0.451,0.965 0.713,3.138 0.713,4.33 0,3.626 -3,6.315 -7.438,6.315 l -2.124,0 c -3.896,0 -7.438,-2.689 -7.438,-6.315 0,-1.192 0.262,-3.491 0.712,-4.455 C -6.752,-1.88 0,0 0,0" style="fill:#e6e7e8;fill-opacity:1;fill-rule:nonzero;stroke:none"/></g><g id="g96" transform="translate(26.4775,25.0986)"><path id="path98" d="M 0,0 C -1.318,1.053 -2.866,1.922 -4.348,2.416 -4.692,2.531 -5.061,2.344 -5.175,2.003 -5.289,1.66 -5.104,1.29 -4.762,1.175 -3.188,0.651 -1.47,-0.389 -0.159,-1.586 -0.08,-1.038 -0.026,-0.485 0,0" style="fill:#d1d3d4;fill-opacity:1;fill-rule:nonzero;stroke:none"/></g><g id="g100" transform="translate(9.6104,24.0273)"><path id="path102" d="M 0,0 C 1.895,1.355 8.186,5.421 15.434,5.477 15.023,5.949 14.544,6.371 14.008,6.73 7.674,6.259 2.259,3.104 -0.105,1.515 -0.096,1.085 -0.062,0.558 0,0" style="fill:#d1d3d4;fill-opacity:1;fill-rule:nonzero;stroke:none"/></g><g id="g104" transform="translate(25.9248,28.186)"><path id="path106" d="m 0,0 c -0.027,0.003 -0.051,0.016 -0.079,0.016 -2.677,0 -5.386,-0.672 -8.054,-1.992 0.132,0.04 0.208,0.061 0.208,0.061 0,0 0.771,-0.2 1.829,-0.586 2.008,0.798 4.026,1.209 6.017,1.209 0.192,0 0.36,0.086 0.48,0.217 C 0.305,-0.702 0.169,-0.343 0,0" style="fill:#d1d3d4;fill-opacity:1;fill-rule:nonzero;stroke:none"/></g><g id="g108" transform="translate(9.6772,27.1196)"><path id="path110" d="M 0,0 C 2.339,1.498 6.791,3.734 11.74,4.596 10.989,4.818 10.196,4.88 9.385,4.88 l -1.667,0 C 5.146,3.88 2.853,3.065 1.087,2.092 0.581,1.452 0.204,0.788 0,0" style="fill:#d1d3d4;fill-opacity:1;fill-rule:nonzero;stroke:none"/></g></g></g></g></svg>