<svg xmlns="http://www.w3.org/2000/svg" xmlns:svg="http://www.w3.org/2000/svg" style="enable-background:new 0 0 45 45" id="svg2" version="1.1" viewBox="0 0 45 45" xml:space="preserve"><metadata id="metadata8"/><defs id="defs6"><clipPath id="clipPath16" clipPathUnits="userSpaceOnUse"><path id="path18" d="M 0,36 36,36 36,0 0,0 0,36 Z"/></clipPath></defs><g id="g10" transform="matrix(1.25,0,0,-1.25,0,45)"><g id="g12"><g id="g14" clip-path="url(#clipPath16)"><g id="g20" transform="translate(32,16)"><path id="path22" d="m 0,0 c 0,2.21 -1.119,4.001 -2.5,4.001 -0.012,0 -0.021,-0.005 -0.033,-0.006 -1.512,6.301 -6.073,10.88 -11.467,10.88 -5.394,0 -9.956,-4.579 -11.467,-10.88 -0.012,10e-4 -0.022,0.006 -0.033,0.006 -1.381,0 -2.5,-1.791 -2.5,-4.001 0,-2.107 1.021,-3.815 2.314,-3.97 1.223,-6.649 5.985,-11.03 11.686,-11.03 5.7,0 10.463,4.381 11.686,11.03 C -1.021,-3.815 0,-2.107 0,0" style="fill:#7c533e;fill-opacity:1;fill-rule:nonzero;stroke:none"/></g><g id="g24" transform="translate(13,15)"><path id="path26" d="m 0,0 c -0.552,0 -1,0.447 -1,1 l 0,2 C -1,3.552 -0.552,4 0,4 0.552,4 1,3.552 1,3 L 1,1 C 1,0.447 0.552,0 0,0" style="fill:#000;fill-opacity:1;fill-rule:nonzero;stroke:none"/></g><g id="g28" transform="translate(23,15)"><path id="path30" d="m 0,0 c -0.553,0 -1,0.447 -1,1 l 0,2 C -1,3.552 -0.553,4 0,4 0.553,4 1,3.552 1,3 L 1,1 C 1,0.447 0.553,0 0,0" style="fill:#000;fill-opacity:1;fill-rule:nonzero;stroke:none"/></g><g id="g32" transform="translate(18,5)"><path id="path34" d="m 0,0 c -4.201,0 -5.491,1.077 -5.707,1.293 -0.391,0.391 -0.391,1.023 0,1.414 0.378,0.379 0.984,0.39 1.376,0.036 C -4.251,2.686 -3.231,2 0,2 3.355,2 4.326,2.739 4.336,2.747 4.726,3.136 5.337,3.117 5.729,2.727 6.119,2.336 6.098,1.684 5.707,1.293 5.491,1.077 4.201,0 0,0" style="fill:#3d2e24;fill-opacity:1;fill-rule:nonzero;stroke:none"/></g><g id="g36" transform="translate(19,10)"><path id="path38" d="m 0,0 -2,0 c -0.552,0 -1,0.447 -1,1 0,0.553 0.448,1 1,1 L 0,2 C 0.553,2 1,1.553 1,1 1,0.447 0.553,0 0,0" style="fill:#3d2e24;fill-opacity:1;fill-rule:nonzero;stroke:none"/></g><g id="g40" transform="translate(18,35.0005)"><path id="path42" d="m 0,0 c 8,0 13,-6 13,-11 0,-5 -1,-7 -2,-5 l -2,4 c 0,0 -6,0 -8,2 0,0 3,-6 -3,0 0,0 1,-4 -5,1 0,0 -3,-2 -4,-7 -0.277,-1.387 -2,0 -2,5 0,5 4,11 13,11" style="fill:#ffe51e;fill-opacity:1;fill-rule:nonzero;stroke:none"/></g></g></g></g></svg>