<svg xmlns="http://www.w3.org/2000/svg" xmlns:svg="http://www.w3.org/2000/svg" style="enable-background:new 0 0 45 45" id="svg2" version="1.1" viewBox="0 0 45 45" xml:space="preserve"><metadata id="metadata8"/><defs id="defs6"><clipPath id="clipPath16" clipPathUnits="userSpaceOnUse"><path id="path18" d="M 0,36 36,36 36,0 0,0 0,36 Z"/></clipPath></defs><g id="g10" transform="matrix(1.25,0,0,-1.25,0,45)"><g id="g12"><g id="g14" clip-path="url(#clipPath16)"><g id="g20" transform="translate(30.0006,16.3438)"><path id="path22" d="m 0,0 c 0,-6.627 -5.373,-12 -12,-12 -6.627,0 -12,5.373 -12,12 0,6.628 5.373,12 12,12 C -5.373,12 0,6.628 0,0" style="fill:#60352a;fill-opacity:1;fill-rule:nonzero;stroke:none"/></g><g id="g24" transform="translate(20.0006,28)"><path id="path26" d="m 0,0 c 0,-3.866 -3.134,-7 -7,-7 -3.866,0 -7,3.134 -7,7 0,3.866 3.134,7 7,7 3.866,0 7,-3.134 7,-7" style="fill:#60352a;fill-opacity:1;fill-rule:nonzero;stroke:none"/></g><g id="g28" transform="translate(8.0006,25)"><path id="path30" d="m 0,0 c 0,-6.075 4.925,-11 11,-11 6.075,0 11,4.925 11,11 C 22,6.075 17.075,11 11,11 4.925,11 0,6.075 0,0" style="fill:#60352a;fill-opacity:1;fill-rule:nonzero;stroke:none"/></g><g id="g32" transform="translate(30.0006,16)"><path id="path34" d="M 0,0 -24,0 -24,12 0,9 0,0 Z" style="fill:#60352a;fill-opacity:1;fill-rule:nonzero;stroke:none"/></g><g id="g36" transform="translate(27.0006,9)"><path id="path38" d="m 0,0 -1,0 -16,0 -1,0 c -2.209,0 -4,-1.791 -4,-4 l 0,-5 5,0 16,0 5,0 0,5 C 4,-1.791 2.209,0 0,0" style="fill:#9268ca;fill-opacity:1;fill-rule:nonzero;stroke:none"/></g><path id="path40" d="m 27.001,0 -1,0 0,4 1,0 0,-4 z" style="fill:#7450a8;fill-opacity:1;fill-rule:nonzero;stroke:none"/><path id="path42" d="m 10.001,0 -1,0 0,4 1,0 0,-4 z" style="fill:#7450a8;fill-opacity:1;fill-rule:nonzero;stroke:none"/><g id="g44" transform="translate(15.0006,14)"><path id="path46" d="m 0,0 0,-6 c 0,-1.657 1.343,-3 3,-3 1.657,0 3,1.343 3,3 L 6,0 0,0 Z" style="fill:#af7e57;fill-opacity:1;fill-rule:nonzero;stroke:none"/></g><g id="g48" transform="translate(14.0006,31)"><path id="path50" d="M 0,0 C 0,0 -0.003,-5.308 -5,-5.936 L -5,-12 c 0,-4.971 4.029,-9 9,-9 4.971,0 9,4.029 9,9 l 0,5.019 C 1.89,-6.605 0,0 0,0" style="fill:#af7e57;fill-opacity:1;fill-rule:nonzero;stroke:none"/></g><g id="g52" transform="translate(20.0006,14)"><path id="path54" d="m 0,0 c 0,-0.553 -0.896,-1 -2,-1 -1.105,0 -2,0.447 -2,1 0,0.553 0.895,1 2,1 1.104,0 2,-0.447 2,-1" style="fill:#df1f32;fill-opacity:1;fill-rule:nonzero;stroke:none"/></g><g id="g56" transform="translate(19.0006,16.5)"><path id="path58" d="M 0,0 -2,0 C -2.276,0 -2.5,0.224 -2.5,0.5 -2.5,0.776 -2.276,1 -2,1 L 0,1 C 0.276,1 0.5,0.776 0.5,0.5 0.5,0.224 0.276,0 0,0" style="fill:#915a34;fill-opacity:1;fill-rule:nonzero;stroke:none"/></g><g id="g60" transform="translate(5.5611,30.9682)"><path id="path62" d="m 0,0 5.189,3.823 1.639,0.188 0,-2.839 3.004,-0.693 c 0.689,-0.161 1.119,-0.849 0.96,-1.538 -0.158,-0.69 -0.847,-1.12 -1.536,-0.961 L 5.168,-1.078 3.123,-3.123 C 2.781,-3.466 2.207,-3.786 1.605,-3.981 l -0.774,-6.38 c 0,0 0,-1 -0.999,-1 -0.999,0 -0.999,1 -0.999,1 l 0,7.995 L 0,0 Z" style="fill:#90603e;fill-opacity:1;fill-rule:nonzero;stroke:none"/></g><g id="g64" transform="translate(5.1685,31.3608)"><path id="path66" d="m 0,0 2.231,2.231 0.599,2.408 4.001,0 0,-3.467 3.001,-0.693 c 0.689,-0.161 1.119,-0.849 0.96,-1.538 -0.158,-0.69 -0.847,-1.12 -1.536,-0.961 L 5.168,-1.078 3.123,-3.123 C 2.781,-3.466 2.207,-3.786 1.605,-3.981 l -0.774,-6.38 c 0,0 0,-1 -0.999,-1 -0.999,0 -0.999,1 -0.999,1 l 0,7.995 L 0,0 Z" style="fill:#af7e57;fill-opacity:1;fill-rule:nonzero;stroke:none"/></g><g id="g68" transform="translate(30.4401,30.9682)"><path id="path70" d="m 0,0 -5.846,3.594 -0.982,0.417 0,-2.839 -3.004,-0.693 c -0.689,-0.161 -1.119,-0.849 -0.96,-1.538 0.158,-0.69 0.847,-1.12 1.536,-0.961 l 4.088,0.942 2.045,-2.045 c 0.342,-0.343 0.916,-0.663 1.518,-0.858 l 0.774,-6.38 c 0,0 0,-1 0.999,-1 0.999,0 0.999,1 0.999,1 l 0,7.995 L 0,0 Z" style="fill:#90603e;fill-opacity:1;fill-rule:nonzero;stroke:none"/></g><g id="g72" transform="translate(30.8327,31.3608)"><path id="path74" d="m 0,0 -2.231,2.231 -0.599,2.408 -3.998,0 0,-3.467 -3.004,-0.693 c -0.689,-0.161 -1.119,-0.849 -0.96,-1.538 0.158,-0.69 0.847,-1.12 1.536,-0.961 l 4.088,0.942 2.045,-2.045 c 0.342,-0.343 0.916,-0.663 1.518,-0.858 l 0.774,-6.38 c 0,0 0,-1 0.999,-1 0.999,0 0.999,1 0.999,1 l 0,7.995 L 0,0 Z" style="fill:#af7e57;fill-opacity:1;fill-rule:nonzero;stroke:none"/></g><g id="g76" transform="translate(23.9064,20.9441)"><path id="path78" d="m 0,0 c -0.088,0.071 -0.213,0.074 -0.305,0.007 -0.006,-0.005 -0.631,-0.451 -1.851,-0.451 -1.221,0 -1.846,0.446 -1.85,0.45 -0.092,0.068 -0.217,0.066 -0.306,-0.005 -0.089,-0.071 -0.119,-0.193 -0.073,-0.297 0.03,-0.067 0.75,-1.648 2.229,-1.648 1.479,0 2.199,1.581 2.228,1.648 C 0.118,-0.192 0.088,-0.071 0,0" style="fill:#60352a;fill-opacity:1;fill-rule:nonzero;stroke:none"/></g><g id="g80" transform="translate(16.4063,20.9441)"><path id="path82" d="m 0,0 c -0.088,0.071 -0.213,0.074 -0.305,0.007 -0.006,-0.005 -0.631,-0.451 -1.851,-0.451 -1.221,0 -1.846,0.446 -1.85,0.45 -0.092,0.068 -0.217,0.066 -0.306,-0.005 -0.089,-0.071 -0.119,-0.193 -0.073,-0.297 0.03,-0.067 0.75,-1.648 2.229,-1.648 1.479,0 2.199,1.581 2.228,1.648 C 0.118,-0.192 0.088,-0.071 0,0" style="fill:#60352a;fill-opacity:1;fill-rule:nonzero;stroke:none"/></g></g></g></g></svg>