<svg xmlns="http://www.w3.org/2000/svg" xmlns:svg="http://www.w3.org/2000/svg" style="enable-background:new 0 0 45 45" id="svg2" version="1.1" viewBox="0 0 45 45" xml:space="preserve"><metadata id="metadata8"/><g id="g10" transform="matrix(1.25,0,0,-1.25,0,45)"><g id="g12" transform="translate(7.0002,33.0003)"><path id="path14" d="M 0,0 -7,-9 3,-9 5.999,0 0,0 Z" style="fill:#bdddf4;fill-opacity:1;fill-rule:nonzero;stroke:none"/></g><g id="g16" transform="translate(23.0004,33.0003)"><path id="path18" d="M 0,0 3,-9 13,-9 5.999,0 0,0 Z" style="fill:#5dadec;fill-opacity:1;fill-rule:nonzero;stroke:none"/></g><g id="g20" transform="translate(26.0001,24.0003)"><path id="path22" d="M 0,0 -8,-21.001 10,0 0,0 Z" style="fill:#4289c1;fill-opacity:1;fill-rule:nonzero;stroke:none"/></g><g id="g24" transform="translate(0,24.0003)"><path id="path26" d="M 0,0 18,-21.001 10,0 0,0 Z" style="fill:#8ccaf7;fill-opacity:1;fill-rule:nonzero;stroke:none"/></g><g id="g28" transform="translate(13,33)"><path id="path30" d="M 0,0 -3,-9 13,-9 10,0 0,0 Z" style="fill:#8ccaf7;fill-opacity:1;fill-rule:nonzero;stroke:none"/></g><g id="g32" transform="translate(18,3)"><path id="path34" d="M 0,0 -8,21 8,21 0,0 Z" style="fill:#5dadec;fill-opacity:1;fill-rule:nonzero;stroke:none"/></g></g></svg>