<svg xmlns="http://www.w3.org/2000/svg" xmlns:svg="http://www.w3.org/2000/svg" style="enable-background:new 0 0 45 45" id="svg2" version="1.1" viewBox="0 0 45 45" xml:space="preserve"><metadata id="metadata8"/><defs id="defs6"><clipPath id="clipPath16" clipPathUnits="userSpaceOnUse"><path id="path18" d="M 0,0 36,0 36,36 0,36 0,0 Z"/></clipPath></defs><g id="g10" transform="matrix(1.25,0,0,-1.25,0,45)"><g id="g12"><g id="g14" clip-path="url(#clipPath16)"><g id="g20" transform="translate(27,18)"><path id="path22" d="m 0,0 c 0,-4.971 -4.029,-5 -9,-5 -4.971,0 -9,0.029 -9,5 0,8.938 4.029,9 9,9 4.971,0 9,-0.101 9,-9" style="fill:#292f33;fill-opacity:1;fill-rule:nonzero;stroke:none"/></g><g id="g24" transform="translate(28,0)"><path id="path26" d="M 0,0 0,2.5 C 0,5.814 -1.686,8 -5,8 l -10,0 c -3.313,0 -5,-2.186 -5,-5.5 L -20,0 0,0 Z" style="fill:#dd2e44;fill-opacity:1;fill-rule:nonzero;stroke:none"/></g><g id="g28" transform="translate(17.9438,26.1904)"><path id="path30" d="m 0,0 c 3.099,0 8.265,-1.55 8.265,-8.265 0,-6.716 0,-8.265 -1.55,-8.265 -1.549,0 -3.616,1.549 -6.715,1.549 -3.099,0 -5.121,-1.549 -6.715,-1.549 -1.727,0 -1.55,6.199 -1.55,8.265 C -8.265,-1.55 -3.099,0 0,0" style="fill:#292f33;fill-opacity:1;fill-rule:nonzero;stroke:none"/></g><g id="g32" transform="translate(14.8628,7.4873)"><path id="path34" d="m 0,0 c 1.249,-0.908 2.041,-1.153 3.124,-1.153 1.082,0 1.874,0.246 3.123,1.153 l 0,2.729 L 0,2.729 0,0 Z" style="fill:#f7dece;fill-opacity:1;fill-rule:nonzero;stroke:none"/></g><g id="g36" transform="translate(10.9482,17.1172)"><path id="path38" d="m 0,0 c 0,4.97 3.132,9 6.996,9 3.863,0 6.996,-4.03 6.996,-9 0,-4.97 -3.133,-8.763 -6.996,-8.763 C 3.132,-8.763 0,-4.97 0,0" style="fill:#f7dece;fill-opacity:1;fill-rule:nonzero;stroke:none"/></g><g id="g40" transform="translate(17.9438,10.4492)"><path id="path42" d="m 0,0 c -1.368,0 -2.084,0.676 -2.161,0.754 -0.228,0.228 -0.228,0.596 0,0.824 0.226,0.226 0.59,0.227 0.819,0.006 C -1.313,1.557 -0.873,1.166 0,1.166 0.885,1.166 1.325,1.568 1.344,1.585 1.576,1.802 1.943,1.796 2.166,1.568 2.385,1.339 2.386,0.979 2.162,0.754 2.085,0.676 1.368,0 0,0" style="fill:#df1f32;fill-opacity:1;fill-rule:nonzero;stroke:none"/></g><g id="g44" transform="translate(15.1704,15.2695)"><path id="path46" d="m 0,0 -0.137,0 c -0.359,0 -0.652,0.293 -0.652,0.651 l 0,0.859 c 0,0.357 0.293,0.65 0.652,0.65 L 0,2.16 c 0.358,0 0.652,-0.293 0.652,-0.65 l 0,-0.859 C 0.652,0.293 0.358,0 0,0" style="fill:#662113;fill-opacity:1;fill-rule:nonzero;stroke:none"/></g><g id="g48" transform="translate(20.9346,15.2695)"><path id="path50" d="m 0,0 -0.138,0 c -0.358,0 -0.651,0.293 -0.651,0.651 l 0,0.859 c 0,0.357 0.293,0.65 0.651,0.65 L 0,2.16 c 0.357,0 0.651,-0.293 0.651,-0.65 l 0,-0.859 C 0.651,0.293 0.357,0 0,0" style="fill:#662113;fill-opacity:1;fill-rule:nonzero;stroke:none"/></g><g id="g52" transform="translate(18.6787,13.042)"><path id="path54" d="m 0,0 -1.391,0 c -0.212,0 -0.385,0.173 -0.385,0.385 l 0,0.082 c 0,0.212 0.173,0.385 0.385,0.385 l 1.391,0 c 0.212,0 0.385,-0.173 0.385,-0.385 l 0,-0.082 C 0.385,0.173 0.212,0 0,0" style="fill:#c1694f;fill-opacity:1;fill-rule:nonzero;stroke:none"/></g><g id="g56" transform="translate(13.5781,6.5088)"><path id="path58" d="m 0,0 -4.653,-0.737 c -0.272,-0.043 -0.529,0.143 -0.572,0.416 l -0.157,0.987 c -0.043,0.271 0.144,0.528 0.416,0.571 l 4.653,0.738 C -0.041,2.018 0.216,1.831 0.259,1.56 L 0.416,0.571 C 0.459,0.3 0.272,0.043 0,0" style="fill:#292f33;fill-opacity:1;fill-rule:nonzero;stroke:none"/></g><g id="g60" transform="translate(22.4482,6.5088)"><path id="path62" d="m 0,0 4.652,-0.737 c 0.273,-0.043 0.53,0.143 0.573,0.416 L 5.382,0.666 C 5.425,0.937 5.237,1.194 4.966,1.237 L 0.312,1.975 C 0.041,2.018 -0.217,1.831 -0.26,1.56 L -0.416,0.571 C -0.459,0.3 -0.272,0.043 0,0" style="fill:#292f33;fill-opacity:1;fill-rule:nonzero;stroke:none"/></g><path id="path64" d="m 18.5,0 -1,0 0,6 1,0 0,-6 z" style="fill:#f5f8fa;fill-opacity:1;fill-rule:nonzero;stroke:none"/><g id="g66" transform="translate(14.8701,9.0293)"><path id="path68" d="m 0,0 c 0,0 -0.574,0.117 -0.574,-1.096 0,-1.214 1.704,-2.778 3.704,-2.778 l 0,1.852 C 2.13,-2.022 0,-1.459 0,0" style="fill:#292f33;fill-opacity:1;fill-rule:nonzero;stroke:none"/></g><g id="g70" transform="translate(21.1299,9.0293)"><path id="path72" d="m 0,0 c 0,0 0.574,0.117 0.574,-1.096 0,-1.214 -1.748,-2.778 -3.704,-2.778 l 0,1.852 C -2.071,-2.022 0,-1.459 0,0" style="fill:#292f33;fill-opacity:1;fill-rule:nonzero;stroke:none"/></g><g id="g74" transform="translate(11.875,18)"><path id="path76" d="m 0,0 c 0,0 -0.174,-9 6.113,-9 6.287,0 6.137,9 6.137,9 l 0.875,0 c 0,0 -0.307,-10 -7,-10 -6.693,0 -7,10 -7,10 L 0,0 Z" style="fill:#99aab5;fill-opacity:1;fill-rule:nonzero;stroke:none"/></g><g id="g78" transform="translate(26,18)"><path id="path80" d="m 0,0 -16,0 c -0.55,0 -1,0.45 -1,1 l 0,11 c 0,3.3 2.7,6 6,6 l 6,0 c 3.3,0 6,-2.7 6,-6 L 1,1 C 1,0.45 0.55,0 0,0" style="fill:#292f33;fill-opacity:1;fill-rule:nonzero;stroke:none"/></g></g></g></g></svg>