<svg xmlns="http://www.w3.org/2000/svg" xmlns:svg="http://www.w3.org/2000/svg" style="enable-background:new 0 0 45 45" id="svg2" version="1.1" viewBox="0 0 45 45" xml:space="preserve"><metadata id="metadata8"/><defs id="defs6"><clipPath id="clipPath16" clipPathUnits="userSpaceOnUse"><path id="path18" d="M 0,36 36,36 36,0 0,0 0,36 Z"/></clipPath></defs><g id="g10" transform="matrix(1.25,0,0,-1.25,0,45)"><g id="g12"><g id="g14" clip-path="url(#clipPath16)"><g id="g20" transform="translate(35.8848,24.1665)"><path id="path22" d="m 0,0 c 0,5.45 -4.418,9.868 -9.867,9.868 -3.308,0 -6.227,-1.633 -8.018,-4.129 -1.79,2.496 -4.71,4.129 -8.017,4.129 -5.45,0 -9.868,-4.418 -9.868,-9.868 0,-0.772 0.098,-1.52 0.266,-2.241 1.371,-8.512 10.835,-17.494 17.619,-19.96 6.783,2.466 16.249,11.448 17.617,19.96 C -0.098,-1.52 0,-0.772 0,0" style="fill:#e75a70;fill-opacity:1;fill-rule:nonzero;stroke:none"/></g><g id="g24" transform="translate(36,21.0005)"><path id="path26" d="m 0,0 c -1,-5.001 -4,-8.001 -4,-8.001 l -28,0 c 0,0 -3,3 -4,8.001 L 0,0 Z" style="fill:#fdd888;fill-opacity:1;fill-rule:nonzero;stroke:none"/></g><g id="g28" transform="translate(14,18)"><path id="path30" d="m 0,0 0,-18 -5,5 -5,-5 0,18 10,0 z" style="fill:#fdd888;fill-opacity:1;fill-rule:nonzero;stroke:none"/></g><g id="g32" transform="translate(16.8022,26.8062)"><path id="path34" d="M 0,0 -7.879,-5.515 -15.757,0 c -0.575,0.402 -1.045,0.158 -1.045,-0.544 l 0,-14.659 c 0,-0.703 0.48,-0.964 1.069,-0.582 l 7.854,5.106 7.855,-5.106 c 0.588,-0.382 1.068,-0.121 1.068,0.582 l 0,14.659 C 1.044,0.158 0.574,0.402 0,0" style="fill:#fdcb58;fill-opacity:1;fill-rule:nonzero;stroke:none"/></g><g id="g36" transform="translate(13,19)"><path id="path38" d="m 0,0 c 0,-2.21 -1.79,-4 -4,-4 -2.209,0 -4,1.79 -4,4 0,2.21 1.791,4 4,4 2.21,0 4,-1.79 4,-4" style="fill:#fdd888;fill-opacity:1;fill-rule:nonzero;stroke:none"/></g></g></g></g></svg>