<svg xmlns="http://www.w3.org/2000/svg" xmlns:svg="http://www.w3.org/2000/svg" style="enable-background:new 0 0 45 45" id="svg2" version="1.1" viewBox="0 0 45 45" xml:space="preserve"><metadata id="metadata8"/><defs id="defs6"><clipPath id="clipPath16" clipPathUnits="userSpaceOnUse"><path id="path18" d="M 0,36 36,36 36,0 0,0 0,36 Z"/></clipPath><clipPath id="clipPath32" clipPathUnits="userSpaceOnUse"><path id="path34" d="M 3.777,18 C 3.777,10.147 10.145,3.777 18,3.777 l 0,0 c 7.853,0 14.223,6.37 14.223,14.223 l 0,0 c 0,7.855 -6.37,14.223 -14.223,14.223 l 0,0 C 10.145,32.223 3.777,25.855 3.777,18 m 9.988,0 c 0,2.34 1.895,4.235 4.235,4.235 l 0,0 c 2.338,0 4.236,-1.895 4.236,-4.235 l 0,0 c 0,-2.338 -1.898,-4.236 -4.236,-4.236 l 0,0 c -2.34,0 -4.235,1.898 -4.235,4.236"/></clipPath><clipPath id="clipPath56" clipPathUnits="userSpaceOnUse"><path id="path58" d="M 0,36 36,36 36,0 0,0 0,36 Z"/></clipPath></defs><g id="g10" transform="matrix(1.25,0,0,-1.25,0,45)"><g id="g12"><g id="g14" clip-path="url(#clipPath16)"><g id="g20" transform="translate(36,4)"><path id="path22" d="m 0,0 c 0,-2.209 -1.791,-4 -4,-4 l -28,0 c -2.209,0 -4,1.791 -4,4 l 0,28 c 0,2.209 1.791,4 4,4 l 28,0 c 2.209,0 4,-1.791 4,-4 L 0,0 Z" style="fill:#292f33;fill-opacity:1;fill-rule:nonzero;stroke:none"/></g><g id="g24" transform="translate(18,20.667)"><path id="path26" d="m 0,0 c -1.473,0 -2.667,-1.194 -2.667,-2.667 0,-1.474 1.194,-2.666 2.667,-2.666 1.474,0 2.666,1.192 2.666,2.666 C 2.666,-1.194 1.474,0 0,0 m 16,-2.667 c 0,-8.836 -7.164,-16 -16,-16 -8.836,0 -16,7.164 -16,16 0,8.836 7.164,16 16,16 8.836,0 16,-7.164 16,-16" style="fill:#ffd983;fill-opacity:1;fill-rule:nonzero;stroke:none"/></g></g></g><g id="g28"><g id="g30" clip-path="url(#clipPath32)"><g id="g36" transform="translate(18,18)"><path id="path38" d="M 0,0 -16,1.777 -16,16 -1.777,16 0,0 Z" style="fill:#ffac33;fill-opacity:1;fill-rule:nonzero;stroke:none"/></g><g id="g40" transform="translate(18,18)"><path id="path42" d="M 0,0 16,-1.777 16,-16 1.777,-16 0,0 Z" style="fill:#ffac33;fill-opacity:1;fill-rule:nonzero;stroke:none"/></g><g id="g44" transform="translate(18.0005,17.9995)"><path id="path46" d="M 0,0 1.888,-16.888 15.999,-15.999 0,0 Z" style="fill:#ffe8b6;fill-opacity:1;fill-rule:nonzero;stroke:none"/></g><g id="g48" transform="translate(18.0005,17.9995)"><path id="path50" d="M 0,0 -16.001,16.001 -1.778,16.889 0,0 Z" style="fill:#ffe8b6;fill-opacity:1;fill-rule:nonzero;stroke:none"/></g></g></g><g id="g52"><g id="g54" clip-path="url(#clipPath56)"><g id="g60" transform="translate(36,15)"><path id="path62" d="m 0,0 c 0,-1.104 -0.895,-2 -2,-2 l -11,0 c -1.104,0 -2,0.896 -2,2 l 0,6 c 0,1.105 0.896,2 2,2 L -2,8 C -0.895,8 0,7.105 0,6 L 0,0 Z" style="fill:#f5f8fa;fill-opacity:1;fill-rule:nonzero;stroke:none"/></g></g></g></g></svg>