<svg xmlns="http://www.w3.org/2000/svg" xmlns:svg="http://www.w3.org/2000/svg" style="enable-background:new 0 0 45 45" id="svg2" version="1.1" viewBox="0 0 45 45" xml:space="preserve"><metadata id="metadata8"/><defs id="defs6"><clipPath id="clipPath16" clipPathUnits="userSpaceOnUse"><path id="path18" d="M 0,36 36,36 36,0 0,0 0,36 Z"/></clipPath><clipPath id="clipPath28" clipPathUnits="userSpaceOnUse"><path id="path30" d="M 2,18 C 2,9.164 9.164,2 18,2 l 0,0 c 8.836,0 16,7.164 16,16 l 0,0 c 0,8.836 -7.164,16 -16,16 l 0,0 C 9.164,34 2,26.836 2,18 m 11.235,0 c 0,2.632 2.133,4.765 4.765,4.765 l 0,0 c 2.631,0 4.766,-2.133 4.766,-4.765 l 0,0 c 0,-2.631 -2.135,-4.766 -4.766,-4.766 l 0,0 c -2.632,0 -4.765,2.135 -4.765,4.766"/></clipPath></defs><g id="g10" transform="matrix(1.25,0,0,-1.25,0,45)"><g id="g12"><g id="g14" clip-path="url(#clipPath16)"><g id="g20" transform="translate(18,21)"><path id="path22" d="m 0,0 c -1.657,0 -3,-1.343 -3,-3 0,-1.657 1.343,-3 3,-3 1.657,0 3,1.343 3,3 0,1.657 -1.343,3 -3,3 m 18,-3 c 0,-9.941 -8.059,-18 -18,-18 -9.941,0 -18,8.059 -18,18 0,9.941 8.059,18 18,18 9.941,0 18,-8.059 18,-18" style="fill:#8899a6;fill-opacity:1;fill-rule:nonzero;stroke:none"/></g></g></g><g id="g24"><g id="g26" clip-path="url(#clipPath28)"><g id="g32" transform="translate(18,18)"><path id="path34" d="m 0,0 -18,2 0,16 16,0 2,-18 z" style="fill:#ccd6dd;fill-opacity:1;fill-rule:nonzero;stroke:none"/></g><g id="g36" transform="translate(18,18)"><path id="path38" d="M 0,0 18,-2 18,-18 2,-18 0,0 Z" style="fill:#ccd6dd;fill-opacity:1;fill-rule:nonzero;stroke:none"/></g><g id="g40" transform="translate(18.0005,17.9995)"><path id="path42" d="m 0,0 2.124,-18.999 15.875,1 L 0,0 Z" style="fill:#f5f8fa;fill-opacity:1;fill-rule:nonzero;stroke:none"/></g><g id="g44" transform="translate(18.0005,17.9995)"><path id="path46" d="m 0,0 -18.001,18.001 16,1 L 0,0 Z" style="fill:#f5f8fa;fill-opacity:1;fill-rule:nonzero;stroke:none"/></g></g></g></g></svg>