<svg xmlns="http://www.w3.org/2000/svg" xmlns:svg="http://www.w3.org/2000/svg" style="enable-background:new 0 0 45 45" id="svg2" version="1.1" viewBox="0 0 45 45" xml:space="preserve"><metadata id="metadata8"/><defs id="defs6"><clipPath id="clipPath16" clipPathUnits="userSpaceOnUse"><path id="path18" d="M 0,36 36,36 36,0 0,0 0,36 Z"/></clipPath></defs><g id="g10" transform="matrix(1.25,0,0,-1.25,0,45)"><g id="g12"><g id="g14" clip-path="url(#clipPath16)"><g id="g20" transform="translate(35,4)"><path id="path22" d="m 0,0 c 0,-2.209 -1.791,-4 -4,-4 l -26,0 c -2.209,0 -4,1.791 -4,4 l 0,28 c 0,2.209 1.791,4 4,4 l 26,0 c 2.209,0 4,-1.791 4,-4 L 0,0 Z" style="fill:#ccd6dd;fill-opacity:1;fill-rule:nonzero;stroke:none"/></g><path id="path24" d="m 26,10 5,0 0,-5 -5,0 0,5 z m -7,0 5,0 0,-5 -5,0 0,5 z m -7,0 5,0 0,-5 -5,0 0,5 z m -7,0 5,0 0,-5 -5,0 0,5 z m 5,16 -5,0 0,5 5,0 0,-5 z m 7,0 -5,0 0,5 5,0 0,-5 z m 7,0 -5,0 0,5 5,0 0,-5 z m 2,5 5,0 0,-5 -5,0 0,5 z m 0,-7 5,0 0,-5 -5,0 0,5 z m 0,-7 5,0 0,-5 -5,0 0,5 z m -7,0 5,0 0,-5 -5,0 0,5 z m -7,0 5,0 0,-5 -5,0 0,5 z m -2,-5 -5,0 0,5 5,0 0,-5 z m 0,7 -5,0 0,5 5,0 0,-5 z m 9,5 5,0 0,-5 -5,0 0,5 z m -2,-5 -5,0 0,5 5,0 0,-5 z M 32,33 4,33 C 3.447,33 3,32.552 3,32 L 3,4 C 3,3.447 3.447,3 4,3 l 28,0 c 0.553,0 1,0.447 1,1 l 0,28 c 0,0.552 -0.447,1 -1,1" style="fill:#e1e8ed;fill-opacity:1;fill-rule:nonzero;stroke:none"/><g id="g26" transform="translate(14,5)"><path id="path28" d="m 0,0 c 0,-1.104 -0.895,-2 -2,-2 l -2,0 c -1.104,0 -2,0.896 -2,2 l 0,15 c 0,1.105 0.896,2 2,2 l 2,0 c 1.105,0 2,-0.895 2,-2 L 0,0 Z" style="fill:#5c913b;fill-opacity:1;fill-rule:nonzero;stroke:none"/></g><g id="g30" transform="translate(28,5)"><path id="path32" d="m 0,0 c 0,-1.104 -0.895,-2 -2,-2 l -2,0 c -1.104,0 -2,0.896 -2,2 l 0,22 c 0,1.105 0.896,2 2,2 l 2,0 c 1.105,0 2,-0.895 2,-2 L 0,0 Z" style="fill:#9266cc;fill-opacity:1;fill-rule:nonzero;stroke:none"/></g><g id="g34" transform="translate(21,5)"><path id="path36" d="m 0,0 c 0,-1.104 -0.895,-2 -2,-2 l -2,0 c -1.104,0 -2,0.896 -2,2 l 0,8 c 0,1.105 0.896,2 2,2 l 2,0 C -0.895,10 0,9.105 0,8 L 0,0 Z" style="fill:#dd2e44;fill-opacity:1;fill-rule:nonzero;stroke:none"/></g></g></g></g></svg>