<svg xmlns="http://www.w3.org/2000/svg" xmlns:svg="http://www.w3.org/2000/svg" style="enable-background:new 0 0 45 45" id="svg2" version="1.1" viewBox="0 0 45 45" xml:space="preserve"><metadata id="metadata8"/><defs id="defs6"><clipPath id="clipPath16" clipPathUnits="userSpaceOnUse"><path id="path18" d="M 0,36 36,36 36,0 0,0 0,36 Z"/></clipPath><clipPath id="clipPath48" clipPathUnits="userSpaceOnUse"><path id="path50" d="M 7,28 7,0 25,0 c 2.209,0 4,1.791 4,4 l 0,0 0,20.335 C 29,26.545 27.544,28 25.335,28 l 0,0 L 7,28 Z"/></clipPath></defs><g id="g10" transform="matrix(1.25,0,0,-1.25,0,45)"><g id="g12"><g id="g14" clip-path="url(#clipPath16)"><g id="g20" transform="translate(35,10)"><path id="path22" d="m 0,0 c 0,-2.209 -1.791,-4 -4,-4 l -26,0 c -2.209,0 -4,1.791 -4,4 l 0,19.687 c 0,2.209 5.791,6.313 8,6.313 l 20.625,0 C -2.281,26 0,23.687 0,20.625 L 0,0 Z" style="fill:#292f33;fill-opacity:1;fill-rule:nonzero;stroke:none"/></g><g id="g24" transform="translate(33,6)"><path id="path26" d="m 0,0 c 0,-2.209 -1.791,-4 -4,-4 l -22,0 c -2.209,0 -4,1.791 -4,4 l 0,24 c 0,4.119 -0.021,4 5,4 l 21,0 c 2.209,0 4,-1.791 4,-4 L 0,0 Z" style="fill:#ccd6dd;fill-opacity:1;fill-rule:nonzero;stroke:none"/></g><g id="g28" transform="translate(31,5)"><path id="path30" d="m 0,0 c 0,-1.657 -1.343,-3 -3,-3 l -24,0 c -1.657,0 -3,1.343 -3,3 l 0,24 c 0,1.657 1.343,3 3,3 l 24,0 c 1.657,0 3,-1.343 3,-3 L 0,0 Z" style="fill:#e1e8ed;fill-opacity:1;fill-rule:nonzero;stroke:none"/></g><g id="g32" transform="translate(31,4)"><path id="path34" d="m 0,0 c 0,-2.209 -1.791,-4 -4,-4 l -21,0 c -2.209,0 -4,1.791 -4,4 l 0,22 c 0,2.209 1.791,4 4,4 l 21,0 c 2.209,0 4,-1.791 4,-4 L 0,0 Z" style="fill:#292f33;fill-opacity:1;fill-rule:nonzero;stroke:none"/></g><g id="g36" transform="translate(29,4)"><path id="path38" d="m 0,0 c 0,-2.209 -1.791,-4 -4,-4 l -19,0 c -2.209,0 -4,1.791 -4,4 l 0,20 c 0,2.209 1.791,4 4,4 l 19.335,0 C -1.456,24 0,22.544 0,20.335 L 0,0 Z" style="fill:#66757f;fill-opacity:1;fill-rule:nonzero;stroke:none"/></g><g id="g40" transform="translate(6,30)"><path id="path42" d="M 0,0 C -1.687,0 -1.731,1.922 -1,2.75 -0.168,3.691 1.125,4 3.438,4 L 5,4 5,6 2.281,6 C -1.687,6 -5,3.5 -5,0.625 L -5,-26 c 0,-2.209 1.791,-4 4,-4 l 2,0 0,30 -1,0 z" style="fill:#292f33;fill-opacity:1;fill-rule:nonzero;stroke:none"/></g></g></g><g id="g44"><g id="g46" clip-path="url(#clipPath48)"><path id="path52" d="m 10,24 -4,0 0,4 4,0 0,-4 z" style="fill:#ccd6dd;fill-opacity:1;fill-rule:nonzero;stroke:none"/><path id="path54" d="m 18,24 -4,0 0,4 4,0 0,-4 z" style="fill:#ccd6dd;fill-opacity:1;fill-rule:nonzero;stroke:none"/><path id="path56" d="m 26,24 -4,0 0,4 4,0 0,-4 z" style="fill:#ccd6dd;fill-opacity:1;fill-rule:nonzero;stroke:none"/><path id="path58" d="m 22,20 -4,0 0,4 4,0 0,-4 z" style="fill:#ccd6dd;fill-opacity:1;fill-rule:nonzero;stroke:none"/><path id="path60" d="m 30,20 -4,0 0,4 4,0 0,-4 z" style="fill:#ccd6dd;fill-opacity:1;fill-rule:nonzero;stroke:none"/><path id="path62" d="m 14,20 -4,0 0,4 4,0 0,-4 z" style="fill:#ccd6dd;fill-opacity:1;fill-rule:nonzero;stroke:none"/><path id="path64" d="m 10,16 -4,0 0,4 4,0 0,-4 z" style="fill:#ccd6dd;fill-opacity:1;fill-rule:nonzero;stroke:none"/><path id="path66" d="m 18,16 -4,0 0,4 4,0 0,-4 z" style="fill:#ccd6dd;fill-opacity:1;fill-rule:nonzero;stroke:none"/><path id="path68" d="m 26,16 -4,0 0,4 4,0 0,-4 z" style="fill:#ccd6dd;fill-opacity:1;fill-rule:nonzero;stroke:none"/><path id="path70" d="m 22,12 -4,0 0,4 4,0 0,-4 z" style="fill:#ccd6dd;fill-opacity:1;fill-rule:nonzero;stroke:none"/><path id="path72" d="m 30,12 -4,0 0,4 4,0 0,-4 z" style="fill:#ccd6dd;fill-opacity:1;fill-rule:nonzero;stroke:none"/><path id="path74" d="m 14,12 -4,0 0,4 4,0 0,-4 z" style="fill:#ccd6dd;fill-opacity:1;fill-rule:nonzero;stroke:none"/><path id="path76" d="m 10,8 -4,0 0,4 4,0 0,-4 z" style="fill:#ccd6dd;fill-opacity:1;fill-rule:nonzero;stroke:none"/><path id="path78" d="m 18,8 -4,0 0,4 4,0 0,-4 z" style="fill:#ccd6dd;fill-opacity:1;fill-rule:nonzero;stroke:none"/><path id="path80" d="m 26,8 -4,0 0,4 4,0 0,-4 z" style="fill:#ccd6dd;fill-opacity:1;fill-rule:nonzero;stroke:none"/><path id="path82" d="M 10,0 6,0 6,4 10,4 10,0 Z" style="fill:#ccd6dd;fill-opacity:1;fill-rule:nonzero;stroke:none"/><path id="path84" d="m 18,0 -4,0 0,4 4,0 0,-4 z" style="fill:#ccd6dd;fill-opacity:1;fill-rule:nonzero;stroke:none"/><path id="path86" d="m 26,0 -4,0 0,4 4,0 0,-4 z" style="fill:#ccd6dd;fill-opacity:1;fill-rule:nonzero;stroke:none"/><path id="path88" d="m 22,4 -4,0 0,4 4,0 0,-4 z" style="fill:#ccd6dd;fill-opacity:1;fill-rule:nonzero;stroke:none"/><path id="path90" d="m 30,4 -4,0 0,4 4,0 0,-4 z" style="fill:#ccd6dd;fill-opacity:1;fill-rule:nonzero;stroke:none"/><path id="path92" d="m 14,4 -4,0 0,4 4,0 0,-4 z" style="fill:#ccd6dd;fill-opacity:1;fill-rule:nonzero;stroke:none"/></g></g></g></svg>