<svg xmlns="http://www.w3.org/2000/svg" xmlns:svg="http://www.w3.org/2000/svg" style="enable-background:new 0 0 45 45" id="svg2" version="1.1" viewBox="0 0 45 45" xml:space="preserve"><metadata id="metadata8"/><defs id="defs6"><clipPath id="clipPath16" clipPathUnits="userSpaceOnUse"><path id="path18" d="M 0,36 36,36 36,0 0,0 0,36 Z"/></clipPath></defs><g id="g10" transform="matrix(1.25,0,0,-1.25,0,45)"><g id="g12"><g id="g14" clip-path="url(#clipPath16)"><g id="g20" transform="translate(14,7)"><path id="path22" d="M 0,0 C -2.209,0 -4,1.791 -4,4 -4,6.209 -2.209,8 0,8 2.209,8 4,6.209 4,4 4,1.791 2.209,0 0,0 m 0,10 c -3.314,0 -6,-2.686 -6,-6 0,-3.313 2.686,-6 6,-6 3.314,0 6,2.687 6,6 0,3.314 -2.686,6 -6,6" style="fill:#3b88c3;fill-opacity:1;fill-rule:nonzero;stroke:none"/></g><g id="g24" transform="translate(1.7832,21.9766)"><path id="path26" d="m 0,0 0,-0.021 c -1.001,-0.218 -1.783,-1.895 -1.783,-3.956 0,-2.06 0.782,-3.737 1.783,-3.956 l 0,-0.02 28.701,-7.972 0,23.884 L 0,0 Z" style="fill:#55acee;fill-opacity:1;fill-rule:nonzero;stroke:none"/></g><g id="g28" transform="translate(36,18)"><path id="path30" d="m 0,0 c 0,-6.627 -2.238,-12 -5,-12 -2.762,0 -5,5.373 -5,12 0,6.627 2.238,12 5,12 2.762,0 5,-5.373 5,-12" style="fill:#269;fill-opacity:1;fill-rule:nonzero;stroke:none"/></g></g></g></g></svg>