<svg xmlns="http://www.w3.org/2000/svg" xmlns:svg="http://www.w3.org/2000/svg" style="enable-background:new 0 0 45 45" id="svg2" version="1.1" viewBox="0 0 45 45" xml:space="preserve"><metadata id="metadata8"/><defs id="defs6"><clipPath id="clipPath16" clipPathUnits="userSpaceOnUse"><path id="path18" d="M 0,36 36,36 36,0 0,0 0,36 Z"/></clipPath></defs><g id="g10" transform="matrix(1.25,0,0,-1.25,0,45)"><g id="g12"><g id="g14" clip-path="url(#clipPath16)"><g id="g20" transform="translate(36,4)"><path id="path22" d="m 0,0 c 0,-4 -4,-4 -4,-4 l -28,0 c -4,0 -4,4 -4,4 l 0,28 c 0,4 4,4 4,4 l 28,0 c 0,0 4,0 4,-4 L 0,0 Z" style="fill:#f4900c;fill-opacity:1;fill-rule:nonzero;stroke:none"/></g><path id="path24" d="M 25,8 11,8 11,28 25,28 25,8 Z M 24,33 12,33 C 9,33 9,30 9,30 L 9,6 C 9,3 12,3 12,3 l 12,0 c 3,0 3,3 3,3 l 0,24 c 0,3 -3,3 -3,3" style="fill:#fff;fill-opacity:1;fill-rule:nonzero;stroke:none"/><g id="g26" transform="translate(2,21)"><path id="path28" d="m 0,0 0,-5 5,2 0,1 -5,2 z" style="fill:#fff;fill-opacity:1;fill-rule:nonzero;stroke:none"/></g><g id="g30" transform="translate(3,23)"><path id="path32" d="M 0,0 4,-2 4,0 0,3 0,0 Z" style="fill:#fff;fill-opacity:1;fill-rule:nonzero;stroke:none"/></g><g id="g34" transform="translate(3,14)"><path id="path36" d="M 0,0 4,2 4,0 0,-3 0,0 Z" style="fill:#fff;fill-opacity:1;fill-rule:nonzero;stroke:none"/></g><g id="g38" transform="translate(34,21)"><path id="path40" d="m 0,0 0,-5 -5,2 0,1 5,2 z" style="fill:#fff;fill-opacity:1;fill-rule:nonzero;stroke:none"/></g><g id="g42" transform="translate(33,23)"><path id="path44" d="M 0,0 -4,-2 -4,0 0,3 0,0 Z" style="fill:#fff;fill-opacity:1;fill-rule:nonzero;stroke:none"/></g><g id="g46" transform="translate(33,14)"><path id="path48" d="M 0,0 -4,2 -4,0 0,-3 0,0 Z" style="fill:#fff;fill-opacity:1;fill-rule:nonzero;stroke:none"/></g></g></g></g></svg>