<svg xmlns="http://www.w3.org/2000/svg" xmlns:svg="http://www.w3.org/2000/svg" style="enable-background:new 0 0 45 45" id="svg2" version="1.1" viewBox="0 0 45 45" xml:space="preserve"><metadata id="metadata8"/><defs id="defs6"><clipPath id="clipPath16" clipPathUnits="userSpaceOnUse"><path id="path18" d="M 0,36 36,36 36,0 0,0 0,36 Z"/></clipPath></defs><g id="g10" transform="matrix(1.25,0,0,-1.25,0,45)"><g id="g12"><g id="g14" clip-path="url(#clipPath16)"><g id="g20" transform="translate(4,0)"><path id="path22" d="m 0,0 c -2.209,0 -4,1.791 -4,4 l 0,28 c 0,2.209 1.791,4 4,4 l 28,0 c 2.209,0 4,-1.791 4,-4 L 32,4 C 32,1.791 30.209,0 28,0 L 0,0 Z" style="fill:#3b88c3;fill-opacity:1;fill-rule:nonzero;stroke:none"/></g><g id="g24" transform="translate(26,5.7998)"><path id="path26" d="m 0,0 6,7.2 -4,0 0,8 c 0,5.523 -4.477,10 -10,10 -1.414,0 -2.758,-0.297 -3.977,-0.827 l 2.75,-3.3 c 0.396,0.083 0.806,0.127 1.227,0.127 3.314,0 6,-2.686 6,-6 l 0,-8 -4,0 L 0,0 Z" style="fill:#fff;fill-opacity:1;fill-rule:nonzero;stroke:none"/></g><g id="g28" transform="translate(21.9766,5.8262)"><path id="path30" d="M 0,0 -2.749,3.301 C -3.146,3.218 -3.556,3.174 -3.977,3.174 c -3.313,0 -6,2.686 -6,6 l 0,8 4,0 -6,7.2 -6,-7.2 4,0 0,-8 c 0,-5.523 4.478,-10 10,-10 1.414,0 2.758,0.297 3.977,0.826" style="fill:#fff;fill-opacity:1;fill-rule:nonzero;stroke:none"/></g></g></g></g></svg>