<svg xmlns="http://www.w3.org/2000/svg" xmlns:svg="http://www.w3.org/2000/svg" style="enable-background:new 0 0 45 45" id="svg2" version="1.1" viewBox="0 0 45 45" xml:space="preserve"><metadata id="metadata8"/><defs id="defs6"><clipPath id="clipPath16" clipPathUnits="userSpaceOnUse"><path id="path18" d="M 0,36 36,36 36,0 0,0 0,36 Z"/></clipPath></defs><g id="g10" transform="matrix(1.25,0,0,-1.25,0,45)"><g id="g12"><g id="g14" clip-path="url(#clipPath16)"><g id="g20" transform="translate(24,32)"><path id="path22" d="m 0,0 c 0,-2.209 -1.791,-4 -4,-4 l -4,0 c -2.209,0 -4,1.791 -4,4 0,2.209 1.791,4 4,4 l 4,0 C -1.791,4 0,2.209 0,0" style="fill:#ccd6dd;fill-opacity:1;fill-rule:nonzero;stroke:none"/></g><g id="g24" transform="translate(30,4)"><path id="path26" d="m 0,0 c 0,-2.209 -1.791,-4 -4,-4 l -16,0 c -2.209,0 -4,1.791 -4,4 l 0,24 c 0,2.209 1.791,4 4,4 l 16,0 c 2.209,0 4,-1.791 4,-4 L 0,0 Z" style="fill:#e1e8ed;fill-opacity:1;fill-rule:nonzero;stroke:none"/></g><path id="path28" d="M 30,4 6,4 6,28 30,28 30,4 Z" style="fill:#77b255;fill-opacity:1;fill-rule:nonzero;stroke:none"/><g id="g30" transform="translate(23,22)"><path id="path32" d="m 0,0 -3,0 0,3 c 0,0.552 -0.447,1 -1,1 L -6,4 C -6.552,4 -7,3.552 -7,3 l 0,-3 -3,0 c -0.553,0 -1,-0.448 -1,-1 l 0,-2 c 0,-0.553 0.447,-1 1,-1 l 3,0 0,-3 c 0,-0.553 0.448,-1 1,-1 l 2,0 c 0.553,0 1,0.447 1,1 l 0,3 3,0 c 0.553,0 1,0.447 1,1 l 0,2 C 1,-0.448 0.553,0 0,0" style="fill:#f5f8fa;fill-opacity:1;fill-rule:nonzero;stroke:none"/></g><g id="g34" transform="translate(13,6)"><path id="path36" d="m 0,0 c -0.553,0 -1,0.447 -1,1 l 0,2 c 0,0.553 0.447,1 1,1 l 10,0 c 0.553,0 1,-0.447 1,-1 L 11,1 C 11,0.447 10.553,0 10,0 L 0,0 Z" style="fill:#f5f8fa;fill-opacity:1;fill-rule:nonzero;stroke:none"/></g></g></g></g></svg>