<svg xmlns="http://www.w3.org/2000/svg" xmlns:svg="http://www.w3.org/2000/svg" style="enable-background:new 0 0 45 45" id="svg2" version="1.1" viewBox="0 0 45 45" xml:space="preserve"><metadata id="metadata8"/><defs id="defs6"><clipPath id="clipPath16" clipPathUnits="userSpaceOnUse"><path id="path18" d="M 0,36 36,36 36,0 0,0 0,36 Z"/></clipPath></defs><g id="g10" transform="matrix(1.25,0,0,-1.25,0,45)"><g id="g12"><g id="g14" clip-path="url(#clipPath16)"><g id="g20" transform="translate(0.7939,19.8877)"><path id="path22" d="m 0,0 c 1,0 5.875,-1.344 6.5,-2.313 l -1.281,0.125 c 0,0 -3.907,1.251 -4.907,1.251 C -0.687,-0.937 0,0 0,0" style="fill:#5c913b;fill-opacity:1;fill-rule:nonzero;stroke:none"/></g><g id="g24" transform="translate(11,34)"><path id="path26" d="m 0,0 c 1,-1 3,-7 3,-10 0,-3 -2,-6 2,-8 4,-2 5.001,1 5.001,5 C 10.001,-9 9,-5 8,-3 7,-1 6,-3 6,-3 6,-3 5,1 4,1 3,1 3,-1 3,-1 3,-1 1,1 0,1 -1,1 0,0 0,0" style="fill:#99aab5;fill-opacity:1;fill-rule:nonzero;stroke:none"/></g><g id="g28" transform="translate(10.0005,21)"><path id="path30" d="m 0,0 c 3,0 3.999,-4 5.999,-4 2,0 1,3 3,3 2,0 10,5 10,11 0,6 3,3 3,1 1,0 2,-1.586 2,-3 0,-1 0,-2 -1,-3 1,0 2,-2 1,-3 1,-3 -1,-6 -3,-7 0,-1 -2,-3 -4,-2 0,0 -1,-3 -3,-2 0,0 3.052,-1.684 4,-2 3,-1 7,-1 7,-1 0,0 0,-1 -2,-2 0,0 1,-1 0,-2 -1,-1 -2,-1 -2,-1 0,0 1,-2 -2,-1 -3,1 -6,4 -6,4 0,0 -5,-1 -9,1 -4,2 -6,6 -6,8 0,2 -3,1 -4,1 -1,0 2.001,2 3.001,2 0,0 0,2 3,2" style="fill:#ccd6dd;fill-opacity:1;fill-rule:nonzero;stroke:none"/></g><g id="g32" transform="translate(6.9502,17.9814)"><path id="path34" d="m 0,0 c 0,0 5.437,-2.625 7.937,-6.656 1.901,-3.065 2.782,-8.657 2.782,-8.657 0,0 0.043,-0.564 -0.906,2.282 -1.001,3 -2.217,6.288 -4.313,8.187 -3.344,3.032 -4.75,3.5 -6.062,4.25 C -0.894,-0.404 -0.344,0.094 0,0" style="fill:#5c913b;fill-opacity:1;fill-rule:nonzero;stroke:none"/></g><g id="g36" transform="translate(16.1978,7.46)"><path id="path38" d="m 0,0 c 0,0 2.038,-0.103 3.107,-2.139 1.068,-2.036 -0.053,-4.914 -0.053,-4.914 0,0 -2.749,1.268 -3.462,2.948 C -1.12,-2.426 0,0 0,0" style="fill:#5c913b;fill-opacity:1;fill-rule:nonzero;stroke:none"/></g><g id="g40" transform="translate(14.0654,12.2383)"><path id="path42" d="m 0,0 c 0,0 1.274,-1.436 3.558,-1.705 2.284,-0.269 4.121,1.379 4.121,1.379 0,0 -2.144,1.97 -3.969,2.033 C 1.887,1.771 0,0 0,0" style="fill:#5c913b;fill-opacity:1;fill-rule:nonzero;stroke:none"/></g><g id="g44" transform="translate(10.0181,15.3857)"><path id="path46" d="m 0,0 c 0,0 -2.015,-0.329 -2.85,-2.472 -0.835,-2.142 0.425,-4.009 0.425,-4.009 0,0 2.533,0.847 3.054,2.596 C 1.151,-2.138 0,0 0,0" style="fill:#5c913b;fill-opacity:1;fill-rule:nonzero;stroke:none"/></g></g></g></g></svg>