<svg xmlns="http://www.w3.org/2000/svg" xmlns:svg="http://www.w3.org/2000/svg" style="enable-background:new 0 0 45 45" id="svg2" version="1.1" viewBox="0 0 45 45" xml:space="preserve"><metadata id="metadata8"/><defs id="defs6"><clipPath id="clipPath16" clipPathUnits="userSpaceOnUse"><path id="path18" d="M 0,36 36,36 36,0 0,0 0,36 Z"/></clipPath></defs><g id="g10" transform="matrix(1.25,0,0,-1.25,0,45)"><g id="g12"><g id="g14" clip-path="url(#clipPath16)"><g id="g20" transform="translate(36,4)"><path id="path22" d="m 0,0 c 0,-2.209 -1.791,-4 -4,-4 l -28,0 c -2.209,0 -4,1.791 -4,4 l 0,28 c 0,2.209 1.791,4 4,4 l 28,0 c 2.209,0 4,-1.791 4,-4 L 0,0 Z" style="fill:#9266cc;fill-opacity:1;fill-rule:nonzero;stroke:none"/></g><g id="g24" transform="translate(33.25,24)"><path id="path26" d="m 0,0 -2,0 c 0,-7 -5.411,-12.687 -12.25,-13.202 l 0,1.563 C -8.273,-11.129 -3.563,-6 -3.563,0 l -1.999,0 c 0,-5 -3.814,-9.136 -8.688,-9.638 l 0,1.578 c 4.009,0.496 7.125,4.06 7.125,8.06 l -2,0 c 0,-3 -2.223,-5.559 -5.125,-6.039 l 0,1.562 c 2.051,0.459 3.592,2.477 3.592,4.477 l -2,0 c 0,-1 -0.658,-2 -1.592,-2.392 l 0,3.392 -2,0 0,-3.392 C -17.184,-2 -17.841,-1 -17.841,0 l -2,0 c 0,-2 1.54,-4.018 3.591,-4.477 l 0,-1.562 C -19.152,-5.559 -21.375,-3 -21.375,0 l -2,0 c 0,-4 3.116,-7.564 7.125,-8.06 l 0,-1.578 C -21.124,-9.136 -24.937,-5 -24.937,0 l -2,0 c 0,-6 4.71,-11.129 10.687,-11.639 l 0,-1.563 C -23.089,-12.687 -28.5,-7 -28.5,0 l -2,0 c 0,-8 6.308,-14.683 14.25,-15.202 l 0,-1.798 -3,0 c -1.104,0 -2,-0.896 -2,-2 l -2,0 c -0.552,0 -1,-0.447 -1,-1 0,-0.553 0.448,-1 1,-1 l 4,0 8,0 4,0 c 0.553,0 1,0.447 1,1 0,0.553 -0.447,1 -1,1 l -2,0 c 0,1.104 -0.896,2 -2,2 l -3,0 0,1.798 C -6.307,-14.683 0,-8 0,0" style="fill:#fff;fill-opacity:1;fill-rule:nonzero;stroke:none"/></g><g id="g28" transform="translate(32.25,30.948)"><path id="path30" d="m 0,0 c -0.303,0 -0.886,-1.582 -0.985,-3.918 -0.024,-0.559 0.425,-1.03 0.985,-1.03 0.56,0 1.009,0.471 0.985,1.03 C 0.886,-1.582 0.303,0 0,0" style="fill:#fff;fill-opacity:1;fill-rule:nonzero;stroke:none"/></g><g id="g32" transform="translate(28.6875,30.948)"><path id="path34" d="M 0,0 C -0.303,0 -0.886,-1.582 -0.985,-3.918 -1.009,-4.477 -0.56,-4.948 0,-4.948 l 0,0 c 0.56,0 1.009,0.471 0.985,1.03 C 0.886,-1.582 0.303,0 0,0" style="fill:#fff;fill-opacity:1;fill-rule:nonzero;stroke:none"/></g><g id="g36" transform="translate(25.125,30.948)"><path id="path38" d="M 0,0 C -0.303,0 -0.886,-1.582 -0.985,-3.918 -1.009,-4.477 -0.56,-4.948 0,-4.948 l 0,0 c 0.56,0 1.009,0.471 0.985,1.03 C 0.886,-1.582 0.303,0 0,0" style="fill:#fff;fill-opacity:1;fill-rule:nonzero;stroke:none"/></g><g id="g40" transform="translate(21.5625,30.948)"><path id="path42" d="M 0,0 C -0.303,0 -0.886,-1.582 -0.985,-3.918 -1.009,-4.477 -0.56,-4.948 0,-4.948 l 0,0 c 0.56,0 1.009,0.471 0.985,1.03 C 0.886,-1.582 0.303,0 0,0" style="fill:#fff;fill-opacity:1;fill-rule:nonzero;stroke:none"/></g><g id="g44" transform="translate(18,31.9488)"><path id="path46" d="M 0,0 C -0.303,0 -0.886,-1.582 -0.985,-3.918 -1.009,-4.477 -0.56,-4.948 0,-4.948 l 0,0 c 0.56,0 1.009,0.471 0.985,1.03 C 0.886,-1.582 0.303,0 0,0" style="fill:#fff;fill-opacity:1;fill-rule:nonzero;stroke:none"/></g><g id="g48" transform="translate(14.4375,30.948)"><path id="path50" d="M 0,0 C -0.303,0 -0.886,-1.582 -0.985,-3.918 -1.009,-4.477 -0.56,-4.948 0,-4.948 l 0,0 c 0.56,0 1.009,0.471 0.985,1.03 C 0.886,-1.582 0.303,0 0,0" style="fill:#fff;fill-opacity:1;fill-rule:nonzero;stroke:none"/></g><g id="g52" transform="translate(10.875,30.948)"><path id="path54" d="M 0,0 C -0.303,0 -0.886,-1.582 -0.985,-3.918 -1.009,-4.477 -0.56,-4.948 0,-4.948 l 0,0 c 0.56,0 1.009,0.471 0.985,1.03 C 0.886,-1.582 0.303,0 0,0" style="fill:#fff;fill-opacity:1;fill-rule:nonzero;stroke:none"/></g><g id="g56" transform="translate(7.3125,30.948)"><path id="path58" d="M 0,0 C -0.303,0 -0.886,-1.582 -0.985,-3.918 -1.009,-4.477 -0.56,-4.948 0,-4.948 l 0,0 c 0.56,0 1.009,0.471 0.985,1.03 C 0.886,-1.582 0.303,0 0,0" style="fill:#fff;fill-opacity:1;fill-rule:nonzero;stroke:none"/></g><g id="g60" transform="translate(3.75,30.948)"><path id="path62" d="M 0,0 C -0.303,0 -0.886,-1.582 -0.985,-3.918 -1.009,-4.477 -0.56,-4.948 0,-4.948 l 0,0 c 0.56,0 1.009,0.471 0.985,1.03 C 0.886,-1.582 0.303,0 0,0" style="fill:#fff;fill-opacity:1;fill-rule:nonzero;stroke:none"/></g></g></g></g></svg>