<svg xmlns="http://www.w3.org/2000/svg" xmlns:svg="http://www.w3.org/2000/svg" style="enable-background:new 0 0 45 45" id="svg2" version="1.1" viewBox="0 0 45 45" xml:space="preserve"><metadata id="metadata8"/><defs id="defs6"><clipPath id="clipPath16" clipPathUnits="userSpaceOnUse"><path id="path18" d="M 0,36 36,36 36,0 0,0 0,36 Z"/></clipPath></defs><g id="g10" transform="matrix(1.25,0,0,-1.25,0,45)"><g id="g12"><g id="g14" clip-path="url(#clipPath16)"><g id="g20" transform="translate(0,18)"><path id="path22" d="m 0,0 c 0,-9.94 8.059,-18 18,-18 9.941,0 18,8.06 18,18 C 36,9.941 27.941,18 18,18 8.059,18 0,9.941 0,0" style="fill:#99aab5;fill-opacity:1;fill-rule:nonzero;stroke:none"/></g><g id="g24" transform="translate(32,18)"><path id="path26" d="m 0,0 c 0,-7.732 -6.268,-14 -14,-14 -7.732,0 -14,6.268 -14,14 0,7.732 6.268,14 14,14 C -6.268,14 0,7.732 0,0" style="fill:#e1e8ed;fill-opacity:1;fill-rule:nonzero;stroke:none"/></g><g id="g28" transform="translate(18,17)"><path id="path30" d="m 0,0 c -0.552,0 -1,0.447 -1,1 l 0,12 c 0,0.552 0.448,1 1,1 0.553,0 1,-0.448 1,-1 L 1,1 C 1,0.447 0.553,0 0,0" style="fill:#67757f;fill-opacity:1;fill-rule:nonzero;stroke:none"/></g><g id="g32" transform="translate(18.001,17)"><path id="path34" d="m 0,0 c -0.367,0 -0.72,0.202 -0.896,0.553 l -4,8 c -0.247,0.494 -0.046,1.095 0.448,1.342 0.495,0.248 1.095,0.046 1.341,-0.448 l 4,-8 C 1.141,0.953 0.94,0.353 0.446,0.105 0.303,0.034 0.15,0 0,0" style="fill:#67757f;fill-opacity:1;fill-rule:nonzero;stroke:none"/></g></g></g></g></svg>