<svg xmlns="http://www.w3.org/2000/svg" xmlns:svg="http://www.w3.org/2000/svg" style="enable-background:new 0 0 45 45" id="svg2" version="1.1" viewBox="0 0 45 45" xml:space="preserve"><metadata id="metadata8"/><defs id="defs6"><clipPath id="clipPath16" clipPathUnits="userSpaceOnUse"><path id="path18" d="M 0,36 36,36 36,0 0,0 0,36 Z"/></clipPath></defs><g id="g10" transform="matrix(1.25,0,0,-1.25,0,45)"><g id="g12"><g id="g14" clip-path="url(#clipPath16)"><g id="g20" transform="translate(35.702,28.5234)"><path id="path22" d="m 0,0 -7.18,7.179 c -0.396,0.397 -1.038,0.397 -1.436,0 l -23.691,-23.692 c -0.397,-0.397 -0.397,-1.038 0,-1.437 0.72,-0.719 -3.14,-7.958 -3.395,-8.495 l 2.068,-2.078 c 0.536,0.255 7.786,4.115 8.506,3.395 0.397,-0.398 1.039,-0.398 1.436,0 L 0,-1.436 C 0.397,-1.04 0.397,-0.397 0,0" style="fill:#dd2e44;fill-opacity:1;fill-rule:nonzero;stroke:none"/></g><g id="g24" transform="translate(12.7588,4.1396)"><path id="path26" d="m 0,0 -8.62,8.62 22.268,22.268 8.62,-8.62 L 0,0 Z" style="fill:#ea596e;fill-opacity:1;fill-rule:nonzero;stroke:none"/></g><g id="g28" transform="translate(32.1543,23.5342)"><path id="path30" d="M 0,0 -8.62,8.62 -7.184,10.057 1.437,1.437 0,0 Z" style="fill:#292f33;fill-opacity:1;fill-rule:nonzero;stroke:none"/></g><g id="g32" transform="translate(14.1958,5.5762)"><path id="path34" d="M 0,0 -8.62,8.62 -7.183,10.057 1.436,1.436 0,0 Z" style="fill:#292f33;fill-opacity:1;fill-rule:nonzero;stroke:none"/></g><g id="g36" transform="translate(26.8857,26.647)"><path id="path38" d="m 0,0 c -1.52,1.521 -5.982,-0.476 -9.967,-4.459 -3.983,-3.984 -5.979,-8.447 -4.459,-9.967 1.52,-1.521 5.983,0.475 9.967,4.459 C -0.475,-5.983 1.521,-1.52 0,0" style="fill:#be1931;fill-opacity:1;fill-rule:nonzero;stroke:none"/></g></g></g></g></svg>