<svg xmlns="http://www.w3.org/2000/svg" xmlns:svg="http://www.w3.org/2000/svg" style="enable-background:new 0 0 45 45" id="svg2" version="1.1" viewBox="0 0 45 45" xml:space="preserve"><metadata id="metadata8"/><defs id="defs6"><clipPath id="clipPath16" clipPathUnits="userSpaceOnUse"><path id="path18" d="M 0,36 36,36 36,0 0,0 0,36 Z"/></clipPath><clipPath id="clipPath40" clipPathUnits="userSpaceOnUse"><path id="path42" d="M 6,24 C 3.791,24 2,22.209 2,20 l 0,0 0,-9 C 2,10 3,8 5,8 l 0,0 26,0 c 2,0 3,2 3,3 l 0,0 0,9 c 0,2.209 -1.791,4 -4,4 l 0,0 -24,0 z"/></clipPath><clipPath id="clipPath56" clipPathUnits="userSpaceOnUse"><path id="path58" d="M 0,36 36,36 36,0 0,0 0,36 Z"/></clipPath></defs><g id="g10" transform="matrix(1.25,0,0,-1.25,0,45)"><g id="g12"><g id="g14" clip-path="url(#clipPath16)"><g id="g20" transform="translate(30,23)"><path id="path22" d="m 0,0 c 0,-1.104 -0.827,-2 -1.846,-2 l -20.308,0 C -23.174,-2 -24,-1.104 -24,0 l 0,8 c 0,1.105 0.826,2 1.846,2 l 20.308,0 C -0.827,10 0,9.105 0,8 L 0,0 Z" style="fill:#67757f;fill-opacity:1;fill-rule:nonzero;stroke:none"/></g><g id="g24" transform="translate(30,5)"><path id="path26" d="m 0,0 c 0,-1.104 -0.895,-2 -2,-2 l -20,0 c -1.104,0 -2,0.896 -2,2 l 0,6 c 0,1.105 0.896,2 2,2 L -2,8 C -0.895,8 0,7.105 0,6 L 0,0 Z" style="fill:#67757f;fill-opacity:1;fill-rule:nonzero;stroke:none"/></g><g id="g28" transform="translate(27,20)"><path id="path30" d="m 0,0 c 0,-1.104 -0.895,-2 -2,-2 l -14,0 c -1.104,0 -2,0.896 -2,2 l 0,14 c 0,1.105 0.896,2 2,2 l 14,0 c 1.105,0 2,-0.895 2,-2 L 0,0 Z" style="fill:#e1e8ed;fill-opacity:1;fill-rule:nonzero;stroke:none"/></g><g id="g32" transform="translate(34,11)"><path id="path34" d="m 0,0 c 0,-1 -1,-3 -3,-3 l -26,0 c -2,0 -3,2 -3,3 l 0,9 c 0,2.209 1.791,4 4,4 l 24,0 c 2.209,0 4,-1.791 4,-4 L 0,0 Z" style="fill:#5dadec;fill-opacity:1;fill-rule:nonzero;stroke:none"/></g></g></g><g id="g36"><g id="g38" clip-path="url(#clipPath40)"><g id="g44" transform="translate(30,11)"><path id="path46" d="M 0,0 C 0,1.105 -0.977,2 -2.182,2 L -21.818,2 C -23.023,2 -24,1.105 -24,0 l 0,-4 c 0,-1.104 0.977,-2 2.182,-2 l 19.636,0 C -0.977,-6 0,-5.104 0,-4 l 0,4 z" style="fill:#292f33;fill-opacity:1;fill-rule:nonzero;stroke:none"/></g><g id="g48" transform="translate(30,21)"><path id="path50" d="m 0,0 c 0,-1.104 -0.895,-2 -2,-2 l -20,0 c -1.104,0 -2,0.896 -2,2 l 0,5 c 0,1.105 0.896,2 2,2 L -2,7 C -0.895,7 0,6.105 0,5 L 0,0 Z" style="fill:#4289c1;fill-opacity:1;fill-rule:nonzero;stroke:none"/></g></g></g><g id="g52"><g id="g54" clip-path="url(#clipPath56)"><g id="g60" transform="translate(27,2)"><path id="path62" d="m 0,0 c 0,-1.104 -0.895,-2 -2,-2 l -14,0 c -1.104,0 -2,0.896 -2,2 l 0,7 c 0,1.105 0.896,2 2,2 L -2,9 C -0.895,9 0,8.105 0,7 L 0,0 Z" style="fill:#e1e8ed;fill-opacity:1;fill-rule:nonzero;stroke:none"/></g><g id="g64" transform="translate(25,7)"><path id="path66" d="m 0,0 c 0,-0.553 -0.447,-1 -1,-1 l -12,0 c -0.552,0 -1,0.447 -1,1 0,0.553 0.448,1 1,1 L -1,1 C -0.447,1 0,0.553 0,0" style="fill:#9aaab4;fill-opacity:1;fill-rule:nonzero;stroke:none"/></g><g id="g68" transform="translate(32,16.5)"><path id="path70" d="M 0,0 C 0,-0.828 -0.672,-1.5 -1.5,-1.5 -2.328,-1.5 -3,-0.828 -3,0 -3,0.828 -2.328,1.5 -1.5,1.5 -0.672,1.5 0,0.828 0,0" style="fill:#f5f8fa;fill-opacity:1;fill-rule:nonzero;stroke:none"/></g><g id="g72" transform="translate(25,4)"><path id="path74" d="m 0,0 c 0,-0.553 -0.447,-1 -1,-1 l -12,0 c -0.552,0 -1,0.447 -1,1 0,0.553 0.448,1 1,1 L -1,1 C -0.447,1 0,0.553 0,0" style="fill:#9aaab4;fill-opacity:1;fill-rule:nonzero;stroke:none"/></g><path id="path76" d="M 27,9 9,9 9,11 27,11 27,9 Z" style="fill:#9aaab4;fill-opacity:1;fill-rule:nonzero;stroke:none"/></g></g></g></svg>