<svg xmlns="http://www.w3.org/2000/svg" xmlns:svg="http://www.w3.org/2000/svg" style="enable-background:new 0 0 45 45" id="svg2" version="1.1" viewBox="0 0 45 45" xml:space="preserve"><metadata id="metadata8"/><defs id="defs6"><clipPath id="clipPath16" clipPathUnits="userSpaceOnUse"><path id="path18" d="M 0,36 36,36 36,0 0,0 0,36 Z"/></clipPath><clipPath id="clipPath28" clipPathUnits="userSpaceOnUse"><path id="path30" d="M 3,32 C 1.895,32 1,31.105 1,30 L 1,30 1,6 C 1,4.895 1.895,4 3,4 l 0,0 30,0 c 1.105,0 2,0.895 2,2 l 0,0 0,24 c 0,1.105 -0.895,2 -2,2 l 0,0 -30,0 z"/></clipPath><clipPath id="clipPath40" clipPathUnits="userSpaceOnUse"><path id="path42" d="M 0,36 36,36 36,0 0,0 0,36 Z"/></clipPath><clipPath id="clipPath52" clipPathUnits="userSpaceOnUse"><path id="path54" d="M 6,28 C 5.448,28 5,27.553 5,27 L 5,27 5,9 C 5,8.447 5.448,8 6,8 l 0,0 24,0 c 0.552,0 1,0.447 1,1 l 0,0 0,18 c 0,0.553 -0.448,1 -1,1 l 0,0 -24,0 z"/></clipPath><clipPath id="clipPath70" clipPathUnits="userSpaceOnUse"><path id="path72" d="M 0,36 36,36 36,0 0,0 0,36 Z"/></clipPath></defs><g id="g10" transform="matrix(1.25,0,0,-1.25,0,45)"><g id="g12"><g id="g14" clip-path="url(#clipPath16)"><g id="g20" transform="translate(35,6)"><path id="path22" d="m 0,0 c 0,-1.104 -0.895,-2 -2,-2 l -30,0 c -1.104,0 -2,0.896 -2,2 l 0,24 c 0,1.105 0.896,2 2,2 l 30,0 c 1.105,0 2,-0.895 2,-2 L 0,0 Z" style="fill:#d79e84;fill-opacity:1;fill-rule:nonzero;stroke:none"/></g></g></g><g id="g24"><g id="g26" clip-path="url(#clipPath28)"><g id="g32" transform="translate(0,3.917)"><path id="path34" d="M 0,0 37,29.083 -1,28.875 0,0 Z" style="fill:#bf6952;fill-opacity:1;fill-rule:nonzero;stroke:none"/></g></g></g><g id="g36"><g id="g38" clip-path="url(#clipPath40)"><g id="g44" transform="translate(31,9)"><path id="path46" d="m 0,0 c 0,-0.553 -0.447,-1 -1,-1 l -24,0 c -0.552,0 -1,0.447 -1,1 l 0,18 c 0,0.552 0.448,1 1,1 l 24,0 c 0.553,0 1,-0.448 1,-1 L 0,0 Z" style="fill:#8ccaf7;fill-opacity:1;fill-rule:nonzero;stroke:none"/></g></g></g><g id="g48"><g id="g50" clip-path="url(#clipPath52)"><path id="path56" d="M 23,7 3,7 3,15 23,15 23,7 Z" style="fill:#5dadec;fill-opacity:1;fill-rule:nonzero;stroke:none"/><g id="g58" transform="translate(14,11)"><path id="path60" d="m 0,0 c 1,0 1,3 3,3 2,0 2,3 3,3 l 12,0 0,-10 c 0,0 -22,-2 -22,-1 0,1 2,5 4,5" style="fill:#67757f;fill-opacity:1;fill-rule:nonzero;stroke:none"/></g><g id="g62" transform="translate(19,8)"><path id="path64" d="m 0,0 c 1,2 2,4 5,4 3,0 3.105,1.553 4,2 2,1 3,0 4,0 1,0 6,-6 -1,-7 C 5,-2 1,-3 0,-2 -1,-1 0,0 0,0" style="fill:#292f33;fill-opacity:1;fill-rule:nonzero;stroke:none"/></g></g></g><g id="g66"><g id="g68" clip-path="url(#clipPath70)"><g id="g74" transform="translate(10.375,21.8755)"><path id="path76" d="m 0,0 c 0,-1.036 -0.839,-1.876 -1.875,-1.876 -1.036,0 -1.875,0.84 -1.875,1.876 0,1.036 0.839,1.875 1.875,1.875 C -0.839,1.875 0,1.036 0,0" style="fill:#fff;fill-opacity:1;fill-rule:nonzero;stroke:none"/></g><g id="g78" transform="translate(17.2188,21.8755)"><path id="path80" d="m 0,0 c 0,-1.036 -0.839,-1.876 -1.875,-1.876 -1.035,0 -1.875,0.84 -1.875,1.876 0,1.036 0.84,1.875 1.875,1.875 C -0.839,1.875 0,1.036 0,0" style="fill:#fff;fill-opacity:1;fill-rule:nonzero;stroke:none"/></g><g id="g82" transform="translate(15.1563,24.1255)"><path id="path84" d="m 0,0 c 0,-1.036 -0.839,-1.875 -1.875,-1.875 -1.036,0 -1.875,0.839 -1.875,1.875 0,1.036 0.839,1.875 1.875,1.875 C -0.839,1.875 0,1.036 0,0" style="fill:#fff;fill-opacity:1;fill-rule:nonzero;stroke:none"/></g><g id="g86" transform="translate(12.9063,23.3755)"><path id="path88" d="m 0,0 c 0,-1.036 -0.839,-1.876 -1.875,-1.876 -1.036,0 -1.875,0.84 -1.875,1.876 0,1.036 0.839,1.875 1.875,1.875 C -0.839,1.875 0,1.036 0,0" style="fill:#fff;fill-opacity:1;fill-rule:nonzero;stroke:none"/></g><path id="path90" d="m 29,17 -8,0 0,5 8,0 0,-5 z" style="fill:#e75a70;fill-opacity:1;fill-rule:nonzero;stroke:none"/><g id="g92" transform="translate(21,21)"><path id="path94" d="M 0,0 4,4 8,0" style="fill:#e75a70;fill-opacity:1;fill-rule:nonzero;stroke:#292f33;stroke-width:2;stroke-linecap:round;stroke-linejoin:round;stroke-miterlimit:10;stroke-dasharray:none;stroke-opacity:1"/></g><path id="path96" d="m 25,17 -2,0 0,3 2,0 0,-3 z" style="fill:#bb1a34;fill-opacity:1;fill-rule:nonzero;stroke:none"/><g id="g98" transform="translate(15,23)"><path id="path100" d="m 0,0 -7.375,0 1,-3 6.75,0 L 0,0 Z" style="fill:#fff;fill-opacity:1;fill-rule:nonzero;stroke:none"/></g></g></g></g></svg>