<svg xmlns="http://www.w3.org/2000/svg" xmlns:svg="http://www.w3.org/2000/svg" style="enable-background:new 0 0 45 45" id="svg2" version="1.1" viewBox="0 0 45 45" xml:space="preserve"><metadata id="metadata8"/><defs id="defs6"><clipPath id="clipPath18" clipPathUnits="userSpaceOnUse"><path id="path20" d="M 0,36 36,36 36,0 0,0 0,36 Z"/></clipPath></defs><g id="g10" transform="matrix(1.25,0,0,-1.25,0,45)"><path id="path12" d="m 27.814,29.609 1.996,0 0,2.391 -1.996,0 0,-2.391 z" style="fill:#66757f;fill-opacity:1;fill-rule:nonzero;stroke:none"/><g id="g14"><g id="g16" clip-path="url(#clipPath18)"><g id="g22" transform="translate(29,32)"><path id="path24" d="m 0,0 -20,0 c -2.209,0 -4,-1.791 -4,-4 l 0,-24 c 0,-2.209 1.791,-4 4,-4 l 20,0 c 2.209,0 4,1.791 4,4 L 4,-4 C 4,-1.791 2.209,0 0,0" style="fill:#55acee;fill-opacity:1;fill-rule:nonzero;stroke:none"/></g><g id="g26" transform="translate(27,32)"><path id="path28" d="m 0,0 -20,0 c -2.209,0 -4,-1.791 -4,-4 l 0,-24 c 0,-2.209 1.791,-4 4,-4 l 20,0 c 2.209,0 4,1.791 4,4 L 4,-4 C 4,-1.791 2.209,0 0,0" style="fill:#ccd6dd;fill-opacity:1;fill-rule:nonzero;stroke:none"/></g><g id="g30" transform="translate(28,21)"><path id="path32" d="m 0,0 c 0,-0.553 -0.447,-1 -1,-1 l -20,0 c -0.552,0 -1,0.447 -1,1 0,0.552 0.448,1 1,1 L -1,1 C -0.447,1 0,0.552 0,0" style="fill:#99aab5;fill-opacity:1;fill-rule:nonzero;stroke:none"/></g><g id="g34" transform="translate(28,16)"><path id="path36" d="m 0,0 c 0,-0.553 -0.447,-1 -1,-1 l -20,0 c -0.552,0 -1,0.447 -1,1 0,0.553 0.448,1 1,1 L -1,1 C -0.447,1 0,0.553 0,0" style="fill:#99aab5;fill-opacity:1;fill-rule:nonzero;stroke:none"/></g><g id="g38" transform="translate(28,11)"><path id="path40" d="m 0,0 c 0,-0.553 -0.447,-1 -1,-1 l -20,0 c -0.552,0 -1,0.447 -1,1 0,0.553 0.448,1 1,1 L -1,1 C -0.447,1 0,0.553 0,0" style="fill:#99aab5;fill-opacity:1;fill-rule:nonzero;stroke:none"/></g><g id="g42" transform="translate(20,6)"><path id="path44" d="m 0,0 c 0,-0.553 -0.447,-1 -1,-1 l -12,0 c -0.552,0 -1,0.447 -1,1 0,0.553 0.448,1 1,1 L -1,1 C -0.447,1 0,0.553 0,0" style="fill:#99aab5;fill-opacity:1;fill-rule:nonzero;stroke:none"/></g><g id="g46" transform="translate(7.8359,27.2695)"><path id="path48" d="m 0,0 c -0.702,0 -1.271,0.666 -1.271,1.489 0,0.823 0.569,1.49 1.271,1.49 0.701,0 1.27,-0.667 1.27,-1.49 C 1.27,0.666 0.701,0 0,0" style="fill:#292f33;fill-opacity:1;fill-rule:nonzero;stroke:none"/></g><g id="g50" transform="translate(8.543,28.917)"><path id="path52" d="m 0,0 c -0.055,0.479 -0.374,0.792 -0.729,1.017 -0.485,0.306 -1,1.007 -1,1.876 0,1.105 0.671,2.095 1.5,2.095 0.83,0 1.501,-0.905 1.501,-1.905 l 1.996,0 c -0.021,2 -1.576,3.821 -3.497,3.821 -1.933,0 -3.5,-1.819 -3.5,-4.005 0,-1.853 1.045,-3.371 2.57,-3.925 C -0.4,-1.302 0.064,-0.579 0,0" style="fill:#66757f;fill-opacity:1;fill-rule:nonzero;stroke:none"/></g><g id="g54" transform="translate(13.8359,27.2695)"><path id="path56" d="m 0,0 c -0.702,0 -1.271,0.666 -1.271,1.489 0,0.823 0.569,1.49 1.271,1.49 0.701,0 1.27,-0.667 1.27,-1.49 C 1.27,0.666 0.701,0 0,0" style="fill:#292f33;fill-opacity:1;fill-rule:nonzero;stroke:none"/></g><g id="g58" transform="translate(14.543,28.917)"><path id="path60" d="m 0,0 c -0.055,0.479 -0.374,0.792 -0.729,1.017 -0.485,0.306 -1,1.007 -1,1.876 0,1.105 0.671,2.095 1.5,2.095 0.83,0 1.5,-0.905 1.5,-1.905 l 1.997,0 c -0.021,2 -1.576,3.821 -3.497,3.821 -1.933,0 -3.5,-1.819 -3.5,-4.005 0,-1.853 1.045,-3.371 2.57,-3.925 C -0.4,-1.302 0.064,-0.579 0,0" style="fill:#66757f;fill-opacity:1;fill-rule:nonzero;stroke:none"/></g><g id="g62" transform="translate(19.8359,27.2695)"><path id="path64" d="m 0,0 c -0.702,0 -1.271,0.666 -1.271,1.489 0,0.823 0.569,1.49 1.271,1.49 0.701,0 1.27,-0.667 1.27,-1.49 C 1.27,0.666 0.701,0 0,0" style="fill:#292f33;fill-opacity:1;fill-rule:nonzero;stroke:none"/></g><g id="g66" transform="translate(20.543,28.917)"><path id="path68" d="m 0,0 c -0.055,0.479 -0.374,0.792 -0.729,1.017 -0.485,0.306 -1,1.007 -1,1.876 0,1.105 0.671,2.095 1.5,2.095 0.83,0 1.5,-0.905 1.5,-1.905 l 1.997,0 c -0.021,2 -1.576,3.821 -3.497,3.821 -1.933,0 -3.5,-1.819 -3.5,-4.005 0,-1.853 1.045,-3.371 2.57,-3.925 C -0.4,-1.302 0.064,-0.579 0,0" style="fill:#66757f;fill-opacity:1;fill-rule:nonzero;stroke:none"/></g><g id="g70" transform="translate(25.8359,27.2695)"><path id="path72" d="m 0,0 c -0.702,0 -1.271,0.666 -1.271,1.489 0,0.823 0.569,1.49 1.271,1.49 0.701,0 1.27,-0.667 1.27,-1.49 C 1.27,0.666 0.701,0 0,0" style="fill:#292f33;fill-opacity:1;fill-rule:nonzero;stroke:none"/></g><g id="g74" transform="translate(26.543,28.917)"><path id="path76" d="m 0,0 c -0.055,0.479 -0.374,0.792 -0.729,1.017 -0.485,0.306 -1,1.007 -1,1.876 0,1.105 0.671,2.095 1.5,2.095 0.83,0 1.5,-0.905 1.5,-1.905 l 1.997,0 c -0.021,2 -1.576,3.821 -3.497,3.821 -1.933,0 -3.5,-1.819 -3.5,-4.005 0,-1.853 1.045,-3.371 2.57,-3.925 C -0.4,-1.302 0.064,-0.579 0,0" style="fill:#66757f;fill-opacity:1;fill-rule:nonzero;stroke:none"/></g></g></g></g></svg>