<svg xmlns="http://www.w3.org/2000/svg" xmlns:svg="http://www.w3.org/2000/svg" style="enable-background:new 0 0 45 45" id="svg2" version="1.1" viewBox="0 0 45 45" xml:space="preserve"><metadata id="metadata8"/><defs id="defs6"><clipPath id="clipPath18" clipPathUnits="userSpaceOnUse"><path id="path20" d="M 0,36 36,36 36,0 0,0 0,36 Z"/></clipPath><clipPath id="clipPath30" clipPathUnits="userSpaceOnUse"><path id="path32" d="M 6,32 C 3.791,32 2,30.209 2,28 L 2,28 2,4 C 2,1.791 3.791,0 6,0 l 0,0 24,0 c 2.209,0 4,1.791 4,4 l 0,0 0,24 c 0,2.209 -1.791,4 -4,4 l 0,0 -24,0 z"/></clipPath><clipPath id="clipPath40" clipPathUnits="userSpaceOnUse"><path id="path42" d="M 0,36 36,36 36,0 0,0 0,36 Z"/></clipPath></defs><g id="g10" transform="matrix(1.25,0,0,-1.25,0,45)"><path id="path12" d="m 28.814,29.609 1.996,0 0,2.391 -1.996,0 0,-2.391 z" style="fill:#66757f;fill-opacity:1;fill-rule:nonzero;stroke:none"/><g id="g14"><g id="g16" clip-path="url(#clipPath18)"><g id="g22" transform="translate(30,32)"><path id="path24" d="m 0,0 -24,0 c -2.209,0 -4,-1.791 -4,-4 l 0,-24 c 0,-2.209 1.791,-4 4,-4 l 24,0 c 2.209,0 4,1.791 4,4 L 4,-4 C 4,-1.791 2.209,0 0,0" style="fill:#ccd6dd;fill-opacity:1;fill-rule:nonzero;stroke:none"/></g></g></g><g id="g26"><g id="g28" clip-path="url(#clipPath30)"><path id="path34" d="m 34,23 -32,0 0,9 32,0 0,-9 z" style="fill:#dd2e44;fill-opacity:1;fill-rule:nonzero;stroke:none"/></g></g><g id="g36"><g id="g38" clip-path="url(#clipPath40)"><g id="g44" transform="translate(8.8359,27.2695)"><path id="path46" d="m 0,0 c -0.702,0 -1.271,0.666 -1.271,1.489 0,0.823 0.569,1.49 1.271,1.49 0.701,0 1.27,-0.667 1.27,-1.49 C 1.27,0.666 0.701,0 0,0" style="fill:#292f33;fill-opacity:1;fill-rule:nonzero;stroke:none"/></g><g id="g48" transform="translate(9.543,28.917)"><path id="path50" d="m 0,0 c -0.055,0.479 -0.374,0.792 -0.729,1.017 -0.485,0.306 -1,1.007 -1,1.876 0,1.105 0.671,2.095 1.5,2.095 0.83,0 1.5,-0.905 1.5,-1.905 l 1.997,0 c -0.021,2 -1.576,3.821 -3.497,3.821 -1.933,0 -3.5,-1.819 -3.5,-4.005 0,-1.853 1.045,-3.371 2.57,-3.925 C -0.4,-1.302 0.064,-0.579 0,0" style="fill:#66757f;fill-opacity:1;fill-rule:nonzero;stroke:none"/></g><g id="g52" transform="translate(14.8359,27.2695)"><path id="path54" d="m 0,0 c -0.702,0 -1.271,0.666 -1.271,1.489 0,0.823 0.569,1.49 1.271,1.49 0.701,0 1.27,-0.667 1.27,-1.49 C 1.27,0.666 0.701,0 0,0" style="fill:#292f33;fill-opacity:1;fill-rule:nonzero;stroke:none"/></g><g id="g56" transform="translate(15.543,28.917)"><path id="path58" d="m 0,0 c -0.055,0.479 -0.374,0.792 -0.729,1.017 -0.485,0.306 -1,1.007 -1,1.876 0,1.105 0.671,2.095 1.5,2.095 0.83,0 1.5,-0.905 1.5,-1.905 l 1.997,0 c -0.021,2 -1.576,3.821 -3.497,3.821 -1.933,0 -3.5,-1.819 -3.5,-4.005 0,-1.853 1.045,-3.371 2.57,-3.925 C -0.4,-1.302 0.064,-0.579 0,0" style="fill:#66757f;fill-opacity:1;fill-rule:nonzero;stroke:none"/></g><g id="g60" transform="translate(20.8359,27.2695)"><path id="path62" d="m 0,0 c -0.702,0 -1.271,0.666 -1.271,1.489 0,0.823 0.569,1.49 1.271,1.49 0.701,0 1.27,-0.667 1.27,-1.49 C 1.27,0.666 0.701,0 0,0" style="fill:#292f33;fill-opacity:1;fill-rule:nonzero;stroke:none"/></g><g id="g64" transform="translate(21.543,28.917)"><path id="path66" d="m 0,0 c -0.055,0.479 -0.374,0.792 -0.729,1.017 -0.485,0.306 -1,1.007 -1,1.876 0,1.105 0.671,2.095 1.5,2.095 0.83,0 1.5,-0.905 1.5,-1.905 l 1.997,0 c -0.021,2 -1.576,3.821 -3.497,3.821 -1.933,0 -3.5,-1.819 -3.5,-4.005 0,-1.853 1.045,-3.371 2.57,-3.925 C -0.4,-1.302 0.064,-0.579 0,0" style="fill:#66757f;fill-opacity:1;fill-rule:nonzero;stroke:none"/></g><g id="g68" transform="translate(26.8359,27.2695)"><path id="path70" d="m 0,0 c -0.702,0 -1.271,0.666 -1.271,1.489 0,0.823 0.569,1.49 1.271,1.49 0.701,0 1.27,-0.667 1.27,-1.49 C 1.27,0.666 0.701,0 0,0" style="fill:#292f33;fill-opacity:1;fill-rule:nonzero;stroke:none"/></g><g id="g72" transform="translate(27.543,28.917)"><path id="path74" d="m 0,0 c -0.055,0.479 -0.374,0.792 -0.729,1.017 -0.485,0.306 -1,1.007 -1,1.876 0,1.105 0.671,2.095 1.5,2.095 0.83,0 1.5,-0.905 1.5,-1.905 l 1.997,0 c -0.021,2 -1.576,3.821 -3.497,3.821 -1.933,0 -3.5,-1.819 -3.5,-4.005 0,-1.853 1.045,-3.371 2.57,-3.925 C -0.4,-1.302 0.064,-0.579 0,0" style="fill:#66757f;fill-opacity:1;fill-rule:nonzero;stroke:none"/></g><path id="path76" d="m 15,17 -4,0 0,4 4,0 0,-4 z" style="fill:#fff;fill-opacity:1;fill-rule:nonzero;stroke:none"/><path id="path78" d="m 20,17 -4,0 0,4 4,0 0,-4 z" style="fill:#fff;fill-opacity:1;fill-rule:nonzero;stroke:none"/><path id="path80" d="m 25,17 -4,0 0,4 4,0 0,-4 z" style="fill:#fff;fill-opacity:1;fill-rule:nonzero;stroke:none"/><path id="path82" d="m 30,17 -4,0 0,4 4,0 0,-4 z" style="fill:#fff;fill-opacity:1;fill-rule:nonzero;stroke:none"/><path id="path84" d="m 10,12 -4,0 0,4 4,0 0,-4 z" style="fill:#fff;fill-opacity:1;fill-rule:nonzero;stroke:none"/><path id="path86" d="m 15,12 -4,0 0,4 4,0 0,-4 z" style="fill:#fff;fill-opacity:1;fill-rule:nonzero;stroke:none"/><path id="path88" d="m 20,12 -4,0 0,4 4,0 0,-4 z" style="fill:#fff;fill-opacity:1;fill-rule:nonzero;stroke:none"/><path id="path90" d="m 25,12 -4,0 0,4 4,0 0,-4 z" style="fill:#fff;fill-opacity:1;fill-rule:nonzero;stroke:none"/><path id="path92" d="m 30,12 -4,0 0,4 4,0 0,-4 z" style="fill:#fff;fill-opacity:1;fill-rule:nonzero;stroke:none"/><path id="path94" d="m 10,7 -4,0 0,4 4,0 0,-4 z" style="fill:#fff;fill-opacity:1;fill-rule:nonzero;stroke:none"/><path id="path96" d="m 15,7 -4,0 0,4 4,0 0,-4 z" style="fill:#fff;fill-opacity:1;fill-rule:nonzero;stroke:none"/><path id="path98" d="m 20,7 -4,0 0,4 4,0 0,-4 z" style="fill:#fff;fill-opacity:1;fill-rule:nonzero;stroke:none"/><path id="path100" d="m 25,7 -4,0 0,4 4,0 0,-4 z" style="fill:#fff;fill-opacity:1;fill-rule:nonzero;stroke:none"/><path id="path102" d="m 30,7 -4,0 0,4 4,0 0,-4 z" style="fill:#fff;fill-opacity:1;fill-rule:nonzero;stroke:none"/><path id="path104" d="M 10,2 6,2 6,6 10,6 10,2 Z" style="fill:#fff;fill-opacity:1;fill-rule:nonzero;stroke:none"/><path id="path106" d="m 15,2 -4,0 0,4 4,0 0,-4 z" style="fill:#fff;fill-opacity:1;fill-rule:nonzero;stroke:none"/><path id="path108" d="m 20,2 -4,0 0,4 4,0 0,-4 z" style="fill:#fff;fill-opacity:1;fill-rule:nonzero;stroke:none"/></g></g></g></svg>