<svg xmlns="http://www.w3.org/2000/svg" xmlns:svg="http://www.w3.org/2000/svg" style="enable-background:new 0 0 45 45" id="svg2" version="1.1" viewBox="0 0 45 45" xml:space="preserve"><metadata id="metadata8"/><defs id="defs6"><clipPath id="clipPath16" clipPathUnits="userSpaceOnUse"><path id="path18" d="M 0,36 36,36 36,0 0,0 0,36 Z"/></clipPath></defs><g id="g10" transform="matrix(1.25,0,0,-1.25,0,45)"><g id="g12"><g id="g14" clip-path="url(#clipPath16)"><g id="g20" transform="translate(16,3)"><path id="path22" d="m 0,0 c 0,-1.657 -1.343,-3 -3,-3 -1.657,0 -3,1.343 -3,3 0,1.657 1.343,3 3,3 1.657,0 3,-1.343 3,-3" style="fill:#67757f;fill-opacity:1;fill-rule:nonzero;stroke:none"/></g><g id="g24" transform="translate(35,3)"><path id="path26" d="m 0,0 c 0,-1.657 -1.344,-3 -3,-3 -1.656,0 -3,1.343 -3,3 0,1.657 1.344,3 3,3 1.656,0 3,-1.343 3,-3" style="fill:#67757f;fill-opacity:1;fill-rule:nonzero;stroke:none"/></g><path id="path28" d="M 32,2 13,2 13,4 32,4 32,2 Z" style="fill:#67757f;fill-opacity:1;fill-rule:nonzero;stroke:none"/><g id="g30" transform="translate(20,20.4976)"><path id="path32" d="M 0,0 C 0,1.381 1.119,1.5 2.5,1.5 3.881,1.5 5,1.381 5,0 l 0,-17.998 c 0,-1.38 -1.119,-2.5 -2.5,-2.5 -1.381,0 -2.5,1.12 -2.5,2.5 L 0,0 Z" style="fill:#9aaab4;fill-opacity:1;fill-rule:nonzero;stroke:none"/></g><g id="g34" transform="translate(27,20.9976)"><path id="path36" d="m 0,0 c 0,-1.105 -0.895,-2 -2,-2 l -5,0 c -1.104,0 -2,0.895 -2,2 0,1.104 0.896,1 2,1 l 5,0 c 1.105,0 2,0.104 2,-1" style="fill:#67757f;fill-opacity:1;fill-rule:nonzero;stroke:none"/></g><g id="g38" transform="translate(28,9)"><path id="path40" d="m 0,0 c 0,-1.104 -0.895,-2 -2,-2 l -7,0 c -1.104,0 -2,0.896 -2,2 l 0,5 c 0,1.105 0.896,2 2,2 l 7,0 C -0.895,7 0,6.105 0,5 L 0,0 Z" style="fill:#da2f47;fill-opacity:1;fill-rule:nonzero;stroke:none"/></g><g id="g42" transform="translate(28,31)"><path id="path44" d="m 0,0 c 0,-1.104 -0.895,-2 -2,-2 l -7,0 c -1.104,0 -2,0.896 -2,2 l 0,1 c 0,1.105 0.896,2 2,2 l 7,0 C -0.895,3 0,2.105 0,1 L 0,0 Z" style="fill:#da2f47;fill-opacity:1;fill-rule:nonzero;stroke:none"/></g><g id="g46" transform="translate(13,14)"><path id="path48" d="m 0,0 c -1.104,0 -2,0.896 -2,2 l 0,13 c 0,1.105 0.896,2 2,2 l 15,0 0,1 c 0,2.209 -1.791,4 -4,4 l -17,0 c -2.209,0 -4,-1.791 -4,-4 l 0,-19 c 0,-2.209 1.791,-4 4,-4 l 14,0 c 2.209,0 4,1.791 4,4 L 12,0 0,0 Z" style="fill:#da2f47;fill-opacity:1;fill-rule:nonzero;stroke:none"/></g><g id="g50" transform="translate(9,16)"><path id="path52" d="m 0,0 c 0,-1.104 -0.896,-2 -2,-2 -1.104,0 -2,0.896 -2,2 l 0,13 c 0,1.105 0.896,2 2,2 1.104,0 2,-0.895 2,-2 L 0,0 Z" style="fill:#e75a70;fill-opacity:1;fill-rule:nonzero;stroke:none"/></g></g></g></g></svg>