<svg xmlns="http://www.w3.org/2000/svg" xmlns:svg="http://www.w3.org/2000/svg" style="enable-background:new 0 0 45 45" id="svg2" version="1.1" viewBox="0 0 45 45" xml:space="preserve"><metadata id="metadata8"/><defs id="defs6"><clipPath id="clipPath16" clipPathUnits="userSpaceOnUse"><path id="path18" d="M 0,36 36,36 36,0 0,0 0,36 Z"/></clipPath></defs><g id="g10" transform="matrix(1.25,0,0,-1.25,0,45)"><g id="g12"><g id="g14" clip-path="url(#clipPath16)"><g id="g20" transform="translate(34.5002,11.0049)"><path id="path22" d="m 0,0 c 0,-2.209 -1.791,-2 -4,-2 l -25,0 c -2.209,0 -4,-0.209 -4,2 l 2,13.995 c 0.293,1.75 1,2 2,2 l 25,0 c 1,0 1.791,-0.208 2,-2 L 0,0 Z" style="fill:#ccd6dd;fill-opacity:1;fill-rule:nonzero;stroke:none"/></g><g id="g24" transform="translate(13.4997,20)"><path id="path26" d="M 0,0 Z" style="fill:#67757f;fill-opacity:1;fill-rule:nonzero;stroke:none"/></g><g id="g28" transform="translate(13.4997,20)"><path id="path30" d="M 0,0 Z" style="fill:#67757f;fill-opacity:1;fill-rule:nonzero;stroke:none"/></g><g id="g32" transform="translate(13.4997,8)"><path id="path34" d="M 0,0 Z" style="fill:#67757f;fill-opacity:1;fill-rule:nonzero;stroke:none"/></g><g id="g36" transform="translate(28.5002,19.5)"><path id="path38" d="m 0,0 c 0,-0.829 -0.672,-1.5 -1.5,-1.5 l -18,0 c -0.829,0 -1.5,0.671 -1.5,1.5 0,0.829 0.671,1.5 1.5,1.5 l 18,0 C -0.672,1.5 0,0.829 0,0" style="fill:#292f33;fill-opacity:1;fill-rule:nonzero;stroke:none"/></g><g id="g40" transform="translate(26.5002,19)"><path id="path42" d="m 0,0 0,14 c 0,1.105 -0.895,2 -2,2 l -13,0 c -1.104,0 -2,-0.895 -2,-2 L -17,0 0,0 Z" style="fill:#5dadec;fill-opacity:1;fill-rule:nonzero;stroke:none"/></g><g id="g44" transform="translate(34.5002,11)"><path id="path46" d="m 0,0 c 0,1.105 -0.895,2 -2,2 l -29,0 c -1.104,0 -2,-0.895 -2,-2 l 0,-8 c 0,-1.104 0.896,-2 2,-2 l 29,0 c 1.105,0 2,0.896 2,2 l 0,8 z" style="fill:#9aaab4;fill-opacity:1;fill-rule:nonzero;stroke:none"/></g><g id="g48" transform="translate(18.5002,14)"><path id="path50" d="M 0,0 Z" style="fill:#5dadec;fill-opacity:1;fill-rule:nonzero;stroke:none"/></g><g id="g52" transform="translate(18.5002,14)"><path id="path54" d="M 0,0 Z" style="fill:#5dadec;fill-opacity:1;fill-rule:nonzero;stroke:none"/></g><g id="g56" transform="translate(13.5002,13)"><path id="path58" d="m 0,0 0,-6 c 0,-1.104 0.896,-2 2,-2 l 5,0 c 1.105,0 2,0.896 2,2 L 9,0 0,0 Z" style="fill:#67757f;fill-opacity:1;fill-rule:nonzero;stroke:none"/></g><g id="g60" transform="translate(22.5002,13)"><path id="path62" d="M 0,0 0,1 C 0,2.105 -0.895,3 -2,3 L -7,3 C -8.104,3 -9,2.105 -9,1 l 0,-1 9,0 z" style="fill:#9aaab4;fill-opacity:1;fill-rule:nonzero;stroke:none"/></g><g id="g64" transform="translate(19.5002,8.5)"><path id="path66" d="M 0,0 C 0,-0.828 -0.672,-1.5 -1.5,-1.5 -2.329,-1.5 -3,-0.828 -3,0 l 0,1 c 0,0.828 0.671,1.5 1.5,1.5 C -0.672,2.5 0,1.828 0,1 L 0,0 Z" style="fill:#9aaab4;fill-opacity:1;fill-rule:nonzero;stroke:none"/></g><g id="g68" transform="translate(18.806,27.0032)"><path id="path70" d="M 0,0 2.778,2.778 C 3,2.999 3,3.359 2.778,3.581 2.556,3.802 2.197,3.802 1.975,3.581 L -0.803,0.803 -3.581,3.581 c -0.221,0.221 -0.581,0.221 -0.802,0 -0.222,-0.222 -0.222,-0.582 0,-0.803 L -1.605,0 -4.389,-2.784 c -0.222,-0.222 -0.222,-0.581 0,-0.803 0.11,-0.111 0.256,-0.166 0.401,-0.166 0.145,0 0.29,0.055 0.401,0.166 l 2.784,2.784 2.778,-2.778 c 0.111,-0.11 0.256,-0.166 0.402,-0.166 0.145,0 0.29,0.056 0.401,0.166 C 3,-3.359 3,-3 2.778,-2.778 L 0,0 Z" style="fill:#fff;fill-opacity:1;fill-rule:nonzero;stroke:none"/></g></g></g></g></svg>