<svg xmlns="http://www.w3.org/2000/svg" xmlns:svg="http://www.w3.org/2000/svg" style="enable-background:new 0 0 45 45" id="svg2" version="1.1" viewBox="0 0 45 45" xml:space="preserve"><metadata id="metadata8"/><defs id="defs6"><clipPath id="clipPath16" clipPathUnits="userSpaceOnUse"><path id="path18" d="M 0,36 36,36 36,0 0,0 0,36 Z"/></clipPath></defs><g id="g10" transform="matrix(1.25,0,0,-1.25,0,45)"><g id="g12"><g id="g14" clip-path="url(#clipPath16)"><g id="g20" transform="translate(36,16)"><path id="path22" d="m 0,0 c 0,-10 -11,-16 -18,-16 -7,0 -18,6.059 -18,16 0,9.941 4,20 18,20 C -4,20 0,10 0,0" style="fill:#ffcc4d;fill-opacity:1;fill-rule:nonzero;stroke:none"/></g><g id="g24" transform="translate(35,35)"><path id="path26" d="m 0,0 c 1,-1 0,-11 0,-11 l -8,10 c 0,0 7,2 8,1" style="fill:#ffcc4d;fill-opacity:1;fill-rule:nonzero;stroke:none"/></g><g id="g28" transform="translate(1,35)"><path id="path30" d="M 0,0 C -1,-1 0,-11 0,-11 L 8,-1 C 8,-1 1,1 0,0" style="fill:#ffcc4d;fill-opacity:1;fill-rule:nonzero;stroke:none"/></g><g id="g32" transform="translate(14,21.5)"><path id="path34" d="m 0,0 c 0,-1.933 -0.895,-3.5 -2,-3.5 -1.104,0 -2,1.567 -2,3.5 0,1.933 0.896,3.5 2,3.5 1.105,0 2,-1.567 2,-3.5" style="fill:#292f33;fill-opacity:1;fill-rule:nonzero;stroke:none"/></g><g id="g36" transform="translate(26,21.5)"><path id="path38" d="m 0,0 c 0,-1.933 -0.895,-3.5 -2,-3.5 -1.104,0 -2,1.567 -2,3.5 0,1.933 0.896,3.5 2,3.5 1.105,0 2,-1.567 2,-3.5" style="fill:#292f33;fill-opacity:1;fill-rule:nonzero;stroke:none"/></g><g id="g40" transform="translate(17.9995,16.5)"><path id="path42" d="m 0,0 c 3.001,0 3.001,-0.5 3.001,-1.5 0,-1 -1.5,-3 -3.001,-3 -1.5,0 -3,2 -3,3 0,1 -10e-4,1.5 3,1.5" style="fill:#67757f;fill-opacity:1;fill-rule:nonzero;stroke:none"/></g><g id="g44" transform="translate(26,15.5)"><path id="path46" d="m 0,0 c -0.209,0 -0.404,0.133 -0.475,0.342 -0.086,0.262 0.055,0.545 0.317,0.633 l 9,2.999 C 9.105,4.062 9.387,3.92 9.475,3.658 9.562,3.396 9.42,3.113 9.158,3.026 l -9,-3.001 C 0.105,0.008 0.053,0 0,0" style="fill:#9aaab4;fill-opacity:1;fill-rule:nonzero;stroke:none"/></g><g id="g48" transform="translate(24.999,13.5)"><path id="path50" d="m 0,0 c -0.233,0 -0.441,0.164 -0.489,0.402 -0.055,0.271 0.121,0.534 0.392,0.588 l 10,2 C 10.163,3.044 10.436,2.87 10.491,2.598 10.546,2.327 10.37,2.064 10.099,2.01 l -10,-2 C 0.066,0.003 0.033,0 0,0" style="fill:#9aaab4;fill-opacity:1;fill-rule:nonzero;stroke:none"/></g><g id="g52" transform="translate(10,15.5)"><path id="path54" d="m 0,0 c -0.052,0 -0.105,0.008 -0.158,0.025 l -9,3.001 c -0.262,0.087 -0.404,0.37 -0.316,0.632 0.087,0.262 0.368,0.404 0.632,0.316 l 9,-2.999 C 0.42,0.887 0.561,0.604 0.474,0.342 0.404,0.133 0.21,0 0,0" style="fill:#9aaab4;fill-opacity:1;fill-rule:nonzero;stroke:none"/></g><g id="g56" transform="translate(11.0005,13.5)"><path id="path58" d="m 0,0 c -0.032,0 -0.065,0.003 -0.099,0.01 l -10,2 c -0.27,0.054 -0.446,0.317 -0.392,0.588 0.054,0.271 0.313,0.449 0.589,0.392 l 10,-2 C 0.368,0.936 0.544,0.673 0.49,0.402 0.442,0.164 0.233,0 0,0" style="fill:#9aaab4;fill-opacity:1;fill-rule:nonzero;stroke:none"/></g><g id="g60" transform="translate(30.708,25.3532)"><path id="path62" d="m 0,0 c -0.215,-0.215 -0.525,-0.33 -0.849,-0.283 -4.357,0.622 -6.831,-1.742 -6.934,-1.843 -0.393,-0.385 -1.025,-0.381 -1.412,0.01 -0.387,0.391 -0.387,1.019 0.002,1.408 0.13,0.13 3.243,3.173 8.626,2.404 C -0.019,1.619 0.36,1.112 0.282,0.565 0.25,0.342 0.148,0.148 0,0" style="fill:#292f33;fill-opacity:1;fill-rule:nonzero;stroke:none"/></g><g id="g64" transform="translate(5.292,25.3532)"><path id="path66" d="m 0,0 c 0.215,-0.215 0.525,-0.33 0.849,-0.283 4.357,0.622 6.831,-1.742 6.934,-1.843 0.393,-0.385 1.025,-0.381 1.412,0.01 0.387,0.391 0.387,1.019 -0.002,1.408 C 9.063,-0.578 5.95,2.465 0.567,1.696 0.019,1.619 -0.36,1.112 -0.282,0.565 -0.25,0.342 -0.148,0.148 0,0" style="fill:#292f33;fill-opacity:1;fill-rule:nonzero;stroke:none"/></g><g id="g68" transform="translate(25.4849,6.1211)"><path id="path70" d="m 0,0 c -0.045,0.179 -1.168,4.379 -7.485,4.379 -6.318,0 -7.441,-4.2 -7.485,-4.379 -0.055,-0.217 0.043,-0.442 0.237,-0.554 0.195,-0.109 0.439,-0.079 0.599,0.077 0.019,0.019 1.954,1.856 6.649,1.856 4.694,0 6.63,-1.837 6.648,-1.856 0.096,-0.094 0.224,-0.144 0.352,-0.144 0.084,0 0.169,0.021 0.246,0.064 C -0.043,-0.445 0.055,-0.218 0,0" style="fill:#292f33;fill-opacity:1;fill-rule:nonzero;stroke:none"/></g></g></g></g></svg>