<svg xmlns="http://www.w3.org/2000/svg" xmlns:svg="http://www.w3.org/2000/svg" style="enable-background:new 0 0 45 45" id="svg2" version="1.1" viewBox="0 0 45 45" xml:space="preserve"><metadata id="metadata8"/><defs id="defs6"><clipPath id="clipPath16" clipPathUnits="userSpaceOnUse"><path id="path18" d="M 0,36 36,36 36,0 0,0 0,36 Z"/></clipPath></defs><g id="g10" transform="matrix(1.25,0,0,-1.25,0,45)"><g id="g12"><g id="g14" clip-path="url(#clipPath16)"><g id="g20" transform="translate(9,30.0625)"><path id="path22" d="m 0,0 0,-11.063 c 0,-4.97 4.029,-8.999 9,-8.999 4.971,0 9,4.029 9,8.999 L 18,-0.312 0,0 Z" style="fill:#f3d2a2;fill-opacity:1;fill-rule:nonzero;stroke:none"/></g><g id="g24" transform="translate(14,14)"><path id="path26" d="M 0,0 4,0 8,0 C 8,0 7,-2 4,-2 1,-2 0,0 0,0" style="fill:#c1694f;fill-opacity:1;fill-rule:nonzero;stroke:none"/></g><g id="g28" transform="translate(14,20)"><path id="path30" d="m 0,0 c -0.552,0 -1,0.448 -1,1 l 0,1 C -1,2.552 -0.552,3 0,3 0.552,3 1,2.552 1,2 L 1,1 C 1,0.448 0.552,0 0,0" style="fill:#662113;fill-opacity:1;fill-rule:nonzero;stroke:none"/></g><g id="g32" transform="translate(22,20)"><path id="path34" d="m 0,0 c -0.552,0 -1,0.448 -1,1 l 0,1 C -1,2.552 -0.552,3 0,3 0.552,3 1,2.552 1,2 L 1,1 C 1,0.448 0.552,0 0,0" style="fill:#662113;fill-opacity:1;fill-rule:nonzero;stroke:none"/></g><g id="g36" transform="translate(19,16.5)"><path id="path38" d="M 0,0 -2,0 C -2.276,0 -2.5,0.224 -2.5,0.5 -2.5,0.776 -2.276,1 -2,1 L 0,1 C 0.276,1 0.5,0.776 0.5,0.5 0.5,0.224 0.276,0 0,0" style="fill:#c1694f;fill-opacity:1;fill-rule:nonzero;stroke:none"/></g><g id="g40" transform="translate(10.8472,22.2848)"><path id="path42" d="m 0,0 c 0,-1.58 -0.801,-2.861 -1.788,-2.861 -0.988,0 -1.788,1.281 -1.788,2.861 0,1.58 0.8,2.861 1.788,2.861 C -0.801,2.861 0,1.58 0,0" style="fill:#f3d2a2;fill-opacity:1;fill-rule:nonzero;stroke:none"/></g><g id="g44" transform="translate(28.7292,22.2848)"><path id="path46" d="m 0,0 c 0,-1.58 -0.8,-2.861 -1.788,-2.861 -0.988,0 -1.788,1.281 -1.788,2.861 0,1.58 0.8,2.861 1.788,2.861 C -0.8,2.861 0,1.58 0,0" style="fill:#f3d2a2;fill-opacity:1;fill-rule:nonzero;stroke:none"/></g><g id="g48" transform="translate(18,35.1772)"><path id="path50" d="m 0,0 c -7.019,0 -10.139,-4.684 -10.139,-8.588 0,-3.903 1.343,-4.986 1.56,-3.903 0.78,3.903 3.119,5.102 3.119,5.102 4.68,-3.904 3.9,-0.781 3.9,-0.781 4.68,-4.684 2.34,0 2.34,0 1.56,-1.562 6.239,-1.562 6.239,-1.562 0,0 0.78,-1.198 1.56,-2.759 0.78,-1.561 1.56,0 1.56,3.903 C 10.139,-4.684 6.239,0 0,0" style="fill:#ffe51e;fill-opacity:1;fill-rule:nonzero;stroke:none"/></g><g id="g52" transform="translate(12.4214,33.0649)"><path id="path54" d="m 0,0 c -0.591,0.389 -1.387,0.224 -1.776,-0.367 l -0.645,-0.982 0,2.284 c 0,1.105 -0.896,2 -2,2 l -4,0 c -1.105,0 -2,-0.895 -2,-2 l 0,-8 c 0,0 0,-1 1,-1 l 6,0 1,1 0,1.043 2.788,4.246 C 0.757,-1.184 0.592,-0.389 0,0" style="fill:#f3d2a2;fill-opacity:1;fill-rule:nonzero;stroke:none"/></g><path id="path56" d="m 5,31 -1,0 0,5 1,0 0,-5 z" style="fill:#d2a077;fill-opacity:1;fill-rule:nonzero;stroke:none"/><path id="path58" d="m 8,31 -1,0 0,5 1,0 0,-5 z" style="fill:#d2a077;fill-opacity:1;fill-rule:nonzero;stroke:none"/><g id="g60" transform="translate(27,9)"><path id="path62" d="m 0,0 -17,0 -1,0 1,17 -8,0 0,-17 c 0,0 0,-9 8,-9 l 21,0 0,5 C 4,-1.791 2.209,0 0,0" style="fill:#4289c1;fill-opacity:1;fill-rule:nonzero;stroke:none"/></g><path id="path64" d="m 27,0 -1,0 0,4 1,0 0,-4 z" style="fill:#2a6797;fill-opacity:1;fill-rule:nonzero;stroke:none"/><g id="g66" transform="translate(15,12)"><path id="path68" d="m 0,0 0,-4 c 0,-1.657 1.343,-3 3,-3 1.657,0 3,1.343 3,3 L 6,0 0,0 Z" style="fill:#f3d2a2;fill-opacity:1;fill-rule:nonzero;stroke:none"/></g></g></g></g></svg>