<svg xmlns="http://www.w3.org/2000/svg" xmlns:svg="http://www.w3.org/2000/svg" style="enable-background:new 0 0 45 45" id="svg2" version="1.1" viewBox="0 0 45 45" xml:space="preserve"><metadata id="metadata8"/><defs id="defs6"><clipPath id="clipPath16" clipPathUnits="userSpaceOnUse"><path id="path18" d="M 0,36 36,36 36,0 0,0 0,36 Z"/></clipPath></defs><g id="g10" transform="matrix(1.25,0,0,-1.25,0,45)"><g id="g12"><g id="g14" clip-path="url(#clipPath16)"><g id="g20" transform="translate(36,18)"><path id="path22" d="m 0,0 c 0,-9.941 -8.059,-18 -18,-18 -9.94,0 -18,8.059 -18,18 0,9.94 8.06,18 18,18 C -8.059,18 0,9.94 0,0" style="fill:#ffcc4d;fill-opacity:1;fill-rule:nonzero;stroke:none"/></g><g id="g24" transform="translate(30,22.5)"><path id="path26" d="m 0,0 c 0,-3.037 -2.463,-5.5 -5.5,-5.5 -3.037,0 -5.5,2.463 -5.5,5.5 0,3.037 2.463,5.5 5.5,5.5 C -2.463,5.5 0,3.037 0,0" style="fill:#f5f8fa;fill-opacity:1;fill-rule:nonzero;stroke:none"/></g><g id="g28" transform="translate(17,22.5)"><path id="path30" d="m 0,0 c 0,-3.037 -2.463,-5.5 -5.5,-5.5 -3.037,0 -5.5,2.463 -5.5,5.5 0,3.037 2.463,5.5 5.5,5.5 C -2.463,5.5 0,3.037 0,0" style="fill:#f5f8fa;fill-opacity:1;fill-rule:nonzero;stroke:none"/></g><g id="g32" transform="translate(14,25.5)"><path id="path34" d="M 0,0 C 0,-1.381 -1.119,-2.5 -2.5,-2.5 -3.881,-2.5 -5,-1.381 -5,0 -5,1.38 -3.881,2.5 -2.5,2.5 -1.119,2.5 0,1.38 0,0" style="fill:#664500;fill-opacity:1;fill-rule:nonzero;stroke:none"/></g><g id="g36" transform="translate(27,25.5)"><path id="path38" d="M 0,0 C 0,-1.381 -1.119,-2.5 -2.5,-2.5 -3.881,-2.5 -5,-1.381 -5,0 -5,1.38 -3.881,2.5 -2.5,2.5 -1.119,2.5 0,1.38 0,0" style="fill:#664500;fill-opacity:1;fill-rule:nonzero;stroke:none"/></g><g id="g40" transform="translate(23,9)"><path id="path42" d="m 0,0 -10,0 c -0.552,0 -1,0.447 -1,1 0,0.553 0.448,1 1,1 L 0,2 C 0.553,2 1,1.553 1,1 1,0.447 0.553,0 0,0" style="fill:#664500;fill-opacity:1;fill-rule:nonzero;stroke:none"/></g></g></g></g></svg>