<svg xmlns="http://www.w3.org/2000/svg" xmlns:svg="http://www.w3.org/2000/svg" style="enable-background:new 0 0 45 45" id="svg2" version="1.1" viewBox="0 0 45 45" xml:space="preserve"><metadata id="metadata8"/><defs id="defs6"><clipPath id="clipPath16" clipPathUnits="userSpaceOnUse"><path id="path18" d="M 0,36 36,36 36,0 0,0 0,36 Z"/></clipPath><clipPath id="clipPath56" clipPathUnits="userSpaceOnUse"><path id="path58" d="M 4,15 13,8 9,0 27,0 c 0,0 4,9 0,9 L 27,9 4,21 4,15 Z"/></clipPath><clipPath id="clipPath68" clipPathUnits="userSpaceOnUse"><path id="path70" d="M 0,36 36,36 36,0 0,0 0,36 Z"/></clipPath></defs><g id="g10" transform="matrix(1.25,0,0,-1.25,0,45)"><g id="g12"><g id="g14" clip-path="url(#clipPath16)"><g id="g20" transform="translate(19,36)"><path id="path22" d="M 0,0 C -1.721,0 -3.343,-0.406 -4.794,-1.111 -5.186,-1.042 -5.588,-1 -6,-1 c -3.866,0 -7,-3.134 -7,-7 l 0,-12 0.018,0 c 0.183,-6.467 5.471,-11.656 11.982,-11.656 6.511,0 11.799,5.189 11.982,11.656 l 0.018,0 0,9 C 11,-4.925 6.075,0 0,0" style="fill:#ffe51e;fill-opacity:1;fill-rule:nonzero;stroke:none"/></g><g id="g24" transform="translate(27,9)"><path id="path26" d="m 0,0 -1,0 -16,0 -1,0 c -2.209,0 -4,-1.791 -4,-4 l 0,-5 5,0 16,0 5,0 0,5 C 4,-1.791 2.209,0 0,0" style="fill:#9268ca;fill-opacity:1;fill-rule:nonzero;stroke:none"/></g><g id="g28" transform="translate(14,31)"><path id="path30" d="M 0,0 C 0,0 -0.003,-5.308 -5,-5.936 L -5,-12 c 0,-4.971 4.029,-9 9,-9 4.971,0 9,4.029 9,9 l 0,5.019 C 1.89,-6.605 0,0 0,0" style="fill:#f3d2a2;fill-opacity:1;fill-rule:nonzero;stroke:none"/></g><g id="g32" transform="translate(19,14)"><path id="path34" d="m 0,0 c 0,-0.553 -0.447,-1 -1,-1 -0.553,0 -1,0.447 -1,1 0,0.553 0.447,1 1,1 0.553,0 1,-0.447 1,-1" style="fill:#df1f32;fill-opacity:1;fill-rule:nonzero;stroke:none"/></g><g id="g36" transform="translate(27,0)"><path id="path38" d="M 0,0 -15.001,9 -17,8 -3,0 0,0 Z" style="fill:#7450a8;fill-opacity:1;fill-rule:nonzero;stroke:none"/></g><g id="g40" transform="translate(2.6553,21.9839)"><path id="path42" d="m 0,0 -0.075,0.363 0,0.653 C -0.149,1.016 -0.219,0.987 -0.292,0.971 -0.567,1.415 -1.09,1.669 -1.632,1.557 -2.325,1.414 -2.771,0.735 -2.629,0.04 l 0.554,-2.674 0,-2.35 c 0,-1.104 0.895,-2 2,-2 l 1,0 1,0 0,5 c 0,0 -0.856,1.895 -1.925,1.984" style="fill:#e2c196;fill-opacity:1;fill-rule:nonzero;stroke:none"/></g><g id="g44" transform="translate(1.5801,28)"><path id="path46" d="m 0,0 c -0.552,0 -1,-0.447 -1,-1 l 1,-6 0,-5 c 0,-0.553 0.448,-1 1,-1 l 2,0 0,2 L 2.42,-7 1,-1 C 1,-1 0.553,0 0,0" style="fill:#f3d2a2;fill-opacity:1;fill-rule:nonzero;stroke:none"/></g><g id="g48" transform="translate(27,9)"><path id="path50" d="M 0,0 C 4,0 0,-9 0,-9 L -23,6 -23,12 0,0 Z" style="fill:#9268ca;fill-opacity:1;fill-rule:nonzero;stroke:none"/></g></g></g><g id="g52"><g id="g54" clip-path="url(#clipPath56)"><g id="g60" transform="translate(22,12)"><path id="path62" d="M 0,0 -4,3 -12,-1 -9.001,-3 0,0 Z m 6,-2 -16,-10 -3,0 17,11 2,-1 z" style="fill:#7450a8;fill-opacity:1;fill-rule:nonzero;stroke:none"/></g></g></g><g id="g64"><g id="g66" clip-path="url(#clipPath68)"><g id="g72" transform="translate(34.9766,23.541)"><path id="path74" d="m 0,0 c -0.541,0.112 -1.064,-0.142 -1.341,-0.586 -0.071,0.016 -0.142,0.045 -0.216,0.045 l 0,-0.653 -0.075,-0.363 c -1.069,-0.089 -1.925,-1.984 -1.925,-1.984 l 0,-5 1,0 1,0 c 1.105,0 2,0.896 2,2 l 0,2.35 0.554,2.674 C 1.139,-0.822 0.693,-0.143 0,0" style="fill:#e2c196;fill-opacity:1;fill-rule:nonzero;stroke:none"/></g><g id="g76" transform="translate(34.4199,28)"><path id="path78" d="m 0,0 c 0.552,0 1,-0.447 1,-1 l -1,-6 0,-5 c 0,-0.553 -0.448,-1 -1,-1 l -2,0 0,2 0.58,4 1.42,6 c 0,0 0.447,1 1,1" style="fill:#f3d2a2;fill-opacity:1;fill-rule:nonzero;stroke:none"/></g><g id="g80" transform="translate(9,9)"><path id="path82" d="M 0,0 0,-9 23,6 23,12 0,0 Z" style="fill:#9268ca;fill-opacity:1;fill-rule:nonzero;stroke:none"/></g><g id="g84" transform="translate(19,16.5)"><path id="path86" d="M 0,0 -2,0 C -2.276,0 -2.5,0.224 -2.5,0.5 -2.5,0.776 -2.276,1 -2,1 L 0,1 C 0.276,1 0.5,0.776 0.5,0.5 0.5,0.224 0.276,0 0,0" style="fill:#c1694f;fill-opacity:1;fill-rule:nonzero;stroke:none"/></g><g id="g88" transform="translate(14,20)"><path id="path90" d="m 0,0 c -0.552,0 -1,0.448 -1,1 l 0,1 C -1,2.552 -0.552,3 0,3 0.552,3 1,2.552 1,2 L 1,1 C 1,0.448 0.552,0 0,0" style="fill:#662113;fill-opacity:1;fill-rule:nonzero;stroke:none"/></g><g id="g92" transform="translate(22,20)"><path id="path94" d="m 0,0 c -0.553,0 -1,0.448 -1,1 l 0,1 C -1,2.552 -0.553,3 0,3 0.553,3 1,2.552 1,2 L 1,1 C 1,0.448 0.553,0 0,0" style="fill:#662113;fill-opacity:1;fill-rule:nonzero;stroke:none"/></g></g></g></g></svg>