<svg xmlns="http://www.w3.org/2000/svg" xmlns:svg="http://www.w3.org/2000/svg" style="enable-background:new 0 0 45 45" id="svg2" version="1.1" viewBox="0 0 45 45" xml:space="preserve"><metadata id="metadata8"/><defs id="defs6"><clipPath id="clipPath16" clipPathUnits="userSpaceOnUse"><path id="path18" d="M 0,36 36,36 36,0 0,0 0,36 Z"/></clipPath></defs><g id="g10" transform="matrix(1.25,0,0,-1.25,0,45)"><g id="g12"><g id="g14" clip-path="url(#clipPath16)"><g id="g20" transform="translate(19,36)"><path id="path22" d="M 0,0 C -1.721,0 -3.343,-0.406 -4.794,-1.111 -5.186,-1.042 -5.588,-1 -6,-1 c -3.866,0 -7,-3.134 -7,-7 l 0,-12 0.018,0 c 0.183,-6.467 5.471,-11.656 11.982,-11.656 6.511,0 11.799,5.189 11.982,11.656 l 0.018,0 0,9 C 11,-4.925 6.075,0 0,0" style="fill:#ffe51e;fill-opacity:1;fill-rule:nonzero;stroke:none"/></g><g id="g24" transform="translate(9,31)"><path id="path26" d="m 0,0 0,-12 c 0,-4.971 4.029,-9 9,-9 4.971,0 9,4.029 9,9 L 18,0 0,0 Z" style="fill:#f3d2a2;fill-opacity:1;fill-rule:nonzero;stroke:none"/></g><g id="g28" transform="translate(26.999,31)"><path id="path30" d="m 0,0 0,1 -18.999,0 0,-1 0,-6 c 6,0 6,6 6,6 0,0 2,-7 14,-7 l 0,7 L 0,0 Z" style="fill:#ffe51e;fill-opacity:1;fill-rule:nonzero;stroke:none"/></g><g id="g32" transform="translate(12.4214,33.0649)"><path id="path34" d="m 0,0 c -0.591,0.389 -1.387,0.224 -1.776,-0.367 l -0.645,-0.982 0,2.284 c 0,1.105 -0.896,2 -2,2 l -4,0 c -1.105,0 -2,-0.895 -2,-2 l 0,-8 c 0,0 0,-1 1,-1 l 6,0 1,1 0,1.043 2.788,4.246 C 0.757,-1.184 0.592,-0.389 0,0" style="fill:#f3d2a2;fill-opacity:1;fill-rule:nonzero;stroke:none"/></g><path id="path36" d="m 5,31 -1,0 0,5 1,0 0,-5 z" style="fill:#c68f6a;fill-opacity:1;fill-rule:nonzero;stroke:none"/><path id="path38" d="m 8,31 -1,0 0,5 1,0 0,-5 z" style="fill:#c68f6a;fill-opacity:1;fill-rule:nonzero;stroke:none"/><g id="g40" transform="translate(27,9)"><path id="path42" d="m 0,0 -17,0 -1,0 1,17 -8,0 0,-17 c 0,0 0,-9 8,-9 l 21,0 0,5 C 4,-1.791 2.209,0 0,0" style="fill:#9268ca;fill-opacity:1;fill-rule:nonzero;stroke:none"/></g><g id="g44" transform="translate(19,16.5)"><path id="path46" d="M 0,0 -2,0 C -2.276,0 -2.5,0.224 -2.5,0.5 -2.5,0.776 -2.276,1 -2,1 L 0,1 C 0.276,1 0.5,0.776 0.5,0.5 0.5,0.224 0.276,0 0,0" style="fill:#c1694f;fill-opacity:1;fill-rule:nonzero;stroke:none"/></g><g id="g48" transform="translate(14,20)"><path id="path50" d="m 0,0 c -0.552,0 -1,0.448 -1,1 l 0,1 C -1,2.552 -0.552,3 0,3 0.552,3 1,2.552 1,2 L 1,1 C 1,0.448 0.552,0 0,0" style="fill:#662113;fill-opacity:1;fill-rule:nonzero;stroke:none"/></g><g id="g52" transform="translate(22,20)"><path id="path54" d="m 0,0 c -0.553,0 -1,0.448 -1,1 l 0,1 C -1,2.552 -0.553,3 0,3 0.553,3 1,2.552 1,2 L 1,1 C 1,0.448 0.553,0 0,0" style="fill:#662113;fill-opacity:1;fill-rule:nonzero;stroke:none"/></g><g id="g56" transform="translate(15,14)"><path id="path58" d="m 0,0 0,-6 c 0,-1.657 1.343,-3 3,-3 1.657,0 3,1.343 3,3 L 6,0 0,0 Z" style="fill:#f3d2a2;fill-opacity:1;fill-rule:nonzero;stroke:none"/></g><path id="path60" d="m 27,0 -1,0 0,4 1,0 0,-4 z" style="fill:#7450a8;fill-opacity:1;fill-rule:nonzero;stroke:none"/><g id="g62" transform="translate(22,14)"><path id="path64" d="m 0,0 -4,0 -4,0 c 0,0 1,-2 4,-2 3,0 4,2 4,2" style="fill:#df1f32;fill-opacity:1;fill-rule:nonzero;stroke:none"/></g></g></g></g></svg>