<svg xmlns="http://www.w3.org/2000/svg" xmlns:svg="http://www.w3.org/2000/svg" style="enable-background:new 0 0 45 45" id="svg2" version="1.1" viewBox="0 0 45 45" xml:space="preserve"><metadata id="metadata8"/><defs id="defs6"><clipPath id="clipPath18" clipPathUnits="userSpaceOnUse"><path id="path20" d="M 0,36 36,36 36,0 0,0 0,36 Z"/></clipPath></defs><g id="g10" transform="matrix(1.25,0,0,-1.25,0,45)"><path id="path12" d="M 0,0 36,0 36,2 0,2 0,0 Z" style="fill:#939598;fill-opacity:1;fill-rule:nonzero;stroke:none"/><g id="g14"><g id="g16" clip-path="url(#clipPath18)"><g id="g22" transform="translate(8,4)"><path id="path24" d="m 0,0 c 0,1.657 -1.344,3 -3,3 -1.657,0 -3,-1.343 -3,-3 0,-1.657 1.343,-3 3,-3 1.656,0 3,1.343 3,3" style="fill:#58595b;fill-opacity:1;fill-rule:nonzero;stroke:none"/></g><g id="g26" transform="translate(7,4)"><path id="path28" d="m 0,0 c 0,1.105 -0.896,2 -2,2 -1.105,0 -2,-0.895 -2,-2 0,-1.105 0.895,-2 2,-2 1.104,0 2,0.895 2,2" style="fill:#292f33;fill-opacity:1;fill-rule:nonzero;stroke:none"/></g><g id="g30" transform="translate(16,4)"><path id="path32" d="m 0,0 c 0,1.657 -1.344,3 -3,3 -1.657,0 -3,-1.343 -3,-3 0,-1.657 1.343,-3 3,-3 1.656,0 3,1.343 3,3" style="fill:#58595b;fill-opacity:1;fill-rule:nonzero;stroke:none"/></g><g id="g34" transform="translate(15,4)"><path id="path36" d="m 0,0 c 0,1.105 -0.896,2 -2,2 -1.105,0 -2,-0.895 -2,-2 0,-1.105 0.895,-2 2,-2 1.104,0 2,0.895 2,2" style="fill:#292f33;fill-opacity:1;fill-rule:nonzero;stroke:none"/></g><g id="g38" transform="translate(35,4)"><path id="path40" d="m 0,0 c 0,1.657 -1.344,3 -3,3 -1.657,0 -3,-1.343 -3,-3 0,-1.657 1.343,-3 3,-3 1.656,0 3,1.343 3,3" style="fill:#58595b;fill-opacity:1;fill-rule:nonzero;stroke:none"/></g><g id="g42" transform="translate(34,4)"><path id="path44" d="m 0,0 c 0,1.105 -0.896,2 -2,2 -1.105,0 -2,-0.895 -2,-2 0,-1.105 0.895,-2 2,-2 1.104,0 2,0.895 2,2" style="fill:#292f33;fill-opacity:1;fill-rule:nonzero;stroke:none"/></g><g id="g46" transform="translate(27,4)"><path id="path48" d="m 0,0 c 0,1.657 -1.344,3 -3,3 -1.657,0 -3,-1.343 -3,-3 0,-1.657 1.343,-3 3,-3 1.656,0 3,1.343 3,3" style="fill:#58595b;fill-opacity:1;fill-rule:nonzero;stroke:none"/></g><g id="g50" transform="translate(26,4)"><path id="path52" d="m 0,0 c 0,1.105 -0.896,2 -2,2 -1.105,0 -2,-0.895 -2,-2 0,-1.105 0.895,-2 2,-2 1.104,0 2,0.895 2,2" style="fill:#292f33;fill-opacity:1;fill-rule:nonzero;stroke:none"/></g><path id="path54" d="M 36,8 0,8 0,4 36,4 36,8 Z" style="fill:#5c913b;fill-opacity:1;fill-rule:nonzero;stroke:none"/><path id="path56" d="M 0,8 36,8 36,20 0,20 0,8 Z" style="fill:#ffe8b6;fill-opacity:1;fill-rule:nonzero;stroke:none"/><path id="path58" d="M 36,8 0,8 0,10 36,10 36,8 Z" style="fill:#ffac33;fill-opacity:1;fill-rule:nonzero;stroke:none"/><g id="g60" transform="translate(5,14)"><path id="path62" d="m 0,0 c 0,-0.553 -0.447,-1 -1,-1 l -2,0 c -0.552,0 -1,0.447 -1,1 l 0,2 c 0,0.553 0.448,1 1,1 l 2,0 C -0.447,3 0,2.553 0,2 L 0,0 Z" style="fill:#55acee;fill-opacity:1;fill-rule:nonzero;stroke:none"/></g><g id="g64" transform="translate(11,14)"><path id="path66" d="m 0,0 c 0,-0.553 -0.447,-1 -1,-1 l -2,0 c -0.552,0 -1,0.447 -1,1 l 0,2 c 0,0.553 0.448,1 1,1 l 2,0 C -0.447,3 0,2.553 0,2 L 0,0 Z" style="fill:#55acee;fill-opacity:1;fill-rule:nonzero;stroke:none"/></g><g id="g68" transform="translate(17,14)"><path id="path70" d="m 0,0 c 0,-0.553 -0.447,-1 -1,-1 l -2,0 c -0.553,0 -1,0.447 -1,1 l 0,2 c 0,0.553 0.447,1 1,1 l 2,0 C -0.447,3 0,2.553 0,2 L 0,0 Z" style="fill:#55acee;fill-opacity:1;fill-rule:nonzero;stroke:none"/></g><g id="g72" transform="translate(23,14)"><path id="path74" d="m 0,0 c 0,-0.553 -0.447,-1 -1,-1 l -2,0 c -0.553,0 -1,0.447 -1,1 l 0,2 c 0,0.553 0.447,1 1,1 l 2,0 C -0.447,3 0,2.553 0,2 L 0,0 Z" style="fill:#55acee;fill-opacity:1;fill-rule:nonzero;stroke:none"/></g><g id="g76" transform="translate(29,14)"><path id="path78" d="m 0,0 c 0,-0.553 -0.447,-1 -1,-1 l -2,0 c -0.553,0 -1,0.447 -1,1 l 0,2 c 0,0.553 0.447,1 1,1 l 2,0 C -0.447,3 0,2.553 0,2 L 0,0 Z" style="fill:#55acee;fill-opacity:1;fill-rule:nonzero;stroke:none"/></g><g id="g80" transform="translate(35,14)"><path id="path82" d="m 0,0 c 0,-0.553 -0.447,-1 -1,-1 l -2,0 c -0.553,0 -1,0.447 -1,1 l 0,2 c 0,0.553 0.447,1 1,1 l 2,0 C -0.447,3 0,2.553 0,2 L 0,0 Z" style="fill:#55acee;fill-opacity:1;fill-rule:nonzero;stroke:none"/></g><g id="g84" transform="translate(32.5547,22)"><path id="path86" d="m 0,0 -29.109,0 c -1.477,0 -2.752,-0.81 -3.446,-2 l 36,0 C 2.752,-0.81 1.477,0 0,0" style="fill:#77b255;fill-opacity:1;fill-rule:nonzero;stroke:none"/></g></g></g></g></svg>