<svg xmlns="http://www.w3.org/2000/svg" xmlns:svg="http://www.w3.org/2000/svg" style="enable-background:new 0 0 45 45" id="svg2" version="1.1" viewBox="0 0 45 45" xml:space="preserve"><metadata id="metadata8"/><defs id="defs6"><clipPath id="clipPath18" clipPathUnits="userSpaceOnUse"><path id="path20" d="M 0,36 36,36 36,0 0,0 0,36 Z"/></clipPath></defs><g id="g10" transform="matrix(1.25,0,0,-1.25,0,45)"><path id="path12" d="M 0,0 36,0 36,2 0,2 0,0 Z" style="fill:#939598;fill-opacity:1;fill-rule:nonzero;stroke:none"/><g id="g14"><g id="g16" clip-path="url(#clipPath18)"><g id="g22" transform="translate(5,3.9355)"><path id="path24" d="m 0,0 31,0.066 0,25.998 -19,0 c -6,0 -7,-2.999 -7,-2.999 0,0 -5,-12.999 -5,-14.999 L 0,0 Z" style="fill:#d1d3d4;fill-opacity:1;fill-rule:nonzero;stroke:none"/></g><g id="g26" transform="translate(14,6)"><path id="path28" d="m 0,0 c 0,-0.553 -0.448,-1 -1,-1 l -8,0 c -0.552,0 -1,0.447 -1,1 l 0,2 c 0,0.553 0.448,1 1,1 l 8,0 C -0.448,3 0,2.553 0,2 L 0,0 Z" style="fill:#d1d3d4;fill-opacity:1;fill-rule:nonzero;stroke:none"/></g><g id="g30" transform="translate(36,1)"><path id="path32" d="m 0,0 -31.473,0 c -0.531,0 -1.136,0.671 -1.353,1.5 l -0.782,3 C -33.825,5.329 -33,6 -32,6 L 0,6 0,0 Z" style="fill:#f4900c;fill-opacity:1;fill-rule:nonzero;stroke:none"/></g><g id="g34" transform="translate(36,26)"><path id="path36" d="m 0,0 -13.993,0 c -1.987,0 -3.907,-1.791 -4.286,-4 l -1.033,-6 c -0.38,-2.209 1.103,-4 3.312,-4 l 16,0 0,14 z" style="fill:#414042;fill-opacity:1;fill-rule:nonzero;stroke:none"/></g><g id="g38" transform="translate(36,24)"><path id="path40" d="M 0,0 -12.905,0 C -15,0 -15.696,-1.279 -15.967,-2.857 l -0.737,-4.286 C -16.976,-8.721 -16.578,-10 -15,-10 l 15,0 0,10 z" style="fill:#3b88c3;fill-opacity:1;fill-rule:nonzero;stroke:none"/></g><g id="g42" transform="translate(17,30)"><path id="path44" d="m 0,0 c -6,0 -7,-3 -7,-3 0,0 -4.992,-12.979 -5,-14.994 2.448,0.036 4.116,0.344 5,2.995 1,3 2,7 3,9 C -3,-4 -2,-3 1,-3 3.493,-3 4.592,-1.614 4.896,0 L 0,0 Z" style="fill:#414042;fill-opacity:1;fill-rule:nonzero;stroke:none"/></g><g id="g46" transform="translate(9,18.0005)"><path id="path48" d="M 0,0 C 0.944,2.832 3.663,7.442 0.6,7.949 -0.241,5.727 -2.207,0.46 -3.277,-3.001 l 0.277,0 c 0,0 2,0 3,3.001" style="fill:#55acee;fill-opacity:1;fill-rule:nonzero;stroke:none"/></g><g id="g50" transform="translate(9,10)"><path id="path52" d="m 0,0 c 0,-0.553 -0.448,-1 -1,-1 l -2,0 c -0.552,0 -1,0.447 -1,1 0,0.553 0.448,1 1,1 l 2,0 C -0.448,1 0,0.553 0,0" style="fill:#dd2e44;fill-opacity:1;fill-rule:nonzero;stroke:none"/></g></g></g></g></svg>