<svg xmlns="http://www.w3.org/2000/svg" xmlns:svg="http://www.w3.org/2000/svg" style="enable-background:new 0 0 45 45" id="svg2" version="1.1" viewBox="0 0 45 45" xml:space="preserve"><metadata id="metadata8"/><defs id="defs6"><clipPath id="clipPath20" clipPathUnits="userSpaceOnUse"><path id="path22" d="M 0,36 36,36 36,0 0,0 0,36 Z"/></clipPath></defs><g id="g10" transform="matrix(1.25,0,0,-1.25,0,45)"><path id="path12" d="m 18.26,5 -2,0 0,5 2,0 0,-5 z" style="fill:#66757f;fill-opacity:1;fill-rule:nonzero;stroke:none"/><path id="path14" d="m 8.26,10 2,0 0,-5 -2,0 0,5 z" style="fill:#66757f;fill-opacity:1;fill-rule:nonzero;stroke:none"/><g id="g16"><g id="g18" clip-path="url(#clipPath20)"><g id="g24" transform="translate(12.2588,33.0005)"><path id="path26" d="m 0,0 c 0,-0.552 -2.686,-1 -6,-1 -3.314,0 -6,0.448 -6,1 0,0.552 2.686,1 6,1 3.314,0 6,-0.448 6,-1" style="fill:#99aab5;fill-opacity:1;fill-rule:nonzero;stroke:none"/></g><g id="g28" transform="translate(26.2588,33.0005)"><path id="path30" d="m 0,0 c 0,-0.552 -2.686,-1 -6,-1 -3.314,0 -6,0.448 -6,1 0,0.552 2.686,1 6,1 3.314,0 6,-0.448 6,-1" style="fill:#99aab5;fill-opacity:1;fill-rule:nonzero;stroke:none"/></g><path id="path32" d="m 14.26,27 -2,0 0,6 2,0 0,-6 z" style="fill:#99aab5;fill-opacity:1;fill-rule:nonzero;stroke:none"/><g id="g34" transform="translate(15.2588,33.0005)"><path id="path36" d="m 0,0 c 0,-0.552 -0.896,-1 -2,-1 -1.105,0 -2,0.448 -2,1 0,0.552 0.895,1 2,1 1.104,0 2,-0.448 2,-1" style="fill:#66757f;fill-opacity:1;fill-rule:nonzero;stroke:none"/></g><g id="g38" transform="translate(34.2588,26.0005)"><path id="path40" d="M 0,0 C 0,3 0,7 -1,7 -2,7 -4,3 -5,1 -6,-1 0,0 0,0" style="fill:#ffcc4d;fill-opacity:1;fill-rule:nonzero;stroke:none"/></g><g id="g42" transform="translate(34.2588,26.0005)"><path id="path44" d="m 0,0 c 0,2.209 -8,3 -19,3 l -1.989,0 c -0.004,0 -0.007,0 -0.011,0 -6.627,0 -12.75,-5.451 -12.75,-11.25 0,-5.799 3.75,-9.75 12.75,-9.75 9,0 12,4.701 12,10.5 0,0.88 -0.138,1.731 -0.371,2.549 C -5,-4 0,-2.007 0,0" style="fill:#ffcc4d;fill-opacity:1;fill-rule:nonzero;stroke:none"/></g><g id="g46" transform="translate(4.2588,23.0005)"><path id="path48" d="M 0,0 C -2.091,-2.918 -3.068,-7.589 1.213,-7.784 6,-8.001 8,-8.001 9.063,-5.413 10.428,-2.092 10,2 8.787,2.783 6.467,4.28 2.092,2.918 0,0" style="fill:#3b88c3;fill-opacity:1;fill-rule:nonzero;stroke:none"/></g><g id="g50" transform="translate(21.0996,23.4648)"><path id="path52" d="m 0,0 c 2.159,-3.464 2.07,-6.161 -1.841,-7.465 -3,-1 -4,2 -3.841,5.535 0.112,2.484 0.206,4.196 1.841,4.466 C -2.394,2.775 -1.314,2.109 0,0" style="fill:#3b88c3;fill-opacity:1;fill-rule:nonzero;stroke:none"/></g><g id="g54" transform="translate(31.4405,28.8862)"><path id="path56" d="M 0,0 C 0.903,-1.273 1.27,-2.564 0.82,-2.884 0.37,-3.204 -0.728,-2.43 -1.631,-1.158 -2.534,0.115 -2.902,1.406 -2.451,1.726 -2.001,2.046 -0.903,1.273 0,0" style="fill:#99aab5;fill-opacity:1;fill-rule:nonzero;stroke:none"/></g><g id="g58" transform="translate(34.7198,24.2646)"><path id="path60" d="m 0,0 c 0.909,-1.279 1.28,-2.575 0.83,-2.895 -0.45,-0.32 -1.553,0.458 -2.46,1.737 -0.909,1.28 -1.279,2.576 -0.829,2.896 C -2.009,2.058 -0.907,1.279 0,0" style="fill:#99aab5;fill-opacity:1;fill-rule:nonzero;stroke:none"/></g><g id="g62" transform="translate(33.0762,26.5811)"><path id="path64" d="m 0,0 c 0.319,-0.45 0.214,-1.074 -0.236,-1.394 -0.45,-0.32 -1.075,-0.214 -1.395,0.236 -0.319,0.45 -0.214,1.075 0.238,1.394 C -0.943,0.557 -0.319,0.45 0,0" style="fill:#66757f;fill-opacity:1;fill-rule:nonzero;stroke:none"/></g><g id="g66" transform="translate(25.2598,4)"><path id="path68" d="m 0,0 c 0,-1.105 -0.895,-2 -2,-2 l -20,0 c -1.104,0 -2,0.895 -2,2 0,1.105 0.896,2 2,2 L -2,2 C -0.895,2 0,1.105 0,0" style="fill:#99aab5;fill-opacity:1;fill-rule:nonzero;stroke:none"/></g></g></g></g></svg>