<svg xmlns="http://www.w3.org/2000/svg" xmlns:svg="http://www.w3.org/2000/svg" style="enable-background:new 0 0 45 45" id="svg2" version="1.1" viewBox="0 0 45 45" xml:space="preserve"><metadata id="metadata8"/><defs id="defs6"><clipPath id="clipPath16" clipPathUnits="userSpaceOnUse"><path id="path18" d="M 0,36 36,36 36,0 0,0 0,36 Z"/></clipPath></defs><g id="g10" transform="matrix(1.25,0,0,-1.25,0,45)"><g id="g12"><g id="g14" clip-path="url(#clipPath16)"><g id="g20" transform="translate(11,2)"><path id="path22" d="m 0,0 c 0,-1.105 -0.895,-2 -2,-2 l -2,0 c -1.104,0 -2,0.895 -2,2 l 0,7 c 0,1.105 0.896,2 2,2 l 2,0 C -0.895,9 0,8.105 0,7 L 0,0 Z" style="fill:#292f33;fill-opacity:1;fill-rule:nonzero;stroke:none"/></g><g id="g24" transform="translate(31,2)"><path id="path26" d="m 0,0 c 0,-1.105 -0.895,-2 -2,-2 l -2,0 c -1.104,0 -2,0.895 -2,2 l 0,7 c 0,1.105 0.896,2 2,2 l 2,0 C -0.895,9 0,8.105 0,7 L 0,0 Z" style="fill:#292f33;fill-opacity:1;fill-rule:nonzero;stroke:none"/></g><g id="g28" transform="translate(3,19)"><path id="path30" d="m 0,0 c 0,-0.553 -0.448,-1 -1,-1 l -1,0 c -0.552,0 -1,0.447 -1,1 l 0,7 c 0,0.552 0.448,1 1,1 l 1,0 C -0.448,8 0,7.552 0,7 L 0,0 Z" style="fill:#99aab5;fill-opacity:1;fill-rule:nonzero;stroke:none"/></g><g id="g32" transform="translate(36,19)"><path id="path34" d="m 0,0 c 0,-0.553 -0.447,-1 -1,-1 l -1,0 c -0.553,0 -1,0.447 -1,1 l 0,7 c 0,0.552 0.447,1 1,1 l 1,0 C -0.447,8 0,7.552 0,7 L 0,0 Z" style="fill:#99aab5;fill-opacity:1;fill-rule:nonzero;stroke:none"/></g><g id="g36" transform="translate(35,25)"><path id="path38" d="m 0,0 c 0,-0.552 -0.447,-1 -1,-1 l -32,0 c -0.552,0 -1,0.448 -1,1 0,0.552 0.448,1 1,1 L -1,1 C -0.447,1 0,0.552 0,0" style="fill:#99aab5;fill-opacity:1;fill-rule:nonzero;stroke:none"/></g><g id="g40" transform="translate(35,21)"><path id="path42" d="m 0,0 c 0,-0.553 -0.447,-1 -1,-1 l -32,0 c -0.552,0 -1,0.447 -1,1 0,0.553 0.448,1 1,1 L -1,1 C -0.447,1 0,0.553 0,0" style="fill:#99aab5;fill-opacity:1;fill-rule:nonzero;stroke:none"/></g><g id="g44" transform="translate(24,34)"><path id="path46" d="m 0,0 c 0,-1.104 -0.895,-2 -2,-2 l -8,0 c -1.104,0 -2,0.896 -2,2 0,1.104 0.896,2 2,2 l 8,0 C -0.895,2 0,1.104 0,0" style="fill:#ccd6dd;fill-opacity:1;fill-rule:nonzero;stroke:none"/></g><g id="g48" transform="translate(28,34)"><path id="path50" d="m 0,0 -20,0 c -2.209,0 -4,-1.791 -4,-4 l 0,-20 0,-2 0,-4 4,0 20,0 4,0 0,4 0,2 0,20 C 4,-1.791 2.209,0 0,0" style="fill:#ccd6dd;fill-opacity:1;fill-rule:nonzero;stroke:none"/></g><path id="path52" d="M 32,4 4,4 4,20 32,20 32,4 Z" style="fill:#ffcc4d;fill-opacity:1;fill-rule:nonzero;stroke:none"/><g id="g54" transform="translate(33,4)"><path id="path56" d="m 0,0 c 0,-0.553 -0.447,-1 -1,-1 l -28,0 c -0.552,0 -1,0.447 -1,1 l 0,1 c 0,0.553 0.448,1 1,1 L -1,2 C -0.447,2 0,1.553 0,1 L 0,0 Z" style="fill:#66757f;fill-opacity:1;fill-rule:nonzero;stroke:none"/></g><g id="g58" transform="translate(32,19)"><path id="path60" d="m 0,0 c 0,-1.657 -1.343,-3 -3,-3 l -22,0 c -1.657,0 -3,1.343 -3,3 l 0,7 c 0,1.657 1.343,3 3,3 l 22,0 C -1.343,10 0,8.657 0,7 L 0,0 Z" style="fill:#66757f;fill-opacity:1;fill-rule:nonzero;stroke:none"/></g><g id="g62" transform="translate(30,19.9995)"><path id="path64" d="m 0,0 c 0,-1.104 -0.895,-1.999 -2,-1.999 l -20,0 c -1.104,0 -2,0.895 -2,1.999 l 0,5.001 c 0,1.104 0.896,2 2,2 l 20,0 c 1.105,0 2,-0.896 2,-2 L 0,0 Z" style="fill:#88c9f9;fill-opacity:1;fill-rule:nonzero;stroke:none"/></g><path id="path66" d="M 32,6 4,6 4,11 32,11 32,6 Z" style="fill:#ffac33;fill-opacity:1;fill-rule:nonzero;stroke:none"/><path id="path68" d="m 12,8 -6,0 0,3 6,0 0,-3 z" style="fill:#fff;fill-opacity:1;fill-rule:nonzero;stroke:none"/><path id="path70" d="m 30,8 -6,0 0,3 6,0 0,-3 z" style="fill:#fff;fill-opacity:1;fill-rule:nonzero;stroke:none"/><path id="path72" d="M 6,8 4,8 4,11 6,11 6,8 Z" style="fill:#dd2e44;fill-opacity:1;fill-rule:nonzero;stroke:none"/><path id="path74" d="m 32,8 -2,0 0,3 2,0 0,-3 z" style="fill:#dd2e44;fill-opacity:1;fill-rule:nonzero;stroke:none"/><path id="path76" d="m 22,8 -8,0 0,3 8,0 0,-3 z" style="fill:#66757f;fill-opacity:1;fill-rule:nonzero;stroke:none"/><g id="g78" transform="translate(22,32.5)"><path id="path80" d="m 0,0 c 0,-0.829 -0.672,-1.5 -1.5,-1.5 l -5,0 c -0.829,0 -1.5,0.671 -1.5,1.5 0,0.829 0.671,1.5 1.5,1.5 l 5,0 C -0.672,1.5 0,0.829 0,0" style="fill:#292f33;fill-opacity:1;fill-rule:nonzero;stroke:none"/></g></g></g></g></svg>