<svg xmlns="http://www.w3.org/2000/svg" xmlns:svg="http://www.w3.org/2000/svg" style="enable-background:new 0 0 45 45" id="svg2" version="1.1" viewBox="0 0 45 45" xml:space="preserve"><metadata id="metadata8"/><defs id="defs6"><clipPath id="clipPath18" clipPathUnits="userSpaceOnUse"><path id="path20" d="M 0,36 36,36 36,0 0,0 0,36 Z"/></clipPath></defs><g id="g10" transform="matrix(1.25,0,0,-1.25,0,45)"><path id="path12" d="M 0,0 36,0 36,2 0,2 0,0 Z" style="fill:#939598;fill-opacity:1;fill-rule:nonzero;stroke:none"/><g id="g14"><g id="g16" clip-path="url(#clipPath18)"><g id="g22" transform="translate(3,1)"><path id="path24" d="m 0,0 33,0 0,29 -15,0 c -4,0 -5,-2 -5,-2 L 9,21.001 c 0,0 -12,-5 -12,-10 0,-4 6,-6 6,-6 L 0,0 Z" style="fill:#d1d3d4;fill-opacity:1;fill-rule:nonzero;stroke:none"/></g><g id="g26" transform="translate(14,1)"><path id="path28" d="M 0,0 2,3 22,3 22,0 0,0 Z" style="fill:#231f20;fill-opacity:1;fill-rule:nonzero;stroke:none"/></g><g id="g30" transform="translate(0,12.001)"><path id="path32" d="M 0,0 C 0,-4 6,-6 6,-6 L 6,6.874 C 3,4.999 0,2.5 0,0" style="fill:#3b88c3;fill-opacity:1;fill-rule:nonzero;stroke:none"/></g><g id="g34" transform="translate(6,6)"><path id="path36" d="M 0,0 0,0.001 0,0 Z" style="fill:#3b88c3;fill-opacity:1;fill-rule:nonzero;stroke:none"/></g><g id="g38" transform="translate(6,6)"><path id="path40" d="M 0,0 -3,-5 30,-5 30,0 0,0 Z" style="fill:#269;fill-opacity:1;fill-rule:nonzero;stroke:none"/></g><g id="g42" transform="translate(20,6)"><path id="path44" d="M 0,0 4,6 16,6 16,0 0,0 Z" style="fill:#3b88c3;fill-opacity:1;fill-rule:nonzero;stroke:none"/></g><g id="g46" transform="translate(26,28)"><path id="path48" d="M 0,0 -10.001,0 -14,-5.999 -14.001,-6 -3.158,-6 c 0.476,0 1.108,0.448 1.412,1 l 2.197,4 C 0.754,-0.448 0.553,0 0,0" style="fill:#55acee;fill-opacity:1;fill-rule:nonzero;stroke:none"/></g><g id="g50" transform="translate(25.9023,26)"><path id="path52" d="M 0,0 0.549,1 C 0.852,1.552 0.65,2 0.098,2 L -9.903,2 -11.236,0 0,0 Z" style="fill:#3b88c3;fill-opacity:1;fill-rule:nonzero;stroke:none"/></g></g></g></g></svg>