<svg xmlns="http://www.w3.org/2000/svg" xmlns:svg="http://www.w3.org/2000/svg" style="enable-background:new 0 0 45 45" id="svg2" version="1.1" viewBox="0 0 45 45" xml:space="preserve"><metadata id="metadata8"/><defs id="defs6"><clipPath id="clipPath32" clipPathUnits="userSpaceOnUse"><path id="path34" d="M 0,36 36,36 36,0 0,0 0,36 Z"/></clipPath></defs><g id="g10" transform="matrix(1.25,0,0,-1.25,0,45)"><path id="path12" d="M 0,8 36,8 36,12 0,12 0,8 Z" style="fill:#6d6e71;fill-opacity:1;fill-rule:nonzero;stroke:none"/><path id="path14" d="m 0,10 36,0 0,4.001 -36,0 L 0,10 Z" style="fill:#939598;fill-opacity:1;fill-rule:nonzero;stroke:none"/><path id="path16" d="M 6,0 10,0 10,8 6,8 6,0 Z" style="fill:#939598;fill-opacity:1;fill-rule:nonzero;stroke:none"/><path id="path18" d="m 16,0 4,0 0,8 -4,0 0,-8 z" style="fill:#939598;fill-opacity:1;fill-rule:nonzero;stroke:none"/><path id="path20" d="m 26,0 4,0 0,8 -4,0 0,-8 z" style="fill:#939598;fill-opacity:1;fill-rule:nonzero;stroke:none"/><path id="path22" d="M 10,6 6,6 6,9 10,9 10,6 Z" style="fill:#6d6e71;fill-opacity:1;fill-rule:nonzero;stroke:none"/><path id="path24" d="m 20,6 -4,0 0,3 4,0 0,-3 z" style="fill:#6d6e71;fill-opacity:1;fill-rule:nonzero;stroke:none"/><path id="path26" d="m 30,6 -4,0 0,3 4,0 0,-3 z" style="fill:#6d6e71;fill-opacity:1;fill-rule:nonzero;stroke:none"/><g id="g28"><g id="g30" clip-path="url(#clipPath32)"><g id="g36" transform="translate(36,36)"><path id="path38" d="m 0,0 -6,0 c -1.104,0 -2,-0.896 -2,-2 l 0,-2 c 0,-1.104 0.896,-2 2,-2 l 6,0 0,6 z" style="fill:#bcbec0;fill-opacity:1;fill-rule:nonzero;stroke:none"/></g><g id="g40" transform="translate(36,16)"><path id="path42" d="m 0,0 0,-5 -18,0 c -3.001,0 -7.001,5 -7.001,5 L 0,0 Z" style="fill:#d1d3d4;fill-opacity:1;fill-rule:nonzero;stroke:none"/></g><g id="g44" transform="translate(10.9995,16)"><path id="path46" d="m 0,0 c 0,0 0.751,-0.937 1.844,-2 l 23.157,0 0,2 L 0,0 Z" style="fill:#bcbec0;fill-opacity:1;fill-rule:nonzero;stroke:none"/></g><g id="g48" transform="translate(36,16)"><path id="path50" d="m 0,0 -26,0 c -3,0 -7,3.001 -7,6.001 0,5 15.999,11.999 18,11.999 L 0,18 0,0 Z" style="fill:#e6e7e8;fill-opacity:1;fill-rule:nonzero;stroke:none"/></g><g id="g52" transform="translate(3.7412,24)"><path id="path54" d="m 0,0 c -0.461,-0.686 -0.742,-1.36 -0.742,-1.999 0,-1.656 1.221,-3.309 2.816,-4.46 15.416,4.459 30.185,4.46 30.185,4.46 L 32.259,0 0,0 Z" style="fill:#5c913b;fill-opacity:1;fill-rule:nonzero;stroke:none"/></g><g id="g56" transform="translate(21,32)"><path id="path58" d="m 0,0 -5.553,0 c -3.327,-1.524 -7.344,-3.738 -9.899,-6 L 0,-6 c 1.105,0 2,0.896 2,2 l 0,2 C 2,-0.896 1.105,0 0,0" style="fill:#55acee;fill-opacity:1;fill-rule:nonzero;stroke:none"/></g><g id="g60" transform="translate(26,27)"><path id="path62" d="m 0,0 c 0,-0.552 -0.447,-1 -1,-1 -0.553,0 -1,0.448 -1,1 l 0,4 c 0,0.552 0.447,1 1,1 0.553,0 1,-0.448 1,-1 L 0,0 Z" style="fill:#55acee;fill-opacity:1;fill-rule:nonzero;stroke:none"/></g><g id="g64" transform="translate(34,27)"><path id="path66" d="m 0,0 c 0,-0.552 -0.447,-1 -1,-1 l -4,0 c -0.553,0 -1,0.448 -1,1 l 0,4 c 0,0.552 0.447,1 1,1 l 4,0 C -0.447,5 0,4.552 0,4 L 0,0 Z" style="fill:#55acee;fill-opacity:1;fill-rule:nonzero;stroke:none"/></g></g></g></g></svg>