<svg xmlns="http://www.w3.org/2000/svg" xmlns:svg="http://www.w3.org/2000/svg" style="enable-background:new 0 0 45 45" id="svg2" version="1.1" viewBox="0 0 45 45" xml:space="preserve"><metadata id="metadata8"/><defs id="defs6"><clipPath id="clipPath16" clipPathUnits="userSpaceOnUse"><path id="path18" d="M 0,36 36,36 36,0 0,0 0,36 Z"/></clipPath></defs><g id="g10" transform="matrix(1.25,0,0,-1.25,0,45)"><g id="g12"><g id="g14" clip-path="url(#clipPath16)"><g id="g20" transform="translate(35,26)"><path id="path22" d="M 0,0 C 0,1 -1,4 -4,4 L -17.494,4 -20,4 -25.599,4 C -29,4 -35,-8.001 -35,-11 l 0,-6 c 0,-2.209 1.791,-4 4,-4 l 28,0 c 2.209,0 4,1.791 4,4 l 0,9.999 C 1,-5.973 0,0 0,0" style="fill:#ccd6dd;fill-opacity:1;fill-rule:nonzero;stroke:none"/></g><path id="path24" d="m 36,10 -36,0 0,3 36,0 0,-3 z" style="fill:#66757f;fill-opacity:1;fill-rule:nonzero;stroke:none"/><g id="g26" transform="translate(9.0005,11)"><path id="path28" d="M 0,0 C -3.267,0 -5.918,-2.612 -5.993,-5.861 -5.674,-5.942 -5.345,-6 -5,-6 L 6,-6 C 6,-2.686 3.314,0 0,0" style="fill:#e1e8ed;fill-opacity:1;fill-rule:nonzero;stroke:none"/></g><g id="g30" transform="translate(32.9932,5.1396)"><path id="path32" d="m 0,0 c -0.075,3.248 -2.726,5.86 -5.993,5.86 -3.313,0 -6,-2.686 -6,-6 l 11,0 c 0.345,0 0.674,0.058 0.993,0.14" style="fill:#e1e8ed;fill-opacity:1;fill-rule:nonzero;stroke:none"/></g><g id="g34" transform="translate(5.6855,10)"><path id="path36" d="M 0,0 6.629,0 C 5.679,0.631 4.541,1 3.315,1 2.089,1 0.949,0.632 0,0" style="fill:#99aab5;fill-opacity:1;fill-rule:nonzero;stroke:none"/></g><g id="g38" transform="translate(23.6865,10)"><path id="path40" d="M 0,0 6.629,0 C 5.68,0.632 4.54,1 3.313,1 2.089,1 0.95,0.631 0,0" style="fill:#99aab5;fill-opacity:1;fill-rule:nonzero;stroke:none"/></g><g id="g42" transform="translate(13,5)"><path id="path44" d="m 0,0 c 0,-2.209 -1.791,-4 -4,-4 -2.209,0 -4,1.791 -4,4 0,2.209 1.791,4 4,4 2.209,0 4,-1.791 4,-4" style="fill:#292f33;fill-opacity:1;fill-rule:nonzero;stroke:none"/></g><g id="g46" transform="translate(11,5)"><path id="path48" d="m 0,0 c 0,-1.105 -0.895,-2 -2,-2 -1.104,0 -2,0.895 -2,2 0,1.105 0.896,2 2,2 1.105,0 2,-0.895 2,-2" style="fill:#99aab5;fill-opacity:1;fill-rule:nonzero;stroke:none"/></g><g id="g50" transform="translate(31,5)"><path id="path52" d="m 0,0 c 0,-2.209 -1.791,-4 -4,-4 -2.209,0 -4,1.791 -4,4 0,2.209 1.791,4 4,4 2.209,0 4,-1.791 4,-4" style="fill:#292f33;fill-opacity:1;fill-rule:nonzero;stroke:none"/></g><g id="g54" transform="translate(29,5)"><path id="path56" d="m 0,0 c 0,-1.105 -0.895,-2 -2,-2 -1.104,0 -2,0.895 -2,2 0,1.105 0.896,2 2,2 1.105,0 2,-0.895 2,-2" style="fill:#99aab5;fill-opacity:1;fill-rule:nonzero;stroke:none"/></g><g id="g58" transform="translate(5,23)"><path id="path60" d="m 0,0 6,0 0,-7 -9,0 3,7 z" style="fill:#55acee;fill-opacity:1;fill-rule:nonzero;stroke:none"/></g><path id="path62" d="m 21,16 -8,0 0,7 8,0 0,-7 z" style="fill:#55acee;fill-opacity:1;fill-rule:nonzero;stroke:none"/><g id="g64" transform="translate(23,23)"><path id="path66" d="m 0,0 0,-7 13,0 0,2.999 C 13,-3.475 12.738,-1.653 12.482,0 L 0,0 Z" style="fill:#55acee;fill-opacity:1;fill-rule:nonzero;stroke:none"/></g><g id="g68" transform="translate(33,25)"><path id="path70" d="m 0,0 -26,0 c -0.552,0 -1,0.448 -1,1 0,0.552 0.448,1 1,1 L 0,2 C 0.553,2 1,1.552 1,1 1,0.448 0.553,0 0,0" style="fill:#99aab5;fill-opacity:1;fill-rule:nonzero;stroke:none"/></g></g></g></g></svg>