<svg xmlns="http://www.w3.org/2000/svg" xmlns:svg="http://www.w3.org/2000/svg" style="enable-background:new 0 0 45 45" id="svg2" version="1.1" viewBox="0 0 45 45" xml:space="preserve"><metadata id="metadata8"/><defs id="defs6"><clipPath id="clipPath16" clipPathUnits="userSpaceOnUse"><path id="path18" d="M 0,36 36,36 36,0 0,0 0,36 Z"/></clipPath></defs><g id="g10" transform="matrix(1.25,0,0,-1.25,0,45)"><g id="g12"><g id="g14" clip-path="url(#clipPath16)"><g id="g20" transform="translate(30,20)"><path id="path22" d="m 0,0 c 0,-1.104 -0.895,-2 -2,-2 l -10,0 c -1.104,0 -2,0.896 -2,2 l 0,2 c 0,1.105 0.896,2 2,2 L -2,4 C -0.895,4 0,3.105 0,2 L 0,0 Z" style="fill:#58595b;fill-opacity:1;fill-rule:nonzero;stroke:none"/></g><g id="g24" transform="translate(4,22)"><path id="path26" d="m 0,0 c -2.209,0 -4,-1.791 -4,-4 l 0,-10 c 0,-4.418 3.582,-8 8,-8 l 28,0 0,22 -32,0 z" style="fill:#f4900c;fill-opacity:1;fill-rule:nonzero;stroke:none"/></g><g id="g28" transform="translate(0.5869,5)"><path id="path30" d="m 0,0 35.413,0 0,2 -35.931,0 C -0.431,1.302 -0.255,0.631 0,0" style="fill:#ffd983;fill-opacity:1;fill-rule:nonzero;stroke:none"/></g><path id="path32" d="m 36,28 -36,0 0,6 36,0 0,-6 z" style="fill:#808285;fill-opacity:1;fill-rule:nonzero;stroke:none"/><path id="path34" d="m 36,30 -36,0 0,2 36,0 0,-2 z" style="fill:#414042;fill-opacity:1;fill-rule:nonzero;stroke:none"/><g id="g36" transform="translate(28,36)"><path id="path38" d="m 0,0 -10,0 c -1.657,0 -3,-1.343 -3,-3 0,-1.657 1.343,-3 3,-3 l 3,0 0,-4 -2,-2 8,0 -2,2 0,4 3,0 c 1.657,0 3,1.343 3,3 0,1.657 -1.343,3 -3,3" style="fill:#a7a9ac;fill-opacity:1;fill-rule:nonzero;stroke:none"/></g><path id="path40" d="M 14,7 36,7 36,22 14,22 14,7 Z" style="fill:#3b88c3;fill-opacity:1;fill-rule:nonzero;stroke:none"/><g id="g42" transform="translate(12,11)"><path id="path44" d="m 0,0 c 0,-1.104 -0.895,-2 -2,-2 l -4,0 c -1.104,0 -2,0.896 -2,2 l 0,6 c 0,1.105 0.896,2 2,2 l 4,0 C -0.895,8 0,7.105 0,6 L 0,0 Z" style="fill:#58595b;fill-opacity:1;fill-rule:nonzero;stroke:none"/></g><g id="g46" transform="translate(24,13)"><path id="path48" d="m 0,0 c 0,-1.104 -0.895,-2 -2,-2 l -4,0 c -1.104,0 -2,0.896 -2,2 l 0,4 c 0,1.105 0.896,2 2,2 l 4,0 C -0.895,6 0,5.105 0,4 L 0,0 Z" style="fill:#414042;fill-opacity:1;fill-rule:nonzero;stroke:none"/></g><g id="g50" transform="translate(34,13)"><path id="path52" d="m 0,0 c 0,-1.104 -0.895,-2 -2,-2 l -4,0 c -1.104,0 -2,0.896 -2,2 l 0,4 c 0,1.105 0.896,2 2,2 l 4,0 C -0.895,6 0,5.105 0,4 L 0,0 Z" style="fill:#414042;fill-opacity:1;fill-rule:nonzero;stroke:none"/></g><g id="g54" transform="translate(0,19)"><path id="path56" d="m 0,0 0,-10 c 1.104,0 2,0.896 2,2 l 0,6 C 2,-0.895 1.104,0 0,0" style="fill:#58595b;fill-opacity:1;fill-rule:nonzero;stroke:none"/></g></g></g></g></svg>