<svg xmlns="http://www.w3.org/2000/svg" xmlns:svg="http://www.w3.org/2000/svg" style="enable-background:new 0 0 45 45" id="svg2" version="1.1" viewBox="0 0 45 45" xml:space="preserve"><metadata id="metadata8"/><defs id="defs6"><clipPath id="clipPath16" clipPathUnits="userSpaceOnUse"><path id="path18" d="M 0,36 36,36 36,0 0,0 0,36 Z"/></clipPath></defs><g id="g10" transform="matrix(1.25,0,0,-1.25,0,45)"><g id="g12"><g id="g14" clip-path="url(#clipPath16)"><g id="g20" transform="translate(36,9)"><path id="path22" d="m 0,0 c 0,-2.209 -1.791,-4 -4,-4 l -28,0 c -2.209,0 -4,1.791 -4,4 l 0,3 c 0,2.209 1.791,4 4,4 L -4,7 C -1.791,7 0,5.209 0,3 L 0,0 Z" style="fill:#dd2e44;fill-opacity:1;fill-rule:nonzero;stroke:none"/></g><g id="g24" transform="translate(19,23)"><path id="path26" d="M 0,0 -0.979,1 -11.854,1 C -15,1 -16,-1 -16,-1 l -3,-5.959 0,-5.041 19,0 0,12 z" style="fill:#ffcc4d;fill-opacity:1;fill-rule:nonzero;stroke:none"/></g><g id="g28" transform="translate(9,16)"><path id="path30" d="m 0,0 -7,0 2,4 c 0,0 1,2 3,2 L 0,6 0,0 Z" style="fill:#55acee;fill-opacity:1;fill-rule:nonzero;stroke:none"/></g><g id="g32" transform="translate(13,5)"><path id="path34" d="m 0,0 c 0,-2.209 -1.791,-4 -4,-4 -2.209,0 -4,1.791 -4,4 0,2.209 1.791,4 4,4 2.209,0 4,-1.791 4,-4" style="fill:#292f33;fill-opacity:1;fill-rule:nonzero;stroke:none"/></g><g id="g36" transform="translate(11,5)"><path id="path38" d="m 0,0 c 0,-1.105 -0.895,-2 -2,-2 -1.104,0 -2,0.895 -2,2 0,1.105 0.896,2 2,2 1.105,0 2,-0.895 2,-2" style="fill:#ccd6dd;fill-opacity:1;fill-rule:nonzero;stroke:none"/></g><g id="g40" transform="translate(31,5)"><path id="path42" d="m 0,0 c 0,-2.209 -1.791,-4 -4,-4 -2.209,0 -4,1.791 -4,4 0,2.209 1.791,4 4,4 2.209,0 4,-1.791 4,-4" style="fill:#292f33;fill-opacity:1;fill-rule:nonzero;stroke:none"/></g><g id="g44" transform="translate(27,7)"><path id="path46" d="m 0,0 c -1.104,0 -2,-0.895 -2,-2 0,-1.105 0.896,-2 2,-2 1.105,0 2,0.895 2,2 0,1.105 -0.895,2 -2,2" style="fill:#ccd6dd;fill-opacity:1;fill-rule:nonzero;stroke:none"/></g><g id="g48" transform="translate(32,28)"><path id="path50" d="m 0,0 -15,0 c -2.209,0 -4,-1.791 -4,-4 l 0,-13 23,0 0,13 C 4,-1.791 2.209,0 0,0" style="fill:#ccd6dd;fill-opacity:1;fill-rule:nonzero;stroke:none"/></g></g></g></g></svg>