<svg xmlns="http://www.w3.org/2000/svg" xmlns:svg="http://www.w3.org/2000/svg" style="enable-background:new 0 0 45 45" id="svg2" version="1.1" viewBox="0 0 45 45" xml:space="preserve"><metadata id="metadata8"/><defs id="defs6"><clipPath id="clipPath16" clipPathUnits="userSpaceOnUse"><path id="path18" d="M 0,36 36,36 36,0 0,0 0,36 Z"/></clipPath></defs><g id="g10" transform="matrix(1.25,0,0,-1.25,0,45)"><g id="g12"><g id="g14" clip-path="url(#clipPath16)"><g id="g20" transform="translate(12.375,29.6667)"><path id="path22" d="m 0,0 c -1,-1 0.624,-0.666 1.624,-2.666 1,-2 4.001,-1 3,1 -0.211,0.422 -1.044,1.096 -1.731,1.604 0,0 0.586,0.687 0.274,1.416 C 2.854,2.083 0,0 0,0" style="fill:#7c533e;fill-opacity:1;fill-rule:nonzero;stroke:none"/></g><g id="g24" transform="translate(11.9783,33.7041)"><path id="path26" d="m 0,0 c -1.54,-0.04 -2.756,-1.32 -2.717,-2.86 0.04,-1.541 1.321,-2.757 2.861,-2.717 1.54,0.04 2.756,1.32 2.716,2.86 C 2.821,-1.177 1.54,0.04 0,0" style="fill:#7c533e;fill-opacity:1;fill-rule:nonzero;stroke:none"/></g><g id="g28" transform="translate(19.9534,32.1458)"><path id="path30" d="m 0,0 c -0.855,-0.237 -1.891,-0.562 -3.461,0.583 -1.121,0.818 -2.167,1.09 -4.369,0.608 -2.338,-0.511 -3.981,-2.233 -2.32,-2.708 0.725,-0.208 1.247,0.07 2.341,0.184 1.606,0.166 2.258,-1.189 3.814,-1.188 C -0.949,-2.518 1.276,0.354 0,0" style="fill:#0b0200;fill-opacity:1;fill-rule:nonzero;stroke:none"/></g><g id="g32" transform="translate(18.9995,20.0005)"><path id="path34" d="m 0,0 c 0,0 -3,-1.999 -3,-3 0,-1.001 4,-4.001 5,-5.001 1,-1 3,-1 2,1 C 3,-5.001 0,0 0,0" style="fill:#664131;fill-opacity:1;fill-rule:nonzero;stroke:none"/></g><g id="g36" transform="translate(20.6338,12.9795)"><path id="path38" d="m 0,0 c 0,0 1.173,-0.789 1.962,0.385 0.789,1.174 1.365,-1.771 1.365,-1.771 0,0 -2.559,-2.539 -4.521,-2.924 -1.963,-0.384 -1.174,0.789 -0.385,1.962 C -0.789,-1.174 0,0 0,0" style="fill:#a0041e;fill-opacity:1;fill-rule:nonzero;stroke:none"/></g><g id="g40" transform="translate(7.0005,2)"><path id="path42" d="m 0,0 c -2.761,0 -5,2.238 -5,5 0,2.762 2.239,5 5,5 C 2.761,10 5,7.762 5,5 5,2.238 2.761,0 0,0 m 0,12 c -3.866,0 -7,-3.134 -7,-7 0,-3.866 3.134,-7 7,-7 3.866,0 7,3.134 7,7 0,3.866 -3.134,7 -7,7" style="fill:#292f33;fill-opacity:1;fill-rule:nonzero;stroke:none"/></g><g id="g44" transform="translate(29,2)"><path id="path46" d="m 0,0 c -2.761,0 -5,2.238 -5,5 0,2.762 2.239,5 5,5 C 2.762,10 5,7.762 5,5 5,2.238 2.762,0 0,0 m 0,12 c -3.865,0 -7,-3.134 -7,-7 0,-3.866 3.135,-7 7,-7 3.867,0 7,3.134 7,7 0,3.866 -3.133,7 -7,7" style="fill:#292f33;fill-opacity:1;fill-rule:nonzero;stroke:none"/></g><g id="g48" transform="translate(22,16)"><path id="path50" d="M 0,0 C 0,0.553 -0.484,1 -1.083,1 L -11.917,1 C -12.515,1 -13,0.553 -13,0 c 0,-0.553 0.485,-1 1.083,-1 l 10.834,0 C -0.484,-1 0,-0.553 0,0" style="fill:#aab8c2;fill-opacity:1;fill-rule:nonzero;stroke:none"/></g><g id="g52" transform="translate(30,7)"><path id="path54" d="m 0,0 c 0,0.553 -0.447,1 -1,1 l -11,0 c -0.552,0 -1,-0.447 -1,-1 0,-0.553 0.448,-1 1,-1 l 11,0 c 0.553,0 1,0.447 1,1" style="fill:#aab8c2;fill-opacity:1;fill-rule:nonzero;stroke:none"/></g><g id="g56" transform="translate(21.2236,19)"><path id="path58" d="m 0,0 -4.165,-11.664 c -0.186,-0.52 0.085,-1.092 0.605,-1.277 0.111,-0.04 0.225,-0.059 0.336,-0.059 0.411,0 0.796,0.255 0.942,0.664 L 2.124,0 0,0 Z" style="fill:#aab8c2;fill-opacity:1;fill-rule:nonzero;stroke:none"/></g><g id="g60" transform="translate(29.001,6)"><path id="path62" d="m 0,0 c -0.33,0 -0.654,0.164 -0.845,0.463 l -7,10.999 c -0.297,0.467 -0.159,1.085 0.307,1.381 0.467,0.297 1.084,0.159 1.381,-0.306 l 7,-11 C 1.14,1.071 1.002,0.453 0.536,0.156 0.369,0.051 0.184,0 0,0" style="fill:#aab8c2;fill-opacity:1;fill-rule:nonzero;stroke:none"/></g><g id="g64" transform="translate(19,10.2656)"><path id="path66" d="M 0,0 -8.387,6.524 C -8.822,6.864 -9.45,6.785 -9.79,6.349 -10.129,5.912 -10.05,5.284 -9.614,4.945 l 9,-7 c 0.182,-0.142 0.398,-0.211 0.613,-0.211 L 0,-2.266 0,0 Z" style="fill:#aab8c2;fill-opacity:1;fill-rule:nonzero;stroke:none"/></g><g id="g68" transform="translate(6.9995,6)"><path id="path70" d="M 0,0 C -0.104,0 -0.211,0.017 -0.316,0.052 -0.84,0.226 -1.124,0.792 -0.949,1.316 L 1.823,9.633 -1.6,12.201 c -0.442,0.331 -0.531,0.958 -0.2,1.4 0.331,0.44 0.957,0.531 1.4,0.199 L 4.177,10.367 0.949,0.684 C 0.809,0.265 0.419,0 0,0" style="fill:#aab8c2;fill-opacity:1;fill-rule:nonzero;stroke:none"/></g><g id="g72" transform="translate(26.3828,17)"><path id="path74" d="m 0,0 c -0.03,0 -0.059,0.002 -0.089,0.006 l -5.672,0.708 c -0.372,0.047 -0.643,0.374 -0.62,0.748 0.024,0.374 0.333,0.664 0.707,0.665 0.041,0 4.068,0.018 5.989,1.299 C 0.565,3.594 0.898,3.583 1.14,3.4 1.379,3.215 1.477,2.899 1.381,2.612 L 0.672,0.485 C 0.575,0.192 0.302,0 0,0" style="fill:#292f33;fill-opacity:1;fill-rule:nonzero;stroke:none"/></g><g id="g76" transform="translate(11,18)"><path id="path78" d="m 0,0 -5,0 c -0.552,0 -1,0.448 -1,1 0,0.552 0.448,1 1,1 L 0,2 C 0.552,2 1,1.552 1,1 1,0.448 0.552,0 0,0" style="fill:#292f33;fill-opacity:1;fill-rule:nonzero;stroke:none"/></g><g id="g80" transform="translate(21.999,23.0005)"><path id="path82" d="m 0,0 -3.999,-3 3,-3 L 0,0 Z" style="fill:#a0041e;fill-opacity:1;fill-rule:nonzero;stroke:none"/></g><g id="g84" transform="translate(19.999,19.0005)"><path id="path86" d="m 0,0 c 0,0 -2,-3.001 -2,-4.001 0,-1 1,-4 1,-7 0,-3 2,-3 2,-2 0,1 1.581,5.419 0,7 C 0,-5.001 3,-2 3,-2 L 0,0 Z" style="fill:#7c533e;fill-opacity:1;fill-rule:nonzero;stroke:none"/></g><g id="g88" transform="translate(15.6845,22.7034)"><path id="path90" d="m 0,0 -2.75,0.784 c -0.446,-1.957 -3.023,-4.486 -3.935,-4.486 -1,0 -2,0 -2,-1 0,-1 0,-1 2,-1 2,0 4,2 5,3 0.65,0.65 1.31,1.756 1.685,2.702" style="fill:#7c533e;fill-opacity:1;fill-rule:nonzero;stroke:none"/></g><g id="g92" transform="translate(21.999,23.0005)"><path id="path94" d="M 0,0 -3,-4 1,-7.001 C 1,-7.001 6,-2 6,0 6,2 3,3 3,3 L 0,0 Z" style="fill:#be1931;fill-opacity:1;fill-rule:nonzero;stroke:none"/></g><g id="g96" transform="translate(20.9993,29.001)"><path id="path98" d="m 0,0 c -3,1 -5.585,0.414 -7,-1 -1,-1 -1,-2 -1,-4 0,-0.176 -0.03,-0.362 -0.073,-0.55 l 2.744,-0.784 C -5.127,-5.825 -5,-5.35 -5,-5 c 0,1 1,1 2,0 1,-1 2.001,-2 3.001,-2 1,0 6,4 6,4 C 3,-2 1.897,-0.632 0,0" style="fill:#dd2e44;fill-opacity:1;fill-rule:nonzero;stroke:none"/></g><g id="g100" transform="translate(18.9995,7)"><path id="path102" d="m 0,0 c 0,0 1,-1 2,0 1,1 1,-2 1,-2 0,0 -3,-2 -5,-2 -2,0 -1,1 0,2 l 2,2 z" style="fill:#dd2e44;fill-opacity:1;fill-rule:nonzero;stroke:none"/></g><g id="g104" transform="translate(10.9995,34.0005)"><path id="path106" d="m 0,0 c 2,1 6,0 4,-2 -1,-1 -7,-2 -7,-2 0,1 1,3 3,4" style="fill:#dd2e44;fill-opacity:1;fill-rule:nonzero;stroke:none"/></g></g></g></g></svg>