<svg xmlns="http://www.w3.org/2000/svg" xmlns:svg="http://www.w3.org/2000/svg" style="enable-background:new 0 0 45 45" id="svg2" version="1.1" viewBox="0 0 45 45" xml:space="preserve"><metadata id="metadata8"/><defs id="defs6"><clipPath id="clipPath18" clipPathUnits="userSpaceOnUse"><path id="path20" d="M 0,36 36,36 36,0 0,0 0,36 Z"/></clipPath></defs><g id="g10" transform="matrix(1.25,0,0,-1.25,0,45)"><path id="path12" d="M 1,8 35,8 35,3 1,3 1,8 Z" style="fill:#c1694f;fill-opacity:1;fill-rule:nonzero;stroke:none"/><g id="g14"><g id="g16" clip-path="url(#clipPath18)"><g id="g22" transform="translate(36,1)"><path id="path24" d="m 0,0 c 0,-0.553 -0.447,-1 -1,-1 -0.553,0 -1,0.447 -1,1 l 0,14 c 0,0.553 0.447,1 1,1 0.553,0 1,-0.447 1,-1 L 0,0 Z" style="fill:#c1694f;fill-opacity:1;fill-rule:nonzero;stroke:none"/></g><g id="g26" transform="translate(0,1)"><path id="path28" d="m 0,0 c 0,-0.553 0.447,-1 1,-1 0.553,0 1,0.447 1,1 L 2,22 C 2,22.552 1.553,23 1,23 0.447,23 0,22.552 0,22 L 0,0 Z" style="fill:#c1694f;fill-opacity:1;fill-rule:nonzero;stroke:none"/></g><g id="g30" transform="translate(32,13)"><path id="path32" d="m 0,0 -28,0 c -1.104,0 -2,-0.895 -2,-2 l 0,-4 32,0 0,4 C 2,-0.895 1.105,0 0,0" style="fill:#269;fill-opacity:1;fill-rule:nonzero;stroke:none"/></g><g id="g34" transform="translate(32,13)"><path id="path36" d="m 0,0 -28,0 c -1.104,0 -2,-0.895 -2,-2 l 0,-4 32,0 0,4 C 2,-0.895 1.105,0 0,0" style="fill:#55acee;fill-opacity:1;fill-rule:nonzero;stroke:none"/></g><g id="g38" transform="translate(2.126,16.0625)"><path id="path40" d="M 0,0 C -0.261,-1.073 1.485,-2.419 3.9,-3.006 6.315,-3.593 8.484,-3.198 8.746,-2.125 9.007,-1.052 7.261,0.294 4.846,0.882 2.431,1.468 0.261,1.074 0,0" style="fill:#5c913b;fill-opacity:1;fill-rule:nonzero;stroke:none"/></g></g></g></g></svg>