<svg xmlns="http://www.w3.org/2000/svg" xmlns:svg="http://www.w3.org/2000/svg" style="enable-background:new 0 0 45 45" id="svg2" version="1.1" viewBox="0 0 45 45" xml:space="preserve"><metadata id="metadata8"/><defs id="defs6"><clipPath id="clipPath16" clipPathUnits="userSpaceOnUse"><path id="path18" d="M 0,36 36,36 36,0 0,0 0,36 Z"/></clipPath><clipPath id="clipPath66" clipPathUnits="userSpaceOnUse"><path id="path68" d="m 13,13 21,0 0,2.222 0,0.001 c 0,1.924 -1.075,1.555 -3,1.555 l 0,0 L 17,19 c -3.208,0 -4,-6 -4,-6"/></clipPath></defs><g id="g10" transform="matrix(1.25,0,0,-1.25,0,45)"><g id="g12"><g id="g14" clip-path="url(#clipPath16)"><g id="g20" transform="translate(17,19)"><path id="path22" d="m 0,0 -2,0 c -1.1,0 -2,-0.9 -2,-2 l 0,-1 0,-3 c 0,-1.1 0.9,-2 2,-2 l 1,0 c 1.1,0 2,0.9 2,2 l 0,3 0,1 c 0,1.1 0.1,2 -1,2" style="fill:#aa8dd8;fill-opacity:1;fill-rule:nonzero;stroke:none"/></g><path id="path24" d="M 1,8 35,8 35,3 1,3 1,8 Z" style="fill:#c1694f;fill-opacity:1;fill-rule:nonzero;stroke:none"/><g id="g26" transform="translate(0,1)"><path id="path28" d="m 0,0 c 0,-0.553 0.447,-1 1,-1 0.553,0 1,0.447 1,1 L 2,22 C 2,22.552 1.553,23 1,23 0.447,23 0,22.552 0,22 L 0,0 Z" style="fill:#c1694f;fill-opacity:1;fill-rule:nonzero;stroke:none"/></g><g id="g30" transform="translate(32,13)"><path id="path32" d="m 0,0 -28,0 c -1.104,0 -2,-0.895 -2,-2 l 0,-4 32,0 0,4 C 2,-0.895 1.105,0 0,0" style="fill:#269;fill-opacity:1;fill-rule:nonzero;stroke:none"/></g><g id="g34" transform="translate(34,13)"><path id="path36" d="m 0,0 -30,0 c -1.104,0 -2,-0.895 -2,-2 l 0,-4 32,0 0,4 c 0,1.105 1.105,2 0,2" style="fill:#55acee;fill-opacity:1;fill-rule:nonzero;stroke:none"/></g><g id="g38" transform="translate(13,13)"><path id="path40" d="m 0,0 -9,0 c -1.104,0 -2,-0.895 -2,-2 l 0,-4 10,0 1,6 z" style="fill:#bdddf4;fill-opacity:1;fill-rule:nonzero;stroke:none"/></g><g id="g42" transform="translate(2.1143,15.7206)"><path id="path44" d="m 0,0 c -0.283,-1.213 1.897,-2.518 4.871,-2.916 2.974,-0.399 5.614,0.262 5.898,1.475 C 11.053,-0.229 8.872,1.077 5.898,1.476 2.924,1.874 0.283,1.213 0,0" style="fill:#5c913b;fill-opacity:1;fill-rule:nonzero;stroke:none"/></g><g id="g46" transform="translate(34,13)"><path id="path48" d="m 0,0 -21,0 c 0,0 0.792,6 4,6 L -3,4.778 C -1.075,4.778 0,3.925 0,2 L 0,2 0,0 Z" style="fill:#55acee;fill-opacity:1;fill-rule:nonzero;stroke:none"/></g><g id="g50" transform="translate(36,1)"><path id="path52" d="m 0,0 c 0,-0.553 -0.447,-1 -1,-1 -0.553,0 -1,0.447 -1,1 l 0,14 c 0,0.553 0.447,1 1,1 0.553,0 1,-0.447 1,-1 L 0,0 Z" style="fill:#c1694f;fill-opacity:1;fill-rule:nonzero;stroke:none"/></g><g id="g54" transform="translate(10.9759,19.6195)"><path id="path56" d="M 0,0 C 2.105,-1.089 3.195,-3.165 2.434,-4.637 1.673,-6.108 -0.651,-6.419 -2.756,-5.33 -4.862,-4.241 -5.952,-2.165 -5.191,-0.693 -4.429,0.779 -2.105,1.089 0,0" style="fill:#f7dece;fill-opacity:1;fill-rule:nonzero;stroke:none"/></g><g id="g58" transform="translate(7.8749,13.6237)"><path id="path60" d="m 0,0 c 0,0 -3.812,1.972 -2.09,5.303 1.379,2.665 5.191,0.693 5.191,0.693 0,0 -1.906,0.986 -2.94,-1.013 C -0.528,3.65 2.331,2.172 0,0" style="fill:#292f33;fill-opacity:1;fill-rule:nonzero;stroke:none"/></g></g></g><g id="g62"><g id="g64" clip-path="url(#clipPath66)"><g id="g70" transform="translate(34,13)"><path id="path72" d="m 0,0 -21,0 c -0.275,0 -0.5,0.225 -0.5,0.5 l 0,0 c 0,0.275 0.225,0.5 0.5,0.5 L 0,1 C 0.275,1 0.5,0.775 0.5,0.5 l 0,0 C 0.5,0.225 0.275,0 0,0" style="fill:#269;fill-opacity:1;fill-rule:nonzero;stroke:none"/></g><g id="g74" transform="translate(34,14)"><path id="path76" d="m 0,0 -21,0 c -0.275,0 -0.5,0.225 -0.5,0.5 l 0,0 c 0,0.275 0.225,0.5 0.5,0.5 L 0,1 C 0.275,1 0.5,0.775 0.5,0.5 l 0,0 C 0.5,0.225 0.275,0 0,0" style="fill:#3b88c3;fill-opacity:1;fill-rule:nonzero;stroke:none"/></g></g></g></g></svg>