<svg xmlns="http://www.w3.org/2000/svg" xmlns:svg="http://www.w3.org/2000/svg" style="enable-background:new 0 0 45 45" id="svg2" version="1.1" viewBox="0 0 45 45" xml:space="preserve"><metadata id="metadata8"/><g id="g10" transform="matrix(1.25,0,0,-1.25,0,45)"><g id="g12" transform="translate(12,33)"><path id="path14" d="M 0,0 -9,-8.985 -9,-21 l 9,-9 12,0 9,9 0,12.015 L 12,0 0,0 Z" style="fill:#dd2e44;fill-opacity:1;fill-rule:nonzero;stroke:none"/></g><g id="g16" transform="translate(33,12)"><path id="path18" d="m 0,0 -9,-9 -12,0 -9,9 0,12.015 L -21,21 -9,21 0,12.015 0,0 Z M -8.173,23 -21.827,23 -32,12.844 -32,-0.828 -21.828,-11 -8.172,-11 2,-0.828 2,12.844 -8.173,23 Z" style="fill:#ccd6dd;fill-opacity:1;fill-rule:nonzero;stroke:none"/></g></g></svg>