<svg xmlns="http://www.w3.org/2000/svg" xmlns:svg="http://www.w3.org/2000/svg" style="enable-background:new 0 0 45 45" id="svg2" version="1.1" viewBox="0 0 45 45" xml:space="preserve"><metadata id="metadata8"/><defs id="defs6"><clipPath id="clipPath16" clipPathUnits="userSpaceOnUse"><path id="path18" d="M 0,36 36,36 36,0 0,0 0,36 Z"/></clipPath></defs><g id="g10" transform="matrix(1.25,0,0,-1.25,0,45)"><g id="g12"><g id="g14" clip-path="url(#clipPath16)"><g id="g20" transform="translate(36,4)"><path id="path22" d="m 0,0 c 0,-2.209 -1.791,-4 -4,-4 l -28,0 c -2.209,0 -4,1.791 -4,4 l 0,28 c 0,2.209 1.791,4 4,4 l 28,0 c 2.209,0 4,-1.791 4,-4 L 0,0 Z" style="fill:#9266cc;fill-opacity:1;fill-rule:nonzero;stroke:none"/></g><g id="g24" transform="translate(21.5195,25.2964)"><path id="path26" d="m 0,0 c 0.521,-1.843 -0.268,-3.68 -1.764,-4.103 -1.493,-0.423 -3.128,0.729 -3.649,2.573 -0.522,1.843 0.268,3.68 1.762,4.103 C -2.156,2.996 -0.521,1.843 0,0" style="fill:#fff;fill-opacity:1;fill-rule:nonzero;stroke:none"/></g><g id="g28" transform="translate(10.9165,21.375)"><path id="path30" d="m 0,0 c 1.042,-1.125 2.083,-2.375 3.083,-3.375 1,-1 6.625,2.667 7.625,2.667 1,0 3.375,-1.667 4.375,-5.667 0.528,-2.107 0.793,-4.458 0.543,-5 -0.852,-1.528 -3.539,-3.665 -4.543,-4 l 5,0 c 1,0 2,-1 2,-2 0,-1 -1,-2 -2,-2 l -11.291,0 c -2.5,0 -2.177,2.665 -0.709,4 2.292,2.083 3.625,3.25 4.625,4.25 0,1 -0.875,5.042 -1.875,5.042 0,0 -2.75,-1.292 -3.75,-1.292 -2,0 -3.924,4.04 -5,6 C -2.625,-0.083 -0.823,0.889 0,0" style="fill:#fff;fill-opacity:1;fill-rule:nonzero;stroke:none"/></g><g id="g32" transform="translate(18.5107,33.519)"><path id="path34" d="m 0,0 c 0.367,-0.646 0.141,-1.466 -0.504,-1.834 l -11.69,-6.649 c -0.646,-0.368 -1.467,-0.142 -1.835,0.504 -0.367,0.646 -0.141,1.466 0.505,1.834 l 11.69,6.649 C -0.57,1.203 -0.368,0.646 0,0" style="fill:#fff;fill-opacity:1;fill-rule:nonzero;stroke:none"/></g><g id="g36" transform="translate(17.0347,33.519)"><path id="path38" d="m 0,0 c -0.367,-0.646 -0.141,-1.466 0.504,-1.834 l 11.69,-6.649 c 0.646,-0.368 1.467,-0.142 1.835,0.504 0.366,0.646 0.14,1.466 -0.505,1.834 L 1.834,0.504 C 0.233,1.203 0.368,0.646 0,0" style="fill:#fff;fill-opacity:1;fill-rule:nonzero;stroke:none"/></g></g></g></g></svg>