<svg xmlns="http://www.w3.org/2000/svg" xmlns:svg="http://www.w3.org/2000/svg" style="enable-background:new 0 0 45 45" id="svg2" version="1.1" viewBox="0 0 45 45" xml:space="preserve"><metadata id="metadata8"/><defs id="defs6"><clipPath id="clipPath22" clipPathUnits="userSpaceOnUse"><path id="path24" d="M 0,36 36,36 36,0 0,0 0,36 Z"/></clipPath></defs><g id="g10" transform="matrix(1.25,0,0,-1.25,0,45)"><path id="path12" d="M 29,2 7,2 7,11 29,11 29,2 Z" style="fill:#3b88c3;fill-opacity:1;fill-rule:nonzero;stroke:none"/><path id="path14" d="m 29,13 -22,0 0,9 22,0 0,-9 z" style="fill:#3b88c3;fill-opacity:1;fill-rule:nonzero;stroke:none"/><path id="path16" d="M 29,23 7,23 7,33 29,33 29,23 Z" style="fill:#3b88c3;fill-opacity:1;fill-rule:nonzero;stroke:none"/><g id="g18"><g id="g20" clip-path="url(#clipPath22)"><g id="g26" transform="translate(30,32.8223)"><path id="path28" d="m 0,0 c 0,-0.454 -0.368,-0.822 -0.822,-0.822 l -22.356,0 C -23.632,-0.822 -24,-0.454 -24,0 l 0,0.355 c 0,0.455 0.368,0.823 0.822,0.823 l 22.356,0 C -0.368,1.178 0,0.81 0,0.355 L 0,0 Z" style="fill:#269;fill-opacity:1;fill-rule:nonzero;stroke:none"/></g><g id="g30" transform="translate(30,21.8223)"><path id="path32" d="m 0,0 c 0,-0.454 -0.368,-0.822 -0.822,-0.822 l -22.356,0 C -23.632,-0.822 -24,-0.454 -24,0 l 0,0.355 c 0,0.455 0.368,0.823 0.822,0.823 l 22.356,0 C -0.368,1.178 0,0.81 0,0.355 L 0,0 Z" style="fill:#269;fill-opacity:1;fill-rule:nonzero;stroke:none"/></g><g id="g34" transform="translate(30,11.8223)"><path id="path36" d="m 0,0 c 0,-0.454 -0.368,-0.822 -0.822,-0.822 l -22.356,0 C -23.632,-0.822 -24,-0.454 -24,0 l 0,0.355 c 0,0.455 0.368,0.823 0.822,0.823 l 22.356,0 C -0.368,1.178 0,0.81 0,0.355 L 0,0 Z" style="fill:#269;fill-opacity:1;fill-rule:nonzero;stroke:none"/></g><g id="g38" transform="translate(30,0.8223)"><path id="path40" d="m 0,0 c 0,-0.454 -0.368,-0.822 -0.822,-0.822 l -22.356,0 C -23.632,-0.822 -24,-0.454 -24,0 l 0,0.355 c 0,0.455 0.368,0.823 0.822,0.823 l 22.356,0 C -0.368,1.178 0,0.81 0,0.355 L 0,0 Z" style="fill:#269;fill-opacity:1;fill-rule:nonzero;stroke:none"/></g><g id="g42" transform="translate(26,34.8721)"><path id="path44" d="m 0,0 c 0,-0.481 -0.391,-0.872 -0.872,-0.872 l -2.256,0 C -3.609,-0.872 -4,-0.481 -4,0 l 0,0.256 c 0,0.481 0.391,0.872 0.872,0.872 l 2.256,0 C -0.391,1.128 0,0.737 0,0.256 L 0,0 Z" style="fill:#99aab5;fill-opacity:1;fill-rule:nonzero;stroke:none"/></g></g></g></g></svg>