<svg xmlns="http://www.w3.org/2000/svg" xmlns:svg="http://www.w3.org/2000/svg" style="enable-background:new 0 0 45 45" id="svg2" version="1.1" viewBox="0 0 45 45" xml:space="preserve"><metadata id="metadata8"/><defs id="defs6"><clipPath id="clipPath16" clipPathUnits="userSpaceOnUse"><path id="path18" d="M 0,36 36,36 36,0 0,0 0,36 Z"/></clipPath><clipPath id="clipPath32" clipPathUnits="userSpaceOnUse"><path id="path34" d="M 4.76,31.556 C 1.961,16.169 6.412,6.27 18,2.116 l 0,0 c 11.587,4.154 16.039,14.053 13.24,29.44 l 0,0 C 24.958,33.961 18.071,34 18,34 l 0,0 C 17.928,34 11.063,33.971 4.76,31.556"/></clipPath></defs><g id="g10" transform="matrix(1.25,0,0,-1.25,0,45)"><g id="g12"><g id="g14" clip-path="url(#clipPath16)"><g id="g20" transform="translate(33,33)"><path id="path22" d="m 0,0 c -7,3 -15,3 -15,3 0,0 -8,0 -15,-3 -3,-15 0,-28 15,-33 15,5 18,18 15,33" style="fill:#ccd6dd;fill-opacity:1;fill-rule:nonzero;stroke:none"/></g><g id="g24" transform="translate(18,2.1162)"><path id="path26" d="m 0,0 c -11.588,4.154 -16.039,14.053 -13.24,29.439 6.303,2.415 13.168,2.445 13.24,2.445 0.071,0 6.958,-0.04 13.24,-2.445 C 16.039,14.053 11.588,4.154 0,0" style="fill:#55acee;fill-opacity:1;fill-rule:nonzero;stroke:none"/></g></g></g><g id="g28"><g id="g30" clip-path="url(#clipPath32)"><path id="path36" d="M 33,2 18,2 18,34 33,34 33,2 Z" style="fill:#269;fill-opacity:1;fill-rule:nonzero;stroke:none"/></g></g></g></svg>