<svg xmlns="http://www.w3.org/2000/svg" xmlns:svg="http://www.w3.org/2000/svg" style="enable-background:new 0 0 45 45" id="svg2" version="1.1" viewBox="0 0 45 45" xml:space="preserve"><metadata id="metadata8"/><defs id="defs6"><clipPath id="clipPath20" clipPathUnits="userSpaceOnUse"><path id="path22" d="M 0,36 36,36 36,0 0,0 0,36 Z"/></clipPath><clipPath id="clipPath60" clipPathUnits="userSpaceOnUse"><path id="path62" d="m 3.422,28.111 c -0.395,-1.89 6.234,-4.874 8.126,-5.268 l 0,0 17.102,-3.565 c 1.891,-0.394 6.58,-0.281 6.975,1.611 l 0,0 c 0.395,1.893 -3.655,4.847 -5.547,5.242 l 0,0 -19.09,3.978 C 10.557,30.199 9.952,30.25 9.27,30.25 l 0,0 c -2.316,0 -5.524,-0.578 -5.848,-2.139"/></clipPath><clipPath id="clipPath72" clipPathUnits="userSpaceOnUse"><path id="path74" d="M 0,36 36,36 36,0 0,0 0,36 Z"/></clipPath></defs><g id="g10" transform="matrix(1.25,0,0,-1.25,0,45)"><path id="path12" d="M 0,0 36,0 36,13 0,13 0,0 Z" style="fill:#5d9040;fill-opacity:1;fill-rule:nonzero;stroke:none"/><path id="path14" d="m 0,5 36,0 0,5.999 -36,0 L 0,5 Z" style="fill:#ccd6dd;fill-opacity:1;fill-rule:nonzero;stroke:none"/><g id="g16"><g id="g18" clip-path="url(#clipPath20)"><g id="g24" transform="translate(10,8)"><path id="path26" d="m 0,0 c 0,-0.553 -0.448,-1 -1,-1 l -6,0 c -0.552,0 -1,0.447 -1,1 0,0.553 0.448,1 1,1 l 6,0 C -0.448,1 0,0.553 0,0" style="fill:#f5f8fa;fill-opacity:1;fill-rule:nonzero;stroke:none"/></g><g id="g28" transform="translate(22,8)"><path id="path30" d="m 0,0 c 0,-0.553 -0.447,-1 -1,-1 l -6,0 c -0.552,0 -1,0.447 -1,1 0,0.553 0.448,1 1,1 l 6,0 C -0.447,1 0,0.553 0,0" style="fill:#f5f8fa;fill-opacity:1;fill-rule:nonzero;stroke:none"/></g><g id="g32" transform="translate(34,8)"><path id="path34" d="m 0,0 c 0,-0.553 -0.447,-1 -1,-1 l -6,0 c -0.553,0 -1,0.447 -1,1 0,0.553 0.447,1 1,1 l 6,0 C -0.447,1 0,0.553 0,0" style="fill:#f5f8fa;fill-opacity:1;fill-rule:nonzero;stroke:none"/></g><g id="g36" transform="translate(18.8389,18.7695)"><path id="path38" d="m 0,0 c -0.169,-0.811 -0.963,-1.331 -1.774,-1.163 -0.811,0.169 -1.331,0.964 -1.163,1.775 0.169,0.811 0.964,1.331 1.775,1.162 C -0.352,1.605 0.169,0.811 0,0" style="fill:#67757f;fill-opacity:1;fill-rule:nonzero;stroke:none"/></g><g id="g40" transform="translate(28.9355,18.1987)"><path id="path42" d="m 0,0 c -0.169,-0.811 -0.964,-1.331 -1.775,-1.163 -0.811,0.169 -1.331,0.964 -1.163,1.775 0.17,0.811 0.964,1.331 1.775,1.162 C -0.352,1.605 0.169,0.811 0,0" style="fill:#67757f;fill-opacity:1;fill-rule:nonzero;stroke:none"/></g><g id="g44" transform="translate(28.1602,19.3818)"><path id="path46" d="m 0,0 c -0.057,-0.271 -0.321,-0.444 -0.592,-0.388 -0.27,0.057 -0.443,0.322 -0.387,0.592 L -0.57,2.162 C -0.515,2.433 -0.25,2.606 0.02,2.549 0.291,2.493 0.465,2.229 0.408,1.958 L 0,0 Z" style="fill:#67757f;fill-opacity:1;fill-rule:nonzero;stroke:none"/></g><g id="g48" transform="translate(17.0859,25.0254)"><path id="path50" d="M 0,0 C 0.502,-1.42 7.703,-2.376 6.104,-0.246 1.505,6.788 -3.878,9.115 -2.938,6.897 -1.877,4.4 -1.227,2.604 0,0" style="fill:#5dadec;fill-opacity:1;fill-rule:nonzero;stroke:none"/></g><g id="g52" transform="translate(35.625,20.8887)"><path id="path54" d="m 0,0 c -0.395,-1.892 -5.084,-2.005 -6.976,-1.61 l -17.101,3.564 c -1.892,0.395 -8.521,3.377 -8.127,5.269 0.421,2.021 5.675,2.393 7.567,1.998 L -5.547,5.242 C -3.655,4.848 0.395,1.893 0,0" style="fill:#ccd6dd;fill-opacity:1;fill-rule:nonzero;stroke:none"/></g></g></g><g id="g56"><g id="g58" clip-path="url(#clipPath60)"><g id="g64" transform="translate(31.2168,24.4731)"><path id="path66" d="M 0,0 C 0.582,0.154 1.462,0.046 1.965,0.468 2.468,0.89 3.902,-0.334 3.366,-0.765 2.829,-1.196 1.5,-1.686 0.207,-1.607 -1.085,-1.53 -0.676,-0.178 0,0" style="fill:#67757f;fill-opacity:1;fill-rule:nonzero;stroke:none"/></g></g></g><g id="g68"><g id="g70" clip-path="url(#clipPath72)"><g id="g76" transform="translate(3.502,28.5005)"><path id="path78" d="M 0,0 C 0.171,0.82 1.224,5.87 1.395,6.689 1.907,9.148 4.369,4.549 5.496,1.749 3.491,1.634 1.532,1.426 0,0" style="fill:#5dadec;fill-opacity:1;fill-rule:nonzero;stroke:none"/></g><g id="g80" transform="translate(28.9766,23.2959)"><path id="path82" d="m 0,0 c -0.113,-0.54 -0.643,-0.888 -1.184,-0.775 -0.541,0.113 -0.887,0.643 -0.774,1.183 0.112,0.541 0.642,0.888 1.183,0.775 C -0.234,1.07 0.112,0.541 0,0" style="fill:#9aaab4;fill-opacity:1;fill-rule:nonzero;stroke:none"/></g><g id="g84" transform="translate(26.0391,23.9082)"><path id="path86" d="m 0,0 c -0.112,-0.54 -0.642,-0.888 -1.183,-0.775 -0.541,0.113 -0.887,0.643 -0.775,1.183 0.113,0.541 0.642,0.888 1.183,0.775 C -0.233,1.07 0.113,0.54 0,0" style="fill:#9aaab4;fill-opacity:1;fill-rule:nonzero;stroke:none"/></g><g id="g88" transform="translate(23.1025,24.5205)"><path id="path90" d="m 0,0 c -0.113,-0.541 -0.642,-0.888 -1.184,-0.775 -0.541,0.113 -0.886,0.643 -0.774,1.183 0.112,0.541 0.642,0.888 1.183,0.775 C -0.234,1.07 0.112,0.54 0,0" style="fill:#9aaab4;fill-opacity:1;fill-rule:nonzero;stroke:none"/></g><g id="g92" transform="translate(20.166,25.1328)"><path id="path94" d="m 0,0 c -0.113,-0.541 -0.643,-0.888 -1.184,-0.775 -0.541,0.113 -0.887,0.642 -0.774,1.183 0.112,0.541 0.642,0.887 1.183,0.775 C -0.234,1.07 0.112,0.54 0,0" style="fill:#9aaab4;fill-opacity:1;fill-rule:nonzero;stroke:none"/></g><g id="g96" transform="translate(17.2285,25.7446)"><path id="path98" d="m 0,0 c -0.113,-0.54 -0.642,-0.888 -1.183,-0.775 -0.541,0.113 -0.887,0.643 -0.775,1.183 0.113,0.541 0.642,0.888 1.183,0.775 C -0.234,1.07 0.113,0.541 0,0" style="fill:#9aaab4;fill-opacity:1;fill-rule:nonzero;stroke:none"/></g><g id="g100" transform="translate(14.292,26.3569)"><path id="path102" d="m 0,0 c -0.113,-0.54 -0.642,-0.888 -1.183,-0.775 -0.541,0.113 -0.888,0.643 -0.775,1.183 0.113,0.541 0.642,0.888 1.183,0.775 C -0.234,1.07 0.112,0.541 0,0" style="fill:#9aaab4;fill-opacity:1;fill-rule:nonzero;stroke:none"/></g><g id="g104" transform="translate(4.186,27.9526)"><path id="path106" d="M 0,0 C 1.105,0.339 4.232,-0.372 1.787,-1.905 -1.762,-4.23 -3.97,-3.704 -3.088,-2.868 -2.093,-1.926 -1.093,-0.954 0,0" style="fill:#5dadec;fill-opacity:1;fill-rule:nonzero;stroke:none"/></g><g id="g108" transform="translate(15.667,23.6123)"><path id="path110" d="M 0,0 C 1.026,1.095 8.016,-0.905 5.7,-2.21 -1.331,-6.815 -7.195,-6.799 -5.447,-5.141 -3.477,-3.275 -2.164,-1.888 0,0" style="fill:#5dadec;fill-opacity:1;fill-rule:nonzero;stroke:none"/></g></g></g></g></svg>