<svg xmlns="http://www.w3.org/2000/svg" xmlns:svg="http://www.w3.org/2000/svg" style="enable-background:new 0 0 45 45" id="svg2" version="1.1" viewBox="0 0 45 45" xml:space="preserve"><metadata id="metadata8"/><defs id="defs6"><clipPath id="clipPath16" clipPathUnits="userSpaceOnUse"><path id="path18" d="M 0,36 36,36 36,0 0,0 0,36 Z"/></clipPath></defs><g id="g10" transform="matrix(1.25,0,0,-1.25,0,45)"><g id="g12"><g id="g14" clip-path="url(#clipPath16)"><g id="g20" transform="translate(33.7935,19)"><path id="path22" d="m 0,0 c 0,0 -1.317,-3 -15.794,-3 -14.476,0 -16.026,3 -16.026,3 0,0 -2.974,-5.117 2.828,-8 4.238,-2.105 10.916,0.131 12.723,0.814 C -14.278,-7.869 -6.995,-10.01 -2.712,-8 3.151,-5.249 0,0 0,0" style="fill:#dd2e44;fill-opacity:1;fill-rule:nonzero;stroke:none"/></g><path id="path24" d="M 36,12 0,12 0,0 36,0 36,12 Z" style="fill:#55acee;fill-opacity:1;fill-rule:nonzero;stroke:none"/><g id="g26" transform="translate(27.0052,10.6109)"><path id="path28" d="m 0,0 c 0.206,0 0.412,0.079 0.57,0.236 0.314,0.315 0.314,0.824 0,1.139 l -8.861,8.86 c -0.315,0.315 -0.824,0.315 -1.139,0 -0.315,-0.314 -0.315,-0.824 0,-1.139 l 8.861,-8.86 C -0.412,0.079 -0.206,0 0,0" style="fill:#ffac33;fill-opacity:1;fill-rule:nonzero;stroke:none"/></g><g id="g30" transform="translate(29.3158,7.4949)"><path id="path32" d="m 0,0 c 0.412,0 0.825,0.157 1.139,0.472 0.629,0.629 0.629,1.649 0,2.278 l -2.416,2.416 c -0.629,0.63 -1.65,0.63 -2.278,0 -0.63,-0.629 -0.63,-1.648 0,-2.278 L -1.139,0.472 C -0.825,0.157 -0.412,0 0,0" style="fill:#ffcc4d;fill-opacity:1;fill-rule:nonzero;stroke:none"/></g></g></g></g></svg>