<svg xmlns="http://www.w3.org/2000/svg" xmlns:svg="http://www.w3.org/2000/svg" style="enable-background:new 0 0 45 45" id="svg2" version="1.1" viewBox="0 0 45 45" xml:space="preserve"><metadata id="metadata8"/><defs id="defs6"><clipPath id="clipPath48" clipPathUnits="userSpaceOnUse"><path id="path50" d="M 0,36 36,36 36,0 0,0 0,36 Z"/></clipPath></defs><g id="g10" transform="matrix(1.25,0,0,-1.25,0,45)"><g id="g12" transform="translate(31,24)"><path id="path14" d="M 0,0 -4,0 -3,5 0,5 0,0 Z" style="fill:#dd2e44;fill-opacity:1;fill-rule:nonzero;stroke:none"/></g><g id="g16" transform="translate(33,24)"><path id="path18" d="M 0,0 -8,0 -7.113,3 -0.59,3 0,0 Z" style="fill:#ccd6dd;fill-opacity:1;fill-rule:nonzero;stroke:none"/></g><g id="g20" transform="translate(8.3421,27)"><path id="path22" d="m 0,0 -0.342,-1 1,0 -0.45,-1 -1.179,0 -0.371,-1 1,0 -2,-6 28.531,0 0.454,0.968 -0.386,3.032 0.984,0 -0.182,1 -1,0 -0.401,2 -2,0 -14,0 -1,2 L 0,0 Z" style="fill:#ccd6dd;fill-opacity:1;fill-rule:nonzero;stroke:none"/></g><g id="g24" transform="translate(15,26)"><path id="path26" d="M 0,0 -4,0 -3,3 0,3 0,0 Z" style="fill:#ccd6dd;fill-opacity:1;fill-rule:nonzero;stroke:none"/></g><g id="g28" transform="translate(9,26.0001)"><path id="path30" d="M 0,0 -0.45,-1 5.291,-1 5,0 0,0 Z" style="fill:#269;fill-opacity:1;fill-rule:nonzero;stroke:none"/></g><g id="g32" transform="translate(8.7498,24.0003)"><path id="path34" d="M 0,0 -0.328,-1 26.626,-1 26.45,0 0,0 Z" style="fill:#269;fill-opacity:1;fill-rule:nonzero;stroke:none"/></g><g id="g36" transform="translate(8.0937,21.9996)"><path id="path38" d="M 0,0 -0.344,-1 26.625,-1 26.506,0 0,0 Z" style="fill:#269;fill-opacity:1;fill-rule:nonzero;stroke:none"/></g><g id="g40" transform="translate(7.4502,19.9998)"><path id="path42" d="M 0,0 -0.325,-1 27.55,-1 27.425,0 0,0 Z" style="fill:#269;fill-opacity:1;fill-rule:nonzero;stroke:none"/></g><g id="g44"><g id="g46" clip-path="url(#clipPath48)"><g id="g52" transform="translate(33,12.0361)"><path id="path54" d="m 0,0 c 0,0 2,2.964 2,6.964 l -34,0 c 1,-2 4,-3 5,-5.818 C -24.728,-5.254 0,0 0,0" style="fill:#269;fill-opacity:1;fill-rule:nonzero;stroke:none"/></g><g id="g56" transform="translate(4.9365,15)"><path id="path58" d="m 0,0 29.417,0 c 0.358,1.114 0.646,2.481 0.646,4 l -34,0 C -3.187,2.5 -1.312,1.562 0,0" style="fill:#ccd6dd;fill-opacity:1;fill-rule:nonzero;stroke:none"/></g><path id="path60" d="M 36,12 0,12 0,0 36,0 36,12 Z" style="fill:#55acee;fill-opacity:1;fill-rule:nonzero;stroke:none"/><g id="g62" transform="translate(16,18)"><path id="path64" d="M 0,0 0,-0.229 C 0,-0.655 0.345,-1 0.771,-1 l 1.458,0 C 2.655,-1 3,-0.655 3,-0.229 L 3,0 0,0 Z" style="fill:#ffac33;fill-opacity:1;fill-rule:nonzero;stroke:none"/></g><g id="g66" transform="translate(19,18)"><path id="path68" d="M 0,0 0,-0.229 C 0,-0.655 0.346,-1 0.771,-1 l 1.458,0 C 2.654,-1 3,-0.655 3,-0.229 L 3,0 0,0 Z" style="fill:#ffac33;fill-opacity:1;fill-rule:nonzero;stroke:none"/></g><g id="g70" transform="translate(22,18)"><path id="path72" d="M 0,0 0,-0.229 C 0,-0.655 0.346,-1 0.771,-1 l 1.458,0 C 2.654,-1 3,-0.655 3,-0.229 L 3,0 0,0 Z" style="fill:#ffac33;fill-opacity:1;fill-rule:nonzero;stroke:none"/></g><g id="g74" transform="translate(26,18)"><path id="path76" d="M 0,0 0,-0.229 C 0,-0.655 0.346,-1 0.771,-1 l 1.458,0 C 2.654,-1 3,-0.655 3,-0.229 L 3,0 0,0 Z" style="fill:#ffac33;fill-opacity:1;fill-rule:nonzero;stroke:none"/></g><g id="g78" transform="translate(29,18)"><path id="path80" d="M 0,0 0,-0.229 C 0,-0.655 0.346,-1 0.771,-1 l 1.458,0 C 2.654,-1 3,-0.655 3,-0.229 L 3,0 0,0 Z" style="fill:#ffac33;fill-opacity:1;fill-rule:nonzero;stroke:none"/></g></g></g></g></svg>