<svg xmlns="http://www.w3.org/2000/svg" xmlns:svg="http://www.w3.org/2000/svg" style="enable-background:new 0 0 45 45" id="svg2" version="1.1" viewBox="0 0 45 45" xml:space="preserve"><metadata id="metadata8"/><defs id="defs6"><clipPath id="clipPath16" clipPathUnits="userSpaceOnUse"><path id="path18" d="M 0,36 36,36 36,0 0,0 0,36 Z"/></clipPath></defs><g id="g10" transform="matrix(1.25,0,0,-1.25,0,45)"><g id="g12"><g id="g14" clip-path="url(#clipPath16)"><g id="g20" transform="translate(32.8311,15.5751)"><path id="path22" d="m 0,0 c -0.689,-3.241 -9.21,-6.221 -17.314,-4.499 -8.103,1.723 -14.676,7.911 -13.987,11.152 0.689,3.241 8.587,3.287 16.69,1.564 C -6.508,6.495 0.689,3.241 0,0" style="fill:#ffd983;fill-opacity:1;fill-rule:nonzero;stroke:none"/></g><g id="g24" transform="translate(27,0)"><path id="path26" d="M 0,0 -2,14 -19,19 -27,0 0,0 Z" style="fill:#ffd983;fill-opacity:1;fill-rule:nonzero;stroke:none"/></g><g id="g28" transform="translate(34.1095,16.78)"><path id="path30" d="m 0,0 c -0.868,-4.082 -9.016,-5.808 -18.199,-3.856 -9.184,1.952 -15.926,6.843 -15.058,10.925 0.868,4.082 9.016,5.808 18.199,3.856 C -5.874,8.973 0.868,4.082 0,0" style="fill:#67757f;fill-opacity:1;fill-rule:nonzero;stroke:none"/></g><g id="g32" transform="translate(0.4142,25.023)"><path id="path34" d="M 0,0 0.414,-2.315 33.28,-9.301 34.692,-7.175 0,0 Z" style="fill:#67757f;fill-opacity:1;fill-rule:nonzero;stroke:none"/></g><g id="g36" transform="translate(35.619,19.0718)"><path id="path38" d="m 0,0 c -0.919,-4.322 -9.546,-6.15 -19.27,-4.083 -9.724,2.067 -16.862,7.246 -15.943,11.568 0.918,4.322 9.546,6.149 19.27,4.083 C -6.219,9.501 0.919,4.322 0,0" style="fill:#9aaab4;fill-opacity:1;fill-rule:nonzero;stroke:none"/></g><g id="g40" transform="translate(33.1004,21.6519)"><path id="path42" d="m 0,0 c -0.689,-3.241 -7.816,-4.473 -15.92,-2.75 -8.103,1.722 -14.113,5.746 -13.424,8.987 0.689,3.242 7.816,4.473 15.919,2.751 C -5.322,7.265 0.689,3.241 0,0" style="fill:#ccd6dd;fill-opacity:1;fill-rule:nonzero;stroke:none"/></g><g id="g44" transform="translate(10.0407,28.5981)"><path id="path46" d="M 0,0 C 0.344,1.621 4.565,2.097 9.427,1.063 14.289,0.03 17.951,-2.122 17.607,-3.742 17.262,-5.363 13.042,-5.839 8.18,-4.806 3.318,-3.772 -0.344,-1.621 0,0" style="fill:#e1e8ed;fill-opacity:1;fill-rule:nonzero;stroke:none"/></g><g id="g48" transform="translate(10.0407,28.5981)"><path id="path50" d="M 0,0 C 0.344,1.621 2.996,4.475 9.843,3.02 16.69,1.564 17.951,-2.122 17.607,-3.742 17.262,-5.363 13.042,-5.839 8.18,-4.806 3.318,-3.772 -0.344,-1.621 0,0" style="fill:#5dadec;fill-opacity:1;fill-rule:nonzero;stroke:none"/></g><g id="g52" transform="translate(15.7867,17.1533)"><path id="path54" d="M 0,0 C 0.115,0.54 0.646,0.885 1.186,0.77 1.726,0.655 2.071,0.124 1.956,-0.416 1.841,-0.956 1.31,-1.301 0.77,-1.186 0.23,-1.071 -0.115,-0.54 0,0" style="fill:#8ccaf7;fill-opacity:1;fill-rule:nonzero;stroke:none"/></g><g id="g56" transform="translate(23.8198,16.4681)"><path id="path58" d="M 0,0 C 0.115,0.54 0.646,0.885 1.186,0.77 1.726,0.655 2.071,0.124 1.956,-0.416 1.841,-0.956 1.31,-1.301 0.77,-1.186 0.23,-1.071 -0.115,-0.54 0,0" style="fill:#8ccaf7;fill-opacity:1;fill-rule:nonzero;stroke:none"/></g><g id="g60" transform="translate(31.2906,17.9472)"><path id="path62" d="M 0,0 C 0.115,0.54 0.646,0.885 1.186,0.77 1.726,0.655 2.071,0.124 1.956,-0.416 1.841,-0.956 1.31,-1.301 0.77,-1.186 0.23,-1.071 -0.115,-0.54 0,0" style="fill:#8ccaf7;fill-opacity:1;fill-rule:nonzero;stroke:none"/></g><g id="g64" transform="translate(33.4074,22.5649)"><path id="path66" d="M 0,0 C 0.174,0.214 0.663,0.105 1.091,-0.244 1.519,-0.593 1.725,-1.05 1.55,-1.264 1.376,-1.478 0.887,-1.368 0.459,-1.019 0.031,-0.67 -0.174,-0.214 0,0" style="fill:#8ccaf7;fill-opacity:1;fill-rule:nonzero;stroke:none"/></g><g id="g68" transform="translate(3.7672,28.8651)"><path id="path70" d="M 0,0 C -0.072,0.267 -0.563,0.365 -1.096,0.221 -1.629,0.076 -2.002,-0.257 -1.93,-0.524 -1.858,-0.79 -1.367,-0.889 -0.834,-0.745 -0.301,-0.6 0.072,-0.266 0,0" style="fill:#8ccaf7;fill-opacity:1;fill-rule:nonzero;stroke:none"/></g><g id="g72" transform="translate(1.9462,24.1845)"><path id="path74" d="M 0,0 C 0.115,0.54 0.646,0.885 1.186,0.77 1.726,0.655 2.071,0.124 1.956,-0.416 1.841,-0.956 1.31,-1.301 0.77,-1.186 0.23,-1.071 -0.115,-0.54 0,0" style="fill:#8ccaf7;fill-opacity:1;fill-rule:nonzero;stroke:none"/></g><g id="g76" transform="translate(8.1695,19.7947)"><path id="path78" d="M 0,0 C 0.115,0.54 0.646,0.885 1.186,0.77 1.726,0.655 2.071,0.124 1.956,-0.416 1.841,-0.956 1.31,-1.301 0.77,-1.186 0.23,-1.071 -0.115,-0.54 0,0" style="fill:#8ccaf7;fill-opacity:1;fill-rule:nonzero;stroke:none"/></g><g id="g80" transform="translate(14.681,31.1899)"><path id="path82" d="M 0,0 C 0.172,0.81 2.502,1.002 5.203,0.428 7.904,-0.146 9.954,-1.269 9.781,-2.079 9.609,-2.889 7.28,-3.081 4.579,-2.507 1.878,-1.933 -0.172,-0.81 0,0" style="fill:#8ccaf7;fill-opacity:1;fill-rule:nonzero;stroke:none"/></g></g></g></g></svg>