<svg xmlns="http://www.w3.org/2000/svg" xmlns:svg="http://www.w3.org/2000/svg" style="enable-background:new 0 0 45 45" id="svg2" version="1.1" viewBox="0 0 45 45" xml:space="preserve"><metadata id="metadata8"/><defs id="defs6"><clipPath id="clipPath16" clipPathUnits="userSpaceOnUse"><path id="path18" d="M 0,0 36,0 36,36 0,36 0,0 Z"/></clipPath></defs><g id="g10" transform="matrix(1.25,0,0,-1.25,0,45)"><g id="g12"><g id="g14" clip-path="url(#clipPath16)"><g id="g20" transform="translate(36,18)"><path id="path22" d="m 0,0 c 0,-9.941 -8.059,-18 -18,-18 -9.94,0 -18,8.059 -18,18 0,9.94 8.06,18 18,18 C -8.059,18 0,9.94 0,0" style="fill:#ffcc4d;fill-opacity:1;fill-rule:nonzero;stroke:none"/></g><g id="g24" transform="translate(14.0342,21.501)"><path id="path26" d="M 0,0 C 0,-1.934 -1.119,-3.5 -2.5,-3.5 -3.881,-3.5 -5,-1.934 -5,0 -5,1.933 -3.881,3.5 -2.5,3.5 -1.119,3.5 0,1.933 0,0" style="fill:#664500;fill-opacity:1;fill-rule:nonzero;stroke:none"/></g><g id="g28" transform="translate(27.0342,21.501)"><path id="path30" d="M 0,0 C 0,-1.934 -1.119,-3.5 -2.5,-3.5 -3.881,-3.5 -5,-1.934 -5,0 -5,1.933 -3.881,3.5 -2.5,3.5 -1.119,3.5 0,1.933 0,0" style="fill:#664500;fill-opacity:1;fill-rule:nonzero;stroke:none"/></g><g id="g32" transform="translate(25.001,8.9961)"><path id="path34" d="m 0,0 -15.001,0 c -1,0 -1,1 -1,1 l 0,1 c 0,0 0,1.003 1,1.003 C -14.001,3.003 0,3 0,3 L 0,0 Z" style="fill:#664500;fill-opacity:1;fill-rule:nonzero;stroke:none"/></g><path id="path36" d="m 14,7.999 -2,0 0,3 2,0 0,-3 z" style="fill:#9aaab4;fill-opacity:1;fill-rule:nonzero;stroke:none"/><path id="path38" d="m 16,12.999 -2,0 0,-3 2,0 0,3 z" style="fill:#9aaab4;fill-opacity:1;fill-rule:nonzero;stroke:none"/><path id="path40" d="m 12,12.999 -2,0 0,-3 2,0 0,3 z" style="fill:#9aaab4;fill-opacity:1;fill-rule:nonzero;stroke:none"/><path id="path42" d="m 17.999,7.999 -2,0 0,3 2,0 0,-3 z" style="fill:#9aaab4;fill-opacity:1;fill-rule:nonzero;stroke:none"/><path id="path44" d="m 20,12.999 -2.001,0 0,-3 2.001,0 0,3 z" style="fill:#9aaab4;fill-opacity:1;fill-rule:nonzero;stroke:none"/><path id="path46" d="m 22,7.999 -2,0 0,3 2,0 0,-3 z" style="fill:#9aaab4;fill-opacity:1;fill-rule:nonzero;stroke:none"/><path id="path48" d="m 24,12.999 -2,0 0,-3 2,0 0,3 z" style="fill:#9aaab4;fill-opacity:1;fill-rule:nonzero;stroke:none"/><g id="g50" transform="translate(31.4834,3.8447)"><path id="path52" d="M 0,0 2.308,4.186 -1.03,5.317 -2.645,2.248 0,0 Z m -5.172,7.493 c 0,0 0.265,0.964 1.231,0.699 L 3.771,6.071 c 0,0 0.964,-0.265 0.699,-1.23 -0.265,-0.964 -3.176,-6.314 -3.914,-6.984 -0.869,-0.787 -1.769,0.08 -1.769,0.08 0,0 -4.664,4.198 -5.285,4.735 -0.621,0.538 -0.373,1.275 -0.373,1.275 l 1.699,3.546 z" style="fill:#99aab5;fill-opacity:1;fill-rule:nonzero;stroke:none"/></g><g id="g54" transform="translate(24.8174,7.9482)"><path id="path56" d="M 0,0 -1.754,0.839 -0.086,4.326 1.668,3.487 0,0 Z" style="fill:#99aab5;fill-opacity:1;fill-rule:nonzero;stroke:none"/></g></g></g></g></svg>