<svg xmlns="http://www.w3.org/2000/svg" xmlns:svg="http://www.w3.org/2000/svg" style="enable-background:new 0 0 45 45" id="svg2" version="1.1" viewBox="0 0 45 45" xml:space="preserve"><metadata id="metadata8"/><defs id="defs6"><clipPath id="clipPath16" clipPathUnits="userSpaceOnUse"><path id="path18" d="M 0,36 36,36 36,0 0,0 0,36 Z"/></clipPath></defs><g id="g10" transform="matrix(1.25,0,0,-1.25,0,45)"><g id="g12"><g id="g14" clip-path="url(#clipPath16)"><g id="g20" transform="translate(32,21.6471)"><path id="path22" d="m 0,0 c 0,-7.732 -6.268,-14 -14,-14 -7.731,0 -14,6.268 -14,14 0,7.731 6.269,14 14,14 C -6.268,14 0,7.731 0,0" style="fill:#fdcb58;fill-opacity:1;fill-rule:nonzero;stroke:none"/></g><g id="g24" transform="translate(28.3761,19.8351)"><path id="path26" d="m 0,0 c -0.094,0.071 -1.59,1.174 -3.826,1.93 0.022,0.095 0.038,0.192 0.038,0.294 0,0.304 -0.114,0.578 -0.296,0.794 1.485,0.428 2.746,0.441 2.768,0.441 0.454,10e-4 0.822,0.37 0.821,0.825 0,0.454 -0.368,0.822 -0.822,0.822 -0.182,0 -4.49,-0.031 -7.171,-2.712 -0.235,-0.235 -0.306,-0.589 -0.178,-0.897 0.127,-0.308 0.428,-0.509 0.76,-0.509 3.78,0 6.888,-2.283 6.919,-2.306 0.148,-0.11 0.321,-0.163 0.492,-0.163 0.251,0 0.499,0.114 0.661,0.329 C 0.438,-0.787 0.363,-0.273 0,0" style="fill:#664500;fill-opacity:1;fill-rule:nonzero;stroke:none"/></g><g id="g28" transform="translate(16.1116,22.2293)"><path id="path30" d="m 0,0 c -2.681,2.681 -6.988,2.712 -7.17,2.712 -0.455,0 -0.823,-0.368 -0.823,-0.822 -10e-4,-0.455 0.367,-0.824 0.821,-0.825 0.022,0 1.283,-0.013 2.768,-0.442 C -4.586,0.408 -4.7,0.134 -4.7,-0.17 c 0,-0.102 0.016,-0.199 0.039,-0.294 -2.237,-0.756 -3.733,-1.859 -3.827,-1.93 -0.364,-0.273 -0.438,-0.789 -0.165,-1.153 0.162,-0.216 0.409,-0.329 0.66,-0.329 0.172,0 0.345,0.054 0.493,0.165 0.031,0.022 3.119,2.305 6.918,2.305 0.333,0 0.633,0.201 0.761,0.509 C 0.306,-0.589 0.236,-0.236 0,0" style="fill:#664500;fill-opacity:1;fill-rule:nonzero;stroke:none"/></g><g id="g32" transform="translate(18,12.4658)"><path id="path34" d="m 0,0 c -2.441,0 -4.061,-0.284 -6.064,-0.674 -0.457,-0.088 -1.348,0 -1.348,1.348 0,2.695 3.096,6.064 7.412,6.064 4.315,0 7.412,-3.369 7.412,-6.064 0,-1.348 -0.891,-1.437 -1.348,-1.348 C 4.061,-0.284 2.441,0 0,0" style="fill:#664500;fill-opacity:1;fill-rule:nonzero;stroke:none"/></g><g id="g36" transform="translate(18,2.4706)"><path id="path38" d="m 0,0 c 0,-1.364 -1.635,-1.471 -3,-1.471 -1.365,0 -1.941,0.107 -1.941,1.471 0,1.364 1.106,2.471 2.47,2.471 C -1.106,2.471 0,1.364 0,0" style="fill:#78b159;fill-opacity:1;fill-rule:nonzero;stroke:none"/></g><g id="g40" transform="translate(20.4706,4.5294)"><path id="path42" d="m 0,0 c 0,-1.137 -0.922,-2.059 -2.059,-2.059 -1.137,0 -2.059,0.922 -2.059,2.059 0,1.137 0.922,2.059 2.059,2.059 C -0.922,2.059 0,1.137 0,0" style="fill:#78b159;fill-opacity:1;fill-rule:nonzero;stroke:none"/></g><g id="g44" transform="translate(22.9412,2.4706)"><path id="path46" d="m 0,0 c 0,-0.91 -0.737,-1.647 -1.647,-1.647 -0.91,0 -1.647,0.737 -1.647,1.647 0,0.91 0.737,1.647 1.647,1.647 C -0.737,1.647 0,0.91 0,0" style="fill:#78b159;fill-opacity:1;fill-rule:nonzero;stroke:none"/></g><g id="g48" transform="translate(13.0588,2.3125)"><path id="path50" d="m 0,0 0,11.923 c 0,1.647 2.471,3.294 4.941,3.294 2.471,0 4.941,-1.647 4.941,-3.294 l 0,-11.798 -3.294,0.562 0,1.648 -2.47,0 L 0,0 Z" style="fill:#78b159;fill-opacity:1;fill-rule:nonzero;stroke:none"/></g><g id="g52" transform="translate(28,2)"><path id="path54" d="m 0,0 c 0,-1.105 -4.477,-2 -10,-2 -5.523,0 -10,0.895 -10,2 0,1.105 4.477,2 10,2 C -4.477,2 0,1.105 0,0" style="fill:#78b159;fill-opacity:1;fill-rule:nonzero;stroke:none"/></g><g id="g56" transform="translate(17.1765,14.6471)"><path id="path58" d="m 0,0 c 0,-0.682 -0.553,-1.235 -1.235,-1.235 -0.682,0 -1.236,0.553 -1.236,1.235 0,0.682 0.554,1.235 1.236,1.235 C -0.553,1.235 0,0.682 0,0" style="fill:#5d9040;fill-opacity:1;fill-rule:nonzero;stroke:none"/></g><g id="g60" transform="translate(22,12.2353)"><path id="path62" d="m 0,0 c 0,-0.682 -0.553,-1.235 -1.235,-1.235 -0.682,0 -1.236,0.553 -1.236,1.235 0,0.682 0.554,1.235 1.236,1.235 C -0.553,1.235 0,0.682 0,0" style="fill:#5d9040;fill-opacity:1;fill-rule:nonzero;stroke:none"/></g><g id="g64" transform="translate(20.4706,7.2353)"><path id="path66" d="m 0,0 c 0,-0.682 -0.553,-1.235 -1.235,-1.235 -0.682,0 -1.236,0.553 -1.236,1.235 0,0.682 0.554,1.235 1.236,1.235 C -0.553,1.235 0,0.682 0,0" style="fill:#5d9040;fill-opacity:1;fill-rule:nonzero;stroke:none"/></g><g id="g68" transform="translate(18,3.7647)"><path id="path70" d="m 0,0 c 0,-0.975 -0.79,-1.765 -1.765,-1.765 -0.974,0 -1.764,0.79 -1.764,1.765 0,0.975 0.79,1.765 1.764,1.765 C -0.79,1.765 0,0.975 0,0" style="fill:#5d9040;fill-opacity:1;fill-rule:nonzero;stroke:none"/></g></g></g></g></svg>