<svg xmlns="http://www.w3.org/2000/svg" xmlns:svg="http://www.w3.org/2000/svg" style="enable-background:new 0 0 45 45" id="svg2" version="1.1" viewBox="0 0 45 45" xml:space="preserve"><metadata id="metadata8"/><defs id="defs6"><clipPath id="clipPath16" clipPathUnits="userSpaceOnUse"><path id="path18" d="M 0,36 36,36 36,0 0,0 0,36 Z"/></clipPath><clipPath id="clipPath56" clipPathUnits="userSpaceOnUse"><path id="path58" d="m 11.9277,29.7708 10.0971,0 0,-4.991 -10.0971,0 0,4.991 z"/></clipPath></defs><g id="g10" transform="matrix(1.25,0,0,-1.25,0,45)"><g id="g12"><g id="g14" clip-path="url(#clipPath16)"><g id="g20" transform="translate(30,12)"><path id="path22" d="m 0,0 c 0,-6.628 -5.372,-12 -12,-12 -6.627,0 -12,5.372 -12,12 0,6.627 5.373,12 12,12 C -5.372,12 0,6.627 0,0" style="fill:#ffcc4d;fill-opacity:1;fill-rule:nonzero;stroke:none"/></g><g id="g24" transform="translate(13.5,24.2108)"><path id="path26" d="M 0,0 C 0.386,0.441 1.647,-0.069 2,-0.461 2.353,-0.853 6.658,-1.352 6.5,-0.8 6,0.951 7.5,1.775 7.765,1.194 7.909,0.878 7.574,-0.368 7.733,-0.484 8.167,-0.8 8.671,-0.268 9.02,-0.461 9.633,-0.8 8.614,-2.3 8.614,-2.3 L 0.59,-3.011 c 0,0 -0.983,2.562 -0.59,3.011" style="fill:#f4900c;fill-opacity:1;fill-rule:nonzero;stroke:none"/></g><g id="g28" transform="translate(22.114,19.7)"><path id="path30" d="m 0,0 c 0,-0.828 -1.842,-1.5 -4.114,-1.5 -2.272,0 -4.114,0.672 -4.114,1.5 0,0.828 1.842,1.5 4.114,1.5 C -1.842,1.5 0,0.828 0,0" style="fill:#f4900c;fill-opacity:1;fill-rule:nonzero;stroke:none"/></g><g id="g32" transform="translate(14.0833,29.1319)"><path id="path34" d="m 0,0 c 0.56,-1.736 1.917,-7.132 0.56,-9.432 0.559,-0.868 1.678,-1.117 3.357,-1.117 l 0,11.417" style="fill:#da2f47;fill-opacity:1;fill-rule:nonzero;stroke:none"/></g><g id="g36" transform="translate(21.9167,29.1319)"><path id="path38" d="m 0,0 c -0.56,-1.736 -1.917,-7.132 -0.56,-9.432 -0.559,-0.868 -1.678,-1.117 -3.357,-1.117 l 0,11.417" style="fill:#da2f47;fill-opacity:1;fill-rule:nonzero;stroke:none"/></g><g id="g40" transform="translate(15,31.5)"><path id="path42" d="M 0,0 C 0,-1.381 -1.119,-2.5 -2.5,-2.5 -3.881,-2.5 -5,-1.381 -5,0 -5,1.381 -3.881,2.5 -2.5,2.5 -1.119,2.5 0,1.381 0,0" style="fill:#ea596e;fill-opacity:1;fill-rule:nonzero;stroke:none"/></g><g id="g44" transform="translate(13,29.5)"><path id="path46" d="M 0,0 C 0,-1.381 -1.119,-2.5 -2.5,-2.5 -3.881,-2.5 -5,-1.381 -5,0 -5,1.381 -3.881,2.5 -2.5,2.5 -1.119,2.5 0,1.381 0,0" style="fill:#ea596e;fill-opacity:1;fill-rule:nonzero;stroke:none"/></g><g id="g48" transform="translate(20,32.5)"><path id="path50" d="M 0,0 C 0,-0.828 -0.672,-1.5 -1.5,-1.5 -2.328,-1.5 -3,-0.828 -3,0 -3,0.828 -2.328,1.5 -1.5,1.5 -0.672,1.5 0,0.828 0,0" style="fill:#ea596e;fill-opacity:1;fill-rule:nonzero;stroke:none"/></g><g id="g52"><g id="g60"><g style="opacity:.28999299" id="g62" clip-path="url(#clipPath56)"><g id="g64" transform="translate(21.898,28.7917)"><path id="path66" d="m 0,0 c 0.047,0.078 0.073,0.251 0.127,0.33 -1.354,0.324 -2.723,0.649 -2.754,0.649 -0.063,0 -7.063,-0.812 -7.25,-0.854 -0.182,-0.04 -0.042,0.625 -0.042,0.625 0,0 1.283,-2.435 2.584,-2.833 0.18,-0.056 0.476,-1.314 0.499,-1.929 0.624,0.018 1.006,0.176 1.584,0.637 0.375,-0.25 1.333,-0.417 1.812,0.083 0.402,-0.201 1.577,-0.411 2.667,0.36 C -0.647,-1.857 -0.245,-0.405 0,0" style="fill:#9d0522;fill-opacity:1;fill-rule:nonzero;stroke:none"/></g></g></g></g><g id="g68" transform="translate(18,30.5)"><path id="path70" d="M 0,0 C 0,-1.381 -1.119,-2.5 -2.5,-2.5 -3.881,-2.5 -5,-1.381 -5,0 -5,1.381 -3.881,2.5 -2.5,2.5 -1.119,2.5 0,1.381 0,0" style="fill:#ccd6dd;fill-opacity:1;fill-rule:nonzero;stroke:none"/></g><g id="g72" transform="translate(18,33.5)"><path id="path74" d="M 0,0 C 0,-1.381 -1.119,-2.5 -2.5,-2.5 -3.881,-2.5 -5,-1.381 -5,0 -5,1.381 -3.881,2.5 -2.5,2.5 -1.119,2.5 0,1.381 0,0" style="fill:#ea596e;fill-opacity:1;fill-rule:nonzero;stroke:none"/></g><g id="g76" transform="translate(18.125,29.2569)"><path id="path78" d="m 0,0 c 0,-1.791 -1.452,-3.243 -3.243,-3.243 -1.791,0 -3.243,1.452 -3.243,3.243 0,1.791 1.452,3.243 3.243,3.243 C -1.452,3.243 0,1.791 0,0" style="fill:#ea596e;fill-opacity:1;fill-rule:nonzero;stroke:none"/></g><g id="g80" transform="translate(22,29.5)"><path id="path82" d="M 0,0 C 0,-1.381 -1.119,-2.5 -2.5,-2.5 -3.881,-2.5 -5,-1.381 -5,0 -5,1.381 -3.881,2.5 -2.5,2.5 -1.119,2.5 0,1.381 0,0" style="fill:#ea596e;fill-opacity:1;fill-rule:nonzero;stroke:none"/></g><g id="g84" transform="translate(26,30.5)"><path id="path86" d="M 0,0 C 0,-1.381 -1.119,-2.5 -2.5,-2.5 -3.881,-2.5 -5,-1.381 -5,0 -5,1.381 -3.881,2.5 -2.5,2.5 -1.119,2.5 0,1.381 0,0" style="fill:#ea596e;fill-opacity:1;fill-rule:nonzero;stroke:none"/></g><g id="g88" transform="translate(28,30)"><path id="path90" d="m 0,0 c 0,-1.105 -0.895,-2 -2,-2 -1.105,0 -2,0.895 -2,2 0,1.105 0.895,2 2,2 1.105,0 2,-0.895 2,-2" style="fill:#ea596e;fill-opacity:1;fill-rule:nonzero;stroke:none"/></g><g id="g92" transform="translate(24,31.5)"><path id="path94" d="M 0,0 C 0,-1.381 -1.119,-2.5 -2.5,-2.5 -3.881,-2.5 -5,-1.381 -5,0 -5,1.381 -3.881,2.5 -2.5,2.5 -1.119,2.5 0,1.381 0,0" style="fill:#ea596e;fill-opacity:1;fill-rule:nonzero;stroke:none"/></g><g id="g96" transform="translate(16,30.5)"><path id="path98" d="M 0,0 C 0,-1.381 -1.119,-2.5 -2.5,-2.5 -3.881,-2.5 -5,-1.381 -5,0 -5,1.381 -3.881,2.5 -2.5,2.5 -1.119,2.5 0,1.381 0,0" style="fill:#f4abba;fill-opacity:1;fill-rule:nonzero;stroke:none"/></g><g id="g100" transform="translate(18,32.5)"><path id="path102" d="M 0,0 C 0,-0.828 -0.672,-1.5 -1.5,-1.5 -2.328,-1.5 -3,-0.828 -3,0 -3,0.828 -2.328,1.5 -1.5,1.5 -0.672,1.5 0,0.828 0,0" style="fill:#f4abba;fill-opacity:1;fill-rule:nonzero;stroke:none"/></g><g id="g104" transform="translate(20,30.5)"><path id="path106" d="M 0,0 C 0,-0.828 -0.672,-1.5 -1.5,-1.5 -2.328,-1.5 -3,-0.828 -3,0 -3,0.828 -2.328,1.5 -1.5,1.5 -0.672,1.5 0,0.828 0,0" style="fill:#f4abba;fill-opacity:1;fill-rule:nonzero;stroke:none"/></g><g id="g108" transform="translate(15.875,28.7917)"><path id="path110" d="M 0,0 C 0,-0.829 -0.672,-1.5 -1.5,-1.5 -2.328,-1.5 -3,-0.829 -3,0 -3,0.828 -2.328,1.5 -1.5,1.5 -0.672,1.5 0,0.828 0,0" style="fill:#f4abba;fill-opacity:1;fill-rule:nonzero;stroke:none"/></g><g id="g112" transform="translate(11.8333,29.867)"><path id="path114" d="m 0,0 c 0,-0.741 -0.6,-1.341 -1.341,-1.341 -0.741,0 -1.342,0.6 -1.342,1.341 0,0.741 0.601,1.341 1.342,1.341 C -0.6,1.341 0,0.741 0,0" style="fill:#f4abba;fill-opacity:1;fill-rule:nonzero;stroke:none"/></g><g id="g116" transform="translate(18.0617,29.7708)"><path id="path118" d="M 0,0 C 0,-0.828 -0.672,-1.5 -1.5,-1.5 -2.328,-1.5 -3,-0.828 -3,0 -3,0.829 -2.328,1.5 -1.5,1.5 -0.672,1.5 0,0.829 0,0" style="fill:#f4abba;fill-opacity:1;fill-rule:nonzero;stroke:none"/></g><g id="g120" transform="translate(25,30.5)"><path id="path122" d="M 0,0 C 0,-0.828 -0.672,-1.5 -1.5,-1.5 -2.328,-1.5 -3,-0.828 -3,0 -3,0.828 -2.328,1.5 -1.5,1.5 -0.672,1.5 0,0.828 0,0" style="fill:#f4abba;fill-opacity:1;fill-rule:nonzero;stroke:none"/></g><g id="g124" transform="translate(14.0833,21.4512)"><path id="path126" d="M 0,0 C -0.197,0.46 0.011,1.555 0.548,1.137 1.085,0.719 0.789,-0.231 1.417,-0.24 2.044,-0.25 2.221,1.201 2.917,1.24 3.613,1.279 3.966,-0.211 4.417,-0.093 4.868,0.024 4.75,0.652 5.26,0.534 5.77,0.417 5.652,-0.62 6.175,-0.366 6.698,-0.113 6.69,1.277 7.25,1.337 7.809,1.397 7.468,0.111 8.031,0.46 8.593,0.809 8.506,0.026 7.941,-0.406 7.378,-0.838 4.735,-1.956 1.958,-1.24 -0.819,-0.525 0.197,-0.46 0,0" style="fill:#ffcc4d;fill-opacity:1;fill-rule:nonzero;stroke:none"/></g><g id="g128" transform="translate(22.6666,18)"><path id="path130" d="m 0,0 -9.421,0 0,3.2 L 0.478,2.618 0,0 Z" style="fill:#ffcc4d;fill-opacity:1;fill-rule:nonzero;stroke:none"/></g><g id="g132" transform="translate(15,15)"><path id="path134" d="M 0,0 C 0,-1.105 -0.672,-2 -1.5,-2 -2.329,-2 -3,-1.105 -3,0 -3,1.105 -2.329,2 -1.5,2 -0.672,2 0,1.105 0,0" style="fill:#664500;fill-opacity:1;fill-rule:nonzero;stroke:none"/></g><g id="g136" transform="translate(24,15.0001)"><path id="path138" d="M 0,0 C 0,-1.105 -0.672,-2 -1.5,-2 -2.328,-2 -3,-1.105 -3,0 -3,1.104 -2.328,2 -1.5,2 -0.672,2 0,1.104 0,0" style="fill:#664500;fill-opacity:1;fill-rule:nonzero;stroke:none"/></g><g id="g140" transform="translate(21.5,6.7222)"><path id="path142" d="M 0,0 C 0,-2.21 -1.568,-4 -3.5,-4 -5.433,-4 -7,-2.21 -7,0 -7,2.209 -5.433,4 -3.5,4 -1.568,4 0,2.209 0,0" style="fill:#664500;fill-opacity:1;fill-rule:nonzero;stroke:none"/></g></g></g></g></svg>