<svg xmlns="http://www.w3.org/2000/svg" xmlns:svg="http://www.w3.org/2000/svg" style="enable-background:new 0 0 45 45" id="svg2" version="1.1" viewBox="0 0 45 45" xml:space="preserve"><metadata id="metadata8"/><defs id="defs6"><clipPath id="clipPath16" clipPathUnits="userSpaceOnUse"><path id="path18" d="M 0,36 36,36 36,0 0,0 0,36 Z"/></clipPath></defs><g id="g10" transform="matrix(1.25,0,0,-1.25,0,45)"><g id="g12"><g id="g14" clip-path="url(#clipPath16)"><g id="g20" transform="translate(36,18)"><path id="path22" d="m 0,0 c 0,-9.941 -8.059,-18 -18,-18 -9.94,0 -18,8.059 -18,18 0,9.94 8.06,18 18,18 C -8.059,18 0,9.94 0,0" style="fill:#ffcc4d;fill-opacity:1;fill-rule:nonzero;stroke:none"/></g><g id="g24" transform="translate(31.0833,24.4271)"><path id="path26" d="m 0,0 c 0,-3.808 -3.087,-6.896 -6.896,-6.896 -3.808,0 -6.896,3.088 -6.896,6.896 0,3.808 3.088,6.896 6.896,6.896 C -3.087,6.896 0,3.808 0,0" style="fill:#f5f8fa;fill-opacity:1;fill-rule:nonzero;stroke:none"/></g><g id="g28" transform="translate(25.9839,24.4272)"><path id="path30" d="m 0,0 c 0,-0.992 -0.804,-1.796 -1.796,-1.796 -0.993,0 -1.797,0.804 -1.797,1.796 0,0.992 0.804,1.796 1.797,1.796 C -0.804,1.796 0,0.992 0,0" style="fill:#292f33;fill-opacity:1;fill-rule:nonzero;stroke:none"/></g><g id="g32" transform="translate(14.9581,22.4583)"><path id="path34" d="m 0,0 c 0,-2.175 -1.763,-3.937 -3.937,-3.937 -2.175,0 -3.938,1.762 -3.938,3.937 0,2.175 1.763,3.937 3.938,3.937 C -1.763,3.937 0,2.175 0,0" style="fill:#f5f8fa;fill-opacity:1;fill-rule:nonzero;stroke:none"/></g><g id="g36" transform="translate(12.9622,22.4583)"><path id="path38" d="m 0,0 c 0,-1.072 -0.869,-1.942 -1.942,-1.942 -1.072,0 -1.941,0.87 -1.941,1.942 0,1.072 0.869,1.942 1.941,1.942 C -0.869,1.942 0,1.072 0,0" style="fill:#292f33;fill-opacity:1;fill-rule:nonzero;stroke:none"/></g><g id="g40" transform="translate(18,15)"><path id="path42" d="m 0,0 c -3.623,0 -6.027,0.422 -9,1 -0.679,0.131 -2,0 -2,-2 0,-4 4.595,-9 11,-9 6.404,0 11,5 11,9 C 11,1 9.679,1.132 9,1 6.027,0.422 3.623,0 0,0" style="fill:#664500;fill-opacity:1;fill-rule:nonzero;stroke:none"/></g><g id="g44" transform="translate(9,14)"><path id="path46" d="m 0,0 c 0,0 3,-1 9,-1 6,0 9,1 9,1 0,0 -2,-4 -9,-4 -7,0 -9,4 -9,4" style="fill:#fff;fill-opacity:1;fill-rule:nonzero;stroke:none"/></g></g></g></g></svg>