<svg xmlns="http://www.w3.org/2000/svg" xmlns:svg="http://www.w3.org/2000/svg" style="enable-background:new 0 0 45 45" id="svg2" version="1.1" viewBox="0 0 45 45" xml:space="preserve"><metadata id="metadata8"/><defs id="defs6"><clipPath id="clipPath16" clipPathUnits="userSpaceOnUse"><path id="path18" d="M 0,36 36,36 36,0 0,0 0,36 Z"/></clipPath></defs><g id="g10" transform="matrix(1.25,0,0,-1.25,0,45)"><g id="g12"><g id="g14" clip-path="url(#clipPath16)"><g id="g20" transform="translate(36,18)"><path id="path22" d="m 0,0 c 0,-9.941 -8.059,-18 -18,-18 -9.941,0 -18,8.059 -18,18 0,9.941 8.059,18 18,18 C -8.059,18 0,9.941 0,0" style="fill:#ffcc4d;fill-opacity:1;fill-rule:nonzero;stroke:none"/></g><g id="g24" transform="translate(34.8176,29.0298)"><path id="path26" d="M 0,0 -4.542,0.801 -5.287,5.598 C -5.369,6.126 -5.778,6.544 -6.306,6.637 -6.834,6.731 -7.36,6.477 -7.617,6.009 L -9.958,1.756 -14.5,2.557 c -0.538,0.095 -1.072,-0.169 -1.323,-0.65 -0.253,-0.481 -0.166,-1.072 0.217,-1.459 l 3.163,-3.207 -2.348,-4.268 c -0.262,-0.475 -0.188,-1.064 0.185,-1.459 0.373,-0.396 0.955,-0.504 1.446,-0.273 l 4.518,2.145 3.513,-3.561 c 0.24,-0.243 0.563,-0.372 0.89,-0.372 0.191,0 0.384,0.044 0.561,0.133 0.486,0.245 0.757,0.773 0.674,1.309 l -0.747,4.813 4.07,1.932 c 0.492,0.233 0.776,0.757 0.702,1.297 C 0.949,-0.524 0.536,-0.094 0,0" style="fill:#e95f28;fill-opacity:1;fill-rule:nonzero;stroke:none"/></g><g id="g28" transform="translate(15.6823,31.5869)"><path id="path30" d="M 0,0 -4.542,-0.801 -6.883,3.452 C -7.141,3.921 -7.67,4.171 -8.195,4.08 -8.722,3.987 -9.131,3.569 -9.213,3.041 L -9.958,-1.756 -14.5,-2.557 c -0.536,-0.094 -0.949,-0.525 -1.021,-1.064 -0.073,-0.539 0.211,-1.063 0.702,-1.296 l 4.07,-1.933 -0.747,-4.812 c -0.083,-0.536 0.189,-1.065 0.673,-1.309 0.179,-0.09 0.371,-0.133 0.562,-0.133 0.327,0 0.65,0.128 0.89,0.372 l 3.513,3.561 4.518,-2.145 c 0.489,-0.232 1.073,-0.123 1.446,0.273 0.372,0.394 0.446,0.984 0.185,1.459 l -2.348,4.267 3.164,3.208 c 0.382,0.387 0.47,0.977 0.217,1.459 C 1.071,-0.168 0.532,0.093 0,0" style="fill:#e95f28;fill-opacity:1;fill-rule:nonzero;stroke:none"/></g><g id="g32" transform="translate(18,15)"><path id="path34" d="m 0,0 c -3.623,0 -6.027,0.422 -9,1 -0.679,0.131 -2,0 -2,-2 0,-4 4.595,-9 11,-9 6.404,0 11,5 11,9 C 11,1 9.679,1.132 9,1 6.027,0.422 3.623,0 0,0" style="fill:#664500;fill-opacity:1;fill-rule:nonzero;stroke:none"/></g><g id="g36" transform="translate(9,14)"><path id="path38" d="m 0,0 c 0,0 3,-1 9,-1 6,0 9,1 9,1 0,0 -2,-4 -9,-4 -7,0 -9,4 -9,4" style="fill:#fff;fill-opacity:1;fill-rule:nonzero;stroke:none"/></g></g></g></g></svg>