<svg xmlns="http://www.w3.org/2000/svg" xmlns:svg="http://www.w3.org/2000/svg" style="enable-background:new 0 0 45 45" id="svg2" version="1.1" viewBox="0 0 45 45" xml:space="preserve"><metadata id="metadata8"/><defs id="defs6"><clipPath id="clipPath16" clipPathUnits="userSpaceOnUse"><path id="path18" d="M 0,36 36,36 36,0 0,0 0,36 Z"/></clipPath></defs><g id="g10" transform="matrix(1.25,0,0,-1.25,0,45)"><g id="g12"><g id="g14" clip-path="url(#clipPath16)"><g id="g20" transform="translate(24.0531,19.2222)"><path id="path22" d="m 0,0 -4.282,0 c -1.793,0 -4.416,-1.504 -5.471,-2.451 -0.952,-0.856 -4.245,-3.302 -4.245,-5.802 0,-4.716 5.221,-10.969 5.221,-10.969 l 10.111,0 c 0,0 2,8.719 2,15.889 C 3.334,-1.597 1.793,0 0,0" style="fill:#9268ca;fill-opacity:1;fill-rule:nonzero;stroke:none"/></g><g id="g24" transform="translate(22.5382,18.5073)"><path id="path26" d="m 0,0 c -0.178,-1.084 -1.277,-3.246 -4.038,-6.007 -2.5,-2.5 -5.5,-3 -5.5,-3 0,0 -3.457,-0.765 -2.703,2.25 0.44,1.762 2.616,1.833 4.156,3.922 1.545,2.096 4.842,3.087 6.047,3.328 C 0.462,0.993 0,0 0,0" style="fill:#f3d2a2;fill-opacity:1;fill-rule:nonzero;stroke:none"/></g><g id="g28" transform="translate(14.4353,11.9176)"><path id="path30" d="m 0,0 c -0.712,-0.558 -1.376,-0.494 -1.859,-0.094 -0.796,0.66 -2.004,0.693 -2.092,0.426 0.023,-1.026 1.116,-1.483 1.316,-2.556 0.007,-0.037 0.018,-0.074 0.026,-0.111 0.567,-0.192 1.174,-0.083 1.174,-0.083 0,0 0.572,0.111 1.138,0.31 0.719,2.353 1.71,2.341 2.065,3.143 C 1.887,1.305 0.606,0.475 0,0" style="fill:#d2a077;fill-opacity:1;fill-rule:nonzero;stroke:none"/></g><g id="g32" transform="translate(15.2455,29.9963)"><path id="path34" d="m 0,0 c 0.724,-1.74 -0.09,-3.73 -1.817,-4.447 -1.728,-0.717 -3.713,0.109 -4.435,1.849 -0.723,1.739 0.09,3.73 1.819,4.447 C -2.706,2.567 -0.721,1.74 0,0" style="fill:#ffe51e;fill-opacity:1;fill-rule:nonzero;stroke:none"/></g><g id="g36" transform="translate(18.1133,20.7389)"><path id="path38" d="m 0,0 0.639,-2.538 c 0.258,-1.026 0.069,-1.856 1.581,-1.914 1.056,-0.041 2.483,1.846 2.225,2.873 L 3.807,0.959 0,0 Z" style="fill:#f3d2a2;fill-opacity:1;fill-rule:nonzero;stroke:none"/></g><g id="g40" transform="translate(18.1133,20.7389)"><path id="path42" d="M 0,0 0.734,-2.994 C 3.866,-1.655 3.97,0.725 3.97,0.725 L 0,0 Z" style="fill:#e2c196;fill-opacity:1;fill-rule:nonzero;stroke:none"/></g><g id="g44" transform="translate(12.6221,31.2415)"><path id="path46" d="m 0,0 c 0,0 1.356,-3.263 -1.556,-4.926 l 1.549,-3.728 c 1.27,-3.053 3,-5.239 6.056,-3.969 3.057,1.271 6.279,5.514 5.009,8.566 L 9.777,-0.971 C 2.85,-3.579 0,0 0,0" style="fill:#f3d2a2;fill-opacity:1;fill-rule:nonzero;stroke:none"/></g><g id="g48" transform="translate(13.6985,21.237)"><path id="path50" d="m 0,0 -0.387,-0.161 c -0.17,-0.07 -0.365,0.008 -0.436,0.18 -0.069,0.17 0.011,0.364 0.18,0.434 l 0.388,0.162 C -0.084,0.686 0.11,0.605 0.181,0.435 0.251,0.264 0.17,0.072 0,0" style="fill:#bf6952;fill-opacity:1;fill-rule:nonzero;stroke:none"/></g><g id="g52" transform="translate(13.8887,23.8378)"><path id="path54" d="m 0,0 c -0.339,-0.141 -0.729,0.021 -0.87,0.359 l -0.257,0.617 c -0.141,0.337 0.022,0.729 0.361,0.869 0.34,0.142 0.73,-0.021 0.871,-0.358 L 0.361,0.871 C 0.502,0.532 0.342,0.141 0,0" style="fill:#662113;fill-opacity:1;fill-rule:nonzero;stroke:none"/></g><g id="g56" transform="translate(14.2254,19.728)"><path id="path58" d="m 0,0 c 0.306,-0.37 0.64,-0.68 1,-0.921 1.326,0.765 1.419,1.926 1.419,1.926 0,0 -1.177,-0.489 -2.355,-0.979 C 0.04,0.017 0.023,0.01 0,0" style="fill:#df1f32;fill-opacity:1;fill-rule:nonzero;stroke:none"/></g><g id="g60" transform="translate(18.112,23.99)"><path id="path62" d="m 0,0 -1.833,2.954 c 0,0 -5.064,-1.243 -6.58,1.649 -1.517,2.891 2.347,5.581 4.945,6.495 2.599,0.914 6.774,2.009 9.333,-3.262 2.37,-4.881 -0.68,-9.096 -1.571,-10.228 0,0 -1.296,1.013 -1.67,1.752 C 2.249,0.098 2.795,1.972 1.973,2.556 1.193,3.11 -0.494,2.543 0,0" style="fill:#ffe51e;fill-opacity:1;fill-rule:nonzero;stroke:none"/></g><g id="g64" transform="translate(23.3057,30.7583)"><path id="path66" d="M 0,0 C -0.682,1.427 1.115,3.782 3.234,3.566 5.354,3.351 7.845,1.248 6.81,-1.519 5.821,-4.164 6.563,-6.2 8.611,-6.132 c 0,0 -1.172,-1.614 -3.168,-0.44 C 3.36,-5.347 4.54,-1.473 3.042,-0.696 2.29,-0.304 1.293,-0.191 0.892,-0.661 0.492,-1.132 0,0 0,0" style="fill:#ffe51e;fill-opacity:1;fill-rule:nonzero;stroke:none"/></g><g id="g68" transform="translate(16.5179,3.6327)"><path id="path70" d="m 0,0 c 1.105,-0.007 3.938,0.359 5.817,0.824 -1.458,0.994 -4.946,3.342 -6.46,4.075 -1.937,0.937 -5.562,4.062 -6.281,4.812 -0.719,0.75 -2.438,0.625 -3.34,-0.687 -0.641,-0.933 -1.499,-4.347 -0.004,-7.094 1.747,-3.212 4.769,-5.54 8.744,-5.54 1.05,0 1.979,0.134 2.801,0.348 C -0.976,-3.043 -1.329,0.008 0,0" style="fill:#77b255;fill-opacity:1;fill-rule:nonzero;stroke:none"/></g><g id="g72" transform="translate(18,0)"><path id="path74" d="m 0,0 -2.565,0 c -2.094,0 -4.81,1.656 -4.369,3.156 0.44,1.495 1.654,0.486 3.434,0.486 1,0 2.018,-0.009 2.018,-0.009 0,0 0.8,-2.457 1.482,-3.633" style="fill:#f3d2a2;fill-opacity:1;fill-rule:nonzero;stroke:none"/></g></g></g></g></svg>