<svg xmlns="http://www.w3.org/2000/svg" xmlns:svg="http://www.w3.org/2000/svg" style="enable-background:new 0 0 45 45" id="svg2" version="1.1" viewBox="0 0 45 45" xml:space="preserve"><metadata id="metadata8"/><defs id="defs6"><clipPath id="clipPath16" clipPathUnits="userSpaceOnUse"><path id="path18" d="M 0,36 36,36 36,0 0,0 0,36 Z"/></clipPath></defs><g id="g10" transform="matrix(1.25,0,0,-1.25,0,45)"><g id="g12"><g id="g14" clip-path="url(#clipPath16)"><g id="g20" transform="translate(10,11)"><path id="path22" d="m 0,0 c 0,2.209 -0.896,4 -2,4 -1.104,0 -2,2 -2,-3 0,-2.209 1,-5 3,-5 1.105,0 1,0 1,4" style="fill:#d1d3d4;fill-opacity:1;fill-rule:nonzero;stroke:none"/></g><g id="g24" transform="translate(26.0029,11)"><path id="path26" d="M 0,0 C 0,2.209 0.896,4 2,4 3.105,4 4,6 4,1 4,-1.209 3,-4 1,-4 -0.104,-4 0,-4 0,0" style="fill:#d1d3d4;fill-opacity:1;fill-rule:nonzero;stroke:none"/></g><g id="g28" transform="translate(6,17.4375)"><path id="path30" d="M 0,0 C 0,8.526 5.373,15.438 12,15.438 18.627,15.438 24,8.526 24,0 24,-9.438 17,-15.438 12,-15.438 7,-15.438 0,-9.438 0,0" style="fill:#ffdc5d;fill-opacity:1;fill-rule:nonzero;stroke:none"/></g><g id="g32" transform="translate(5,22)"><path id="path34" d="M 0,0 C 0,2.209 0.896,4 2,4 3.104,4 4,2.209 4,0 4,-2.209 3.104,-4 2,-4 0.896,-4 0,-8 0,0" style="fill:#d1d3d4;fill-opacity:1;fill-rule:nonzero;stroke:none"/></g><g id="g36" transform="translate(8,15)"><path id="path38" d="M 0,0 C 0,-2.209 -1.119,-4 -2.5,-4 -3.881,-4 -5,-2.209 -5,0 -5,2.21 -3.881,4.001 -2.5,4.001 -1.119,4.001 0,2.21 0,0" style="fill:#ffdc5d;fill-opacity:1;fill-rule:nonzero;stroke:none"/></g><g id="g40" transform="translate(27,22)"><path id="path42" d="M 0,0 C 0,2.209 0.896,4 2,4 3.105,4 4,2.209 4,0 4,-4 3.105,-4 2,-4 0.896,-4 0,-2.209 0,0" style="fill:#d1d3d4;fill-opacity:1;fill-rule:nonzero;stroke:none"/></g><g id="g44" transform="translate(33,15)"><path id="path46" d="M 0,0 C 0,-2.209 -1.119,-4 -2.5,-4 -3.881,-4 -5,-2.209 -5,0 -5,2.21 -3.881,4.001 -2.5,4.001 -1.119,4.001 0,2.21 0,0" style="fill:#ffdc5d;fill-opacity:1;fill-rule:nonzero;stroke:none"/></g><g id="g48" transform="translate(30.9609,26)"><path id="path50" d="m 0,0 c 0.016,0.185 0.039,0.368 0.039,0.556 0,5.215 -5.825,9.444 -13.011,9.444 -7.186,0 -13.011,-4.229 -13.011,-9.444 0,-0.188 0.024,-0.371 0.038,-0.556 L 0,0 Z" style="fill:#dd2e44;fill-opacity:1;fill-rule:nonzero;stroke:none"/></g><g id="g52" transform="translate(18,5.3486)"><path id="path54" d="M 0,0 C -2.42,0 -4.274,0.687 -4.352,0.715 -4.869,0.909 -5.13,1.486 -4.936,2.003 -4.742,2.52 -4.167,2.782 -3.65,2.588 -3.634,2.582 -2.04,2 0,2 2.041,2 3.635,2.582 3.65,2.588 4.166,2.782 4.744,2.517 4.936,2.001 5.129,1.484 4.868,0.909 4.352,0.715 4.274,0.687 2.421,0 0,0" style="fill:#dd2e44;fill-opacity:1;fill-rule:nonzero;stroke:none"/></g><g id="g56" transform="translate(19,10)"><path id="path58" d="m 0,0 -2,0 c -0.553,0 -1,0.447 -1,1 0,0.553 0.447,1 1,1 L 0,2 C 0.553,2 1,1.553 1,1 1,0.447 0.553,0 0,0" style="fill:#c1694f;fill-opacity:1;fill-rule:nonzero;stroke:none"/></g><g id="g60" transform="translate(12,13)"><path id="path62" d="m 0,0 c -0.552,0 -1,0.447 -1,1 l 0,2 C -1,3.553 -0.552,4 0,4 0.552,4 1,3.553 1,3 L 1,1 C 1,0.447 0.552,0 0,0" style="fill:#662113;fill-opacity:1;fill-rule:nonzero;stroke:none"/></g><g id="g64" transform="translate(24,13)"><path id="path66" d="m 0,0 c -0.553,0 -1,0.447 -1,1 l 0,2 C -1,3.553 -0.553,4 0,4 0.553,4 1,3.553 1,3 L 1,1 C 1,0.447 0.553,0 0,0" style="fill:#662113;fill-opacity:1;fill-rule:nonzero;stroke:none"/></g><g id="g68" transform="translate(22,25)"><path id="path70" d="m 0,0 c 0,-2.21 -1.79,-4 -4,-4 -2.21,0 -4,1.79 -4,4 0,2.209 1.79,4 4,4 2.21,0 4,-1.791 4,-4" style="fill:#f1f2f2;fill-opacity:1;fill-rule:nonzero;stroke:none"/></g><g id="g72" transform="translate(15,24.5)"><path id="path74" d="M 0,0 C 0,-1.934 -1.566,-3.5 -3.5,-3.5 -5.434,-3.5 -7,-1.934 -7,0 -7,1.934 -5.434,3.5 -3.5,3.5 -1.566,3.5 0,1.934 0,0" style="fill:#f1f2f2;fill-opacity:1;fill-rule:nonzero;stroke:none"/></g><g id="g76" transform="translate(9,24)"><path id="path78" d="m 0,0 c 0,-1.657 -1.343,-3 -3,-3 -1.657,0 -3,1.343 -3,3 0,1.657 1.343,3 3,3 1.657,0 3,-1.343 3,-3" style="fill:#f1f2f2;fill-opacity:1;fill-rule:nonzero;stroke:none"/></g><g id="g80" transform="translate(28,24.5)"><path id="path82" d="M 0,0 C 0,-1.934 -1.566,-3.5 -3.5,-3.5 -5.434,-3.5 -7,-1.934 -7,0 -7,1.934 -5.434,3.5 -3.5,3.5 -1.566,3.5 0,1.934 0,0" style="fill:#f1f2f2;fill-opacity:1;fill-rule:nonzero;stroke:none"/></g><g id="g84" transform="translate(33,24)"><path id="path86" d="m 0,0 c 0,-1.657 -1.343,-3 -3,-3 -1.657,0 -3,1.343 -3,3 0,1.657 1.343,3 3,3 1.657,0 3,-1.343 3,-3" style="fill:#f1f2f2;fill-opacity:1;fill-rule:nonzero;stroke:none"/></g><g id="g88" transform="translate(27,12)"><path id="path90" d="M 0,0 C 0,-1.104 -1.567,-2 -3.5,-2 -5.433,-2 -7,-1.104 -7,0 -7,1.105 -5.433,2 -3.5,2 -1.567,2 0,1.105 0,0" style="fill:#d1d3d4;fill-opacity:1;fill-rule:nonzero;stroke:none"/></g><g id="g92" transform="translate(16,12)"><path id="path94" d="M 0,0 C 0,-1.104 -1.567,-2 -3.5,-2 -5.433,-2 -7,-1.104 -7,0 -7,1.105 -5.433,2 -3.5,2 -1.567,2 0,1.105 0,0" style="fill:#d1d3d4;fill-opacity:1;fill-rule:nonzero;stroke:none"/></g><g id="g96" transform="translate(33,24)"><path id="path98" d="m 0,0 c 0,1.657 -30,1.657 -30,0 0,-1.657 1.343,-3 3,-3 l 24,0 c 1.657,0 3,1.343 3,3" style="fill:#f1f2f2;fill-opacity:1;fill-rule:nonzero;stroke:none"/></g></g></g></g></svg>