<svg xmlns="http://www.w3.org/2000/svg" xmlns:svg="http://www.w3.org/2000/svg" style="enable-background:new 0 0 45 45" id="svg2" version="1.1" viewBox="0 0 45 45" xml:space="preserve"><metadata id="metadata8"/><defs id="defs6"><clipPath id="clipPath16" clipPathUnits="userSpaceOnUse"><path id="path18" d="M 0,36 36,36 36,0 0,0 0,36 Z"/></clipPath></defs><g id="g10" transform="matrix(1.25,0,0,-1.25,0,45)"><g id="g12"><g id="g14" clip-path="url(#clipPath16)"><g id="g20" transform="translate(22.7813,31.2852)"><path id="path22" d="m 0,0 c 0,0 -5.69,7.14 -10.656,3.697 -3.683,-2.554 -3.667,-7.228 -3.304,-9.478 0.371,-2.298 1.504,-7.529 2.194,-11.914 0.69,-4.397 1.178,-8.329 1.893,-12.912 0.182,-1.16 4.069,-0.522 3.965,0.613 -0.177,1.944 -1.821,8.965 -2.258,12.05 -0.404,2.865 -1.365,8.421 -1.928,11.649 -0.619,3.546 -0.28,6.676 2.148,7.39 2.787,0.819 5.55,-3.835 5.55,-3.835 L 0,0 Z" style="fill:#78b159;fill-opacity:1;fill-rule:nonzero;stroke:none"/></g><g id="g24" transform="translate(13.0811,19.5747)"><path id="path26" d="m 0,0 c 0,0 1.71,-0.642 2.871,-1.803 1.536,-1.536 2.471,-4.541 1.269,-7.948 -0.739,-2.092 1.069,-5.074 1.069,-5.074 0,0 -2.013,1.077 -3.272,2.671 -1.279,1.618 -2.12,3.833 -2.297,5.648 C -0.477,-5.309 -0.534,-2.938 0,0" style="fill:#c6e4b5;fill-opacity:1;fill-rule:nonzero;stroke:none"/></g><g id="g28" transform="translate(10.2759,22.0229)"><path id="path30" d="m 0,0 c -0.786,-0.363 -2.993,-3.198 -3.242,-4.768 -1.037,-6.55 2.879,-10.825 2.879,-10.825 0,0 0.688,3.983 1.761,5.421 1.245,1.67 0.545,5.676 0,7.151 C 1.007,-1.967 0,0 0,0" style="fill:#a6d388;fill-opacity:1;fill-rule:nonzero;stroke:none"/></g><g id="g32" transform="translate(24.7354,27.7422)"><path id="path34" d="M 0,0 C -0.786,-1.067 -2.577,-1.082 -3.999,-0.033 -5.422,1.015 -5.937,2.73 -5.15,3.797 -4.365,4.864 -2.574,4.879 -1.151,3.83 0.271,2.782 0.786,1.067 0,0" style="fill:#78b159;fill-opacity:1;fill-rule:nonzero;stroke:none"/></g><g id="g36" transform="translate(26.2051,30.6299)"><path id="path38" d="m 0,0 c 0.845,-1.281 0.107,-3.255 -1.645,-4.41 -1.752,-1.154 -3.858,-1.052 -4.702,0.229 -0.842,1.28 -0.106,3.254 1.647,4.409 C -2.947,1.383 -0.844,1.281 0,0" style="fill:#78b159;fill-opacity:1;fill-rule:nonzero;stroke:none"/></g><g id="g40" transform="translate(20.71,27.8564)"><path id="path42" d="m 0,0 c -0.874,-1.148 -2.897,-1.476 -2.897,-1.476 0,0 1.695,-1.257 2.733,-0.546 C 0.874,-1.312 0,0 0,0" style="fill:#78b159;fill-opacity:1;fill-rule:nonzero;stroke:none"/></g><g id="g44" transform="translate(23.2607,31.1357)"><path id="path46" d="m 0,0 c -0.055,0.82 1.312,2.295 1.967,1.913 0,0 -0.874,-0.984 -0.054,-1.585 C 2.732,-0.273 0,0 0,0" style="fill:#78b159;fill-opacity:1;fill-rule:nonzero;stroke:none"/></g><g id="g48" transform="translate(21.25,27.3335)"><path id="path50" d="m 0,0 c -1.791,-0.958 -3.399,-3.232 -2.56,-7.593 0.726,-3.774 3.918,-5.321 2.855,-7.836 -0.986,-2.335 0.822,-6.097 3.228,-0.392 0.754,1.788 2.811,9.279 0.769,13.863 C 3.064,0.798 0.838,0.449 0,0" style="fill:#da2f47;fill-opacity:1;fill-rule:nonzero;stroke:none"/></g><g id="g52" transform="translate(23.3535,28.9204)"><path id="path54" d="M 0,0 C 1.322,1.933 3.245,2.175 4.541,0.946 10.575,-4.777 8.085,-16.001 4.021,-18.42 1.618,-19.85 3.175,-11.211 -0.067,-7.68 -1.973,-5.604 -2.026,-2.409 0,0" style="fill:#e75a70;fill-opacity:1;fill-rule:nonzero;stroke:none"/></g></g></g></g></svg>