<svg xmlns="http://www.w3.org/2000/svg" xmlns:svg="http://www.w3.org/2000/svg" style="enable-background:new 0 0 45 45" id="svg2" version="1.1" viewBox="0 0 45 45" xml:space="preserve"><metadata id="metadata8"/><defs id="defs6"><clipPath id="clipPath16" clipPathUnits="userSpaceOnUse"><path id="path18" d="M 0,36 36,36 36,0 0,0 0,36 Z"/></clipPath></defs><g id="g10" transform="matrix(1.25,0,0,-1.25,0,45)"><g id="g12"><g id="g14" clip-path="url(#clipPath16)"><g id="g20" transform="translate(34,30)"><path id="path22" d="m 0,0 c -2,3 -9,4 -16,4 -7,0 -15,-1 -16,-3 -1.907,-3.814 -1,-20 -1,-21 0,-1 5,-1 5,-1 l 0,13 1,2 0,-23 c 0,0 3,-1 11,-1 8,0 11,1 11,1 l 0,23 1,-2 0,-13 c 0,0 5,0 5,1 0,1 1.365,16.452 -1,20" style="fill:#e1e8ed;fill-opacity:1;fill-rule:nonzero;stroke:none"/></g><g id="g24" transform="translate(7,9)"><path id="path26" d="m 0,0 -1,0 0,13 c 0,1 1,2 1,2 L 0,0 Z" style="fill:#99aab5;fill-opacity:1;fill-rule:nonzero;stroke:none"/></g><g id="g28" transform="translate(30,9)"><path id="path30" d="m 0,0 -1,0 0,15 c 0,0 1,-1 1,-2 L 0,0 Z" style="fill:#99aab5;fill-opacity:1;fill-rule:nonzero;stroke:none"/></g><g id="g32" transform="translate(11.7813,34)"><path id="path34" d="M 0,0 6.281,-11.344 12.219,0 6.109,1.25 0,0 Z" style="fill:#66757f;fill-opacity:1;fill-rule:nonzero;stroke:none"/></g><g id="g36" transform="translate(12,35.375)"><path id="path38" d="M 0,0 C 0,0 2.25,0.547 6,0.547 9.75,0.547 12,0 12,0 l 0,-2.375 c 0,0 -1.625,1 -6,1 -4.375,0 -6,-1 -6,-1 L 0,0 Z" style="fill:#ccd6dd;fill-opacity:1;fill-rule:nonzero;stroke:none"/></g><g id="g40" transform="translate(7,1)"><path id="path42" d="m 0,0 c 0,0 17.748,31.659 17.748,32.638 0,1 -0.748,1.737 -0.748,1.737 L 0,3 0,0 Z" style="fill:#99aab5;fill-opacity:1;fill-rule:nonzero;stroke:none"/></g><g id="g44" transform="translate(17.8184,21.2778)"><path id="path46" d="m 0,0 c 0,0 -6.692,11.381 -6.692,12.36 0,1 0.874,1.737 0.874,1.737 L 0.943,1.524 0,0 Z" style="fill:#99aab5;fill-opacity:1;fill-rule:nonzero;stroke:none"/></g><g id="g48" transform="translate(7,14)"><path id="path50" d="m 0,0 c 0,0 5,-2 11,-2 6,0 11,2 11,2 l 0,-3 C 22,-3 18,-5 11,-5 4,-5 0,-3 0,-3 l 0,3 z" style="fill:#292f33;fill-opacity:1;fill-rule:nonzero;stroke:none"/></g><g id="g52" transform="translate(21,12)"><path id="path54" d="m 0,0 c 0,0 -2,1 -3,1 -1,0 -3,-1 -3,-1 0,0 -1,0 -1,-1 0,-1 1,-2 1,-2 0,0 2,-1 3,-1 1,0 3,1 3,1 0,0 1,1 1,2 0,1 -1,1 -1,1" style="fill:#292f33;fill-opacity:1;fill-rule:nonzero;stroke:none"/></g><g id="g56" transform="translate(12,3)"><path id="path58" d="m 0,0 3,-1 c 0,0 1,5 3,7 L 4,9 C 4,9 1,5 0,0" style="fill:#292f33;fill-opacity:1;fill-rule:nonzero;stroke:none"/></g><g id="g60" transform="translate(24,3)"><path id="path62" d="m 0,0 -3,-1 c 0,0 -1,5 -3,7 l 2,3 c 0,0 3,-4 4,-9" style="fill:#292f33;fill-opacity:1;fill-rule:nonzero;stroke:none"/></g></g></g></g></svg>