<svg xmlns="http://www.w3.org/2000/svg" xmlns:svg="http://www.w3.org/2000/svg" style="enable-background:new 0 0 45 45" id="svg2" version="1.1" viewBox="0 0 45 45" xml:space="preserve"><metadata id="metadata8"/><defs id="defs6"><clipPath id="clipPath24" clipPathUnits="userSpaceOnUse"><path id="path26" d="M 0,36 36,36 36,0 0,0 0,36 Z"/></clipPath></defs><g id="g10" transform="matrix(1.25,0,0,-1.25,0,45)"><g id="g12" transform="translate(8.7771,31.5417)"><path id="path14" d="m 0,0 2.015,-27.542 14.333,0 L 18.536,0.021 0,0 Z" style="fill:#ccd6dd;fill-opacity:1;fill-rule:nonzero;stroke:none"/></g><g id="g16" transform="translate(25,4.7187)"><path id="path18" d="m 0,0 -14.094,-0.156 -1.018,15.312 16.246,0 L 0,0 Z" style="fill:#fff;fill-opacity:1;fill-rule:nonzero;stroke:none"/></g><g id="g20"><g id="g22" clip-path="url(#clipPath24)"><g id="g28" transform="translate(27.8438,31.6352)"><path id="path30" d="m 0,0 -1.969,-27.66 c -0.147,-1.481 -0.806,-1.975 -1.969,-1.975 l -11.812,0 c -0.975,0 -1.803,0.586 -1.969,1.975 L -19.687,0" style="fill:none;stroke:#8899a6;stroke-width:2.3499999;stroke-linecap:round;stroke-linejoin:miter;stroke-miterlimit:10;stroke-dasharray:none;stroke-opacity:1"/></g><g id="g32" transform="translate(8.1562,31.6474)"><path id="path34" d="m 0,0 c 0,0 1.426,-17.865 1.753,-22.097 0.277,-3.581 0.739,-5.55 5.463,-5.55 l 2.628,0" style="fill:none;stroke:#8899a6;stroke-width:2;stroke-linecap:round;stroke-linejoin:miter;stroke-miterlimit:10;stroke-dasharray:none;stroke-opacity:1"/></g><g id="g36" transform="translate(27.8438,31.6474)"><path id="path38" d="m 0,0 c 0,0 -1.426,-17.865 -1.753,-22.097 -0.277,-3.581 -0.739,-5.55 -5.463,-5.55 l -2.628,0" style="fill:none;stroke:#8899a6;stroke-width:2;stroke-linecap:round;stroke-linejoin:miter;stroke-miterlimit:10;stroke-dasharray:none;stroke-opacity:1"/></g><g id="g40" transform="translate(29,31.9167)"><path id="path42" d="m 0,0 c 0,-1.703 -2.73,-3.083 -11,-3.083 -8.27,0 -11,1.38 -11,3.083 0,1.704 2.73,3.083 11,3.083 C -2.73,3.083 0,1.704 0,0" style="fill:#ccd6dd;fill-opacity:1;fill-rule:nonzero;stroke:none"/></g><g id="g44" transform="translate(28.5322,31.8721)"><path id="path46" d="m 0,0 c -0.307,0.459 -0.927,0.583 -1.387,0.276 -2.086,-1.393 -7.274,-1.571 -9.097,-1.524 -0.01,10e-4 -0.019,-0.004 -0.029,-0.004 -0.009,0 -0.016,0.005 -0.025,0.004 -1.819,-0.049 -7.008,0.128 -9.097,1.524 -0.46,0.306 -1.08,0.183 -1.387,-0.276 -0.307,-0.459 -0.183,-1.08 0.276,-1.387 2.57,-1.717 7.917,-1.866 9.688,-1.866 0.289,0 0.476,0.004 0.547,0.006 0.071,-0.002 0.258,-0.006 0.548,-0.006 1.771,0 7.117,0.149 9.688,1.866 C 0.184,-1.081 0.308,-0.459 0,0" style="fill:#fff;fill-opacity:1;fill-rule:nonzero;stroke:none"/></g><g id="g48" transform="translate(25.8175,19.9401)"><path id="path50" d="m 0,0 c 0,-0.808 -3.504,-1.464 -7.827,-1.464 -4.322,0 -7.827,0.656 -7.827,1.464 0,0.808 3.505,1.464 7.827,1.464 C -3.504,1.464 0,0.808 0,0" style="fill:#e1e8ed;fill-opacity:1;fill-rule:nonzero;stroke:none"/></g><path id="path52" d="m 25.208,2.625 -14.167,0 0,1.833 14.167,0 0,-1.833 z" style="fill:#8899a6;fill-opacity:1;fill-rule:nonzero;stroke:none"/></g></g></g></svg>