<svg xmlns="http://www.w3.org/2000/svg" xmlns:svg="http://www.w3.org/2000/svg" style="enable-background:new 0 0 45 45" id="svg2" version="1.1" viewBox="0 0 45 45" xml:space="preserve"><metadata id="metadata8"/><defs id="defs6"><clipPath id="clipPath16" clipPathUnits="userSpaceOnUse"><path id="path18" d="M 0,36 36,36 36,0 0,0 0,36 Z"/></clipPath></defs><g id="g10" transform="matrix(1.25,0,0,-1.25,0,45)"><g id="g12"><g id="g14" clip-path="url(#clipPath16)"><g id="g20" transform="translate(35,30.0957)"><path id="path22" d="m 0,0 c 2.394,-6.042 -1.438,-20.543 -10.5,-26.5 -9.06,-5.957 -20.395,-3.573 -23.097,6.443 -1.669,6.186 2.79,10.722 11.851,16.678 C -12.686,2.578 -2.36,5.958 0,0" style="fill:#3e721d;fill-opacity:1;fill-rule:nonzero;stroke:none"/></g><g id="g24" transform="translate(20.6055,9.9697)"><path id="path26" d="m 0,0 c -6.523,-4.546 -15.287,-5.15 -18.469,-0.582 -3.183,4.566 0.418,12.578 6.943,17.124 6.522,4.545 21.951,9.796 25.133,5.229 C 16.79,17.203 6.522,4.546 0,0" style="fill:#3e721d;fill-opacity:1;fill-rule:nonzero;stroke:none"/></g><g id="g28" transform="translate(19.8154,9.4219)"><path id="path30" d="m 0,0 c -5.757,-4.013 -13.482,-3.097 -16.29,0.934 -2.808,4.031 0.474,11.17 6.231,15.181 5.756,4.011 20.258,9.264 23.069,5.234 C 15.816,17.319 8.185,5.174 0,0" style="fill:#a6d388;fill-opacity:1;fill-rule:nonzero;stroke:none"/></g><g id="g32" transform="translate(18.1689,12.0742)"><path id="path34" d="m 0,0 c -4.506,-3.14 -9.939,-3.127 -12.136,0.027 -2.2,3.155 -0.33,8.255 4.176,11.396 4.506,3.141 15.835,7.238 18.034,4.084 C 12.275,12.352 4.508,3.14 0,0" style="fill:#c6e5b3;fill-opacity:1;fill-rule:nonzero;stroke:none"/></g><g id="g36" transform="translate(11.1621,23.5122)"><path id="path38" d="M 0,0 C 3.48,2.332 7.382,1.495 9.798,-0.995 11.23,-2.472 8.918,-6.377 5.439,-8.709 1.961,-11.039 -2.331,-10.471 -2.801,-9.44 -4.24,-6.283 -3.478,-2.332 0,0" style="fill:#662113;fill-opacity:1;fill-rule:nonzero;stroke:none"/></g><g id="g40" transform="translate(13.0713,22.894)"><path id="path42" d="M 0,0 C 1.51,1.013 3.414,0.819 4.254,-0.431 5.091,-1.682 4.548,-3.518 3.037,-4.531 1.527,-5.54 -0.378,-5.348 -1.216,-4.098 -2.056,-2.846 -1.51,-1.012 0,0" style="fill:#7c3225;fill-opacity:1;fill-rule:nonzero;stroke:none"/></g></g></g></g></svg>