<svg xmlns="http://www.w3.org/2000/svg" xmlns:svg="http://www.w3.org/2000/svg" style="enable-background:new 0 0 45 45" id="svg2" version="1.1" viewBox="0 0 45 45" xml:space="preserve"><metadata id="metadata8"/><defs id="defs6"><clipPath id="clipPath16" clipPathUnits="userSpaceOnUse"><path id="path18" d="M 0,36 36,36 36,0 0,0 0,36 Z"/></clipPath></defs><g id="g10" transform="matrix(1.25,0,0,-1.25,0,45)"><g id="g12"><g id="g14" clip-path="url(#clipPath16)"><g id="g20" transform="translate(17.2559,4.4814)"><path id="path22" d="m 0,0 c -4.754,-4.754 -11.207,-5.573 -14.683,-2.097 -3.475,3.475 -2.516,10.067 2.099,14.682 3.355,3.356 6.711,3.356 9.228,5.873 2.517,2.517 1.678,5.034 5.454,8.809 4.614,4.613 10.486,5.453 14.261,1.678 3.775,-3.776 2.832,-9.754 -1.677,-14.263 C 10.906,10.907 8.39,11.746 5.873,9.23 3.355,6.712 3.355,3.357 0,0" style="fill:#d99e82;fill-opacity:1;fill-rule:nonzero;stroke:none"/></g><g id="g24" transform="translate(8.2104,15.6025)"><path id="path26" d="m 0,0 c 0.611,0.404 1.3,0.776 2.082,1.106 3.792,1.458 7.291,4.25 8.333,7.667" style="fill:none;stroke:#c1694f;stroke-width:2;stroke-linecap:round;stroke-linejoin:miter;stroke-miterlimit:10;stroke-dasharray:none;stroke-opacity:1"/></g><g id="g28" transform="translate(3.167,6.666)"><path id="path30" d="M 0,0 C 0.042,1.917 0.292,4.417 2.287,6.295" style="fill:none;stroke:#c1694f;stroke-width:2;stroke-linecap:round;stroke-linejoin:miter;stroke-miterlimit:10;stroke-dasharray:none;stroke-opacity:1"/></g><g id="g32" transform="translate(7.292,7.375)"><path id="path34" d="M 0,0 C 0.417,1.625 1.375,4.666 5.25,6.083" style="fill:none;stroke:#c1694f;stroke-width:2;stroke-linecap:round;stroke-linejoin:miter;stroke-miterlimit:10;stroke-dasharray:none;stroke-opacity:1"/></g><g id="g36" transform="translate(24.959,18.4165)"><path id="path38" d="M 0,0 C 4.25,1.5 7.333,4.458 8.5,9.708" style="fill:none;stroke:#c1694f;stroke-width:2;stroke-linecap:round;stroke-linejoin:miter;stroke-miterlimit:10;stroke-dasharray:none;stroke-opacity:1"/></g><g id="g40" transform="translate(29.125,26.583)"><path id="path42" d="M 0,0 C -0.833,-1.875 -2.666,-3.666 -4.666,-4.458" style="fill:none;stroke:#c1694f;stroke-width:2;stroke-linecap:round;stroke-linejoin:miter;stroke-miterlimit:10;stroke-dasharray:none;stroke-opacity:1"/></g><g id="g44" transform="translate(15.75,14.916)"><path id="path46" d="M 0,0 C 1.125,0.459 2.333,1.542 2.75,2.251" style="fill:none;stroke:#c1694f;stroke-width:2;stroke-linecap:round;stroke-linejoin:miter;stroke-miterlimit:10;stroke-dasharray:none;stroke-opacity:1"/></g><g id="g48" transform="translate(19.75,27.583)"><path id="path50" d="M 0,0 C 0.333,0.958 1.042,1.875 1.709,2.292" style="fill:none;stroke:#c1694f;stroke-width:2;stroke-linecap:round;stroke-linejoin:miter;stroke-miterlimit:10;stroke-dasharray:none;stroke-opacity:1"/></g><g id="g52" transform="translate(6.542,4.416)"><path id="path54" d="M 0,0 C -0.083,-0.375 -0.125,-1.041 -0.083,-1.333" style="fill:none;stroke:#c1694f;stroke-width:2;stroke-linecap:round;stroke-linejoin:miter;stroke-miterlimit:10;stroke-dasharray:none;stroke-opacity:1"/></g></g></g></g></svg>