<svg xmlns="http://www.w3.org/2000/svg" xmlns:svg="http://www.w3.org/2000/svg" style="enable-background:new 0 0 45 45" id="svg2" version="1.1" viewBox="0 0 45 45" xml:space="preserve"><metadata id="metadata8"/><defs id="defs6"><clipPath id="clipPath16" clipPathUnits="userSpaceOnUse"><path id="path18" d="M 0,36 36,36 36,0 0,0 0,36 Z"/></clipPath></defs><g id="g10" transform="matrix(1.25,0,0,-1.25,0,45)"><g id="g12"><g id="g14" clip-path="url(#clipPath16)"><g id="g20" transform="translate(2.3799,2.8401)"><path id="path22" d="M 0,0 0,0 C -0.512,0.324 1.13,3.04 1.453,3.577 L 17.659,31.38 c 0.933,1.549 1.936,1.551 2.846,0.974 l 0,0 c 0.91,-0.576 1.337,-1.484 0.334,-2.99 L 2.703,2.91 C 2.356,2.388 0.512,-0.324 0,0" style="fill:#c1694f;fill-opacity:1;fill-rule:nonzero;stroke:none"/></g><g id="g24" transform="translate(22.8851,35.1946)"><path id="path26" d="m 0,0 c -0.91,0.577 -1.913,0.575 -2.846,-0.974 l -3.357,-5.759 c 0.336,-0.92 1.924,-1.75 2.901,-1.561 L 0.334,-2.99 C 1.336,-1.485 0.91,-0.577 0,0" style="fill:#662113;fill-opacity:1;fill-rule:nonzero;stroke:none"/></g><g id="g28" transform="translate(5.5837,0.8019)"><path id="path30" d="m 0,0 0,0 c -0.414,0.443 1.885,2.593 2.333,3.031 l 22.649,22.9 c 1.293,1.265 2.265,1.014 3.001,0.227 l 0,0 c 0.735,-0.787 0.92,-1.773 -0.429,-2.978 L 2.958,1.868 C 2.491,1.451 0.414,-0.443 0,0" style="fill:#c1694f;fill-opacity:1;fill-rule:nonzero;stroke:none"/></g><g id="g32" transform="translate(33.5662,26.9601)"><path id="path34" d="m 0,0 c -0.736,0.787 -1.707,1.037 -3,-0.227 l -4.576,-4.627 c 0.057,-0.93 1.498,-2.183 2.376,-2.259 l 4.771,4.135 C 0.92,-1.773 0.736,-0.787 0,0" style="fill:#662113;fill-opacity:1;fill-rule:nonzero;stroke:none"/></g></g></g></g></svg>