<svg xmlns="http://www.w3.org/2000/svg" xmlns:svg="http://www.w3.org/2000/svg" style="enable-background:new 0 0 45 45" id="svg2" version="1.1" viewBox="0 0 45 45" xml:space="preserve"><metadata id="metadata8"/><defs id="defs6"><clipPath id="clipPath16" clipPathUnits="userSpaceOnUse"><path id="path18" d="M 0,36 36,36 36,0 0,0 0,36 Z"/></clipPath></defs><g id="g10" transform="matrix(1.25,0,0,-1.25,0,45)"><g id="g12"><g id="g14" clip-path="url(#clipPath16)"><g id="g20" transform="translate(18,25)"><path id="path22" d="m 0,0 c -9,0 -17,-3.461 -17,-9 0,-4.154 4,-7.615 10,-7.615 3.454,0 7.111,2.085 9.727,2.085 0.092,0 0.183,-0.003 0.273,-0.008 3.909,-0.235 4,-3.462 9,-3.462 2.341,0 5,2.077 5,6.923 C 17,-4.846 10,0 0,0" style="fill:#ffd983;fill-opacity:1;fill-rule:nonzero;stroke:none"/></g><path id="path24" d="m 33,18 2,0 0,-4 -2,0 0,4 z" style="fill:#ffd983;fill-opacity:1;fill-rule:nonzero;stroke:none"/><path id="path26" d="m 1,20 2,0 0,-4 -2,0 0,4 z" style="fill:#ffd983;fill-opacity:1;fill-rule:nonzero;stroke:none"/><g id="g28" transform="translate(30,11.6924)"><path id="path30" d="m 0,0 c -2.27,0 -3.282,0.755 -4.455,1.628 -1.069,0.797 -2.281,1.699 -4.458,1.831 -0.119,0.007 -0.238,0.011 -0.36,0.011 -1.433,0 -2.978,-0.484 -4.614,-0.996 -1.712,-0.535 -3.481,-1.089 -5.113,-1.089 -5.215,0 -9,2.912 -9,6.923 0,5.396 8.244,8.307 16,8.307 9.271,0 16,-4.367 16,-10.385 C 4,1.659 1.607,0 0,0" style="fill:#a0041e;fill-opacity:1;fill-rule:nonzero;stroke:none"/></g><g id="g32" transform="translate(18,29)"><path id="path34" d="m 0,0 c -9,0 -17,-3.461 -17,-9 0,-4.154 4,-7.615 10,-7.615 3.454,0 7.111,2.085 9.727,2.085 0.092,0 0.183,-0.003 0.273,-0.008 3.909,-0.235 4,-3.462 9,-3.462 2.341,0 5,2.077 5,6.923 C 17,-4.846 10,0 0,0 m 0,-1.385 c 8.691,0 15,-4.076 15,-9.692 0,-4.144 -2.061,-5.538 -3,-5.538 -1.834,0 -2.585,0.559 -3.723,1.407 -1.132,0.844 -2.543,1.894 -5.104,2.049 -0.147,0.009 -0.295,0.014 -0.446,0.014 -1.648,0 -3.289,-0.514 -5.026,-1.057 -1.615,-0.506 -3.285,-1.028 -4.701,-1.028 -3.976,0 -8,2.14 -8,6.23 0,4.946 7.729,7.615 15,7.615" style="fill:#ffe8b6;fill-opacity:1;fill-rule:nonzero;stroke:none"/></g><g id="g36" transform="translate(16.1606,27.5571)"><path id="path38" d="m 0,0 c 0,0 2.839,0.058 4.839,-1.326 1,-0.693 0.335,-2.25 0.335,-2.25 l 1.665,-0.52 c 0,0 -0.061,0.836 3,1.385 2.251,0.404 4.542,-1.385 4.542,-1.385 0,0 -2.542,3.462 -7.542,4.154 C 1.839,0.75 0,0 0,0" style="fill:#ffe8b6;fill-opacity:1;fill-rule:nonzero;stroke:none"/></g><g id="g40" transform="translate(25,22.0771)"><path id="path42" d="m 0,0 c 0,-1.529 -1.791,-2.77 -4,-2.77 -2.209,0 -4,1.241 -4,2.77 0,1.529 1.791,2.769 4,2.769 2.209,0 4,-1.24 4,-2.769" style="fill:#e6e7e8;fill-opacity:1;fill-rule:nonzero;stroke:none"/></g><g id="g44" transform="translate(23,22.0771)"><path id="path46" d="m 0,0 c 0,-0.765 -0.895,-1.385 -2,-1.385 -1.104,0 -2,0.62 -2,1.385 0,0.765 0.896,1.384 2,1.384 1.105,0 2,-0.619 2,-1.384" style="fill:#a7a9ac;fill-opacity:1;fill-rule:nonzero;stroke:none"/></g></g></g></g></svg>