<svg xmlns="http://www.w3.org/2000/svg" xmlns:svg="http://www.w3.org/2000/svg" style="enable-background:new 0 0 45 45" id="svg2" version="1.1" viewBox="0 0 45 45" xml:space="preserve"><metadata id="metadata8"/><defs id="defs6"><clipPath id="clipPath16" clipPathUnits="userSpaceOnUse"><path id="path18" d="M 0,36 36,36 36,0 0,0 0,36 Z"/></clipPath></defs><g id="g10" transform="matrix(1.25,0,0,-1.25,0,45)"><g id="g12"><g id="g14" clip-path="url(#clipPath16)"><g id="g20" transform="translate(16,5)"><path id="path22" d="m 0,0 c 8.837,0 16,7.163 16,16 l -32,0 C -16,7.163 -8.836,0 0,0" style="fill:#a0041e;fill-opacity:1;fill-rule:nonzero;stroke:none"/></g><g id="g24" transform="translate(30.1748,21.9375)"><path id="path26" d="m 0,0 c 0,-3.831 -6.346,-6.937 -14.175,-6.937 -7.829,0 -14.175,3.106 -14.175,6.937 0,3.831 6.346,6.937 14.175,6.937 C -6.346,6.937 0,3.831 0,0" style="fill:#ccd6dd;fill-opacity:1;fill-rule:nonzero;stroke:none"/></g><g id="g28" transform="translate(32.0508,21)"><path id="path30" d="m 0,0 c 0,-4.924 -7.186,-8.917 -16.051,-8.917 -8.865,0 -16.051,3.993 -16.051,8.917 0,4.924 7.186,8.917 16.051,8.917 C -7.186,8.917 0,4.924 0,0" style="fill:#ea596e;fill-opacity:1;fill-rule:nonzero;stroke:none"/></g><g id="g32" transform="translate(30.6413,21)"><path id="path34" d="m 0,0 c 0,-4.263 -6.554,-7.719 -14.641,-7.719 -8.087,0 -14.642,3.456 -14.642,7.719 0,4.263 6.555,7.719 14.642,7.719 C -6.554,7.719 0,4.263 0,0" style="fill:#662113;fill-opacity:1;fill-rule:nonzero;stroke:none"/></g><g id="g36" transform="translate(21,18.5)"><path id="path38" d="m 0,0 c 0,-2.485 -3.582,-4.5 -8,-4.5 -4.418,0 -8,2.015 -8,4.5 0,2.485 3.582,4.5 8,4.5 4.418,0 8,-2.015 8,-4.5" style="fill:#99aab5;fill-opacity:1;fill-rule:nonzero;stroke:none"/></g><g id="g40" transform="translate(18,17)"><path id="path42" d="m 0,0 c 0,-1.381 -2.239,-2.5 -5,-2.5 -2.761,0 -5,1.119 -5,2.5 0,1.381 2.239,2.5 5,2.5 2.761,0 5,-1.119 5,-2.5" style="fill:#ccd6dd;fill-opacity:1;fill-rule:nonzero;stroke:none"/></g><g id="g44" transform="translate(18.4043,21.8135)"><path id="path46" d="m 0,0 c 0,0 3.07,-1.208 7.596,2.186 4,3 7,4 8,4 2,0 2,-3 0,-3 -2,0 -4,-1 -7,-3 -2.354,-1.568 -7.349,-6 -7.349,-6 L 0,0 Z" style="fill:#99aab5;fill-opacity:1;fill-rule:nonzero;stroke:none"/></g></g></g></g></svg>