<svg xmlns="http://www.w3.org/2000/svg" xmlns:svg="http://www.w3.org/2000/svg" style="enable-background:new 0 0 45 45" id="svg2" version="1.1" viewBox="0 0 45 45" xml:space="preserve"><metadata id="metadata8"/><defs id="defs6"><clipPath id="clipPath24" clipPathUnits="userSpaceOnUse"><path id="path26" d="M 0,36 36,36 36,0 0,0 0,36 Z"/></clipPath></defs><g id="g10" transform="matrix(1.25,0,0,-1.25,0,45)"><g id="g12" transform="translate(1.9998,28.9998)"><path id="path14" d="M 0,0 3.001,-29 29,-29 32,0 0,0 Z" style="fill:#e1e8ed;fill-opacity:1;fill-rule:nonzero;stroke:none"/></g><g id="g16" transform="translate(1.9998,28.9998)"><path id="path18" d="m 0,0 3.001,-29 10,0 -1,29 L 0,0 Z" style="fill:#99aab5;fill-opacity:1;fill-rule:nonzero;stroke:none"/></g><g id="g20"><g id="g22" clip-path="url(#clipPath24)"><g id="g28" transform="translate(34.9014,35.4331)"><path id="path30" d="m 0,0 c -0.167,0.347 -0.517,0.567 -0.901,0.567 l -18,0 c -0.304,0 -0.592,-0.138 -0.781,-0.376 l -5.78,-6.624 2.561,0 4.48,5 15.439,0 -6.701,-8.376 c -0.344,-0.431 -0.274,-1.06 0.157,-1.405 0.184,-0.147 0.405,-0.219 0.624,-0.219 0.294,0 0.584,0.128 0.782,0.375 l 8,10 C 0.12,-0.758 0.166,-0.346 0,0" style="fill:#66757f;fill-opacity:1;fill-rule:nonzero;stroke:none"/></g><g id="g32" transform="translate(30.4949,4)"><path id="path34" d="m 0,0 -14,0 2.16,3 10,0 L 0,0 Z" style="fill:#dd2e44;fill-opacity:1;fill-rule:nonzero;stroke:none"/></g><g id="g36" transform="translate(27.4219,8)"><path id="path38" d="m 0,0 -7.429,0 0.768,1 6,0 L 0,0 Z" style="fill:#dd2e44;fill-opacity:1;fill-rule:nonzero;stroke:none"/></g><g id="g40" transform="translate(28.8139,10)"><path id="path42" d="m 0,0 -10,0 2.16,3 6,0 L 0,0 Z" style="fill:#dd2e44;fill-opacity:1;fill-rule:nonzero;stroke:none"/></g><g id="g44" transform="translate(27.0266,14)"><path id="path46" d="m 0,0 -6,0 1.053,1 4,0 L 0,0 Z" style="fill:#dd2e44;fill-opacity:1;fill-rule:nonzero;stroke:none"/></g><g id="g48" transform="translate(27.1329,16)"><path id="path50" d="m 0,0 -6,0 2.16,3 2,0 L 0,0 Z" style="fill:#dd2e44;fill-opacity:1;fill-rule:nonzero;stroke:none"/></g><g id="g52" transform="translate(25.3456,20)"><path id="path54" d="M 0,0 -2,0 -0.84,3 0,0 Z" style="fill:#dd2e44;fill-opacity:1;fill-rule:nonzero;stroke:none"/></g><g id="g56" transform="translate(14.0077,4)"><path id="path58" d="M 0,0 -8.839,0 -7.895,3 -1.581,3 0,0 Z" style="fill:#be1931;fill-opacity:1;fill-rule:nonzero;stroke:none"/></g><g id="g60" transform="translate(11.5089,8)"><path id="path62" d="M 0,0 -4.69,0 -4.345,1 -0.557,1 0,0 Z" style="fill:#be1931;fill-opacity:1;fill-rule:nonzero;stroke:none"/></g><g id="g64" transform="translate(12.1085,10)"><path id="path66" d="M 0,0 -6.314,0 -5.369,3 -1.581,3 0,0 Z" style="fill:#be1931;fill-opacity:1;fill-rule:nonzero;stroke:none"/></g><g id="g68" transform="translate(10.4215,14)"><path id="path70" d="M 0,0 -3.788,0 -3.263,1 -0.737,1 0,0 Z" style="fill:#be1931;fill-opacity:1;fill-rule:nonzero;stroke:none"/></g><g id="g72" transform="translate(10.2093,16)"><path id="path74" d="M 0,0 -3.788,0 -2.844,3 -1.581,3 0,0 Z" style="fill:#be1931;fill-opacity:1;fill-rule:nonzero;stroke:none"/></g><g id="g76" transform="translate(8.5223,20)"><path id="path78" d="M 0,0 -1.263,0 -0.95,3 0,0 Z" style="fill:#be1931;fill-opacity:1;fill-rule:nonzero;stroke:none"/></g></g></g></g></svg>