<svg xmlns="http://www.w3.org/2000/svg" xmlns:svg="http://www.w3.org/2000/svg" style="enable-background:new 0 0 45 45" id="svg2" version="1.1" viewBox="0 0 45 45" xml:space="preserve"><metadata id="metadata8"/><defs id="defs6"><clipPath id="clipPath16" clipPathUnits="userSpaceOnUse"><path id="path18" d="M 0,36 36,36 36,0 0,0 0,36 Z"/></clipPath></defs><g id="g10" transform="matrix(1.25,0,0,-1.25,0,45)"><g id="g12"><g id="g14" clip-path="url(#clipPath16)"><g id="g20" transform="translate(23.0129,11.6779)"><path id="path22" d="m 0,0 -5.546,5.546 -5.547,5.547 c 0,0 0.455,-11.184 -11.183,-14.093 0,0 1.033,-2.487 3.365,-4.819 2.331,-2.332 4.818,-3.364 4.818,-3.364 C -11.183,0.455 0,0 0,0" style="fill:#77b255;fill-opacity:1;fill-rule:nonzero;stroke:none"/></g><g id="g24" transform="translate(13.8298,19.4063)"><path id="path26" d="m 0,0 c -0.727,-3.637 -5.092,-9.456 -5.092,-9.456 0,0 5.819,5.819 8.729,8.729 C 6.546,2.182 0,0 0,0" style="fill:#5c913b;fill-opacity:1;fill-rule:nonzero;stroke:none"/></g><g id="g28" transform="translate(26.195,12.86)"><path id="path30" d="m 0,0 c 0,0 -10.91,-0.727 -17.457,-5.819 8.001,8.001 11.638,8.728 11.638,8.728 L 0,0 Z" style="fill:#5c913b;fill-opacity:1;fill-rule:nonzero;stroke:none"/></g><g id="g32" transform="translate(30.1557,7.8083)"><path id="path34" d="m 0,0 c 0.667,-0.045 1.348,0.178 1.858,0.688 0.938,0.937 0.938,2.457 0,3.394 C 1.773,4.167 1.678,4.236 1.584,4.306 1.995,4.407 2.386,4.61 2.707,4.93 3.018,5.241 3.215,5.618 3.32,6.014 c 0.396,0.105 0.773,0.303 1.084,0.614 0.937,0.937 0.937,2.457 0,3.394 0.937,0.937 0.937,2.457 0,3.394 -0.352,0.352 -0.786,0.572 -1.241,0.66 0.43,0.893 0.285,1.994 -0.456,2.735 -0.321,0.321 -0.712,0.523 -1.123,0.624 0.094,0.07 0.189,0.139 0.274,0.224 0.938,0.938 0.938,2.457 0,3.395 -0.741,0.74 -1.841,0.886 -2.735,0.456 -0.087,0.455 -0.307,0.889 -0.659,1.241 -0.51,0.51 -1.191,0.732 -1.858,0.687 0.044,0.667 -0.178,1.349 -0.688,1.859 -0.937,0.937 -2.457,0.937 -3.394,0 -0.741,0.74 -1.842,0.886 -2.735,0.456 -0.088,0.455 -0.308,0.889 -0.66,1.241 -0.937,0.937 -2.457,0.937 -3.394,0 -0.352,-0.352 -0.572,-0.786 -0.659,-1.241 -0.894,0.43 -1.995,0.284 -2.735,-0.456 -0.321,-0.321 -0.524,-0.712 -0.625,-1.123 -0.07,0.094 -0.139,0.189 -0.224,0.274 -0.937,0.937 -2.457,0.937 -3.394,0 -0.741,-0.741 -0.887,-1.842 -0.457,-2.735 -0.454,-0.088 -0.888,-0.307 -1.24,-0.659 -0.938,-0.938 -0.938,-2.457 0,-3.395 0.32,-0.321 0.712,-0.523 1.122,-0.624 -0.094,-0.07 -0.189,-0.139 -0.274,-0.224 -0.937,-0.938 -0.937,-2.457 0,-3.395 0.352,-0.352 0.786,-0.571 1.241,-0.659 -0.43,-0.893 -0.284,-1.994 0.456,-2.735 0.741,-0.741 1.842,-0.887 2.735,-0.456 0.088,-0.455 0.308,-0.889 0.66,-1.241 0.321,-0.321 0.712,-0.524 1.122,-0.625 -0.094,-0.07 -0.188,-0.138 -0.274,-0.224 -0.937,-0.937 -0.937,-2.457 0,-3.394 0.741,-0.741 1.842,-0.887 2.735,-0.456 0.088,-0.455 0.308,-0.889 0.66,-1.241 0.635,-0.636 1.537,-0.83 2.345,-0.603 0.064,-0.084 0.124,-0.169 0.2,-0.246 0.51,-0.51 1.192,-0.732 1.859,-0.687 -0.045,-0.667 0.177,-1.349 0.687,-1.859 0.937,-0.937 2.457,-0.937 3.395,0 0.085,0.086 0.154,0.18 0.223,0.274 0.102,-0.41 0.304,-0.801 0.625,-1.122 0.937,-0.938 2.457,-0.938 3.394,0 C -0.178,-1.348 0.045,-0.667 0,0" style="fill:#3e721d;fill-opacity:1;fill-rule:nonzero;stroke:none"/></g><g id="g36" transform="translate(12.0114,29.2257)"><path id="path38" d="m 0,0 c -0.603,-0.603 -1.58,-0.603 -2.182,0 -0.603,0.603 -0.603,1.58 0,2.182 0.602,0.603 1.579,0.603 2.182,0 C 0.603,1.58 0.603,0.603 0,0" style="fill:#5c913b;fill-opacity:1;fill-rule:nonzero;stroke:none"/></g><g id="g40" transform="translate(16.3756,29.2257)"><path id="path42" d="m 0,0 c -0.603,-0.603 -1.58,-0.603 -2.182,0 -0.603,0.603 -0.603,1.58 0,2.182 0.602,0.603 1.579,0.603 2.182,0 C 0.603,1.58 0.603,0.603 0,0" style="fill:#5c913b;fill-opacity:1;fill-rule:nonzero;stroke:none"/></g><g id="g44" transform="translate(19.2851,32.1351)"><path id="path46" d="m 0,0 c -0.603,-0.603 -1.58,-0.603 -2.182,0 -0.603,0.603 -0.603,1.58 0,2.182 0.602,0.603 1.579,0.603 2.182,0 C 0.603,1.58 0.603,0.603 0,0" style="fill:#5c913b;fill-opacity:1;fill-rule:nonzero;stroke:none"/></g><g id="g48" transform="translate(22.9219,29.9531)"><path id="path50" d="m 0,0 c -0.603,-0.603 -1.58,-0.603 -2.182,0 -0.603,0.603 -0.603,1.58 0,2.182 0.602,0.603 1.579,0.603 2.182,0 C 0.603,1.58 0.603,0.603 0,0" style="fill:#5c913b;fill-opacity:1;fill-rule:nonzero;stroke:none"/></g><g id="g52" transform="translate(25.8313,29.9531)"><path id="path54" d="m 0,0 c -0.603,-0.603 -1.58,-0.603 -2.182,0 -0.603,0.603 -0.603,1.58 0,2.182 0.602,0.603 1.579,0.603 2.182,0 C 0.603,1.58 0.603,0.603 0,0" style="fill:#5c913b;fill-opacity:1;fill-rule:nonzero;stroke:none"/></g><g id="g56" transform="translate(26.5587,27.771)"><path id="path58" d="m 0,0 c -0.603,-0.603 -1.58,-0.603 -2.182,0 -0.603,0.603 -0.603,1.58 0,2.182 0.602,0.603 1.579,0.603 2.182,0 C 0.603,1.58 0.603,0.603 0,0" style="fill:#5c913b;fill-opacity:1;fill-rule:nonzero;stroke:none"/></g><g id="g60" transform="translate(28.7408,27.0436)"><path id="path62" d="m 0,0 c -0.603,-0.603 -1.58,-0.603 -2.182,0 -0.603,0.603 -0.603,1.58 0,2.182 0.602,0.603 1.579,0.603 2.182,0 C 0.603,1.58 0.603,0.603 0,0" style="fill:#5c913b;fill-opacity:1;fill-rule:nonzero;stroke:none"/></g><g id="g64" transform="translate(31.6502,25.5889)"><path id="path66" d="m 0,0 c -0.603,-0.603 -1.58,-0.603 -2.182,0 -0.603,0.603 -0.603,1.58 0,2.182 0.602,0.603 1.579,0.603 2.182,0 C 0.603,1.58 0.603,0.603 0,0" style="fill:#5c913b;fill-opacity:1;fill-rule:nonzero;stroke:none"/></g><g id="g68" transform="translate(30.9229,23.4068)"><path id="path70" d="m 0,0 c -0.603,-0.603 -1.58,-0.603 -2.182,0 -0.603,0.603 -0.603,1.58 0,2.182 0.602,0.603 1.579,0.603 2.182,0 C 0.603,1.58 0.603,0.603 0,0" style="fill:#5c913b;fill-opacity:1;fill-rule:nonzero;stroke:none"/></g><g id="g72" transform="translate(33.105,19.77)"><path id="path74" d="m 0,0 c -0.603,-0.603 -1.58,-0.603 -2.182,0 -0.603,0.603 -0.603,1.58 0,2.182 0.602,0.603 1.579,0.603 2.182,0 C 0.603,1.58 0.603,0.603 0,0" style="fill:#5c913b;fill-opacity:1;fill-rule:nonzero;stroke:none"/></g><g id="g76" transform="translate(33.8323,16.1332)"><path id="path78" d="m 0,0 c -0.603,-0.603 -1.58,-0.603 -2.182,0 -0.603,0.603 -0.603,1.58 0,2.182 0.602,0.603 1.579,0.603 2.182,0 C 0.603,1.58 0.603,0.603 0,0" style="fill:#5c913b;fill-opacity:1;fill-rule:nonzero;stroke:none"/></g><g id="g80" transform="translate(28.0134,23.4068)"><path id="path82" d="m 0,0 c -0.603,-0.603 -1.58,-0.603 -2.182,0 -0.603,0.603 -0.603,1.58 0,2.182 0.602,0.603 1.579,0.603 2.182,0 C 0.603,1.58 0.603,0.603 0,0" style="fill:#5c913b;fill-opacity:1;fill-rule:nonzero;stroke:none"/></g><g id="g84" transform="translate(25.104,26.3163)"><path id="path86" d="m 0,0 c -0.603,-0.603 -1.58,-0.603 -2.182,0 -0.603,0.603 -0.603,1.58 0,2.182 0.602,0.603 1.579,0.603 2.182,0 C 0.603,1.58 0.603,0.603 0,0" style="fill:#5c913b;fill-opacity:1;fill-rule:nonzero;stroke:none"/></g><g id="g88" transform="translate(21.4672,28.4983)"><path id="path90" d="m 0,0 c -0.603,-0.603 -1.58,-0.603 -2.182,0 -0.603,0.603 -0.603,1.58 0,2.182 0.602,0.603 1.579,0.603 2.182,0 C 0.603,1.58 0.603,0.603 0,0" style="fill:#5c913b;fill-opacity:1;fill-rule:nonzero;stroke:none"/></g><g id="g92" transform="translate(17.103,27.0436)"><path id="path94" d="m 0,0 c -0.603,-0.603 -1.58,-0.603 -2.182,0 -0.603,0.603 -0.603,1.58 0,2.182 0.602,0.603 1.579,0.603 2.182,0 C 0.603,1.58 0.603,0.603 0,0" style="fill:#5c913b;fill-opacity:1;fill-rule:nonzero;stroke:none"/></g><g id="g96" transform="translate(18.5577,28.4983)"><path id="path98" d="m 0,0 c -0.603,-0.603 -1.58,-0.603 -2.182,0 -0.603,0.603 -0.603,1.58 0,2.182 0.602,0.603 1.579,0.603 2.182,0 C 0.603,1.58 0.603,0.603 0,0" style="fill:#5c913b;fill-opacity:1;fill-rule:nonzero;stroke:none"/></g><g id="g100" transform="translate(14.1935,25.5889)"><path id="path102" d="m 0,0 c -0.603,-0.603 -1.58,-0.603 -2.182,0 -0.603,0.603 -0.603,1.58 0,2.182 0.602,0.603 1.579,0.603 2.182,0 C 0.603,1.58 0.603,0.603 0,0" style="fill:#5c913b;fill-opacity:1;fill-rule:nonzero;stroke:none"/></g><g id="g104" transform="translate(21.4672,24.1342)"><path id="path106" d="m 0,0 c -0.603,-0.603 -1.58,-0.603 -2.182,0 -0.603,0.603 -0.603,1.58 0,2.182 0.602,0.603 1.579,0.603 2.182,0 C 0.603,1.58 0.603,0.603 0,0" style="fill:#5c913b;fill-opacity:1;fill-rule:nonzero;stroke:none"/></g><g id="g108" transform="translate(26.5587,19.0426)"><path id="path110" d="m 0,0 c -0.603,-0.603 -1.58,-0.603 -2.182,0 -0.603,0.603 -0.603,1.58 0,2.182 0.602,0.603 1.579,0.603 2.182,0 C 0.603,1.58 0.603,0.603 0,0" style="fill:#5c913b;fill-opacity:1;fill-rule:nonzero;stroke:none"/></g><g id="g112" transform="translate(28.0134,14.6784)"><path id="path114" d="m 0,0 c -0.603,-0.603 -1.58,-0.603 -2.182,0 -0.603,0.603 -0.603,1.58 0,2.182 0.602,0.603 1.579,0.603 2.182,0 C 0.603,1.58 0.603,0.603 0,0" style="fill:#5c913b;fill-opacity:1;fill-rule:nonzero;stroke:none"/></g></g></g></g></svg>