<svg xmlns="http://www.w3.org/2000/svg" xmlns:svg="http://www.w3.org/2000/svg" style="enable-background:new 0 0 45 45" id="svg2" version="1.1" viewBox="0 0 45 45" xml:space="preserve"><metadata id="metadata8"/><defs id="defs6"><clipPath id="clipPath16" clipPathUnits="userSpaceOnUse"><path id="path18" d="M 0,36 36,36 36,0 0,0 0,36 Z"/></clipPath></defs><g id="g10" transform="matrix(1.25,0,0,-1.25,0,45)"><g id="g12"><g id="g14" clip-path="url(#clipPath16)"><g id="g20" transform="translate(30.0003,3.5003)"><path id="path22" d="m 0,0 c 0,-1.933 -5.373,-3.5 -12,-3.5 -6.628,0 -12,1.567 -12,3.5 0,1.932 5.372,3.5 12,3.5 C -5.373,3.5 0,1.932 0,0" style="fill:#99aab5;fill-opacity:1;fill-rule:nonzero;stroke:none"/></g><path id="path24" d="m 30,3.5 -24,0 0,1 24,0 0,-1 z" style="fill:#99aab5;fill-opacity:1;fill-rule:nonzero;stroke:none"/><g id="g26" transform="translate(30.0003,4.4997)"><path id="path28" d="m 0,0 c 0,-1.932 -5.373,-3.5 -12,-3.5 -6.628,0 -12,1.568 -12,3.5 0,1.933 5.372,3.5 12,3.5 C -5.373,3.5 0,1.933 0,0" style="fill:#e6e7e8;fill-opacity:1;fill-rule:nonzero;stroke:none"/></g><g id="g30" transform="translate(29.0003,4.9997)"><path id="path32" d="m 0,0 c 0,-1.656 -4.926,-3 -11,-3 -6.076,0 -11,1.344 -11,3 0,1.657 4.924,3 11,3 C -4.926,3 0,1.657 0,0" style="fill:#5c913b;fill-opacity:1;fill-rule:nonzero;stroke:none"/></g><path id="path34" d="M 29,28 7,28 7,5 29,5 29,28 Z" style="fill:#5c913b;fill-opacity:1;fill-rule:nonzero;stroke:none"/><g id="g36" transform="translate(29,12.9996)"><path id="path38" d="m 0,0 c 0,-1.933 -4.926,-3.5 -11,-3.5 -6.076,0 -11,1.567 -11,3.5 0,1.933 4.924,3.5 11,3.5 C -4.926,3.5 0,1.933 0,0" style="fill:#a6d388;fill-opacity:1;fill-rule:nonzero;stroke:none"/></g><path id="path40" d="M 29,26 7,26 7,13 29,13 29,26 Z" style="fill:#a6d388;fill-opacity:1;fill-rule:nonzero;stroke:none"/><g id="g42" transform="translate(29,21.9996)"><path id="path44" d="m 0,0 c 0,-1.932 -4.926,-3.5 -11,-3.5 -6.075,0 -10.999,1.568 -10.999,3.5 0,1.933 4.924,3.5 10.999,3.5 C -4.926,3.5 0,1.933 0,0" style="fill:#5c913b;fill-opacity:1;fill-rule:nonzero;stroke:none"/></g><path id="path46" d="M 29,32 7,32 7,22 29,22 29,32 Z" style="fill:#5c913b;fill-opacity:1;fill-rule:nonzero;stroke:none"/><g id="g48" transform="translate(30.0003,31.5003)"><path id="path50" d="m 0,0 c 0,-1.933 -5.373,-3.5 -12,-3.5 -6.628,0 -12,1.567 -12,3.5 0,1.932 5.372,3.5 12,3.5 C -5.373,3.5 0,1.932 0,0" style="fill:#99aab5;fill-opacity:1;fill-rule:nonzero;stroke:none"/></g><path id="path52" d="m 30,31.5 -24,0 0,1 24,0 0,-1 z" style="fill:#99aab5;fill-opacity:1;fill-rule:nonzero;stroke:none"/><g id="g54" transform="translate(30.0003,32.4997)"><path id="path56" d="m 0,0 c 0,-1.932 -5.373,-3.5 -12,-3.5 -6.628,0 -12,1.568 -12,3.5 0,1.933 5.372,3.5 12,3.5 C -5.373,3.5 0,1.933 0,0" style="fill:#e6e7e8;fill-opacity:1;fill-rule:nonzero;stroke:none"/></g><g id="g58" transform="translate(28.2498,32.5)"><path id="path60" d="m 0,0 c 0,-1.381 -4.588,-2.5 -10.25,-2.5 -5.662,0 -10.25,1.119 -10.25,2.5 0,1.381 4.588,2.5 10.25,2.5 C -4.588,2.5 0,1.381 0,0" style="fill:#ccd6dd;fill-opacity:1;fill-rule:nonzero;stroke:none"/></g><g id="g62" transform="translate(27.2498,32.5)"><path id="path64" d="m 0,0 c 0,-1.105 -4.14,-2 -9.25,-2 -5.109,0 -9.25,0.895 -9.25,2 0,1.105 4.141,2 9.25,2 C -4.14,2 0,1.105 0,0" style="fill:#e6e7e8;fill-opacity:1;fill-rule:nonzero;stroke:none"/></g><g id="g66" transform="translate(23.9998,32.5)"><path id="path68" d="m 0,0 c 0,-0.69 -2.686,-1.25 -6,-1.25 -3.314,0 -6,0.56 -6,1.25 0,0.69 2.686,1.25 6,1.25 3.314,0 6,-0.56 6,-1.25" style="fill:#ccd6dd;fill-opacity:1;fill-rule:nonzero;stroke:none"/></g><g id="g70" transform="translate(22.7498,32.5)"><path id="path72" d="m 0,0 c 0,-0.414 -2.126,-0.75 -4.75,-0.75 -2.624,0 -4.75,0.336 -4.75,0.75 0,0.414 2.126,0.75 4.75,0.75 C -2.126,0.75 0,0.414 0,0" style="fill:#e6e7e8;fill-opacity:1;fill-rule:nonzero;stroke:none"/></g><g id="g74" transform="translate(25,15.0003)"><path id="path76" d="m 0,0 c 0,-4.142 -3.134,-7.5 -7,-7.5 -3.866,0 -7,3.358 -7,7.5 0,4.142 3.134,7.5 7,7.5 3.866,0 7,-3.358 7,-7.5" style="fill:#ffcc4d;fill-opacity:1;fill-rule:nonzero;stroke:none"/></g><g id="g78" transform="translate(23,15.0002)"><path id="path80" d="m 0,0 c 0,-3.156 -2.238,-5.714 -5,-5.714 -2.762,0 -5,2.558 -5,5.714 0,3.156 2.238,5.714 5,5.714 2.762,0 5,-2.558 5,-5.714" style="fill:#ffac33;fill-opacity:1;fill-rule:nonzero;stroke:none"/></g></g></g></g></svg>