<svg xmlns="http://www.w3.org/2000/svg" xmlns:svg="http://www.w3.org/2000/svg" style="enable-background:new 0 0 45 45" id="svg2" version="1.1" viewBox="0 0 45 45" xml:space="preserve"><metadata id="metadata8"/><defs id="defs6"><clipPath id="clipPath16" clipPathUnits="userSpaceOnUse"><path id="path18" d="M 0,36 36,36 36,0 0,0 0,36 Z"/></clipPath></defs><g id="g10" transform="matrix(1.25,0,0,-1.25,0,45)"><g id="g12"><g id="g14" clip-path="url(#clipPath16)"><g id="g20" transform="translate(23,15)"><path id="path22" d="m 0,0 c 0,-6.352 -3,-10 -5,-10 -2,0 -5,3.648 -5,10 0,6.352 2.239,7 5,7 2.762,0 5,-0.648 5,-7" style="fill:#66757f;fill-opacity:1;fill-rule:nonzero;stroke:none"/></g><g id="g24" transform="translate(22,25)"><path id="path26" d="m 0,0 c 0,-3.313 -0.686,-4 -4,-4 -3.314,0 -4,0.687 -4,4 0,3.314 0.686,4 4,4 3.314,0 4,-0.686 4,-4" style="fill:#66757f;fill-opacity:1;fill-rule:nonzero;stroke:none"/></g><g id="g28" transform="translate(14,25)"><path id="path30" d="M 0,0 C -2,5 1,7 1,7 1,7 3,6 3,3 3,0 0,0 0,0" style="fill:#66757f;fill-opacity:1;fill-rule:nonzero;stroke:none"/></g><g id="g32" transform="translate(14.6685,26.0962)"><path id="path34" d="M 0,0 C -0.776,2.457 -0.119,3.895 0.403,4.58 0.818,4.131 1.331,3.295 1.331,1.904 1.331,0.636 0.592,0.17 0,0" style="fill:#546066;fill-opacity:1;fill-rule:nonzero;stroke:none"/></g><g id="g36" transform="translate(22,25)"><path id="path38" d="M 0,0 C 2,5 -1,7 -1,7 -1,7 -3,6 -3,3 -3,0 0,0 0,0" style="fill:#66757f;fill-opacity:1;fill-rule:nonzero;stroke:none"/></g><g id="g40" transform="translate(16.0156,22)"><path id="path42" d="m 0,0 c -1.62,-1.157 -10,-2 -9,5 0.142,0.99 -1,1 -2,0 -3,-3 -6,-7.834 -4,-20 3,5 6,4 7,-1 3,4 6,2 8,0 3,3 0,16 0,16" style="fill:#66757f;fill-opacity:1;fill-rule:nonzero;stroke:none"/></g><g id="g44" transform="translate(19.9531,22)"><path id="path46" d="m 0,0 c 1.62,-1.157 10,-2 9,5 -0.142,0.99 1,1 2,0 3,-3 6,-7.834 4,-20 -3,5 -6,4 -7,-1 -3,4 -6,2 -8,0 -3,3 0,16 0,16" style="fill:#66757f;fill-opacity:1;fill-rule:nonzero;stroke:none"/></g><g id="g48" transform="translate(17,25)"><path id="path50" d="m 0,0 c 0,-0.552 -0.448,-1 -1,-1 -0.552,0 -1,0.448 -1,1 0,0.552 0.448,1 1,1 0.552,0 1,-0.448 1,-1" style="fill:#292f33;fill-opacity:1;fill-rule:nonzero;stroke:none"/></g><g id="g52" transform="translate(21,25)"><path id="path54" d="m 0,0 c 0,-0.552 -0.447,-1 -1,-1 -0.553,0 -1,0.448 -1,1 0,0.552 0.447,1 1,1 0.553,0 1,-0.448 1,-1" style="fill:#292f33;fill-opacity:1;fill-rule:nonzero;stroke:none"/></g><g id="g56" transform="translate(21.332,26.0962)"><path id="path58" d="M 0,0 C 0.775,2.457 0.118,3.895 -0.403,4.58 -0.818,4.131 -1.332,3.295 -1.332,1.904 -1.332,0.636 -0.593,0.17 0,0" style="fill:#546066;fill-opacity:1;fill-rule:nonzero;stroke:none"/></g><g id="g60" transform="translate(7.9961,9.0898)"><path id="path62" d="m 0,0 c 0.892,2.691 0.573,5.988 -0.996,9.91 -1.487,3.719 -1.316,6.329 -1.129,7.423 -0.049,-0.041 -0.097,-0.078 -0.148,-0.13 C -4.979,14.497 -7.519,10.379 -6.336,0.475 -5.06,1.854 -3.924,2.197 -3.109,2.197 -1.843,2.197 -0.775,1.414 0,0" style="fill:#99aab5;fill-opacity:1;fill-rule:nonzero;stroke:none"/></g><g id="g64" transform="translate(6.8315,22.7495)"><path id="path66" d="m 0,0 c -0.019,0.03 -0.041,0.058 -0.06,0.087 0.228,-2.836 1.629,-3.838 2.228,-6.836 0.588,-2.94 0.477,-5.519 0.088,-7.565 0.84,0.571 1.726,0.874 2.657,0.874 1.264,0 2.547,-0.538 3.895,-1.627 C 7.168,-5.749 2.168,-3.749 0,0" style="fill:#99aab5;fill-opacity:1;fill-rule:nonzero;stroke:none"/></g><g id="g68" transform="translate(28.0039,9.0898)"><path id="path70" d="m 0,0 c -0.893,2.691 -0.572,5.988 0.996,9.91 1.487,3.719 1.315,6.329 1.129,7.423 0.049,-0.041 0.097,-0.078 0.148,-0.13 C 4.979,14.497 7.52,10.379 6.336,0.475 5.061,1.854 3.924,2.197 3.109,2.197 1.843,2.197 0.775,1.414 0,0" style="fill:#99aab5;fill-opacity:1;fill-rule:nonzero;stroke:none"/></g><g id="g72" transform="translate(29.168,22.7495)"><path id="path74" d="m 0,0 c 0.02,0.03 0.041,0.058 0.061,0.087 -0.229,-2.836 -1.629,-3.838 -2.229,-6.836 -0.588,-2.94 -0.477,-5.519 -0.088,-7.565 -0.84,0.571 -1.725,0.874 -2.656,0.874 -1.264,0 -2.548,-0.538 -3.895,-1.627 C -7.168,-5.749 -2.168,-3.749 0,0" style="fill:#99aab5;fill-opacity:1;fill-rule:nonzero;stroke:none"/></g><g id="g76" transform="translate(18.6875,22.894)"><path id="path78" d="m 0,0 c -0.378,-0.378 -0.998,-0.378 -1.376,0 l -0.569,0.571 c -0.379,0.378 -0.25,0.687 0.285,0.687 l 1.945,0 C 0.82,1.258 0.949,0.949 0.57,0.571 L 0,0 Z" style="fill:#99aab5;fill-opacity:1;fill-rule:nonzero;stroke:none"/></g></g></g></g></svg>