<svg xmlns="http://www.w3.org/2000/svg" xmlns:svg="http://www.w3.org/2000/svg" style="enable-background:new 0 0 45 45" id="svg2" version="1.1" viewBox="0 0 45 45" xml:space="preserve"><metadata id="metadata8"/><defs id="defs6"><clipPath id="clipPath16" clipPathUnits="userSpaceOnUse"><path id="path18" d="M 0,36 36,36 36,0 0,0 0,36 Z"/></clipPath></defs><g id="g10" transform="matrix(1.25,0,0,-1.25,0,45)"><g id="g12"><g id="g14" clip-path="url(#clipPath16)"><g id="g20" transform="translate(32.3252,25.0415)"><path id="path22" d="M 0,0 C 0,0 2.315,-0.024 3.511,-1.177 3.175,3.794 1.407,7.072 -2.434,8.953 -5.574,10.072 -8.5,7.5 -8.5,7.5 c 0,0 0.862,1.99 2.19,2.746 -2.226,0.477 -4.869,0.712 -8.015,0.712 -3.136,0 -5.785,-0.226 -8.007,-0.7 1.342,-0.745 2.215,-2.758 2.215,-2.758 0,0 -3.014,2.656 -6.209,1.405 -3.778,-1.895 -5.518,-5.169 -5.841,-10.12 1.183,1.19 3.55,1.215 3.55,1.215 0,0 -3.813,-2.308 -3.425,-5.655 0.387,-2.947 1.394,-5.967 2.878,-8.722 -0.122,3.185 2.756,5.335 2.756,5.335 0,0 -2.492,-5.96 -0.581,-8.738 1.935,-2.542 4.313,-4.64 6.975,-5.916 -0.954,1.645 -0.135,3.044 -0.103,2.945 0.042,-0.125 0.459,-3.112 2.138,-3.743 1.178,-0.355 2.4,-0.548 3.654,-0.548 1.292,0 2.55,0.207 3.761,0.583 1.614,0.692 2.023,3.585 2.064,3.708 0.032,0.098 0.843,-1.287 -0.09,-2.92 2.706,1.308 5.118,3.463 7.065,6.073 1.698,2.846 -0.684,8.556 -0.684,8.556 0,0 2.85,-2.129 2.757,-5.288 1.556,2.907 2.585,6.105 2.911,9.2 C 3.424,-2.068 0,0 0,0" style="fill:#662113;fill-opacity:1;fill-rule:nonzero;stroke:none"/></g><g id="g24" transform="translate(13.8594,26.5049)"><path id="path26" d="m 0,0 c 0.596,-2.392 0.16,-4.422 -2.232,-5.017 -2.392,-0.596 -6.363,-0.087 -6.958,2.304 -0.596,2.392 0.469,5.39 1.811,5.724 C -6.038,3.345 -0.595,2.392 0,0" style="fill:#ffcc4d;fill-opacity:1;fill-rule:nonzero;stroke:none"/></g><g id="g28" transform="translate(22.9629,8.0732)"><path id="path30" d="m 0,0 c 0,-2.74 -2.222,-4.963 -4.963,-4.963 -2.741,0 -4.963,2.223 -4.963,4.963 0,2.741 2.222,4.964 4.963,4.964 C -2.222,4.964 0,2.741 0,0" style="fill:#ffcc4d;fill-opacity:1;fill-rule:nonzero;stroke:none"/></g><g id="g32" transform="translate(21.3086,8.0732)"><path id="path34" d="m 0,0 c 0,-1.827 -1.481,-3.309 -3.309,-3.309 -1.827,0 -3.308,1.482 -3.308,3.309 0,1.827 1.481,3.31 3.308,3.31 C -1.481,3.31 0,1.827 0,0" style="fill:#dd2e44;fill-opacity:1;fill-rule:nonzero;stroke:none"/></g><g id="g36" transform="translate(11.0518,27.0034)"><path id="path38" d="M 0,0 C 0.871,-1.393 0.447,-3.229 -0.946,-4.1 -2.339,-4.971 -3.554,-4.897 -4.424,-3.503 -5.295,-2.11 -4.61,0.627 -4.1,0.946 -3.59,1.265 -0.871,1.394 0,0" style="fill:#e6aaaa;fill-opacity:1;fill-rule:nonzero;stroke:none"/></g><g id="g40" transform="translate(22.1406,26.5049)"><path id="path42" d="M 0,0 C -0.596,-2.392 -0.159,-4.422 2.232,-5.017 4.624,-5.613 8.595,-5.104 9.191,-2.713 9.786,-0.321 8.721,2.677 7.38,3.011 6.038,3.345 0.595,2.392 0,0" style="fill:#ffcc4d;fill-opacity:1;fill-rule:nonzero;stroke:none"/></g><g id="g44" transform="translate(24.9482,27.0034)"><path id="path46" d="M 0,0 C -0.871,-1.393 -0.447,-3.229 0.945,-4.1 2.34,-4.971 3.554,-4.897 4.424,-3.503 5.295,-2.11 4.609,0.627 4.1,0.946 3.59,1.265 0.871,1.394 0,0" style="fill:#e6aaaa;fill-opacity:1;fill-rule:nonzero;stroke:none"/></g><g id="g48" transform="translate(18,28.875)"><path id="path50" d="m 0,0 0,0 -0.001,0 -0.002,0 c -12.83,-0.001 -10.872,-4.958 -9.497,-11.542 1.375,-6.583 1.884,-8.333 1.884,-8.333 l 7.613,0 0.003,0 7.612,0 c 0,0 0.51,1.75 1.885,8.333 C 10.872,-4.958 12.829,-0.001 0,0" style="fill:#ffcc4d;fill-opacity:1;fill-rule:nonzero;stroke:none"/></g><g id="g52" transform="translate(12,20)"><path id="path54" d="M 0,0 C 0,0 0,1.5 1.5,1.5 3,1.5 3,0 3,0 L 3,-1.5 C 3,-1.5 3,-3 1.5,-3 0,-3 0,-1.5 0,-1.5 L 0,0 Z" style="fill:#272b2b;fill-opacity:1;fill-rule:nonzero;stroke:none"/></g><g id="g56" transform="translate(21,20)"><path id="path58" d="M 0,0 C 0,0 0,1.5 1.5,1.5 3,1.5 3,0 3,0 L 3,-1.5 C 3,-1.5 3,-3 1.5,-3 0,-3 0,-1.5 0,-1.5 L 0,0 Z" style="fill:#272b2b;fill-opacity:1;fill-rule:nonzero;stroke:none"/></g><g id="g60" transform="translate(20.168,14.4795)"><path id="path62" d="M 0,0 C -1.598,0 -1.385,-0.848 -2.169,-2.113 -2.951,-0.848 -2.739,0 -4.337,0 c -6.865,0 -6.837,-0.375 -6.865,-2.828 -0.058,-4.987 2.802,-6.132 5.257,-6.06 1.597,0.048 2.994,0.88 3.777,2.131 0.783,-1.251 2.179,-2.083 3.776,-2.131 2.455,-0.072 5.316,1.073 5.257,6.06 C 6.837,-0.375 6.865,0 0,0" style="fill:#ffe8b6;fill-opacity:1;fill-rule:nonzero;stroke:none"/></g><g id="g64" transform="translate(14.5815,14.5889)"><path id="path66" d="M 0,0 C -1.14,-0.232 2.279,-4.431 3.419,-4.431 4.558,-4.431 7.977,-0.232 6.837,0 5.698,0.232 1.139,0.232 0,0" style="fill:#272b2b;fill-opacity:1;fill-rule:nonzero;stroke:none"/></g><g id="g68" transform="translate(12,11.5)"><path id="path70" d="M 0,0 C 0,-0.276 -0.224,-0.5 -0.5,-0.5 -0.776,-0.5 -1,-0.276 -1,0 -1,0.276 -0.776,0.5 -0.5,0.5 -0.224,0.5 0,0.276 0,0" style="fill:#d99e82;fill-opacity:1;fill-rule:nonzero;stroke:none"/></g><g id="g72" transform="translate(11,9.5)"><path id="path74" d="M 0,0 C 0,-0.276 -0.224,-0.5 -0.5,-0.5 -0.776,-0.5 -1,-0.276 -1,0 -1,0.276 -0.776,0.5 -0.5,0.5 -0.224,0.5 0,0.276 0,0" style="fill:#d99e82;fill-opacity:1;fill-rule:nonzero;stroke:none"/></g><g id="g76" transform="translate(13,8.5)"><path id="path78" d="M 0,0 C 0,-0.276 -0.224,-0.5 -0.5,-0.5 -0.776,-0.5 -1,-0.276 -1,0 -1,0.276 -0.776,0.5 -0.5,0.5 -0.224,0.5 0,0.276 0,0" style="fill:#d99e82;fill-opacity:1;fill-rule:nonzero;stroke:none"/></g><g id="g80" transform="translate(24,11.5)"><path id="path82" d="M 0,0 C 0,-0.276 0.224,-0.5 0.5,-0.5 0.776,-0.5 1,-0.276 1,0 1,0.276 0.776,0.5 0.5,0.5 0.224,0.5 0,0.276 0,0" style="fill:#d99e82;fill-opacity:1;fill-rule:nonzero;stroke:none"/></g><g id="g84" transform="translate(25,9.5)"><path id="path86" d="M 0,0 C 0,-0.276 0.224,-0.5 0.5,-0.5 0.776,-0.5 1,-0.276 1,0 1,0.276 0.776,0.5 0.5,0.5 0.224,0.5 0,0.276 0,0" style="fill:#d99e82;fill-opacity:1;fill-rule:nonzero;stroke:none"/></g><g id="g88" transform="translate(23,8.5)"><path id="path90" d="M 0,0 C 0,-0.276 0.224,-0.5 0.5,-0.5 0.776,-0.5 1,-0.276 1,0 1,0.276 0.776,0.5 0.5,0.5 0.224,0.5 0,0.276 0,0" style="fill:#d99e82;fill-opacity:1;fill-rule:nonzero;stroke:none"/></g></g></g></g></svg>