<svg xmlns="http://www.w3.org/2000/svg" xmlns:svg="http://www.w3.org/2000/svg" style="enable-background:new 0 0 45 45" id="svg2" version="1.1" viewBox="0 0 45 45" xml:space="preserve"><metadata id="metadata8"/><defs id="defs6"><clipPath id="clipPath16" clipPathUnits="userSpaceOnUse"><path id="path18" d="M 0,36 36,36 36,0 0,0 0,36 Z"/></clipPath></defs><g id="g10" transform="matrix(1.25,0,0,-1.25,0,45)"><g id="g12"><g id="g14" clip-path="url(#clipPath16)"><g id="g20" transform="translate(6.9604,15.3633)"><path id="path22" d="m 0,0 c 0.068,-0.639 -0.543,-1.228 -1.368,-1.315 -0.823,-0.089 -1.547,0.357 -1.615,0.995 -0.068,0.638 0.544,1.226 1.368,1.314 C -0.792,1.083 -0.068,0.638 0,0" style="fill:#a0041e;fill-opacity:1;fill-rule:nonzero;stroke:none"/></g><g id="g24" transform="translate(9.0469,12.6455)"><path id="path26" d="m 0,0 c 0.125,-0.818 -1.756,-2.544 -2.576,-2.669 -0.819,-0.125 -1.584,0.438 -1.708,1.257 -0.125,0.818 0.579,1.139 1.398,1.264 C -2.066,-0.023 -0.125,0.818 0,0" style="fill:#a0041e;fill-opacity:1;fill-rule:nonzero;stroke:none"/></g><g id="g28" transform="translate(10.8301,10.542)"><path id="path30" d="m 0,0 c 0.173,-0.81 -1.628,-3.927 -2.438,-4.1 -0.811,-0.173 -1.645,-0.145 -1.817,0.665 -0.173,0.81 0.305,1.688 1.115,1.862 C -2.329,-1.4 -0.173,0.81 0,0" style="fill:#a0041e;fill-opacity:1;fill-rule:nonzero;stroke:none"/></g><g id="g32" transform="translate(14.6831,9.6836)"><path id="path34" d="m 0,0 c 0.165,-0.811 -1.338,-4.354 -2.15,-4.519 -0.812,-0.165 -1.439,-0.451 -1.604,0.361 -0.165,0.811 0.261,1.974 1.006,2.58 C -2.105,-1.056 -0.165,0.812 0,0" style="fill:#a0041e;fill-opacity:1;fill-rule:nonzero;stroke:none"/></g><g id="g36" transform="translate(3.9253,17.1309)"><path id="path38" d="m 0,0 c 0.607,-0.715 1.18,-1.23 0.464,-1.835 -0.715,-0.606 -1.747,-0.162 -2.353,0.554 -0.605,0.715 -2.239,3.42 -1.524,4.025 C -2.697,3.35 -0.605,0.715 0,0" style="fill:#a0041e;fill-opacity:1;fill-rule:nonzero;stroke:none"/></g><g id="g40" transform="translate(4.2549,12.251)"><path id="path42" d="M 0,0 C 0.892,-0.295 1.857,-0.801 1.563,-1.691 1.269,-2.582 0.235,-2.683 -0.656,-2.39 -1.545,-2.095 -4.428,-0.698 -4.134,0.191 -3.839,1.082 -0.89,0.294 0,0" style="fill:#a0041e;fill-opacity:1;fill-rule:nonzero;stroke:none"/></g><g id="g44" transform="translate(5.4692,7.7187)"><path id="path46" d="M 0,0 C 0.905,0.253 1.907,0.283 2.159,-0.619 2.411,-1.522 1.876,-2.154 0.973,-2.406 0.07,-2.657 -3.37,-3.133 -3.621,-2.229 -3.873,-1.325 -0.903,-0.25 0,0" style="fill:#a0041e;fill-opacity:1;fill-rule:nonzero;stroke:none"/></g><g id="g48" transform="translate(9.8174,4.5312)"><path id="path50" d="M 0,0 C 0.084,0.937 0.644,1.669 1.577,1.585 2.511,1.5 2.835,0.56 2.75,-0.375 2.666,-1.309 2.897,-3.938 1.035,-4.391 0.123,-4.612 -0.086,-0.932 0,0" style="fill:#a0041e;fill-opacity:1;fill-rule:nonzero;stroke:none"/></g><g id="g52" transform="translate(29.04,15.3633)"><path id="path54" d="M 0,0 C -0.068,-0.639 0.543,-1.228 1.367,-1.315 2.191,-1.404 2.914,-0.958 2.982,-0.32 3.051,0.318 2.438,0.906 1.615,0.994 0.791,1.083 0.068,0.638 0,0" style="fill:#a0041e;fill-opacity:1;fill-rule:nonzero;stroke:none"/></g><g id="g56" transform="translate(26.9531,12.6455)"><path id="path58" d="m 0,0 c -0.125,-0.818 1.757,-2.544 2.575,-2.669 0.82,-0.125 1.584,0.438 1.709,1.257 0.125,0.818 -0.58,1.139 -1.398,1.264 C 2.066,-0.023 0.125,0.818 0,0" style="fill:#a0041e;fill-opacity:1;fill-rule:nonzero;stroke:none"/></g><g id="g60" transform="translate(25.1699,10.542)"><path id="path62" d="M 0,0 C -0.173,-0.81 1.628,-3.927 2.438,-4.1 3.249,-4.273 4.083,-4.245 4.255,-3.435 4.429,-2.625 3.95,-1.747 3.14,-1.573 2.329,-1.4 0.173,0.81 0,0" style="fill:#a0041e;fill-opacity:1;fill-rule:nonzero;stroke:none"/></g><g id="g64" transform="translate(21.3174,9.6836)"><path id="path66" d="M 0,0 C -0.166,-0.811 1.338,-4.354 2.149,-4.519 2.962,-4.684 3.588,-4.97 3.754,-4.158 3.918,-3.347 3.492,-2.184 2.747,-1.578 2.104,-1.056 0.164,0.812 0,0" style="fill:#a0041e;fill-opacity:1;fill-rule:nonzero;stroke:none"/></g><g id="g68" transform="translate(32.0752,17.1309)"><path id="path70" d="m 0,0 c -0.607,-0.715 -1.18,-1.23 -0.465,-1.835 0.716,-0.606 1.747,-0.162 2.354,0.554 0.605,0.715 2.239,3.42 1.523,4.025 C 2.697,3.35 0.605,0.715 0,0" style="fill:#a0041e;fill-opacity:1;fill-rule:nonzero;stroke:none"/></g><g id="g72" transform="translate(31.7451,12.251)"><path id="path74" d="M 0,0 C -0.892,-0.295 -1.857,-0.801 -1.562,-1.691 -1.27,-2.582 -0.234,-2.683 0.656,-2.39 1.545,-2.095 4.428,-0.698 4.134,0.191 3.84,1.082 0.89,0.294 0,0" style="fill:#a0041e;fill-opacity:1;fill-rule:nonzero;stroke:none"/></g><g id="g76" transform="translate(30.5303,7.7187)"><path id="path78" d="M 0,0 C -0.904,0.253 -1.906,0.283 -2.158,-0.619 -2.41,-1.522 -1.876,-2.154 -0.973,-2.406 -0.07,-2.657 3.37,-3.133 3.621,-2.229 3.873,-1.325 0.903,-0.25 0,0" style="fill:#a0041e;fill-opacity:1;fill-rule:nonzero;stroke:none"/></g><g id="g80" transform="translate(26.1826,4.5312)"><path id="path82" d="M 0,0 C -0.084,0.937 -0.645,1.669 -1.577,1.585 -2.512,1.5 -2.835,0.56 -2.75,-0.375 -2.666,-1.309 -2.897,-3.938 -1.035,-4.391 -0.123,-4.612 0.086,-0.932 0,0" style="fill:#a0041e;fill-opacity:1;fill-rule:nonzero;stroke:none"/></g><g id="g84" transform="translate(3.1484,22.1221)"><path id="path86" d="M 0,0 C -0.383,0.856 0.001,1.86 0.857,2.242 1.713,2.625 2.717,2.241 3.1,1.384 3.481,0.529 5.751,-4.228 4.896,-4.609 4.039,-4.992 0.382,-0.855 0,0" style="fill:#a0041e;fill-opacity:1;fill-rule:nonzero;stroke:none"/></g><g id="g88" transform="translate(3.9937,23.9658)"><path id="path90" d="M 0,0 C 1.221,-2.956 8.341,3.341 8.803,6.281 9.265,9.22 8.495,10.482 8.109,10.781 7.724,11.08 8.253,9.346 6.922,7.475 5.869,5.994 -0.843,2.042 0,0" style="fill:#a0041e;fill-opacity:1;fill-rule:nonzero;stroke:none"/></g><g id="g92" transform="translate(32.8516,22.1221)"><path id="path94" d="M 0,0 C 0.384,0.856 -0.001,1.86 -0.857,2.242 -1.714,2.625 -2.718,2.241 -3.101,1.384 -3.482,0.529 -5.751,-4.228 -4.895,-4.609 -4.039,-4.992 -0.382,-0.855 0,0" style="fill:#a0041e;fill-opacity:1;fill-rule:nonzero;stroke:none"/></g><g id="g96" transform="translate(32.0068,23.9658)"><path id="path98" d="m 0,0 c -1.222,-2.956 -8.341,3.341 -8.804,6.281 -0.461,2.939 0.309,4.201 0.695,4.5 C -7.724,11.08 -8.253,9.346 -6.923,7.475 -5.869,5.994 0.843,2.042 0,0" style="fill:#a0041e;fill-opacity:1;fill-rule:nonzero;stroke:none"/></g><g id="g100" transform="translate(6,14)"><path id="path102" d="M 0,0 C 0,2 2,10 12,10 22,10 24,2 24,0 19,-3 18.627,-7 12,-7 5.373,-7 6,-3 0,0" style="fill:#be1931;fill-opacity:1;fill-rule:nonzero;stroke:none"/></g><g id="g104" transform="translate(4.3228,23.7773)"><path id="path106" d="m 0,0 c -3.152,-0.543 -0.357,8.141 1.883,10.099 2.24,1.958 4.657,1.917 5.115,1.75 C 7.457,11.682 5.824,9.254 5.248,7.671 4.955,6.868 2.176,0.375 0,0" style="fill:#be1931;fill-opacity:1;fill-rule:nonzero;stroke:none"/></g><g id="g108" transform="translate(31.6768,23.7773)"><path id="path110" d="m 0,0 c 3.152,-0.543 0.358,8.141 -1.882,10.099 -2.24,1.958 -4.656,1.917 -5.115,1.75 -0.459,-0.167 1.174,-2.595 1.75,-4.178 C -4.954,6.868 -2.176,0.375 0,0" style="fill:#be1931;fill-opacity:1;fill-rule:nonzero;stroke:none"/></g><g id="g112" transform="translate(17.0317,23.8638)"><path id="path114" d="m 0,0 c 0.335,-1.339 -0.045,-1.588 -0.849,-1.789 -0.804,-0.201 -1.726,-0.278 -2.061,1.061 -0.335,1.34 0.045,2.589 0.848,2.79 C -1.257,2.263 -0.335,1.34 0,0" style="fill:#a0041e;fill-opacity:1;fill-rule:nonzero;stroke:none"/></g><g id="g116" transform="translate(21.8779,23.1362)"><path id="path118" d="m 0,0 c -0.335,-1.34 -1.258,-1.262 -2.061,-1.061 -0.804,0.2 -1.184,0.449 -0.849,1.789 0.335,1.339 1.258,2.262 2.061,2.061 C -0.045,2.588 0.335,1.339 0,0" style="fill:#a0041e;fill-opacity:1;fill-rule:nonzero;stroke:none"/></g><g id="g120" transform="translate(16,26.5)"><path id="path122" d="M 0,0 C 0,-0.829 -0.671,-1.5 -1.5,-1.5 -2.329,-1.5 -3,-0.829 -3,0 -3,0.829 -2.329,1.5 -1.5,1.5 -0.671,1.5 0,0.829 0,0" style="fill:#292f33;fill-opacity:1;fill-rule:nonzero;stroke:none"/></g><g id="g124" transform="translate(23,26.5)"><path id="path126" d="M 0,0 C 0,-0.829 -0.672,-1.5 -1.5,-1.5 -2.328,-1.5 -3,-0.829 -3,0 -3,0.829 -2.328,1.5 -1.5,1.5 -0.672,1.5 0,0.829 0,0" style="fill:#292f33;fill-opacity:1;fill-rule:nonzero;stroke:none"/></g><g id="g128" transform="translate(9.0527,14.4707)"><path id="path130" d="M 0,0 C -0.14,-0.235 -3.053,-0.731 -2.303,0.731 -1.553,2.194 0.14,0.234 0,0" style="fill:#dd2e44;fill-opacity:1;fill-rule:nonzero;stroke:none"/></g><g id="g132" transform="translate(9.8906,15.876)"><path id="path134" d="M 0,0 C -0.218,-0.225 -3.188,-0.391 -1.922,1.404 -0.656,3.197 0.312,0.322 0,0" style="fill:#dd2e44;fill-opacity:1;fill-rule:nonzero;stroke:none"/></g><g id="g136" transform="translate(11.6567,17.3398)"><path id="path138" d="M 0,0 C -0.378,-0.231 -3.471,0.501 -1.407,1.932 0.465,3.229 0.5,0.306 0,0" style="fill:#dd2e44;fill-opacity:1;fill-rule:nonzero;stroke:none"/></g><g id="g140" transform="translate(14.1021,18.5732)"><path id="path142" d="M 0,0 C -1.008,-0.299 -3.378,1.302 -0.881,2.141 1.617,2.98 1.008,0.299 0,0" style="fill:#dd2e44;fill-opacity:1;fill-rule:nonzero;stroke:none"/></g><g id="g144" transform="translate(26.8564,14.4707)"><path id="path146" d="M 0,0 C 0.141,-0.235 3.053,-0.731 2.303,0.731 1.553,2.194 -0.141,0.234 0,0" style="fill:#dd2e44;fill-opacity:1;fill-rule:nonzero;stroke:none"/></g><g id="g148" transform="translate(26.0186,15.876)"><path id="path150" d="M 0,0 C 0.218,-0.225 3.188,-0.391 1.922,1.404 0.656,3.197 -0.312,0.322 0,0" style="fill:#dd2e44;fill-opacity:1;fill-rule:nonzero;stroke:none"/></g><g id="g152" transform="translate(24.2529,17.3398)"><path id="path154" d="M 0,0 C 0.378,-0.231 3.471,0.501 1.406,1.932 -0.466,3.229 -0.5,0.306 0,0" style="fill:#dd2e44;fill-opacity:1;fill-rule:nonzero;stroke:none"/></g><g id="g156" transform="translate(21.8076,18.5732)"><path id="path158" d="M 0,0 C 1.008,-0.299 3.378,1.302 0.881,2.141 -1.617,2.98 -1.009,0.299 0,0" style="fill:#dd2e44;fill-opacity:1;fill-rule:nonzero;stroke:none"/></g><g id="g160" transform="translate(26.8486,19.75)"><path id="path162" d="m 0,0 c 0,-0.414 -2.188,2.25 -8.849,2.25 -6.66,0 -8.848,-2.664 -8.848,-2.25 0,0.414 2.755,3.75 8.848,3.75 C -2.755,3.75 0,0.414 0,0" style="fill:#a0041e;fill-opacity:1;fill-rule:nonzero;stroke:none"/></g><g id="g164" transform="translate(10.7935,11.5674)"><path id="path166" d="m 0,0 c 0,0.414 1.782,-2.25 7.207,-2.25 5.425,0 7.208,2.664 7.208,2.25 0,-0.414 -2.245,-3.75 -7.208,-3.75 C 2.244,-3.75 0,-0.414 0,0" style="fill:#dd2e44;fill-opacity:1;fill-rule:nonzero;stroke:none"/></g></g></g></g></svg>