<svg xmlns="http://www.w3.org/2000/svg" xmlns:svg="http://www.w3.org/2000/svg" style="enable-background:new 0 0 45 45" id="svg2" version="1.1" viewBox="0 0 45 45" xml:space="preserve"><metadata id="metadata8"/><defs id="defs6"><clipPath id="clipPath16" clipPathUnits="userSpaceOnUse"><path id="path18" d="M 0,36 36,36 36,0 0,0 0,36 Z"/></clipPath></defs><g id="g10" transform="matrix(1.25,0,0,-1.25,0,45)"><g id="g12"><g id="g14" clip-path="url(#clipPath16)"><g id="g20" transform="translate(36,15)"><path id="path22" d="m 0,0 c 0,-5 -3,-9 -11,-11 -7.062,-1.766 -21,0.934 -21,2 0,1.129 2.503,1.371 6.813,1.125 10.937,-0.625 13.749,3.857 11.999,5.25 C -16.25,-0.187 -19.625,-3 -25.25,-2.5 -32.218,-1.881 -36,3.528 -36,5 c 0,2 11.716,8 20,8 C -7.716,13 0,8.75 0,0" style="fill:#66757f;fill-opacity:1;fill-rule:nonzero;stroke:none"/></g><g id="g24" transform="translate(15,23.5)"><path id="path26" d="M 0,0 C 0,-0.829 -0.671,-1.5 -1.5,-1.5 -2.329,-1.5 -3,-0.829 -3,0 -3,0.829 -2.329,0.5 -1.5,0.5 -0.671,0.5 0,0.829 0,0" style="fill:#292f33;fill-opacity:1;fill-rule:nonzero;stroke:none"/></g><g id="g28" transform="translate(14,27)"><path id="path30" d="M 0,0 C 2,5 5.291,9 7.958,9 10.625,9 7,7 12,-1 17,-9 0,0 0,0" style="fill:#66757f;fill-opacity:1;fill-rule:nonzero;stroke:none"/></g><g id="g32" transform="translate(3,6)"><path id="path34" d="M 0,0 C 0,4 -1.04,6 0.146,6 1.331,6 6.157,1.969 6.157,-0.24 6.157,-2.449 1.331,-6 0.146,-6 -1.04,-6 0,-4 0,0" style="fill:#66757f;fill-opacity:1;fill-rule:nonzero;stroke:none"/></g><g id="g36" transform="translate(26.9209,13.5)"><path id="path38" d="M 0,0 7.996,-7.5 C 7.996,-7.5 4.754,-9.333 0,0" style="fill:#292f33;fill-opacity:1;fill-rule:nonzero;stroke:none"/></g><g id="g40" transform="translate(26.9209,13.5)"><path id="path42" d="m 0,0 5.537,3.833 c 0,0 3.875,-9.916 2.459,-11.333 C 5.413,-6.5 0,0 0,0" style="fill:#66757f;fill-opacity:1;fill-rule:nonzero;stroke:none"/></g><g id="g44" transform="translate(9,15.6934)"><path id="path46" d="m 0,0 c 0,-0.493 -0.508,-2.673 -1,-2.673 -0.492,0 -1,2.18 -1,2.673 l 0,1.779 c 0,0.493 0.508,-0.888 1,-0.888 0.492,0 1,1.381 1,0.888 L 0,0 Z" style="fill:#fff;fill-opacity:1;fill-rule:nonzero;stroke:none"/></g><g id="g48" transform="translate(12,15.6934)"><path id="path50" d="m 0,0 c 0,-0.493 -0.508,-2.673 -1,-2.673 -0.492,0 -1,2.18 -1,2.673 l 0,1.779 c 0,0.493 0.508,-0.888 1,-0.888 0.492,0 1,1.381 1,0.888 L 0,0 Z" style="fill:#fff;fill-opacity:1;fill-rule:nonzero;stroke:none"/></g><g id="g52" transform="translate(15,16.6934)"><path id="path54" d="m 0,0 c 0,-0.493 -0.508,-2.673 -1,-2.673 -0.492,0 -1,2.18 -1,2.673 l 0,1.779 c 0,0.493 0.508,-0.888 1,-0.888 0.492,0 1,1.381 1,0.888 L 0,0 Z" style="fill:#fff;fill-opacity:1;fill-rule:nonzero;stroke:none"/></g><g id="g56" transform="translate(18,16.6934)"><path id="path58" d="m 0,0 c 0,-0.493 -0.508,-2.673 -1,-2.673 -0.492,0 -1,2.18 -1,2.673 l 0,1.779 c 0,0.493 0.508,-0.888 1,-0.888 0.492,0 1,1.381 1,0.888 L 0,0 Z" style="fill:#fff;fill-opacity:1;fill-rule:nonzero;stroke:none"/></g><g id="g60" transform="translate(6,16)"><path id="path62" d="M 0,0 7.001,1 13,1 13,3 0,3 0,0 Z" style="fill:#66757f;fill-opacity:1;fill-rule:nonzero;stroke:none"/></g><g id="g64" transform="translate(18.4165,16.833)"><path id="path66" d="m 0,0 c -4,2.083 -13.385,0.011 -14.917,-1.513 0.47,-0.36 0.988,-0.707 1.547,-1.028 C -7.261,0.74 0.712,-0.372 0,0" style="fill:#292f33;fill-opacity:1;fill-rule:nonzero;stroke:none"/></g></g></g></g></svg>