<svg xmlns="http://www.w3.org/2000/svg" xmlns:svg="http://www.w3.org/2000/svg" style="enable-background:new 0 0 45 45" id="svg2" version="1.1" viewBox="0 0 45 45" xml:space="preserve"><metadata id="metadata8"/><defs id="defs6"><clipPath id="clipPath16" clipPathUnits="userSpaceOnUse"><path id="path18" d="M 0,36 36,36 36,0 0,0 0,36 Z"/></clipPath></defs><g id="g10" transform="matrix(1.25,0,0,-1.25,0,45)"><g id="g12"><g id="g14" clip-path="url(#clipPath16)"><g id="g20" transform="translate(12.75,18.25)"><path id="path22" d="m 0,0 c 1.226,-2.195 1.855,1.361 9.313,2.625 7.457,1.264 13.728,-4.454 13.859,-5.413 0.131,-0.958 -4.448,-9.462 -9.463,-9.462 l -15.71,0 c -4.142,0 -7.022,7.224 -3.999,11.438 0,0 4.5,3.5 6,0.812" style="fill:#d99e82;fill-opacity:1;fill-rule:nonzero;stroke:none"/></g><g id="g24" transform="translate(13.0083,17.8643)"><path id="path26" d="m 0,0 c -4.989,-6.937 -6.04,-11.864 -2.259,-11.864 -4.142,0 -6.577,6.187 -4.468,11.031 0.463,1.064 1.758,2.492 1.758,2.492 L -0.79,1.667 C -0.627,1.347 -0.191,0.301 0,0" style="fill:#c1694f;fill-opacity:1;fill-rule:nonzero;stroke:none"/></g><g id="g28" transform="translate(20.0625,13.25)"><path id="path30" d="M 0,0 C 6.672,2.682 15.729,3.171 15.859,2.212 15.99,1.254 11.411,-7.25 6.396,-7.25 l -14.646,0 c -4.143,0 1.232,4.429 8.25,7.25" style="fill:#e1e8ed;fill-opacity:1;fill-rule:nonzero;stroke:none"/></g><g id="g32" transform="translate(25.3594,14.875)"><path id="path34" d="M 0,0 C 6,1.312 10.468,1.282 10.563,0.587 10.642,0.009 9.004,-3.32 6.59,-5.867 8.794,-3.063 8.01,0.246 0,0" style="fill:#292f33;fill-opacity:1;fill-rule:nonzero;stroke:none"/></g><g id="g36" transform="translate(7.125,29.875)"><path id="path38" d="m 0,0 c 1.562,4.937 10.439,4.143 10.063,-0.687 -0.378,-4.829 -6.454,-7.86 -4.18,-11.324 -1.586,-1.38 -5.015,-0.913 -6.727,-0.833 0.702,1.351 1.381,2.632 1.813,3.406 C 3.884,-4.203 -1.163,-3.674 0,0" style="fill:#3e721d;fill-opacity:1;fill-rule:nonzero;stroke:none"/></g><g id="g40" transform="translate(1.8926,26.9551)"><path id="path42" d="m 0,0 c 0.568,1.1 0.549,-0.106 3.352,-0.142 1.554,-0.02 1.463,0.56 1.664,1.621 0.042,0.223 0.776,-1.616 2.061,-1.807 3.554,-0.531 1.879,-1.94 0,-2.261 C 6.176,-2.743 5.067,-2.908 3.14,-2.744 0.62,-2.532 -0.628,-1.216 0,0" style="fill:#ffcc4d;fill-opacity:1;fill-rule:nonzero;stroke:none"/></g><g id="g44" transform="translate(12.5024,19.375)"><path id="path46" d="m 0,0 c 0.044,-0.625 0.506,-1.511 0.506,-1.511 -1.016,-1.473 -5.643,-3.016 -7.354,-2.929 0.096,0.627 0.283,1.362 0.627,2.096 C -4.377,-1.873 -1.561,-1.273 0,0" style="fill:#f5f8fa;fill-opacity:1;fill-rule:nonzero;stroke:none"/></g><g id="g48" transform="translate(11.708,29.8486)"><path id="path50" d="m 0,0 c 0,-0.716 -0.58,-1.296 -1.296,-1.296 -0.716,0 -1.295,0.58 -1.295,1.296 0,0.716 0.579,1.295 1.295,1.295 C -0.58,1.295 0,0.716 0,0" style="fill:#292f33;fill-opacity:1;fill-rule:nonzero;stroke:none"/></g></g></g></g></svg>