<svg xmlns="http://www.w3.org/2000/svg" xmlns:svg="http://www.w3.org/2000/svg" style="enable-background:new 0 0 45 45" id="svg2" version="1.1" viewBox="0 0 45 45" xml:space="preserve"><metadata id="metadata8"/><defs id="defs6"><clipPath id="clipPath16" clipPathUnits="userSpaceOnUse"><path id="path18" d="M 0,36 36,36 36,0 0,0 0,36 Z"/></clipPath></defs><g id="g10" transform="matrix(1.25,0,0,-1.25,0,45)"><g id="g12"><g id="g14" clip-path="url(#clipPath16)"><g id="g20" transform="translate(27.3955,0)"><path id="path22" d="M 0,0 C -0.433,12.618 -2.98,23.689 -11.794,23.689 -20.609,23.689 -23.156,12.618 -23.589,0 L 0,0 Z" style="fill:#292f33;fill-opacity:1;fill-rule:nonzero;stroke:none"/></g><g id="g24" transform="translate(9.0693,0)"><path id="path26" d="M 0,0 C -0.707,5.899 -2.245,10 -4.035,10 -5.825,10 -7.363,5.899 -8.069,0 L 0,0 Z" style="fill:#292f33;fill-opacity:1;fill-rule:nonzero;stroke:none"/></g><g id="g28" transform="translate(32,0)"><path id="path30" d="M 0,0 C -0.794,5.899 -2.522,10 -4.534,10 -6.546,10 -8.275,5.899 -9.069,0 L 0,0 Z" style="fill:#292f33;fill-opacity:1;fill-rule:nonzero;stroke:none"/></g><g id="g32" transform="translate(27.4648,12.3125)"><path id="path34" d="m 0,0 c -3.923,11.154 0.535,20.687 -10.465,20.687 -11,0 -8.736,-8.173 -13.193,-19.125 -1.119,-2.749 1.443,-5.908 1.443,-5.908 0,0 2.612,4.756 4.75,5.846 0.591,-3.277 1.75,-6.937 1.75,-6.937 0,0 4.915,5.656 9.085,8.25 1.15,-1.54 4.915,-7.5 4.915,-7.5 0,0 2.507,2.435 1.715,4.687" style="fill:#e1e8ed;fill-opacity:1;fill-rule:nonzero;stroke:none"/></g><g id="g36" transform="translate(23,31)"><path id="path38" d="M 0,0 C 4.36,-3.059 5.542,-2.16 7.812,-3.563 9.938,-4.875 9.813,-8.5 7.937,-11.625 7.358,-8.964 8.438,-8.476 1,-8.476 c -5,0 -7.928,-0.289 -7.001,1 C -5.073,-6.186 4.026,-7.934 0,0" style="fill:#ffcc4d;fill-opacity:1;fill-rule:nonzero;stroke:none"/></g><g id="g40" transform="translate(20.9395,28.4834)"><path id="path42" d="m 0,0 c 0,-0.82 -0.664,-1.483 -1.484,-1.483 -0.821,0 -1.483,0.663 -1.483,1.483 0,0.82 0.662,1.483 1.483,1.483 C -0.664,1.483 0,0.82 0,0" style="fill:#292f33;fill-opacity:1;fill-rule:nonzero;stroke:none"/></g><path id="path44" d="m 22,28.93 -5,0 0,2 5,0 0,-2 z" style="fill:#e1e8ed;fill-opacity:1;fill-rule:nonzero;stroke:none"/><g id="g46" transform="translate(14.9995,16)"><path id="path48" d="m 0,0 c 0,0 1,-3 6.001,-7 1,3 4,8 4,8 L 0,0 Z" style="fill:#e1e8ed;fill-opacity:1;fill-rule:nonzero;stroke:none"/></g></g></g></g></svg>