<svg xmlns="http://www.w3.org/2000/svg" xmlns:svg="http://www.w3.org/2000/svg" style="enable-background:new 0 0 45 45" id="svg2" version="1.1" viewBox="0 0 45 45" xml:space="preserve"><metadata id="metadata8"/><defs id="defs6"><clipPath id="clipPath16" clipPathUnits="userSpaceOnUse"><path id="path18" d="M 0,36 36,36 36,0 0,0 0,36 Z"/></clipPath></defs><g id="g10" transform="matrix(1.25,0,0,-1.25,0,45)"><g id="g12"><g id="g14" clip-path="url(#clipPath16)"><g id="g20" transform="translate(17.68,14)"><path id="path22" d="M 0,0 C 0,0 1.937,-7.873 1.187,-9.373 -1.187,-14.119 0,-14 1.187,-14 l 2.373,0 C 5.933,-14 2.373,0 2.373,0 L 0,0 Z" style="fill:#3e721d;fill-opacity:1;fill-rule:nonzero;stroke:none"/></g><g id="g24" transform="translate(5.2547,16.6134)"><path id="path26" d="m 0,0 c 0,0 -0.436,-7.993 -1.187,-9.493 -2.373,-4.747 -2.373,-7.12 -1.186,-7.12 l 2.373,0 c 1.187,0 1.187,4.153 1.187,5.34 0,1.186 1.186,8.603 1.186,8.603 L 0,0 Z" style="fill:#3e721d;fill-opacity:1;fill-rule:nonzero;stroke:none"/></g><g id="g28" transform="translate(12.3741,30.7493)"><path id="path30" d="m 0,0 c -2.068,-0.018 -4.209,0.435 -5.523,-2.099 -1.404,-2.709 -2.065,-8.579 0.777,-9.664 2.478,-0.946 7.933,1.187 13.865,-1.186 5.933,-2.373 8.306,-16.612 13.016,-16.631 1.223,-0.004 1.205,-1.123 0,-1.132 -5.914,-0.045 -8.509,5.897 -9.509,5.897 0,0 1,-5.934 0,-5.934 l -4,0 c -1,0 0,3.081 0,4.267 l 0,1.667 c 0,0 -1.593,-1.218 -5.937,-1.218 -3.282,0 -6.063,1.218 -6.063,1.218 0,0 1,-5.934 0,-5.934 l -3.745,0 c -1.678,0 0.165,4.013 0,5.933 -0.102,1.182 -0.511,4.757 -1.224,5.933 -1.726,2.848 -2.763,11.522 -1.929,15.286 0.781,3.526 3.122,6.633 4.675,7.511 1.519,0.858 2.862,1.499 6.19,0.965 C 2.368,4.594 4.184,1.957 3.484,0.605 3.063,-0.206 1.544,0.013 0,0" style="fill:#77b255;fill-opacity:1;fill-rule:nonzero;stroke:none"/></g><g id="g32" transform="translate(12.9674,33.8185)"><path id="path34" d="m 0,0 c 0,-0.328 -0.265,-0.593 -0.593,-0.593 -0.328,0 -0.594,0.265 -0.594,0.593 0,0.328 0.266,0.593 0.594,0.593 C -0.265,0.593 0,0.328 0,0" style="fill:#000;fill-opacity:1;fill-rule:nonzero;stroke:none"/></g><g id="g36" transform="translate(10.2182,17.515)"><path id="path38" d="m 0,0 c 0.094,-0.304 -0.076,-0.626 -0.38,-0.72 -0.303,-0.094 -0.626,0.076 -0.72,0.379 -0.094,0.304 0.076,0.627 0.38,0.721 C -0.417,0.474 -0.094,0.304 0,0" style="fill:#5c913b;fill-opacity:1;fill-rule:nonzero;stroke:none"/></g><g id="g40" transform="translate(14.0917,16.2665)"><path id="path42" d="m 0,0 c 0.134,-0.432 -0.108,-0.891 -0.541,-1.025 -0.432,-0.134 -0.891,0.108 -1.025,0.54 -0.134,0.433 0.108,0.892 0.541,1.026 C -0.593,0.674 -0.134,0.432 0,0" style="fill:#5c913b;fill-opacity:1;fill-rule:nonzero;stroke:none"/></g><g id="g44" transform="translate(12.4675,17.6928)"><path id="path46" d="m 0,0 c 0.071,-0.23 -0.057,-0.474 -0.288,-0.545 -0.23,-0.072 -0.474,0.057 -0.545,0.287 -0.071,0.23 0.058,0.474 0.287,0.546 C -0.315,0.359 -0.071,0.23 0,0" style="fill:#5c913b;fill-opacity:1;fill-rule:nonzero;stroke:none"/></g><g id="g48" transform="translate(14.9249,18.0235)"><path id="path50" d="m 0,0 c 0.067,-0.217 -0.054,-0.448 -0.272,-0.516 -0.217,-0.067 -0.448,0.055 -0.516,0.272 -0.067,0.218 0.055,0.448 0.272,0.516 C -0.298,0.339 -0.067,0.217 0,0" style="fill:#5c913b;fill-opacity:1;fill-rule:nonzero;stroke:none"/></g><g id="g52" transform="translate(17.7683,17.6741)"><path id="path54" d="m 0,0 c 0.125,-0.402 -0.101,-0.829 -0.503,-0.954 -0.402,-0.124 -0.829,0.101 -0.953,0.503 -0.125,0.402 0.1,0.829 0.502,0.954 C -0.552,0.627 -0.125,0.402 0,0" style="fill:#5c913b;fill-opacity:1;fill-rule:nonzero;stroke:none"/></g><g id="g56" transform="translate(22.5215,15.6951)"><path id="path58" d="m 0,0 c 0.08,-0.257 -0.064,-0.531 -0.322,-0.61 -0.257,-0.08 -0.53,0.064 -0.61,0.321 -0.08,0.258 0.064,0.531 0.322,0.611 C -0.353,0.402 -0.08,0.257 0,0" style="fill:#5c913b;fill-opacity:1;fill-rule:nonzero;stroke:none"/></g><g id="g60" transform="translate(16.6673,15.6951)"><path id="path62" d="m 0,0 c 0.08,-0.257 -0.064,-0.531 -0.322,-0.61 -0.257,-0.08 -0.53,0.064 -0.61,0.321 -0.08,0.258 0.064,0.531 0.322,0.611 C -0.353,0.402 -0.08,0.257 0,0" style="fill:#5c913b;fill-opacity:1;fill-rule:nonzero;stroke:none"/></g><g id="g64" transform="translate(20.8853,17.001)"><path id="path66" d="m 0,0 c 0.08,-0.257 -0.064,-0.531 -0.322,-0.61 -0.257,-0.08 -0.53,0.064 -0.61,0.321 -0.08,0.258 0.064,0.531 0.322,0.611 C -0.353,0.401 -0.08,0.257 0,0" style="fill:#5c913b;fill-opacity:1;fill-rule:nonzero;stroke:none"/></g><g id="g68" transform="translate(19.3841,16.8018)"><path id="path70" d="m 0,0 c 0.118,-0.381 -0.095,-0.785 -0.476,-0.903 -0.381,-0.118 -0.786,0.095 -0.904,0.476 -0.117,0.381 0.096,0.785 0.477,0.903 C -0.522,0.594 -0.118,0.381 0,0" style="fill:#5c913b;fill-opacity:1;fill-rule:nonzero;stroke:none"/></g></g></g></g></svg>