<svg xmlns="http://www.w3.org/2000/svg" xmlns:svg="http://www.w3.org/2000/svg" style="enable-background:new 0 0 45 45" id="svg2" version="1.1" viewBox="0 0 45 45" xml:space="preserve"><metadata id="metadata8"/><defs id="defs6"><clipPath id="clipPath16" clipPathUnits="userSpaceOnUse"><path id="path18" d="M 0,36 36,36 36,0 0,0 0,36 Z"/></clipPath></defs><g id="g10" transform="matrix(1.25,0,0,-1.25,0,45)"><g id="g12"><g id="g14" clip-path="url(#clipPath16)"><g id="g20" transform="translate(23.2832,12.7246)"><path id="path22" d="m 0,0 c 0,0 1.374,-1.635 2.733,-10.047 0.143,-0.883 0.202,-1.775 0.217,-2.678 l 9.767,0 0,28.553 c -4.387,3.472 -10.4,4.188 -17.678,1.757 0,0 -5.408,3 -6.147,3.74 -0.719,0.719 -1.857,1.555 -1.235,-0.35 0.364,-1.113 0.764,-2.373 2.359,-4.862 -3.436,-2.036 -4.513,-4.68 -8.558,-13.342 -3.089,-6.616 -4.662,-8.764 -3.805,-11.292 1.13,-3.337 5.316,-5.595 8.844,-3.021 1.919,1.4 2.246,3.913 6.225,6.223 C -3.624,-5.255 0,-3.716 0,0" style="fill:#e1e8ed;fill-opacity:1;fill-rule:nonzero;stroke:none"/></g><g id="g24" transform="translate(36,29.9878)"><path id="path26" d="M 0,0 C -8.335,5.711 -21.646,4.539 -20.091,-0.178 -10.49,1.684 -4.23,-1.719 0,-7.346 L 0,0 Z" style="fill:#292f33;fill-opacity:1;fill-rule:nonzero;stroke:none"/></g><g id="g28" transform="translate(19.6631,30.2373)"><path id="path30" d="m 0,0 c -2.878,-0.233 -7.28,-1.765 -9.42,-4.137 0,0 -0.005,5.317 3.69,5.783 C 0.441,2.425 0.078,1.284 0.078,1.284 L 0,0 Z" style="fill:#292f33;fill-opacity:1;fill-rule:nonzero;stroke:none"/></g><g id="g32" transform="translate(16.3569,34.9438)"><path id="path34" d="M 0,0 C 0.558,-1.155 4.006,-1.79 5.056,-6.029 6.107,-10.269 1.922,-8.979 0.7,-6.884 -0.662,-4.551 -1.128,-2.723 -1.167,-1.206 -1.188,-0.404 -1.128,2.333 0,0" style="fill:#e1e8ed;fill-opacity:1;fill-rule:nonzero;stroke:none"/></g><g id="g36" transform="translate(16.5962,33.1616)"><path id="path38" d="M 0,0 C 1.103,-0.968 2.448,-2.472 2.65,-3.955 2.852,-5.438 1.525,-4.943 0.914,-3.583 0.302,-2.224 0.161,-0.804 -0.22,-0.35 -0.6,0.104 0,0 0,0" style="fill:#66757f;fill-opacity:1;fill-rule:nonzero;stroke:none"/></g><g id="g40" transform="translate(16.9399,20.4746)"><path id="path42" d="m 0,0 c 0,-0.687 -0.557,-1.244 -1.245,-1.244 -0.687,0 -1.244,0.557 -1.244,1.244 0,0.687 0.557,1.245 1.244,1.245 C -0.557,1.245 0,0.687 0,0" style="fill:#292f33;fill-opacity:1;fill-rule:nonzero;stroke:none"/></g><g id="g44" transform="translate(10.3545,26.0757)"><path id="path46" d="m 0,0 c -0.033,0.018 -0.075,0.015 -0.111,0.024 -1.543,-2.032 -2.921,-5.102 -5.49,-10.604 -1.356,-2.903 -2.42,-4.946 -3.116,-6.538 1.628,-0.225 3.285,1.443 3.946,3.272 0.673,1.866 3.215,5.652 4.926,7.778 C 1.867,-3.941 1.716,-0.924 0,0" style="fill:#e1e8ed;fill-opacity:1;fill-rule:nonzero;stroke:none"/></g><g id="g48" transform="translate(28.1875,29.6875)"><path id="path50" d="m 0,0 c 0,0 -2.296,-6.947 -2.302,-8.947 -0.011,-3.803 -2.686,-7.801 -2.686,-7.801 l 1.342,-3.422 c 0,0 3.25,3.04 3.937,10.228 0.571,5.972 2.566,7.666 2.566,7.666 L 0,0 Z" style="fill:#292f33;fill-opacity:1;fill-rule:nonzero;stroke:none"/></g><g id="g52" transform="translate(34.0625,26.5625)"><path id="path54" d="M 0,0 C 0,0 -3.006,-3.635 -4.062,-9.563 -5.5,-17.625 -8.92,-19.309 -8.92,-19.309 l 0.482,-2.441 c 0,0 5.282,3.056 6.632,9.115 1.619,7.26 3.743,8.714 3.743,8.714 L 0,0 Z" style="fill:#292f33;fill-opacity:1;fill-rule:nonzero;stroke:none"/></g><g id="g56" transform="translate(3.25,12.5625)"><path id="path58" d="m 0,0 c 0.687,0.714 3.017,-3.808 4.53,-4.884 1.589,-1.13 5.469,-0.934 5.7,-2.162 -1.667,-1.704 -2.762,-4.272 -4.84,-4.988 -2.077,-0.716 -5.71,-0.677 -7.238,2.647 -1.527,3.325 -0.402,4.7 0.223,6.137 C -1,-1.812 -0.167,-0.312 0,0" style="fill:#292f33;fill-opacity:1;fill-rule:nonzero;stroke:none"/></g><g id="g60" transform="translate(4.2217,6.083)"><path id="path62" d="m 0,0 c 0,-0.881 -0.532,-1.594 -1.187,-1.594 -0.654,0 -1.186,0.713 -1.186,1.594 0,0.882 0.532,1.596 1.186,1.596 C -0.532,1.596 0,0.882 0,0" style="fill:#66757f;fill-opacity:1;fill-rule:nonzero;stroke:none"/></g><g id="g64" transform="translate(25.9541,3.0547)"><path id="path66" d="m 0,0 c 0,0 4.608,1.57 6.108,3.383 1.5,1.812 3.938,5.562 3.938,5.562 l 0,-6.375 c 0,0 -1.188,-1.625 -3.688,-2.937 C 4.773,-1.199 0.267,-2.618 0.267,-2.618 L 0,0 Z" style="fill:#292f33;fill-opacity:1;fill-rule:nonzero;stroke:none"/></g><g id="g68" transform="translate(25.0098,29.9204)"><path id="path70" d="m 0,0 c 0,0 -0.947,-2.92 -1.197,-5.92 -0.25,-3 -1.125,-4.875 -1.938,-6.188 0.313,4.25 -0.687,5.875 -0.125,8.125 0.563,2.25 0.87,4.32 0.87,4.32 0,0 0.63,0.368 1.255,0.305 C -0.51,0.58 0,0 0,0" style="fill:#292f33;fill-opacity:1;fill-rule:nonzero;stroke:none"/></g><g id="g72" transform="translate(4.7534,15.4961)"><path id="path74" d="m 0,0 c 0,0 3.934,0.379 5.747,-0.871 1.812,-1.25 5.331,-7.323 5.331,-7.323 L 9.944,-8.947 c 0,0 -1.697,4.638 -4.76,6.076 -3.062,1.437 -6,1.187 -6,1.187 L 0,0 Z" style="fill:#292f33;fill-opacity:1;fill-rule:nonzero;stroke:none"/></g><g id="g76" transform="translate(5.605,17.3218)"><path id="path78" d="m 0,0 c 0,0 5.516,0.358 6.958,-1.509 2.75,-3.563 3.831,-5.01 4.446,-8.349 l 1.785,0.307 C 12.395,-6.634 10.583,-1.447 7.27,0.741 3.958,2.928 1.02,2.428 1.02,2.428 L 0,0 Z" style="fill:#292f33;fill-opacity:1;fill-rule:nonzero;stroke:none"/></g><g id="g80" transform="translate(17.875,23.3125)"><path id="path82" d="M 0,0 C -0.625,-0.687 2,-3.313 1.125,-5.5 0.25,-7.687 0.75,-10.75 1.25,-12.125 c 0.5,-1.375 1.26,-2.839 1.26,-2.839 l 1.622,1.146 c 0,0 -0.257,1.505 -1.007,3.693 -0.75,2.188 -0.687,2.25 -0.375,4.438 C 3.063,-3.5 0.625,0.687 0,0" style="fill:#292f33;fill-opacity:1;fill-rule:nonzero;stroke:none"/></g><g id="g84" transform="translate(15.0454,29.1714)"><path id="path86" d="m 0,0 c 0,0 1.142,-2.046 1.08,-3.046 -0.063,-1 -0.063,-2.688 -0.625,-3.063 -0.563,-0.375 -0.813,2 -1.188,3.063 -0.375,1.062 -1.064,2.257 -1.064,2.257 0,0 1.468,1.429 1.797,0.789" style="fill:#292f33;fill-opacity:1;fill-rule:nonzero;stroke:none"/></g><g id="g88" transform="translate(11.501,27.3809)"><path id="path90" d="m 0,0 c 0,0 1.793,-1.398 1.73,-2.398 -0.062,-1 1.144,-2.608 0.581,-2.983 -0.562,-0.375 -1.937,1.25 -2.312,2.313 -0.375,1.062 -1.257,1.787 -1.257,1.787 0,0 0.929,1.921 1.258,1.281" style="fill:#292f33;fill-opacity:1;fill-rule:nonzero;stroke:none"/></g><g id="g92" transform="translate(8.9375,24.1875)"><path id="path94" d="m 0,0 c 0,0 1.522,-0.981 1.937,-1.75 0.416,-0.768 2.111,-1.387 1.938,-1.875 -0.173,-0.488 -1.977,0.098 -2.688,0.75 -0.71,0.652 -2.345,0.579 -2.345,0.579 L 0,0 Z" style="fill:#292f33;fill-opacity:1;fill-rule:nonzero;stroke:none"/></g></g></g></g></svg>