<svg xmlns="http://www.w3.org/2000/svg" xmlns:svg="http://www.w3.org/2000/svg" style="enable-background:new 0 0 45 45" id="svg2" version="1.1" viewBox="0 0 45 45" xml:space="preserve"><metadata id="metadata8"/><defs id="defs6"><clipPath id="clipPath16" clipPathUnits="userSpaceOnUse"><path id="path18" d="M 0,36 36,36 36,0 0,0 0,36 Z"/></clipPath></defs><g id="g10" transform="matrix(1.25,0,0,-1.25,0,45)"><g id="g12"><g id="g14" clip-path="url(#clipPath16)"><g id="g20" transform="translate(36,0)"><path id="path22" d="m 0,0 0,14.167 -6.667,10.166 c -3.617,2.865 -8.01,7.426 -14.011,5.422 0,0 -2.958,0.135 -4.142,-1.215 -2.696,-1.962 -4.88,-8.812 -6.18,-11.207 -2.223,-4.089 -4.721,-7.022 -4.015,-9.104 0.932,-2.752 1.883,-4.696 4.792,-2.574 1.582,1.156 1.874,3.798 5.157,5.703 3.012,0.053 7.065,0.475 8.478,3.896 0,0 2.643,-3.387 5.254,-10.587 C -11.139,4.128 -10.309,1.546 -9.943,0 L 0,0 Z" style="fill:#ffcc4d;fill-opacity:1;fill-rule:nonzero;stroke:none"/></g><g id="g24" transform="translate(11.7715,28.0845)"><path id="path26" d="M 0,0 C 0,0 -0.192,3.23 -0.988,4.512 -1.783,5.794 -1.637,6.393 -0.584,6.895 0.471,7.397 1.346,7.136 0.818,5.568 0.377,4.257 0.889,2.176 1.841,1.317 L 0,0 Z" style="fill:#ffcc4d;fill-opacity:1;fill-rule:nonzero;stroke:none"/></g><g id="g28" transform="translate(14.2959,33.1025)"><path id="path30" d="M 0,0 C 0.46,-0.952 3.304,-1.476 4.169,-4.971 5.035,-8.467 1.585,-7.404 0.576,-5.676 -0.546,-3.752 -0.931,-2.244 -0.962,-0.994 -0.979,-0.333 -0.931,1.924 0,0" style="fill:#ffcc4d;fill-opacity:1;fill-rule:nonzero;stroke:none"/></g><g id="g32" transform="translate(36,17.6665)"><path id="path34" d="M 0,0 C -8.334,13.333 -18.333,15.833 -22.668,11.675 -14.751,13.211 -9.334,9.667 0,-3.499 L 0,0 Z" style="fill:#754c29;fill-opacity:1;fill-rule:nonzero;stroke:none"/></g><g id="g36" transform="translate(16.4277,29.6943)"><path id="path38" d="m 0,0 c -2.374,-0.192 -6.062,-4.647 -7.825,-6.604 0,0 -1.983,6.026 1.064,6.41 5.09,0.642 5.656,0.255 5.656,0.255 L 0,0 Z" style="fill:#f4900c;fill-opacity:1;fill-rule:nonzero;stroke:none"/></g><g id="g40" transform="translate(20.7451,33.7114)"><path id="path42" d="m 0,0 c -0.419,-0.971 1.047,-3.463 -1.029,-6.405 -2.077,-2.943 -3.532,0.361 -2.885,2.255 0.72,2.108 1.608,3.385 2.533,4.227 C -0.893,0.523 0.846,1.963 0,0" style="fill:#ffcc4d;fill-opacity:1;fill-rule:nonzero;stroke:none"/></g><g id="g44" transform="translate(19.7637,32.6006)"><path id="path46" d="m 0,0 c -0.005,-0.605 -0.06,-1.32 -0.215,-2 -0.156,-0.678 -0.413,-1.323 -0.821,-1.786 -0.815,-0.926 -1.222,0.168 -0.705,1.283 0.518,1.115 1.326,1.969 1.404,2.452 C -0.259,0.431 0,0 0,0" style="fill:#f4900c;fill-opacity:1;fill-rule:nonzero;stroke:none"/></g><g id="g48" transform="translate(13.0557,22.1504)"><path id="path50" d="m 0,0 c 0,-0.776 -0.629,-1.405 -1.407,-1.405 -0.776,0 -1.405,0.629 -1.405,1.405 0,0.778 0.629,1.407 1.405,1.407 C -0.629,1.407 0,0.778 0,0" style="fill:#292f33;fill-opacity:1;fill-rule:nonzero;stroke:none"/></g><g id="g52" transform="translate(3.6943,9.7783)"><path id="path54" d="m 0,0 c 0,-0.727 -0.438,-1.315 -0.979,-1.315 -0.539,0 -0.977,0.588 -0.977,1.315 0,0.726 0.438,1.315 0.977,1.315 C -0.438,1.315 0,0.726 0,0" style="fill:#603913;fill-opacity:1;fill-rule:nonzero;stroke:none"/></g><g id="g56" transform="translate(25.4453,26.3149)"><path id="path58" d="m 0,0 c 0,0 -3.611,-1.314 -2.945,-3.481 0.666,-2.167 2.166,-5.834 3.333,-5.834 1.167,0 4.529,4.482 4.529,4.482 0,0 -2.445,2.922 -4.917,4.833" style="fill:#f4900c;fill-opacity:1;fill-rule:nonzero;stroke:none"/></g><g id="g60" transform="translate(31.7256,19.8501)"><path id="path62" d="m 0,0 c 0,0 -3.226,-1.35 -3.226,-3.184 0,-1.833 -1.168,-4.833 0.166,-6.333 1.334,-1.5 4.334,-1.166 5.834,-0.166 1.5,1 1.5,1.666 1.5,1.666 l 0,2.334 c 0,0 -1.337,1.939 -1.944,2.669 C 1.47,-1.776 0,0 0,0" style="fill:#f4900c;fill-opacity:1;fill-rule:nonzero;stroke:none"/></g><g id="g64" transform="translate(25.666,15.333)"><path id="path66" d="M 0,0 C 1.518,-0.414 1.667,-2.834 0.667,-4 -0.333,-5.166 -2.167,-6.499 -3,-3.666 -3.833,-0.833 -1.834,0.5 0,0" style="fill:#f4900c;fill-opacity:1;fill-rule:nonzero;stroke:none"/></g><g id="g68" transform="translate(31.166,7.333)"><path id="path70" d="m 0,0 c -3.745,2.007 -4.499,-1.166 -4.666,-3.166 -0.167,-2 0.5,-2.834 2.5,-3.167 C -0.166,-6.666 4.666,-2.5 0,0" style="fill:#f4900c;fill-opacity:1;fill-rule:nonzero;stroke:none"/></g><g id="g72" transform="translate(36,8.667)"><path id="path74" d="M 0,0 C 0,0 -2.666,0.499 -2.5,-0.834 -2.334,-2.167 0,-5.667 0,-5.667 L 0,0 Z" style="fill:#f4900c;fill-opacity:1;fill-rule:nonzero;stroke:none"/></g><g id="g76" transform="translate(2.2603,12.6807)"><path id="path78" d="m 0,0 c 0,0 3.379,5.312 4.601,9.001 1.221,3.69 3.639,5.318 3.639,5.318 0,0 -1.5,-5.334 -2.834,-8.333 C 4.073,2.986 1.094,-1.319 0,0" style="fill:#f4900c;fill-opacity:1;fill-rule:nonzero;stroke:none"/></g><g id="g80" transform="translate(17.833,19.5)"><path id="path82" d="m 0,0 c 1.499,-0.167 3.001,-2.833 0.833,-3.333 -2.167,-0.501 -4,0.666 -3.667,2 C -2.5,0 0,0 0,0" style="fill:#f4900c;fill-opacity:1;fill-rule:nonzero;stroke:none"/></g><g id="g84" transform="translate(15.666,13.666)"><path id="path86" d="M 0,0 C -1.447,-1.298 -2.999,-1.001 -3.333,-0.167 -3.667,0.667 -4.166,3.5 -2.333,3 -0.5,2.5 0.982,0.88 0,0" style="fill:#f4900c;fill-opacity:1;fill-rule:nonzero;stroke:none"/></g><g id="g88" transform="translate(11.2573,12.8301)"><path id="path90" d="M 0,0 C -1.021,-0.805 -2.118,-0.62 -2.353,-0.104 -2.588,0.413 -2.941,2.169 -1.647,1.859 -0.352,1.55 0.693,0.545 0,0" style="fill:#f4900c;fill-opacity:1;fill-rule:nonzero;stroke:none"/></g><g id="g92" transform="translate(18.8926,22.1812)"><path id="path94" d="M 0,0 C -0.168,-1.29 -1.082,-1.925 -1.611,-1.719 -2.14,-1.514 -3.62,-0.505 -2.478,0.177 -1.336,0.861 0.115,0.874 0,0" style="fill:#f4900c;fill-opacity:1;fill-rule:nonzero;stroke:none"/></g><g id="g96" transform="translate(14.5688,28.8994)"><path id="path98" d="m 0,0 c 0,0 1.215,2.999 1.048,4.499 -0.167,1.5 0.418,2.187 1.477,2.187 1.168,0 1.471,-0.791 0.607,-2.01 C 2.171,3.682 1.738,1.583 2.229,0.397 L 0,0 Z" style="fill:#ffcc4d;fill-opacity:1;fill-rule:nonzero;stroke:none"/></g><g id="g100" transform="translate(17.0942,35.585)"><path id="path102" d="m 0,0 c 2.239,-0.002 1.072,-1.358 0.607,-2.01 -0.465,-0.651 -2.085,-0.177 -2.085,-0.177 0,0 -0.446,2.188 1.478,2.187" style="fill:#8b5e3c;fill-opacity:1;fill-rule:nonzero;stroke:none"/></g><g id="g104" transform="translate(10.579,32.9503)"><path id="path106" d="M 0,0 C 0,0 -1.288,1.878 0.598,2.256 2.794,2.696 2.991,1.43 2.039,0.615 1.087,-0.201 0,0 0,0" style="fill:#8b5e3c;fill-opacity:1;fill-rule:nonzero;stroke:none"/></g><g id="g108" transform="translate(36,0)"><path id="path110" d="M 0,0 0,2 C 0,2 -1.334,2 -3,1.333 -3.788,1.018 -4.346,0.48 -4.722,0 L 0,0 Z" style="fill:#f4900c;fill-opacity:1;fill-rule:nonzero;stroke:none"/></g></g></g></g></svg>