<svg xmlns="http://www.w3.org/2000/svg" xmlns:svg="http://www.w3.org/2000/svg" style="enable-background:new 0 0 45 45" id="svg2" version="1.1" viewBox="0 0 45 45" xml:space="preserve"><metadata id="metadata8"/><defs id="defs6"><clipPath id="clipPath20" clipPathUnits="userSpaceOnUse"><path id="path22" d="M 0,36 36,36 36,0 0,0 0,36 Z"/></clipPath></defs><g id="g10" transform="matrix(1.25,0,0,-1.25,0,45)"><g id="g12" transform="translate(11.7915,29.9375)"><path id="path14" d="M 0,0 -0.01,-3.323 5.337,-1.937 2.401,0.062 0,0 Z" style="fill:#ffac33;fill-opacity:1;fill-rule:nonzero;stroke:none"/></g><g id="g16"><g id="g18" clip-path="url(#clipPath20)"><g id="g24" transform="translate(33.25,12.5176)"><path id="path26" d="m 0,0 c 0,1.138 0.761,2.071 1.75,2.238 l 0,11.659 c -4,0.962 -34,-7.191 -34,-7.191 l 0,-3.536 c 1.564,-0.294 2.75,-1.662 2.75,-3.313 0,-1.65 -1.186,-3.018 -2.75,-3.312 l 0,-7.716 34,6.483 0,2.451 C 0.761,-2.07 0,-1.137 0,0" style="fill:#ffac33;fill-opacity:1;fill-rule:nonzero;stroke:none"/></g><g id="g28" transform="translate(15.5854,33.7578)"><path id="path30" d="m 0,0 -3.843,-3.843 c 0.736,-0.172 1.258,-0.591 1.258,-1.081 0,-0.645 -0.896,-1.167 -2,-1.167 -0.474,0 -0.903,0.1 -1.246,0.26 l -8.754,-8.754 C -1.418,-11.675 7.457,-9.3 19.514,-7.36 14.653,-0.877 3.241,0 0,0" style="fill:#ffd983;fill-opacity:1;fill-rule:nonzero;stroke:none"/></g><g id="g32" transform="translate(20,30.8335)"><path id="path34" d="m 0,0 c 0,-0.645 -0.895,-1.167 -2,-1.167 -1.104,0 -2,0.522 -2,1.167 0,0.644 0.896,1.167 2,1.167 1.105,0 2,-0.523 2,-1.167" style="fill:#ffac33;fill-opacity:1;fill-rule:nonzero;stroke:none"/></g><g id="g36" transform="translate(15.0718,24.438)"><path id="path38" d="m 0,0 c 0,-0.979 -1.359,-1.771 -3.036,-1.771 -1.676,0 -3.036,0.792 -3.036,1.771 0,0.977 1.36,1.77 3.036,1.77 C -1.359,1.77 0,0.977 0,0" style="fill:#ffac33;fill-opacity:1;fill-rule:nonzero;stroke:none"/></g><g id="g40" transform="translate(29,27.6479)"><path id="path42" d="m 0,0 c 0,-1.094 -1.52,-1.981 -3.396,-1.981 -1.875,0 -3.396,0.887 -3.396,1.981 0,1.094 1.521,1.981 3.396,1.981 C -1.52,1.981 0,1.094 0,0" style="fill:#ffac33;fill-opacity:1;fill-rule:nonzero;stroke:none"/></g><g id="g44" transform="translate(33.625,20.3804)"><path id="path46" d="m 0,0 c 0,-1.332 -0.979,-2.411 -2.188,-2.411 -1.207,0 -2.187,1.079 -2.187,2.411 0,1.331 0.98,2.411 2.187,2.411 C -0.979,2.411 0,1.331 0,0" style="fill:#f4900c;fill-opacity:1;fill-rule:nonzero;stroke:none"/></g><g id="g48" transform="translate(11.375,15.5176)"><path id="path50" d="m 0,0 c 0,-1.255 -0.923,-2.272 -2.063,-2.272 -1.139,0 -2.062,1.017 -2.062,2.272 0,1.256 0.923,2.273 2.062,2.273 C -0.923,2.273 0,1.256 0,0" style="fill:#f4900c;fill-opacity:1;fill-rule:nonzero;stroke:none"/></g><g id="g52" transform="translate(28.5313,10.5381)"><path id="path54" d="M 0,0 C -0.503,-0.602 -1.355,-0.72 -1.903,-0.262 -2.45,0.195 -2.485,1.056 -1.98,1.657 -1.476,2.262 -0.624,2.379 -0.077,1.922 0.471,1.464 0.505,0.604 0,0" style="fill:#f4900c;fill-opacity:1;fill-rule:nonzero;stroke:none"/></g><g id="g56" transform="translate(18.8472,17.916)"><path id="path58" d="M 0,0 C -0.677,-0.811 -1.825,-0.97 -2.563,-0.352 -3.298,0.263 -3.346,1.42 -2.666,2.23 -1.986,3.044 -0.84,3.202 -0.104,2.586 0.633,1.97 0.68,0.814 0,0" style="fill:#f4900c;fill-opacity:1;fill-rule:nonzero;stroke:none"/></g><g id="g60" transform="translate(19.7197,7.9014)"><path id="path62" d="m 0,0 c -1.2,-1.604 -3.354,-2.02 -4.808,-0.933 -1.455,1.088 -1.663,3.273 -0.463,4.875 1.2,1.606 3.354,2.023 4.808,0.935 C 0.992,3.789 1.2,1.605 0,0" style="fill:#f4900c;fill-opacity:1;fill-rule:nonzero;stroke:none"/></g></g></g></g></svg>