<svg xmlns="http://www.w3.org/2000/svg" xmlns:svg="http://www.w3.org/2000/svg" style="enable-background:new 0 0 45 45" id="svg2" version="1.1" viewBox="0 0 45 45" xml:space="preserve"><metadata id="metadata8"/><defs id="defs6"><clipPath id="clipPath16" clipPathUnits="userSpaceOnUse"><path id="path18" d="M 0,36 36,36 36,0 0,0 0,36 Z"/></clipPath></defs><g id="g10" transform="matrix(1.25,0,0,-1.25,0,45)"><g id="g12"><g id="g14" clip-path="url(#clipPath16)"><g id="g20" transform="translate(30.0801,4.9307)"><path id="path22" d="M 0,0 C 0,0 -0.77,-0.477 -1.539,0 -2.309,0.477 -1.85,1.246 -1.85,1.246 -2.717,1.321 -2.807,2.124 -2.492,2.85 -2.999,2.989 -3.53,3.069 -4.08,3.069 l -16,0 c -3.314,0 -6,-2.686 -6,-6 l 0,-2 28,0 0,2 c 0,0.621 -0.094,1.219 -0.269,1.782 C -0.033,-1.791 0,0 0,0" style="fill:#d99e82;fill-opacity:1;fill-rule:nonzero;stroke:none"/></g><g id="g24" transform="translate(13.6397,7.899)"><path id="path26" d="m 0,0 c 1.744,-1.267 2.849,-3.728 4.36,-3.728 1.512,0 2.616,2.462 4.36,3.728 l 0,3.811 L 0,3.811 0,0 Z" style="fill:#ccd6dd;fill-opacity:1;fill-rule:nonzero;stroke:none"/></g><g id="g28" transform="translate(13.6318,10.0272)"><path id="path30" d="m 0,0 c 1.216,-1.374 2.724,-2.027 4.364,-2.027 1.639,0 3.147,0.654 4.364,2.027 l 0,3.491 L 0,3.491 0,0 Z" style="fill:#99aab5;fill-opacity:1;fill-rule:nonzero;stroke:none"/></g><g id="g32" transform="translate(11.4444,20.0646)"><path id="path34" d="m 0,0 c 0,-1.448 -0.734,-2.622 -1.639,-2.622 -0.905,0 -1.639,1.174 -1.639,2.622 0,1.448 0.734,2.623 1.639,2.623 C -0.734,2.623 0,1.448 0,0" style="fill:#ccd6dd;fill-opacity:1;fill-rule:nonzero;stroke:none"/></g><g id="g36" transform="translate(27.8334,20.0646)"><path id="path38" d="m 0,0 c 0,-1.448 -0.734,-2.622 -1.639,-2.622 -0.905,0 -1.639,1.174 -1.639,2.622 0,1.448 0.734,2.623 1.639,2.623 C -0.734,2.623 0,1.448 0,0" style="fill:#ccd6dd;fill-opacity:1;fill-rule:nonzero;stroke:none"/></g><g id="g40" transform="translate(9.4777,19.0403)"><path id="path42" d="m 0,0 c 0,5.589 3.816,10.121 8.522,10.121 4.707,0 8.523,-4.532 8.523,-10.121 0,-5.04 -5.116,-10.12 -8.523,-10.12 C 5.116,-10.12 0,-5.04 0,0" style="fill:#ccd6dd;fill-opacity:1;fill-rule:nonzero;stroke:none"/></g><g id="g44" transform="translate(12.2322,18.2322)"><path id="path46" d="m 0,0 0,0 c -0.778,0.778 -0.778,2.051 0,2.828 l 0.707,0.708 c 0.778,0.777 2.051,0.777 2.829,0 l 0,0 c 0.777,-0.778 0.777,-2.051 0,-2.829 L 2.828,0 C 2.051,-0.778 0.778,-0.778 0,0" style="fill:#99aab5;fill-opacity:1;fill-rule:nonzero;stroke:none"/></g><g id="g48" transform="translate(20.2322,21.7678)"><path id="path50" d="m 0,0 0,0 c 0.778,0.778 2.051,0.778 2.828,0 l 0.708,-0.707 c 0.777,-0.778 0.777,-2.051 0,-2.829 l 0,0 c -0.778,-0.777 -2.051,-0.777 -2.829,0 L 0,-2.828 C -0.778,-2.051 -0.778,-0.778 0,0" style="fill:#99aab5;fill-opacity:1;fill-rule:nonzero;stroke:none"/></g><g id="g52" transform="translate(18,14.1837)"><path id="path54" d="m 0,0 c -2.754,0 -3.6,-0.706 -3.741,-0.848 -0.256,-0.256 -0.256,-0.671 0,-0.927 0.248,-0.248 0.645,-0.255 0.902,-0.023 0.052,0.038 0.721,0.487 2.839,0.487 2.2,0 2.836,-0.485 2.842,-0.49 0.256,-0.255 0.657,-0.243 0.913,0.014 0.256,0.256 0.242,0.683 -0.014,0.939 C 3.6,-0.706 2.754,0 0,0" style="fill:#66757f;fill-opacity:1;fill-rule:nonzero;stroke:none"/></g><g id="g56" transform="translate(28.6458,26.0417)"><path id="path58" d="m 0,0 c -0.833,0.187 -2.305,1.908 -2.843,2.727 -0.006,0.009 -0.012,0.013 -0.018,0.022 -1.354,1.85 -3.644,3.349 -6.622,3.664 0.159,0.261 0.273,0.531 0.337,0.774 0.122,0.46 0.271,1.653 -0.417,0.861 -0.575,-0.662 -2.405,-1.427 -2.99,-1.661 -1.426,0.707 -3.45,0.603 -3.905,0.384 -0.563,-0.271 -0.039,-0.232 0.312,-0.292 0.436,-0.075 0.908,-0.386 1.359,-0.717 -1.71,-0.664 -2.961,-1.73 -3.788,-2.954 -0.002,-0.002 -0.003,-0.003 -0.005,-0.005 -0.61,-0.885 -1.695,-2.137 -2.274,-2.345 -1.125,-0.403 0.243,-0.562 0.812,-0.308 0.129,0.057 0.261,0.116 0.395,0.183 -0.114,-0.504 -0.177,-1.006 -0.177,-1.496 0,-3.473 1.216,-4.436 1.412,-3.473 0.706,3.473 2.824,4.863 2.824,4.863 3.213,-3.831 2.9,-0.581 2.9,-0.581 5.646,-6.542 2.748,-0.114 2.748,-0.114 1.412,-1.389 5.648,-1.389 5.648,-1.389 0,0 0.706,-1.389 1.412,-2.779 0.706,-1.389 1.412,0 1.412,3.473 0,0.285 -0.032,0.576 -0.079,0.867 0.425,-0.157 0.812,-0.215 1.13,-0.225 C 0.25,-0.542 0.833,-0.187 0,0" style="fill:#292f33;fill-opacity:1;fill-rule:nonzero;stroke:none"/></g><g id="g60" transform="translate(15.5,20.5)"><path id="path62" d="m 0,0 0,0 c 0,-0.55 -0.45,-1 -1,-1 l -1,0 c -0.55,0 -1,0.45 -1,1 l 0,0 c 0,0.55 0.45,1 1,1 l 1,0 C -0.45,1 0,0.55 0,0" style="fill:#662113;fill-opacity:1;fill-rule:nonzero;stroke:none"/></g><g id="g64" transform="translate(23.5,20.5)"><path id="path66" d="m 0,0 0,0 c 0,-0.55 -0.45,-1 -1,-1 l -1,0 c -0.55,0 -1,0.45 -1,1 l 0,0 c 0,0.55 0.45,1 1,1 l 1,0 C -0.45,1 0,0.55 0,0" style="fill:#662113;fill-opacity:1;fill-rule:nonzero;stroke:none"/></g><g id="g68" transform="translate(18.0381,4.7656)"><path id="path70" d="M 0,0 C 0,0 3.344,-2.137 4.056,-2.422 4.212,-2.484 3.69,1.234 3.69,1.234 l -2.416,-0.547 -1.316,-1.531 -0.995,2.078 -2.727,0 c 0,0 -0.524,-3.781 -0.232,-3.625 C -3.358,-2.048 0,0 0,0" style="fill:#c1694f;fill-opacity:1;fill-rule:nonzero;stroke:none"/></g><g id="g72" transform="translate(19.3125,5.4531)"><path id="path74" d="m 0,0 c -0.027,-0.054 -0.362,-0.277 -0.606,-0.765 -0.24,0.125 -0.512,0.237 -0.816,0.312 -1.335,0.329 -2.177,0.039 -2.177,0.039 0,0 0.213,-1.491 0.396,-1.82 0.156,-0.282 0.513,-0.876 0.513,-0.876 0,0 -0.664,-0.343 -0.946,-2.343 l 2.324,0 0.02,0 1.542,0 c -0.281,1.594 -1.078,2.062 -1.078,2.062 0,0 0.828,0.629 1.015,0.891 0.313,0.437 0.393,0.808 0.393,0.808 0,0 -0.051,0.062 -0.145,0.158 0.21,0.091 0.432,0.222 0.659,0.425 C 2.141,-0.172 0,0 0,0" style="fill:#269;fill-opacity:1;fill-rule:nonzero;stroke:none"/></g><g id="g76" transform="translate(13.2917,9.375)"><path id="path78" d="m 0,0 c 0.566,-0.566 3.709,-3.383 3.709,-3.383 0,0 -1.126,-1.242 -3.084,-3.534 -0.197,-0.23 -1.542,4.625 -1.583,5.709 C -0.97,-0.905 -0.271,0.271 0,0" style="fill:#ffd983;fill-opacity:1;fill-rule:nonzero;stroke:none"/></g><g id="g80" transform="translate(22.7301,9.375)"><path id="path82" d="m 0,0 c -0.566,-0.566 -3.418,-3.922 -3.418,-3.922 0,0 0.835,-0.703 2.793,-2.995 0.197,-0.23 1.542,4.625 1.583,5.709 C 0.97,-0.905 0.271,0.271 0,0" style="fill:#ffd983;fill-opacity:1;fill-rule:nonzero;stroke:none"/></g><g id="g84" transform="translate(26.9285,2.6591)"><path id="path86" d="m 0,0 c -0.126,-1.929 -0.83,-2.659 -0.83,-2.659 l 1.385,0 c 0,0 0.189,2.975 -0.555,2.659" style="fill:#662113;fill-opacity:1;fill-rule:nonzero;stroke:none"/></g><g id="g88" transform="translate(17,16)"><path id="path90" d="m 0,0 0,0 c -0.275,0 -0.5,0.225 -0.5,0.5 l 0,1 C -0.5,1.775 -0.275,2 0,2 0.275,2 0.5,1.775 0.5,1.5 l 0,-1 C 0.5,0.225 0.275,0 0,0" style="fill:#99aab5;fill-opacity:1;fill-rule:nonzero;stroke:none"/></g><g id="g92" transform="translate(19,16)"><path id="path94" d="m 0,0 0,0 c -0.275,0 -0.5,0.225 -0.5,0.5 l 0,1 C -0.5,1.775 -0.275,2 0,2 0.275,2 0.5,1.775 0.5,1.5 l 0,-1 C 0.5,0.225 0.275,0 0,0" style="fill:#99aab5;fill-opacity:1;fill-rule:nonzero;stroke:none"/></g><g id="g96" transform="translate(13.811,15.2158)"><path id="path98" d="m 0,0 c -1.71,0 -3.092,1.357 -3.165,1.431 -0.194,0.195 -0.194,0.51 0,0.706 0.195,0.195 0.512,0.195 0.707,0.002 C -2.44,2.121 -0.685,0.404 0.965,1.231 1.212,1.356 1.513,1.254 1.636,1.008 1.76,0.761 1.66,0.461 1.413,0.337 0.931,0.096 0.454,0 0,0" style="fill:#9aaab4;fill-opacity:1;fill-rule:nonzero;stroke:none"/></g><g id="g100" transform="translate(22.1895,15.2158)"><path id="path102" d="m 0,0 c -0.454,0 -0.932,0.096 -1.413,0.337 -0.247,0.124 -0.347,0.424 -0.224,0.671 0.125,0.246 0.424,0.346 0.671,0.223 1.657,-0.829 3.406,0.89 3.423,0.907 0.195,0.195 0.512,0.195 0.707,0 0.195,-0.196 0.195,-0.512 0,-0.707 C 3.092,1.357 1.709,0 0,0" style="fill:#9aaab4;fill-opacity:1;fill-rule:nonzero;stroke:none"/></g><g id="g104" transform="translate(5.6169,2.0378)"><path id="path106" d="M 0,0 C 0.319,0.251 0.872,1.996 1.869,2.411 2.866,2.826 5.076,3.368 5.042,2.321 5.009,1.274 3.702,-0.164 3.974,-0.697 2.994,-1.172 -1.013,-0.796 0,0" style="fill:#662113;fill-opacity:1;fill-rule:nonzero;stroke:none"/></g><g id="g108" transform="translate(6.2385,2.1984)"><path id="path110" d="M 0,0 C 0.319,0.251 0.651,1.746 1.648,2.16 2.645,2.575 4.454,3.208 4.42,2.16 4.387,1.113 3.191,0.476 2.21,0 1.23,-0.476 -1.013,-0.796 0,0" style="fill:#ccd6dd;fill-opacity:1;fill-rule:nonzero;stroke:none"/></g></g></g></g></svg>