<svg xmlns="http://www.w3.org/2000/svg" xmlns:svg="http://www.w3.org/2000/svg" style="enable-background:new 0 0 45 45" id="svg2" version="1.1" viewBox="0 0 45 45" xml:space="preserve"><metadata id="metadata8"/><defs id="defs6"><clipPath id="clipPath16" clipPathUnits="userSpaceOnUse"><path id="path18" d="M 0,36 36,36 36,0 0,0 0,36 Z"/></clipPath></defs><g id="g10" transform="matrix(1.25,0,0,-1.25,0,45)"><g id="g12"><g id="g14" clip-path="url(#clipPath16)"><g id="g20" transform="translate(22,31.5)"><path id="path22" d="m 0,0 c 0,-1.933 -1.791,-3.5 -4,-3.5 -2.209,0 -4,1.567 -4,3.5 0,1.933 1.791,3.5 4,3.5 2.209,0 4,-1.567 4,-3.5" style="fill:#662113;fill-opacity:1;fill-rule:nonzero;stroke:none"/></g><g id="g24" transform="translate(22,30)"><path id="path26" d="m 0,0 c 0,-1.657 -1.791,-3 -4,-3 -2.209,0 -4,1.343 -4,3 0,1.657 1.791,3 4,3 2.209,0 4,-1.343 4,-3" style="fill:#ea596e;fill-opacity:1;fill-rule:nonzero;stroke:none"/></g><g id="g28" transform="translate(8,22)"><path id="path30" d="M 0,0 C 0,0 -1,-14 -1,-19 L 10,-19 10,1 0,0 Z" style="fill:#662113;fill-opacity:1;fill-rule:nonzero;stroke:none"/></g><g id="g32" transform="translate(28,22)"><path id="path34" d="m 0,0 c 0,0 1,-14 1,-19 l -11,0 0,20 10,-1 z" style="fill:#662113;fill-opacity:1;fill-rule:nonzero;stroke:none"/></g><g id="g36" transform="translate(18,24)"><path id="path38" d="m 0,0 0,8 c -5,0 -10,-3 -10,-9 0,-6 2.553,-0.894 3,0 2,4 5,1 7,1" style="fill:#662113;fill-opacity:1;fill-rule:nonzero;stroke:none"/></g><g id="g40" transform="translate(18,24)"><path id="path42" d="M 0,0 0,8 C 5,8 10,5 10,-1 10,-7 7.447,-1.894 7,-1 5,3 2,0 0,0" style="fill:#662113;fill-opacity:1;fill-rule:nonzero;stroke:none"/></g><g id="g44" transform="translate(32,0)"><path id="path46" d="m 0,0 0,1 c 0,3.314 -3.686,7 -7,7 l -14,0 c -3.313,0 -7,-3.686 -7,-7 l 0,-1 28,0 z" style="fill:#5c913b;fill-opacity:1;fill-rule:nonzero;stroke:none"/></g><g id="g48" transform="translate(13.6397,7.899)"><path id="path50" d="m 0,0 c 1.744,-1.267 4.36,-6.899 4.36,-6.899 0,0 2.616,5.633 4.36,6.899 l 0,3.811 L 0,3.811 0,0 Z" style="fill:#f3d2a2;fill-opacity:1;fill-rule:nonzero;stroke:none"/></g><g id="g52" transform="translate(13.6318,10.0272)"><path id="path54" d="m 0,0 c 1.216,-1.374 2.724,-2.027 4.364,-2.027 1.639,0 3.147,0.654 4.364,2.027 l 0,3.491 L 0,3.491 0,0 Z" style="fill:#e2c196;fill-opacity:1;fill-rule:nonzero;stroke:none"/></g><g id="g56" transform="translate(10,21)"><path id="path58" d="m 0,0 c 0,5.589 3.293,8.879 8,8.879 4.707,0 8,-3.29 8,-8.879 0,-8 -5,-12 -8,-12 -3,0 -8,4 -8,12" style="fill:#f3d2a2;fill-opacity:1;fill-rule:nonzero;stroke:none"/></g><g id="g60" transform="translate(14.5,18.25)"><path id="path62" d="m 0,0 0,0 c -0.467,0 -0.85,0.383 -0.85,0.85 l 0,0.8 c 0,0.468 0.383,0.85 0.85,0.85 l 0,0 c 0.467,0 0.85,-0.382 0.85,-0.85 l 0,-0.8 C 0.85,0.383 0.467,0 0,0" style="fill:#662113;fill-opacity:1;fill-rule:nonzero;stroke:none"/></g><g id="g64" transform="translate(21.5,18.25)"><path id="path66" d="m 0,0 0,0 c -0.467,0 -0.85,0.383 -0.85,0.85 l 0,0.8 c 0,0.468 0.383,0.85 0.85,0.85 0.467,0 0.85,-0.382 0.85,-0.85 l 0,-0.8 C 0.85,0.383 0.467,0 0,0" style="fill:#662113;fill-opacity:1;fill-rule:nonzero;stroke:none"/></g><g id="g68" transform="translate(18.65,14.8)"><path id="path70" d="m 0,0 -1.3,0 c -0.33,0 -0.6,0.27 -0.6,0.6 l 0,0 c 0,0.33 0.27,0.6 0.6,0.6 l 1.3,0 c 0.33,0 0.6,-0.27 0.6,-0.6 l 0,0 C 0.6,0.27 0.33,0 0,0" style="fill:#c1694f;fill-opacity:1;fill-rule:nonzero;stroke:none"/></g><g id="g72" transform="translate(18,11.6611)"><path id="path74" d="m 0,0 c -1.256,0 -2.353,0.361 -2.933,0.968 -0.23,0.239 -0.221,0.619 0.018,0.848 0.239,0.229 0.619,0.221 0.848,-0.018 C -1.719,1.435 -0.908,1.2 0,1.2 0.907,1.2 1.719,1.435 2.066,1.798 2.295,2.038 2.675,2.047 2.915,1.816 3.154,1.587 3.162,1.207 2.934,0.968 2.353,0.361 1.256,0 0,0" style="fill:#df1f32;fill-opacity:1;fill-rule:nonzero;stroke:none"/></g><g id="g76" transform="translate(8.11,21.9272)"><path id="path78" d="m 0,0 1.936,-1.849 c 0,0 0.973,-3.051 0,-3.996 C 1.037,-6.72 -3.11,-0.332 -3.11,1 -3.11,2 0,0 0,0" style="fill:#f3d2a2;fill-opacity:1;fill-rule:nonzero;stroke:none"/></g><g id="g80" transform="translate(27.5681,21.9272)"><path id="path82" d="m 0,0 -1.779,-1.849 c 0,0 -0.602,-2.823 0,-3.996 C -1.331,-6.72 3.432,-0.332 3.432,1 3.432,2 0,0 0,0" style="fill:#f3d2a2;fill-opacity:1;fill-rule:nonzero;stroke:none"/></g><g id="g84" transform="translate(18,32)"><path id="path86" d="m 0,0 c -5,0 -9,-3 -9,-9 0,-6 1.445,-0.832 2,0 2,3 5,1 7,1 2,0 5,2 7,-1 0.555,-0.832 2,-6 2,0 0,6 -4,9 -9,9" style="fill:#662113;fill-opacity:1;fill-rule:nonzero;stroke:none"/></g><g id="g88" transform="translate(9,23)"><path id="path90" d="m 0,0 -1,-23 4,0 C 3,-23 0.373,-2.516 2,0 2.698,1.08 0,0 0,0" style="fill:#662113;fill-opacity:1;fill-rule:nonzero;stroke:none"/></g><g id="g92" transform="translate(26.9854,23)"><path id="path94" d="m 0,0 0.986,-23 -4,0 c 0,0 2.646,20.484 1.042,23 C -2.66,1.08 0,0 0,0" style="fill:#662113;fill-opacity:1;fill-rule:nonzero;stroke:none"/></g><g id="g96" transform="translate(18,29)"><path id="path98" d="m 0,0 c 4,0 8,-2 8,-4 0,0 -2,3 -8,3 -6,0 -8,-3 -8,-3 0,0 1,4 8,4" style="fill:#ea596e;fill-opacity:1;fill-rule:nonzero;stroke:none"/></g></g></g></g></svg>