<svg xmlns="http://www.w3.org/2000/svg" xmlns:svg="http://www.w3.org/2000/svg" style="enable-background:new 0 0 45 45" id="svg2" version="1.1" viewBox="0 0 45 45" xml:space="preserve"><metadata id="metadata8"/><defs id="defs6"><clipPath id="clipPath16" clipPathUnits="userSpaceOnUse"><path id="path18" d="M 0,36 36,36 36,0 0,0 0,36 Z"/></clipPath></defs><g id="g10" transform="matrix(1.25,0,0,-1.25,0,45)"><g id="g12"><g id="g14" clip-path="url(#clipPath16)"><g id="g20" transform="translate(22,32.5)"><path id="path22" d="m 0,0 c 0,-1.933 -1.791,-3.5 -4,-3.5 -2.209,0 -4,1.567 -4,3.5 0,1.933 1.791,3.5 4,3.5 2.209,0 4,-1.567 4,-3.5" style="fill:#292f33;fill-opacity:1;fill-rule:nonzero;stroke:none"/></g><g id="g24" transform="translate(30,20)"><path id="path26" d="m 0,0 c 0,-5.523 -5.373,-10 -12,-10 -6.627,0 -12,4.477 -12,10 0,5.523 5.373,10 12,10 C -5.373,10 0,5.523 0,0" style="fill:#292f33;fill-opacity:1;fill-rule:nonzero;stroke:none"/></g><g id="g28" transform="translate(21,32)"><path id="path30" d="m 0,0 c 0,-1.105 -1.343,-2 -3,-2 -1.657,0 -3,0.895 -3,2 0,1.105 1.343,2 3,2 1.657,0 3,-0.895 3,-2" style="fill:#ffcc4d;fill-opacity:1;fill-rule:nonzero;stroke:none"/></g><g id="g32" transform="translate(31,0)"><path id="path34" d="M 0,0 0,4.5 C 0,7.814 -3.561,10 -6.875,10 l -12,0 C -22.188,10 -26,7.814 -26,4.5 L -26,0 0,0 Z" style="fill:#88c9f9;fill-opacity:1;fill-rule:nonzero;stroke:none"/></g><g id="g36" transform="translate(14.5,9.4824)"><path id="path38" d="m 0,0 c 1.466,-1.065 2.792,-0.98 3.5,-0.98 0.708,0 2.194,-0.085 3.488,0.949 L 7,4.108 0,4.108 0,0 Z" style="fill:#88c9f9;fill-opacity:1;fill-rule:nonzero;stroke:none"/></g><g id="g40" transform="translate(14.4825,11.5625)"><path id="path42" d="m 0,0 c 0.973,-0.937 2.674,-1.118 3.508,-1.118 0.823,0 2.537,0.181 3.51,1.118 l 0,3.286 L 0,3.286 0,0 Z" style="fill:#55acee;fill-opacity:1;fill-rule:nonzero;stroke:none"/></g><g id="g44" transform="translate(10.7339,21.373)"><path id="path46" d="m 0,0 c 0,5.834 3.229,10.564 7.211,10.564 3.981,0 7.209,-4.73 7.209,-10.564 0,-5.833 -3.228,-10.285 -7.209,-10.285 C 3.229,-10.285 0,-5.833 0,0" style="fill:#88c9f9;fill-opacity:1;fill-rule:nonzero;stroke:none"/></g><g id="g48" transform="translate(17.9453,13.5479)"><path id="path50" d="m 0,0 c -1.606,0 -2.447,0.794 -2.537,0.885 -0.268,0.266 -0.268,0.7 0,0.967 0.266,0.264 0.692,0.266 0.961,0.006 C -1.541,1.826 -1.025,1.367 0,1.367 1.038,1.367 1.555,1.84 1.576,1.859 1.85,2.115 2.279,2.107 2.539,1.84 2.799,1.571 2.799,1.148 2.535,0.885 2.445,0.794 1.605,0 0,0" style="fill:#df1f32;fill-opacity:1;fill-rule:nonzero;stroke:none"/></g><g id="g52" transform="translate(14.6084,19.2041)"><path id="path54" d="m 0,0 0,0 c -0.465,0 -0.846,0.381 -0.846,0.847 l 0,0.844 c 0,0.465 0.381,0.846 0.846,0.846 0.466,0 0.847,-0.381 0.847,-0.846 l 0,-0.844 C 0.847,0.381 0.466,0 0,0" style="fill:#662113;fill-opacity:1;fill-rule:nonzero;stroke:none"/></g><g id="g56" transform="translate(21.373,19.2041)"><path id="path58" d="m 0,0 0,0 c -0.465,0 -0.846,0.381 -0.846,0.847 l 0,0.844 c 0,0.465 0.381,0.846 0.846,0.846 0.465,0 0.846,-0.381 0.846,-0.846 l 0,-0.844 C 0.846,0.381 0.465,0 0,0" style="fill:#662113;fill-opacity:1;fill-rule:nonzero;stroke:none"/></g><g id="g60" transform="translate(18.8359,16.5908)"><path id="path62" d="m 0,0 -1.69,0 c -0.234,0 -0.423,0.189 -0.423,0.423 l 0,0.153 C -2.113,0.81 -1.924,1 -1.69,1 L 0,1 C 0.233,1 0.424,0.81 0.424,0.576 l 0,-0.153 C 0.424,0.189 0.233,0 0,0" style="fill:#55acee;fill-opacity:1;fill-rule:nonzero;stroke:none"/></g><g id="g64" transform="translate(18.0517,33)"><path id="path66" d="m 0,0 c 8.056,0 10.948,-6.197 10.948,-12.123 0,-5.926 -2.892,-7.877 -2.892,-7.877 0,0 1,1.951 0,3.902 -1,1.952 -1,5.854 -1,5.854 0,0 -2.879,0.286 -5,0.976 -3,0.975 -4,1.951 -4,1.951 0,0 -3,-2.927 -5,-2.927 0,0 0,-1.951 -1,-4.878 -0.633,-1.851 0,-4.878 0,-4.878 0,0 -3,2.927 -3,8.78 C -10.944,-5.366 -8.056,0 0,0" style="fill:#292f33;fill-opacity:1;fill-rule:nonzero;stroke:none"/></g><g id="g68" transform="translate(11.805,20.0582)"><path id="path70" d="m 0,0 c 0.514,-1.282 0.307,-2.57 -0.462,-2.879 -0.769,-0.308 -1.809,0.481 -2.323,1.763 -0.513,1.281 -0.306,2.57 0.462,2.878 C -1.554,2.071 -0.514,1.282 0,0" style="fill:#88c9f9;fill-opacity:1;fill-rule:nonzero;stroke:none"/></g><g id="g72" transform="translate(24.195,20.0582)"><path id="path74" d="M 0,0 C -0.514,-1.282 -0.307,-2.57 0.462,-2.879 1.231,-3.187 2.271,-2.398 2.785,-1.116 3.298,0.165 3.091,1.454 2.323,1.762 1.554,2.071 0.514,1.282 0,0" style="fill:#88c9f9;fill-opacity:1;fill-rule:nonzero;stroke:none"/></g><g id="g76" transform="translate(9.0005,0)"><path id="path78" d="m 0,0 c 0,0 -1,3 1,4 2.828,1.414 7,-3 8,-3 1,0 5.171,4.414 8,3 2,-1 1,-4 1,-4 L 0,0 Z" style="fill:#a0041e;fill-opacity:1;fill-rule:nonzero;stroke:none"/></g><g id="g80" transform="translate(18,7)"><path id="path82" d="m 0,0 c 3,0 4,3 4,3 l 1,0 c 0,0 0,-5 -5,-5 -5,0 -5,5 -5,5 l 1,0 c 0,0 1,-3 4,-3" style="fill:#ffcc4d;fill-opacity:1;fill-rule:nonzero;stroke:none"/></g></g></g></g></svg>