<svg xmlns="http://www.w3.org/2000/svg" xmlns:svg="http://www.w3.org/2000/svg" style="enable-background:new 0 0 45 45" id="svg2" version="1.1" viewBox="0 0 45 45" xml:space="preserve"><metadata id="metadata8"/><defs id="defs6"><clipPath id="clipPath16" clipPathUnits="userSpaceOnUse"><path id="path18" d="M 0,36 36,36 36,0 0,0 0,36 Z"/></clipPath></defs><g id="g10" transform="matrix(1.25,0,0,-1.25,0,45)"><g id="g12"><g id="g14" clip-path="url(#clipPath16)"><g id="g20" transform="translate(20.7689,15.7271)"><path id="path22" d="m 0,0 c -4.558,-6.089 -5.676,-12.675 -2.497,-14.71 3.178,-2.035 9.45,1.252 14.008,7.341 C 16.069,-1.28 14.263,9.66 14.008,9.262 12.231,6.488 4.558,6.089 0,0" style="fill:#abdfff;fill-opacity:1;fill-rule:nonzero;stroke:none"/></g><g id="g24" transform="translate(15.2555,15.7271)"><path id="path26" d="m 0,0 c 4.558,-6.089 5.676,-12.675 2.498,-14.71 -3.179,-2.035 -9.451,1.252 -14.009,7.341 C -16.069,-1.28 -14.351,9.6 -14.008,9.262 -10.255,5.563 -4.558,6.089 0,0" style="fill:#abdfff;fill-opacity:1;fill-rule:nonzero;stroke:none"/></g><g id="g28" transform="translate(31.4018,18.1712)"><path id="path30" d="m 0,0 c -0.96,-1.604 -1.586,-3.147 -4.251,-5.659 -1.029,-0.971 -0.94,-2.246 0.18,-1.398 2.663,2.015 4.305,5.221 4.847,7.268 C 1.158,1.652 0.484,0.808 0,0 m -26.804,0 c 0.96,-1.604 1.586,-3.147 4.251,-5.659 1.03,-0.971 0.941,-2.246 -0.179,-1.398 -2.664,2.015 -4.306,5.221 -4.848,7.268 -0.382,1.441 0.293,0.597 0.776,-0.211" style="fill:#55acee;fill-opacity:1;fill-rule:nonzero;stroke:none"/></g><g id="g32" transform="translate(31,0)"><path id="path34" d="M 0,0 0,3.5 C 0,6.814 -3.686,9 -7,9 l -12,0 c -3.313,0 -7,-2.186 -7,-5.5 L -26,0 0,0 Z" style="fill:#f3d2a2;fill-opacity:1;fill-rule:nonzero;stroke:none"/></g><g id="g36" transform="translate(17.9453,32.9307)"><path id="path38" d="m 0,0 c 4.105,0 10.947,-4.053 10.947,-12.947 0,-8.896 0,-10.948 -2.052,-10.948 -2.053,0 -4.79,2.052 -8.895,2.052 -4.105,0 -6.785,-2.052 -8.895,-2.052 -2.288,0 -2.054,8.21 -2.054,10.948 C -10.949,-4.053 -4.105,0 0,0" style="fill:#ffe51e;fill-opacity:1;fill-rule:nonzero;stroke:none"/></g><g id="g40" transform="translate(14.3281,8.9824)"><path id="path42" d="m 0,0 c 1.466,-1.065 2.964,-0.98 3.672,-0.98 0.708,0 2.194,-0.085 3.66,0.98 l 0,3.203 L 0,3.203 0,0 Z" style="fill:#f3d2a2;fill-opacity:1;fill-rule:nonzero;stroke:none"/></g><g id="g44" transform="translate(14.3223,10.8213)"><path id="path46" d="m 0,0 c 1.022,-1.155 2.29,-1.468 3.668,-1.468 1.379,0 2.647,0.313 3.67,1.468 l 0,2.936 L 0,2.936 0,0 Z" style="fill:#e2c196;fill-opacity:1;fill-rule:nonzero;stroke:none"/></g><g id="g48" transform="translate(9.7339,20.2822)"><path id="path50" d="m 0,0 c 0,5.834 3.676,12.564 8.211,12.564 4.534,0 8.209,-6.73 8.209,-12.564 0,-5.833 -3.675,-10.285 -8.209,-10.285 C 3.676,-10.285 0,-5.833 0,0" style="fill:#f3d2a2;fill-opacity:1;fill-rule:nonzero;stroke:none"/></g><g id="g52" transform="translate(17.9453,12.457)"><path id="path54" d="m 0,0 c -1.606,0 -2.447,0.794 -2.537,0.885 -0.268,0.266 -0.268,0.7 0,0.967 0.266,0.264 0.692,0.266 0.961,0.006 C -1.541,1.826 -1.025,1.367 0,1.367 1.038,1.367 1.555,1.84 1.576,1.859 1.85,2.115 2.279,2.107 2.539,1.84 2.799,1.571 2.799,1.148 2.535,0.885 2.445,0.794 1.605,0 0,0" style="fill:#df1f32;fill-opacity:1;fill-rule:nonzero;stroke:none"/></g><g id="g56" transform="translate(7.7251,17)"><path id="path58" d="m 0,0 c -0.021,1 -0.044,0.224 -0.044,0.465 0,3.422 2.053,-0.494 2.053,1.943 0,2.439 1.368,2.683 2.737,4.051 0.684,0.685 2.052,2.026 2.052,2.026 0,0 3.421,-2.067 6.158,-2.067 2.737,0 5.474,-1.375 5.474,-4.112 0,-2.737 2.053,1.584 2.053,-1.837 C 20.483,0.225 20.46,1 20.443,0 l 0.719,0 c 0.005,2 0.005,1.924 0.005,3.202 0,8.895 -4.892,12.729 -10.948,12.729 C 4.275,15.931 -0.728,12.152 -0.728,3.257 -0.728,2.464 -0.748,2 -0.72,0 L 0,0 Z" style="fill:#ffe51e;fill-opacity:1;fill-rule:nonzero;stroke:none"/></g><g id="g60" transform="translate(26,21)"><path id="path62" d="m 0,0 -0.47,-0.129 c 0,0 -1.192,-3.4 -0.001,-3.996 C 2.194,-5.457 3,-0.332 3,1 3,2 0,0 0,0" style="fill:#f3d2a2;fill-opacity:1;fill-rule:nonzero;stroke:none"/></g><g id="g64" transform="translate(10,21)"><path id="path66" d="m 0,0 0.47,-0.129 c 0,0 1.192,-3.4 0.001,-3.996 C -2.194,-5.457 -3,-0.332 -3,1 -3,2 0,0 0,0" style="fill:#f3d2a2;fill-opacity:1;fill-rule:nonzero;stroke:none"/></g><g id="g68" transform="translate(14.6084,18.1133)"><path id="path70" d="m 0,0 0,0 c -0.465,0 -0.846,0.381 -0.846,0.847 l 0,0.844 c 0,0.465 0.381,0.846 0.846,0.846 0.466,0 0.847,-0.381 0.847,-0.846 l 0,-0.844 C 0.847,0.381 0.466,0 0,0" style="fill:#662113;fill-opacity:1;fill-rule:nonzero;stroke:none"/></g><g id="g72" transform="translate(21.373,18.1133)"><path id="path74" d="m 0,0 0,0 c -0.465,0 -0.846,0.381 -0.846,0.847 l 0,0.844 c 0,0.465 0.381,0.846 0.846,0.846 0.465,0 0.846,-0.381 0.846,-0.846 l 0,-0.844 C 0.846,0.381 0.465,0 0,0" style="fill:#662113;fill-opacity:1;fill-rule:nonzero;stroke:none"/></g><g id="g76" transform="translate(18.8359,15.5)"><path id="path78" d="m 0,0 -1.69,0 c -0.234,0 -0.423,0.189 -0.423,0.423 l 0,0.153 C -2.113,0.81 -1.924,1 -1.69,1 L 0,1 C 0.233,1 0.424,0.81 0.424,0.576 l 0,-0.153 C 0.424,0.189 0.233,0 0,0" style="fill:#c1694f;fill-opacity:1;fill-rule:nonzero;stroke:none"/></g><g id="g80" transform="translate(9,0)"><path id="path82" d="M 0,0 18,0 18,5 15.5,3 13.5,5 11.281,3 9,5 6.766,3 4.516,5 2.5,3 0,5 0,0 Z" style="fill:#77b255;fill-opacity:1;fill-rule:nonzero;stroke:none"/></g></g></g></g></svg>