<svg xmlns="http://www.w3.org/2000/svg" xmlns:svg="http://www.w3.org/2000/svg" style="enable-background:new 0 0 45 45" id="svg2" version="1.1" viewBox="0 0 45 45" xml:space="preserve"><metadata id="metadata8"/><defs id="defs6"><clipPath id="clipPath16" clipPathUnits="userSpaceOnUse"><path id="path18" d="M 0,36 36,36 36,0 0,0 0,36 Z"/></clipPath></defs><g id="g10" transform="matrix(1.25,0,0,-1.25,0,45)"><g id="g12"><g id="g14" clip-path="url(#clipPath16)"><g id="g20" transform="translate(29.6374,17.3642)"><path id="path22" d="m 0,0 c -0.305,0.612 -1.02,0.844 -1.589,0.515 l -3.101,-1.789 -1.718,3.443 0.012,0.009 c -0.171,0.34 -0.336,0.669 -0.502,0.973 L -6.909,3.174 C -6.911,3.177 -6.914,3.179 -6.915,3.182 -7.373,4.015 -7.84,4.636 -8.466,4.636 l -10.014,0 -0.113,0 C -18.959,4.632 -19.281,4.469 -19.524,4.161 L -20.32,3.152 c -0.25,-0.289 -0.494,-0.597 -0.713,-0.904 l -5.2,-6.589 c -0.425,-0.54 -0.332,-1.33 0.207,-1.756 0.54,-0.426 1.33,-0.333 1.756,0.207 l 5.821,7.378 0.812,-6.856 -0.725,-3.971 9.386,0 -0.661,3.971 0.77,7.128 2.664,-5.34 c 0.305,-0.611 1.02,-0.843 1.588,-0.515 l 4.136,2.386 C 0.089,-1.381 0.305,-0.612 0,0" style="fill:#d5ab88;fill-opacity:1;fill-rule:nonzero;stroke:none"/></g><g id="g24" transform="translate(14,25)"><path id="path26" d="m 0,0 0,-4 c 0,-1.104 0.896,-2 2,-2 1.105,0 2,0.896 2,2 L 4,0 0,0 Z" style="fill:#d5ab88;fill-opacity:1;fill-rule:nonzero;stroke:none"/></g><g id="g28" transform="translate(18,26)"><path id="path30" d="M 0,0 -4,-0.019 -4,-4 c 0,0 2,-1 4,0 l 0,4 z" style="fill:#cc9b7a;fill-opacity:1;fill-rule:nonzero;stroke:none"/></g><g id="g32" transform="translate(21,31)"><path id="path34" d="M 0,0 -10,1.007 -10,-4 -10,-4.001 C -10,-6.763 -7.762,-9 -5,-9 c 2.762,0 5,2.237 5,4.999 L 0,-4 0,0 Z" style="fill:#d5ab88;fill-opacity:1;fill-rule:nonzero;stroke:none"/></g><g id="g36" transform="translate(18,24)"><path id="path38" d="m 0,0 -2,0 -2,0 c 0,0 0,-1 2,-1 2,0 2,1 2,1" style="fill:#c1694f;fill-opacity:1;fill-rule:nonzero;stroke:none"/></g><g id="g40" transform="translate(14,27.5)"><path id="path42" d="M 0,0 C 0,-0.276 -0.224,-0.5 -0.5,-0.5 -0.776,-0.5 -1,-0.276 -1,0 -1,0.276 -0.776,0.5 -0.5,0.5 -0.224,0.5 0,0.276 0,0" style="fill:#662113;fill-opacity:1;fill-rule:nonzero;stroke:none"/></g><g id="g44" transform="translate(19,27.5)"><path id="path46" d="M 0,0 C 0,-0.276 -0.224,-0.5 -0.5,-0.5 -0.776,-0.5 -1,-0.276 -1,0 -1,0.276 -0.776,0.5 -0.5,0.5 -0.224,0.5 0,0.276 0,0" style="fill:#662113;fill-opacity:1;fill-rule:nonzero;stroke:none"/></g><g id="g48" transform="translate(15,26)"><path id="path50" d="M 0,0 1,0 2,0 C 2,0 2,-1 1,-1 0,-1 0,0 0,0" style="fill:#c1694f;fill-opacity:1;fill-rule:nonzero;stroke:none"/></g><g id="g52" transform="translate(16.0002,34.9569)"><path id="path54" d="m 0,0 c 3.433,0 5.578,-2.533 5.578,-4.644 0,-2.11 -0.429,-2.955 -0.858,-2.11 -0.43,0.844 -0.859,1.688 -0.859,1.688 0,0 -2.574,0 -3.432,0.845 0,0 1.287,-2.533 -1.287,0 0,0 0.429,-1.689 -2.145,0.421 0,0 -1.288,-0.844 -1.717,-2.954 -0.119,-0.586 -0.858,0 -0.858,2.11 C -5.578,-2.533 -3.862,0 0,0" style="fill:#963b22;fill-opacity:1;fill-rule:nonzero;stroke:none"/></g><g id="g56" transform="translate(10,5)"><path id="path58" d="m 0,0 8,0 c 1.65,0 3,1.35 3,3 l 0,1 C 11,5.1 10.1,6 9,6 L 0,6 C -1.65,6 -3,4.65 -3,3 l 0,0 C -3,1.35 -1.65,0 0,0" style="fill:#3b88c3;fill-opacity:1;fill-rule:nonzero;stroke:none"/></g><g id="g60" transform="translate(7.2781,9.2514)"><path id="path62" d="m 0,0 c -1.043,-2.463 0.19,-6.077 3.722,-7.251 1.979,-0.659 6.075,-1.291 9.662,-0.659 4.291,0.758 7.397,3.474 7.397,3.474 l -1.725,1.492 c 0,0 -2.22,-0.764 -4.334,-0.861 -3.894,-0.179 -8.488,2.926 -11,3.554 C 0.844,0.468 0,0 0,0" style="fill:#3b88c3;fill-opacity:1;fill-rule:nonzero;stroke:none"/></g><g id="g64" transform="translate(25.7565,4.3258)"><path id="path66" d="m 0,0 c -0.651,0.742 -0.535,2.842 0.968,4.161 2.253,1.98 2.912,3.983 3.663,4.642 0,0 0.88,-3.988 -1.374,-5.967 0,0 3.832,2.537 6.382,1.701 C 5.92,2.956 5.836,0.448 3.564,-0.368 1.682,-1.044 0.651,-0.742 0,0" style="fill:#3b88c3;fill-opacity:1;fill-rule:nonzero;stroke:none"/></g><g id="g68" transform="translate(19.4473,5.7314)"><path id="path70" d="M 0,0 C -0.023,0 -0.049,0.002 -0.073,0.007 -2.313,0.453 -6.86,2.554 -7.052,2.644 -7.24,2.73 -7.322,2.953 -7.235,3.141 -7.148,3.33 -6.923,3.412 -6.737,3.323 -6.69,3.302 -2.08,1.171 0.073,0.743 0.276,0.702 0.408,0.505 0.368,0.302 0.332,0.123 0.176,0 0,0" style="fill:#292f33;fill-opacity:1;fill-rule:nonzero;stroke:none"/></g></g></g></g></svg>