<svg xmlns="http://www.w3.org/2000/svg" xmlns:svg="http://www.w3.org/2000/svg" style="enable-background:new 0 0 45 45" id="svg2" version="1.1" viewBox="0 0 45 45" xml:space="preserve"><metadata id="metadata8"/><defs id="defs6"><clipPath id="clipPath16" clipPathUnits="userSpaceOnUse"><path id="path18" d="M 0,36 36,36 36,0 0,0 0,36 Z"/></clipPath><clipPath id="clipPath36" clipPathUnits="userSpaceOnUse"><path id="path38" d="M 4,36 C 1.791,36 0,34.209 0,32 L 0,32 0,4 C 0,1.791 1.791,0 4,0 l 0,0 28,0 c 2.209,0 4,1.791 4,4 l 0,0 0,28 c 0,2.209 -1.791,4 -4,4 l 0,0 -28,0 z"/></clipPath><clipPath id="clipPath44" clipPathUnits="userSpaceOnUse"><path id="path46" d="m -6,20 23,0 0,-20.6875 -23,0 L -6,20 Z"/></clipPath><clipPath id="clipPath80" clipPathUnits="userSpaceOnUse"><path id="path82" d="M 19.8262,22 39,22 l 0,-22.564026 -19.1738,0 0,22.564026 z"/></clipPath><clipPath id="clipPath116" clipPathUnits="userSpaceOnUse"><path id="path118" d="M 0,36 36,36 36,0 0,0 0,36 Z"/></clipPath><clipPath id="clipPath190" clipPathUnits="userSpaceOnUse"><path id="path192" d="M 4,36 C 1.791,36 0,34.209 0,32 L 0,32 0,4 C 0,1.791 1.791,0 4,0 l 0,0 28,0 c 2.209,0 4,1.791 4,4 l 0,0 0,28 c 0,2.209 -1.791,4 -4,4 l 0,0 -28,0 z"/></clipPath><clipPath id="clipPath198" clipPathUnits="userSpaceOnUse"><path id="path200" d="m -3,13 20,0 0,-15 -20,0 0,15 z"/></clipPath><clipPath id="clipPath234" clipPathUnits="userSpaceOnUse"><path id="path236" d="m 19,12 18,0 0,-16 -18,0 0,16 z"/></clipPath></defs><g id="g10" transform="matrix(1.25,0,0,-1.25,0,45)"><g id="g12"><g id="g14" clip-path="url(#clipPath16)"><g id="g20" transform="translate(36,4)"><path id="path22" d="m 0,0 c 0,-2.209 -1.791,-4 -4,-4 l -28,0 c -2.209,0 -4,1.791 -4,4 l 0,28 c 0,2.209 1.791,4 4,4 l 28,0 c 2.209,0 4,-1.791 4,-4 L 0,0 Z" style="fill:#c1694f;fill-opacity:1;fill-rule:nonzero;stroke:none"/></g><path id="path24" d="m 36,28 -36,0 0,4 36,0 0,-4 z" style="fill:#d99e82;fill-opacity:1;fill-rule:nonzero;stroke:none"/><path id="path26" d="m 36,20 -36,0 0,4 36,0 0,-4 z" style="fill:#d99e82;fill-opacity:1;fill-rule:nonzero;stroke:none"/><path id="path28" d="m 36,12 -36,0 0,4 36,0 0,-4 z" style="fill:#d99e82;fill-opacity:1;fill-rule:nonzero;stroke:none"/><path id="path30" d="M 36,4 0,4 0,8 36,8 36,4 Z" style="fill:#d99e82;fill-opacity:1;fill-rule:nonzero;stroke:none"/></g></g><g id="g32"><g id="g34" clip-path="url(#clipPath36)"><g id="g40"><g id="g48"><g style="opacity:.75" id="g50" clip-path="url(#clipPath44)"><g id="g52" transform="translate(8,11)"><path id="path54" d="M 0,0 C 0,1.657 1.343,3 3,3 4.657,3 6,1.657 6,0 6,-1.657 4.657,-3 3,-3 1.343,-3 0,-1.657 0,0" style="fill:#e1e8ed;fill-opacity:1;fill-rule:nonzero;stroke:none"/></g><g id="g56" transform="translate(4,13)"><path id="path58" d="M 0,0 C 0,1.657 1.343,3 3,3 4.657,3 6,1.657 6,0 6,-1.657 4.657,-3 3,-3 1.343,-3 0,-1.657 0,0" style="fill:#e1e8ed;fill-opacity:1;fill-rule:nonzero;stroke:none"/></g><g id="g60" transform="translate(2,16)"><path id="path62" d="M 0,0 C 0,1.657 1.343,3 3,3 4.657,3 6,1.657 6,0 6,-1.657 4.657,-3 3,-3 1.343,-3 0,-1.657 0,0" style="fill:#e1e8ed;fill-opacity:1;fill-rule:nonzero;stroke:none"/></g><g id="g64" transform="translate(-2,17)"><path id="path66" d="M 0,0 C 0,1.657 1.343,3 3,3 4.657,3 6,1.657 6,0 6,-1.657 4.657,-3 3,-3 1.343,-3 0,-1.657 0,0" style="fill:#e1e8ed;fill-opacity:1;fill-rule:nonzero;stroke:none"/></g><g id="g68" transform="translate(-6,16)"><path id="path70" d="M 0,0 C 0,1.657 1.343,3 3,3 4.657,3 6,1.657 6,0 6,-1.657 4.657,-3 3,-3 1.343,-3 0,-1.657 0,0" style="fill:#e1e8ed;fill-opacity:1;fill-rule:nonzero;stroke:none"/></g><g id="g72" transform="translate(-5,17)"><path id="path74" d="m 0,0 11,0 9,-10 2,-7.687 L 0,-17.625 0,0 Z" style="fill:#e1e8ed;fill-opacity:1;fill-rule:nonzero;stroke:none"/></g></g></g></g><g id="g76"><g id="g84"><g style="opacity:.75" id="g86" clip-path="url(#clipPath80)"><g id="g88" transform="translate(27,11)"><path id="path90" d="m 0,0 c 0,1.657 -1.343,3 -3,3 -1.657,0 -3,-1.343 -3,-3 0,-1.657 1.343,-3 3,-3 1.657,0 3,1.343 3,3" style="fill:#e1e8ed;fill-opacity:1;fill-rule:nonzero;stroke:none"/></g><g id="g92" transform="translate(30,13)"><path id="path94" d="m 0,0 c 0,1.657 -1.343,3 -3,3 -1.657,0 -3,-1.343 -3,-3 0,-1.657 1.343,-3 3,-3 1.657,0 3,1.343 3,3" style="fill:#e1e8ed;fill-opacity:1;fill-rule:nonzero;stroke:none"/></g><g id="g96" transform="translate(33,15)"><path id="path98" d="m 0,0 c 0,1.657 -1.343,3 -3,3 -1.657,0 -3,-1.343 -3,-3 0,-1.657 1.343,-3 3,-3 1.657,0 3,1.343 3,3" style="fill:#e1e8ed;fill-opacity:1;fill-rule:nonzero;stroke:none"/></g><g id="g100" transform="translate(35,18)"><path id="path102" d="m 0,0 c 0,1.657 -1.343,3 -3,3 -1.657,0 -3,-1.343 -3,-3 0,-1.657 1.343,-3 3,-3 1.657,0 3,1.343 3,3" style="fill:#e1e8ed;fill-opacity:1;fill-rule:nonzero;stroke:none"/></g><g id="g104" transform="translate(39,19)"><path id="path106" d="m 0,0 c 0,1.657 -1.343,3 -3,3 -1.657,0 -3,-1.343 -3,-3 0,-1.657 1.343,-3 3,-3 1.657,0 3,1.343 3,3" style="fill:#e1e8ed;fill-opacity:1;fill-rule:nonzero;stroke:none"/></g><g id="g108" transform="translate(37,18)"><path id="path110" d="M 0,0 -8,-2 -16,-8 -17.174,-18.564 0,-18.562 0,0 Z" style="fill:#e1e8ed;fill-opacity:1;fill-rule:nonzero;stroke:none"/></g></g></g></g></g></g><g id="g112"><g id="g114" clip-path="url(#clipPath116)"><g id="g120" transform="translate(19.3293,35)"><path id="path122" d="m 0,0 c -1.681,0 -3.238,-0.523 -4.524,-1.41 -0.261,0.039 -0.523,0.08 -0.795,0.08 -2.938,0 -5.01,-2.732 -5.01,-5.67 l 0,-8 c 0,-5.142 3.858,-8.939 9,-8.939 5.142,0 8.914,4.311 8.997,8.87 L 7.671,-8 C 7.587,-3.009 4.407,0 0,0" style="fill:#292f33;fill-opacity:1;fill-rule:nonzero;stroke:none"/></g><g id="g124" transform="translate(13.5429,0)"><path id="path126" d="m 0,0 8.914,0 0,1.571 3.543,-0.571 0,12 c 0,2 -1.531,3 -3,3 l -10,0 c -1.469,0 -3,-1 -3,-3 l 0,-12 L 0,1.571 0,0 Z" style="fill:#f7dece;fill-opacity:1;fill-rule:nonzero;stroke:none"/></g><g id="g128" transform="translate(20,21)"><path id="path130" d="m 0,0 -4,0 0,-6 c 0,0 1.34,-1.33 4,0 l 0,6 z" style="fill:#f7dece;fill-opacity:1;fill-rule:nonzero;stroke:none"/></g><g id="g132" transform="translate(20,22)"><path id="path134" d="m 0,0 -4,0 0,-6 c 0,0 2,-1 4,0 l 0,6 z" style="fill:#eec2ad;fill-opacity:1;fill-rule:nonzero;stroke:none"/></g><g id="g136" transform="translate(15,30)"><path id="path138" d="m 0,0 c 0,0 -1,-3 -4,-4 l 0,-3 c 0,-3.674 3.327,-6.619 6.999,-6.619 3.673,0 7.001,2.945 7.001,6.619 l 0,3 C 2,-4 0,0 0,0" style="fill:#f7dece;fill-opacity:1;fill-rule:nonzero;stroke:none"/></g><g id="g140" transform="translate(21,20)"><path id="path142" d="m 0,0 -3,0 -3,0 c 0,0 0.613,-1.552 3,-1.552 2.387,0 3,1.552 3,1.552" style="fill:#df1f32;fill-opacity:1;fill-rule:nonzero;stroke:none"/></g><g id="g144" transform="translate(15.871,23.2742)"><path id="path146" d="m 0,0 c 0,-0.401 -0.325,-0.726 -0.726,-0.726 -0.401,0 -0.726,0.325 -0.726,0.726 0,0.401 0.325,0.726 0.726,0.726 C -0.325,0.726 0,0.401 0,0" style="fill:#662113;fill-opacity:1;fill-rule:nonzero;stroke:none"/></g><g id="g148" transform="translate(21.5806,23.2742)"><path id="path150" d="m 0,0 c 0,-0.401 -0.325,-0.726 -0.726,-0.726 -0.401,0 -0.726,0.325 -0.726,0.726 0,0.401 0.325,0.726 0.726,0.726 C -0.325,0.726 0,0.401 0,0" style="fill:#662113;fill-opacity:1;fill-rule:nonzero;stroke:none"/></g><g id="g152" transform="translate(17,22)"><path id="path154" d="M 0,0 1,0 2,0 C 2,0 2,-1 1,-1 0,-1 0,0 0,0" style="fill:#c1694f;fill-opacity:1;fill-rule:nonzero;stroke:none"/></g><g id="g156" transform="translate(12.2286,1.1143)"><path id="path158" d="m 0,0 c 0,-0.615 -0.499,-1.114 -1.114,-1.114 -0.616,0 -1.115,0.499 -1.115,1.114 0,0.615 0.499,1.114 1.115,1.114 C -0.499,1.114 0,0.615 0,0" style="fill:#f7dece;fill-opacity:1;fill-rule:nonzero;stroke:none"/></g><g id="g160" transform="translate(26,1.1143)"><path id="path162" d="m 0,0 c 0,-0.615 -0.499,-1.114 -1.114,-1.114 -0.616,0 -1.115,0.499 -1.115,1.114 0,0.615 0.499,1.114 1.115,1.114 C -0.499,1.114 0,0.615 0,0" style="fill:#f7dece;fill-opacity:1;fill-rule:nonzero;stroke:none"/></g><path id="path164" d="M 24,0 12,0 12,13 24,13 24,0 Z" style="fill:#9266cc;fill-opacity:1;fill-rule:nonzero;stroke:none"/><g id="g166" transform="translate(23,0)"><path id="path168" d="m 0,0 -4,0 0,9 c 0,0 0,3 -2,4 L 0,13 0,0 Z" style="fill:#cbb7ea;fill-opacity:1;fill-rule:nonzero;stroke:none"/></g><g id="g170" transform="translate(24,0)"><path id="path172" d="m 0,0 -4,0 0,9 c 0,0 0,3 -2,4 L 0,13 0,0 Z" style="fill:#744eaa;fill-opacity:1;fill-rule:nonzero;stroke:none"/></g><g id="g174" transform="translate(18,13)"><path id="path176" d="m 0,0 -6,0 0,-1 7.121,0 C 0.844,-0.598 0.481,-0.24 0,0" style="fill:#744eaa;fill-opacity:1;fill-rule:nonzero;stroke:none"/></g><g id="g178" transform="translate(18.1212,12)"><path id="path180" d="M 0,0 1,0 C 0.723,0.402 0.36,0.76 -0.121,1 l -1,0 C -0.64,0.76 -0.277,0.402 0,0" style="fill:#9266cc;fill-opacity:1;fill-rule:nonzero;stroke:none"/></g><g id="g182" transform="translate(18,13)"><path id="path184" d="M 0,0 C 0.481,-0.24 0.844,-0.598 1.121,-1 L 6,-1 6,0 0,0 Z" style="fill:#553788;fill-opacity:1;fill-rule:nonzero;stroke:none"/></g></g></g><g id="g186"><g id="g188" clip-path="url(#clipPath190)"><g id="g194"><g id="g202"><g style="opacity:.85000598" id="g204" clip-path="url(#clipPath198)"><g id="g206" transform="translate(11,1)"><path id="path208" d="M 0,0 C 0,1.657 1.343,3 3,3 4.657,3 6,1.657 6,0 6,-1.657 4.657,-3 3,-3 1.343,-3 0,-1.657 0,0" style="fill:#f5f8fa;fill-opacity:1;fill-rule:nonzero;stroke:none"/></g><g id="g210" transform="translate(7,4)"><path id="path212" d="M 0,0 C 0,1.657 1.343,3 3,3 4.657,3 6,1.657 6,0 6,-1.657 4.657,-3 3,-3 1.343,-3 0,-1.657 0,0" style="fill:#f5f8fa;fill-opacity:1;fill-rule:nonzero;stroke:none"/></g><g id="g214" transform="translate(6,8)"><path id="path216" d="M 0,0 C 0,1.657 1.343,3 3,3 4.657,3 6,1.657 6,0 6,-1.657 4.657,-3 3,-3 1.343,-3 0,-1.657 0,0" style="fill:#f5f8fa;fill-opacity:1;fill-rule:nonzero;stroke:none"/></g><g id="g218" transform="translate(1,10)"><path id="path220" d="M 0,0 C 0,1.657 1.343,3 3,3 4.657,3 6,1.657 6,0 6,-1.657 4.657,-3 3,-3 1.343,-3 0,-1.657 0,0" style="fill:#f5f8fa;fill-opacity:1;fill-rule:nonzero;stroke:none"/></g><g id="g222" transform="translate(-3,8)"><path id="path224" d="M 0,0 C 0,1.657 1.343,3 3,3 4.657,3 6,1.657 6,0 6,-1.657 4.657,-3 3,-3 1.343,-3 0,-1.657 0,0" style="fill:#f5f8fa;fill-opacity:1;fill-rule:nonzero;stroke:none"/></g><g id="g226" transform="translate(-1,9)"><path id="path228" d="m 0,0 11,0 4,-8 0,-3 -15,0 0,11 z" style="fill:#f5f8fa;fill-opacity:1;fill-rule:nonzero;stroke:none"/></g></g></g></g><g id="g230"><g id="g238"><g style="opacity:.85000598" id="g240" clip-path="url(#clipPath234)"><g id="g242" transform="translate(25,-1)"><path id="path244" d="m 0,0 c 0,1.657 -1.343,3 -3,3 -1.657,0 -3,-1.343 -3,-3 0,-1.657 1.343,-3 3,-3 1.657,0 3,1.343 3,3" style="fill:#f5f8fa;fill-opacity:1;fill-rule:nonzero;stroke:none"/></g><g id="g246" transform="translate(28,2)"><path id="path248" d="m 0,0 c 0,1.657 -1.343,3 -3,3 -1.657,0 -3,-1.343 -3,-3 0,-1.657 1.343,-3 3,-3 1.657,0 3,1.343 3,3" style="fill:#f5f8fa;fill-opacity:1;fill-rule:nonzero;stroke:none"/></g><g id="g250" transform="translate(29,6)"><path id="path252" d="m 0,0 c 0,1.657 -1.343,3 -3,3 -1.657,0 -3,-1.343 -3,-3 0,-1.657 1.343,-3 3,-3 1.657,0 3,1.343 3,3" style="fill:#f5f8fa;fill-opacity:1;fill-rule:nonzero;stroke:none"/></g><g id="g254" transform="translate(32,9)"><path id="path256" d="m 0,0 c 0,1.657 -1.343,3 -3,3 -1.657,0 -3,-1.343 -3,-3 0,-1.657 1.343,-3 3,-3 1.657,0 3,1.343 3,3" style="fill:#f5f8fa;fill-opacity:1;fill-rule:nonzero;stroke:none"/></g><g id="g258" transform="translate(37,8)"><path id="path260" d="m 0,0 c 0,1.657 -1.343,3 -3,3 -1.657,0 -3,-1.343 -3,-3 0,-1.657 1.343,-3 3,-3 1.657,0 3,1.343 3,3" style="fill:#f5f8fa;fill-opacity:1;fill-rule:nonzero;stroke:none"/></g><g id="g262" transform="translate(37,9)"><path id="path264" d="m 0,0 -11,0 -4,-8 0,-3 15,0 0,11 z" style="fill:#f5f8fa;fill-opacity:1;fill-rule:nonzero;stroke:none"/></g></g></g></g></g></g></g></svg>