<svg xmlns="http://www.w3.org/2000/svg" xmlns:svg="http://www.w3.org/2000/svg" style="enable-background:new 0 0 45 45" id="svg2" version="1.1" viewBox="0 0 45 45" xml:space="preserve"><metadata id="metadata8"/><defs id="defs6"><clipPath id="clipPath16" clipPathUnits="userSpaceOnUse"><path id="path18" d="M 0,36 36,36 36,0 0,0 0,36 Z"/></clipPath></defs><g id="g10" transform="matrix(1.25,0,0,-1.25,0,45)"><g id="g12"><g id="g14" clip-path="url(#clipPath16)"><g id="g20" transform="translate(29.0801,4.9307)"><path id="path22" d="M 0,0 C 0,0 -0.77,-0.477 -1.539,0 -2.309,0.477 -1.85,1.246 -1.85,1.246 -2.717,1.321 -2.807,2.124 -2.492,2.85 -2.999,2.989 -3.53,3.069 -4.08,3.069 l -14,0 c -3.314,0 -6,-2.686 -6,-6 l 0,-2 26,0 0,2 c 0,0.621 -0.094,1.219 -0.269,1.782 C -0.033,-1.791 0,0 0,0" style="fill:#3b88c3;fill-opacity:1;fill-rule:nonzero;stroke:none"/></g><g id="g24" transform="translate(25.9285,2.6591)"><path id="path26" d="m 0,0 c -0.126,-1.929 -0.83,-2.659 -0.83,-2.659 l 1.385,0 c 0,0 0.189,2.975 -0.555,2.659" style="fill:#662113;fill-opacity:1;fill-rule:nonzero;stroke:none"/></g><g id="g28" transform="translate(6.6169,2.0378)"><path id="path30" d="M 0,0 C 0.319,0.251 0.872,1.996 1.869,2.411 2.866,2.826 5.076,3.368 5.042,2.321 5.009,1.274 3.702,-0.164 3.974,-0.697 2.994,-1.172 -1.013,-0.796 0,0" style="fill:#662113;fill-opacity:1;fill-rule:nonzero;stroke:none"/></g><g id="g32" transform="translate(7.2385,2.1984)"><path id="path34" d="M 0,0 C 0.319,0.251 0.651,1.746 1.648,2.16 2.645,2.575 4.454,3.208 4.42,2.16 4.387,1.113 3.191,0.476 2.21,0 1.23,-0.476 -1.013,-0.796 0,0" style="fill:#ccd6dd;fill-opacity:1;fill-rule:nonzero;stroke:none"/></g><g id="g36" transform="translate(29.6563,14.1837)"><path id="path38" d="m 0,0 c -0.469,0.527 -0.771,2.129 -0.764,2.66 0.002,0.118 -0.004,0.202 -0.014,0.271 0.009,0.613 0.014,1.254 0.014,1.96 0,8.894 -6.842,10.947 -10.947,10.947 -4.105,0 -10.949,-2.053 -10.949,-10.947 0,-0.277 -0.002,-0.621 -0.004,-0.995 C -22.671,3.846 -22.676,3.774 -22.675,3.66 -22.661,2.504 -23.5,1.5 -23.594,0.535 -23.687,-0.43 -23.15,0.126 -23,0.407 c 0.078,0.147 0.204,0.471 0.359,0.647 0.089,-3.297 0.475,-7.112 2.035,-7.112 2.11,0 4.79,2.053 8.895,2.053 4.105,0 6.196,-1.259 8.249,-1.259 0.749,0 1.309,0.173 1.721,0.819 0.141,-0.204 0.284,-0.378 0.397,-0.457 0.313,-0.219 0.688,-0.219 0.58,0.133 -0.107,0.353 -0.423,0.742 -0.33,2.42 0,0.004 -10e-4,0.007 -10e-4,0.011 0.096,0.626 0.168,1.39 0.221,2.299 0.107,-0.104 0.215,-0.196 0.312,-0.27 C -0.156,-0.621 0.469,-0.527 0,0" style="fill:#292f33;fill-opacity:1;fill-rule:nonzero;stroke:none"/></g><g id="g40" transform="translate(14,8)"><path id="path42" d="M 0,0 8,0 4,-5 0,0 Z" style="fill:#ccd6dd;fill-opacity:1;fill-rule:nonzero;stroke:none"/></g><g id="g44" transform="translate(14.5,7.4824)"><path id="path46" d="m 0,0 c 1.466,-1.065 2.792,-0.98 3.5,-0.98 0.708,0 2.194,-0.085 3.488,0.949 L 7,4.108 0,4.108 0,0 Z" style="fill:#ccd6dd;fill-opacity:1;fill-rule:nonzero;stroke:none"/></g><g id="g48" transform="translate(14.4825,9.9121)"><path id="path50" d="m 0,0 c 0.978,-1.155 2.19,-1.468 3.508,-1.468 1.318,0 2.532,0.313 3.51,1.468 l 0,2.937 L 0,2.937 0,0 Z" style="fill:#99aab5;fill-opacity:1;fill-rule:nonzero;stroke:none"/></g><g id="g52" transform="translate(9.7575,19.4155)"><path id="path54" d="m 0,0 c 0,5.834 3.676,10.564 8.211,10.564 4.534,0 8.209,-4.73 8.209,-10.564 0,-5.833 -3.675,-10.285 -8.209,-10.285 C 3.676,-10.285 0,-5.833 0,0" style="fill:#ccd6dd;fill-opacity:1;fill-rule:nonzero;stroke:none"/></g><g id="g56" transform="translate(17.9409,13.5995)"><path id="path58" d="m 0,0 c 1.606,0 2.447,-0.794 2.537,-0.885 0.268,-0.266 0.268,-0.7 0,-0.967 C 2.271,-2.116 1.845,-2.118 1.576,-1.858 1.541,-1.826 1.025,-1.367 0,-1.367 c -1.038,0 -1.555,-0.473 -1.576,-0.492 -0.274,-0.256 -0.703,-0.248 -0.963,0.019 -0.26,0.269 -0.26,0.692 0.004,0.955 C -2.445,-0.794 -1.605,0 0,0" style="fill:#66757f;fill-opacity:1;fill-rule:nonzero;stroke:none"/></g><g id="g60" transform="translate(28.7188,25.9063)"><path id="path62" d="m 0,0 c 0.5,0.031 0.5,0.5 0,0.5 -0.5,0 -2.049,0.724 -2.917,1.506 -0.002,0.002 -0.003,0.001 -0.005,0.003 -1.879,2.028 -4.306,3.105 -6.392,3.452 0.265,0.25 0.49,0.498 0.633,0.686 0.196,0.256 0.272,0.674 -0.195,0.421 -0.5,-0.27 -1.762,-0.926 -3.28,-1.026 -0.131,-0.009 -0.227,-0.028 -0.307,-0.052 -0.992,0.395 -2.427,0.597 -2.89,0.536 -0.303,-0.04 -0.56,-0.44 -0.128,-0.515 0.306,-0.054 0.596,-0.26 0.93,-0.704 -1.827,-0.731 -3.662,-2.01 -5.023,-3.958 -0.03,-0.023 -0.056,-0.026 -0.088,-0.058 -0.682,-0.697 -2.119,-2.603 -2.744,-2.697 -0.46,-0.069 -0.531,-0.469 -0.031,-0.438 0.268,0.017 0.771,-0.067 1.327,0.033 -0.385,-1.246 -0.612,-2.653 -0.612,-4.248 0,-0.793 -0.02,-1.256 0.009,-3.256 l 0.719,0 c -0.021,1 -0.044,0.223 -0.044,0.464 0,3.422 2.054,-0.494 2.054,1.944 0,1.93 0.86,2.49 1.896,3.317 0.012,-0.154 0.028,-0.305 0.029,-0.472 0.002,-0.492 0.465,-0.5 0.528,-0.094 0.062,0.406 0.315,1.269 1.041,2.051 0.633,0.626 1.295,1.275 1.295,1.275 0,0 0.346,-0.209 0.905,-0.494 10e-4,0 10e-4,-10e-4 0.002,-10e-4 1.069,-0.541 1.046,-2.019 1.292,-2.394 0.246,-0.375 0.446,0.116 0.595,0.594 0.086,0.276 0.12,0.606 0.073,0.935 1.037,-0.388 2.216,-0.707 3.291,-0.707 2.736,0 5.474,-1.375 5.474,-4.113 0,-2.736 2.052,1.584 2.052,-1.837 0,-0.244 -0.022,0.532 -0.04,-0.468 l 0.719,0 c 0.006,2 0.006,1.923 0.006,3.202 0,2.701 -0.637,4.881 -1.631,6.616 C -0.859,-0.061 -0.283,-0.018 0,0" style="fill:#292f33;fill-opacity:1;fill-rule:nonzero;stroke:none"/></g><g id="g64" transform="translate(16.3265,17.2632)"><path id="path66" d="m 0,0 -0.655,-0.655 c -0.764,-0.764 -2.016,-0.764 -2.78,0 l 0,0 c -0.765,0.765 -0.765,2.016 0,2.781 l 0.654,0.655 c 0.765,0.764 2.016,0.764 2.781,0 l 0,0 C 0.765,2.016 0.765,0.765 0,0" style="fill:#99aab5;fill-opacity:1;fill-rule:nonzero;stroke:none"/></g><g id="g68" transform="translate(20.3101,16.6085)"><path id="path70" d="m 0,0 -0.655,0.655 c -0.764,0.764 -0.764,2.016 0,2.78 l 0,0 C 0.11,4.2 1.361,4.2 2.126,3.435 L 2.781,2.781 C 3.545,2.016 3.545,0.765 2.781,0 l 0,0 C 2.016,-0.765 0.765,-0.765 0,0" style="fill:#99aab5;fill-opacity:1;fill-rule:nonzero;stroke:none"/></g><g id="g72" transform="translate(15.8775,18.4722)"><path id="path74" d="m 0,0 0,0 c 0,-0.465 -0.381,-0.846 -0.847,-0.846 l -0.844,0 c -0.465,0 -0.846,0.381 -0.846,0.846 0,0.466 0.381,0.847 0.846,0.847 l 0.844,0 C -0.381,0.847 0,0.466 0,0" style="fill:#662113;fill-opacity:1;fill-rule:nonzero;stroke:none"/></g><g id="g76" transform="translate(22.6416,18.4726)"><path id="path78" d="m 0,0 0,0 c 0,-0.465 -0.381,-0.846 -0.847,-0.846 l -0.844,0 c -0.465,0 -0.846,0.381 -0.846,0.846 0,0.465 0.381,0.846 0.846,0.846 l 0.844,0 C -0.381,0.846 0,0.465 0,0" style="fill:#662113;fill-opacity:1;fill-rule:nonzero;stroke:none"/></g><g id="g80" transform="translate(18.8019,14.5908)"><path id="path82" d="m 0,0 0,0 c 0.252,0 0.458,0.206 0.458,0.458 l 0,0.584 C 0.458,1.294 0.252,1.5 0,1.5 l 0,0 c -0.252,0 -0.458,-0.206 -0.458,-0.458 l 0,-0.584 C -0.458,0.206 -0.252,0 0,0" style="fill:#99aab5;fill-opacity:1;fill-rule:nonzero;stroke:none"/></g><g id="g84" transform="translate(17.1806,14.5908)"><path id="path86" d="m 0,0 0,0 c 0.252,0 0.458,0.206 0.458,0.458 l 0,0.584 C 0.458,1.294 0.252,1.5 0,1.5 l 0,0 c -0.252,0 -0.458,-0.206 -0.458,-0.458 l 0,-0.584 C -0.458,0.206 -0.252,0 0,0" style="fill:#99aab5;fill-opacity:1;fill-rule:nonzero;stroke:none"/></g><g id="g88" transform="translate(11.4443,18.1553)"><path id="path90" d="m 0,0 c 0,-1.448 -0.734,-2.622 -1.639,-2.622 -0.905,0 -1.639,1.174 -1.639,2.622 0,1.448 0.734,2.623 1.639,2.623 C -0.734,2.623 0,1.448 0,0" style="fill:#ccd6dd;fill-opacity:1;fill-rule:nonzero;stroke:none"/></g><g id="g92" transform="translate(27.833,18.1553)"><path id="path94" d="m 0,0 c 0,-1.448 -0.733,-2.622 -1.639,-2.622 -0.905,0 -1.638,1.174 -1.638,2.622 0,1.448 0.733,2.623 1.638,2.623 C -0.733,2.623 0,1.448 0,0" style="fill:#ccd6dd;fill-opacity:1;fill-rule:nonzero;stroke:none"/></g></g></g></g></svg>