<svg xmlns="http://www.w3.org/2000/svg" xmlns:svg="http://www.w3.org/2000/svg" style="enable-background:new 0 0 45 45" id="svg2" version="1.1" viewBox="0 0 45 45" xml:space="preserve"><metadata id="metadata8"/><defs id="defs6"><clipPath id="clipPath16" clipPathUnits="userSpaceOnUse"><path id="path18" d="M 0,36 36,36 36,0 0,0 0,36 Z"/></clipPath></defs><g id="g10" transform="matrix(1.25,0,0,-1.25,0,45)"><g id="g12"><g id="g14" clip-path="url(#clipPath16)"><g id="g20" transform="translate(8,17)"><path id="path22" d="M 0,0 C 0,-2.209 -1.119,-4 -2.5,-4 -3.881,-4 -5,-2.209 -5,0 -5,2.21 -3.881,4.001 -2.5,4.001 -1.119,4.001 0,2.21 0,0" style="fill:#ffdc5d;fill-opacity:1;fill-rule:nonzero;stroke:none"/></g><g id="g24" transform="translate(33,17)"><path id="path26" d="M 0,0 C 0,-2.209 -1.119,-4 -2.5,-4 -3.881,-4 -5,-2.209 -5,0 -5,2.21 -3.881,4.001 -2.5,4.001 -1.119,4.001 0,2.21 0,0" style="fill:#ffdc5d;fill-opacity:1;fill-rule:nonzero;stroke:none"/></g><g id="g28" transform="translate(5,15.4375)"><path id="path30" d="M 0,0 C 0,8.526 5.82,15.438 13,15.438 20.18,15.438 26,8.526 26,0 26,-8.525 20.18,-15.438 13,-15.438 5.82,-15.438 0,-8.525 0,0" style="fill:#ffdc5d;fill-opacity:1;fill-rule:nonzero;stroke:none"/></g><g id="g32" transform="translate(13,16)"><path id="path34" d="m 0,0 c -0.552,0 -1,0.447 -1,1 l 0,2 C -1,3.552 -0.552,4 0,4 0.552,4 1,3.552 1,3 L 1,1 C 1,0.447 0.552,0 0,0" style="fill:#662113;fill-opacity:1;fill-rule:nonzero;stroke:none"/></g><g id="g36" transform="translate(23,16)"><path id="path38" d="m 0,0 c -0.553,0 -1,0.447 -1,1 l 0,2 C -1,3.552 -0.553,4 0,4 0.553,4 1,3.552 1,3 L 1,1 C 1,0.447 0.553,0 0,0" style="fill:#662113;fill-opacity:1;fill-rule:nonzero;stroke:none"/></g><g id="g40" transform="translate(19,12)"><path id="path42" d="m 0,0 -2,0 c -0.552,0 -1,0.447 -1,1 0,0.553 0.448,1 1,1 L 0,2 C 0.553,2 1,1.553 1,1 1,0.447 0.553,0 0,0" style="fill:#c1694f;fill-opacity:1;fill-rule:nonzero;stroke:none"/></g><g id="g44" transform="translate(18,36.0005)"><path id="path46" d="m 0,0 c 8.615,0 14,-6.358 14,-11.656 0,-5.298 -1.077,-7.418 -2.154,-5.298 -1.076,2.119 -2.154,4.238 -2.154,4.238 0,0 -6.462,0 -8.615,2.12 0,0 3.231,-6.358 -3.231,0 0,0 1.077,-4.239 -5.385,1.059 0,0 -3.23,-2.119 -4.307,-7.417 -0.299,-1.47 -2.154,0 -2.154,5.298 C -14,-6.358 -9.692,0 0,0" style="fill:#ffac33;fill-opacity:1;fill-rule:nonzero;stroke:none"/></g><g id="g48" transform="translate(18,6.3253)"><path id="path50" d="M 0,0 C -4.167,0 -7.292,2.2 0,2.2 7.292,2.2 4.167,0 0,0 M 9.375,5.5 C 8.333,4.4 6.25,2.2 4.167,3.3 1.221,4.856 0,4.4 0,4.4 0,4.4 -1.221,4.856 -4.167,3.3 -6.25,2.2 -8.333,4.4 -9.375,5.5 c -0.737,0.778 -3.125,2.2 -3.125,0 0,-3.3 2.083,-5.5 2.083,-5.5 2.084,-5.5 6.25,-5.5 6.25,-5.5 1.042,-1.1 7.292,-1.1 8.334,0 0,0 4.166,0 6.25,5.5 0,0 2.083,2.2 2.083,5.5 0,2.2 -2.389,0.778 -3.125,0" style="fill:#ffac33;fill-opacity:1;fill-rule:nonzero;stroke:none"/></g></g></g></g></svg>