<svg xmlns="http://www.w3.org/2000/svg" xmlns:svg="http://www.w3.org/2000/svg" style="enable-background:new 0 0 45 45" id="svg2" version="1.1" viewBox="0 0 45 45" xml:space="preserve"><metadata id="metadata8"/><defs id="defs6"><clipPath id="clipPath16" clipPathUnits="userSpaceOnUse"><path id="path18" d="M 0,36 36,36 36,0 0,0 0,36 Z"/></clipPath></defs><g id="g10" transform="matrix(1.25,0,0,-1.25,0,45)"><g id="g12"><g id="g14" clip-path="url(#clipPath16)"><g id="g20" transform="translate(35,19)"><path id="path22" d="m 0,0 c 0,-9.389 -7.611,-17 -17,-17 -9.388,0 -17,7.611 -17,17 0,9.388 7.612,17 17,17 C -7.611,17 0,9.388 0,0" style="fill:#ffcc4d;fill-opacity:1;fill-rule:nonzero;stroke:none"/></g><g id="g24" transform="translate(15,22.107)"><path id="path26" d="M 0,0 C 0,-1.934 -1.119,-3.5 -2.5,-3.5 -3.881,-3.5 -5,-1.934 -5,0 -5,1.933 -3.881,3.5 -2.5,3.5 -1.119,3.5 0,1.933 0,0" style="fill:#664500;fill-opacity:1;fill-rule:nonzero;stroke:none"/></g><g id="g28" transform="translate(31,22.5)"><path id="path30" d="m 0,0 c 0,-3.59 -2.91,-6.5 -6.5,-6.5 -3.59,0 -6.5,2.91 -6.5,6.5 0,3.59 2.91,6.5 6.5,6.5 C -2.91,6.5 0,3.59 0,0" style="fill:#f5f8fa;fill-opacity:1;fill-rule:nonzero;stroke:none"/></g><g id="g32" transform="translate(24.5,28)"><path id="path34" d="m 0,0 c -3.032,0 -5.5,-2.467 -5.5,-5.5 0,-3.033 2.468,-5.5 5.5,-5.5 3.032,0 5.5,2.467 5.5,5.5 C 5.5,-2.467 3.032,0 0,0 m 0,-13 c -4.136,0 -7.5,3.364 -7.5,7.5 C -7.5,-1.364 -4.136,2 0,2 4.136,2 7.5,-1.364 7.5,-5.5 7.5,-9.636 4.136,-13 0,-13" style="fill:#67757f;fill-opacity:1;fill-rule:nonzero;stroke:none"/></g><g id="g36" transform="translate(15.001,26.6069)"><path id="path38" d="m 0,0 c -0.304,0 -0.604,0.138 -0.801,0.4 -0.935,1.247 -1.915,1.916 -2.911,1.987 -1.313,0.089 -2.383,-0.895 -2.582,-1.094 -0.391,-0.391 -1.023,-0.391 -1.414,0 -0.391,0.391 -0.391,1.023 0,1.414 0.431,0.431 2.011,1.828 4.137,1.674 C -1.97,4.268 -0.5,3.332 0.799,1.6 1.13,1.158 1.041,0.531 0.599,0.2 0.419,0.065 0.208,0 0,0" style="fill:#664500;fill-opacity:1;fill-rule:nonzero;stroke:none"/></g><g id="g40" transform="translate(32,1)"><path id="path42" d="m 0,0 c -0.553,0 -1,0.447 -1,1 l 0,20 c 0,0.552 0.447,1 1,1 0.553,0 1,-0.448 1,-1 L 1,1 C 1,0.447 0.553,0 0,0" style="fill:#292f33;fill-opacity:1;fill-rule:nonzero;stroke:none"/></g><g id="g44" transform="translate(34,22)"><path id="path46" d="m 0,0 c 0,-1.105 -0.895,-2 -2,-2 -1.105,0 -2,0.895 -2,2 0,1.105 0.895,2 2,2 1.105,0 2,-0.895 2,-2" style="fill:#67757f;fill-opacity:1;fill-rule:nonzero;stroke:none"/></g><g id="g48" transform="translate(20.999,9)"><path id="path50" d="m 0,0 c -0.15,0 -0.303,0.034 -0.446,0.105 -1.718,0.86 -3.388,0.86 -5.106,0 -0.494,-0.246 -1.095,-0.046 -1.342,0.448 -0.247,0.494 -0.046,1.094 0.448,1.342 2.286,1.142 4.606,1.142 6.894,0 C 0.942,1.647 1.143,1.047 0.896,0.553 0.72,0.202 0.367,0 0,0" style="fill:#664500;fill-opacity:1;fill-rule:nonzero;stroke:none"/></g><g id="g52" transform="translate(27.4907,27.112)"><path id="path54" d="m 0,0 c -0.861,0.56 -1.887,0.888 -2.991,0.888 -3.037,0 -5.5,-2.462 -5.5,-5.5 0,-1.104 0.329,-2.129 0.888,-2.991 L 0,0 Z" style="fill:#bdddf4;fill-opacity:1;fill-rule:nonzero;stroke:none"/></g><g id="g56" transform="translate(22.153,17.5316)"><path id="path58" d="m 0,0 c 0.713,-0.337 1.506,-0.532 2.347,-0.532 3.038,0 5.5,2.463 5.5,5.5 0,0.841 -0.194,1.635 -0.532,2.347 L 0,0 Z" style="fill:#bdddf4;fill-opacity:1;fill-rule:nonzero;stroke:none"/></g></g></g></g></svg>