<svg xmlns="http://www.w3.org/2000/svg" xmlns:svg="http://www.w3.org/2000/svg" style="enable-background:new 0 0 45 45" id="svg2" version="1.1" viewBox="0 0 45 45" xml:space="preserve"><metadata id="metadata8"/><defs id="defs6"><clipPath id="clipPath16" clipPathUnits="userSpaceOnUse"><path id="path18" d="M 0,36 36,36 36,0 0,0 0,36 Z"/></clipPath></defs><g id="g10" transform="matrix(1.25,0,0,-1.25,0,45)"><g id="g12"><g id="g14" clip-path="url(#clipPath16)"><g id="g20" transform="translate(25.0226,13.269)"><path id="path22" d="m 0,0 0,0 c -0.569,-0.328 -1.284,-0.096 -1.589,0.515 l -2.773,5.561 c -0.305,0.611 -0.09,1.38 0.479,1.708 l 0,0 c 0.569,0.328 1.284,0.096 1.589,-0.515 L 0.479,1.709 C 0.784,1.097 0.569,0.328 0,0" style="fill:#ffdc5d;fill-opacity:1;fill-rule:nonzero;stroke:none"/></g><g id="g24" transform="translate(28.0488,17.8796)"><path id="path26" d="M 0,0 -4.136,-2.387 C -4.704,-2.715 -4.92,-3.484 -4.615,-4.095 l 0,0 c 0.305,-0.612 1.02,-0.844 1.589,-0.516 l 4.135,2.387 c 0.569,0.328 0.785,1.097 0.48,1.709 l 0,0 C 1.284,0.096 0.569,0.328 0,0" style="fill:#ffdc5d;fill-opacity:1;fill-rule:nonzero;stroke:none"/></g><g id="g28" transform="translate(11.2752,8.0248)"><path id="path30" d="m 0,0 9.387,0 -0.662,3.971 0.789,7.305 2.037,-0.082 0.415,0.324 c -0.649,1.289 -1.21,2.457 -2.069,2.457 l -9.919,0 c -0.501,0 -1.808,-1.208 -2.649,-2.388 L -2.347,11.358 -0.109,11.019 0.725,3.971 0,0 Z" style="fill:#ffdc5d;fill-opacity:1;fill-rule:nonzero;stroke:none"/></g><g id="g32" transform="translate(3.6118,11.2671)"><path id="path34" d="m 0,0 0,0 c -0.54,0.426 -0.633,1.216 -0.207,1.756 l 6.709,8.503 c 0.426,0.539 1.216,0.632 1.756,0.207 l 0,0 C 8.797,10.04 8.891,9.25 8.465,8.71 L 1.756,0.207 C 1.33,-0.333 0.54,-0.426 0,0" style="fill:#ffdc5d;fill-opacity:1;fill-rule:nonzero;stroke:none"/></g><g id="g36" transform="translate(24.9433,13.2571)"><path id="path38" d="m 0,0 0,0 c -0.617,-0.304 -1.37,-0.048 -1.674,0.569 l -3.129,6.354 c -0.303,0.617 -0.047,1.37 0.569,1.674 l 0,0 c 0.617,0.304 1.37,0.048 1.674,-0.569 L 0.569,1.674 C 0.873,1.057 0.617,0.304 0,0" style="fill:#ffdc5d;fill-opacity:1;fill-rule:nonzero;stroke:none"/></g><g id="g40" transform="translate(14,25)"><path id="path42" d="m 0,0 0,-4 c 0,-1.104 0.896,-2 2,-2 1.105,0 2,0.896 2,2 L 4,0 0,0 Z" style="fill:#ffdc5d;fill-opacity:1;fill-rule:nonzero;stroke:none"/></g><g id="g44" transform="translate(18,26)"><path id="path46" d="M 0,0 -4,-0.019 -4,-4 c 0,0 2,-1 4,0 l 0,4 z" style="fill:#f9ca55;fill-opacity:1;fill-rule:nonzero;stroke:none"/></g><g id="g48" transform="translate(21,31)"><path id="path50" d="M 0,0 -10,0.887 -10,-4 -10,-4.001 C -10,-6.763 -7.762,-9 -5,-9 c 2.762,0 5,2.237 5,4.999 L 0,-4 0,0 Z" style="fill:#ffdc5d;fill-opacity:1;fill-rule:nonzero;stroke:none"/></g><g id="g52" transform="translate(18,24)"><path id="path54" d="m 0,0 -2,0 -2,0 c 0,0 0,-1 2,-1 2,0 2,1 2,1" style="fill:#c1694f;fill-opacity:1;fill-rule:nonzero;stroke:none"/></g><g id="g56" transform="translate(14,27.5)"><path id="path58" d="M 0,0 C 0,-0.276 -0.224,-0.5 -0.5,-0.5 -0.776,-0.5 -1,-0.276 -1,0 -1,0.276 -0.776,0.5 -0.5,0.5 -0.224,0.5 0,0.276 0,0" style="fill:#662113;fill-opacity:1;fill-rule:nonzero;stroke:none"/></g><g id="g60" transform="translate(19,27.5)"><path id="path62" d="M 0,0 C 0,-0.276 -0.224,-0.5 -0.5,-0.5 -0.776,-0.5 -1,-0.276 -1,0 -1,0.276 -0.776,0.5 -0.5,0.5 -0.224,0.5 0,0.276 0,0" style="fill:#662113;fill-opacity:1;fill-rule:nonzero;stroke:none"/></g><g id="g64" transform="translate(15,26)"><path id="path66" d="M 0,0 1,0 2,0 C 2,0 2,-1 1,-1 0,-1 0,0 0,0" style="fill:#c1694f;fill-opacity:1;fill-rule:nonzero;stroke:none"/></g><g id="g68" transform="translate(16.0002,34.9569)"><path id="path70" d="m 0,0 c 3.433,0 5.578,-2.533 5.578,-4.644 0,-2.11 -0.429,-2.955 -0.858,-2.11 -0.43,0.844 -0.859,1.688 -0.859,1.688 0,0 -2.574,0 -3.432,0.845 0,0 1.287,-2.533 -1.287,0 0,0 0.429,-1.689 -2.145,0.421 0,0 -1.288,-0.844 -1.717,-2.954 -0.119,-0.586 -0.858,0 -0.858,2.11 C -5.578,-2.533 -3.862,0 0,0" style="fill:#ffac33;fill-opacity:1;fill-rule:nonzero;stroke:none"/></g><g id="g72" transform="translate(10,5)"><path id="path74" d="m 0,0 8,0 c 1.65,0 3,1.35 3,3 l 0,1 C 11,5.1 10.1,6 9,6 L 0,6 C -1.65,6 -3,4.65 -3,3 l 0,0 C -3,1.35 -1.65,0 0,0" style="fill:#3b88c3;fill-opacity:1;fill-rule:nonzero;stroke:none"/></g><g id="g76" transform="translate(7.2781,9.2514)"><path id="path78" d="m 0,0 c -1.043,-2.463 0.19,-6.077 3.722,-7.251 1.979,-0.659 6.075,-1.291 9.662,-0.659 4.291,0.758 7.397,3.474 7.397,3.474 l -1.725,1.492 c 0,0 -2.22,-0.764 -4.334,-0.861 -3.894,-0.179 -8.488,2.926 -11,3.554 C 0.844,0.468 0,0 0,0" style="fill:#3b88c3;fill-opacity:1;fill-rule:nonzero;stroke:none"/></g><g id="g80" transform="translate(25.7565,4.3258)"><path id="path82" d="m 0,0 c -0.651,0.742 -0.535,2.842 0.968,4.161 2.253,1.98 2.912,3.983 3.663,4.642 0,0 0.88,-3.988 -1.374,-5.967 0,0 3.832,2.537 6.382,1.701 C 5.92,2.956 5.836,0.448 3.564,-0.368 1.682,-1.044 0.651,-0.742 0,0" style="fill:#3b88c3;fill-opacity:1;fill-rule:nonzero;stroke:none"/></g><g id="g84" transform="translate(19.4473,5.7314)"><path id="path86" d="M 0,0 C -0.023,0 -0.049,0.002 -0.073,0.007 -2.313,0.453 -6.86,2.554 -7.052,2.644 -7.24,2.73 -7.322,2.953 -7.235,3.141 -7.148,3.33 -6.923,3.412 -6.737,3.323 -6.69,3.302 -2.08,1.171 0.073,0.743 0.276,0.702 0.408,0.505 0.368,0.302 0.332,0.123 0.176,0 0,0" style="fill:#292f33;fill-opacity:1;fill-rule:nonzero;stroke:none"/></g></g></g></g></svg>