<svg xmlns="http://www.w3.org/2000/svg" xmlns:svg="http://www.w3.org/2000/svg" style="enable-background:new 0 0 45 45" id="svg2" version="1.1" viewBox="0 0 45 45" xml:space="preserve"><metadata id="metadata8"/><defs id="defs6"><clipPath id="clipPath16" clipPathUnits="userSpaceOnUse"><path id="path18" d="M 0,36 36,36 36,0 0,0 0,36 Z"/></clipPath></defs><g id="g10" transform="matrix(1.25,0,0,-1.25,0,45)"><g id="g12"><g id="g14" clip-path="url(#clipPath16)"><g id="g20" transform="translate(20.7689,15.7271)"><path id="path22" d="m 0,0 c -4.558,-6.089 -5.676,-12.675 -2.497,-14.71 3.178,-2.035 9.45,1.252 14.008,7.341 C 16.069,-1.28 14.263,9.66 14.008,9.262 12.231,6.488 4.558,6.089 0,0" style="fill:#abdfff;fill-opacity:1;fill-rule:nonzero;stroke:none"/></g><g id="g24" transform="translate(15.2555,15.7271)"><path id="path26" d="m 0,0 c 4.558,-6.089 5.676,-12.675 2.498,-14.71 -3.179,-2.035 -9.451,1.252 -14.009,7.341 C -16.069,-1.28 -14.351,9.6 -14.008,9.262 -10.255,5.563 -4.558,6.089 0,0" style="fill:#abdfff;fill-opacity:1;fill-rule:nonzero;stroke:none"/></g><g id="g28" transform="translate(31,0)"><path id="path30" d="M 0,0 0,3.5 C 0,6.814 -3.686,9 -7,9 l -12,0 c -3.313,0 -7,-2.186 -7,-5.5 L -26,0 0,0 Z" style="fill:#af7e57;fill-opacity:1;fill-rule:nonzero;stroke:none"/></g><g id="g32" transform="translate(31.4018,18.1712)"><path id="path34" d="m 0,0 c -0.96,-1.604 -1.586,-3.147 -4.251,-5.659 -1.029,-0.971 -0.94,-2.246 0.18,-1.398 2.663,2.015 4.305,5.221 4.847,7.268 C 1.158,1.652 0.484,0.808 0,0 m -26.804,0 c 0.96,-1.604 1.586,-3.147 4.251,-5.659 1.03,-0.971 0.941,-2.246 -0.179,-1.398 -2.664,2.015 -4.306,5.221 -4.848,7.268 -0.382,1.441 0.293,0.597 0.776,-0.211" style="fill:#55acee;fill-opacity:1;fill-rule:nonzero;stroke:none"/></g><g id="g36" transform="translate(18.8529,34)"><path id="path38" d="m 0,0 c -2.024,0 -3.893,-0.647 -5.426,-1.737 -3.15,-0.164 -5.662,-2.748 -5.662,-5.939 0,-2.631 0.011,-5.944 3.476,-7.178 1.703,-2.365 4.474,-3.911 7.612,-3.911 5.181,0 9.382,4.2 9.382,9.381 C 9.382,-4.201 5.181,0 0,0" style="fill:#60352a;fill-opacity:1;fill-rule:nonzero;stroke:none"/></g><g id="g40" transform="translate(13.9832,15.9916)"><path id="path42" d="m 0,0 0,-8.034 c 0,-2.218 1.799,-4.016 4.017,-4.016 2.218,0 4.017,1.798 4.017,4.016 L 8.034,0 0,0 Z" style="fill:#af7e57;fill-opacity:1;fill-rule:nonzero;stroke:none"/></g><g id="g44" transform="translate(22.0168,18)"><path id="path46" d="m 0,0 -8.034,-0.037 0,-7.997 c 0,0 4.017,-2.008 8.034,0 L 0,0 Z" style="fill:#9b6a49;fill-opacity:1;fill-rule:nonzero;stroke:none"/></g><g id="g48" transform="translate(26.5294,28)"><path id="path50" d="m 0,0 -17.059,0 0,-9.353 0,-10e-4 c 0,-4.712 3.818,-8.528 8.53,-8.528 4.711,0 8.529,3.816 8.529,8.528 L 0,-9.353 0,0 Z" style="fill:#af7e57;fill-opacity:1;fill-rule:nonzero;stroke:none"/></g><g id="g52" transform="translate(8.625,28.8824)"><path id="path54" d="m 0,0 0.846,-6.824 c 3.979,0 4.861,4.115 5.057,5.95 0.067,-1.835 1.39,-5.95 12.001,-5.95 L 18.25,0 0,0 Z" style="fill:#60352a;fill-opacity:1;fill-rule:nonzero;stroke:none"/></g><g id="g56" transform="translate(21.4118,13.5294)"><path id="path58" d="m 0,0 -3.412,0 -3.412,0 c 0,0 0,-1.706 3.412,-1.706 C 0,-1.706 0,0 0,0" style="fill:#915a34;fill-opacity:1;fill-rule:nonzero;stroke:none"/></g><g id="g60" transform="translate(16.2941,16.9412)"><path id="path62" d="m 0,0 1.706,0 1.706,0 c 0,0 0,-1.706 -1.706,-1.706 C 0,-1.706 0,0 0,0" style="fill:#915a34;fill-opacity:1;fill-rule:nonzero;stroke:none"/></g><g id="g64" transform="translate(18,3)"><path id="path66" d="m 0,0 0,-3 -9,0 0,3 -2,5 c 0,0 1,1 4,1 l 3,0 4,-6 z" style="fill:#5c913b;fill-opacity:1;fill-rule:nonzero;stroke:none"/></g><g id="g68" transform="translate(18,3)"><path id="path70" d="m 0,0 0,-3 9,0 0,3 2,5 C 11,5 10,6 7,6 L 4,6 0,0 Z" style="fill:#5c913b;fill-opacity:1;fill-rule:nonzero;stroke:none"/></g><g id="g72" transform="translate(22,18)"><path id="path74" d="m 0,0 0,0 c -0.55,0 -1,0.45 -1,1 l 0,1 C -1,2.55 -0.55,3 0,3 0.55,3 1,2.55 1,2 L 1,1 C 1,0.45 0.55,0 0,0" style="fill:#662113;fill-opacity:1;fill-rule:nonzero;stroke:none"/></g><g id="g76" transform="translate(15,19)"><path id="path78" d="M 0,0 0,1 C 0,1.55 -0.45,2 -1,2 -1.55,2 -2,1.55 -2,1 l 0,-1 c 0,-0.55 0.45,-1 1,-1 0.55,0 1,0.45 1,1" style="fill:#662113;fill-opacity:1;fill-rule:nonzero;stroke:none"/></g></g></g></g></svg>