<svg xmlns="http://www.w3.org/2000/svg" xmlns:svg="http://www.w3.org/2000/svg" style="enable-background:new 0 0 45 45" id="svg2" version="1.1" viewBox="0 0 45 45" xml:space="preserve"><metadata id="metadata8"/><defs id="defs6"><clipPath id="clipPath16" clipPathUnits="userSpaceOnUse"><path id="path18" d="M 0,36 36,36 36,0 0,0 0,36 Z"/></clipPath></defs><g id="g10" transform="matrix(1.25,0,0,-1.25,0,45)"><g id="g12"><g id="g14" clip-path="url(#clipPath16)"><g id="g20" transform="translate(5.001,8)"><path id="path22" d="m 0,0 c -0.367,0 -0.72,0.202 -0.896,0.553 -0.247,0.494 -0.046,1.094 0.448,1.342 l 5.544,2.772 0.917,5.498 c 0.091,0.543 0.605,0.912 1.151,0.821 0.544,-0.09 0.912,-0.606 0.821,-1.151 l -1,-5.999 C 6.933,3.521 6.732,3.249 6.446,3.105 l -6,-3 C 0.303,0.034 0.15,0 0,0" style="fill:#af7e57;fill-opacity:1;fill-rule:nonzero;stroke:none"/></g><g id="g24" transform="translate(30.999,8)"><path id="path26" d="m 0,0 c -0.15,0 -0.303,0.034 -0.446,0.105 l -6,3 c -0.286,0.144 -0.487,0.416 -0.539,0.731 l -1,5.999 c -0.091,0.545 0.277,1.061 0.822,1.151 0.543,0.091 1.06,-0.277 1.15,-0.821 L -5.097,4.667 0.448,1.895 C 0.942,1.647 1.143,1.047 0.896,0.553 0.72,0.202 0.367,0 0,0" style="fill:#af7e57;fill-opacity:1;fill-rule:nonzero;stroke:none"/></g><g id="g28" transform="translate(23,4.25)"><path id="path30" d="m 0,0 c 0,0 0,-1.25 -5,-1.25 -5,0 -5,1.25 -5,1.25 l 0,5.5 10,0 L 0,0 Z" style="fill:#4289c1;fill-opacity:1;fill-rule:nonzero;stroke:none"/></g><g id="g32" transform="translate(18.9997,36)"><path id="path34" d="M 0,0 C -1.264,0 -2.435,-0.393 -3.402,-1.061 -3.598,-1.031 -3.795,-1 -4,-1 -6.208,-1 -8,-2.791 -8,-5 l 0,-4 c 0,-3.866 3.134,-7 7,-7 3.867,0 7,3.134 7,7 l 0,2.999 C 6,-2.686 3.314,0 0,0" style="fill:#60352a;fill-opacity:1;fill-rule:nonzero;stroke:none"/></g><g id="g36" transform="translate(23,21)"><path id="path38" d="m 0,0 -3,0 -2,0 -2,0 -3,0 c -2.563,0 -2.458,-4 -2.458,-4 l 2.458,0 0,-9 5,0 5,0 0,9 2.458,0 c 0,0 0.105,4 -2.458,4" style="fill:#9268ca;fill-opacity:1;fill-rule:nonzero;stroke:none"/></g><g id="g40" transform="translate(16.0002,25)"><path id="path42" d="m 0,0 0,-4 c 0,-1.104 0.896,-2 2,-2 1.105,0 2,0.896 2,2 L 4,0 0,0 Z" style="fill:#af7e57;fill-opacity:1;fill-rule:nonzero;stroke:none"/></g><g id="g44" transform="translate(16.0002,33)"><path id="path46" d="M 0,0 0,0 C 0,0 -0.011,-3.285 -3,-3.894 L -3,-6 l 0,0 c 0,-2.763 2.238,-5 4.999,-5 C 4.761,-11 7,-8.763 7,-6 l 0,0 0,2.032 C 0.019,-3.644 0,0 0,0" style="fill:#af7e57;fill-opacity:1;fill-rule:nonzero;stroke:none"/></g><g id="g48" transform="translate(20.0002,24)"><path id="path50" d="m 0,0 -2,0 -2,0 c 0,0 0,-1 2,-1 2,0 2,1 2,1" style="fill:#df1f32;fill-opacity:1;fill-rule:nonzero;stroke:none"/></g><g id="g52" transform="translate(16.0002,27.5)"><path id="path54" d="M 0,0 C 0,-0.276 -0.224,-0.5 -0.5,-0.5 -0.776,-0.5 -1,-0.276 -1,0 -1,0.276 -0.776,0.5 -0.5,0.5 -0.224,0.5 0,0.276 0,0" style="fill:#662113;fill-opacity:1;fill-rule:nonzero;stroke:none"/></g><g id="g56" transform="translate(21.0002,27.5)"><path id="path58" d="M 0,0 C 0,-0.276 -0.224,-0.5 -0.5,-0.5 -0.776,-0.5 -1,-0.276 -1,0 -1,0.276 -0.776,0.5 -0.5,0.5 -0.224,0.5 0,0.276 0,0" style="fill:#662113;fill-opacity:1;fill-rule:nonzero;stroke:none"/></g><g id="g60" transform="translate(17.0002,26)"><path id="path62" d="M 0,0 1,0 2,0 C 2,0 2,-1 1,-1 0,-1 0,0 0,0" style="fill:#915a34;fill-opacity:1;fill-rule:nonzero;stroke:none"/></g><g id="g64" transform="translate(8.4173,1.444)"><path id="path66" d="m 0,0 c 0.308,-0.769 1.181,-1.142 1.95,-0.834 l 12.395,3.803 c 0,0 3.49,-0.701 3.351,1.294 C 17.589,5.783 15.11,6.508 13.229,5.754 11.348,5 0.834,1.95 0.834,1.95 0.065,1.642 -0.308,0.769 0,0" style="fill:#af7e57;fill-opacity:1;fill-rule:nonzero;stroke:none"/></g><g id="g68" transform="translate(25.7557,5.3924)"><path id="path70" d="m 0,0 c -0.212,0.689 -2.021,0.422 -2.456,0.303 -0.435,-0.12 -12.469,-3.845 -13.453,-4.16 -0.924,-0.296 -0.364,-1.06 0.087,-1.027 0.033,0.009 0.067,0.01 0.099,0.021 l 11.768,3.586 c 0.877,0.274 1.884,0.166 2.719,0.244 0.395,0.037 0.802,0.166 0.876,0.202 C -0.193,-0.755 0.151,-0.491 0,0" style="fill:#9b6a49;fill-opacity:1;fill-rule:nonzero;stroke:none"/></g><g id="g72" transform="translate(27.5827,1.444)"><path id="path74" d="m 0,0 c -0.308,-0.769 -1.181,-1.142 -1.95,-0.834 l -12.395,3.803 c 0,0 -3.49,-0.701 -3.351,1.294 0.107,1.52 2.586,2.245 4.467,1.491 C -11.348,5 -0.834,1.95 -0.834,1.95 -0.065,1.642 0.308,0.769 0,0" style="fill:#af7e57;fill-opacity:1;fill-rule:nonzero;stroke:none"/></g><g id="g76" transform="translate(10.2443,5.3924)"><path id="path78" d="m 0,0 c 0.212,0.689 2.021,0.422 2.456,0.303 0.435,-0.12 12.469,-3.845 13.453,-4.16 0.924,-0.296 0.364,-1.06 -0.087,-1.027 -0.033,0.009 -0.067,0.01 -0.099,0.021 L 3.955,-1.277 C 3.078,-1.003 2.071,-1.111 1.236,-1.033 0.841,-0.996 0.434,-0.867 0.36,-0.831 0.193,-0.755 -0.151,-0.491 0,0" style="fill:#9b6a49;fill-opacity:1;fill-rule:nonzero;stroke:none"/></g></g></g></g></svg>