<svg xmlns="http://www.w3.org/2000/svg" xmlns:svg="http://www.w3.org/2000/svg" style="enable-background:new 0 0 45 45" id="svg2" version="1.1" viewBox="0 0 45 45" xml:space="preserve"><metadata id="metadata8"/><defs id="defs6"><clipPath id="clipPath16" clipPathUnits="userSpaceOnUse"><path id="path18" d="M 0,36 36,36 36,0 0,0 0,36 Z"/></clipPath></defs><g id="g10" transform="matrix(1.25,0,0,-1.25,0,45)"><g id="g12"><g id="g14" clip-path="url(#clipPath16)"><g id="g20" transform="translate(22,24)"><path id="path22" d="m 0,0 c -4,0 -9,2 -9,2 0,0 -2,-1 -3,-2 -1.863,-1.863 -3.724,-5.372 -3.971,-8.312 C -15.664,-16.487 -14.25,-23 -4,-23 6.25,-23 7.606,-16.56 7.965,-8.449 7.613,-4.819 3.81,0 0,0" style="fill:#af7e57;fill-opacity:1;fill-rule:nonzero;stroke:none"/></g><g id="g24" transform="translate(18,4.5003)"><path id="path26" d="m 0,0 c -2.347,0 -3.575,1.16 -3.707,1.293 -0.391,0.391 -0.391,1.023 0,1.414 0.387,0.387 1.013,0.39 1.404,0.01 C -2.251,2.67 -1.497,2 0,2 1.519,2 2.273,2.689 2.305,2.719 2.703,3.092 3.332,3.081 3.713,2.689 4.092,2.297 4.093,1.679 3.707,1.293 3.575,1.16 2.347,0 0,0" style="fill:#915a34;fill-opacity:1;fill-rule:nonzero;stroke:none"/></g><g id="g28" transform="translate(19,9.5)"><path id="path30" d="m 0,0 -2,0 c -0.552,0 -1,0.447 -1,1 0,0.553 0.448,1 1,1 L 0,2 C 0.553,2 1,1.553 1,1 1,0.447 0.553,0 0,0" style="fill:#915a34;fill-opacity:1;fill-rule:nonzero;stroke:none"/></g><g id="g32" transform="translate(13,12)"><path id="path34" d="m 0,0 c -0.552,0 -1,0.447 -1,1 l 0,1 C -1,2.552 -0.552,3 0,3 0.552,3 1,2.552 1,2 L 1,1 C 1,0.447 0.552,0 0,0" style="fill:#662113;fill-opacity:1;fill-rule:nonzero;stroke:none"/></g><g id="g36" transform="translate(23,12)"><path id="path38" d="m 0,0 c -0.553,0 -1,0.447 -1,1 l 0,1 C -1,2.552 -0.553,3 0,3 0.553,3 1,2.552 1,2 L 1,1 C 1,0.447 0.553,0 0,0" style="fill:#662113;fill-opacity:1;fill-rule:nonzero;stroke:none"/></g><g id="g40" transform="translate(25.5,15.9998)"><path id="path42" d="m 0,0 -3,0 c -0.553,0 -1,0.448 -1,1 0,0.552 0.447,1 1,1 L 0,2 C 0.553,2 1,1.552 1,1 1,0.448 0.553,0 0,0" style="fill:#d1d3d4;fill-opacity:1;fill-rule:nonzero;stroke:none"/></g><g id="g44" transform="translate(13.5,15.9998)"><path id="path46" d="m 0,0 -3,0 c -0.552,0 -1,0.448 -1,1 0,0.552 0.448,1 1,1 L 0,2 C 0.552,2 1,1.552 1,1 1,0.448 0.552,0 0,0" style="fill:#d1d3d4;fill-opacity:1;fill-rule:nonzero;stroke:none"/></g><g id="g48" transform="translate(17.9976,31)"><path id="path50" d="m 0,0 c 8.205,0 13.331,-5.137 13.331,-10.182 0,-5.044 -1.025,-7.063 -2.051,-5.044 -1.026,2.017 -2.278,5.226 -2.278,5.226 0,0 -3,-2 -6,0.828 0,0 1.1,-6.054 -5.053,0 0,0 0.053,-3.828 -5.127,1.008 0,0 -3.077,-2.018 -4.103,-7.062 -0.284,-1.401 -2.051,0 -2.051,5.044 C -13.332,-5.137 -9.23,0 0,0" style="fill:#d1d3d4;fill-opacity:1;fill-rule:nonzero;stroke:none"/></g></g></g></g></svg>