<svg xmlns="http://www.w3.org/2000/svg" xmlns:svg="http://www.w3.org/2000/svg" style="enable-background:new 0 0 45 45" id="svg2" version="1.1" viewBox="0 0 45 45" xml:space="preserve"><metadata id="metadata8"/><defs id="defs6"><clipPath id="clipPath16" clipPathUnits="userSpaceOnUse"><path id="path18" d="M 0,36 36,36 36,0 0,0 0,36 Z"/></clipPath></defs><g id="g10" transform="matrix(1.25,0,0,-1.25,0,45)"><g id="g12"><g id="g14" clip-path="url(#clipPath16)"><g id="g20" transform="translate(33,16.9756)"><path id="path22" d="m 0,0 c 0,-1.949 -6.716,-3.529 -15,-3.529 -8.284,0 -15,1.58 -15,3.529 0,1.949 6.716,3.529 15,3.529 8.284,0 15,-1.58 15,-3.529" style="fill:#292f33;fill-opacity:1;fill-rule:nonzero;stroke:none"/></g><g id="g24" transform="translate(8.2262,20)"><path id="path26" d="m 0,0 c -0.135,-1 -0.22,-1.83 -0.22,-2.79 0,-2.738 -0.214,-11.027 1.875,-11.027 1.927,0 4.374,2.013 8.123,2.013 3.747,0 6.247,-2.072 8.121,-2.072 1.875,0 1.875,2.2 1.875,11.096 0,0.96 -0.086,1.78 -0.22,2.78 L 0,0 Z" style="fill:#d1d3d4;fill-opacity:1;fill-rule:nonzero;stroke:none"/></g><g id="g28" transform="translate(26.2755,7.724)"><path id="path30" d="m 0,0 -16,0 c -2.486,0 -4.774,-1.443 -5.762,-3.449 -0.367,0.415 -0.907,0.619 -1.514,0.619 -1.099,0 -2,-0.935 -2,-1.997 l 0,-2.897 31,0 0,1.931 C 5.724,-2.594 3.313,0 0,0" style="fill:#9266cc;fill-opacity:1;fill-rule:nonzero;stroke:none"/></g><g id="g32" transform="translate(14,11)"><path id="path34" d="m 0,0 0,-3.234 c 0,-0.004 0.011,-0.008 0.015,-0.012 0.132,-0.237 3.737,-6.739 3.99,-6.739 0.252,0 3.854,6.502 3.985,6.739 C 7.994,-3.242 8,-3.238 8,-3.234 L 8,0 0,0 Z" style="fill:#f3d2a2;fill-opacity:1;fill-rule:nonzero;stroke:none"/></g><g id="g36" transform="translate(14.0063,8.4009)"><path id="path38" d="M 0,0 C 1.115,-1.155 2.497,-1.468 3.999,-1.468 5.502,-1.468 6.885,-1.155 8,0 l 0,2.937 -8,0 L 0,0 Z" style="fill:#e2c196;fill-opacity:1;fill-rule:nonzero;stroke:none"/></g><g id="g40" transform="translate(25.3613,20.1481)"><path id="path42" d="m 0,0 c -0.02,0 -0.039,-0.008 -0.06,-0.01 -0.771,4.678 -3.742,8.168 -7.297,8.168 -3.557,0 -6.529,-3.49 -7.301,-8.168 C -14.68,-0.009 -14.7,0 -14.723,0 c -0.904,0 -1.638,-1.175 -1.638,-2.623 0,-1.448 0.734,-2.622 1.638,-2.622 0.05,0 0.098,0.016 0.146,0.024 0.882,-4.389 3.776,-7.469 7.22,-7.469 3.441,0 6.335,3.08 7.217,7.468 0.047,-0.007 0.092,-0.023 0.14,-0.023 0.905,0 1.639,1.174 1.639,2.622 C 1.639,-1.175 0.905,0 0,0" style="fill:#f3d2a2;fill-opacity:1;fill-rule:nonzero;stroke:none"/></g><g id="g44" transform="translate(18.0041,9.4742)"><path id="path46" d="m 0,0 c -1.606,0 -2.447,0.794 -2.537,0.885 -0.268,0.266 -0.268,0.7 0,0.967 0.266,0.264 0.692,0.266 0.961,0.006 C -1.541,1.826 -1.025,1.367 0,1.367 1.038,1.367 1.555,1.84 1.576,1.859 1.85,2.115 2.279,2.107 2.539,1.84 2.799,1.571 2.799,1.148 2.535,0.885 2.445,0.794 1.605,0 0,0" style="fill:#df1f32;fill-opacity:1;fill-rule:nonzero;stroke:none"/></g><g id="g48" transform="translate(18.8947,12.5)"><path id="path50" d="m 0,0 -1.69,0 c -0.234,0 -0.423,0.189 -0.423,0.423 l 0,0.153 C -2.113,0.81 -1.924,1 -1.69,1 L 0,1 C 0.233,1 0.424,0.81 0.424,0.576 l 0,-0.153 C 0.424,0.189 0.233,0 0,0" style="fill:#c1694f;fill-opacity:1;fill-rule:nonzero;stroke:none"/></g><g id="g52" transform="translate(14.6672,14.6157)"><path id="path54" d="m 0,0 0,0 c -0.465,0 -0.846,0.381 -0.846,0.847 l 0,0.844 c 0,0.465 0.381,0.846 0.846,0.846 0.466,0 0.847,-0.381 0.847,-0.846 l 0,-0.844 C 0.847,0.381 0.466,0 0,0" style="fill:#662113;fill-opacity:1;fill-rule:nonzero;stroke:none"/></g><g id="g56" transform="translate(21.4319,14.6157)"><path id="path58" d="m 0,0 0,0 c -0.465,0 -0.846,0.381 -0.846,0.847 l 0,0.844 c 0,0.465 0.381,0.846 0.846,0.846 0.465,0 0.846,-0.381 0.846,-0.846 l 0,-0.844 C 0.846,0.381 0.465,0 0,0" style="fill:#662113;fill-opacity:1;fill-rule:nonzero;stroke:none"/></g><g id="g60" transform="translate(19,21)"><path id="path62" d="m 0,0 c 0,0 4,-4 8,-4 0,0 1,1 0,2 -1,1 -8,2 -8,2 m -2,0 c 0,0 -4,-4 -8,-4 0,0 -1,1 0,2 1,1 8,2 8,2" style="fill:#d1d3d4;fill-opacity:1;fill-rule:nonzero;stroke:none"/></g><g id="g64" transform="translate(25.7654,20.8431)"><path id="path66" d="m 0,0 c -1.228,2.686 -6.972,15.157 -7.765,15.157 -0.794,0 -6.538,-12.471 -7.766,-15.157 -4.819,-0.844 -7.234,-2.438 -7.234,-3.843 6,2 11,2.443 15,2.443 4,0 9,-0.443 15,-2.443 C 7.235,-2.438 4.819,-0.844 0,0" style="fill:#9266cc;fill-opacity:1;fill-rule:nonzero;stroke:none"/></g><g id="g68" transform="translate(5,0)"><path id="path70" d="M 0,0 -2,0 -2,24.138 -3,28 1,28 0,24.138 0,0 Z" style="fill:#d99e82;fill-opacity:1;fill-rule:nonzero;stroke:none"/></g><g id="g72" transform="translate(7,30)"><path id="path74" d="m 0,0 c 0,-1.657 -1.343,-3 -3,-3 -1.657,0 -3,1.343 -3,3 0,1.657 1.343,3 3,3 1.657,0 3,-1.343 3,-3" style="fill:#55acee;fill-opacity:1;fill-rule:nonzero;stroke:none"/></g><g id="g76" transform="translate(5,30.5)"><path id="path78" d="M 0,0 C 0,-0.828 -0.672,-1.5 -1.5,-1.5 -2.328,-1.5 -3,-0.828 -3,0 -3,0.828 -2.328,1.5 -1.5,1.5 -0.672,1.5 0,0.828 0,0" style="fill:#b0f0ff;fill-opacity:1;fill-rule:nonzero;stroke:none"/></g><g id="g80" transform="translate(7,5.5)"><path id="path82" d="m 0,0 c 0,-1.933 -1.343,-3.5 -3,-3.5 -1.657,0 -3,1.567 -3,3.5 0,1.933 1.343,2.5 3,2.5 1.657,0 3,-0.567 3,-2.5" style="fill:#f3d2a2;fill-opacity:1;fill-rule:nonzero;stroke:none"/></g></g></g></g></svg>