<svg xmlns="http://www.w3.org/2000/svg" xmlns:svg="http://www.w3.org/2000/svg" style="enable-background:new 0 0 45 45" id="svg2" version="1.1" viewBox="0 0 45 45" xml:space="preserve"><metadata id="metadata8"/><defs id="defs6"><clipPath id="clipPath16" clipPathUnits="userSpaceOnUse"><path id="path18" d="M 0,36 36,36 36,0 0,0 0,36 Z"/></clipPath><clipPath id="clipPath36" clipPathUnits="userSpaceOnUse"><path id="path38" d="M 4,36 C 1.791,36 0,34.209 0,32 L 0,32 0,4 C 0,1.791 1.791,0 4,0 l 0,0 28,0 c 2.209,0 4,1.791 4,4 l 0,0 0,28 c 0,2.209 -1.791,4 -4,4 l 0,0 -28,0 z"/></clipPath><clipPath id="clipPath44" clipPathUnits="userSpaceOnUse"><path id="path46" d="m -6,20 23,0 0,-20.6875 -23,0 L -6,20 Z"/></clipPath><clipPath id="clipPath80" clipPathUnits="userSpaceOnUse"><path id="path82" d="M 19.8262,22 39,22 l 0,-22.564026 -19.1738,0 0,22.564026 z"/></clipPath><clipPath id="clipPath116" clipPathUnits="userSpaceOnUse"><path id="path118" d="M 0,36 36,36 36,0 0,0 0,36 Z"/></clipPath><clipPath id="clipPath198" clipPathUnits="userSpaceOnUse"><path id="path200" d="M 4,36 C 1.791,36 0,34.209 0,32 L 0,32 0,4 C 0,1.791 1.791,0 4,0 l 0,0 28,0 c 2.209,0 4,1.791 4,4 l 0,0 0,28 c 0,2.209 -1.791,4 -4,4 l 0,0 -28,0 z"/></clipPath><clipPath id="clipPath206" clipPathUnits="userSpaceOnUse"><path id="path208" d="m -3,13 20,0 0,-15 -20,0 0,15 z"/></clipPath><clipPath id="clipPath242" clipPathUnits="userSpaceOnUse"><path id="path244" d="m 19,12 18,0 0,-16 -18,0 0,16 z"/></clipPath></defs><g id="g10" transform="matrix(1.25,0,0,-1.25,0,45)"><g id="g12"><g id="g14" clip-path="url(#clipPath16)"><g id="g20" transform="translate(36,4)"><path id="path22" d="m 0,0 c 0,-2.209 -1.791,-4 -4,-4 l -28,0 c -2.209,0 -4,1.791 -4,4 l 0,28 c 0,2.209 1.791,4 4,4 l 28,0 c 2.209,0 4,-1.791 4,-4 L 0,0 Z" style="fill:#c1694f;fill-opacity:1;fill-rule:nonzero;stroke:none"/></g><path id="path24" d="m 36,28 -36,0 0,4 36,0 0,-4 z" style="fill:#d99e82;fill-opacity:1;fill-rule:nonzero;stroke:none"/><path id="path26" d="m 36,20 -36,0 0,4 36,0 0,-4 z" style="fill:#d99e82;fill-opacity:1;fill-rule:nonzero;stroke:none"/><path id="path28" d="m 36,12 -36,0 0,4 36,0 0,-4 z" style="fill:#d99e82;fill-opacity:1;fill-rule:nonzero;stroke:none"/><path id="path30" d="M 36,4 0,4 0,8 36,8 36,4 Z" style="fill:#d99e82;fill-opacity:1;fill-rule:nonzero;stroke:none"/></g></g><g id="g32"><g id="g34" clip-path="url(#clipPath36)"><g id="g40"><g id="g48"><g style="opacity:.75" id="g50" clip-path="url(#clipPath44)"><g id="g52" transform="translate(8,11)"><path id="path54" d="M 0,0 C 0,1.657 1.343,3 3,3 4.657,3 6,1.657 6,0 6,-1.657 4.657,-3 3,-3 1.343,-3 0,-1.657 0,0" style="fill:#e1e8ed;fill-opacity:1;fill-rule:nonzero;stroke:none"/></g><g id="g56" transform="translate(4,13)"><path id="path58" d="M 0,0 C 0,1.657 1.343,3 3,3 4.657,3 6,1.657 6,0 6,-1.657 4.657,-3 3,-3 1.343,-3 0,-1.657 0,0" style="fill:#e1e8ed;fill-opacity:1;fill-rule:nonzero;stroke:none"/></g><g id="g60" transform="translate(2,16)"><path id="path62" d="M 0,0 C 0,1.657 1.343,3 3,3 4.657,3 6,1.657 6,0 6,-1.657 4.657,-3 3,-3 1.343,-3 0,-1.657 0,0" style="fill:#e1e8ed;fill-opacity:1;fill-rule:nonzero;stroke:none"/></g><g id="g64" transform="translate(-2,17)"><path id="path66" d="M 0,0 C 0,1.657 1.343,3 3,3 4.657,3 6,1.657 6,0 6,-1.657 4.657,-3 3,-3 1.343,-3 0,-1.657 0,0" style="fill:#e1e8ed;fill-opacity:1;fill-rule:nonzero;stroke:none"/></g><g id="g68" transform="translate(-6,16)"><path id="path70" d="M 0,0 C 0,1.657 1.343,3 3,3 4.657,3 6,1.657 6,0 6,-1.657 4.657,-3 3,-3 1.343,-3 0,-1.657 0,0" style="fill:#e1e8ed;fill-opacity:1;fill-rule:nonzero;stroke:none"/></g><g id="g72" transform="translate(-5,17)"><path id="path74" d="m 0,0 11,0 9,-10 2,-7.687 L 0,-17.625 0,0 Z" style="fill:#e1e8ed;fill-opacity:1;fill-rule:nonzero;stroke:none"/></g></g></g></g><g id="g76"><g id="g84"><g style="opacity:.75" id="g86" clip-path="url(#clipPath80)"><g id="g88" transform="translate(27,11)"><path id="path90" d="m 0,0 c 0,1.657 -1.343,3 -3,3 -1.657,0 -3,-1.343 -3,-3 0,-1.657 1.343,-3 3,-3 1.657,0 3,1.343 3,3" style="fill:#e1e8ed;fill-opacity:1;fill-rule:nonzero;stroke:none"/></g><g id="g92" transform="translate(30,13)"><path id="path94" d="m 0,0 c 0,1.657 -1.343,3 -3,3 -1.657,0 -3,-1.343 -3,-3 0,-1.657 1.343,-3 3,-3 1.657,0 3,1.343 3,3" style="fill:#e1e8ed;fill-opacity:1;fill-rule:nonzero;stroke:none"/></g><g id="g96" transform="translate(33,15)"><path id="path98" d="m 0,0 c 0,1.657 -1.343,3 -3,3 -1.657,0 -3,-1.343 -3,-3 0,-1.657 1.343,-3 3,-3 1.657,0 3,1.343 3,3" style="fill:#e1e8ed;fill-opacity:1;fill-rule:nonzero;stroke:none"/></g><g id="g100" transform="translate(35,18)"><path id="path102" d="m 0,0 c 0,1.657 -1.343,3 -3,3 -1.657,0 -3,-1.343 -3,-3 0,-1.657 1.343,-3 3,-3 1.657,0 3,1.343 3,3" style="fill:#e1e8ed;fill-opacity:1;fill-rule:nonzero;stroke:none"/></g><g id="g104" transform="translate(39,19)"><path id="path106" d="m 0,0 c 0,1.657 -1.343,3 -3,3 -1.657,0 -3,-1.343 -3,-3 0,-1.657 1.343,-3 3,-3 1.657,0 3,1.343 3,3" style="fill:#e1e8ed;fill-opacity:1;fill-rule:nonzero;stroke:none"/></g><g id="g108" transform="translate(37,18)"><path id="path110" d="M 0,0 -8,-2 -16,-8 -17.174,-18.564 0,-18.562 0,0 Z" style="fill:#e1e8ed;fill-opacity:1;fill-rule:nonzero;stroke:none"/></g></g></g></g></g></g><g id="g112"><g id="g114" clip-path="url(#clipPath116)"><g id="g120" transform="translate(13.5429,1)"><path id="path122" d="m 0,0 8.914,0 0,1.571 3.543,-0.571 0,12 c 0,2 -1.531,3 -3,3 l -10,0 c -1.469,0 -3,-1 -3,-3 l 0,-12 L 0,1.571 0,0 Z" style="fill:#af7e57;fill-opacity:1;fill-rule:nonzero;stroke:none"/></g><g id="g124" transform="translate(12.2286,1.8857)"><path id="path126" d="m 0,0 c 0,-0.615 -0.499,-1.114 -1.114,-1.114 -0.616,0 -1.115,0.499 -1.115,1.114 0,0.615 0.499,1.114 1.115,1.114 C -0.499,1.114 0,0.615 0,0" style="fill:#af7e57;fill-opacity:1;fill-rule:nonzero;stroke:none"/></g><g id="g128" transform="translate(26,1.8857)"><path id="path130" d="m 0,0 c 0,-0.615 -0.499,-1.114 -1.114,-1.114 -0.616,0 -1.115,0.499 -1.115,1.114 0,0.615 0.499,1.114 1.115,1.114 C -0.499,1.114 0,0.615 0,0" style="fill:#af7e57;fill-opacity:1;fill-rule:nonzero;stroke:none"/></g><g id="g132" transform="translate(12.5,4)"><path id="path134" d="m 0,0 0,0 c -0.275,0 -0.5,0.225 -0.5,0.5 l 0,8 C -0.5,8.775 -0.275,9 0,9 L 0,9 C 0.275,9 0.5,8.775 0.5,8.5 l 0,-8 C 0.5,0.225 0.275,0 0,0" style="fill:#9b6a49;fill-opacity:1;fill-rule:nonzero;stroke:none"/></g><g id="g136" transform="translate(23.5,4)"><path id="path138" d="m 0,0 0,0 c -0.275,0 -0.5,0.225 -0.5,0.5 l 0,8 C -0.5,8.775 -0.275,9 0,9 0.275,9 0.5,8.775 0.5,8.5 l 0,-8 C 0.5,0.225 0.275,0 0,0" style="fill:#9b6a49;fill-opacity:1;fill-rule:nonzero;stroke:none"/></g><path id="path140" d="M 24,0 12,0 12,7 24,7 24,0 Z" style="fill:#77b255;fill-opacity:1;fill-rule:nonzero;stroke:none"/><g id="g142" transform="translate(18,7)"><path id="path144" d="m 0,0 -6,0 0,-1 7.121,0 C 0.844,-0.598 0.481,-0.24 0,0" style="fill:#5c913b;fill-opacity:1;fill-rule:nonzero;stroke:none"/></g><g id="g146" transform="translate(23,0)"><path id="path148" d="m 0,0 -4,0 0,3 c 0,0 0,3 -2,4 L 0,7 0,0 Z" style="fill:#a6d388;fill-opacity:1;fill-rule:nonzero;stroke:none"/></g><g id="g150" transform="translate(24,0)"><path id="path152" d="m 0,0 -4,0 0,3 c 0,0 0,3 -2,4 L 0,7 0,0 Z" style="fill:#5c913b;fill-opacity:1;fill-rule:nonzero;stroke:none"/></g><g id="g154" transform="translate(18.1212,6)"><path id="path156" d="M 0,0 1,0 C 0.723,0.402 0.36,0.76 -0.121,1 l -1,0 C -0.64,0.76 -0.277,0.402 0,0" style="fill:#77b255;fill-opacity:1;fill-rule:nonzero;stroke:none"/></g><g id="g158" transform="translate(18,7)"><path id="path160" d="M 0,0 C 0.481,-0.24 0.844,-0.598 1.121,-1 L 6,-1 6,0 0,0 Z" style="fill:#3e721d;fill-opacity:1;fill-rule:nonzero;stroke:none"/></g><g id="g162" transform="translate(15.096,21.894)"><path id="path164" d="m 0,0 0,-5.929 c 0,-1.638 1.327,-2.965 2.965,-2.965 1.637,0 2.964,1.327 2.964,2.965 L 5.929,0 0,0 Z" style="fill:#af7e57;fill-opacity:1;fill-rule:nonzero;stroke:none"/></g><g id="g166" transform="translate(21.0253,23.3763)"><path id="path168" d="m 0,0 -5.929,-0.028 0,-5.901 c 0,0 2.964,-1.483 5.929,0 L 0,0 Z" style="fill:#9b6a49;fill-opacity:1;fill-rule:nonzero;stroke:none"/></g><g id="g170" transform="translate(24.3558,29)"><path id="path172" d="m 0,0 -12.59,1.757 0,-6.903 0,-0.001 c 0,-3.478 2.818,-6.294 6.295,-6.294 3.477,0 6.295,2.816 6.295,6.294 L 0,-5.146 0,0 Z" style="fill:#af7e57;fill-opacity:1;fill-rule:nonzero;stroke:none"/></g><g id="g174" transform="translate(20.5787,20.0767)"><path id="path176" d="m 0,0 -2.518,0 -2.518,0 c 0,0 0,-1.259 2.518,-1.259 C 0,-1.259 0,0 0,0" style="fill:#915a34;fill-opacity:1;fill-rule:nonzero;stroke:none"/></g><g id="g178" transform="translate(15.5425,24.4834)"><path id="path180" d="m 0,0 c 0,-0.348 -0.282,-0.629 -0.629,-0.629 -0.348,0 -0.63,0.281 -0.63,0.629 0,0.348 0.282,0.629 0.63,0.629 C -0.282,0.629 0,0.348 0,0" style="fill:#662113;fill-opacity:1;fill-rule:nonzero;stroke:none"/></g><g id="g182" transform="translate(21.8377,24.4834)"><path id="path184" d="m 0,0 c 0,-0.348 -0.281,-0.629 -0.629,-0.629 -0.348,0 -0.63,0.281 -0.63,0.629 0,0.348 0.282,0.629 0.63,0.629 C -0.281,0.629 0,0.348 0,0" style="fill:#662113;fill-opacity:1;fill-rule:nonzero;stroke:none"/></g><g id="g186" transform="translate(16.8015,22.5948)"><path id="path188" d="m 0,0 1.259,0 1.259,0 c 0,0 0,-1.259 -1.259,-1.259 C 0,-1.259 0,0 0,0" style="fill:#915a34;fill-opacity:1;fill-rule:nonzero;stroke:none"/></g><g id="g190" transform="translate(18.0002,34)"><path id="path192" d="m 0,0 c 4.328,0 7.033,-3.221 7.033,-5.905 0,-2.683 -0.541,-3.758 -1.082,-2.683 -0.541,1.073 -1.082,2.146 -1.082,2.146 0,0 -3.246,0 -4.328,1.075 0,0 1.623,-3.221 -1.623,0 0,0 0.541,-2.148 -2.705,0.536 0,0 -1.623,-1.074 -2.164,-3.757 -0.15,-0.745 -1.082,0 -1.082,2.683 C -7.033,-3.221 -4.869,0 0,0" style="fill:#60352a;fill-opacity:1;fill-rule:nonzero;stroke:none"/></g></g></g><g id="g194"><g id="g196" clip-path="url(#clipPath198)"><g id="g202"><g id="g210"><g style="opacity:.85000598" id="g212" clip-path="url(#clipPath206)"><g id="g214" transform="translate(11,1)"><path id="path216" d="M 0,0 C 0,1.657 1.343,3 3,3 4.657,3 6,1.657 6,0 6,-1.657 4.657,-3 3,-3 1.343,-3 0,-1.657 0,0" style="fill:#f5f8fa;fill-opacity:1;fill-rule:nonzero;stroke:none"/></g><g id="g218" transform="translate(7,4)"><path id="path220" d="M 0,0 C 0,1.657 1.343,3 3,3 4.657,3 6,1.657 6,0 6,-1.657 4.657,-3 3,-3 1.343,-3 0,-1.657 0,0" style="fill:#f5f8fa;fill-opacity:1;fill-rule:nonzero;stroke:none"/></g><g id="g222" transform="translate(6,8)"><path id="path224" d="M 0,0 C 0,1.657 1.343,3 3,3 4.657,3 6,1.657 6,0 6,-1.657 4.657,-3 3,-3 1.343,-3 0,-1.657 0,0" style="fill:#f5f8fa;fill-opacity:1;fill-rule:nonzero;stroke:none"/></g><g id="g226" transform="translate(1,10)"><path id="path228" d="M 0,0 C 0,1.657 1.343,3 3,3 4.657,3 6,1.657 6,0 6,-1.657 4.657,-3 3,-3 1.343,-3 0,-1.657 0,0" style="fill:#f5f8fa;fill-opacity:1;fill-rule:nonzero;stroke:none"/></g><g id="g230" transform="translate(-3,8)"><path id="path232" d="M 0,0 C 0,1.657 1.343,3 3,3 4.657,3 6,1.657 6,0 6,-1.657 4.657,-3 3,-3 1.343,-3 0,-1.657 0,0" style="fill:#f5f8fa;fill-opacity:1;fill-rule:nonzero;stroke:none"/></g><g id="g234" transform="translate(-1,9)"><path id="path236" d="m 0,0 11,0 4,-8 0,-3 -15,0 0,11 z" style="fill:#f5f8fa;fill-opacity:1;fill-rule:nonzero;stroke:none"/></g></g></g></g><g id="g238"><g id="g246"><g style="opacity:.85000598" id="g248" clip-path="url(#clipPath242)"><g id="g250" transform="translate(25,-1)"><path id="path252" d="m 0,0 c 0,1.657 -1.343,3 -3,3 -1.657,0 -3,-1.343 -3,-3 0,-1.657 1.343,-3 3,-3 1.657,0 3,1.343 3,3" style="fill:#f5f8fa;fill-opacity:1;fill-rule:nonzero;stroke:none"/></g><g id="g254" transform="translate(28,2)"><path id="path256" d="m 0,0 c 0,1.657 -1.343,3 -3,3 -1.657,0 -3,-1.343 -3,-3 0,-1.657 1.343,-3 3,-3 1.657,0 3,1.343 3,3" style="fill:#f5f8fa;fill-opacity:1;fill-rule:nonzero;stroke:none"/></g><g id="g258" transform="translate(29,6)"><path id="path260" d="m 0,0 c 0,1.657 -1.343,3 -3,3 -1.657,0 -3,-1.343 -3,-3 0,-1.657 1.343,-3 3,-3 1.657,0 3,1.343 3,3" style="fill:#f5f8fa;fill-opacity:1;fill-rule:nonzero;stroke:none"/></g><g id="g262" transform="translate(32,9)"><path id="path264" d="m 0,0 c 0,1.657 -1.343,3 -3,3 -1.657,0 -3,-1.343 -3,-3 0,-1.657 1.343,-3 3,-3 1.657,0 3,1.343 3,3" style="fill:#f5f8fa;fill-opacity:1;fill-rule:nonzero;stroke:none"/></g><g id="g266" transform="translate(37,8)"><path id="path268" d="m 0,0 c 0,1.657 -1.343,3 -3,3 -1.657,0 -3,-1.343 -3,-3 0,-1.657 1.343,-3 3,-3 1.657,0 3,1.343 3,3" style="fill:#f5f8fa;fill-opacity:1;fill-rule:nonzero;stroke:none"/></g><g id="g270" transform="translate(37,9)"><path id="path272" d="m 0,0 -11,0 -4,-8 0,-3 15,0 0,11 z" style="fill:#f5f8fa;fill-opacity:1;fill-rule:nonzero;stroke:none"/></g></g></g></g></g></g></g></svg>