<svg xmlns="http://www.w3.org/2000/svg" xmlns:svg="http://www.w3.org/2000/svg" style="enable-background:new 0 0 45 45" id="svg2" version="1.1" viewBox="0 0 45 45" xml:space="preserve"><metadata id="metadata8"/><defs id="defs6"><clipPath id="clipPath16" clipPathUnits="userSpaceOnUse"><path id="path18" d="M 0,36 36,36 36,0 0,0 0,36 Z"/></clipPath></defs><g id="g10" transform="matrix(1.25,0,0,-1.25,0,45)"><g id="g12"><g id="g14" clip-path="url(#clipPath16)"><g id="g20" transform="translate(32,0)"><path id="path22" d="m 0,0 0,2 c 0,3.314 -2.686,6 -6,6 l -16,0 c -3.313,0 -6,-2.686 -6,-6 l 0,-2 28,0 z" style="fill:#292f33;fill-opacity:1;fill-rule:nonzero;stroke:none"/></g><g id="g24" transform="translate(27,7.3826)"><path id="path26" d="m 0,0 c 2.239,2.225 7,9.617 7,11.617 0,0 -4.667,5 -16,5 l 0,-23 c 0,0 7.103,4.499 9,6.383" style="fill:#be1931;fill-opacity:1;fill-rule:nonzero;stroke:none"/></g><g id="g28" transform="translate(9,7.3826)"><path id="path30" d="m 0,0 c -2.239,2.225 -7,9.617 -7,11.617 0,0 4.667,5 16,5 l 0,-23 c 0,0 -7.103,4.499 -9,6.383" style="fill:#be1931;fill-opacity:1;fill-rule:nonzero;stroke:none"/></g><g id="g32" transform="translate(18.75,16.25)"><path id="path34" d="m 0,0 -1.5,0 c -0.413,0 -0.75,0.337 -0.75,0.75 0,0.413 0.337,0.75 0.75,0.75 L 0,1.5 C 0.413,1.5 0.75,1.163 0.75,0.75 0.75,0.337 0.413,0 0,0" style="fill:#c1694f;fill-opacity:1;fill-rule:nonzero;stroke:none"/></g><g id="g36" transform="translate(18.0043,31.9332)"><path id="path38" d="m 0,0 c 4.35,0 11.601,-2.175 11.601,-11.601 0,-9.426 0,-11.602 -2.175,-11.602 -2.176,0 -5.076,2.176 -9.426,2.176 -4.351,0 -7.19,-2.176 -9.427,-2.176 -2.423,0 -2.175,8.701 -2.175,11.602 C -11.602,-2.175 -4.351,0 0,0" style="fill:#292f33;fill-opacity:1;fill-rule:nonzero;stroke:none"/></g><g id="g40" transform="translate(17.9957,31.9332)"><path id="path42" d="m 0,0 c -4.35,0 -11.601,-2.175 -11.601,-11.601 0,-9.426 0,-11.602 2.175,-11.602 2.176,0 5.076,2.176 9.426,2.176 4.351,0 7.19,-2.176 9.427,-2.176 2.423,0 2.175,8.701 2.175,11.602 C 11.602,-2.175 4.351,0 0,0" style="fill:#292f33;fill-opacity:1;fill-rule:nonzero;stroke:none"/></g><g id="g44" transform="translate(22.2388,8)"><path id="path46" d="m 0,0 c 0,-1.92 -4.239,-7 -4.239,-7 0,0 -4.239,5.019 -4.239,7 L 0,0 Z" style="fill:#f7dece;fill-opacity:1;fill-rule:nonzero;stroke:none"/></g><g id="g48" transform="translate(14.291,7.7545)"><path id="path50" d="m 0,0 c 1.553,-1.129 2.959,-1.039 3.709,-1.039 0.75,0 2.325,-0.09 3.697,1.006 L 7.418,4.354 0,4.354 0,0 Z" style="fill:#f7dece;fill-opacity:1;fill-rule:nonzero;stroke:none"/></g><g id="g52" transform="translate(14.2907,9.9759)"><path id="path54" d="m 0,0 c 1.031,-1.224 3.022,-1.336 3.699,-1.336 0.677,0 2.67,0.112 3.701,1.336 l 0,3.112 -7.4,0 L 0,0 Z" style="fill:#eec2ad;fill-opacity:1;fill-rule:nonzero;stroke:none"/></g><g id="g56" transform="translate(9.2404,20.649)"><path id="path58" d="m 0,0 c 0,6.182 3.896,11.194 8.702,11.194 4.803,0 8.699,-5.012 8.699,-11.194 0,-6.181 -3.896,-11.238 -8.699,-11.238 C 3.896,-11.238 0,-6.181 0,0" style="fill:#f7dece;fill-opacity:1;fill-rule:nonzero;stroke:none"/></g><g id="g60" transform="translate(7.1117,17.1709)"><path id="path62" d="m 0,0 c -0.022,1.06 -0.047,0.237 -0.047,0.493 0,3.626 2.176,-0.524 2.176,2.059 0,2.584 1.45,2.843 2.9,4.293 0.725,0.725 2.175,2.147 2.175,2.147 0,0 3.625,-2.191 6.526,-2.191 2.9,0 5.801,-1.457 5.801,-4.358 0,-2.899 2.175,1.679 2.175,-1.946 0,-0.259 -0.024,0.563 -0.043,-0.497 l 0.762,0 c 0.006,2.119 0.006,2.039 0.006,3.393 0,9.426 -7.25,12.936 -11.602,12.936 -4.349,0 -11.53,-3.451 -11.53,-12.878 0,-0.84 -0.021,-1.332 0.009,-3.451 L 0,0 Z" style="fill:#292f33;fill-opacity:1;fill-rule:nonzero;stroke:none"/></g><g id="g64" transform="translate(14.4059,18.3506)"><path id="path66" d="m 0,0 0,0 c -0.493,0 -0.896,0.404 -0.896,0.897 l 0,0.895 c 0,0.493 0.403,0.897 0.896,0.897 0.494,0 0.897,-0.404 0.897,-0.897 l 0,-0.895 C 0.897,0.404 0.494,0 0,0" style="fill:#dd2e44;fill-opacity:1;fill-rule:nonzero;stroke:none"/></g><g id="g68" transform="translate(21.5744,18.3506)"><path id="path70" d="m 0,0 0,0 c -0.493,0 -0.896,0.404 -0.896,0.897 l 0,0.895 c 0,0.493 0.403,0.897 0.896,0.897 0.493,0 0.896,-0.404 0.896,-0.897 l 0,-0.895 C 0.896,0.404 0.493,0 0,0" style="fill:#dd2e44;fill-opacity:1;fill-rule:nonzero;stroke:none"/></g><g id="g72" transform="translate(18.8858,15.5813)"><path id="path74" d="m 0,0 -1.791,0 c -0.248,0 -0.448,0.201 -0.448,0.448 l 0,0.163 c 0,0.247 0.2,0.449 0.448,0.449 L 0,1.06 c 0.247,0 0.449,-0.202 0.449,-0.449 l 0,-0.163 C 0.449,0.201 0.247,0 0,0" style="fill:#c1694f;fill-opacity:1;fill-rule:nonzero;stroke:none"/></g><g id="g76" transform="translate(26,21.72)"><path id="path78" d="m 0,0 -0.47,-0.129 c 0,0 -1.192,-3.4 -0.001,-3.996 C 2.194,-5.457 3,-0.332 3,1 3,2 0,0 0,0" style="fill:#f7dece;fill-opacity:1;fill-rule:nonzero;stroke:none"/></g><g id="g80" transform="translate(10,21.72)"><path id="path82" d="m 0,0 0.47,-0.129 c 0,0 1.192,-3.4 0.001,-3.996 C -2.194,-5.457 -3,-0.332 -3,1 -3,2 0,0 0,0" style="fill:#f7dece;fill-opacity:1;fill-rule:nonzero;stroke:none"/></g><g id="g84" transform="translate(18.0595,11.4959)"><path id="path86" d="m 0,0 c -2.754,0 -3.6,1.904 -3.741,2.045 -0.256,0.257 -0.256,0.671 0,0.927 0.248,0.249 0.645,0.256 0.902,0.024 C -2.787,2.958 -2.118,2.509 0,2.509 c 2.2,0 2.836,0.485 2.842,0.49 C 3.098,3.253 3.499,3.241 3.755,2.985 4.011,2.729 3.997,2.302 3.741,2.045 3.6,1.904 2.754,0 0,0" style="fill:#c1694f;fill-opacity:1;fill-rule:nonzero;stroke:none"/></g><g id="g88" transform="translate(15.6259,13.9959)"><path id="path90" d="m 0,0 c -0.331,0 -0.637,-0.149 -0.84,-0.41 -0.204,-0.261 -0.274,-0.594 -0.194,-0.915 0.008,-0.034 0.02,-0.066 0.035,-0.098 l 1.012,-2.072 c 0.084,-0.172 0.259,-0.28 0.45,-0.28 0.002,0 0.005,0 0.008,0 0.195,0.003 0.369,0.119 0.448,0.296 l 0.88,1.973 c 0.012,0.027 0.021,0.054 0.028,0.083 0.064,0.257 0.018,0.52 -0.13,0.741 -0.173,0.258 -0.479,0.441 -0.817,0.489 l -0.767,0.18 C 0.076,-0.004 0.038,0 0,0" style="fill:#c1694f;fill-opacity:1;fill-rule:nonzero;stroke:none"/></g><g id="g92" transform="translate(16.4345,13.3084)"><path id="path94" d="m 0,0 -0.809,0.187 c -0.368,0 -0.638,-0.346 -0.549,-0.703 l 1.012,-2.072 0.879,1.973 C 0.614,-0.294 0.322,-0.046 0,0" style="fill:#f5f8fa;fill-opacity:1;fill-rule:nonzero;stroke:none"/></g><g id="g96" transform="translate(20.454,13.9959)"><path id="path98" d="M 0,0 C -0.038,0 -0.076,-0.004 -0.113,-0.013 L -0.922,-0.2 c -0.296,-0.041 -0.602,-0.224 -0.775,-0.482 -0.148,-0.221 -0.195,-0.484 -0.13,-0.741 0.007,-0.029 0.016,-0.056 0.028,-0.083 l 0.88,-1.973 c 0.079,-0.177 0.253,-0.293 0.448,-0.296 0.003,0 0.006,0 0.008,0 0.191,0 0.366,0.108 0.45,0.28 l 1.012,2.072 c 0.015,0.032 0.027,0.064 0.035,0.098 0.08,0.321 0.01,0.654 -0.194,0.915 C 0.637,-0.149 0.331,0 0,0" style="fill:#c1694f;fill-opacity:1;fill-rule:nonzero;stroke:none"/></g><g id="g100" transform="translate(19.6454,13.3084)"><path id="path102" d="m 0,0 0.809,0.187 c 0.368,0 0.638,-0.346 0.549,-0.703 L 0.346,-2.588 -0.533,-0.615 C -0.614,-0.294 -0.322,-0.046 0,0" style="fill:#f5f8fa;fill-opacity:1;fill-rule:nonzero;stroke:none"/></g></g></g></g></svg>