<svg xmlns="http://www.w3.org/2000/svg" xmlns:svg="http://www.w3.org/2000/svg" style="enable-background:new 0 0 45 45" id="svg2" version="1.1" viewBox="0 0 45 45" xml:space="preserve"><metadata id="metadata8"/><defs id="defs6"><clipPath id="clipPath16" clipPathUnits="userSpaceOnUse"><path id="path18" d="M 0,36 36,36 36,0 0,0 0,36 Z"/></clipPath></defs><g id="g10" transform="matrix(1.25,0,0,-1.25,0,45)"><g id="g12"><g id="g14" clip-path="url(#clipPath16)"><g id="g20" transform="translate(32,0)"><path id="path22" d="m 0,0 0,2 c 0,3.314 -2.686,6 -6,6 l -16,0 c -3.313,0 -6,-2.686 -6,-6 l 0,-2 28,0 z" style="fill:#88c9f9;fill-opacity:1;fill-rule:nonzero;stroke:none"/></g><g id="g24" transform="translate(13.6397,7.899)"><path id="path26" d="m 0,0 c 1.744,-1.267 2.849,-3.728 4.36,-3.728 1.512,0 2.616,2.462 4.36,3.728 l 0,3.811 L 0,3.811 0,0 Z" style="fill:#88c9f9;fill-opacity:1;fill-rule:nonzero;stroke:none"/></g><g id="g28" transform="translate(11.4444,20.0646)"><path id="path30" d="m 0,0 c 0,-1.448 -0.734,-2.622 -1.639,-2.622 -0.905,0 -1.805,1.109 -1.805,2.557 0,1.936 0.501,2.688 1.805,2.688 C -0.734,2.623 0,1.448 0,0" style="fill:#88c9f9;fill-opacity:1;fill-rule:nonzero;stroke:none"/></g><g id="g32" transform="translate(28,20)"><path id="path34" d="m 0,0 c 0,-1.448 -0.9,-2.558 -1.806,-2.558 -0.905,0 -1.638,1.174 -1.638,2.623 0,1.448 0.733,2.622 1.638,2.622 C -0.454,2.687 0,1.935 0,0" style="fill:#88c9f9;fill-opacity:1;fill-rule:nonzero;stroke:none"/></g><g id="g36" transform="translate(9.4777,19.0403)"><path id="path38" d="m 0,0 c 0,5.589 1.522,11.96 8.522,11.96 7,0 8.523,-6.371 8.523,-11.96 0,-5.04 -2.523,-10.12 -8.523,-10.12 C 2.522,-10.12 0,-5.04 0,0" style="fill:#88c9f9;fill-opacity:1;fill-rule:nonzero;stroke:none"/></g><g id="g40" transform="translate(21.7033,19.0923)"><path id="path42" d="M 0,0 -0.145,0 C -0.604,0 -0.98,0.376 -0.98,0.835 l 0,1.053 c 0,0.459 0.376,0.835 0.835,0.835 l 0.145,0 c 0.459,0 0.835,-0.376 0.835,-0.835 l 0,-1.053 C 0.835,0.376 0.459,0 0,0" style="fill:#662113;fill-opacity:1;fill-rule:nonzero;stroke:none"/></g><g id="g44" transform="translate(14.2967,19.0923)"><path id="path46" d="M 0,0 0.145,0 C 0.604,0 0.98,0.376 0.98,0.835 l 0,1.053 c 0,0.459 -0.376,0.835 -0.835,0.835 L 0,2.723 c -0.459,0 -0.835,-0.376 -0.835,-0.835 l 0,-1.053 C -0.835,0.376 -0.459,0 0,0" style="fill:#662113;fill-opacity:1;fill-rule:nonzero;stroke:none"/></g><g id="g48" transform="translate(18.0072,12.1978)"><path id="path50" d="m 0,0 c 2.754,0 3.6,0.706 3.741,0.848 0.256,0.256 0.256,0.671 0,0.927 C 3.493,2.023 3.096,2.03 2.839,1.798 2.787,1.761 2.118,1.311 0,1.311 c -2.2,0 -2.836,0.485 -2.842,0.49 C -3.098,2.056 -3.499,2.044 -3.755,1.787 -4.011,1.531 -3.997,1.104 -3.741,0.848 -3.6,0.706 -2.754,0 0,0" style="fill:#269;fill-opacity:1;fill-rule:nonzero;stroke:none"/></g><g id="g52" transform="translate(18.75,16.25)"><path id="path54" d="m 0,0 -1.5,0 c -0.413,0 -0.75,0.337 -0.75,0.75 0,0.413 0.337,0.75 0.75,0.75 L 0,1.5 C 0.413,1.5 0.75,1.163 0.75,0.75 0.75,0.337 0.413,0 0,0" style="fill:#55acee;fill-opacity:1;fill-rule:nonzero;stroke:none"/></g><g id="g56" transform="translate(12.0163,8.0499)"><path id="path58" d="m 0,0 c 0,0 -0.157,-6.817 3.987,-6.817 l 0,-1.233 -7.019,0 c 0,0 -0.214,5.924 1.016,8 L 0,0 Z" style="fill:#744eaa;fill-opacity:1;fill-rule:nonzero;stroke:none"/></g><g id="g60" transform="translate(23.9707,8.0499)"><path id="path62" d="m 0,0 c 0,0 0.157,-6.817 -3.987,-6.817 l 0,-1.233 7.019,0 c 0,0 0.214,5.924 -1.016,8 L 0,0 Z" style="fill:#744eaa;fill-opacity:1;fill-rule:nonzero;stroke:none"/></g><g id="g64" transform="translate(18,27.0659)"><path id="path66" d="M 0,0 C 0,0 7.149,-1.858 8.245,-5.204 8.723,-4.183 9,-1.947 9,-0.686 9,3.153 6,5.934 1.125,5.934 l -2.25,0 C -5.25,5.934 -9,3.153 -9,-0.686 -9,-1.947 -8.723,-4.349 -8.246,-5.37 -7.149,-2.022 0,0 0,0" style="fill:#744eaa;fill-opacity:1;fill-rule:nonzero;stroke:none"/></g><g id="g68" transform="translate(26.9851,25.8234)"><path id="path70" d="M 0,0 C -1.396,1.115 -3.044,2.036 -4.612,2.559 -4.977,2.681 -5.367,2.483 -5.488,2.121 -5.609,1.759 -5.413,1.367 -5.051,1.245 -3.385,0.69 -1.556,-0.421 -0.168,-1.69 -0.079,-1.066 -0.017,-0.361 0,0" style="fill:#cbb7ea;fill-opacity:1;fill-rule:nonzero;stroke:none"/></g><g id="g72" transform="translate(9.1167,24.6895)"><path id="path74" d="M 0,0 C 2.007,1.436 8.723,5.759 16.398,5.819 15.924,6.363 15.414,6.756 14.819,7.126 8.113,6.628 2.392,3.287 -0.111,1.605 -0.102,1.15 -0.065,0.592 0,0" style="fill:#cbb7ea;fill-opacity:1;fill-rule:nonzero;stroke:none"/></g><g id="g76" transform="translate(26.4205,29.1099)"><path id="path78" d="m 0,0 c -0.028,0.004 -0.084,0 -0.113,0 -2.835,0 -5.703,-0.71 -8.528,-2.108 0.14,0.042 0.22,0.064 0.22,0.064 0,0 0.816,-0.212 1.937,-0.621 2.126,0.845 4.263,1.281 6.371,1.281 0.203,0 0.404,-0.014 0.573,-0.053 C 0.385,-1.018 0.213,-0.426 0,0" style="fill:#cbb7ea;fill-opacity:1;fill-rule:nonzero;stroke:none"/></g><g id="g80" transform="translate(9.1875,27.9644)"><path id="path82" d="M 0,0 C 2.477,1.586 7.101,3.872 12.342,4.784 11.547,5.02 10.796,5.036 9.938,5.036 l -1.765,0 C 5.448,3.977 3.021,3.179 1.15,2.149 0.615,1.47 0.216,0.834 0,0" style="fill:#cbb7ea;fill-opacity:1;fill-rule:nonzero;stroke:none"/></g><g id="g84" transform="translate(18.1123,30.1131)"><path id="path86" d="m 0,0 0,0 c 0.887,0 1.612,-0.726 1.612,-1.612 l 0,-1.651 C 1.612,-4.15 0.887,-4.875 0,-4.875 l 0,0 c -0.887,0 -1.612,0.725 -1.612,1.612 l 0,1.651 C -1.612,-0.726 -0.887,0 0,0" style="fill:#ffd983;fill-opacity:1;fill-rule:nonzero;stroke:none"/></g><g id="g88" transform="translate(18.1123,29.1099)"><path id="path90" d="m 0,0 0,0 c 0.484,0 0.881,-0.396 0.881,-0.881 l 0,-1.107 C 0.881,-2.473 0.484,-2.869 0,-2.869 l 0,0 c -0.484,0 -0.881,0.396 -0.881,0.881 l 0,1.107 C -0.881,-0.396 -0.484,0 0,0" style="fill:#ffac33;fill-opacity:1;fill-rule:nonzero;stroke:none"/></g><g id="g92" transform="translate(26.5459,15.8408)"><path id="path94" d="M 0,0 C 0.032,0.204 -0.107,0.396 -0.312,0.428 -0.521,0.467 -0.709,0.319 -0.74,0.115 -0.751,0.051 -1.812,-6.135 -7.971,-6.51 c 0.11,0.968 -0.079,1.805 -0.088,1.846 -0.064,0.269 -0.334,0.44 -0.602,0.372 -0.268,-0.063 -0.435,-0.332 -0.372,-0.601 0.002,-0.008 0.178,-0.783 0.052,-1.627 -6.269,0.28 -7.328,6.37 -7.37,6.636 -0.033,0.204 -0.224,0.344 -0.429,0.312 -0.204,-0.032 -0.344,-0.224 -0.312,-0.428 0.008,-0.049 0.567,-3.305 3.132,-5.45 0.008,-0.017 0.026,-0.04 0.07,-0.078 0.749,-0.647 3.924,-3.988 5.34,-4.061 l 0,-0.002 c 0.001,0 0.003,10e-4 0.004,10e-4 10e-4,0 0.002,-10e-4 0.004,-10e-4 l 0,0.002 c 1.416,0.073 4.591,3.414 5.339,4.061 0.044,0.037 0.062,0.06 0.07,0.077 C -0.567,-3.306 -0.007,-0.049 0,0" style="fill:#000;fill-opacity:1;fill-rule:nonzero;stroke:none"/></g></g></g></g></svg>