<svg xmlns="http://www.w3.org/2000/svg" xmlns:svg="http://www.w3.org/2000/svg" style="enable-background:new 0 0 45 45" id="svg2" version="1.1" viewBox="0 0 45 45" xml:space="preserve"><metadata id="metadata8"/><defs id="defs6"><clipPath id="clipPath16" clipPathUnits="userSpaceOnUse"><path id="path18" d="M 0,36 36,36 36,0 0,0 0,36 Z"/></clipPath></defs><g id="g10" transform="matrix(1.25,0,0,-1.25,0,45)"><g id="g12"><g id="g14" clip-path="url(#clipPath16)"><g id="g20" transform="translate(8,22)"><path id="path22" d="M 0,0 C 0,0 -1,-14 -1,-19 L 10,-19 10,1 0,0 Z" style="fill:#662113;fill-opacity:1;fill-rule:nonzero;stroke:none"/></g><g id="g24" transform="translate(28,22)"><path id="path26" d="m 0,0 c 0,0 1,-14 1,-19 l -11,0 0,20 10,-1 z" style="fill:#662113;fill-opacity:1;fill-rule:nonzero;stroke:none"/></g><g id="g28" transform="translate(18,24)"><path id="path30" d="m 0,0 0,8 c -5,0 -10,-3 -10,-9 0,-6 2.553,-0.894 3,0 2,4 5,1 7,1" style="fill:#662113;fill-opacity:1;fill-rule:nonzero;stroke:none"/></g><g id="g32" transform="translate(18,24)"><path id="path34" d="M 0,0 0,8 C 5,8 10,5 10,-1 10,-7 7.447,-1.894 7,-1 5,3 2,0 0,0" style="fill:#662113;fill-opacity:1;fill-rule:nonzero;stroke:none"/></g><g id="g36" transform="translate(32,0)"><path id="path38" d="m 0,0 0,2 c 0,3.314 -2.686,6 -6,6 l -16,0 c -3.313,0 -6,-2.686 -6,-6 l 0,-2 28,0 z" style="fill:#3b88c3;fill-opacity:1;fill-rule:nonzero;stroke:none"/></g><g id="g40" transform="translate(13.6397,7.899)"><path id="path42" d="m 0,0 c 1.744,-1.267 2.848,-1.962 4.36,-1.962 1.512,0 2.616,0.696 4.36,1.962 l 0,3.811 L 0,3.811 0,0 Z" style="fill:#f3d2a2;fill-opacity:1;fill-rule:nonzero;stroke:none"/></g><g id="g44" transform="translate(13.6318,10.0272)"><path id="path46" d="m 0,0 c 1.216,-1.374 2.724,-1.746 4.364,-1.746 1.639,0 3.147,0.373 4.364,1.746 l 0,3.491 L 0,3.491 0,0 Z" style="fill:#e2c196;fill-opacity:1;fill-rule:nonzero;stroke:none"/></g><g id="g48" transform="translate(9.4777,19.0403)"><path id="path50" d="m 0,0 c 0,5.589 3.816,10.121 8.522,10.121 4.707,0 8.523,-4.532 8.523,-10.121 0,-5.589 -3.816,-10.12 -8.523,-10.12 C 3.816,-10.12 0,-5.589 0,0" style="fill:#f3d2a2;fill-opacity:1;fill-rule:nonzero;stroke:none"/></g><g id="g52" transform="translate(18,12.1978)"><path id="path54" d="m 0,0 c -2.754,0 -3.6,0.706 -3.741,0.848 -0.256,0.256 -0.256,0.671 0,0.927 0.248,0.248 0.645,0.255 0.902,0.023 C -2.787,1.761 -2.118,1.311 0,1.311 c 2.2,0 2.836,0.485 2.842,0.49 C 3.098,2.056 3.499,2.044 3.755,1.787 4.011,1.531 3.997,1.104 3.741,0.848 3.6,0.706 2.754,0 0,0" style="fill:#c1694f;fill-opacity:1;fill-rule:nonzero;stroke:none"/></g><g id="g56" transform="translate(14,19)"><path id="path58" d="m 0,0 0,0 c -0.55,0 -1,0.45 -1,1 l 0,1 c 0,0.55 0.45,1 1,1 L 0,3 C 0.55,3 1,2.55 1,2 L 1,1 C 1,0.45 0.55,0 0,0" style="fill:#662113;fill-opacity:1;fill-rule:nonzero;stroke:none"/></g><g id="g60" transform="translate(22,19)"><path id="path62" d="m 0,0 0,0 c -0.55,0 -1,0.45 -1,1 l 0,1 c 0,0.55 0.45,1 1,1 L 0,3 C 0.55,3 1,2.55 1,2 L 1,1 C 1,0.45 0.55,0 0,0" style="fill:#662113;fill-opacity:1;fill-rule:nonzero;stroke:none"/></g><g id="g64" transform="translate(18.75,16.25)"><path id="path66" d="m 0,0 -1.5,0 c -0.413,0 -0.75,0.337 -0.75,0.75 0,0.413 0.337,0.75 0.75,0.75 L 0,1.5 C 0.413,1.5 0.75,1.163 0.75,0.75 0.75,0.337 0.413,0 0,0" style="fill:#c1694f;fill-opacity:1;fill-rule:nonzero;stroke:none"/></g><g id="g68" transform="translate(8,21.72)"><path id="path70" d="m 0,0 1.868,-1.849 c 0,0 1.192,-3.4 0,-3.996 C -0.796,-7.177 -3,-0.332 -3,1 -3,2 0,0 0,0" style="fill:#f3d2a2;fill-opacity:1;fill-rule:nonzero;stroke:none"/></g><g id="g72" transform="translate(27.3974,21.72)"><path id="path74" d="m 0,0 -1.868,-1.849 c 0,0 -1.192,-3.4 0,-3.996 C 0.796,-7.177 3.603,-0.332 3.603,1 3.603,2 0,0 0,0" style="fill:#f3d2a2;fill-opacity:1;fill-rule:nonzero;stroke:none"/></g><g id="g76" transform="translate(18,32)"><path id="path78" d="m 0,0 c -5,0 -9,-3 -9,-9 0,-6 1.553,-0.894 2,0 2,4 5,3 7,3 2,0 5,1 7,-3 0.447,-0.894 2,-6 2,0 0,6 -4,9 -9,9" style="fill:#662113;fill-opacity:1;fill-rule:nonzero;stroke:none"/></g><g id="g80" transform="translate(9,23)"><path id="path82" d="m 0,0 -1,-23 4,0 C 3,-23 0.373,-2.516 2,0 2.698,1.08 0,0 0,0" style="fill:#662113;fill-opacity:1;fill-rule:nonzero;stroke:none"/></g><g id="g84" transform="translate(27.0577,23)"><path id="path86" d="m 0,0 1,-23 -4.058,0 c 0,0 2.685,20.484 1.058,23 -0.698,1.08 2,0 2,0" style="fill:#662113;fill-opacity:1;fill-rule:nonzero;stroke:none"/></g></g></g></g></svg>