<svg xmlns="http://www.w3.org/2000/svg" xmlns:svg="http://www.w3.org/2000/svg" style="enable-background:new 0 0 45 45" id="svg2" version="1.1" viewBox="0 0 45 45" xml:space="preserve"><metadata id="metadata8"/><defs id="defs6"><clipPath id="clipPath16" clipPathUnits="userSpaceOnUse"><path id="path18" d="M 0,36 36,36 36,0 0,0 0,36 Z"/></clipPath></defs><g id="g10" transform="matrix(1.25,0,0,-1.25,0,45)"><g id="g12"><g id="g14" clip-path="url(#clipPath16)"><g id="g20" transform="translate(13,34)"><path id="path22" d="m 0,0 c -1,-1 -2.576,-5.03 -3,-8 -1,-7 -1,-18 -1,-18 0,0 2,-1 4,-1 2,0 1,-1 6,-1 0,0 -1.89,22.92 1,27 1.77,2.499 -6,2 -7,1" style="fill:#a0041e;fill-opacity:1;fill-rule:nonzero;stroke:none"/></g><g id="g24" transform="translate(10.4087,30.2696)"><path id="path26" d="m 0,0 c -2.266,-1.306 -2.984,-3.3 -3.409,-6.27 -1,-7 -1,-18 -1,-18 0,0 2,-1 4,-1 2,0 1,-1 6,-1 0,0 -2,23 1,27 C 9.591,4.73 1.225,0.706 0,0" style="fill:#dd2e44;fill-opacity:1;fill-rule:nonzero;stroke:none"/></g><g id="g28" transform="translate(13.4825,31.7258)"><path id="path30" d="m 0,0 c 0,0 -2.649,-1.212 -3.074,-1.456 -1.423,-0.82 -2.235,-1.913 -2.748,-3.347 1.884,-0.775 5.205,-1.091 7.981,-1.189 0.009,0.097 1.588,1.099 1.588,1.099 L 3.748,-0.4 0,0 Z" style="fill:#a0041e;fill-opacity:1;fill-rule:nonzero;stroke:none"/></g><g id="g32" transform="translate(28.9823,34.3586)"><path id="path34" d="m 0,0 c -0.907,2.759 -6.352,0.92 -9.982,0.92 -3.692,0 -9.016,1.839 -9.939,-0.92 -0.923,-2.76 -4.615,-5.519 0.923,-6.439 5.539,-0.92 9.016,-0.92 9.016,-0.92 0,0 3.63,0 9.075,0.92 C 4.537,-5.519 0.907,-2.76 0,0" style="fill:#dd2e44;fill-opacity:1;fill-rule:nonzero;stroke:none"/></g><g id="g36" transform="translate(26.3852,35.1338)"><path id="path38" d="m 0,0 c -0.923,0 -3.693,-0.751 -7.385,-0.751 -3.692,0 -6.462,0.751 -7.385,0.751 -0.923,0 0.923,-1.772 7.385,-1.772 C -0.923,-1.772 0.923,0 0,0" style="fill:#a0041e;fill-opacity:1;fill-rule:nonzero;stroke:none"/></g><g id="g40" transform="translate(6.2573,1.2822)"><path id="path42" d="M 0,0 C -0.255,0 -0.472,0.193 -0.497,0.452 -0.555,1.047 -0.569,3.128 -0.263,4.293 -0.192,4.561 0.086,4.722 0.348,4.649 0.615,4.579 0.774,4.306 0.704,4.039 0.431,2.999 0.454,1.009 0.498,0.548 0.525,0.273 0.323,0.028 0.048,0.002 0.032,0.001 0.016,0 0,0" style="fill:#dd2e44;fill-opacity:1;fill-rule:nonzero;stroke:none"/></g><g id="g44" transform="translate(7.8257,0.9004)"><path id="path46" d="m 0,0 c -0.254,0 -0.472,0.193 -0.497,0.452 -0.057,0.584 -0.066,2.515 0.246,3.829 0.063,0.27 0.333,0.44 0.602,0.371 C 0.62,4.589 0.786,4.319 0.722,4.051 0.445,2.885 0.45,1.049 0.498,0.548 0.525,0.273 0.323,0.029 0.048,0.002 0.032,0.001 0.016,0 0,0" style="fill:#dd2e44;fill-opacity:1;fill-rule:nonzero;stroke:none"/></g><g id="g48" transform="translate(9.5088,0.5518)"><path id="path50" d="M 0,0 C -0.254,0 -0.472,0.193 -0.497,0.452 -0.541,0.905 -0.596,3.053 -0.271,4.429 -0.208,4.698 0.062,4.869 0.33,4.801 0.599,4.737 0.765,4.469 0.702,4.2 0.426,3.029 0.452,1.024 0.498,0.548 0.525,0.273 0.323,0.029 0.048,0.002 0.032,0.001 0.016,0 0,0" style="fill:#dd2e44;fill-opacity:1;fill-rule:nonzero;stroke:none"/></g><g id="g52" transform="translate(11.3662,0.3828)"><path id="path54" d="m 0,0 c -0.276,0 -0.5,0.224 -0.5,0.5 0,0.309 -0.007,0.587 -0.013,0.851 -0.023,0.911 -0.042,1.697 0.242,2.927 0.063,0.269 0.328,0.436 0.6,0.375 C 0.598,4.591 0.766,4.322 0.704,4.054 0.448,2.946 0.465,2.253 0.486,1.375 0.493,1.105 0.5,0.817 0.5,0.5 0.5,0.224 0.276,0 0,0" style="fill:#dd2e44;fill-opacity:1;fill-rule:nonzero;stroke:none"/></g><g id="g56" transform="translate(13.2393,0.0117)"><path id="path58" d="M 0,0 C -0.254,0 -0.472,0.193 -0.497,0.452 -0.551,1.013 -0.511,2.814 -0.283,4.077 -0.233,4.35 0.029,4.524 0.298,4.48 0.57,4.432 0.75,4.171 0.702,3.899 0.479,2.665 0.458,0.97 0.498,0.548 0.525,0.273 0.323,0.029 0.048,0.002 0.032,0.001 0.016,0 0,0" style="fill:#dd2e44;fill-opacity:1;fill-rule:nonzero;stroke:none"/></g><g id="g60" transform="translate(15.4478,0.1064)"><path id="path62" d="m 0,0 c -0.255,0 -0.472,0.193 -0.497,0.452 -0.034,0.349 -0.022,1.142 -0.007,2.06 0.007,0.502 0.015,1.022 0.015,1.476 0,0.277 0.224,0.5 0.5,0.5 0.277,0 0.5,-0.223 0.5,-0.5 C 0.511,3.529 0.503,3.004 0.496,2.496 0.483,1.683 0.47,0.841 0.498,0.548 0.525,0.273 0.323,0.028 0.048,0.002 0.032,0.001 0.016,0 0,0" style="fill:#dd2e44;fill-opacity:1;fill-rule:nonzero;stroke:none"/></g><g id="g64" transform="translate(18.5986,1.6621)"><path id="path66" d="m 0,0 c -0.254,0 -0.472,0.193 -0.497,0.452 -0.05,0.522 -0.143,2.261 -0.143,3.535 0,0.277 0.223,0.5 0.5,0.5 0.276,0 0.5,-0.223 0.5,-0.5 C 0.36,2.763 0.451,1.04 0.498,0.548 0.524,0.273 0.323,0.029 0.048,0.002 0.032,0.001 0.016,0 0,0" style="fill:#a0041e;fill-opacity:1;fill-rule:nonzero;stroke:none"/></g><g id="g68" transform="translate(16.9536,1.7559)"><path id="path70" d="m 0,0 c -0.254,0 -0.472,0.193 -0.497,0.452 -0.05,0.522 -0.143,2.261 -0.143,3.536 0,0.277 0.223,0.5 0.5,0.5 0.276,0 0.5,-0.223 0.5,-0.5 C 0.36,2.763 0.451,1.04 0.498,0.548 0.525,0.273 0.323,0.029 0.048,0.002 0.032,0.001 0.016,0 0,0" style="fill:#a0041e;fill-opacity:1;fill-rule:nonzero;stroke:none"/></g></g></g></g></svg>