<svg xmlns="http://www.w3.org/2000/svg" xmlns:svg="http://www.w3.org/2000/svg" style="enable-background:new 0 0 45 45" id="svg2" version="1.1" viewBox="0 0 45 45" xml:space="preserve"><metadata id="metadata8"/><defs id="defs6"><clipPath id="clipPath16" clipPathUnits="userSpaceOnUse"><path id="path18" d="M 0,36 36,36 36,0 0,0 0,36 Z"/></clipPath></defs><g id="g10" transform="matrix(1.25,0,0,-1.25,0,45)"><g id="g12"><g id="g14" clip-path="url(#clipPath16)"><g id="g20" transform="translate(27,16.7243)"><path id="path22" d="m 0,0 c -0.983,0 -1.893,-0.294 -2.667,-0.784 l 0,-4.549 -2.299,0 C -4.792,-7.936 -2.647,-10 0,-10 c 2.761,0 5,2.239 5,5 L 5,0 0,0 Z" style="fill:#55acee;fill-opacity:1;fill-rule:nonzero;stroke:none"/></g><g id="g24" transform="translate(22.9945,13)"><path id="path26" d="m 0,0 0.006,16 9,0 L 9,0 0,0 Z" style="fill:#1c6399;fill-opacity:1;fill-rule:nonzero;stroke:none"/></g><g id="g28" transform="translate(23.6765,1.318)"><path id="path30" d="M 0,0 -6.354,6.354 0.527,13.229 6.881,6.875 0,0 Z" style="fill:#1c6399;fill-opacity:1;fill-rule:nonzero;stroke:none"/></g><g id="g32" transform="translate(30,32)"><path id="path34" d="m 0,0 -5,0 c -1.1,0 -2,-0.9 -2,-2 l 0,-2 9,0 0,2 C 2,-0.9 1.1,0 0,0" style="fill:#55acee;fill-opacity:1;fill-rule:nonzero;stroke:none"/></g><g id="g36" transform="translate(15,20.7243)"><path id="path38" d="m 0,0 c -0.983,0 -1.893,-0.294 -2.667,-0.784 l 0,-4.549 -2.299,0 C -4.792,-7.936 -2.647,-10 0,-10 c 2.761,0 5,2.239 5,5 L 5,0 0,0 Z" style="fill:#55acee;fill-opacity:1;fill-rule:nonzero;stroke:none"/></g><g id="g40" transform="translate(10.9945,17)"><path id="path42" d="m 0,0 0.006,16 9,0 L 9,0 0,0 Z" style="fill:#1c6399;fill-opacity:1;fill-rule:nonzero;stroke:none"/></g><g id="g44" transform="translate(23.6765,1.318)"><path id="path46" d="m 0,0 c -1.757,-1.757 -4.607,-1.757 -6.364,0 -1.757,1.757 -1.757,4.607 0,6.364 0,0 1.149,-0.133 3.69,-2.674 C -0.133,1.149 0,0 0,0" style="fill:#55acee;fill-opacity:1;fill-rule:nonzero;stroke:none"/></g><g id="g48" transform="translate(18,36)"><path id="path50" d="m 0,0 -5,0 c -1.1,0 -2,-0.9 -2,-2 l 0,-2 9,0 0,2 C 2,-0.9 1.1,0 0,0" style="fill:#55acee;fill-opacity:1;fill-rule:nonzero;stroke:none"/></g><g id="g52" transform="translate(11.6765,5.318)"><path id="path54" d="M 0,0 -6.354,6.354 0.527,13.229 6.881,6.875 0,0 Z" style="fill:#1c6399;fill-opacity:1;fill-rule:nonzero;stroke:none"/></g><g id="g56" transform="translate(11.6765,5.318)"><path id="path58" d="m 0,0 c -1.757,-1.757 -4.607,-1.757 -6.364,0 -1.757,1.757 -1.757,4.607 0,6.364 0,0 1.149,-0.133 3.69,-2.674 C -0.133,1.149 0,0 0,0" style="fill:#55acee;fill-opacity:1;fill-rule:nonzero;stroke:none"/></g><path id="path60" d="m 22.994,23.933 9,0 0,2 -9,0 0,-2 z" style="fill:#ffcc4d;fill-opacity:1;fill-rule:nonzero;stroke:none"/><path id="path62" d="m 22.994,19.933 9,0 0,2 -9,0 0,-2 z" style="fill:#ffcc4d;fill-opacity:1;fill-rule:nonzero;stroke:none"/><path id="path64" d="m 10.994,27.933 9,0 0,2 -9,0 0,-2 z" style="fill:#ffcc4d;fill-opacity:1;fill-rule:nonzero;stroke:none"/><path id="path66" d="m 10.994,23.933 9,0 0,2 -9,0 0,-2 z" style="fill:#ffcc4d;fill-opacity:1;fill-rule:nonzero;stroke:none"/></g></g></g></svg>