<svg xmlns="http://www.w3.org/2000/svg" xmlns:svg="http://www.w3.org/2000/svg" style="enable-background:new 0 0 45 45" id="svg2" version="1.1" viewBox="0 0 45 45" xml:space="preserve"><metadata id="metadata8"/><defs id="defs6"><clipPath id="clipPath16" clipPathUnits="userSpaceOnUse"><path id="path18" d="M 0,36 36,36 36,0 0,0 0,36 Z"/></clipPath></defs><g id="g10" transform="matrix(1.25,0,0,-1.25,0,45)"><g id="g12"><g id="g14" clip-path="url(#clipPath16)"><g id="g20" transform="translate(25,4)"><path id="path22" d="m 0,0 c 0,-2.209 -1.791,-4 -4,-4 l -6,0 c -2.209,0 -4,1.791 -4,4 l 0,28 c 0,2.209 1.791,4 4,4 l 6,0 c 2.209,0 4,-1.791 4,-4 L 0,0 Z" style="fill:#292f33;fill-opacity:1;fill-rule:nonzero;stroke:none"/></g><g id="g24" transform="translate(32,18)"><path id="path26" d="m 0,0 c 0,1.105 -0.895,2 -2,2 l -1,0 c -1.104,0 -2,-0.895 -2,-2 0,-1.104 0.896,-2 2,-2 l 1,0 c 1.105,0 2,0.896 2,2" style="fill:#99aab5;fill-opacity:1;fill-rule:nonzero;stroke:none"/></g><g id="g28" transform="translate(6.0005,18)"><path id="path30" d="M 0,0 C 0,6.627 5.373,12 12,12 18.627,12 24,6.627 24,0 24,-6.627 18.627,-12 12,-12 5.373,-12 0,-6.627 0,0" style="fill:#ccd6dd;fill-opacity:1;fill-rule:nonzero;stroke:none"/></g><g id="g32" transform="translate(10.0005,18)"><path id="path34" d="m 0,0 c 0,4.419 3.581,8 7.999,8 4.419,0 8,-3.581 8,-8 0,-4.418 -3.581,-8 -8,-8 C 3.581,-8 0,-4.418 0,0" style="fill:#f5f8fa;fill-opacity:1;fill-rule:nonzero;stroke:none"/></g><g id="g36" transform="translate(23,14)"><path id="path38" d="m 0,0 c -0.175,0 -0.352,0.046 -0.514,0.143 l -5,2.999 C -5.815,3.323 -6,3.648 -6,3.999 L -6,11 c 0,0.552 0.448,1 1,1 0.552,0 1,-0.448 1,-1 L -4,4.566 0.516,1.857 C 0.989,1.573 1.143,0.959 0.858,0.485 0.671,0.173 0.34,0 0,0" style="fill:#66757f;fill-opacity:1;fill-rule:nonzero;stroke:none"/></g></g></g></g></svg>