<svg xmlns="http://www.w3.org/2000/svg" xmlns:svg="http://www.w3.org/2000/svg" style="enable-background:new 0 0 45 45" id="svg2" version="1.1" viewBox="0 0 45 45" xml:space="preserve"><metadata id="metadata8"/><defs id="defs6"><clipPath id="clipPath16" clipPathUnits="userSpaceOnUse"><path id="path18" d="M 0,36 36,36 36,0 0,0 0,36 Z"/></clipPath></defs><g id="g10" transform="matrix(1.25,0,0,-1.25,0,45)"><g id="g12"><g id="g14" clip-path="url(#clipPath16)"><g id="g20" transform="translate(36,8)"><path id="path22" d="m 0,0 c 0,-1.104 -0.895,-2 -2,-2 l -32,0 c -1.104,0 -2,0.896 -2,2 l 0,16 c 0,1.105 0.896,2 2,2 l 32,0 c 1.105,0 2,-0.895 2,-2 L 0,0 Z" style="fill:#99aab5;fill-opacity:1;fill-rule:nonzero;stroke:none"/></g><g id="g24" transform="translate(5.5,17)"><path id="path26" d="m 0,0 c 0,-0.553 -0.448,-1 -1,-1 l -1,0 c -0.552,0 -1,0.447 -1,1 l 0,1 c 0,0.553 0.448,1 1,1 l 1,0 C -0.448,2 0,1.553 0,1 L 0,0 Z" style="fill:#292f33;fill-opacity:1;fill-rule:nonzero;stroke:none"/></g><g id="g28" transform="translate(9.5,17)"><path id="path30" d="m 0,0 c 0,-0.553 -0.448,-1 -1,-1 l -1,0 c -0.552,0 -1,0.447 -1,1 l 0,1 c 0,0.553 0.448,1 1,1 l 1,0 C -0.448,2 0,1.553 0,1 L 0,0 Z" style="fill:#292f33;fill-opacity:1;fill-rule:nonzero;stroke:none"/></g><g id="g32" transform="translate(13.5,17)"><path id="path34" d="m 0,0 c 0,-0.553 -0.448,-1 -1,-1 l -1,0 c -0.552,0 -1,0.447 -1,1 l 0,1 c 0,0.553 0.448,1 1,1 l 1,0 C -0.448,2 0,1.553 0,1 L 0,0 Z" style="fill:#292f33;fill-opacity:1;fill-rule:nonzero;stroke:none"/></g><g id="g36" transform="translate(17.5,17)"><path id="path38" d="m 0,0 c 0,-0.553 -0.448,-1 -1,-1 l -1,0 c -0.552,0 -1,0.447 -1,1 l 0,1 c 0,0.553 0.448,1 1,1 l 1,0 C -0.448,2 0,1.553 0,1 L 0,0 Z" style="fill:#292f33;fill-opacity:1;fill-rule:nonzero;stroke:none"/></g><g id="g40" transform="translate(21.5,17)"><path id="path42" d="m 0,0 c 0,-0.553 -0.447,-1 -1,-1 l -1,0 c -0.553,0 -1,0.447 -1,1 l 0,1 c 0,0.553 0.447,1 1,1 l 1,0 C -0.447,2 0,1.553 0,1 L 0,0 Z" style="fill:#292f33;fill-opacity:1;fill-rule:nonzero;stroke:none"/></g><g id="g44" transform="translate(25.5,17)"><path id="path46" d="m 0,0 c 0,-0.553 -0.447,-1 -1,-1 l -1,0 c -0.553,0 -1,0.447 -1,1 l 0,1 c 0,0.553 0.447,1 1,1 l 1,0 C -0.447,2 0,1.553 0,1 L 0,0 Z" style="fill:#292f33;fill-opacity:1;fill-rule:nonzero;stroke:none"/></g><g id="g48" transform="translate(29.5,17)"><path id="path50" d="m 0,0 c 0,-0.553 -0.447,-1 -1,-1 l -1,0 c -0.553,0 -1,0.447 -1,1 l 0,1 c 0,0.553 0.447,1 1,1 l 1,0 C -0.447,2 0,1.553 0,1 L 0,0 Z" style="fill:#292f33;fill-opacity:1;fill-rule:nonzero;stroke:none"/></g><g id="g52" transform="translate(33.5,17)"><path id="path54" d="m 0,0 c 0,-0.553 -0.447,-1 -1,-1 l -1,0 c -0.553,0 -1,0.447 -1,1 l 0,1 c 0,0.553 0.447,1 1,1 l 1,0 C -0.447,2 0,1.553 0,1 L 0,0 Z" style="fill:#292f33;fill-opacity:1;fill-rule:nonzero;stroke:none"/></g><g id="g56" transform="translate(7.5,13)"><path id="path58" d="m 0,0 c 0,-0.553 -0.448,-1 -1,-1 l -1,0 c -0.552,0 -1,0.447 -1,1 l 0,1 c 0,0.553 0.448,1 1,1 l 1,0 C -0.448,2 0,1.553 0,1 L 0,0 Z" style="fill:#292f33;fill-opacity:1;fill-rule:nonzero;stroke:none"/></g><g id="g60" transform="translate(11.5,13)"><path id="path62" d="m 0,0 c 0,-0.553 -0.448,-1 -1,-1 l -1,0 c -0.552,0 -1,0.447 -1,1 l 0,1 c 0,0.553 0.448,1 1,1 l 1,0 C -0.448,2 0,1.553 0,1 L 0,0 Z" style="fill:#292f33;fill-opacity:1;fill-rule:nonzero;stroke:none"/></g><g id="g64" transform="translate(15.5,13)"><path id="path66" d="m 0,0 c 0,-0.553 -0.448,-1 -1,-1 l -1,0 c -0.552,0 -1,0.447 -1,1 l 0,1 c 0,0.553 0.448,1 1,1 l 1,0 C -0.448,2 0,1.553 0,1 L 0,0 Z" style="fill:#292f33;fill-opacity:1;fill-rule:nonzero;stroke:none"/></g><g id="g68" transform="translate(19.5,13)"><path id="path70" d="m 0,0 c 0,-0.553 -0.447,-1 -1,-1 l -1,0 c -0.552,0 -1,0.447 -1,1 l 0,1 c 0,0.553 0.448,1 1,1 l 1,0 C -0.447,2 0,1.553 0,1 L 0,0 Z" style="fill:#292f33;fill-opacity:1;fill-rule:nonzero;stroke:none"/></g><g id="g72" transform="translate(23.5,13)"><path id="path74" d="m 0,0 c 0,-0.553 -0.447,-1 -1,-1 l -1,0 c -0.553,0 -1,0.447 -1,1 l 0,1 c 0,0.553 0.447,1 1,1 l 1,0 C -0.447,2 0,1.553 0,1 L 0,0 Z" style="fill:#292f33;fill-opacity:1;fill-rule:nonzero;stroke:none"/></g><g id="g76" transform="translate(27.5,13)"><path id="path78" d="m 0,0 c 0,-0.553 -0.447,-1 -1,-1 l -1,0 c -0.553,0 -1,0.447 -1,1 l 0,1 c 0,0.553 0.447,1 1,1 l 1,0 C -0.447,2 0,1.553 0,1 L 0,0 Z" style="fill:#292f33;fill-opacity:1;fill-rule:nonzero;stroke:none"/></g><g id="g80" transform="translate(31.5,13)"><path id="path82" d="m 0,0 c 0,-0.553 -0.447,-1 -1,-1 l -1,0 c -0.553,0 -1,0.447 -1,1 l 0,1 c 0,0.553 0.447,1 1,1 l 1,0 C -0.447,2 0,1.553 0,1 L 0,0 Z" style="fill:#292f33;fill-opacity:1;fill-rule:nonzero;stroke:none"/></g><g id="g84" transform="translate(10,9)"><path id="path86" d="m 0,0 c 0,-0.553 -0.448,-1 -1,-1 l -2,0 c -0.552,0 -1,0.447 -1,1 l 0,1 c 0,0.553 0.448,1 1,1 l 2,0 C -0.448,2 0,1.553 0,1 L 0,0 Z" style="fill:#292f33;fill-opacity:1;fill-rule:nonzero;stroke:none"/></g><g id="g88" transform="translate(30,9)"><path id="path90" d="m 0,0 c 0,-0.553 -0.447,-1 -1,-1 l -2,0 c -0.553,0 -1,0.447 -1,1 l 0,1 c 0,0.553 0.447,1 1,1 l 2,0 C -0.447,2 0,1.553 0,1 L 0,0 Z" style="fill:#292f33;fill-opacity:1;fill-rule:nonzero;stroke:none"/></g><g id="g92" transform="translate(25,9)"><path id="path94" d="m 0,0 c 0,-0.553 -0.447,-1 -1,-1 l -12,0 c -0.552,0 -1,0.447 -1,1 l 0,1 c 0,0.553 0.448,1 1,1 L -1,2 C -0.447,2 0,1.553 0,1 L 0,0 Z" style="fill:#292f33;fill-opacity:1;fill-rule:nonzero;stroke:none"/></g><g id="g96" transform="translate(5.5,22.9165)"><path id="path98" d="m 0,0 c 0,-0.552 -0.448,-1 -1,-1 l -1,0 c -0.552,0 -1,0.448 -1,1 0,0.552 0.448,1 1,1 l 1,0 C -0.448,1 0,0.552 0,0" style="fill:#292f33;fill-opacity:1;fill-rule:nonzero;stroke:none"/></g><g id="g100" transform="translate(9.5,22.9165)"><path id="path102" d="m 0,0 c 0,-0.552 -0.448,-1 -1,-1 l -1,0 c -0.552,0 -1,0.448 -1,1 0,0.552 0.448,1 1,1 l 1,0 C -0.448,1 0,0.552 0,0" style="fill:#292f33;fill-opacity:1;fill-rule:nonzero;stroke:none"/></g><g id="g104" transform="translate(13.5,22.9165)"><path id="path106" d="m 0,0 c 0,-0.552 -0.448,-1 -1,-1 l -1,0 c -0.552,0 -1,0.448 -1,1 0,0.552 0.448,1 1,1 l 1,0 C -0.448,1 0,0.552 0,0" style="fill:#292f33;fill-opacity:1;fill-rule:nonzero;stroke:none"/></g><g id="g108" transform="translate(17.5,22.9165)"><path id="path110" d="m 0,0 c 0,-0.552 -0.448,-1 -1,-1 l -1,0 c -0.552,0 -1,0.448 -1,1 0,0.552 0.448,1 1,1 l 1,0 C -0.448,1 0,0.552 0,0" style="fill:#292f33;fill-opacity:1;fill-rule:nonzero;stroke:none"/></g><g id="g112" transform="translate(21.5,22.9165)"><path id="path114" d="m 0,0 c 0,-0.552 -0.447,-1 -1,-1 l -1,0 c -0.553,0 -1,0.448 -1,1 0,0.552 0.447,1 1,1 l 1,0 C -0.447,1 0,0.552 0,0" style="fill:#292f33;fill-opacity:1;fill-rule:nonzero;stroke:none"/></g><g id="g116" transform="translate(25.5,22.9165)"><path id="path118" d="m 0,0 c 0,-0.552 -0.447,-1 -1,-1 l -1,0 c -0.553,0 -1,0.448 -1,1 0,0.552 0.447,1 1,1 l 1,0 C -0.447,1 0,0.552 0,0" style="fill:#292f33;fill-opacity:1;fill-rule:nonzero;stroke:none"/></g><g id="g120" transform="translate(29.5,22.9165)"><path id="path122" d="m 0,0 c 0,-0.552 -0.447,-1 -1,-1 l -1,0 c -0.553,0 -1,0.448 -1,1 0,0.552 0.447,1 1,1 l 1,0 C -0.447,1 0,0.552 0,0" style="fill:#292f33;fill-opacity:1;fill-rule:nonzero;stroke:none"/></g><g id="g124" transform="translate(33.5,22.9165)"><path id="path126" d="m 0,0 c 0,-0.552 -0.447,-1 -1,-1 l -1,0 c -0.553,0 -1,0.448 -1,1 0,0.552 0.447,1 1,1 l 1,0 C -0.447,1 0,0.552 0,0" style="fill:#292f33;fill-opacity:1;fill-rule:nonzero;stroke:none"/></g></g></g></g></svg>