<svg xmlns="http://www.w3.org/2000/svg" xmlns:svg="http://www.w3.org/2000/svg" style="enable-background:new 0 0 45 45" id="svg2" version="1.1" viewBox="0 0 45 45" xml:space="preserve"><metadata id="metadata8"/><defs id="defs6"><clipPath id="clipPath18" clipPathUnits="userSpaceOnUse"><path id="path20" d="M 0,36 36,36 36,0 0,0 0,36 Z"/></clipPath></defs><g id="g10" transform="matrix(1.25,0,0,-1.25,0,45)"><path id="path12" d="m 16,28 4,0 0,3 -4,0 0,-3 z" style="fill:#292f33;fill-opacity:1;fill-rule:nonzero;stroke:none"/><g id="g14"><g id="g16" clip-path="url(#clipPath18)"><g id="g22" transform="translate(22,35)"><path id="path24" d="m 0,0 -8,0 c -1.1,0 -2,-0.9 -2,-2 0,-1.1 0.9,-2 2,-2 l 2,0 4,0 2,0 c 1.1,0 2,0.9 2,2 0,1.1 -0.9,2 -2,2" style="fill:#8899a6;fill-opacity:1;fill-rule:nonzero;stroke:none"/></g><g id="g26" transform="translate(28.1841,24.4933)"><path id="path28" d="M 0,0 -1.504,1.318 C -2.332,2.043 -2.416,3.313 -1.691,4.14 l 0,0 c 0.725,0.828 1.995,0.911 2.822,0.187 L 2.636,3.009 C 3.463,2.284 3.547,1.014 2.822,0.186 l 0,0 C 2.097,-0.641 0.827,-0.725 0,0" style="fill:#8899a6;fill-opacity:1;fill-rule:nonzero;stroke:none"/></g><g id="g30" transform="translate(18,26)"><path id="path32" d="m 0,0 c -6.065,0 -11,-4.935 -11,-11 0,-6.065 4.935,-11 11,-11 6.065,0 11,4.935 11,11 C 11,-4.935 6.065,0 0,0" style="fill:#f5f8fa;fill-opacity:1;fill-rule:nonzero;stroke:none"/></g><g id="g34" transform="translate(18,4)"><path id="path36" d="m 0,0 c -6.065,0 -11,4.935 -11,11 0,6.065 4.935,11 11,11 C 6.065,22 11,17.065 11,11 11,4.935 6.065,0 0,0 M 0,25 C -7.732,25 -14,18.732 -14,11 -14,3.268 -7.732,-3 0,-3 7.732,-3 14,3.268 14,11 14,18.732 7.732,25 0,25" style="fill:#66757f;fill-opacity:1;fill-rule:nonzero;stroke:none"/></g><g id="g38" transform="translate(27,14)"><path id="path40" d="m 0,0 -10,0 c -0.552,0 -1,0.447 -1,1 0,0.553 0.448,1 1,1 L 0,2 C 0.553,2 1,1.553 1,1 1,0.447 0.553,0 0,0" style="fill:#292f33;fill-opacity:1;fill-rule:nonzero;stroke:none"/></g><g id="g42" transform="translate(19,24)"><path id="path44" d="m 0,0 c 0,-0.552 -0.448,-1 -1,-1 -0.552,0 -1,0.448 -1,1 0,0.552 0.448,1 1,1 0.552,0 1,-0.448 1,-1" style="fill:#292f33;fill-opacity:1;fill-rule:nonzero;stroke:none"/></g><g id="g46" transform="translate(19,6)"><path id="path48" d="m 0,0 c 0,-0.552 -0.448,-1 -1,-1 -0.552,0 -1,0.448 -1,1 0,0.552 0.448,1 1,1 0.552,0 1,-0.448 1,-1" style="fill:#292f33;fill-opacity:1;fill-rule:nonzero;stroke:none"/></g><g id="g50" transform="translate(12.7071,21.7071)"><path id="path52" d="m 0,0 c 0.391,-0.391 0.391,-1.024 0,-1.414 -0.391,-0.391 -1.024,-0.391 -1.414,0 -0.391,0.39 -0.391,1.023 0,1.414 0.39,0.391 1.023,0.391 1.414,0" style="fill:#292f33;fill-opacity:1;fill-rule:nonzero;stroke:none"/></g><g id="g54" transform="translate(24.7071,9.7071)"><path id="path56" d="m 0,0 c 0.391,-0.391 0.391,-1.024 0,-1.414 -0.391,-0.391 -1.024,-0.391 -1.414,0 -0.391,0.39 -0.391,1.023 0,1.414 0.39,0.391 1.023,0.391 1.414,0" style="fill:#292f33;fill-opacity:1;fill-rule:nonzero;stroke:none"/></g><g id="g58" transform="translate(9,16)"><path id="path60" d="m 0,0 c 0.552,0 1,-0.448 1,-1 0,-0.552 -0.448,-1 -1,-1 -0.552,0 -1,0.448 -1,1 0,0.552 0.448,1 1,1" style="fill:#292f33;fill-opacity:1;fill-rule:nonzero;stroke:none"/></g><g id="g62" transform="translate(23.2929,21.7071)"><path id="path64" d="m 0,0 c 0.391,0.391 1.024,0.391 1.414,0 0.391,-0.391 0.391,-1.024 0,-1.414 -0.39,-0.391 -1.023,-0.391 -1.414,0 -0.391,0.39 -0.391,1.023 0,1.414" style="fill:#292f33;fill-opacity:1;fill-rule:nonzero;stroke:none"/></g><g id="g66" transform="translate(12,8)"><path id="path68" d="m 0,0 c -0.256,0 -0.512,0.098 -0.707,0.293 -0.391,0.391 -0.391,1.023 0,1.414 l 7,7 c 0.391,0.391 1.023,0.391 1.414,0 0.391,-0.391 0.391,-1.023 0,-1.414 l -7,-7 C 0.512,0.098 0.256,0 0,0" style="fill:#dd2e44;fill-opacity:1;fill-rule:nonzero;stroke:none"/></g></g></g></g></svg>