<svg xmlns="http://www.w3.org/2000/svg" xmlns:svg="http://www.w3.org/2000/svg" style="enable-background:new 0 0 45 45" id="svg2" version="1.1" viewBox="0 0 45 45" xml:space="preserve"><metadata id="metadata8"/><defs id="defs6"><clipPath id="clipPath16" clipPathUnits="userSpaceOnUse"><path id="path18" d="M 0,36 36,36 36,0 0,0 0,36 Z"/></clipPath></defs><g id="g10" transform="matrix(1.25,0,0,-1.25,0,45)"><g id="g12"><g id="g14" clip-path="url(#clipPath16)"><g id="g20" transform="translate(18,36)"><path id="path22" d="m 0,0 c -9.389,0 -17,-7.611 -17,-17 l 0.029,0 0,-17 c 0,-1.1 0.9,-2 2,-2 L 15,-36 c 1.1,0 2,0.9 2,2 l 0,17 C 17,-7.611 9.389,0 0,0" style="fill:#aab8c2;fill-opacity:1;fill-rule:nonzero;stroke:none"/></g><g id="g24" transform="translate(18,5)"><path id="path26" d="m 0,0 c -7.72,0 -14,6.28 -14,14 0,7.72 6.28,14 14,14 C 7.72,28 14,21.72 14,14 14,6.28 7.72,0 0,0" style="fill:#fff;fill-opacity:1;fill-rule:nonzero;stroke:none"/></g><g id="g28" transform="translate(18,34)"><path id="path30" d="m 0,0 c -8.271,0 -15,-6.729 -15,-15 0,-8.271 6.729,-15 15,-15 8.271,0 15,6.729 15,15 C 15,-6.729 8.271,0 0,0 m 0,-2 c 7.18,0 13,-5.82 13,-13 0,-7.18 -5.82,-13 -13,-13 -7.18,0 -13,5.82 -13,13 0,7.18 5.82,13 13,13" style="fill:#66757f;fill-opacity:1;fill-rule:nonzero;stroke:none"/></g><g id="g32" transform="translate(19,30)"><path id="path34" d="M 0,0 C 0,0.552 -0.448,1 -1,1 -1.552,1 -2,0.552 -2,0 l 0,-1 c 0,-0.552 0.448,-1 1,-1 0.552,0 1,0.448 1,1 l 0,1 z" style="fill:#292f33;fill-opacity:1;fill-rule:nonzero;stroke:none"/></g><g id="g36" transform="translate(19,9)"><path id="path38" d="M 0,0 C 0,0.552 -0.448,1 -1,1 -1.552,1 -2,0.552 -2,0 l 0,-1 c 0,-0.552 0.448,-1 1,-1 0.552,0 1,0.448 1,1 l 0,1 z" style="fill:#292f33;fill-opacity:1;fill-rule:nonzero;stroke:none"/></g><g id="g40" transform="translate(8,20)"><path id="path42" d="m 0,0 -1,0 c -0.552,0 -1,-0.448 -1,-1 0,-0.552 0.448,-1 1,-1 l 1,0 c 0.552,0 1,0.448 1,1 0,0.552 -0.448,1 -1,1" style="fill:#292f33;fill-opacity:1;fill-rule:nonzero;stroke:none"/></g><g id="g44" transform="translate(29,20)"><path id="path46" d="m 0,0 -1,0 c -0.552,0 -1,-0.448 -1,-1 0,-0.552 0.448,-1 1,-1 l 1,0 c 0.552,0 1,0.448 1,1 0,0.552 -0.448,1 -1,1" style="fill:#292f33;fill-opacity:1;fill-rule:nonzero;stroke:none"/></g><g id="g48" transform="translate(26.7071,11.7071)"><path id="path50" d="m 0,0 c -0.132,0.132 -0.575,0.575 -0.707,0.707 -0.391,0.391 -1.024,0.391 -1.414,0 -0.391,-0.39 -0.391,-1.024 0,-1.414 0.131,-0.132 0.575,-0.576 0.707,-0.707 0.39,-0.391 1.023,-0.391 1.414,0 0.391,0.39 0.391,1.023 0,1.414" style="fill:#292f33;fill-opacity:1;fill-rule:nonzero;stroke:none"/></g><g id="g52" transform="translate(10,12.4142)"><path id="path54" d="m 0,0 -0.707,-0.707 c -0.391,-0.391 -0.391,-1.024 0,-1.414 0.39,-0.391 1.024,-0.391 1.414,0 0.132,0.131 0.576,0.575 0.707,0.707 0.391,0.39 0.391,1.023 0,1.414 C 1.024,0.391 0.391,0.391 0,0" style="fill:#292f33;fill-opacity:1;fill-rule:nonzero;stroke:none"/></g><g id="g56" transform="translate(9.2929,26.2929)"><path id="path58" d="m 0,0 c 0.132,-0.132 0.575,-0.575 0.707,-0.707 0.391,-0.391 1.024,-0.391 1.414,0 0.391,0.39 0.391,1.024 0,1.414 C 1.99,0.839 1.546,1.283 1.414,1.414 1.024,1.805 0.391,1.805 0,1.414 -0.391,1.024 -0.391,0.391 0,0" style="fill:#292f33;fill-opacity:1;fill-rule:nonzero;stroke:none"/></g><g id="g60" transform="translate(26,25.5858)"><path id="path62" d="m 0,0 c 0.132,0.132 0.575,0.575 0.707,0.707 0.391,0.391 0.391,1.024 0,1.414 -0.39,0.391 -1.024,0.391 -1.414,0 C -0.839,1.99 -1.283,1.546 -1.414,1.414 -1.805,1.024 -1.805,0.391 -1.414,0 -1.024,-0.391 -0.391,-0.391 0,0" style="fill:#292f33;fill-opacity:1;fill-rule:nonzero;stroke:none"/></g><g id="g64" transform="translate(8.9153,22.161)"><path id="path66" d="m 0,0 c -0.095,0.238 -0.099,0.512 0.011,0.765 0.218,0.508 0.806,0.742 1.313,0.523 l 8.154,-3.51 C 9.986,-2.441 10.22,-3.029 10.001,-3.536 9.783,-4.043 9.195,-4.277 8.688,-4.059 l -8.154,3.51 C 0.28,-0.439 0.095,-0.238 0,0" style="fill:#dd2e44;fill-opacity:1;fill-rule:nonzero;stroke:none"/></g></g></g></g></svg>