<svg xmlns="http://www.w3.org/2000/svg" xmlns:svg="http://www.w3.org/2000/svg" style="enable-background:new 0 0 45 45" id="svg2" version="1.1" viewBox="0 0 45 45" xml:space="preserve"><metadata id="metadata8"/><defs id="defs6"><clipPath id="clipPath16" clipPathUnits="userSpaceOnUse"><path id="path18" d="M 0,36 36,36 36,0 0,0 0,36 Z"/></clipPath></defs><g id="g10" transform="matrix(1.25,0,0,-1.25,0,45)"><g id="g12"><g id="g14" clip-path="url(#clipPath16)"><g id="g20" transform="translate(21,18)"><path id="path22" d="m 0,0 0,0.001 c 0,2 3.246,3.368 5,5.999 2,3 2,10 2,10 l -10,0 -10,0 c 0,0 0,-7 2,-9.999 1.753,-2.632 4.999,-4 4.999,-6 l 0,-0.001 c 0,-2.001 -3.246,-3.369 -4.999,-6 -2,-3 -2,-10 -2,-10 l 10,0 10,0 c 0,0 0,7 -2,10 -1.754,2.631 -5,3.999 -5,6" style="fill:#ffe8b6;fill-opacity:1;fill-rule:nonzero;stroke:none"/></g><g id="g24" transform="translate(18,34)"><path id="path26" d="M 0,0 -1.001,0 -8,0 c 0,0 0,-4 0.999,-7 C -5.697,-10.911 -1,-11.999 -1,-15.999 -1,-20 -1,-29 0,-29 c 1,0 1,9 1,13.001 0,4 4.697,5.088 6,8.999 1,3 1,7 1,7 L 0,0 Z" style="fill:#ffac33;fill-opacity:1;fill-rule:nonzero;stroke:none"/></g><g id="g28" transform="translate(30,2)"><path id="path30" d="m 0,0 c 0,-1.105 -0.895,-2 -2,-2 l -20,0 c -1.104,0 -2,0.895 -2,2 0,1.105 0.896,2 2,2 L -2,2 C -0.895,2 0,1.105 0,0" style="fill:#3b88c3;fill-opacity:1;fill-rule:nonzero;stroke:none"/></g><g id="g32" transform="translate(30,34)"><path id="path34" d="m 0,0 c 0,-1.104 -0.895,-2 -2,-2 l -20,0 c -1.104,0 -2,0.896 -2,2 0,1.104 0.896,2 2,2 L -2,2 C -0.895,2 0,1.104 0,0" style="fill:#3b88c3;fill-opacity:1;fill-rule:nonzero;stroke:none"/></g></g></g></g></svg>