<svg xmlns="http://www.w3.org/2000/svg" xmlns:svg="http://www.w3.org/2000/svg" style="enable-background:new 0 0 45 45" id="svg2" version="1.1" viewBox="0 0 45 45" xml:space="preserve"><metadata id="metadata8"/><defs id="defs6"><clipPath id="clipPath16" clipPathUnits="userSpaceOnUse"><path id="path18" d="M 0,36 36,36 36,0 0,0 0,36 Z"/></clipPath></defs><g id="g10" transform="matrix(1.25,0,0,-1.25,0,45)"><g id="g12"><g id="g14" clip-path="url(#clipPath16)"><g id="g20" transform="translate(16,34)"><path id="path22" d="M 0,0 C 0,0 0,2 2,2 4,2 4,0 4,0 l 0,-2 c 0,0 0,-2 -2,-2 -2,0 -2,2 -2,2 l 0,2 z" style="fill:#ffac33;fill-opacity:1;fill-rule:nonzero;stroke:none"/></g><g id="g24" transform="translate(34,20)"><path id="path26" d="M 0,0 C 0,0 2,0 2,-2 2,-4 0,-4 0,-4 l -2,0 c 0,0 -2,0 -2,2 0,2 2,2 2,2 l 2,0 z" style="fill:#ffac33;fill-opacity:1;fill-rule:nonzero;stroke:none"/></g><g id="g28" transform="translate(4,20)"><path id="path30" d="M 0,0 C 0,0 2,0 2,-2 2,-4 0,-4 0,-4 l -2,0 c 0,0 -2,0 -2,2 0,2 2,2 2,2 l 2,0 z" style="fill:#ffac33;fill-opacity:1;fill-rule:nonzero;stroke:none"/></g><g id="g32" transform="translate(9.1211,28.7065)"><path id="path34" d="m 0,0 c 0,0 1.414,-1.414 0,-2.828 -1.414,-1.414 -2.828,0 -2.828,0 l -1.415,1.414 c 0,0 -1.414,1.414 0,2.829 1.415,1.414 2.829,0 2.829,0 L 0,0 Z" style="fill:#ffac33;fill-opacity:1;fill-rule:nonzero;stroke:none"/></g><g id="g36" transform="translate(30.1211,7.707)"><path id="path38" d="m 0,0 c 0,0 1.414,-1.414 0,-2.828 -1.414,-1.414 -2.828,0 -2.828,0 l -1.414,1.414 c 0,0 -1.414,1.414 0,2.828 1.414,1.414 2.828,0 2.828,0 L 0,0 Z" style="fill:#ffac33;fill-opacity:1;fill-rule:nonzero;stroke:none"/></g><g id="g40" transform="translate(29.708,25.8789)"><path id="path42" d="m 0,0 c 0,0 -1.414,-1.414 -2.828,0 -1.414,1.414 0,2.828 0,2.828 l 1.414,1.414 c 0,0 1.414,1.414 2.828,0 1.414,-1.414 0,-2.828 0,-2.828 L 0,0 Z" style="fill:#ffac33;fill-opacity:1;fill-rule:nonzero;stroke:none"/></g><g id="g44" transform="translate(8.708,4.8789)"><path id="path46" d="m 0,0 c 0,0 -1.414,-1.414 -2.828,0 -1.414,1.414 0,2.828 0,2.828 l 1.414,1.414 c 0,0 1.414,1.414 2.828,0 1.414,-1.414 0,-2.828 0,-2.828 L 0,0 Z" style="fill:#ffac33;fill-opacity:1;fill-rule:nonzero;stroke:none"/></g><g id="g48" transform="translate(16,4)"><path id="path50" d="M 0,0 C 0,0 0,2 2,2 4,2 4,0 4,0 l 0,-2 c 0,0 0,-2 -2,-2 -2,0 -2,2 -2,2 l 0,2 z" style="fill:#ffac33;fill-opacity:1;fill-rule:nonzero;stroke:none"/></g><g id="g52" transform="translate(28,18)"><path id="path54" d="m 0,0 c 0,5.523 -4.477,10 -10,10 -5.523,0 -10,-4.477 -10,-10 0,-5.523 4.477,-10 10,-10 5.523,0 10,4.477 10,10" style="fill:#ffac33;fill-opacity:1;fill-rule:nonzero;stroke:none"/></g></g></g></g></svg>