<svg xmlns="http://www.w3.org/2000/svg" xmlns:svg="http://www.w3.org/2000/svg" style="enable-background:new 0 0 45 45" id="svg2" version="1.1" viewBox="0 0 45 45" xml:space="preserve"><metadata id="metadata8"/><defs id="defs6"><clipPath id="clipPath16" clipPathUnits="userSpaceOnUse"><path id="path18" d="M 0,36 36,36 36,0 0,0 0,36 Z"/></clipPath></defs><g id="g10" transform="matrix(1.25,0,0,-1.25,0,45)"><g id="g12"><g id="g14" clip-path="url(#clipPath16)"><g id="g20" transform="translate(8,10)"><path id="path22" d="M 0,0 C 0,5.523 4.477,10 10,10 15.523,10 20,5.523 20,0 20,-5.523 15.523,-10 10,-10 4.477,-10 0,-5.523 0,0" style="fill:#e1e8ed;fill-opacity:1;fill-rule:nonzero;stroke:none"/></g><g id="g24" transform="translate(12,24.9995)"><path id="path26" d="M 0,0 C 0,3.314 2.686,6 6,6 9.314,6 12,3.314 12,0 12,-3.314 9.314,-5.999 6,-5.999 2.686,-5.999 0,-3.314 0,0" style="fill:#e1e8ed;fill-opacity:1;fill-rule:nonzero;stroke:none"/></g><g id="g28" transform="translate(23,30)"><path id="path30" d="m 0,0 c 0,-1.104 -0.895,-2 -2,-2 l -6,0 c -1.104,0 -2,0.896 -2,2 l 0,4 c 0,1.104 0.896,2 2,2 l 6,0 C -0.895,6 0,5.104 0,4 L 0,0 Z" style="fill:#414042;fill-opacity:1;fill-rule:nonzero;stroke:none"/></g><g id="g32" transform="translate(25,29)"><path id="path34" d="m 0,0 c 0,-0.552 -0.447,-1 -1,-1 l -12,0 c -0.552,0 -1,0.448 -1,1 0,0.552 0.448,1 1,1 L -1,1 C -0.447,1 0,0.552 0,0" style="fill:#231f20;fill-opacity:1;fill-rule:nonzero;stroke:none"/></g><g id="g36" transform="translate(22.5,21)"><path id="path38" d="m 0,0 -9,0 c -0.829,0 -1.5,-0.671 -1.5,-1.5 0,-0.652 0.419,-1.202 1,-1.408 l 0,-7.092 c 0,-0.553 0.448,-1 1,-1 l 1,0 c 0.552,0 1,0.447 1,1 l 0,7 6.5,0 c 0.828,0 1.5,0.671 1.5,1.5 C 1.5,-0.671 0.828,0 0,0" style="fill:#dd2e44;fill-opacity:1;fill-rule:nonzero;stroke:none"/></g><g id="g40" transform="translate(19,12)"><path id="path42" d="m 0,0 c 0,-0.553 -0.447,-1 -1,-1 -0.552,0 -1,0.447 -1,1 0,0.553 0.448,1 1,1 0.553,0 1,-0.447 1,-1" style="fill:#414042;fill-opacity:1;fill-rule:nonzero;stroke:none"/></g><g id="g44" transform="translate(19,7)"><path id="path46" d="m 0,0 c 0,-0.553 -0.447,-1 -1,-1 -0.552,0 -1,0.447 -1,1 0,0.553 0.448,1 1,1 0.553,0 1,-0.447 1,-1" style="fill:#414042;fill-opacity:1;fill-rule:nonzero;stroke:none"/></g><g id="g48" transform="translate(19,24)"><path id="path50" d="m 0,0 c 0,-0.553 -0.447,-1 -1,-1 -0.552,0 -1,0.447 -1,1 0,0.553 0.448,1 1,1 0.553,0 1,-0.447 1,-1" style="fill:#f4900c;fill-opacity:1;fill-rule:nonzero;stroke:none"/></g><g id="g52" transform="translate(16,26)"><path id="path54" d="m 0,0 c 0,-0.553 -0.448,-1 -1,-1 -0.552,0 -1,0.447 -1,1 0,0.553 0.448,1 1,1 0.552,0 1,-0.447 1,-1" style="fill:#414042;fill-opacity:1;fill-rule:nonzero;stroke:none"/></g><g id="g56" transform="translate(22,26)"><path id="path58" d="m 0,0 c 0,-0.553 -0.447,-1 -1,-1 -0.553,0 -1,0.447 -1,1 0,0.553 0.447,1 1,1 0.553,0 1,-0.447 1,-1" style="fill:#414042;fill-opacity:1;fill-rule:nonzero;stroke:none"/></g><g id="g60" transform="translate(10.394,15.9189)"><path id="path62" d="M 0,0 -3.452,1.479 -3.999,4.345 C -4.103,4.887 -4.623,5.241 -5.169,5.14 -5.711,5.036 -6.067,4.512 -5.964,3.97 L -5.67,2.43 -7,3 C -7.508,3.218 -8.096,2.982 -8.313,2.475 -8.531,1.967 -8.295,1.379 -7.788,1.162 l 0.743,-0.318 -1.056,-1.056 c -0.391,-0.39 -0.391,-1.023 0,-1.414 0.195,-0.195 0.451,-0.293 0.707,-0.293 0.256,0 0.512,0.098 0.707,0.293 l 1.621,1.621 4.278,-1.833 c 0.128,-0.055 0.262,-0.081 0.394,-0.081 0.388,0 0.757,0.227 0.919,0.607 C 0.743,-0.805 0.507,-0.218 0,0" style="fill:#ffac33;fill-opacity:1;fill-rule:nonzero;stroke:none"/></g><g id="g64" transform="translate(33.3164,18.9487)"><path id="path66" d="m 0,0 -1.465,0.488 0.856,0.856 c 0.39,0.39 0.39,1.023 0,1.414 -0.391,0.39 -1.024,0.39 -1.414,0 L -2.774,2.006 -3.347,4.294 C -3.48,4.829 -4.024,5.159 -4.559,5.021 -5.095,4.887 -5.421,4.344 -5.286,3.808 l 0.862,-3.45 -3.599,-3.6 c -0.391,-0.39 -0.391,-1.023 0,-1.414 0.195,-0.195 0.451,-0.293 0.707,-0.293 0.255,0 0.511,0.098 0.707,0.293 l 3.563,3.563 2.413,-0.804 c 0.106,-0.036 0.212,-0.052 0.317,-0.052 0.418,0 0.808,0.265 0.948,0.684 C 0.807,-0.741 0.523,-0.175 0,0" style="fill:#ffac33;fill-opacity:1;fill-rule:nonzero;stroke:none"/></g><g id="g68" transform="translate(8,30)"><path id="path70" d="m 0,0 c -0.276,0 -0.5,0.224 -0.5,0.5 l 0,4 C -0.5,4.776 -0.276,5 0,5 0.276,5 0.5,4.776 0.5,4.5 l 0,-4 C 0.5,0.224 0.276,0 0,0" style="fill:#88c9f9;fill-opacity:1;fill-rule:nonzero;stroke:none"/></g><g id="g72" transform="translate(6.3364,30.8906)"><path id="path74" d="m 0,0 c -0.162,0 -0.32,0.078 -0.417,0.223 -0.153,0.229 -0.091,0.54 0.139,0.693 L 3.05,3.135 C 3.28,3.288 3.59,3.226 3.744,2.996 3.897,2.767 3.835,2.456 3.605,2.303 L 0.277,0.084 C 0.191,0.027 0.095,0 0,0" style="fill:#88c9f9;fill-opacity:1;fill-rule:nonzero;stroke:none"/></g><g id="g76" transform="translate(9.6636,30.8906)"><path id="path78" d="m 0,0 c -0.095,0 -0.191,0.027 -0.277,0.084 l -3.328,2.219 c -0.23,0.153 -0.292,0.464 -0.139,0.693 0.153,0.23 0.462,0.292 0.694,0.139 L 0.278,0.916 C 0.508,0.763 0.57,0.452 0.417,0.223 0.32,0.078 0.162,0 0,0" style="fill:#88c9f9;fill-opacity:1;fill-rule:nonzero;stroke:none"/></g><g id="g80" transform="translate(4,23)"><path id="path82" d="m 0,0 c -0.276,0 -0.5,0.224 -0.5,0.5 l 0,4 C -0.5,4.776 -0.276,5 0,5 0.276,5 0.5,4.776 0.5,4.5 l 0,-4 C 0.5,0.224 0.276,0 0,0" style="fill:#88c9f9;fill-opacity:1;fill-rule:nonzero;stroke:none"/></g><g id="g84" transform="translate(2.3364,23.8906)"><path id="path86" d="m 0,0 c -0.162,0 -0.32,0.078 -0.417,0.223 -0.153,0.229 -0.091,0.54 0.139,0.693 L 3.05,3.135 C 3.28,3.288 3.59,3.226 3.744,2.996 3.897,2.767 3.835,2.456 3.605,2.303 L 0.277,0.084 C 0.191,0.027 0.095,0 0,0" style="fill:#88c9f9;fill-opacity:1;fill-rule:nonzero;stroke:none"/></g><g id="g88" transform="translate(5.6636,23.8906)"><path id="path90" d="m 0,0 c -0.095,0 -0.191,0.027 -0.277,0.084 l -3.328,2.219 c -0.23,0.153 -0.292,0.464 -0.139,0.693 0.153,0.23 0.462,0.292 0.694,0.139 L 0.278,0.916 C 0.508,0.763 0.57,0.452 0.417,0.223 0.32,0.078 0.162,0 0,0" style="fill:#88c9f9;fill-opacity:1;fill-rule:nonzero;stroke:none"/></g><g id="g92" transform="translate(4,6)"><path id="path94" d="m 0,0 c -0.276,0 -0.5,0.224 -0.5,0.5 l 0,4 C -0.5,4.776 -0.276,5 0,5 0.276,5 0.5,4.776 0.5,4.5 l 0,-4 C 0.5,0.224 0.276,0 0,0" style="fill:#88c9f9;fill-opacity:1;fill-rule:nonzero;stroke:none"/></g><g id="g96" transform="translate(2.3364,6.8906)"><path id="path98" d="m 0,0 c -0.162,0 -0.32,0.078 -0.417,0.223 -0.153,0.229 -0.091,0.54 0.139,0.693 L 3.05,3.135 C 3.28,3.288 3.59,3.226 3.744,2.996 3.897,2.767 3.835,2.456 3.605,2.303 L 0.277,0.084 C 0.191,0.027 0.095,0 0,0" style="fill:#88c9f9;fill-opacity:1;fill-rule:nonzero;stroke:none"/></g><g id="g100" transform="translate(5.6636,6.8906)"><path id="path102" d="m 0,0 c -0.095,0 -0.191,0.027 -0.277,0.084 l -3.328,2.219 c -0.23,0.153 -0.292,0.464 -0.139,0.693 0.153,0.23 0.462,0.292 0.694,0.139 L 0.278,0.916 C 0.508,0.763 0.57,0.452 0.417,0.223 0.32,0.078 0.162,0 0,0" style="fill:#88c9f9;fill-opacity:1;fill-rule:nonzero;stroke:none"/></g><g id="g104" transform="translate(33,24)"><path id="path106" d="m 0,0 c -0.276,0 -0.5,0.224 -0.5,0.5 l 0,4 C -0.5,4.776 -0.276,5 0,5 0.276,5 0.5,4.776 0.5,4.5 l 0,-4 C 0.5,0.224 0.276,0 0,0" style="fill:#88c9f9;fill-opacity:1;fill-rule:nonzero;stroke:none"/></g><g id="g108" transform="translate(31.3364,24.8906)"><path id="path110" d="m 0,0 c -0.162,0 -0.32,0.078 -0.417,0.223 -0.153,0.229 -0.091,0.54 0.139,0.693 L 3.05,3.135 C 3.28,3.288 3.59,3.226 3.744,2.996 3.897,2.767 3.835,2.456 3.605,2.303 L 0.277,0.084 C 0.191,0.027 0.095,0 0,0" style="fill:#88c9f9;fill-opacity:1;fill-rule:nonzero;stroke:none"/></g><g id="g112" transform="translate(34.6636,24.8906)"><path id="path114" d="m 0,0 c -0.095,0 -0.191,0.027 -0.277,0.084 l -3.328,2.219 c -0.23,0.153 -0.292,0.464 -0.139,0.693 0.153,0.23 0.462,0.292 0.694,0.139 L 0.278,0.916 C 0.508,0.763 0.57,0.452 0.417,0.223 0.32,0.078 0.162,0 0,0" style="fill:#88c9f9;fill-opacity:1;fill-rule:nonzero;stroke:none"/></g><g id="g116" transform="translate(32,9)"><path id="path118" d="m 0,0 c -0.276,0 -0.5,0.224 -0.5,0.5 l 0,4 C -0.5,4.776 -0.276,5 0,5 0.276,5 0.5,4.776 0.5,4.5 l 0,-4 C 0.5,0.224 0.276,0 0,0" style="fill:#88c9f9;fill-opacity:1;fill-rule:nonzero;stroke:none"/></g><g id="g120" transform="translate(30.3364,9.8906)"><path id="path122" d="m 0,0 c -0.162,0 -0.32,0.078 -0.417,0.223 -0.153,0.229 -0.091,0.54 0.139,0.693 L 3.05,3.135 C 3.28,3.288 3.59,3.226 3.744,2.996 3.897,2.767 3.835,2.456 3.605,2.303 L 0.277,0.084 C 0.191,0.027 0.095,0 0,0" style="fill:#88c9f9;fill-opacity:1;fill-rule:nonzero;stroke:none"/></g><g id="g124" transform="translate(33.6636,9.8906)"><path id="path126" d="m 0,0 c -0.095,0 -0.191,0.027 -0.277,0.084 l -3.328,2.219 c -0.23,0.153 -0.292,0.464 -0.139,0.693 0.153,0.23 0.462,0.292 0.694,0.139 L 0.278,0.916 C 0.508,0.763 0.57,0.452 0.417,0.223 0.32,0.078 0.162,0 0,0" style="fill:#88c9f9;fill-opacity:1;fill-rule:nonzero;stroke:none"/></g><g id="g128" transform="translate(28,30)"><path id="path130" d="m 0,0 c -0.276,0 -0.5,0.224 -0.5,0.5 l 0,4 C -0.5,4.776 -0.276,5 0,5 0.276,5 0.5,4.776 0.5,4.5 l 0,-4 C 0.5,0.224 0.276,0 0,0" style="fill:#88c9f9;fill-opacity:1;fill-rule:nonzero;stroke:none"/></g><g id="g132" transform="translate(26.3364,30.8906)"><path id="path134" d="m 0,0 c -0.162,0 -0.32,0.078 -0.417,0.223 -0.153,0.229 -0.091,0.54 0.139,0.693 L 3.05,3.135 C 3.28,3.288 3.59,3.226 3.744,2.996 3.897,2.767 3.835,2.456 3.605,2.303 L 0.277,0.084 C 0.191,0.027 0.095,0 0,0" style="fill:#88c9f9;fill-opacity:1;fill-rule:nonzero;stroke:none"/></g><g id="g136" transform="translate(29.6636,30.8906)"><path id="path138" d="m 0,0 c -0.095,0 -0.191,0.027 -0.277,0.084 l -3.328,2.219 c -0.23,0.153 -0.292,0.464 -0.139,0.693 0.153,0.23 0.462,0.292 0.694,0.139 L 0.278,0.916 C 0.508,0.763 0.57,0.452 0.417,0.223 0.32,0.078 0.162,0 0,0" style="fill:#88c9f9;fill-opacity:1;fill-rule:nonzero;stroke:none"/></g></g></g></g></svg>