<svg xmlns="http://www.w3.org/2000/svg" xmlns:svg="http://www.w3.org/2000/svg" style="enable-background:new 0 0 45 45" id="svg2" version="1.1" viewBox="0 0 45 45" xml:space="preserve"><metadata id="metadata8"/><defs id="defs6"><clipPath id="clipPath16" clipPathUnits="userSpaceOnUse"><path id="path18" d="M 0,36 36,36 36,0 0,0 0,36 Z"/></clipPath></defs><g id="g10" transform="matrix(1.25,0,0,-1.25,0,45)"><g id="g12"><g id="g14" clip-path="url(#clipPath16)"><g id="g20" transform="translate(29,19.5)"><path id="path22" d="m 0,0 c 0,-7.456 -6.044,-13.5 -13.5,-13.5 -7.456,0 -13.5,6.044 -13.5,13.5 0,7.456 6.044,13.5 13.5,13.5 C -6.044,13.5 0,7.456 0,0" style="fill:#e1e8ed;fill-opacity:1;fill-rule:nonzero;stroke:none"/></g><g id="g24" transform="translate(4,19)"><path id="path26" d="m 0,0 c 0.226,-6.164 5.281,-11.096 11.5,-11.096 6.219,0 11.274,4.932 11.5,11.096 L 0,0 Z" style="fill:#8ccaf7;fill-opacity:1;fill-rule:nonzero;stroke:none"/></g><g id="g28" transform="translate(30,12)"><path id="path30" d="m 0,0 c 0,-1.104 -0.895,-2 -2,-2 l -25,0 c -1.104,0 -2,0.896 -2,2 0,1.105 0.896,2 2,2 L -2,2 C -0.895,2 0,1.105 0,0" style="fill:#67757f;fill-opacity:1;fill-rule:nonzero;stroke:none"/></g><g id="g32" transform="translate(16,2)"><path id="path34" d="m 0,0 c 0,-0.553 -0.448,-1 -1,-1 -0.552,0 -1,0.447 -1,1 l 0,8 c 0,0.553 0.448,1 1,1 0.552,0 1,-0.447 1,-1 L 0,0 Z" style="fill:#67757f;fill-opacity:1;fill-rule:nonzero;stroke:none"/></g><g id="g36" transform="translate(2.9419,1.6641)"><path id="path38" d="m 0,0 c -0.186,-0.521 -0.758,-0.791 -1.278,-0.605 -0.52,0.185 -0.791,0.757 -0.605,1.278 l 2.997,8.39 C 1.299,9.584 1.872,9.855 2.392,9.669 2.912,9.483 3.183,8.911 2.997,8.391 L 0,0 Z" style="fill:#67757f;fill-opacity:1;fill-rule:nonzero;stroke:none"/></g><g id="g40" transform="translate(28.0586,1.6641)"><path id="path42" d="m 0,0 c 0.186,-0.521 0.758,-0.791 1.277,-0.605 0.52,0.185 0.791,0.757 0.606,1.278 L -1.156,9.146 C -1.342,9.667 -1.914,9.938 -2.434,9.752 -2.953,9.566 -3.225,8.994 -3.039,8.474 L 0,0 Z" style="fill:#67757f;fill-opacity:1;fill-rule:nonzero;stroke:none"/></g><g id="g44" transform="translate(19,32.5)"><path id="path46" d="M 0,0 C 0,0 12.995,-4.556 14.375,-5 18,-6.167 16.5,-10.083 14,-9.458 9.054,-8.222 0,-5.5 -1,-5.5 -2,-5.5 0,0 0,0" style="fill:#e1e8ed;fill-opacity:1;fill-rule:nonzero;stroke:none"/></g><g id="g48" transform="translate(29,13)"><path id="path50" d="m 0,0 c 0,-0.553 -0.447,-1 -1,-1 l -25,0 c -0.552,0 -1,0.447 -1,1 0,0.553 0.448,1 1,1 L -1,1 C -0.447,1 0,0.553 0,0" style="fill:#9aaab4;fill-opacity:1;fill-rule:nonzero;stroke:none"/></g></g></g></g></svg>