<svg xmlns="http://www.w3.org/2000/svg" xmlns:svg="http://www.w3.org/2000/svg" style="enable-background:new 0 0 45 45" id="svg2" version="1.1" viewBox="0 0 45 45" xml:space="preserve"><metadata id="metadata8"/><defs id="defs6"><clipPath id="clipPath16" clipPathUnits="userSpaceOnUse"><path id="path18" d="M 0,36 36,36 36,0 0,0 0,36 Z"/></clipPath></defs><g id="g10" transform="matrix(1.25,0,0,-1.25,0,45)"><g id="g12"><g id="g14" clip-path="url(#clipPath16)"><g id="g20" transform="translate(18,5)"><path id="path22" d="m 0,0 c -6.104,0 -11,4.858 -11,9 l -2,0 C -13,3.754 -7.732,-2 0,-2 7.732,-2 13,3.754 13,9 L 11,9 C 11,4.858 6.105,0 0,0" style="fill:#d99e82;fill-opacity:1;fill-rule:nonzero;stroke:none"/></g><g id="g24" transform="translate(22,3.917)"><path id="path26" d="m 0,0 c 0,-1.059 -0.858,-1.917 -1.917,-1.917 l -4.166,0 C -7.142,-1.917 -8,-1.059 -8,0 l 0,0.166 c 0,1.059 0.858,1.917 1.917,1.917 l 4.166,0 C -0.858,2.083 0,1.225 0,0.166 L 0,0 Z" style="fill:#c1694f;fill-opacity:1;fill-rule:nonzero;stroke:none"/></g><path id="path28" d="m 7,14 -2,0 0,5 2,0 0,-5 z" style="fill:#d99e82;fill-opacity:1;fill-rule:nonzero;stroke:none"/><path id="path30" d="m 29,19 2,0 0,-5 -2,0 0,5 z" style="fill:#d99e82;fill-opacity:1;fill-rule:nonzero;stroke:none"/><g id="g32" transform="translate(2,19.0005)"><path id="path34" d="M 0,0 C 0,2.762 6.611,5 16,5 25.389,5 32,2.762 32,0 32,-2.761 25.389,-6.001 16,-6.001 6.611,-6.001 0,-2.761 0,0" style="fill:#ea596e;fill-opacity:1;fill-rule:nonzero;stroke:none"/></g><g id="g36" transform="translate(3,20.0005)"><path id="path38" d="M 0,0 C 0,7 6.198,14 15,14 23.802,14 30,7 30,0 30,-1 23.802,-4.001 15,-4.001 6.198,-4.001 0,-1 0,0" style="fill:#dd2e44;fill-opacity:1;fill-rule:nonzero;stroke:none"/></g><g id="g40" transform="translate(25,17)"><path id="path42" d="m 0,0 c -0.553,0 -1,0.448 -1,1.001 0,7.728 -1.93,13.625 -1.949,13.684 -0.174,0.523 0.109,1.09 0.634,1.264 0.522,0.173 1.088,-0.109 1.263,-0.632 0.08,-0.24 1.876,-5.711 2.04,-13.223 C 2.127,2.255 4.153,2.695 6.553,3.895 7.047,4.142 7.646,3.942 7.895,3.448 8.142,2.954 7.941,2.353 7.447,2.106 3.284,0.024 0.132,0 0,0" style="fill:#a0041e;fill-opacity:1;fill-rule:nonzero;stroke:none"/></g><g id="g44" transform="translate(11,17)"><path id="path46" d="m 0,0 c -0.132,0 -3.284,0.024 -7.447,2.106 -0.494,0.247 -0.695,0.848 -0.448,1.342 0.248,0.493 0.847,0.695 1.342,0.447 2.399,-1.2 4.425,-1.64 5.565,-1.801 0.164,7.512 1.959,12.983 2.039,13.223 0.176,0.524 0.744,0.805 1.264,0.632 C 2.839,15.775 3.123,15.208 2.949,14.685 2.929,14.626 1,8.729 1,1.001 1,0.448 0.552,0 0,0" style="fill:#a0041e;fill-opacity:1;fill-rule:nonzero;stroke:none"/></g><g id="g48" transform="translate(21,24)"><path id="path50" d="m 0,0 -2,0 0,2 C -2,2.552 -2.448,3 -3,3 -3.552,3 -4,2.552 -4,2 l 0,-2 -2,0 c -0.552,0 -1,-0.448 -1,-1 0,-0.552 0.448,-1 1,-1 l 2,0 0,-2 c 0,-0.552 0.448,-1 1,-1 0.552,0 1,0.448 1,1 l 0,2 2,0 c 0.553,0 1,0.448 1,1 0,0.552 -0.447,1 -1,1" style="fill:#fff;fill-opacity:1;fill-rule:nonzero;stroke:none"/></g></g></g></g></svg>