<svg xmlns="http://www.w3.org/2000/svg" xmlns:svg="http://www.w3.org/2000/svg" style="enable-background:new 0 0 45 45" id="svg2" version="1.1" viewBox="0 0 45 45" xml:space="preserve"><metadata id="metadata8"/><defs id="defs6"><clipPath id="clipPath16" clipPathUnits="userSpaceOnUse"><path id="path18" d="M 0,36 36,36 36,0 0,0 0,36 Z"/></clipPath></defs><g id="g10" transform="matrix(1.25,0,0,-1.25,0,45)"><g id="g12"><g id="g14" clip-path="url(#clipPath16)"><g id="g20" transform="translate(9,27)"><path id="path22" d="M 0,0 C 0,1.105 -0.896,2 -2,2 -3.104,2 -4,1.105 -4,0 l 0,-24 c 0,-1.104 0.896,-2 2,-2 1.104,0 2,0.896 2,2 L 0,0 Z" style="fill:#dd2e44;fill-opacity:1;fill-rule:nonzero;stroke:none"/></g><g id="g24" transform="translate(31,27)"><path id="path26" d="M 0,0 C 0,1.105 -0.895,2 -2,2 -3.104,2 -4,1.105 -4,0 l 0,-24 c 0,-1.104 0.896,-2 2,-2 1.105,0 2,0.896 2,2 L 0,0 Z" style="fill:#dd2e44;fill-opacity:1;fill-rule:nonzero;stroke:none"/></g><g id="g28" transform="translate(36,20)"><path id="path30" d="m 0,0 c 0,-1.104 -0.895,-2 -2,-2 l -32,0 c -1.104,0 -2,0.896 -2,2 0,1.105 0.896,2 2,2 L -2,2 C -0.895,2 0,1.105 0,0" style="fill:#dd2e44;fill-opacity:1;fill-rule:nonzero;stroke:none"/></g><g id="g32" transform="translate(35,29)"><path id="path34" d="m 0,0 c 0,-1.104 -0.781,-1.719 -2,-2 0,0 -3,-1 -15,-1 -12,0 -15,1 -15,1 -1.266,0.266 -2,0.896 -2,2 0,1.105 0.896,2 2,2 L -2,2 C -0.895,2 0,1.105 0,0" style="fill:#dd2e44;fill-opacity:1;fill-rule:nonzero;stroke:none"/></g><g id="g36" transform="translate(35.9063,32)"><path id="path38" d="m 0,0 c 0,-1.104 -0.659,-1.797 -1.908,-2 0,0 -4,-1 -15.999,-1 -11.998,0 -15.997,1 -15.997,1 -1.172,0.188 -1.893,0.886 -1.893,1.99 0,1.105 -0.211,3.01 0.893,3.01 0,0 3.999,-2 16.997,-2 C -4.908,1 -0.909,3 -0.909,3 0.195,3 0,1.105 0,0" style="fill:#292f33;fill-opacity:1;fill-rule:nonzero;stroke:none"/></g><g id="g40" transform="translate(20,21)"><path id="path42" d="m 0,0 c 0,-1.104 -0.895,-2 -2,-2 -1.104,0 -2,0.896 -2,2 l 0,6 c 0,1.105 0.896,2 2,2 1.105,0 2,-0.895 2,-2 L 0,0 Z" style="fill:#dd2e44;fill-opacity:1;fill-rule:nonzero;stroke:none"/></g><g id="g44" transform="translate(11,2)"><path id="path46" d="m 0,0 c 0,-1.104 -0.895,-2 -2,-2 l -4,0 c -1.104,0 -2,0.896 -2,2 0,1.104 0.896,2 2,2 l 4,0 C -0.895,2 0,1.104 0,0" style="fill:#292f33;fill-opacity:1;fill-rule:nonzero;stroke:none"/></g><g id="g48" transform="translate(33,2)"><path id="path50" d="m 0,0 c 0,-1.104 -0.895,-2 -2,-2 l -4,0 c -1.104,0 -2,0.896 -2,2 0,1.104 0.896,2 2,2 l 4,0 C -0.895,2 0,1.104 0,0" style="fill:#292f33;fill-opacity:1;fill-rule:nonzero;stroke:none"/></g></g></g></g></svg>