<svg xmlns="http://www.w3.org/2000/svg" xmlns:svg="http://www.w3.org/2000/svg" style="enable-background:new 0 0 45 45" id="svg2" version="1.1" viewBox="0 0 45 45" xml:space="preserve"><metadata id="metadata8"/><defs id="defs6"><clipPath id="clipPath16" clipPathUnits="userSpaceOnUse"><path id="path18" d="M 0,36 36,36 36,0 0,0 0,36 Z"/></clipPath></defs><g id="g10" transform="matrix(1.25,0,0,-1.25,0,45)"><g id="g12"><g id="g14" clip-path="url(#clipPath16)"><g id="g20" transform="translate(20,24.5)"><path id="path22" d="M 0,0 C 0,-0.829 -0.224,-1.5 -0.5,-1.5 -0.776,-1.5 -1,-0.829 -1,0 -1,0.829 -0.776,1.5 -0.5,1.5 -0.224,1.5 0,0.829 0,0" style="fill:#ea596e;fill-opacity:1;fill-rule:nonzero;stroke:none"/></g><g id="g24" transform="translate(26,24.5)"><path id="path26" d="M 0,0 C 0,-0.829 -0.224,-1.5 -0.5,-1.5 -0.776,-1.5 -1,-0.829 -1,0 -1,0.829 -0.776,1.5 -0.5,1.5 -0.224,1.5 0,0.829 0,0" style="fill:#ea596e;fill-opacity:1;fill-rule:nonzero;stroke:none"/></g><g id="g28" transform="translate(22,24.5)"><path id="path30" d="M 0,0 C 0,-0.829 -0.224,-1.5 -0.5,-1.5 -0.776,-1.5 -1,-0.829 -1,0 -1,0.829 -0.776,1.5 -0.5,1.5 -0.224,1.5 0,0.829 0,0" style="fill:#a6d388;fill-opacity:1;fill-rule:nonzero;stroke:none"/></g><g id="g32" transform="translate(19,24.5)"><path id="path34" d="M 0,0 C 0,-0.829 -0.224,-1.5 -0.5,-1.5 -0.776,-1.5 -1,-0.829 -1,0 -1,0.829 -0.776,1.5 -0.5,1.5 -0.224,1.5 0,0.829 0,0" style="fill:#a6d388;fill-opacity:1;fill-rule:nonzero;stroke:none"/></g><g id="g36" transform="translate(23,24.5)"><path id="path38" d="M 0,0 C 0,-0.829 -0.224,-1.5 -0.5,-1.5 -0.776,-1.5 -1,-0.829 -1,0 -1,0.829 -0.776,1.5 -0.5,1.5 -0.224,1.5 0,0.829 0,0" style="fill:#55acee;fill-opacity:1;fill-rule:nonzero;stroke:none"/></g><g id="g40" transform="translate(27,24.5)"><path id="path42" d="M 0,0 C 0,-0.829 -0.224,-1.5 -0.5,-1.5 -0.776,-1.5 -1,-0.829 -1,0 -1,0.829 -0.776,1.5 -0.5,1.5 -0.224,1.5 0,0.829 0,0" style="fill:#55acee;fill-opacity:1;fill-rule:nonzero;stroke:none"/></g><g id="g44" transform="translate(31,19.5)"><path id="path46" d="M 0,0 C 0,-0.829 -0.224,-1.5 -0.5,-1.5 -0.776,-1.5 -1,-0.829 -1,0 -1,0.829 -0.776,1.5 -0.5,1.5 -0.224,1.5 0,0.829 0,0" style="fill:#55acee;fill-opacity:1;fill-rule:nonzero;stroke:none"/></g><g id="g48" transform="translate(4,19.5)"><path id="path50" d="M 0,0 C 0,-0.829 -0.224,-1.5 -0.5,-1.5 -0.776,-1.5 -1,-0.829 -1,0 -1,0.829 -0.776,1.5 -0.5,1.5 -0.224,1.5 0,0.829 0,0" style="fill:#55acee;fill-opacity:1;fill-rule:nonzero;stroke:none"/></g><g id="g52" transform="translate(33,19.5)"><path id="path54" d="M 0,0 C 0,-0.829 -0.224,-1.5 -0.5,-1.5 -0.776,-1.5 -1,-0.829 -1,0 -1,0.829 -0.776,1.5 -0.5,1.5 -0.224,1.5 0,0.829 0,0" style="fill:#a6d388;fill-opacity:1;fill-rule:nonzero;stroke:none"/></g><g id="g56" transform="translate(7,19.5)"><path id="path58" d="M 0,0 C 0,-0.829 -0.224,-1.5 -0.5,-1.5 -0.776,-1.5 -1,-0.829 -1,0 -1,0.829 -0.776,1.5 -0.5,1.5 -0.224,1.5 0,0.829 0,0" style="fill:#a6d388;fill-opacity:1;fill-rule:nonzero;stroke:none"/></g><g id="g60" transform="translate(34,19.5)"><path id="path62" d="M 0,0 C 0,-0.829 -0.224,-1.5 -0.5,-1.5 -0.776,-1.5 -1,-0.829 -1,0 -1,0.829 -0.776,1.5 -0.5,1.5 -0.224,1.5 0,0.829 0,0" style="fill:#f4900c;fill-opacity:1;fill-rule:nonzero;stroke:none"/></g><g id="g64" transform="translate(6,19.5)"><path id="path66" d="M 0,0 C 0,-0.829 -0.224,-1.5 -0.5,-1.5 -0.776,-1.5 -1,-0.829 -1,0 -1,0.829 -0.776,1.5 -0.5,1.5 -0.224,1.5 0,0.829 0,0" style="fill:#f4900c;fill-opacity:1;fill-rule:nonzero;stroke:none"/></g><g id="g68" transform="translate(24,23.5)"><path id="path70" d="M 0,0 C 0,-0.829 -0.224,-1.5 -0.5,-1.5 -0.776,-1.5 -1,-0.829 -1,0 -1,0.829 -0.776,1.5 -0.5,1.5 -0.224,1.5 0,0.829 0,0" style="fill:#f4900c;fill-opacity:1;fill-rule:nonzero;stroke:none"/></g><g id="g72" transform="translate(29,19.5)"><path id="path74" d="m 0,0 0,2 c 0,0.276 0.224,0.5 0.5,0.5 l 1.9,0 -0.4,2 -24,0 -0.4,-2 0.9,0 c 0.276,0 0.5,-0.224 0.5,-0.5 l 0,-2 c 0,-0.276 -0.224,-0.5 -0.5,-0.5 l 21,0 C -0.776,-0.5 0,-0.276 0,0" style="fill:#ccd6dd;fill-opacity:1;fill-rule:nonzero;stroke:none"/></g><g id="g76" transform="translate(14,19.5)"><path id="path78" d="m 0,0 c 0,-0.276 -0.224,-0.5 -0.5,-0.5 l -4,0 C -4.776,-0.5 -5,-0.276 -5,0 l 0,2 c 0,0.276 0.224,0.5 0.5,0.5 l 4,0 C -0.224,2.5 0,2.276 0,2 L 0,0 Z" style="fill:#66757f;fill-opacity:1;fill-rule:nonzero;stroke:none"/></g><g id="g80" transform="translate(21,19.5)"><path id="path82" d="m 0,0 c 0,-0.276 -0.224,-0.5 -0.5,-0.5 l -4,0 C -4.776,-0.5 -5,-0.276 -5,0 l 0,2 c 0,0.276 0.224,0.5 0.5,0.5 l 4,0 C -0.224,2.5 0,2.276 0,2 L 0,0 Z" style="fill:#66757f;fill-opacity:1;fill-rule:nonzero;stroke:none"/></g><g id="g84" transform="translate(28,19.5)"><path id="path86" d="m 0,0 c 0,-0.276 -0.224,-0.5 -0.5,-0.5 l -4,0 C -4.776,-0.5 -5,-0.276 -5,0 l 0,2 c 0,0.276 0.224,0.5 0.5,0.5 l 4,0 C -0.224,2.5 0,2.276 0,2 L 0,0 Z" style="fill:#66757f;fill-opacity:1;fill-rule:nonzero;stroke:none"/></g><g id="g88" transform="translate(33.4023,11.292)"><path id="path90" d="m 0,0 c 0,0 1.598,4.708 1.598,8.708 l -34,0 c 1,-2 2.8,-5.557 4.24,-6.878 C -23.158,-2.762 0,0 0,0" style="fill:#ccd6dd;fill-opacity:1;fill-rule:nonzero;stroke:none"/></g><g id="g92" transform="translate(3.7622,15)"><path id="path94" d="m 0,0 c 0.504,-0.771 1.01,-1.448 1.478,-1.878 5.004,-4.592 28.162,-1.83 28.162,-1.83 0,0 0.538,1.593 0.99,3.708 L 0,0 Z" style="fill:#dd2e44;fill-opacity:1;fill-rule:nonzero;stroke:none"/></g><g id="g96" transform="translate(8,16.5)"><path id="path98" d="m 0,0 c 0,-0.276 -0.224,-0.5 -0.5,-0.5 l -1,0 C -1.776,-0.5 -2,-0.276 -2,0 l 0,1 c 0,0.276 0.224,0.5 0.5,0.5 l 1,0 C -0.224,1.5 0,1.276 0,1 L 0,0 Z" style="fill:#66757f;fill-opacity:1;fill-rule:nonzero;stroke:none"/></g><g id="g100" transform="translate(12,16.5)"><path id="path102" d="m 0,0 c 0,-0.276 -0.224,-0.5 -0.5,-0.5 l -1,0 C -1.776,-0.5 -2,-0.276 -2,0 l 0,1 c 0,0.276 0.224,0.5 0.5,0.5 l 1,0 C -0.224,1.5 0,1.276 0,1 L 0,0 Z" style="fill:#66757f;fill-opacity:1;fill-rule:nonzero;stroke:none"/></g><g id="g104" transform="translate(16,16.5)"><path id="path106" d="m 0,0 c 0,-0.276 -0.224,-0.5 -0.5,-0.5 l -1,0 C -1.776,-0.5 -2,-0.276 -2,0 l 0,1 c 0,0.276 0.224,0.5 0.5,0.5 l 1,0 C -0.224,1.5 0,1.276 0,1 L 0,0 Z" style="fill:#66757f;fill-opacity:1;fill-rule:nonzero;stroke:none"/></g><g id="g108" transform="translate(20,16.5)"><path id="path110" d="m 0,0 c 0,-0.276 -0.224,-0.5 -0.5,-0.5 l -1,0 C -1.776,-0.5 -2,-0.276 -2,0 l 0,1 c 0,0.276 0.224,0.5 0.5,0.5 l 1,0 C -0.224,1.5 0,1.276 0,1 L 0,0 Z" style="fill:#66757f;fill-opacity:1;fill-rule:nonzero;stroke:none"/></g><g id="g112" transform="translate(24,16.5)"><path id="path114" d="m 0,0 c 0,-0.276 -0.224,-0.5 -0.5,-0.5 l -1,0 C -1.776,-0.5 -2,-0.276 -2,0 l 0,1 c 0,0.276 0.224,0.5 0.5,0.5 l 1,0 C -0.224,1.5 0,1.276 0,1 L 0,0 Z" style="fill:#66757f;fill-opacity:1;fill-rule:nonzero;stroke:none"/></g><g id="g116" transform="translate(28,16.5)"><path id="path118" d="m 0,0 c 0,-0.276 -0.224,-0.5 -0.5,-0.5 l -1,0 C -1.776,-0.5 -2,-0.276 -2,0 l 0,1 c 0,0.276 0.224,0.5 0.5,0.5 l 1,0 C -0.224,1.5 0,1.276 0,1 L 0,0 Z" style="fill:#66757f;fill-opacity:1;fill-rule:nonzero;stroke:none"/></g><g id="g120" transform="translate(32,16.5)"><path id="path122" d="m 0,0 c 0,-0.276 -0.224,-0.5 -0.5,-0.5 l -1,0 C -1.776,-0.5 -2,-0.276 -2,0 l 0,1 c 0,0.276 0.224,0.5 0.5,0.5 l 1,0 C -0.224,1.5 0,1.276 0,1 L 0,0 Z" style="fill:#66757f;fill-opacity:1;fill-rule:nonzero;stroke:none"/></g><g id="g124" transform="translate(15,23)"><path id="path126" d="m 0,0 -8.4,-1 0.9,6.208 7.5,0 L 0,0 Z" style="fill:#ccd6dd;fill-opacity:1;fill-rule:nonzero;stroke:none"/></g><g id="g128" transform="translate(14,28.5)"><path id="path130" d="M 0,0 C 0,-0.276 -0.224,-0.5 -0.5,-0.5 -0.776,-0.5 -1,-0.276 -1,0 l 0,4 c 0,0.276 0.224,0.5 0.5,0.5 C -0.224,4.5 0,4.276 0,4 L 0,0 Z" style="fill:#ccd6dd;fill-opacity:1;fill-rule:nonzero;stroke:none"/></g><g id="g132" transform="translate(12,26.5)"><path id="path134" d="M 0,0 C 0,-0.276 -0.224,-0.5 -0.5,-0.5 -0.776,-0.5 -1,-0.276 -1,0 l 0,4 c 0,0.276 0.224,0.5 0.5,0.5 C -0.224,4.5 0,4.276 0,4 L 0,0 Z" style="fill:#ccd6dd;fill-opacity:1;fill-rule:nonzero;stroke:none"/></g><g id="g136" transform="translate(15.5,28.25)"><path id="path138" d="m 0,0 c 0,-0.138 -0.224,-0.25 -0.5,-0.25 l -7.5,0 c -0.276,0 -0.5,0.112 -0.5,0.25 l 0,0.5 c 0,0.138 0.224,0.25 0.5,0.25 l 7.5,0 C -0.224,0.75 0,0.638 0,0.5 L 0,0 Z" style="fill:#269;fill-opacity:1;fill-rule:nonzero;stroke:none"/></g><g id="g140" transform="translate(13.5,27)"><path id="path142" d="M 0,0 -6.15,0 -6.45,-2 0,-2 c 0.276,0 0.5,0.224 0.5,0.5 l 0,1 C 0.5,-0.224 0.276,0 0,0" style="fill:#66757f;fill-opacity:1;fill-rule:nonzero;stroke:none"/></g><path id="path144" d="m 12,24 -1,0 0,4 1,0 0,-4 z" style="fill:#ccd6dd;fill-opacity:1;fill-rule:nonzero;stroke:none"/><path id="path146" d="M 36,12 0,12 0,0 36,0 36,12 Z" style="fill:#55acee;fill-opacity:1;fill-rule:nonzero;stroke:none"/></g></g></g></svg>