<svg xmlns="http://www.w3.org/2000/svg" xmlns:svg="http://www.w3.org/2000/svg" style="enable-background:new 0 0 45 45" id="svg2" version="1.1" viewBox="0 0 45 45" xml:space="preserve"><metadata id="metadata8"/><defs id="defs6"><clipPath id="clipPath16" clipPathUnits="userSpaceOnUse"><path id="path18" d="M 0,36 36,36 36,0 0,0 0,36 Z"/></clipPath></defs><g id="g10" transform="matrix(1.25,0,0,-1.25,0,45)"><g id="g12"><g id="g14" clip-path="url(#clipPath16)"><g id="g20" transform="translate(36,4)"><path id="path22" d="m 0,0 c 0,-2.209 -1.791,-4 -4,-4 l -28,0 c -2.209,0 -4,1.791 -4,4 l 0,28 c 0,2.209 1.791,4 4,4 l 28,0 c 2.209,0 4,-1.791 4,-4 L 0,0 Z" style="fill:#77b255;fill-opacity:1;fill-rule:nonzero;stroke:none"/></g><g id="g24" transform="translate(15,18)"><path id="path26" d="M 0,0 C 0,1.657 1.343,3 3,3 4.656,3 6,1.657 6,0 6,-1.656 4.656,-3 3,-3 1.343,-3 0,-1.656 0,0" style="fill:#fff;fill-opacity:1;fill-rule:nonzero;stroke:none"/></g><g id="g28" transform="translate(20,32)"><path id="path30" d="M 0,0 C 0,1.104 -0.895,2 -2,2 -3.104,2 -4,1.104 -4,0 l 0,-8 c 0,-1.104 0.896,-2 2,-2 1.105,0 2,0.896 2,2 l 0,8 z" style="fill:#fff;fill-opacity:1;fill-rule:nonzero;stroke:none"/></g><g id="g32" transform="translate(20,12)"><path id="path34" d="M 0,0 C 0,1.105 -0.895,2 -2,2 -3.104,2 -4,1.105 -4,0 l 0,-8 c 0,-1.105 0.896,-2 2,-2 1.105,0 2,0.895 2,2 l 0,8 z" style="fill:#fff;fill-opacity:1;fill-rule:nonzero;stroke:none"/></g><g id="g36" transform="translate(4,20)"><path id="path38" d="m 0,0 c -1.104,0 -2,-0.895 -2,-2 0,-1.104 0.896,-2 2,-2 l 8,0 c 1.105,0 2,0.896 2,2 0,1.105 -0.895,2 -2,2 L 0,0 Z" style="fill:#fff;fill-opacity:1;fill-rule:nonzero;stroke:none"/></g><g id="g40" transform="translate(24,20)"><path id="path42" d="m 0,0 c -1.104,0 -2,-0.895 -2,-2 0,-1.104 0.896,-2 2,-2 l 8,0 c 1.105,0 2,0.896 2,2 0,1.105 -0.895,2 -2,2 L 0,0 Z" style="fill:#fff;fill-opacity:1;fill-rule:nonzero;stroke:none"/></g><g id="g44" transform="translate(15.1714,22.2427)"><path id="path46" d="m 0,0 c 0.391,-0.391 0.391,-1.024 0,-1.414 -0.39,-0.391 -1.023,-0.391 -1.414,0 l -7.485,7.485 c -0.391,0.39 -0.391,1.024 0,1.414 0.39,0.391 1.023,0.391 1.414,0 L 0,0 Z" style="fill:#fff;fill-opacity:1;fill-rule:nonzero;stroke:none"/></g><g id="g48" transform="translate(29.7275,7.6865)"><path id="path50" d="m 0,0 c 0.392,-0.391 0.391,-1.024 0,-1.414 -0.39,-0.391 -1.023,-0.392 -1.414,0 l -7.485,7.485 c -0.391,0.391 -0.391,1.024 0,1.414 0.39,0.391 1.023,0.391 1.414,0 L 0,0 Z" style="fill:#fff;fill-opacity:1;fill-rule:nonzero;stroke:none"/></g><g id="g52" transform="translate(13.7573,15.1719)"><path id="path54" d="m 0,0 c 0.391,0.391 1.024,0.391 1.414,0 0.391,-0.391 0.391,-1.023 0,-1.414 L -6.071,-8.9 c -0.39,-0.391 -1.024,-0.391 -1.414,0 -0.391,0.39 -0.391,1.024 0,1.415 L 0,0 Z" style="fill:#fff;fill-opacity:1;fill-rule:nonzero;stroke:none"/></g><g id="g56" transform="translate(28.3135,29.7275)"><path id="path58" d="m 0,0 c 0.391,0.392 1.024,0.391 1.414,0 0.391,-0.39 0.392,-1.023 0,-1.414 l -7.485,-7.485 c -0.391,-0.391 -1.024,-0.391 -1.414,0 -0.391,0.39 -0.391,1.023 0,1.414 L 0,0 Z" style="fill:#fff;fill-opacity:1;fill-rule:nonzero;stroke:none"/></g></g></g></g></svg>