<svg xmlns="http://www.w3.org/2000/svg" xmlns:svg="http://www.w3.org/2000/svg" style="enable-background:new 0 0 45 45" id="svg2" version="1.1" viewBox="0 0 45 45" xml:space="preserve"><metadata id="metadata8"/><defs id="defs6"><clipPath id="clipPath16" clipPathUnits="userSpaceOnUse"><path id="path18" d="M 0,36 36,36 36,0 0,0 0,36 Z"/></clipPath></defs><g id="g10" transform="matrix(1.25,0,0,-1.25,0,45)"><g id="g12"><g id="g14" clip-path="url(#clipPath16)"><g id="g20" transform="translate(27.2866,1.3731)"><path id="path22" d="m 0,0 c -0.404,0 -0.806,0.124 -1.152,0.371 l -8.134,5.834 -8.135,-5.834 c -0.693,-0.496 -1.623,-0.496 -2.312,0.008 -0.689,0.499 -0.979,1.385 -0.721,2.194 l 3.034,9.792 -8.062,5.68 c -0.685,0.506 -0.97,1.393 -0.708,2.204 0.264,0.807 1.016,1.357 1.866,1.363 l 9.984,0.015 3.179,9.549 c 0.268,0.809 1.023,1.353 1.875,1.353 0.851,0 1.606,-0.544 1.875,-1.353 L -4.287,21.627 5.75,21.612 C 6.602,21.606 7.355,21.056 7.617,20.249 7.88,19.438 7.595,18.551 6.909,18.045 L -1.153,12.365 1.881,2.573 C 2.141,1.764 1.848,0.878 1.161,0.379 0.814,0.125 0.407,0 0,0" style="fill:#ffac33;fill-opacity:1;fill-rule:nonzero;stroke:none"/></g></g></g></g></svg>