<svg xmlns="http://www.w3.org/2000/svg" xmlns:svg="http://www.w3.org/2000/svg" style="enable-background:new 0 0 45 45" id="svg2" version="1.1" viewBox="0 0 45 45" xml:space="preserve"><metadata id="metadata8"/><defs id="defs6"><clipPath id="clipPath16" clipPathUnits="userSpaceOnUse"><path id="path18" d="M 0,36 36,36 36,0 0,0 0,36 Z"/></clipPath></defs><g id="g10" transform="matrix(1.25,0,0,-1.25,0,45)"><g id="g12"><g id="g14" clip-path="url(#clipPath16)"><g id="g20" transform="translate(18,6)"><path id="path22" d="M 0,0 C -6.627,0 -12,5.373 -12,12.001 -12,18.628 -6.627,24 0,24 6.627,24 12,18.628 12,12.001 12,5.373 6.627,0 0,0 M 0.001,30 C -9.941,30 -18,21.941 -18,12 -18,2.059 -9.941,-6 0.001,-6 9.941,-6 18,2.059 18,12 18,21.941 9.941,30 0.001,30" style="fill:#dd2e44;fill-opacity:1;fill-rule:nonzero;stroke:none"/></g></g></g></g></svg>